<svg xmlns="http://www.w3.org/2000/svg" viewBox="0 0 59.94 76.1"><defs><style>.cls-1{fill:#f9b7a9;}.cls-1,.cls-4,.cls-5,.cls-6,.cls-7{stroke:#7c7c80;}.cls-1,.cls-5,.cls-7{stroke-miterlimit:10;}.cls-2{opacity:0.14;}.cls-3{fill:#896b4a;}.cls-4,.cls-7{fill:none;}.cls-5{fill:#f7c481;}.cls-6{fill:#fff;}.cls-7{stroke-width:2px;}</style></defs><title>yman</title><g id="Layer_2" data-name="Layer 2"><g id="Layer_1-2" data-name="Layer 1"><path class="cls-1" d="M47.09,10c4.37-.45,6.55,3.46,6.85,7.32.31,4-3.25,3.78-6.14,4.7"/><g class="cls-2"><path class="cls-3" d="M47.62,11.19a11.23,11.23,0,0,1,.77,9.66c-.31.85,1,1.21,1.35.37a12.6,12.6,0,0,0-.91-10.73.7.7,0,0,0-1.21.71Z"/></g><path class="cls-4" d="M48.27,10.47c-1.43-4.32-4.43-9.4-9.41-9.9C34.2.11,27.72,1.94,28.23,7.41"/><path class="cls-1" d="M28,7.17c-4.16,0-8.52.33-9.43,5s1,7.87,5.66,8"/><path class="cls-5" d="M42.21,34.24c-1.49-3,3.32-6.61,5.2-11.71,1.78-4.8,1.36-12-3-15.91A12.48,12.48,0,0,0,32.25,4.29c-3.15,1.22-5.54,5.32-6.88,8.31-1.54,3.42-1.62,8.64-.9,12.33.53,2.72,2.63,6.3,2.6,9-4.88,1.49-9.64,4.37-14.37,6.55-1.38.64-3.67,1.68-5.3,1C6,41,5.61,39.22,4.13,38.69a12.83,12.83,0,0,0,.1,2.85,8.84,8.84,0,0,0-2.93.17c1.55.81,2.83,1.7,1,3.15,1.54,0,3.06-.83,4.77-1a30.85,30.85,0,0,0,7.22-1.49c3.44-1.2,7.72-2.22,10.78-4.14.24,2.8-1.17,5.93-1.55,8.77a62.52,62.52,0,0,0-.26,8.3c0,3.2-.13,6.44,0,9.64.06,1.43.56,3.34.26,4.69-.35,1.54-.88,1.64-2.08,2.6a10.75,10.75,0,0,0,4.09.22c.25-4.89,1.37-9,2.35-13.69S29,51.67,34.5,52c.27,5.18-1.86,9.65-2.52,14.53-.18,1.35-.92,4.75-.07,6s4.6,1.62,4.12-.74c-4.41.89.77-14.6,1.45-16.43a49.93,49.93,0,0,0,1.91-8.06c.53-2.8,1.42-6.39,1.34-9.08,2.11,2.61,5.41,4.32,7.37,7.15,1.8-2.26,5.77-6.52,6.18-9.48,1.84-2.07,5.92-.33,5-4.43-.94.29-1.87,1.09-3,1.22.76-1.18,2.08-3,.28-3.83-1,1.49-2.35,3.53-3.89,6-2.63,4.23-3.76,6.41-5.17,6.28-.52,0-1-.63-1.89-1.75-.68-.83-.91-1.37-2.17-3.29l-.7-1A3,3,0,0,1,42.21,34.24Z"/><path class="cls-4" d="M37.82,26.68H33.08"/><path class="cls-4" d="M37.3,16.67c0,2.38.15,4.72-.53,6.85"/><path class="cls-6" d="M34.13,13.08a8.81,8.81,0,0,1,0,2.16,21.72,21.72,0,0,1-2.62,0c-.51-2,1.23-1.81,2.66-1.67"/><path class="cls-6" d="M42.76,15.19a4.18,4.18,0,0,1,0,1.18,4.33,4.33,0,0,1-1.88,0,3.06,3.06,0,0,1,0-1.39,6.81,6.81,0,0,1,2.4.21"/><line class="cls-7" x1="39.29" y1="73.85" x2="16.94" y2="73.58"/><g class="cls-2"><path class="cls-3" d="M38.26,5.1C48.7,8,47.17,19.69,43.31,27.25c-1.49,2.92-4,5.93-2.2,9.28,1.1,2.09,4.58,6.17,7.09,6.48,3.62.44,5.75-5.43,7.27-7.71l-1.21-.71a24.82,24.82,0,0,1-5.64,7l1.1.85c2-4.2,5.85-7.54,8-11.79.41-.8-.8-1.51-1.21-.71-2.2,4.28-6,7.52-8,11.79a.7.7,0,0,0,1.1.85,25.29,25.29,0,0,0,5.86-7.3.7.7,0,0,0-1.21-.71l-1.94,2.93c-1.43,2.15-1.25,3-4,2.8C44.09,40,41.77,34.73,43,30.8c1.28-4.18,4-7.22,4.69-11.77,1-6.85-2.15-13.36-9-15.28a.7.7,0,0,0-.37,1.35Z"/></g><g class="cls-2"><path class="cls-3" d="M39.38,37.39a76.78,76.78,0,0,1-4.13,19,35,35,0,0,0-1.71,16.42c.11.88,1.51.89,1.4,0-.87-6.9.58-12.78,2.86-19.22,1.86-5.26,2.48-10.69,3-16.21.08-.9-1.32-.89-1.4,0Z"/></g><g class="cls-2"><path class="cls-3" d="M34.84,50.49c-3.74-.79-6.46,1.5-7.89,4.86-2.14,5-2.89,11.49-3.07,16.92,0,.9,1.37.9,1.4,0,.16-4.74,1.14-22.13,9.18-20.43.88.19,1.25-1.16.37-1.35Z"/></g><g class="cls-2"><path class="cls-3" d="M17.06,75.64Q28,76.29,39,76a.7.7,0,0,0,0-1.4q-11,.25-21.89-.39c-.9-.05-.9,1.35,0,1.4Z"/></g><g class="cls-2"><path class="cls-3" d="M27,7.44a13.81,13.81,0,0,0-4.34,11.73c.1.89,1.5.9,1.4,0A12.47,12.47,0,0,1,28,8.43c.66-.62-.33-1.61-1-1Z"/></g></g></g></svg>