<svg xmlns="http://www.w3.org/2000/svg" viewBox="0 0 211.72 71.56"><defs><style>.cls-1{fill:#f7c481;}.cls-1,.cls-2,.cls-3,.cls-4,.cls-5,.cls-6{stroke:#7c7c80;}.cls-1,.cls-2,.cls-3,.cls-4,.cls-6,.cls-9{stroke-width:0.5px;}.cls-2{fill:none;}.cls-3{fill:#f08a6e;}.cls-4,.cls-9{fill:#fff;}.cls-5,.cls-6{fill:#7c7c80;}.cls-5{stroke-width:0.3px;}.cls-7{opacity:0.14;}.cls-8{fill:#896b4a;}.cls-9{stroke:#231f20;stroke-miterlimit:10;}.cls-10{fill:#534b4b;}.cls-11{fill:#231f20;}</style></defs><g id="Layer_2" data-name="Layer 2"><g id="Layer_1-2" data-name="Layer 1"><path class="cls-1" d="M158.86,10.07A70.19,70.19,0,0,1,154.94.38"/><path class="cls-1" d="M155.66,11.55l-2.5-1.63"/><path class="cls-1" d="M154.14,14.57,144.14,8"/><path class="cls-1" d="M152.41,17.9a41.65,41.65,0,0,0-6.14-3.56"/><path class="cls-1" d="M151.61,20.5a22.4,22.4,0,0,0-4.77-.89"/><path class="cls-1" d="M161.33,9a13.18,13.18,0,0,1,.08-3.52"/><path class="cls-1" d="M189.41,46.92a12.9,12.9,0,0,0,1.66-6.82,5.56,5.56,0,0,1,.15-2.23,5.17,5.17,0,0,1,1.94-2,21.29,21.29,0,0,0,8.41-15.44,11.94,11.94,0,0,0-.37-4.21,9.52,9.52,0,0,0-5.67-5.85,13.72,13.72,0,0,0-8.29-.38,8.83,8.83,0,0,0-4.59,2.44c-2,2.25-2,5.6-1.81,8.61.22,4.27.53,8.81,3.07,12.24l-1,1.27c-.87.41-8.32,1-9.1.57s-.44-.36-.73-.93c-.44-.82-.51-1.33-1.59-1.79a1.76,1.76,0,0,0-1.8-.08,4.24,4.24,0,0,0-.79,1.91c-.21,1.84,1.76,1.53,2.84,2.21a15.71,15.71,0,0,0,3.22,1.8c1.21.4,2.66,1.12,3.94.66s4.26-1.76,4.26-1.76c-1.81,3.16-4,8.94-6.23,8.94s-3.79-.23-4.44.56c-.46.55-.05,3.36-.05,4.07,0,1.19,0,2.39,0,3.57-.05,1,.27,2.82-.4,3.54s-1.4.49-1.78,1.34c-.28.62,4.84,2.4,6,1.65.57-.35,1-.7.73-1.5-.16-.51-.72-.59-.89-1.05-.4-1-.12-3.46,0-4.55.13-.87.42-1.63.5-2.48.07-.67,0-1.37,0-2,.78-.18,2.16.75,2.94,1l1.47-.48,8.34-2.75"/><path class="cls-1" d="M189.64,45.93l.71,1.38-.71-1.38c1.05,0,.71,1.38.48,2-.3.77-.82,1.38.08,2.09.69.54,1.94.31,2.76.31a18.82,18.82,0,0,1,5.42.8c2.2.65,5.17.44,7.1,1.7a6.34,6.34,0,0,1,2.74,5c-5.75.24-11.57-.33-17.32,0-.06,1.89.15,4.09-.35,5.88-3.1.05-6.11-.18-9.19-.33-3.55-.18-7.13,0-10.68,0-1.21,0-2.4-.14-3.61-.18-.79,0-1.79.25-2.44-.2a17.12,17.12,0,0,1-1.87-1.7c-1.88-1.84-2.68-4.69-3.94-6.92a7.9,7.9,0,0,0-1.48,3.18,69.09,69.09,0,0,1-9.54.17,17.38,17.38,0,0,1,.18-4.08c.41-1.67,1.61-2.65,2.81-3.82A6.87,6.87,0,0,1,155,47.49a31,31,0,0,1,5.53-.08c1.66.1,2.2-2,2.58-3.4A12.92,12.92,0,0,1,165,39.58c.72-.91,1.79-1.44,2.57-2.32l-2.2,1.59-1.53-.14-1.13-.77,0-2.49,2.85-1.86,3.19.27,3,3.23-3.27,8.53-2.12,6.87s-1.84,5.77,7.31,8.31c2.53.7,4.23.38,5.31-.49,2.42-2-1.43-9.4-.64-9.72.08,0,.19,0,.7-.06.31,0,.56-.08.74-.12Z"/><path class="cls-1" d="M148.38,58a13.62,13.62,0,0,1,3.32.08,6.12,6.12,0,0,0,1.55,4.19c1,1.2,2.8,1.23,4.31,1.07a3.41,3.41,0,0,0,2.72-1.65c.43-.73.15-1.79.68-2.35a6.66,6.66,0,0,0,2,2.17,10.71,10.71,0,0,1,2.24,1.86c.66.92.12,2-.68,2.79-2,2-4.26,2.38-7,2.39a13.63,13.63,0,0,1-5.42-.65,7.22,7.22,0,0,1-3.89-3.18,7.79,7.79,0,0,1-.93-4.14,3.14,3.14,0,0,1,.31-1.74c.16-.31.44-.45.49-.84"/><path class="cls-1" d="M195.14,57.59c0,1.26-.09,2.56-.1,3.84,0,2.43,1.77,3.13,4,3.31a6.06,6.06,0,0,0,4.18-1.14c1.17-1,1.85-1.33,1.72-3a7.07,7.07,0,0,1-.18-1.79c.16-1.08.48-.8,1.7-.8.55,0,1.79-.25,2.22,0s.65,1.55.71,1.92c.43,2.44-1.49,4.68-2.41,6.72a6.92,6.92,0,0,1-1.19,2.49c-1.06,1-3.31.8-4.67.81-3.29,0-5.93.48-8.37-1.89-1.44-1.41-2.36-2.45-2.29-4.53,0-.86.31-1.52.35-2.36a11.71,11.71,0,0,1,.07-2.65c.43-1.41,3-.72,4.23-1"/><path class="cls-1" d="M158.86,10.07A70.19,70.19,0,0,1,154.94.38"/><path class="cls-1" d="M155.66,11.55l-2.5-1.63"/><path class="cls-1" d="M154.14,14.57,144.14,8"/><path class="cls-1" d="M152.41,17.9a41.65,41.65,0,0,0-6.14-3.56"/><path class="cls-1" d="M151.61,20.5a22.4,22.4,0,0,0-4.77-.89"/><path class="cls-1" d="M161.33,9a13.18,13.18,0,0,1,.08-3.52"/><path class="cls-2" d="M150.22,69.48c6,1.16,12.92.22,19.1.22h20.5c7.3,0,14.59,0,21.89,0-2.77-.16-5.37.47-8.1.72-4.18.39-8.45.28-12.64.41-7.5.24-15,0-22.51.32-8.21.32-16.47,0-24.69,0"/><path class="cls-1" d="M172,33.41a5,5,0,0,0,2.72-2.61c-.7.15-1,.28-1.21-.41a.91.91,0,0,1,.71-1.23,1.08,1.08,0,0,1,1.5.86c.12,1.06-.85.37-1.2,1"/><path class="cls-3" d="M172,33.41a5,5,0,0,0,2.72-2.61c-.7.15-1,.28-1.21-.41a.91.91,0,0,1,.71-1.23,1.08,1.08,0,0,1,1.5.86c.12,1.06-.85.37-1.2,1"/><path class="cls-1" d="M195.53,10.37a13.72,13.72,0,0,0-8.29-.38,8.83,8.83,0,0,0-4.59,2.44c-2,2.25-2,5.6-1.81,8.61.22,4.27.53,8.81,3.07,12.24l-1,1.27c-.87.41-8.32,1-9.1.57s-.44-.36-.73-.93c-.44-.82-.51-1.33-1.59-1.79a1.76,1.76,0,0,0-1.8-.08,4.24,4.24,0,0,0-.79,1.91c-.21,1.84,1.76,1.53,2.84,2.21a15.71,15.71,0,0,0,3.22,1.8c1.21.4,2.66,1.12,3.94.66s4.26-1.76,4.26-1.76c-1.81,3.16-4,8.94-6.23,8.94s-3.79-.23-4.44.56c-.46.55-.05,3.36-.05,4.07,0,1.19,0,2.39,0,3.57-.05,1,.27,2.82-.4,3.54s-1.4.49-1.78,1.34c-.28.62,4.84,2.4,6,1.65.57-.35,1-.7.73-1.5-.16-.51-.72-.59-.89-1.05-.4-1-.12-3.46,0-4.55.13-.87.42-1.63.5-2.48.07-.67,0-1.37,0-2,.78-.18,2.16.75,2.94,1l1.47-.48,8.34-2.75"/><path class="cls-4" d="M189.66,16.39a8.79,8.79,0,0,0-.88,0,7.67,7.67,0,0,0-.87.08,4.26,4.26,0,0,0,.46,3,9.73,9.73,0,0,0,3.95,0,5.34,5.34,0,0,0,.39-1.27,5.78,5.78,0,0,0,.07-1.32A21.9,21.9,0,0,0,189.66,16.39Z"/><path class="cls-4" d="M181.39,16.27a4.35,4.35,0,0,0,0,2.5c2.31.49,4.27-.53,3.83-2.31a15.2,15.2,0,0,0-3.92,0"/><path class="cls-1" d="M186.82,22.27c-1.19,0-2.78-.48-2.7,1.16.06,1.35,1.32,1.23,2.49,1.19a13.39,13.39,0,0,1,0,1.9"/><path class="cls-1" d="M185.25,26.76h3.09"/><path class="cls-3" d="M189.64,45.93l.71,1.38-.71-1.38c1.05,0,.71,1.38.48,2-.3.77-.82,1.38.08,2.09.69.54,1.94.31,2.76.31a18.82,18.82,0,0,1,5.42.8c2.2.65,5.17.44,7.1,1.7a6.34,6.34,0,0,1,2.74,5c-5.75.24-11.57-.33-17.32,0-.06,1.89.15,4.09-.35,5.88-3.1.05-6.11-.18-9.19-.33-3.55-.18-7.13,0-10.68,0-1.21,0-2.4-.14-3.61-.18-.79,0-1.79.25-2.44-.2a17.12,17.12,0,0,1-1.87-1.7c-1.88-1.84-2.68-4.69-3.94-6.92a7.9,7.9,0,0,0-1.48,3.18,69.09,69.09,0,0,1-9.54.17,17.38,17.38,0,0,1,.18-4.08c.41-1.67,1.61-2.65,2.81-3.82A6.87,6.87,0,0,1,155,47.49a31,31,0,0,1,5.53-.08c1.66.1,2.2-2,2.58-3.4A12.92,12.92,0,0,1,165,39.58c.72-.91,1.79-1.44,2.57-2.32l-2.2,1.59-1.53-.14-1.13-.77,0-2.49,2.85-1.86,3.19.27,3,3.23-3.27,8.53-2.12,6.87s-1.84,5.77,7.31,8.31c2.53.7,4.23.38,5.31-.49,2.42-2-1.43-9.4-.64-9.72.08,0,.19,0,.7-.06.31,0,.56-.08.74-.12Z"/><path class="cls-5" d="M148.38,58a13.62,13.62,0,0,1,3.32.08,6.12,6.12,0,0,0,1.55,4.19c1,1.2,2.8,1.23,4.31,1.07a3.41,3.41,0,0,0,2.72-1.65c.43-.73.15-1.79.68-2.35a6.66,6.66,0,0,0,2,2.17,10.71,10.71,0,0,1,2.24,1.86c.66.92.12,2-.68,2.79-2,2-4.26,2.38-7,2.39a13.63,13.63,0,0,1-5.42-.65,7.22,7.22,0,0,1-3.89-3.18,7.79,7.79,0,0,1-.93-4.14,3.14,3.14,0,0,1,.31-1.74c.16-.31.44-.45.49-.84"/><path class="cls-6" d="M195.14,57.59c0,1.26-.09,2.56-.1,3.84,0,2.43,1.77,3.13,4,3.31a6.06,6.06,0,0,0,4.18-1.14c1.17-1,1.85-1.33,1.72-3a7.07,7.07,0,0,1-.18-1.79c.16-1.08.48-.8,1.7-.8.55,0,1.79-.25,2.22,0s.65,1.55.71,1.92c.43,2.44-1.49,4.68-2.41,6.72a6.92,6.92,0,0,1-1.19,2.49c-1.06,1-3.31.8-4.67.81-3.29,0-5.93.48-8.37-1.89-1.44-1.41-2.36-2.45-2.29-4.53,0-.86.31-1.52.35-2.36a11.71,11.71,0,0,1,.07-2.65c.43-1.41,3-.72,4.23-1"/><path class="cls-5" d="M184.09,33.61c0,.44,1.17,1,3.49,2,.88.39,1.32.58,2,.81a16.51,16.51,0,0,0,4.33.74c1,.06,2.56.28,3.41-.5,1-.94.89-3.15-.13-4.34s-2.86-1.12-5.67-.91C188.38,31.66,184.07,32.57,184.09,33.61Z"/><path class="cls-3" d="M188.35,5.38a2.31,2.31,0,0,1-1.93-.9,3.19,3.19,0,0,1-.62-2.07,2.34,2.34,0,0,1,.22-1,2.05,2.05,0,0,1,.76-.76,2.77,2.77,0,0,1,2.33-.28A2.58,2.58,0,0,1,190.76,2a3.15,3.15,0,0,1,.13,1.06,2.39,2.39,0,0,1-.62,1.68,3.18,3.18,0,0,1-2.1.59"/><path class="cls-1" d="M185.25,17.26l2.33.12"/><g class="cls-7"><path class="cls-8" d="M191.41,36.9A19.43,19.43,0,0,1,190,46.37c-.35.83,1,1.19,1.35.37a20.2,20.2,0,0,0,1.5-9.84c-.08-.88-1.48-.89-1.4,0Z"/></g><path class="cls-2" d="M194.08,9.92a39.4,39.4,0,0,1,.33-6.51l-3.6-.06"/><g class="cls-7"><path class="cls-8" d="M194.14,10.22c3.63,2.75,5.61,5.41,5.74,10.21a15.42,15.42,0,0,1-3.7,10.64c-.59.68.4,1.67,1,1a17.85,17.85,0,0,0,4.09-13c-.22-4.72-2.8-7.33-6.41-10.06-.72-.55-1.42.67-.71,1.2Z"/></g><g class="cls-7"><path class="cls-8" d="M197.41,32.2c.35,1.13,2,4.34.07,4.75-1.6.34-3.8-.33-5.34-.72a.7.7,0,0,0-.37,1.35,24.69,24.69,0,0,0,4.28.72c1,.07,2.18.22,3-.46,1.71-1.4.2-4.41-.29-6-.27-.86-1.62-.49-1.35.38Z"/></g><g class="cls-7"><path class="cls-8" d="M169.89,36.7c-.19,6.76-6.75,12.89-4.52,20.1,1.51,4.89,6.34,5.78,10.88,6,.9,0,.9-1.35,0-1.4-3.68-.19-8-.45-9.53-5-.94-2.86.1-6.2,1-8.94,1.15-3.61,3.48-6.93,3.59-10.79,0-.9-1.37-.9-1.4,0Z"/></g><g class="cls-7"><path class="cls-8" d="M165.63,65q12.78.76,25.57,1.16c.9,0,.9-1.37,0-1.4q-12.8-.4-25.57-1.16c-.9-.06-.9,1.34,0,1.4Z"/></g><g class="cls-7"><path class="cls-8" d="M207.88,58.49c.21,3.94,1.37,7.65-2.5,10.29-.74.51,0,1.72.71,1.21a8.19,8.19,0,0,0,3.28-4.16c.82-2.43,0-4.87-.09-7.34-.05-.89-1.45-.9-1.4,0Z"/></g><g class="cls-7"><path class="cls-8" d="M195.46,57.93c-.25,3.38.82,7.63,5,7.39,4.06-.24,5.78-4.38,5.55-7.95-.06-.89-1.46-.9-1.4,0,.17,2.75-.86,6.31-4.15,6.55-3.44.24-3.83-3.46-3.64-6,.07-.9-1.33-.9-1.4,0Z"/></g><g class="cls-7"><path class="cls-8" d="M150.89,58.49a6.81,6.81,0,0,0,6,5.22c3.31.32,4.71-2.48,5.52-5.21a.7.7,0,0,0-1.35-.38c-.66,2.24-1.61,4.55-4.4,4.12a5.28,5.28,0,0,1-4.45-4.12c-.16-.89-1.51-.51-1.35.37Z"/></g><g class="cls-7"><path class="cls-8" d="M189,46.75c.13,3,.65,4.72,3.73,5.17,2.5.37,5.07.29,7.58.62,3.84.5,5.53,2.53,7.06,5.79.39.81,1.59.1,1.21-.71-1.21-2.57-2.55-4.92-5.37-5.9-3.69-1.29-12.56.75-12.81-5,0-.89-1.44-.9-1.4,0Z"/></g><g class="cls-7"><path class="cls-8" d="M171.89,37.7c3.39.69,7.39,2.15,10.69.46.8-.42.09-1.62-.71-1.21-2.84,1.46-6.67,0-9.61-.6-.88-.17-1.26,1.18-.37,1.35Z"/></g><g class="cls-7"><path class="cls-8" d="M176.23,48.85a79.75,79.75,0,0,0-.75,11.35.7.7,0,0,0,1.4,0,77.57,77.57,0,0,1,.7-11c.11-.88-1.23-1.26-1.35-.37Z"/></g><g class="cls-7"><path class="cls-8" d="M146.73,60.58c0,3.67,1.71,8.53,5.87,9.08,2.41.33,4.54-.89,6.75-1.6s4.8-.8,6.8-2.34c.71-.54,0-1.75-.71-1.2-2.05,1.57-5.2,1.76-7.64,2.63a12.42,12.42,0,0,1-4.19,1.16c-4.12-.1-5.5-4.56-5.48-7.73a.7.7,0,0,0-1.4,0Z"/></g><g class="cls-7"><path class="cls-8" d="M144.53,71.28c11.05-1,22.17-2,33.28-1.31,5.48.36,10.91,1.36,16.41,1.33a88.33,88.33,0,0,0,15.62-1.84c.89-.17.51-1.52-.37-1.35a80.94,80.94,0,0,1-17.2,1.77c-5.47-.17-10.89-1.16-16.36-1.42-10.48-.51-20.95.46-31.38,1.42-.89.09-.9,1.49,0,1.4Z"/></g><path class="cls-9" d="M134.27,27.78a22.75,22.75,0,0,0,5.11,1.6,18.43,18.43,0,0,1,2.77,1.06c.86.44,1.29.9,1.27,1.25-.08,1.13-5.52,1.2-9.59,2.12-7.13,1.62-11.35,6.16-13.52,7.95-9.8,8.13-32.52,5.74-61.4,5.09C19.48,46,9.09,48.49,4,40.67-.24,34.18.76,23.93,5.33,18.3c0,0,7.38-9.14,51.16-6.29L57,12c35.22,2.36,60.33-2.43,66.36,6.08C123.31,18.12,128.26,25.09,134.27,27.78Z"/><g class="cls-7"><path class="cls-10" d="M0,34.59C3.1,45.38,12.46,48.11,22.56,48.89,37.66,50.05,53,49.8,68.14,50c13.51.16,27.49,1.49,40.88-.92a26.82,26.82,0,0,0,12.68-5.9c6.25-5,11.77-7.93,20-8.09a1.05,1.05,0,0,0,0-2.1,30.49,30.49,0,0,0-14.23,3.3c-4.2,2.3-7.34,6.11-11.55,8.39-5.46,3-12.3,3.15-18.38,3.47-6.59.34-13.16-.13-19.75-.19-13.45-.11-26.89-.4-40.33-.63C25.06,47.11,6.34,49.11,2.07,34a1.05,1.05,0,0,0-2,.56Z"/></g><path class="cls-11" d="M21,23.89c-.07.12-.14.24-.22.35a13.06,13.06,0,0,0,5.12,4l-1.24,1.24c-.14.14-.25.22-.34.22a.4.4,0,0,1-.21-.08,18.21,18.21,0,0,1-2-1.51v.81l-.07.06-1.34,0H19l-1.34,0-.08-.08v-.71a15.49,15.49,0,0,1-1.81,1.42.71.71,0,0,1-.29.12.28.28,0,0,1-.2-.09l-1.17-1.08a13.29,13.29,0,0,0,5-5.18l.13,0,1.77.46Zm-4.89,7.36L16,31.18V29.75l.07-.07,1.35,0H22l1-.06.64.62a.32.32,0,0,1,.13.23.75.75,0,0,1-.06.24,40.26,40.26,0,0,1-1.8,4.16l-1.78-.43a24.28,24.28,0,0,0,1.43-3.25h-4Zm5.35-3.84a15.09,15.09,0,0,1-1.55-1.84,23,23,0,0,1-1.55,1.85h2.38Z"/><path class="cls-11" d="M27.33,28a16.71,16.71,0,0,0,2.93.07c0-.38,0-.77,0-1.15a21.13,21.13,0,0,1-2.64,0l-.09-.11,0-1.34.09-.07a24.75,24.75,0,0,0,2.59,0c0-.5,0-1,0-1.55l.08-.1h1.62l.09.1c0,.46,0,.94,0,1.39.66-.1,1.27-.2,1.83-.34l.09.1.16,1.25L34,26.3a16.32,16.32,0,0,1-2,.41c0,.39,0,.76,0,1.14a19.11,19.11,0,0,0,2.23-.49l.1.07.2,1.36-.06.11a19.71,19.71,0,0,1-2.42.51c0,.57.05,1.1.09,1.6a13.7,13.7,0,0,1,3.35,2v.12l-1.06,1.27H34.3a13.86,13.86,0,0,0-2.19-1.67c-.07,1.3-1.11,1.81-2.8,1.81-1.14,0-2.48-.52-2.48-1.93,0-1.63,1.74-2,3.56-1.94,0-.36,0-.73-.05-1.09a20.59,20.59,0,0,1-3.25-.06l-.07-.1L27.25,28Zm2.15,4.1c-.62,0-1,.26-1,.48s.25.5,1,.5.91-.3.87-.84A2,2,0,0,0,29.48,32.06Z"/><path class="cls-11" d="M36.73,28.18l-.4-1.59.05-.09c3.35-.82,6-1.37,9.41-2l.11.06.35,1.6-.08.11a5.87,5.87,0,0,0-3.23.94,4.1,4.1,0,0,0-1.75,3.12A1.53,1.53,0,0,0,42.36,32a10,10,0,0,0,2.87.26l.08.09-.09,1.82-.1.07a9.43,9.43,0,0,1-3.79-.55,3.12,3.12,0,0,1-1.94-3.14A4.58,4.58,0,0,1,41,27.12c-1.17.29-2.46.63-4.16,1.11Zm7.6,0,.62-.44h.12A7.41,7.41,0,0,1,46.3,29v.12l-.66.47h-.12a7.72,7.72,0,0,0-1.19-1.3Zm1.13-.76.61-.44h.12a7.38,7.38,0,0,1,1.19,1.24v.12l-.63.45h-.12a7.26,7.26,0,0,0-1.17-1.25Z"/><path class="cls-11" d="M50.77,34.9H49.09l.06-3.71V29.85a4.84,4.84,0,0,1-.53.94.19.19,0,0,1-.16.12c-.06,0-.1,0-.13-.13l-.42-1.67a16.45,16.45,0,0,0,2-5.54l.11-.06,1.51.37.06.11a28.89,28.89,0,0,1-.86,2.77ZM56,29h.7l1.65,0,.07.06v1.33l-.07.06-1.65,0H56V33h1.45l1.73,0,.07.06v1.33l-.07.06-1.73,0H52.89l-1.68,0-.08-.07V33.05L51.2,33l1.69,0h1.36V30.37h-.72l-1.57,0-.09-.07V29L52,29l1.58,0h.72V27H53.14l-1.63,0L51.43,27V25.67l.07-.07,1.64,0h1.64a10.52,10.52,0,0,0-1.42-1.32l0-.11,1.19-.84.13,0a12.47,12.47,0,0,1,1.62,1.35v.12l-1.07.77h2.07l1.67,0,.07.06V27l-.07.06-1.67,0H56Z"/><path class="cls-11" d="M64.64,24l1.6.67,0,.13c-.77,1.41-1.41,2.48-2,3.65a1.81,1.81,0,0,1,.94-.26A1.66,1.66,0,0,1,67,29.89c0,.75,0,1.46,0,1.81s0,.57.34.57c.74,0,1.6-.84,2.47-2.71L70.85,31a.33.33,0,0,1,0,.44c-1,1.87-2.27,2.75-3.66,2.75s-2.06-.64-2.06-1.82c0-.53.06-1.31.06-1.95s-.13-.78-.53-.78c-.6,0-1.07.53-1.46,1.24a26.86,26.86,0,0,0-1.47,3.19l-.12,0L60,33.52l0-.13c1.47-3.32,3-6.33,4.52-9.36Z"/><path class="cls-11" d="M72.22,34c.62-2.28,1.16-4.23,1.7-6.2-.61.07-1.22.13-1.82.17L72,27.87l-.12-1.46.08-.09c.89-.08,1.67-.16,2.4-.26.18-.67.38-1.38.57-2.09l.11-.06,1.64.26.09.1c-.16.5-.32,1-.45,1.52.48-.09,1-.18,1.41-.28l.09,0,.11,1.5-.08.1c-.65.12-1.34.24-2,.34-.64,2.23-1.22,4.42-1.84,6.89l-.1,0-1.64-.36Zm4-1.1.88-1.1h.12c.6.65,1.17.81,2.54.81A11.79,11.79,0,0,0,82,32.39l.1,0v1.68l-.08.1a16.4,16.4,0,0,1-2.26.13c-2.11,0-2.78-.49-3.48-1.33Zm1.13-3.63.11-1.48.09-.11c.6-.05,1.18-.07,1.75-.07a17.66,17.66,0,0,1,2.28.14l.09.1-.12,1.49-.11.07c-.82-.07-1.61-.12-2.47-.12-.49,0-1,0-1.53.06ZM79.47,25l.62-.44h.12a7.74,7.74,0,0,1,1.22,1.27V26l-.66.47h-.12a7.69,7.69,0,0,0-1.19-1.3Zm1.12-.75.62-.45h.12a7.38,7.38,0,0,1,1.19,1.24l0,.12-.62.45h-.12a7.33,7.33,0,0,0-1.18-1.25Z"/><path class="cls-11" d="M91.78,33.77c-1.11.09-2.27.14-3.79.14-2.88,0-4.26-.88-4.26-2.77,0-1.09.9-2.13,2.17-3-.58-.85-1.22-1.9-1.75-2.86l0-.12,1.45-.76.12,0c.53,1,1.13,2,1.7,2.79A37.26,37.26,0,0,1,91,25.69l.12,0,.71,1.57,0,.1c-1,.35-2.11.75-2.81,1.06a.75.75,0,0,0-.32.6.89.89,0,0,1-.87.78,1.2,1.2,0,0,1-.82-.33c-.94.54-1.36,1.05-1.36,1.61,0,.81,1,1,2.44,1,1,0,2.23-.09,3.7-.24l.09.07,0,1.71Z"/><path class="cls-11" d="M93.41,30.88l1.49-.49.1,0c.2,1.25.85,1.45,2.86,1.45a26.63,26.63,0,0,0,3.86-.3l.11.08.17,1.8-.07.11a37.56,37.56,0,0,1-4.19.19c-3.59,0-4.24-1.45-4.39-2.8Zm1.41-5.83a19.3,19.3,0,0,0,2.14.11,27.09,27.09,0,0,0,3.71-.3l.08.07,0,1.7-.1.08a21,21,0,0,1-3.76.3,20.35,20.35,0,0,1-2.17-.11l-.09-.08,0-1.7Z"/><path class="cls-11" d="M105.64,32.74h.63c3.26,0,4.48-1,4.48-2.18,0-.68-.52-1.32-1.82-1.32a4,4,0,0,0-2.44.94,16.07,16.07,0,0,0-2,2.08h-.12l-1.22-1,0-.13c2-2.12,3.33-3.67,4.75-5.18-.78.18-1.84.39-2.94.57l-.11-.08-.24-1.53.07-.1c1.66-.24,3.19-.47,4.67-.72l.24,0a1,1,0,0,1,1.13.95.83.83,0,0,1-.23.62c-1.08,1.08-1.66,1.64-2.48,2.47a3.45,3.45,0,0,1,1.34-.27c1.92,0,3.38,1.1,3.38,2.77,0,2.61-2,3.74-5.77,3.86a.32.32,0,0,1-.34-.16Z"/><path class="cls-11" d="M117.27,33.15a1.71,1.71,0,1,1-1.71-1.7A1.67,1.67,0,0,1,117.27,33.15Zm-2.7,0a1,1,0,1,0,1-1A1,1,0,0,0,114.57,33.15Z"/></g></g></svg>