<?xml version="1.0" encoding="UTF-8"?>
<svg id="Layer_2" data-name="Layer 2" xmlns="http://www.w3.org/2000/svg" viewBox="0 0 190.63 96.73">
  <defs>
    <style>
      .cls-1 {
        opacity: .14;
      }

      .cls-2 {
        fill: #f9b9ad;
      }

      .cls-2, .cls-3, .cls-4, .cls-5, .cls-6 {
        stroke-width: 0px;
      }

      .cls-3 {
        fill: #896b4a;
      }

      .cls-4 {
        fill: #231f20;
      }

      .cls-5 {
        fill: #fff;
      }

      .cls-6 {
        fill: #fcd03f;
      }
    </style>
  </defs>
  <g id="Layer_1-2" data-name="Layer 1">
    <g>
      <g>
        <circle class="cls-6" cx="12.91" cy="50.87" r="12.91"/>
        <rect class="cls-5" x="4.02" y="47.63" width="17.78" height="6.48"/>
      </g>
      <g>
        <g>
          <path class="cls-2" d="m87.06,62.46c-6.47-.81-11.82-5.83-14.63-11.71-2.81-5.88-3.45-12.54-3.65-19.06-.07-2.1-.09-4.22.35-6.27,1.3-6.11,6.48-10.69,12.02-13.56,7.11-3.69,15.44-5.28,23.27-3.59,7.83,1.7,15,6.9,18.28,14.2,1.87,4.16,2.44,8.8,2.36,13.37-.07,3.54-.52,7.06-1.35,10.5-.97,4.02-2.48,7.97-5.01,11.23-2.54,3.26-6.19,5.79-10.27,6.37,3.61,7.79,6.63,15.86,9.03,24.11.63,2.16,1.65,4.73,3.87,5.02.77.1,1.66-.08,2.23.45.58.54.39,1.59-.21,2.1s-1.47.61-2.26.53c-2.7-.26-5-2.19-6.46-4.47-1.47-2.28-2.25-4.92-3.16-7.47-1.45-4.08-3.27-8.02-5.4-11.78.54,7.94,5.85,15.3,4.86,23.2-6.83.16-13.66.33-20.49.49-.05-7.38-.11-14.75-.16-22.13,0-.36-.03-.77-.31-.99-.29-.23-.7-.15-1.05-.06-5.59,1.39-11.19,2.78-16.78,4.16-3.25-4.69-5.55-10.04-6.72-15.62,1.63-1.97,5-.87,6.6,1.13,1.6,2,2.3,4.62,4.01,6.52.28.31.61.61,1.03.66.38.04.75-.15,1.09-.33,3.18-1.77,6.06-4.08,8.48-6.79-.43-.61-1.25-.92-1.98-.75"/>
          <path class="cls-4" d="m87.2,61.93c-10.54-1.46-15.79-12.01-17.19-21.49-.41-2.75-.58-5.52-.68-8.3s-.13-5.66.82-8.35c1.59-4.49,5.31-7.92,9.29-10.34,8.91-5.41,20.62-7.24,30.3-2.83,4.16,1.9,7.89,4.84,10.49,8.62,3,4.37,4.16,9.61,4.27,14.84.23,10.89-3.31,27.29-16.24,29.35-.38.06-.46.52-.33.8,2.01,4.35,3.85,8.79,5.48,13.29.83,2.28,1.61,4.57,2.33,6.88.6,1.91,1.05,3.91,1.83,5.76.54,1.27,1.33,2.57,2.63,3.16.7.32,1.37.29,2.11.36,1.02.09,1.2,1.34.2,1.78-.55.24-1.17.21-1.75.12-4.61-.71-6.74-5.59-8.1-9.46-1.7-4.82-3.65-9.48-6.17-13.94-.25-.45-1.06-.28-1.02.28.62,7.93,5.76,15.11,4.86,23.2l.55-.55c-6.83.16-13.66.33-20.49.49l.55.55c-.03-3.77-.05-7.54-.08-11.31l-.04-5.9c-.01-1.72.23-3.67-.06-5.36-.19-1.11-1.02-1.35-2.03-1.14-1.85.39-3.68.91-5.51,1.37-3.76.93-7.51,1.86-11.27,2.8l.62.25c-3.22-4.69-5.47-9.93-6.66-15.49l-.14.53c1.9-2.07,4.96-.15,6.22,1.67,1.36,1.97,2.03,4.56,3.84,6.21,1.63,1.48,3.84-.52,5.23-1.48,2.17-1.5,4.15-3.25,5.92-5.21.21-.23.2-.54,0-.77-.67-.77-1.51-1.02-2.51-.89-.69.1-.4,1.15.29,1.05.6-.08,1.07.17,1.45.61v-.77c-1.47,1.63-3.08,3.13-4.84,4.43-.9.67-1.83,1.29-2.8,1.85-.62.37-1.35.85-2.08.29-.41-.31-.71-.86-.99-1.29-1.87-2.88-2.86-6.69-6.66-7.54-1.23-.28-2.71-.13-3.63.83-.53.55-.33.89-.16,1.62.26,1.14.57,2.27.93,3.39,1.31,4.1,3.23,7.97,5.66,11.51.14.21.37.31.62.25,3.2-.79,6.39-1.59,9.59-2.38,1.6-.4,3.2-.79,4.79-1.19.62-.15,1.78-.71,2.4-.59,1.05.2.68,1.99.69,2.74.05,6.64.1,13.28.14,19.91,0,.29.25.55.55.55,6.83-.16,13.66-.33,20.49-.49.32,0,.51-.25.55-.55.91-8.13-4.24-15.26-4.86-23.2l-1.02.28c2.7,4.78,4.58,9.77,6.5,14.89,1.43,3.81,3.79,8.05,8.14,8.97,1.41.3,3.33.24,4.02-1.27.27-.59.3-1.32-.07-1.88-.5-.75-1.34-.79-2.16-.85-2.41-.18-3.3-2.27-3.93-4.35-.79-2.57-1.55-5.14-2.41-7.68-1.95-5.74-4.22-11.37-6.76-16.87l-.33.8c11.66-1.86,15.96-15.1,16.86-25.26.52-5.83.12-11.98-2.4-17.35-2.06-4.37-5.52-8-9.61-10.53-9.44-5.86-21.35-5.24-31.16-.62-4.48,2.11-8.76,5.13-11.47,9.35-3.18,4.96-2.74,10.89-2.29,16.52.5,6.15,1.78,12.47,5.32,17.65,3.05,4.47,7.65,7.99,13.11,8.74.69.09.98-.96.29-1.05h0Z"/>
        </g>
        <g>
          <path class="cls-2" d="m57.14,60.8c-.61,1.56-1.22,3.15-1.33,4.83-.11,1.67.36,3.47,1.61,4.58.1.09.22.18.36.19.32.01.47-.39.54-.7.28-1.35.85-2.64,1.66-3.76.22-.3.52-.62.89-.59.39.03.62.43.8.77.64,1.29,1.29,2.58,1.93,3.87,1.25-1.36,2.05-3.14,2.24-4.98.03-.28.07-.61.3-.77.38-.26.85.13,1.14.47.64.76,1.27,1.52,1.91,2.28.13.16.27.32.47.37.53.14.86-.56.96-1.1.25-1.38.5-2.77.74-4.15.82,1.2,2.1,2.08,3.51,2.41.19-1.82.19-3.66-.01-5.48-.08-.79-.21-1.59-.6-2.29-.7-1.27-2.14-1.95-3.55-2.27-4.02-.93-8.37.45-11.54,3.08-1.3,1.08-2.5,2.51-2.56,4.19"/>
          <path class="cls-4" d="m56.61,60.66c-.73,1.89-1.5,3.89-1.35,5.95.1,1.4.68,3.48,2.04,4.19,1.55.81,1.81-2.14,2.18-2.95.22-.48.48-.95.78-1.39.6-.87.96,0,1.25.57.54,1.07,1.07,2.15,1.61,3.22.15.3.63.36.86.11.95-1.08,1.68-2.32,2.08-3.71.11-.4.2-.8.26-1.21.02-.15.04-.3.06-.45.22-.19.4-.16.51.09.34.2.7.83.95,1.14.28.33.55.67.84,1,.69.81,1.65.95,2.21-.1.34-.63.37-1.42.5-2.11.17-.92.33-1.85.5-2.77l-1,.13c.96,1.33,2.25,2.24,3.84,2.66.37.1.66-.18.69-.53.16-1.7.19-3.41.03-5.12-.11-1.19-.27-2.39-1.01-3.38-1.43-1.91-4.23-2.41-6.47-2.38-2.67.04-5.32.92-7.57,2.35-2.06,1.32-4.13,3.17-4.33,5.76-.05.7,1.04.7,1.09,0,.18-2.35,2.45-4.05,4.32-5.14s4.21-1.84,6.49-1.88c1.94-.03,4.64.36,5.76,2.18.63,1.03.65,2.42.71,3.59.07,1.34.02,2.68-.11,4.02l.69-.53c-1.3-.34-2.4-1.06-3.19-2.16-.24-.34-.91-.38-1,.13-.14.81-.29,1.62-.43,2.42-.07.37-.13,2.13-.51,2.31-.49.23-2.34-2.73-3.07-3-1.14-.42-1.44.7-1.57,1.54-.24,1.64-.95,3.12-2.04,4.36l.86.11c-.48-.97-.96-1.93-1.45-2.9-.31-.61-.6-1.53-1.26-1.88-1.48-.76-2.55,1.75-2.96,2.73-.17.41-.33.84-.45,1.27-.05.16-.06.48-.15.62-.15.22-.03.18-.28-.02-.69-.56-1-1.73-1.11-2.57-.28-2.08.53-4.11,1.27-6.01.25-.65-.8-.94-1.05-.29h0Z"/>
        </g>
        <g>
          <path class="cls-5" d="m83.21,44.92c2.35.23,4.71.46,7.06.7,1.9.19,3.86.37,5.7-.15,1.73-.49,3.22-1.58,4.67-2.64,3.98-2.93,8.08-6.04,10.28-10.47-2.02,5.99-.26,13.27-4.09,18.3-.89,1.16-2.03,2.11-3.18,3.01-1.2.93-2.46,1.82-3.9,2.28-3.08,1-6.53-.14-9.07-2.14-2.55-2-4.36-4.76-6.13-7.46l-1.33-1.43Z"/>
          <path class="cls-4" d="m83.21,45.47c3.15.31,6.33.79,9.5.88,2.9.08,5.21-.89,7.54-2.56,4.27-3.06,8.7-6.38,11.15-11.15l-1-.42c-1.23,3.82-1.04,7.86-1.63,11.79-.28,1.9-.77,3.8-1.78,5.45-1.18,1.95-3.09,3.47-4.96,4.72-4.13,2.77-8.83,1.44-12.24-1.85-2.42-2.33-3.93-5.35-6.2-7.79-.48-.51-1.25.26-.77.77,1.89,2.03,3.21,4.47,5.04,6.57,2.25,2.57,5.23,4.66,8.72,4.96s6.46-1.79,8.97-4.04,3.8-5.32,4.28-8.69c.56-3.87.39-7.84,1.6-11.6.19-.58-.71-.97-1-.42-2.36,4.61-6.63,7.81-10.76,10.76-2.39,1.72-4.67,2.56-7.65,2.38s-5.89-.56-8.83-.85c-.7-.07-.69,1.02,0,1.09Z"/>
        </g>
        <g class="cls-1">
          <path class="cls-3" d="m108.71,35c-.89,7.85-3.36,16.58-11.65,19.43-1.38.48-.79,2.69.61,2.21,9.34-3.21,12.31-12.67,13.33-21.63.17-1.46-2.12-1.45-2.29,0h0Z"/>
        </g>
        <g class="cls-1">
          <path class="cls-3" d="m67.27,68.57c1.41,2.36,2.8,6.81,5.52,7.84,1.74.66,4.98-.39,6.79-.59,3.27-.37,6.54-.74,9.81-1.11l-1.14-1.14c.64,6.8,1.05,13.61,1.23,20.44.04,1.47,2.33,1.48,2.29,0-.18-6.83-.59-13.64-1.23-20.44-.05-.56-.48-1.22-1.14-1.14-3.93.44-7.85.89-11.78,1.33-2.58.29-3.65,1.09-5.41-1.37-1.11-1.55-1.99-3.33-2.97-4.97-.75-1.26-2.73-.11-1.98,1.16h0Z"/>
        </g>
        <g class="cls-1">
          <path class="cls-3" d="m115.5,15.36c7.49,5.5,8.6,16.91,6.97,25.39s-6.29,16.16-13.2,21.42c-1.16.88-.02,2.87,1.16,1.98,8.02-6.11,13.3-15.04,14.63-25.07,1.19-9.05-.63-19.98-8.4-25.69-1.19-.87-2.33,1.11-1.16,1.98h0Z"/>
        </g>
        <g class="cls-1">
          <path class="cls-3" d="m59.59,69.46c1.04-.7,2.07-1.4,3.11-2.1l-1.72-.99c-.08,2.13.55,3.85,1.85,5.51.32.41.97.39,1.39.18,2-1.02,3.09-2.9,2.98-5.14l-2.13.58c1.26,2.81,2.84,5.36,4.72,7.79.9,1.16,2.51-.47,1.62-1.62-1.76-2.26-3.19-4.71-4.36-7.33-.47-1.05-2.18-.51-2.13.58.07,1.47-.54,2.5-1.85,3.17l1.39.18c-.92-1.18-1.24-2.42-1.18-3.9.03-.83-1.01-1.47-1.72-.99-1.04.7-2.07,1.4-3.11,2.1-1.21.82-.07,2.8,1.16,1.98h0Z"/>
        </g>
        <g>
          <path class="cls-4" d="m82.51,27.97h-2.9c-.19-.69.25-1.43.86-1.8s1.33-.47,2.04-.56c.48-.06,1.04-.09,1.38.25.42.43.18,1.22-.32,1.56s-1.14.37-1.74.39"/>
          <path class="cls-4" d="m82.51,27.42c-.97,0-1.93,0-2.9-.01l.53.4c-.03-.12-.04-.22-.02-.32.04-.17.07-.24.15-.38.15-.25.38-.44.66-.58.33-.17.7-.24,1.06-.3.32-.05.65-.1.98-.11.17,0,.25,0,.37.04.06.02.07.03.03,0,.03.02.07.04.1.06-.08-.06.13.14.04.04.03.06.03.06.01,0,.01.03.02.07.03.1-.03-.1,0,.08,0,.12,0-.1-.02.1-.03.12-.02.06-.02.07,0,.03-.02.03-.03.07-.05.1-.02.03-.04.06-.06.1.03-.03.02-.03-.02.02-.01.02-.16.15-.1.1-.14.1-.27.16-.43.2-.34.1-.68.1-1.04.12-.29,0-.55.24-.55.55s.25.55.55.55c.79-.02,1.65-.09,2.25-.66.52-.49.77-1.38.36-2.01-.46-.7-1.3-.71-2.04-.62-.8.1-1.66.22-2.33.7-.73.53-1.2,1.41-.98,2.32.06.23.29.4.53.4.97,0,1.93,0,2.9.01.7,0,.7-1.09,0-1.09h0Z"/>
        </g>
        <g>
          <path class="cls-4" d="m101.39,24.02c-.38.37-1.1.09-1.27-.41s.13-1.07.56-1.38.97-.41,1.5-.48c.48-.06,1.04-.07,1.36.3.38.44.13,1.17-.34,1.5s-1.08.37-1.66.4"/>
          <path class="cls-4" d="m101.01,23.64c-.07.07,0,0,.02-.01-.02.01-.05.03-.07.04l.06-.03h-.04s-.02.02-.04.02h.07s-.21-.04-.05,0c-.03,0-.05-.01-.08-.02-.04-.01-.13-.06-.02,0-.05-.03-.1-.05-.14-.08.1.06,0-.02-.04-.05s-.02-.06.01.01c0-.02-.03-.05-.04-.07.01.02.03.11,0,.02,0-.01-.04-.14-.02-.07.01.07,0-.03,0-.05,0-.03,0-.06,0-.1,0-.08-.02.08,0,0,0-.03.01-.06.02-.1.01-.04.02-.08.04-.12-.01.02-.04.08,0,0,.02-.03.03-.06.05-.09,0-.01.08-.12.04-.07s.03-.03.04-.04c.02-.02.05-.05.07-.07s.05-.05.07-.07c.07-.06-.07.04.01,0,.06-.04.13-.08.19-.12.03-.02.07-.03.1-.05.05-.02-.03,0,.05-.02.14-.05.29-.09.44-.13.07-.02.15-.03.22-.04.04,0,.08-.01.11-.02,0,0,.18-.02.08-.01.13-.02.26-.03.4-.03.07,0,.13,0,.2,0,.03,0,.07,0,.1,0-.08-.01-.03,0,.02,0,.03,0,.06.02.09.03.02,0,.1.05.04.01-.07-.04.13.1.08.05-.05-.05.02.03.03.04.06.05-.06-.03,0,0,0,0,.06.1.02.03-.04-.06,0,.04.02.05.03.09,0,0,0-.02,0,.03,0,.06,0,.08s0,.06,0,.09c0-.1.01-.06,0-.02,0,.03-.01.06-.02.09,0,0-.04.14-.02.06.02-.07-.01.02-.02.04-.02.03-.04.07-.06.1-.02.03-.03.05-.05.08.07-.1-.02.01-.03.03-.02.02-.04.04-.06.06-.07.07.05-.02-.02.01-.07.04-.14.09-.22.12.07-.03,0,0-.02,0-.05.02-.1.04-.16.05-.08.02-.16.04-.24.06-.04,0-.07.01-.11.02-.06,0,.04,0-.05,0-.19.02-.37.03-.56.04-.28.01-.56.24-.55.55.01.28.24.56.55.55.89-.04,1.86-.16,2.42-.95.5-.71.4-1.78-.44-2.18-.39-.18-.82-.21-1.24-.16s-.88.11-1.3.27c-.46.18-.84.44-1.13.84-.27.38-.38.85-.3,1.3.18.99,1.46,1.48,2.21.8.21-.19.21-.58,0-.77-.23-.21-.55-.21-.77,0h0Z"/>
        </g>
        <path class="cls-4" d="m81.13,29.5s-.02-.1-.03-.15l.02.14c-.02-.19-.02-.38,0-.57l-.02.14c.03-.18.07-.36.14-.53l-.05.13c.03-.07.06-.14.1-.2.14-.25.07-.61-.2-.75s-.6-.07-.75.2c-.31.57-.4,1.23-.27,1.86.03.13.14.26.25.33.12.07.29.1.42.05s.26-.12.33-.25c.07-.13.09-.27.05-.42h0Z"/>
        <path class="cls-4" d="m83.45,28.66c-.06-.08-.1-.17-.14-.26l.05.13c-.05-.12-.09-.25-.1-.38l.02.14c-.02-.14-.02-.28,0-.42l-.02.14s.01-.09.03-.14c.03-.14.02-.29-.05-.42-.07-.11-.2-.22-.33-.25-.14-.03-.3-.02-.42.05-.12.07-.22.19-.25.33-.12.55-.04,1.15.28,1.62.08.12.19.21.33.25.13.04.3.02.42-.05s.22-.19.25-.33.03-.3-.05-.42h0Z"/>
        <path class="cls-4" d="m102.49,25.42v-.03s0,.1.02.14c-.03-.27-.03-.54,0-.81l-.02.14c.04-.26.11-.51.2-.75l-.05.13s.02-.06.04-.08c.06-.14.1-.27.05-.42-.03-.13-.13-.26-.25-.33-.13-.07-.28-.1-.42-.05-.13.04-.27.12-.33.25-.14.31-.25.63-.3.97-.03.19-.05.38-.05.57s.02.38.05.57c.02.13.15.27.25.33.12.07.29.1.42.05s.26-.12.33-.25l.05-.13c.03-.1.03-.19,0-.29h0Z"/>
        <path class="cls-4" d="m104.5,23.84s-.03-.01-.04-.02l.13.05c-.13-.06-.25-.13-.36-.21l.11.09c-.11-.09-.22-.19-.31-.31l.09.11c-.08-.11-.16-.23-.21-.36l.05.13s-.02-.04-.03-.07c-.05-.14-.12-.25-.25-.33-.12-.07-.29-.1-.42-.05s-.26.12-.33.25-.11.28-.05.42c.12.31.28.59.51.82.11.12.24.22.38.31s.29.16.44.22c.07.02.14.03.22,0,.07,0,.14-.02.2-.06.11-.07.22-.2.25-.33.03-.14.02-.3-.05-.42l-.09-.11c-.07-.07-.15-.11-.24-.14h0Z"/>
        <path class="cls-4" d="m51.41,57.71c-.25-1.82,1.13-3.74,2.95-4.16.68-.16.39-1.21-.29-1.05-2.43.56-4.04,3.07-3.71,5.5.04.29.41.45.67.38.31-.09.42-.38.38-.67h0Z"/>
        <path class="cls-4" d="m48.68,55.58c.03-.1.07-.2.11-.3,0,0,.07-.16.03-.07.02-.05.04-.1.07-.15.09-.19.2-.38.31-.56.06-.09.12-.18.18-.27.03-.04.06-.09.1-.13-.05.06.01-.02.03-.04.14-.17.28-.32.44-.47.57-.55,1.27-.96,2.03-1.18.28-.08.46-.38.38-.67s-.39-.46-.67-.38c-1.9.55-3.44,2.06-4.05,3.93-.09.28.11.6.38.67.3.08.58-.1.67-.38h0Z"/>
        <path class="cls-4" d="m92.29,33.11c0,.5,0,1.01,0,1.51,0,.29.25.56.55.55s.55-.24.55-.55c0-.5,0-1.01,0-1.51,0-.29-.25-.56-.55-.55s-.55.24-.55.55h0Z"/>
        <path class="cls-4" d="m94.56,32.89c.3.3.6.6.91.91.1.1.25.16.39.16s.29-.06.39-.16.17-.24.16-.39-.06-.28-.16-.39c-.3-.3-.6-.6-.91-.91-.1-.1-.25-.16-.39-.16s-.29.06-.39.16-.17.24-.16.39.06.28.16.39h0Z"/>
        <path class="cls-4" d="m128.92,8.6c2.19-2.55,4.38-5.1,6.58-7.64.46-.53-.31-1.3-.77-.77-2.19,2.55-4.38,5.1-6.58,7.64-.46.53.31,1.3.77.77h0Z"/>
        <path class="cls-4" d="m132.54,31.7c2.25.52,4.5,1.03,6.75,1.55.68.16.97-.89.29-1.05-2.25-.52-4.5-1.03-6.75-1.55-.68-.16-.97.89-.29,1.05h0Z"/>
        <path class="cls-4" d="m138.22,13.03c.76,2.16,1.5,4.33,2.2,6.51.17.51.89.52,1.05,0,.23-.71.45-1.43.68-2.14.21-.67-.84-.96-1.05-.29-.23.71-.45,1.43-.68,2.14h1.05c-.7-2.18-1.44-4.35-2.2-6.51-.23-.66-1.29-.37-1.05.29h0Z"/>
        <path class="cls-4" d="m144,11.39c.22,1.8.66,3.56,1.34,5.24.11.27.36.47.67.38.26-.07.49-.4.38-.67-.64-1.58-1.09-3.25-1.3-4.95-.04-.29-.22-.55-.55-.55-.27,0-.58.25-.55.55h0Z"/>
        <path class="cls-4" d="m152.09,10.02c.62.62,1.24,1.25,1.87,1.87.2.2.57.22.77,0s.22-.56,0-.77c-.62-.62-1.24-1.25-1.87-1.87-.2-.2-.57-.22-.77,0s-.22.56,0,.77h0Z"/>
        <path class="cls-4" d="m149.34,11.52c.06,1.73.4,3.44,1.03,5.06.14.35.46.48.8.33.47-.21,1.17-.55,1.67-.22s.11.99-.17,1.33c-.68.86-1.71,1.47-1.66,2.71.03.7,1.12.7,1.09,0-.03-.75.69-1.24,1.15-1.73.49-.52.94-1.2.91-1.95s-.57-1.32-1.27-1.51c-.8-.22-1.57.1-2.29.42l.8.33c-.59-1.53-.93-3.13-.99-4.77-.03-.7-1.12-.7-1.09,0h0Z"/>
        <path class="cls-4" d="m158.74,17.94l1.3-.13c.1-.01.21-.02.31-.03.05,0,.1,0,.14-.01s.19.03.03,0c.1.02-.09-.07,0,0-.06-.05-.07-.06-.03-.02-.05-.07-.06-.08-.03-.03-.06-.14-.02-.04,0,0,.01.04.02.09.03.13.02.11-.01-.14,0,0,0,.04,0,.07,0,.11,0,.08,0,.15-.01.22,0-.17,0-.03,0,.01,0,.04-.02.07-.03.11s-.02.07-.03.11c0,.02-.01.04-.02.06.03-.08.04-.09.02-.04-.03.07-.07.13-.11.2-.02.03-.04.06-.06.09-.08.11.07-.07,0,0-.05.06-.1.11-.16.16-.02.01-.03.03-.05.04-.04.04-.03.03.03-.03-.03,0-.08.05-.11.07-.24.15-.36.49-.2.75s.49.36.75.2c.63-.39,1-1.04,1.07-1.77.04-.36-.02-.8-.25-1.1-.18-.23-.42-.34-.71-.37-.18-.02-.36.01-.54.03l-1.34.13c-.15.01-.28.05-.39.16-.09.09-.17.25-.16.39.01.27.24.58.55.55h0Z"/>
        <path class="cls-4" d="m166.17,9.41c.3,1.16.6,2.33.9,3.49s.5,2.29.89,3.38c.3.86,1.22,1.72,2.17,1.16.43-.25.64-.73.85-1.16.27-.56.55-1.11.82-1.67.31-.63-.63-1.18-.94-.55-.22.44-.43.88-.65,1.32-.1.21-.2.42-.31.63-.07.13-.14.35-.27.44-.57.43-.88-1.42-.95-1.69-.49-1.88-.97-3.77-1.46-5.65-.18-.68-1.23-.39-1.05.29h0Z"/>
        <path class="cls-4" d="m175.33,14.53l1.27-.33c.39-.1.82-.24,1.19-.29.04,0,.15-.01.22-.01.05,0,.11,0,.16,0-.05,0,.04,0,.04.01.01,0,.15.05.11.03-.04-.02.04.02.05.03.01,0,.09.06.04.03-.05-.04.04.04.05.05.03.03.04.05,0,0,.02.03.04.07.06.1.04.07-.02-.07,0,0,0,.03.01.07.03.09.02.03.02-.07,0,.01-.01.06,0,.03,0-.01,0,.02-.01.13-.01.06.01-.03.01-.03,0,0-.02.03-.01.03.02-.02-.19.22-.22.55,0,.77.2.2.58.23.77,0,.35-.42.38-.94.14-1.42-.23-.46-.68-.72-1.18-.79-.54-.07-1.07.07-1.59.21l-1.67.44c-.28.07-.46.39-.38.67s.38.46.67.38h0Z"/>
        <path class="cls-4" d="m177.16,11.65v2.67c0,.29.25.56.55.55s.55-.24.55-.55v-2.67c0-.29-.25-.56-.55-.55s-.55.24-.55.55h0Z"/>
        <path class="cls-4" d="m174.98,12.09c.78,1.91,1.33,3.92,1.6,5.96.04.29.22.55.55.55.26,0,.58-.25.55-.55-.28-2.15-.82-4.24-1.64-6.25-.11-.27-.36-.47-.67-.38-.26.07-.49.4-.38.67h0Z"/>
        <path class="cls-4" d="m184.07,8.85c.17,1.88.49,3.75.96,5.59.16.6,1.06.46,1.07-.14.01-.53.2-1.04.54-1.45.19-.22.22-.55,0-.77-.2-.2-.58-.22-.77,0-.54.63-.84,1.39-.86,2.22l1.07-.14c-.45-1.74-.76-3.51-.92-5.3-.03-.29-.23-.55-.55-.55-.27,0-.57.25-.55.55h0Z"/>
        <path class="cls-4" d="m189.17,8.32c-.05,1.75.09,3.5.4,5.23.05.29.41.45.67.38.31-.08.43-.38.38-.67-.29-1.63-.4-3.28-.36-4.94.02-.7-1.07-.7-1.09,0h0Z"/>
      </g>
    </g>
  </g>
</svg>