<?xml version="1.0" encoding="UTF-8"?>
<svg id="Layer_2" data-name="Layer 2" xmlns="http://www.w3.org/2000/svg" viewBox="0 0 236.68 132.29">
  <defs>
    <style>
      .cls-1 {
        fill: #f9b19d;
        stroke: #231f20;
        stroke-miterlimit: 10;
        stroke-width: 1.03px;
      }

      .cls-2 {
        opacity: .14;
      }

      .cls-3 {
        fill: #f9b9ad;
      }

      .cls-3, .cls-4, .cls-5, .cls-6, .cls-7 {
        stroke-width: 0px;
      }

      .cls-4 {
        fill: #896b4a;
      }

      .cls-5 {
        fill: #231f20;
      }

      .cls-6 {
        fill: #d3d2d1;
      }

      .cls-7 {
        fill: #fff;
      }
    </style>
  </defs>
  <g id="Layer_1-2" data-name="Layer 1">
    <g>
      <polygon class="cls-1" points="142.47 89.47 141.51 110.23 116.28 107.05 116.28 100.93 142.47 89.47"/>
      <g>
        <path class="cls-6" d="m82.22,97.38c-6.84,3.26-12.99,7.96-17.93,13.7,7.54.38,14.61,3.57,21.86,5.68,4.67,1.36,12.69,3.72,12.69,3.72l11.82,3.04c1.72.6,10.17,2.29,11.92,2.78,1.1.31,5.7-.32,6.77-.71,1.13-.42,1.85-1.51,2.42-2.56,2.23-4.07,3.56-8.57,4.87-13.03.07-.23.14-.49.05-.72-.12-.32-.49-.46-.82-.54-1.81-.46-3.7-.38-5.56-.39-7.32-.05-14.55-1.53-21.7-3.08-2.94-.64-5.88-1.28-8.74-2.19-5.87-1.85-11.48-4.76-17.6-5.39"/>
        <path class="cls-5" d="m81.94,96.9c-6.89,3.31-13.03,8.01-18.04,13.79-.32.37-.1.91.39.94,6.48.38,12.56,2.74,18.68,4.72,4.53,1.47,9.14,2.72,13.71,4.06,4.5,1.32,9.09,2.34,13.62,3.57,2.98.81,6,1.45,9.01,2.11,1.28.28,2.63.76,3.94.82,1.83.08,3.82-.21,5.6-.63,2.27-.53,3.29-2.64,4.23-4.59,1.32-2.74,2.31-5.63,3.2-8.54.22-.72.43-1.44.65-2.16.16-.55.45-1.15.32-1.73-.24-1.11-1.69-1.21-2.6-1.33-3.19-.42-6.48-.13-9.69-.43-7.52-.69-15.14-2.3-22.44-4.25-6.82-1.82-13.17-5.34-20.26-6.13-.7-.08-.7,1.02,0,1.1,6.12.68,11.65,3.54,17.46,5.37s12.52,3.14,18.81,4.17c3.09.51,6.21.9,9.34,1.05,1.44.07,2.87.05,4.31.07.88.01,1.77.04,2.64.18.48.08.84.05,1.1.48.29.47.03.86-.12,1.37-.88,2.97-1.79,5.95-3.02,8.79-.93,2.14-1.92,5.02-4.44,5.56-1.68.36-3.76.79-5.48.51-1.36-.21-2.73-.64-4.08-.93-2.77-.61-5.53-1.21-8.27-1.95-4.25-1.16-8.57-2.09-12.8-3.34-4.67-1.37-9.38-2.66-14.01-4.14-6.37-2.04-12.66-4.51-19.41-4.9l.39.94c4.95-5.71,11-10.34,17.81-13.61.64-.31.08-1.26-.56-.95h0Z"/>
      </g>
      <g>
        <path class="cls-3" d="m115.98,98.98s-1.65-16.55-2.91-19.33c.75,1.83-.89,3.7-2.4,5.03-1.23,1.09-2.46,2.18-3.69,3.27-2.95,2.61-5.94,5.26-8.14,8.5-.54.79-1.07,1.65-1.92,2.12-.85.47-2.14.35-2.57-.5-.14,3.09-.89,6.15-2.2,8.97-1.15-2.01-2.3-4.03-3.45-6.04-.33-.58-.94-1.25-1.55-.96-.34.16-.48.55-.58.89-.67,2.21-1.34,4.42-2,6.62-.55-1.51-1.41-2.91-2.5-4.12-.29-.32-.64-.64-1.07-.68-.76-.06-1.25.74-1.55,1.42-.57,1.29-1.13,2.57-1.7,3.86-.94-1.56-1.91-3.41-1.22-5.1.3-.73.88-1.32,1.44-1.89,1.21-1.21,2.46-2.46,4.07-3.11,1.7-.69,3.63-.66,5.38-1.21,1.25-.39,2.38-1.08,3.49-1.75,1.81-1.1,3.61-2.19,5.42-3.29,1.65-1,3.3-2.01,4.71-3.3,1.6-1.48,2.83-3.29,4.04-5.09.88-1.3,1.79-2.71,1.75-4.27-.07-2.75-.66-5.02-1.44-6.32l.25-.87-.17-.55c-4.8-1.4-9.01-4.75-11.44-9.12-.67-1.21-1.21-2.49-1.74-3.77-2.66-6.46-5.06-13.18-5.31-20.17-.25-6.99,1.93-14.35,7.16-18.98,3.77-3.34,8.77-4.98,13.73-5.83,4.9-.85,10.09-.98,14.69.9,5.14,2.11,9.06,6.6,11.37,11.66,2.31,5.05,3.16,10.66,3.5,16.2.5,8.18-.35,17.14-5.88,23.19,8.55,2.24,17.1,4.48,25.65,6.72-5.72,10.79-11.93,17.96-21.28,25.82-1.1.92-1.98,5.72-2.8,6.89-2.01,2.87-1.67,6.87-3.52,9.85.02-3.89.05-7.77.07-11.66-2.51,3.75-5.02,7.51-7.52,11.26.77-4.83,2.25-9.55,4.39-13.94-3.7,3.14-7.14,6.58-10.27,10.28.51-4.07,1.5-8.09,2.95-11.93-2.49,2.89-4.64,6.07-6.37,9.47-1.59-1.34-.5-3.89.68-5.61,1.5-2.19,6.65-8.87,6.65-8.87l2.71-.77s20.2-8.82,25.26-18.32c-3.31.97-6.72,1.58-10.15,1.83.24,2.39,1.11,1.32,2.29,6.78"/>
        <path class="cls-5" d="m116.53,98.98c-.3-2.97-.64-5.93-1.02-8.89-.27-2.14-.56-4.27-.93-6.39-.25-1.44-.46-2.97-1.04-4.33-.25-.57-1.2-.16-1.01.42.79,2.43-2.17,4.42-3.73,5.81-1.67,1.48-3.36,2.94-4.99,4.46-1.54,1.44-3.03,2.94-4.34,4.6-.74.93-3.22,5.35-4.65,3.13-.3-.47-1-.27-1.03.28-.17,3.02-.88,5.94-2.13,8.7h.95c-.99-1.73-1.97-3.45-2.96-5.18-.48-.84-1.1-2.23-2.29-2.16s-1.37,1.43-1.63,2.3c-.57,1.89-1.15,3.79-1.72,5.68h1.06c-.45-1.18-1.03-2.29-1.78-3.31-.55-.74-1.25-1.78-2.25-1.88-.86-.09-1.48.56-1.88,1.24-.78,1.33-1.3,2.89-1.92,4.3h.95c-1.1-1.86-2.07-3.87-.42-5.74,1.08-1.22,2.36-2.49,3.8-3.26s3.13-.87,4.73-1.19c1.71-.34,3.19-1.1,4.67-2,3.11-1.88,6.43-3.62,9.3-5.85,2.52-1.96,4.65-4.82,6.18-7.61,1.37-2.5.99-5.64.04-8.25-.07-.18-.6-1.32-.58-1.07-.02-.26.22-.54.23-.8.06-1.16-.73-1.26-1.65-1.59-2.93-1.05-5.57-2.88-7.64-5.19-2.46-2.75-3.77-6.17-5.1-9.56-2.59-6.61-4.74-13.68-4.17-20.87.5-6.28,3.16-12.59,8.41-16.32s12.84-5.32,19.32-5.07c6.87.27,12.61,3.77,16.3,9.52,4.2,6.54,5.26,14.73,5.36,22.36.09,6.95-1.04,14.35-5.83,19.7-.27.3-.18.81.24.92,8.55,2.24,17.1,4.48,25.65,6.72l-.33-.81c-3.43,6.43-7.55,12.41-12.58,17.69-2.56,2.69-5.3,5.21-8.13,7.61-1.89,1.6-2.11,4.37-2.97,6.58-.26.66-.68,1.2-.99,1.83-.43.85-.72,1.76-.96,2.68-.55,2.1-.85,4.27-1.97,6.17l1.03.28c.02-3.89.05-7.77.07-11.66,0-.57-.73-.72-1.03-.28-2.51,3.75-5.02,7.51-7.52,11.26l1.01.42c.78-4.8,2.23-9.43,4.33-13.81.27-.57-.38-1.08-.87-.67-3.69,3.15-7.12,6.59-10.27,10.28l.94.39c.52-4.03,1.51-7.98,2.93-11.79.19-.51-.57-.95-.92-.54-2.52,2.94-4.68,6.14-6.46,9.58l.87-.11c-1.8-1.74.52-4.63,1.63-6.16,1.18-1.62,2.4-3.22,3.61-4.82.72-.94,1.46-1.87,2.16-2.83-.3.4-.24.22.24.08l1.14-.33c.39-.11.78-.21,1.16-.35,1.95-.76,3.83-1.8,5.68-2.77,3.59-1.89,7.11-3.95,10.41-6.32,3.56-2.54,7.21-5.51,9.33-9.42.22-.41-.15-.95-.62-.81-3.27.94-6.61,1.55-10.01,1.81-.27.02-.59.24-.55.55.1.88.35,1.57.77,2.34.79,1.43,1.19,3,1.54,4.59.15.69,1.22.4,1.06-.29-.34-1.53-.72-3.08-1.45-4.47-.38-.73-.73-1.32-.83-2.16l-.55.55c3.49-.27,6.93-.88,10.3-1.85l-.62-.81c-2.03,3.73-5.53,6.59-8.93,9.02s-7.1,4.59-10.84,6.54c-1.26.65-2.52,1.28-3.81,1.89-.36.17-.72.34-1.09.5-.07.03-.55.22-.28.13-.95.33-2.35.35-3.06,1.08-.98,1.01-1.77,2.31-2.62,3.44-1.31,1.73-2.65,3.45-3.88,5.24s-2.57,4.58-.68,6.41c.24.24.7.21.87-.11,1.74-3.36,3.83-6.49,6.29-9.36l-.92-.54c-1.45,3.91-2.43,7.94-2.97,12.08-.06.47.65.73.94.39,3.15-3.7,6.58-7.13,10.27-10.28l-.87-.67c-2.14,4.47-3.64,9.19-4.44,14.08-.1.61.65.97,1.01.42,2.51-3.75,5.02-7.51,7.52-11.26l-1.03-.28c-.02,3.89-.05,7.77-.07,11.66,0,.55.75.75,1.03.28.89-1.52,1.32-3.2,1.71-4.91.43-1.84.96-3.43,1.89-5.08.57-.99.84-2.17,1.18-3.25s.61-2.5,1.4-3.35c1.25-1.35,2.88-2.47,4.24-3.72s2.65-2.5,3.91-3.8c2.39-2.47,4.62-5.09,6.66-7.85,2.48-3.36,4.65-6.93,6.61-10.61.16-.31.03-.72-.33-.81-8.55-2.24-17.1-4.48-25.65-6.72l.24.92c6.52-7.29,6.74-17.97,5.74-27.18-1.04-9.55-4.79-20.12-14.15-24.44-4.74-2.19-10.09-2.17-15.16-1.37-4.85.77-9.77,2.25-13.68,5.3-7.89,6.15-9.34,17.03-7.53,26.29.61,3.13,1.55,6.18,2.64,9.17s2.15,5.96,3.64,8.7c2.51,4.63,6.86,8.06,11.88,9.58l-.38-.38c.17.56.16.24.02.8-.11.44-.09.56.09.98.71,1.67,1.1,3.32,1.21,5.15.13,2.2-1.07,3.83-2.26,5.56s-2.41,3.34-4.01,4.66-3.42,2.33-5.18,3.4-3.62,2.27-5.48,3.3-3.62,1.24-5.6,1.62c-1.69.33-3.09,1.02-4.41,2.13-1.25,1.05-2.86,2.36-3.38,3.96-.61,1.87.42,3.76,1.34,5.33.19.32.78.39.95,0,.38-.86.75-1.71,1.13-2.57.16-.36.31-.72.47-1.07.29-.63.27-.77,1.01-.94s.69-.08,1.11.4c.32.37.61.77.88,1.19.49.75.88,1.55,1.21,2.38.19.49.9.55,1.06,0,.38-1.26.76-2.52,1.15-3.79.19-.63.38-1.26.57-1.89.1-.32.19-.63.29-.95,0-.39.16-.49.47-.32.81.03,1.75,2.44,2.13,3.11l1.97,3.45c.19.33.78.39.95,0,1.33-2.94,2.1-6.03,2.28-9.25l-1.03.28c1.03,1.59,3.12,1.15,4.27-.06.91-.95,1.55-2.17,2.38-3.19.96-1.19,2.02-2.29,3.11-3.36,2.21-2.14,4.56-4.14,6.87-6.18,1.72-1.52,3.92-3.52,3.09-6.06l-1.01.42c.56,1.28.72,2.81.95,4.18.37,2.16.66,4.34.94,6.52.35,2.78.67,5.57.95,8.35.07.7,1.17.71,1.1,0h0Z"/>
      </g>
      <path class="cls-5" d="m70.53,109.13c3.84.58,7.45,1.96,11.06,3.34s7.39,2.48,11.17,3.54,7.23,2.66,10.93,3.76,7.31.88,10.82,2.17c4.1,1.51,8.42,1.69,12.74,2.12.19.02.39-.12.48-.27,1.86-3.25,3.73-6.5,5.59-9.75.35-.62-.6-1.17-.95-.56-1.86,3.25-3.73,6.5-5.59,9.75l.48-.27c-2.58-.26-5.19-.43-7.76-.81-2.36-.35-4.43-1.33-6.71-1.95s-4.76-.51-7.1-1.04-4.52-1.4-6.73-2.24c-4.68-1.78-9.59-2.78-14.3-4.47-4.56-1.64-9-3.66-13.83-4.38-.69-.1-.99.96-.29,1.06h0Z"/>
      <path class="cls-5" d="m121.12,119.78c.07-.43.14-.86.21-1.28,0-.04.01-.07.02-.11,0-.07.03-.03,0-.02,0,0-.11.1-.11.09,0,0,.12-.03.11-.02.17-.03.4-.04.6-.05.84-.04,1.66.05,2.47.27l-.4-.53c0,.46,0,.93,0,1.39,0,.3.25.55.55.55s.55-.25.55-.55c0-.46,0-.93,0-1.39,0-.24-.17-.47-.4-.53-1-.27-2.04-.37-3.07-.29-.56.04-1.12.11-1.33.72-.07.21-.09.46-.12.68l-.13.79c-.05.29.08.59.38.68.26.07.63-.09.68-.38h0Z"/>
      <path class="cls-5" d="m114.91,118.89c.02-.09.04-.19.07-.28.01-.03.04-.11,0-.04.02-.05.04-.09.07-.14s.05-.09.08-.13c0-.01.09-.12.05-.07s.05-.06.06-.07c.04-.04.07-.08.11-.11.03-.03.06-.06.1-.09.04-.04-.05.03.03-.02s.16-.1.25-.15c.03-.02.11-.04.04-.02.05-.02.1-.04.15-.05.04-.01.08-.02.13-.03.03,0,.05-.01.08-.01-.05,0-.06,0-.02,0,.1,0,.19,0,.29,0s-.02,0,.04,0c.04,0,.09.02.13.03.05.01.1.03.15.05.09.03,0,0,.04.01.09.04.18.09.26.14.01,0,.12.08.08.05s.06.05.07.06c.08.07.15.15.22.23-.05-.06,0,.01.02.04.02.04.05.08.07.11.03.05.05.09.07.14-.04-.09.01.05.02.07.09.28.38.47.68.38.28-.08.48-.39.38-.68-.34-1.05-1.4-1.85-2.52-1.75s-2.07.93-2.26,2.02c-.05.29.08.59.38.68.26.07.63-.09.68-.38h0Z"/>
      <path class="cls-5" d="m108.4,116.72c.17-.19.35-.37.54-.55.1-.1.2-.19.31-.29.06-.05.2-.16.2-.17.06-.03.03-.03-.08.01h-.03s-.02-.01-.03-.01c.03.01.05.03.07.05.08.06.16.12.25.18.21.13.46.21.7.28.21.06.42.11.63.18.14.05.3.14.39.23.1.1.19.26.23.38.01.05.03.09.04.14.02.09,0,0,0,.06,0,.05,0,.1,0,.15,0,.11.01-.03-.01.09-.06.29.08.6.38.68.27.07.62-.09.68-.38.12-.6,0-1.21-.38-1.7s-.94-.69-1.53-.85c-.27-.07-.45-.12-.67-.27-.28-.2-.57-.35-.92-.26-.33.08-.59.36-.83.59s-.48.46-.7.71c-.2.22-.22.56,0,.78.2.2.58.22.78,0h0Z"/>
      <path class="cls-5" d="m103.61,115.27s-.02-.09-.02-.14c-.02-.12.01.11,0,0,0-.09-.02-.17-.02-.26s0-.17,0-.26c0-.06,0-.05,0,.04,0-.02,0-.05.01-.07,0-.03.01-.07.02-.1,0-.02.01-.04.02-.06.02-.06.01-.04-.02.04.02-.02.03-.06.04-.09.07-.13-.06.04,0-.02.02-.02.06-.04.07-.06-.07.05-.08.06-.03.03.01,0,.03-.02.04-.02.04-.02.02-.01-.05.02.03-.01.06-.02.09-.03-.11.03.03,0,.07,0,.06,0,.11,0,.17,0,.25.02.5.06.75.09.13.02.26.03.39.05.05,0,.11.02.17.02-.07-.01-.08,0-.01,0-.07-.02-.12-.06-.16-.13-.06-.1,0,0,0,.03.01.07.02.14.04.2.02.13.04.25.07.38.04.25.09.5.13.76.05.28.41.47.68.38.31-.1.44-.37.38-.68-.04-.23-.08-.47-.12-.7s-.06-.48-.13-.7c-.09-.32-.33-.56-.66-.62-.27-.05-.55-.07-.82-.11-.5-.06-1.02-.18-1.5.05-.36.17-.6.54-.68.92-.09.43-.06.87.02,1.3.05.28.41.47.68.38.3-.1.44-.37.38-.68h0Z"/>
      <path class="cls-5" d="m97.09,113.63c-.04-.14-.01.08-.01-.06,0-.02.02-.17,0-.06.01-.05.02-.1.04-.15-.03.07,0,0,.02-.03.02-.04.05-.08.07-.11-.06.08.04-.04.05-.05,0,0,.13-.11.05-.06.04-.03.09-.06.14-.09.01,0,.13-.07.08-.05-.04.02.09-.03.11-.04.11-.03.16-.04.27-.04.26,0,.45.03.7.09s.49.15.73.23c.03,0,.05.02.08.03-.04-.02-.04-.02,0,0,.02.01.11.06.05.02.08.05.02.04.01,0,.02.06.03.12.04.18.1.54.18,1.09.27,1.63.05.29.41.46.68.38.31-.09.43-.38.38-.68-.06-.36-.12-.71-.18-1.07-.05-.32-.07-.69-.24-.98-.18-.32-.5-.47-.83-.59s-.64-.22-.97-.28c-.67-.13-1.37-.09-1.93.33s-.86,1.05-.69,1.73c.07.29.4.46.68.38s.46-.39.38-.68h0Z"/>
      <path class="cls-5" d="m90.96,111.59s-.06-.14-.04-.15v.07s0-.05,0-.08c0-.03,0-.05,0-.08-.01.08-.01.09,0,.05.02-.04.02-.09.03-.13.03-.12-.06.09,0-.01.03-.05.05-.09.08-.14.06-.09-.07.07.01-.01.03-.03.06-.06.08-.08.05-.04.04-.04-.02.01.02-.02.04-.03.07-.05.03-.02.07-.04.1-.06.09-.05-.1.02.03-.01.05-.01.09-.02.14-.03-.13.02,0,0,.03,0,.06,0,.12,0,.18,0-.1-.01-.02,0,.03.01s.1.03.15.05c.04.01.03,0-.03-.01.03.01.06.03.08.04.04.02.08.04.12.07.05.03.09.06.13.09.03.02.02.02-.02-.02.02.02.05.04.07.06.03.03.07.06.1.1.02.02.14.17.06.06.06.09.12.18.18.28.03.05.05.1.08.16.07.15-.03-.1.02.05.04.11.08.22.11.34s.06.23.08.35c0,.05.02.1.03.15,0,.07,0,.07,0,0,0,.03,0,.07.01.1.03.29.23.57.55.55.27-.01.59-.24.55-.55-.12-1-.41-1.97-1.25-2.59-.75-.55-1.89-.56-2.5.2-.33.41-.51.96-.33,1.48.1.27.38.48.68.38.27-.09.49-.39.38-.68h0Z"/>
      <path class="cls-1" d="m94.42,107.23c-.2-.19-.5-.28-.78-.22.52-.25,1.19-.16,1.63.22s.63,1.02.47,1.58"/>
      <path class="cls-5" d="m98.74,109.67s-.05-.17-.03-.07c0-.06,0-.07,0-.04,0,.04,0,.03.02-.04-.05.07.05-.08.05-.08.03-.06.02-.03.04-.06.16-.18.28-.27.5-.4.2-.12.4-.23.59-.29.11-.04.22-.06.34-.09.16-.04-.06,0,.1-.02.06,0,.12,0,.19,0,.13,0,.17,0,.26.02.05.01.1.03.15.04.06.02-.05-.03.04.01.05.02.09.05.14.08,0,0,.14.1.06.03.08.06.15.14.22.22-.05-.06,0,0,.02.03.03.04.05.09.08.13.02.04.05.1.02.03.02.05.03.09.05.14,0,.02.02.17.01.05,0,.05,0,.1,0,.15,0,.11.03-.06,0,.05,0,.02-.05.16-.01.06-.12.27-.08.59.2.75.23.14.63.08.75-.2.27-.62.19-1.28-.21-1.82s-1.01-.86-1.7-.88-1.38.25-1.94.62-1.29,1.08-.98,1.86c.11.28.37.47.68.38.26-.07.49-.4.38-.68h0Z"/>
      <path class="cls-5" d="m104.76,110.22c.16-.31.39-.48.74-.57.43-.12.88-.06,1.32.04.11.02.21.05.31.08.06.02.07.02.03,0l.05.03c-.06-.05.05.1-.02-.03.05.09,0-.06,0,0,0,.03.02.07.03.1.03.13,0-.11,0,.03,0,.04,0,.09,0,.13.03.43.11.88.53,1.09.27.13.6.07.75-.2.14-.25.07-.62-.2-.75-.11-.06.08.06,0,0,.05.07.06.07.03.02.03.07.04.08.02.04,0-.01-.03-.15-.02-.06s0-.08,0-.1c-.02-.21-.02-.42-.09-.62-.21-.62-.83-.79-1.41-.89-1.11-.2-2.45-.02-3.02,1.1-.14.27-.07.6.2.75.25.14.62.07.75-.2h0Z"/>
      <path class="cls-5" d="m111.2,112.9s.05-.13,0-.04c.02-.04.04-.08.06-.12.01-.02.1-.13.02-.04.03-.03.06-.07.09-.1s.07-.06.1-.09c-.09.08.02-.01.04-.02.04-.02.08-.05.12-.07.02-.01.15-.06.04-.02.09-.03.18-.06.27-.08.03,0,.17-.03.04-.01.04,0,.08,0,.12-.01.1,0,.19,0,.29,0,.04,0,.03,0-.03,0,.02,0,.05,0,.07.01.05.01.09.02.14.03.04.01.07.02.11.04-.1-.04.04.02.06.03.1.05.19.11.28.17-.07-.05.06.05.06.05.04.04.08.07.12.11s.08.08.11.12c0,0,.11.13.05.06.14.18.24.38.34.58.05.1,0-.03.03.08.02.04.03.09.05.13.04.12.07.23.11.35.08.29.39.46.68.38s.46-.39.38-.68c-.29-1.09-1.03-2.25-2.2-2.53-1.07-.25-2.3.26-2.64,1.35-.09.28.1.6.38.68.3.08.59-.1.68-.38h0Z"/>
      <path class="cls-5" d="m117.23,115.44c.04-.08.07-.16.12-.23,0-.01.08-.11.03-.05s.04-.05.06-.06c.05-.06.11-.11.18-.16-.07.06-.01,0,.03-.02.03-.02.06-.04.09-.06s.07-.03.1-.05c.11-.06-.08.02.03-.01.08-.03.17-.05.25-.07.1-.03-.06,0,0,0,.04,0,.07,0,.11,0,.04,0,.09,0,.13,0,.03,0,.15.03.03,0,.08.02.16.03.23.06.06.02.08.03.01,0,.04.02.08.04.12.06s.08.04.11.07c.01,0,.11.08.05.03s.05.05.06.06c.03.03.05.05.08.08.03.03.06.07.09.1-.08-.1,0,.01.02.03.04.06.07.13.11.19.06.11-.02-.08.01.03.01.04.03.08.04.13s.02.09.03.13c.03.12,0-.1,0,.03.02.29.24.57.55.55.28-.01.57-.24.55-.55-.07-.97-.79-1.87-1.77-2.05s-2.01.33-2.41,1.24c-.11.26-.09.6.2.75.24.13.63.08.75-.2h0Z"/>
      <path class="cls-5" d="m122.9,116.11s.1-.07.15-.1c.03-.01.05-.03.08-.04.02,0,.1-.05.01,0s0,0,.03,0c.02,0,.05-.02.07-.02.06-.02.11-.03.17-.04.11-.02-.14.01-.03,0,.03,0,.06,0,.09,0,.05,0,.11,0,.16,0,.02,0,.05,0,.07,0,.11,0-.13-.02-.03,0,.06.01.12.02.17.04.05.01.1.03.16.05.11.04-.07-.04-.02-.01.02.01.05.02.07.03.05.03.1.06.15.09.02.02.05.03.07.05.08.05-.1-.08-.02-.01.04.04.08.07.12.11.02.02.03.04.05.05.06.07.01.03-.01-.02.03.05.07.1.1.15.01.03.03.05.04.08.05.09-.05-.12,0-.02.05.14.12.25.25.33.12.07.29.1.42.06.26-.08.5-.39.38-.68-.25-.64-.77-1.11-1.44-1.3-.6-.17-1.32-.11-1.83.28-.12.09-.21.18-.25.33-.04.13-.02.31.06.42.15.23.51.38.75.2h0Z"/>
      <path class="cls-5" d="m108.37,40.43c-.23,1-.05,2.01.32,2.96.18.46.38.92.6,1.37.17.36.36.71.62,1.01.54.63,1.43.86,2.16.39s1.03-1.35.69-2.15c-.12-.27-.52-.33-.75-.2-.28.17-.32.48-.2.75,0,0,.01.15.01.14-.01.11-.04.18-.09.26-.09.15-.24.29-.38.33-.16.05-.28.04-.46-.09-.2-.15-.33-.37-.45-.59-.33-.59-.61-1.23-.82-1.87s-.34-1.33-.19-2.01-.9-.99-1.06-.29h0Z"/>
      <g>
        <path class="cls-7" d="m115.28,27.83c1.33-.32,2.61-.86,3.77-1.58"/>
        <path class="cls-5" d="m115.43,28.36c1.38-.33,2.7-.89,3.91-1.64.25-.16.35-.49.2-.75s-.5-.36-.75-.2c-1.14.71-2.34,1.21-3.64,1.53-.29.07-.46.4-.38.68.08.3.39.46.68.38h0Z"/>
      </g>
      <g>
        <path class="cls-7" d="m93.24,34.88c1.89-.29,3.72-1.02,5.28-2.12"/>
        <path class="cls-5" d="m93.39,35.41c1.94-.31,3.8-1.06,5.42-2.17.24-.17.36-.48.2-.75-.14-.24-.51-.37-.75-.2-1.55,1.07-3.29,1.77-5.15,2.06-.29.05-.46.41-.38.68.09.31.38.43.68.38h0Z"/>
      </g>
      <g>
        <path class="cls-7" d="m108.1,53.86c4.26-1.55,8.52-3.11,12.78-4.66.19-.07.4-.13.57-.04.13.07.2.22.26.36.95,2.22,1.9,4.43,2.85,6.65-5.02,1.98-10.03,3.97-15.05,5.95-.27.11-.56.21-.84.15-.23-.06-.42-.22-.58-.39-1.71-1.74-2.41-4.2-3.04-6.55-.04-.14-.08-.3-.02-.43.06-.16.23-.24.39-.31,1.19-.5,2.5-.71,3.78-.6"/>
        <path class="cls-5" d="m108.24,54.39c3.35-1.22,6.7-2.44,10.04-3.66.77-.28,1.57-.67,2.37-.87.67-.16.6.01.87.63.15.35.3.7.45,1.05.7,1.63,1.4,3.27,2.1,4.9l.33-.81c-4.54,1.79-9.08,3.59-13.61,5.38-.48.19-1.06.56-1.57.62-.67.08-1.07-.47-1.43-.97-.59-.82-1.02-1.75-1.37-2.7-.17-.48-.33-.97-.47-1.46-.08-.29-.46-1.05-.37-1.33.11-.33,1.36-.51,1.66-.56.65-.12,1.3-.12,1.95-.08.71.05.71-1.06,0-1.1-1.34-.09-2.85.05-4.06.67-.98.5-.62,1.38-.38,2.25.58,2.07,1.38,4.83,3.22,6.16.98.7,2.13-.05,3.1-.43,1.55-.61,3.1-1.23,4.66-1.84,2.99-1.18,5.97-2.36,8.96-3.54.36-.14.48-.46.33-.81-.8-1.87-1.6-3.73-2.4-5.6-.23-.55-.41-1.42-1.04-1.66-.67-.26-1.54.28-2.14.5-3.83,1.4-7.67,2.8-11.5,4.19-.66.24-.38,1.31.29,1.06h0Z"/>
      </g>
      <g>
        <path class="cls-7" d="m117.42,33.12c1.52-.64,3.03-1.33,4.52-2.05.32.75.63,1.51.95,2.26-1.53.4-2.99,1.08-4.29,1.99-.21.15-.51.3-.7.13-.07-.06-.11-.16-.14-.25-.22-.61-.44-1.22-.66-1.83.57-.19-.57.19,0,0"/>
        <path class="cls-5" d="m117.7,33.59c1.52-.64,3.03-1.33,4.52-2.05l-.81-.33c.32.75.63,1.51.95,2.26l.38-.68c-1.17.31-2.3.77-3.35,1.37-.25.14-.49.29-.73.45-.13.08-.25.17-.37.25-.02.02-.12.06-.13.08-.01,0-.02.01-.03.02l.17.08c.02-.05-.12-.34-.13-.38-.05-.14-.1-.29-.15-.43-.12-.34-.24-.68-.37-1.03l-.38.68c.06-.02.11-.04.17-.05.67-.22.38-1.29-.29-1.06-.11.04-.22.07-.33.11-.67.22-.38,1.29.29,1.06.06-.02.11-.04.17-.05.67-.22.38-1.29-.29-1.06-.06.02-.11.04-.17.05l.29,1.06c.11-.04.22-.07.33-.11l-.29-1.06c-.06.02-.11.04-.17.05-.27.09-.49.39-.38.68.13.38.27.76.4,1.13.12.33.21.73.4,1.03.21.33.6.46.97.37.34-.08.62-.32.91-.5,1.17-.76,2.44-1.32,3.78-1.68.26-.07.5-.4.38-.68-.32-.75-.63-1.51-.95-2.26-.14-.34-.46-.5-.81-.33-1.49.72-3,1.4-4.52,2.05-.27.12-.33.52-.2.75.17.28.48.31.75.2h0Z"/>
      </g>
      <g>
        <path class="cls-7" d="m94.71,39.81c.24.72.54,1.41.9,2.07.64-.48,1.32-.91,2.03-1.29.52-.27,1.08-.55,1.37-1.05s.12-1.32-.45-1.43c-.28-.06-.56.07-.83.19-1.03.47-2.05.94-3.08,1.42"/>
        <path class="cls-5" d="m94.18,39.96c.25.76.57,1.5.95,2.2.13.24.52.37.75.2.64-.48,1.32-.91,2.03-1.29.6-.32,1.26-.66,1.59-1.3.3-.58.25-1.36-.2-1.85-.25-.27-.62-.41-.98-.38-.45.03-.86.27-1.27.45-.89.41-1.79.82-2.68,1.24-.27.12-.34.52-.2.75.16.28.48.32.75.2.67-.31,1.34-.62,2.01-.93.33-.15.66-.3.99-.45.13-.06.25-.12.39-.15.03,0,.07-.02.09-.02.02,0,.05.01.07.02.08.02-.08,0,0,0,.04,0,0,0-.02-.02.02.02.03.03.05.05.04.04,0-.01-.01-.02.01.02.03.04.04.06s.02.04.03.06c0-.01-.03-.08-.01-.02.02.06.03.11.04.17-.01-.11,0,.05,0,.08,0,.03,0,.05,0,.08,0-.01.02-.08,0-.02-.01.05-.02.1-.04.15-.02.06,0,0,0-.02-.02.03-.04.07-.06.1-.11.17-.3.32-.48.43-.24.15-.49.27-.73.41-.68.37-1.34.79-1.96,1.25l.75.2c-.34-.62-.62-1.27-.84-1.94-.09-.28-.38-.47-.68-.38-.28.08-.48.39-.38.68h0Z"/>
      </g>
      <path class="cls-5" d="m118.87,35.05v1.42c0,.29.25.56.55.55s.55-.24.55-.55v-1.42c0-.29-.25-.56-.55-.55s-.55.24-.55.55h0Z"/>
      <path class="cls-5" d="m120.33,34.72c.32.63.64,1.26.95,1.89.13.26.51.35.75.2.26-.17.34-.48.2-.75-.32-.63-.64-1.26-.95-1.89-.13-.26-.51-.35-.75-.2-.26.17-.34.48-.2.75h0Z"/>
      <path class="cls-5" d="m121.96,34.63c.26.06.51.15.75.25l-.13-.06c.35.15.68.33.99.55.11.08.3.09.42.06s.27-.13.33-.25c.07-.13.1-.28.06-.42s-.13-.24-.25-.33c-.56-.39-1.2-.68-1.87-.85-.28-.07-.61.09-.68.38s.09.6.38.68h0Z"/>
      <path class="cls-5" d="m96.15,41.21v2.21c0,.29.25.56.55.55s.55-.24.55-.55v-2.21c0-.29-.25-.56-.55-.55s-.55.24-.55.55h0Z"/>
      <path class="cls-5" d="m97.4,40.58c-.01.9.46,1.75,1.21,2.23.24.16.62.06.75-.2.15-.28.06-.59-.2-.75-.04-.03-.09-.06-.13-.09l.11.09c-.14-.11-.27-.24-.37-.38l.09.11c-.11-.14-.2-.3-.27-.46l.06.13c-.07-.17-.12-.35-.15-.54l.02.15c-.01-.1-.02-.19-.02-.29,0-.29-.26-.56-.55-.55s-.55.24-.55.55h0Z"/>
      <path class="cls-5" d="m98.59,40.97c.89,0,1.79,0,2.68,0,.29,0,.56-.25.55-.55s-.24-.55-.55-.55c-.89,0-1.79,0-2.68,0-.29,0-.56.25-.55.55s.24.55.55.55h0Z"/>
      <path class="cls-5" d="m108.49,55.31c.27.76.61,1.49,1.03,2.18.16.27.49.34.75.2l1.05-.54c.36-.18.76-.34.9-.75s-.04-.81-.15-1.2c-.1-.34-.19-.69-.3-1.03-.19-.57-.49-1.18-1.07-1.44-.73-.32-1.51.01-1.93.65-.51.78-.27,1.74.08,2.52.12.27.52.34.75.2.28-.16.32-.48.2-.75s-.23-.59-.23-.89c0-.13.01-.25.07-.38-.02.06.07-.11.08-.13-.03.03-.02.02.02-.03.03-.03.05-.06.08-.08.08-.08-.03,0,.07-.06.03-.02.07-.04.1-.06-.04.02-.03.02.03,0,.07-.01.07-.02.02-.01.04,0,.08,0,.11,0-.09,0,.06.02.07.02-.1-.03.07.04.09.05-.09-.06.06.06.08.08.1.09-.03-.06.04.05.04.06.08.12.11.18s.07.13.09.2c-.04-.08.02.06.03.07.05.14.1.29.14.44.1.36.21.72.31,1.07.01.05.03.09.04.14.01.07.02.09.01.05-.06,0,.19-.19.04-.1s-.3.16-.45.23l-1.05.54.75.2c-.37-.61-.68-1.25-.91-1.92-.1-.28-.38-.47-.68-.38-.27.07-.49.4-.38.68h0Z"/>
      <path class="cls-5" d="m115.47,51.84c-.06.9-.03,1.92.7,2.57.35.31.79.5,1.26.44s.9-.3,1.3-.58c.21-.15.31-.37.25-.62-.2-.83-.39-1.67-.59-2.5-.07-.31-.39-.44-.68-.38-.64.12-1.27.3-1.87.54-.27.11-.48.37-.38.68.08.26.39.5.68.38.61-.24,1.23-.42,1.87-.54l-.68-.38c.2.83.39,1.67.59,2.5l.25-.62c-.14.1-.29.21-.44.29-.04.02-.07.04-.11.06-.01,0-.13.06-.07.03s-.06.02-.07.02c-.05.01-.09.02-.14.03.05-.01.06,0,0,0-.02,0-.13.01-.15,0,.04.03.09.02,0,0-.03,0-.07-.02-.1-.03.07.02.05.03,0,0-.03-.02-.06-.04-.09-.05-.11-.07.07.07-.03-.02-.03-.02-.05-.05-.08-.07s-.05-.05-.07-.08c-.07-.08.02.04,0-.01-.04-.06-.08-.12-.11-.19-.03-.05-.03-.08,0,0-.02-.04-.03-.09-.05-.13-.03-.09-.04-.17-.06-.26v-.05s0,.05,0,.01c0-.04,0-.09-.01-.13,0-.09,0-.18,0-.27,0-.2.01-.4.03-.6.02-.29-.27-.56-.55-.55-.31.01-.53.24-.55.55h0Z"/>
      <path class="cls-5" d="m.53,40.81c.71,0,.71-1.1,0-1.1s-.71,1.1,0,1.1h0Z"/>
      <g>
        <path class="cls-6" d="m48.54,122.6c.34-.1.65-.26.92-.5.74-.66,2.03-2.54,2.1-3.5.58-7.2-1-13.65-2.43-20.74-.27-1.37-1.47-3.29-3.32-.56-.65,7.79-1.3,15.59-1.95,23.38-.02.29-.05.59.08.85.21.43.74.62,1.22.76,1.08.32,2.34.61,3.37.32Z"/>
        <path class="cls-5" d="m48.69,123.15c1.48-.53,2.48-2.01,3.11-3.4.82-1.83.5-4.37.41-6.31-.24-4.92-1.3-9.74-2.28-14.55-.24-1.18-.45-2.88-1.74-3.41-1.12-.46-2.54.63-2.91,1.67s-.22,2.54-.31,3.63c-.12,1.41-.24,2.82-.35,4.23-.23,2.74-.46,5.47-.69,8.21-.12,1.49-.25,2.98-.37,4.48-.1,1.16-.6,2.89-.15,3.99.67,1.63,3.89,1.77,5.29,1.47.71-.15.41-1.24-.3-1.09-1.19.25-3.63.12-3.96-1.38-.12-.55.12-1.42.17-1.99.04-.5.08-.99.12-1.49.21-2.49.42-4.97.62-7.46s.42-4.97.62-7.46c.11-1.3.09-2.69.33-3.98.16-.87,1.04-2.61,1.92-1.29.45.68.5,1.65.66,2.42.24,1.16.48,2.31.71,3.47.47,2.36.91,4.73,1.19,7.12s.4,4.61.32,6.93c-.04,1.1-.09,1.99-.65,2.95-.49.85-1.11,1.82-2.06,2.17-.68.24-.39,1.34.3,1.09Z"/>
      </g>
      <g>
        <path class="cls-6" d="m51.58,117.56c3.73.26,6.46,4.77,4.97,8.2-1.35,3.11-5.11,4.46-8.5,4.55-2.92.08-5.97-.56-8.23-2.4-2.27-1.84-3.55-5.05-2.59-7.81s4.49-4.49,7.06-3.09"/>
        <path class="cls-5" d="m51.58,118.11c2.58.25,4.62,2.66,4.81,5.19.22,2.92-2.18,4.98-4.74,5.83-2.86.94-6.21.86-9.01-.23s-5.27-3.8-5.19-7.03,3.51-5.92,6.54-4.39c.63.32,1.19-.63.56-.95-2.87-1.46-6.49.16-7.72,3.05-1.43,3.34.4,7.2,3.19,9.17,3.04,2.15,7.3,2.57,10.86,1.74,3.13-.73,6.34-2.88,6.6-6.36s-2.46-6.79-5.92-7.13c-.71-.07-.7,1.04,0,1.1h0Z"/>
      </g>
      <path class="cls-5" d="m96.36,117.64c-3.28.62-3.1,5.12-5.88,6.49-2.11,1.04-4.52.44-6.6-.36-2.38-.91-4.7-1.99-7.04-3s-4.58-1.96-6.87-2.95c-2.06-.88-4.79-1.58-6.39-3.23-1.5-1.55-2.44-3.83-3.38-5.74-1.12-2.26-2.1-4.59-2.96-6.96-.24-.66-1.31-.38-1.06.29,1.31,3.6,2.89,7.09,4.76,10.43.76,1.36,1.57,2.74,2.89,3.62,1.67,1.11,3.75,1.75,5.58,2.54,3.97,1.7,7.94,3.41,11.9,5.11,2.98,1.28,6.36,2.76,9.55,1.27,1.38-.64,2.21-1.78,2.89-3.1s1.26-3.05,2.89-3.36c.7-.13.4-1.19-.29-1.06h0Z"/>
      <g class="cls-2">
        <path class="cls-4" d="m107.43,15.36c4.97-.05,10.09.08,14.7,2.15,5.8,2.6,8.58,8.04,10.55,13.78,1.74,5.09,3.53,10.58,3.22,16.01-.34,5.8-3.43,10.87-6.35,15.71-.33.54-.24,1.36.23,1.8,3,2.77,6.37,4.97,10.27,6.26,4.75,1.58,9.97,1.07,14.46,3.44l-.53-2.04c-5.59,9.19-13.24,16.52-19.67,25.06-1.15,1.53,1.43,3.02,2.57,1.5,6.44-8.55,14.07-15.85,19.67-25.06.4-.67.17-1.66-.53-2.04-3.37-1.78-6.83-2.06-10.53-2.66-5.24-.85-9.69-2.98-13.6-6.58l.23,1.8c3.21-5.31,6.44-10.86,6.76-17.22s-1.95-13.64-4.41-19.74c-4.87-12.11-14.72-15.3-27.03-15.18-1.91.02-1.92,3,0,2.98h0Z"/>
      </g>
      <g class="cls-2">
        <path class="cls-4" d="m136.66,77.76c.29,1.49.58,2.98.87,4.48.37,1.89,3.26,1.09,2.89-.8-.29-1.49-.58-2.98-.87-4.48-.37-1.89-3.26-1.09-2.89.8h0Z"/>
      </g>
      <g class="cls-2">
        <path class="cls-4" d="m139.7,95.05c.04,4.41-1.46,8.63-1.15,13.05.13,1.91,3.13,1.93,3,0-.31-4.41,1.19-8.65,1.15-13.05-.02-1.93-3.01-1.93-3,0h0Z"/>
      </g>
      <g class="cls-2">
        <path class="cls-4" d="m120,51.29c.54,1.41,1.52,3.76-.31,4.63-1.39.66-.18,2.72,1.21,2.06,2.93-1.39,2.36-4.87,1.41-7.33-.55-1.42-2.86-.8-2.31.64h0Z"/>
      </g>
      <g class="cls-2">
        <path class="cls-4" d="m113.75,80.77c1.5,4.65,1.26,9.58,1.78,14.39.21,1.9,3.21,1.92,3,0-.56-5.07-.31-10.28-1.89-15.18-.59-1.83-3.49-1.05-2.89.8h0Z"/>
      </g>
      <g class="cls-2">
        <path class="cls-4" d="m68.86,109.92c15.14,7.02,31.77,12.89,48.23,15.85,5.86,1.05,12.23,1.29,16.97-2.81,3.95-3.42,7.21-8.89,6.86-14.24-.12-1.92-3.12-1.93-3,0,.36,5.55-4.06,12.08-9.24,14.05-6.41,2.43-14.77-.66-21.07-2.34-12.73-3.39-25.29-7.54-37.25-13.09-1.74-.81-3.26,1.78-1.51,2.59h0Z"/>
      </g>
      <g class="cls-2">
        <path class="cls-4" d="m119.59,107.53c1.69-2.23,3.68-4.24,5.9-5.95,1.17-.9.01-2.93-1.18-2.01-2.56,1.97-4.79,4.21-6.74,6.78-.91,1.2,1.12,2.36,2.01,1.18h0Z"/>
      </g>
      <g class="cls-2">
        <path class="cls-4" d="m49.41,103.05c-.37,4.53-.72,9.53,1.52,13.69,1.08,2.01,3.25,3.45,4.2,5.45,2.57,5.43-3.04,7.38-6.68,7.34-2.02-.02-4.21-.86-6.11-1.44s-2.64,2.33-.8,2.89c5.79,1.76,16.03,3.08,17.37-5.36.43-2.69-1.05-4.87-2.69-6.84-4.08-4.88-4.32-9.62-3.81-15.73.16-1.92-2.84-1.91-3,0h0Z"/>
      </g>
      <g class="cls-2">
        <path class="cls-4" d="m6.76,91.89c5.91,4.51,13.08,5.46,20.26,6.47,7.9,1.11,16.06,1.72,23.85,3.45,3.56.79,6.75,2.53,10.26,3.45,3.07.81,6.27.95,9.42,1.19,8.77.69,17.54,1.36,26.31,2.05,1.92.15,1.91-2.85,0-3-7.83-.61-15.66-1.22-23.49-1.83-4.04-.31-8.3-.35-12.22-1.51-3.23-.96-6.16-2.53-9.48-3.25-7.19-1.56-14.69-2.17-21.98-3.19s-15.22-1.7-21.41-6.43c-1.53-1.17-3.03,1.43-1.51,2.59h0Z"/>
      </g>
      <g class="cls-2">
        <path class="cls-4" d="m122.77,73.14c.06.32-.03.59-.25.81-.16.25-.35.47-.59.66-1.03,1.02,0,2.99,1.46,2.5.83-.28,1.63.34,1.5,1.26s-1.32,1.36-2.09,1.4c-1.92.11-1.93,3.1,0,3,2.64-.15,5.32-2.06,5.1-4.97-.19-2.55-2.9-4.38-5.31-3.58l1.46,2.5c1.33-1.32,2.45-3.3,1.37-5.12-.85-1.42-2.76-2.05-4.16-1.06-1.56,1.11-.06,3.71,1.51,2.59h0Z"/>
      </g>
      <path class="cls-5" d="m120.18,72.62c.26,3.06,2.08,5.88,1.82,8.99-.04.44.49.66.83.48.97-.52,1.88-1.16,2.7-1.89.69-.62,1.79-1.47,1.4-2.52-.69-1.86-3.24-2.03-4.9-2.04l.48.83c.56-.75,1.12-1.5,1.68-2.25.4-.54.89-1.18.56-1.88-.27-.58-.99-.88-1.55-1.09-.75-.28-1.56-.35-2.35-.25-.34.04-.64.32-.53.7.38,1.28.65,2.59.78,3.91.07.7,1.17.71,1.1,0-.15-1.43-.41-2.83-.82-4.21l-.53.7c.55-.07,1.1-.06,1.64.08.3.08,1.28.34,1.24.74-.02.22-.32.5-.44.66-.18.24-.36.48-.54.72-.4.53-.8,1.07-1.2,1.6-.26.35.09.83.48.83.73,0,1.47.02,2.18.2.55.14,1.39.44,1.63,1.02.15.37-.29.68-.54.93-.28.28-.57.55-.88.81-.66.56-1.39,1.03-2.15,1.44l.83.48c.27-3.15-1.56-5.92-1.82-8.99-.06-.7-1.16-.71-1.1,0h0Z"/>
      <g class="cls-2">
        <path class="cls-4" d="m125.15,110c1.71-2.11,2.87-4.54,4.39-6.79.87-1.29-1.22-2.5-2.08-1.22-1.39,2.06-2.44,4.36-4.01,6.3-.97,1.2.73,2.91,1.71,1.71h0Z"/>
      </g>
      <g>
        <path class="cls-6" d="m.53,40.26l90.5,7.43c1.82,16.06,6.28,41.14,8.1,57.2-17.37.44-34.8-1.16-51.81-4.74-5.89-1.24-11.73-2.72-17.56-4.2-6.87-1.74-13.73-3.48-20.6-5.21-.89-.23-1.82-.47-2.48-1.11-.8-.78-1.03-1.96-1.21-3.07C2.98,71.44,1.35,56.18.59,40.88"/>
        <path class="cls-5" d="m.53,40.81c3.01.25,6.01.49,9.02.74,7.18.59,14.35,1.18,21.53,1.77l26.17,2.15,22.63,1.86,7.43.61,2.32.19c.33.03.92.19,1.24.1.04-.01.11,0,.15.01l-.55-.55c1.72,15.1,4.37,30.08,6.52,45.13.57,4.02,1.12,8.04,1.58,12.08l.55-.55c-18.56.45-37.12-1.41-55.23-5.5-9.02-2.04-17.96-4.42-26.92-6.69-2.32-.59-4.63-1.17-6.95-1.76-.99-.25-2.2-.42-2.96-1.15-.8-.77-.94-2.02-1.11-3.07-.78-4.7-1.45-9.41-2.06-14.13-1.32-10.35-2.23-20.75-2.76-31.17-.04-.71-1.14-.71-1.1,0,.49,9.61,1.3,19.19,2.46,28.74.57,4.66,1.21,9.31,1.93,13.95.29,1.88.31,4.29,1.42,5.91,1.02,1.49,2.98,1.74,4.6,2.15,18.64,4.72,37.2,9.98,56.34,12.28,10.73,1.29,21.54,1.79,32.34,1.53.27,0,.59-.25.55-.55-1.72-15.1-4.37-30.08-6.52-45.13-.57-4.02-1.12-8.04-1.58-12.08-.04-.32-.22-.52-.55-.55-3.01-.25-6.01-.49-9.02-.74-7.18-.59-14.35-1.18-21.53-1.77l-26.17-2.15-22.63-1.86-7.43-.61c-1.13-.09-2.42-.38-3.56-.29-.05,0-.1,0-.15-.01-.71-.06-.7,1.04,0,1.1h0Z"/>
      </g>
      <path class="cls-5" d="m152.32,21.82c4.65-6.25,9.29-12.5,13.94-18.75.42-.57-.53-1.12-.95-.56-4.65,6.25-9.29,12.5-13.94,18.75-.42.57.53,1.12.95.56h0Z"/>
      <path class="cls-5" d="m157.63,51.92c9.01,2.08,17.98,4.38,26.88,6.89.68.19.98-.87.29-1.06-8.9-2.52-17.86-4.81-26.88-6.89-.69-.16-.99.9-.29,1.06h0Z"/>
      <path class="cls-5" d="m171.6,24.35c1.15,4.09,2.61,8.09,4.36,11.96.29.65,1.24.09.95-.56-1.71-3.79-3.13-7.7-4.25-11.7-.19-.68-1.26-.39-1.06.29h0Z"/>
      <path class="cls-5" d="m170.73,27.22c1.91-.11,3.83-.21,5.75-.29l-.48-.83c-1.62,2.69-3.21,5.4-4.76,8.13-.33.57.4,1.05.87.67,2.59-2.1,5.71-3.83,8.96-4.64.34-.09.76-.17,1.11-.06.43.14.57.56.69.95.26.88.42,1.79.5,2.7.16,1.86-.03,3.72-.54,5.52-.19.68.87.98,1.06.29.59-2.08.78-4.26.51-6.41-.2-1.61-.45-4.12-2.53-4.19-.9-.03-1.82.34-2.66.63-.93.33-1.85.71-2.74,1.14-1.84.89-3.56,2.01-5.15,3.29l.87.67c1.55-2.73,3.14-5.44,4.76-8.13.21-.35-.06-.85-.48-.83-1.92.08-3.83.18-5.75.29-.71.04-.71,1.14,0,1.1h0Z"/>
      <path class="cls-5" d="m188.28,22.32c1.25-.65,2.58-1.38,4.02-1.43,1.06-.04,2.28.33,2.88,1.27.37.58.43,1.3.5,1.97.07.79.15,1.59.22,2.38.04.4.07.79.11,1.19.02.17.03.34.05.51.01.11.02.23.03.34-.02.21.05.19.21-.05,0-.03-.23-.13-.26-.15-.15-.1-.29-.22-.44-.33-.31-.24-.62-.48-.93-.72-.24-.18-.61-.03-.75.2-.17.28-.04.57.2.75.52.4,1.06.94,1.66,1.22.53.25,1.23.14,1.4-.52.08-.32,0-.68-.03-1-.04-.43-.08-.85-.12-1.28-.07-.77-.14-1.53-.21-2.3-.12-1.31-.27-2.65-1.34-3.55-.88-.75-2.07-1.09-3.22-1.04-1.62.08-3.1.84-4.51,1.58-.63.33-.07,1.28.56.95h0Z"/>
      <path class="cls-5" d="m189.46,17.42c-.03,2.62.22,5.23.75,7.79.14.69,1.2.4,1.06-.29-.5-2.47-.74-4.98-.71-7.5,0-.71-1.09-.71-1.1,0h0Z"/>
      <path class="cls-5" d="m194.98,16.03c1.63.82,3.26,1.64,4.9,2.46.27.13.6.07.75-.2.14-.24.07-.62-.2-.75-1.63-.82-3.26-1.64-4.9-2.46-.27-.13-.6-.07-.75.2-.14.24-.07.62.2.75h0Z"/>
      <path class="cls-5" d="m207.71,8.31c1.54.5,3.07.99,4.61,1.49.28.09.6-.11.68-.38.08-.3-.1-.59-.38-.68-1.54-.5-3.07-.99-4.61-1.49-.28-.09-.6.11-.68.38-.08.3.1.59.38.68h0Z"/>
      <path class="cls-5" d="m205.87,11.7c1.83,1.79,3.25,3.95,4.12,6.36.13.36.63.58.92.24,1.02-1.17,2.59-1.63,4.08-1.18l-.38-.38c.44,2.83-1.26,5.44-2.74,7.69-.39.59.56,1.15.95.56,1.68-2.56,3.34-5.36,2.85-8.54-.03-.19-.22-.33-.38-.38-1.84-.55-3.88.02-5.15,1.47l.92.24c-.94-2.59-2.43-4.92-4.4-6.85-.51-.5-1.29.28-.78.78h0Z"/>
      <path class="cls-5" d="m222.63.53c-.02,4.69.22,9.37.74,14.03l1.03-.28c-.43-.63.18-1.52.48-2.1.36-.68.79-1.38,1.48-1.77,1.58-.9,2.18.71,3.44,1.23,1.34.55,2.08-.82,2.86-1.64,1.07-1.13,2.33-2.03,3.72-2.72.64-.32.08-1.27-.56-.95-1.5.75-2.88,1.75-4.02,2.97-.28.3-.53.63-.81.94-.35.39-.6.53-1.06.22-.57-.39-.98-.96-1.64-1.24-1.43-.61-2.92.28-3.76,1.43-.76,1.04-1.97,2.93-1.1,4.19.28.4,1.09.32,1.03-.28-.52-4.66-.77-9.35-.74-14.03,0-.71-1.1-.71-1.1,0h0Z"/>
    </g>
  </g>
</svg>