<?xml version="1.0" encoding="UTF-8"?>
<svg id="Layer_2" data-name="Layer 2" xmlns="http://www.w3.org/2000/svg" viewBox="0 0 230.29 105.33">
  <defs>
    <style>
      .cls-1, .cls-2, .cls-3 {
        stroke: #231f20;
        stroke-miterlimit: 10;
        stroke-width: .89px;
      }

      .cls-1, .cls-4 {
        fill: #231f20;
      }

      .cls-2 {
        fill: #f9b19d;
      }

      .cls-5 {
        opacity: .14;
      }

      .cls-3 {
        fill: none;
      }

      .cls-6 {
        fill: #f8c785;
      }

      .cls-6, .cls-7, .cls-8, .cls-9, .cls-4, .cls-10 {
        stroke-width: 0px;
      }

      .cls-7 {
        fill: #f9b9ad;
      }

      .cls-8 {
        fill: #814b1f;
      }

      .cls-9 {
        fill: #896b4a;
      }

      .cls-10 {
        fill: #fff;
      }
    </style>
  </defs>
  <g id="Layer_1-2" data-name="Layer 1">
    <g>
      <g>
        <path class="cls-7" d="m205.1,48.04c.91,3.42,1.83,6.85,2.74,10.27.12.43.23.87.46,1.27.35.62.94,1.07,1.5,1.5,2.89,2.18,5.78,4.37,8.67,6.55,1.35,1.02,2.74,2.08,3.63,3.52,1.81,2.92,1.23,6.64.87,10.06-.42,3.96-.45,7.97-.09,11.93.02.28.07.58.28.76.19.16.46.17.7.19.99.05,1.97.19,2.92.44.88.23,1.79.56,2.38,1.26.59.69.75,1.83.13,2.49-.59.62-1.56.61-2.42.55-3.98-.29-7.96-.64-11.93-1.05-1.02-.11-2.08-.23-2.95-.79-1.48-.95-1.96-3.16-1.01-4.64s3.17-1.95,4.64-.98c-1.46-3.76-2.17-7.8-2.08-11.83,0-.31.01-.65-.17-.91-.18-.26-.51-.36-.81-.46-6.62-2.05-12.84-5.36-18.23-9.7-.91-.73-1.91-1.53-3.07-1.48-.85.04-1.6.53-2.31,1.01-4.74,3.2-9.47,6.39-14.21,9.59-.38.26-.77.53-.96.95-.15.35-.14.74-.12,1.12.19,4.14.37,8.29.56,12.43.02.47.05.97.27,1.39.52,1,2.07,1.58,1.84,2.69-4.27,1.83-9.08,2.38-13.66,1.54-.71-.13-1.44-.31-1.98-.78-.54-.47-.8-1.33-.4-1.93.25-.37.7-.56,1.12-.72,1.72-.65,3.5-1.15,5.31-1.5-.83-7.14-1.86-14.25-3.08-21.33,3.86-.71,7.64-1.88,11.22-3.5-1.08-2.82-3.17-5.11-4.87-7.61-2.31-3.4-3.94-7.27-4.75-11.3,2.51,2.54,5.11,5.14,8.4,6.54,3.28,1.39,6.94,1.46,10.5,1.5,1.99.03,3.98.05,5.96-.2,5.52-.71,10.72-3.68,14.13-8.09"/>
        <path class="cls-4" d="m204.57,48.19c.79,2.96,1.58,5.91,2.37,8.87.29,1.08.47,2.3,1.17,3.21.77,1.01,2,1.72,3,2.48,2.42,1.83,4.85,3.65,7.26,5.49s4.2,3.91,4.41,7.14c.18,2.74-.38,5.49-.56,8.21-.2,3.02-.19,6.06.08,9.08.07.77.09,1.55.92,1.86.4.15.86.12,1.28.16.84.08,1.71.22,2.52.48.69.22,1.47.52,1.87,1.18.85,1.39-.52,1.97-1.64,1.96-1.47-.01-2.97-.21-4.43-.34-1.67-.14-3.34-.29-5.01-.45s-3.41-.11-4.91-.7-2.34-2.4-1.59-3.9,2.68-1.86,4.05-1.07c.39.22.99-.15.81-.62-1.06-2.79-1.75-5.69-1.98-8.66-.09-1.17.12-2.49-.12-3.64-.2-.93-.94-1.14-1.76-1.41-5.18-1.67-10.09-4.08-14.57-7.18-1.08-.75-2.13-1.55-3.16-2.37-.83-.66-1.7-1.34-2.78-1.49-1.01-.14-1.92.28-2.76.81-1.29.81-2.54,1.71-3.81,2.57-2.5,1.69-5.01,3.38-7.51,5.07-1.17.79-2.42,1.52-3.53,2.39-.69.54-1.05,1.08-1.08,1.96-.07,1.68.15,3.42.22,5.1s.16,3.48.23,5.22c.06,1.26-.14,2.85.4,4.02.4.87,1.9,1.56,1.82,2.54l.4-.53c-3.43,1.44-7.11,2.1-10.83,1.85-.96-.06-1.94-.16-2.88-.38-1.04-.24-2.85-1.49-.9-2.3,1.69-.7,3.52-1.14,5.31-1.5.21-.04.43-.31.4-.53-.84-7.18-1.87-14.34-3.1-21.47l-.38.68c3.92-.74,7.71-1.93,11.35-3.56.2-.09.34-.42.25-.62-1.28-3.16-3.6-5.64-5.41-8.48-2.04-3.19-3.44-6.72-4.21-10.43l-.92.54c2.56,2.59,5.23,5.25,8.65,6.68,3.77,1.58,8,1.52,12.02,1.54,3.76.02,7.36-.43,10.81-1.98,3.24-1.46,6.09-3.7,8.29-6.49.43-.55-.34-1.34-.78-.78-2.07,2.62-4.69,4.73-7.71,6.15-3.36,1.58-6.93,2.01-10.61,1.99s-7.75.06-11.31-1.33-6.04-4.01-8.57-6.56c-.4-.41-1.03.02-.92.54.73,3.5,2.02,6.87,3.86,9.94s4.42,5.64,5.77,8.97l.25-.62c-3.55,1.58-7.27,2.73-11.09,3.44-.31.06-.43.41-.38.68,1.2,7.03,2.22,14.09,3.06,21.18l.4-.53c-1.36.27-2.69.61-4.01,1.04-.87.29-2.08.55-2.67,1.32-1.03,1.36.26,2.91,1.57,3.37,2.22.78,4.93.77,7.24.59,2.68-.2,5.28-.84,7.76-1.88.25-.1.38-.26.4-.53.05-.62-.19-1.11-.6-1.57-.26-.3-.6-.53-.87-.82-.55-.6-.62-1.16-.66-1.93-.13-2.65-.24-5.3-.36-7.95-.06-1.33-.13-2.65-.18-3.98-.04-.93.24-1.45,1-1.98.6-.42,1.22-.82,1.83-1.23,2.16-1.46,4.33-2.92,6.49-4.38,1.08-.73,2.16-1.46,3.25-2.19s2.17-1.63,3.35-2.21c1.54-.76,2.61.02,3.8.96.89.7,1.78,1.39,2.7,2.05,3.74,2.66,7.82,4.85,12.1,6.51.6.24,1.21.46,1.83.67.52.18,1.41.29,1.85.61.84.6.56,1.81.59,2.69.02.62.07,1.24.13,1.86.28,2.83.95,5.6,1.96,8.26l.81-.62c-1.94-1.12-4.65-.5-5.62,1.61s.12,4.51,2.18,5.33c1.36.54,2.95.54,4.39.69,1.91.19,3.82.37,5.72.53,1.66.14,3.38.41,5.05.36,1.08-.03,2.17-.42,2.53-1.55.89-2.86-2.89-3.9-4.88-4.18-.57-.08-1.51.05-1.84-.53-.35-.62-.16-2.15-.19-2.86-.08-1.91-.08-3.83.02-5.74.17-3.3.94-6.67.54-9.98-.37-3.02-2.03-5.08-4.38-6.89-1.66-1.28-3.34-2.53-5.01-3.79s-3.59-2.4-5.06-3.87c-.77-.77-.96-1.75-1.24-2.77l-.87-3.27-1.62-6.07c-.18-.68-1.25-.39-1.06.29h0Z"/>
      </g>
      <path class="cls-2" d="m209.62,34.11c3.57,3.51,7.15,7.02,10.72,10.54.27.26.54.54.66.9.2.64-.18,1.32-.57,1.87-.75,1.05-1.59,2.03-2.52,2.93-.44.43-.96.86-1.57.88-.86.03-1.5-.74-2.05-1.4-1.48-1.76-3.31-3.22-5.36-4.27-.48-.25-1.01-.52-1.2-1.02-.14-.38-.05-.8.07-1.19.5-1.72,1.36-3.32,1.89-5.03.53-1.71.72-3.64-.09-5.24"/>
      <g class="cls-5">
        <path class="cls-9" d="m137,45.12c-1.88,5.65,1.83,8.9,6.86,10.43,3.05.93,6.22,1.69,9.41,1.13,3.76-.66,6.76-3.21,10.45-4.09,1.94-.46,1.12-3.46-.83-3-3.04.73-5.46,2.52-8.39,3.51-4.21,1.41-16.85-.1-14.5-7.16.63-1.9-2.37-2.72-3-.83h0Z"/>
      </g>
      <g>
        <path class="cls-7" d="m157.96,35.99c-.85-.21-1.59.62-2,1.4-1.64,3.12-1.58,7.07.15,10.15-1.91.37-3.56-1.21-5.07-2.43s-3.97-2.07-5.21-.57c-.59.71-.84,1.89-1.76,2.04-.57-1.81-1.76-4.02-3.62-3.7-1.78.3-2.26,2.61-2.28,4.42-.02,1.31.02,2.74.84,3.76.59.73,1.48,1.12,2.33,1.5,1.69.74,3.38,1.47,5.07,2.21,1.87.81,3.93,1.64,5.89,1.07,1.28-.38,2.32-1.3,3.5-1.91,2.89-1.47,6.99-1.27,8.57-4.11"/>
        <path class="cls-4" d="m157.96,35.44c-2.31-.23-3.26,3.14-3.56,4.87-.45,2.58,0,5.2,1.24,7.5l.48-.83c-2.84.37-4.58-2.85-7.15-3.6-.87-.25-1.87-.32-2.7.1-.36.18-.66.45-.91.76-.45.54-.68,1.56-1.43,1.78l.68.38c-.67-2.02-2.48-5.28-5.1-3.79-2.2,1.25-2.25,5.28-1.63,7.36.48,1.61,1.73,2.38,3.19,3.03,1.86.82,3.73,1.64,5.61,2.44,1.62.68,3.36,1.31,5.15,1.03s3.01-1.52,4.56-2.24c2.87-1.32,6.65-1.16,8.47-4.16.37-.61-.58-1.16-.95-.56-1.52,2.51-5.01,2.53-7.49,3.52-1.49.59-2.71,1.8-4.25,2.24-2,.58-4.09-.42-5.89-1.2-1.67-.72-3.36-1.42-5.02-2.18-.96-.44-1.87-.97-2.26-2.02-.3-.81-.29-1.75-.27-2.6.03-1.23.19-3.35,1.59-3.82,1.79-.6,2.81,1.99,3.23,3.25.09.28.38.47.68.38.93-.28,1.24-.99,1.73-1.76.93-1.45,2.5-1.15,3.83-.41,2.1,1.17,3.65,3.5,6.33,3.16.41-.05.69-.43.48-.83-.92-1.72-1.37-3.64-1.25-5.59.08-1.33.7-5.32,2.62-5.13.71.07.7-1.03,0-1.1h0Z"/>
      </g>
      <g class="cls-5">
        <path class="cls-9" d="m143.3,47.53c.41.88,1.07,1.6,1.92,2.07.49.27,1.02.42,1.57.49.19.02,1.31,0,1.26-.03,0,0,.27.99.34,1.16.19.46.41.88.71,1.28.64.88,1.46,1.54,2.46,1.97,1.81.79,3.4-1.88,1.57-2.68-.88-.39-1.51-.9-1.89-1.8-.31-.74-.43-1.52-.98-2.14-1.29-1.45-3.41-.04-4.27-1.89s-3.52-.23-2.68,1.57h0Z"/>
      </g>
      <path class="cls-3" d="m139.96,47.11c2.24.05,4.84.55,4.09,2.66.46.3,1.09,0,1.46-.4.36-.41.6-.94,1.03-1.28.82-.65,2.14-.36,2.77.47s.63,2.03.19,2.97c.76-.48,1.84-.37,2.49.25.65.62.8,1.7.35,2.48"/>
      <g class="cls-5">
        <path class="cls-9" d="m165.35,53.41c5.15,5.54,12.6,7.07,19.9,6.08,6.36-.86,16.5-2.55,20.31-8.41,1.09-1.68-1.6-3.24-2.68-1.57-2.98,4.58-13.03,6.22-18.05,6.88-6.4.84-12.74-.28-17.29-5.18-1.36-1.47-3.56.73-2.2,2.2h0Z"/>
      </g>
      <g>
        <path class="cls-7" d="m173.6,56.45c-6.37-1.63-8.23-5.1-11.62-10.74-3.39-5.63-4.87-12.27-5.04-18.84-.1-4.15.33-8.42,2.25-12.1,2.3-4.41,6.5-7.52,10.88-9.88,7.53-4.06,16.98-6.26,24.51-2.22,2.08,1.12,3.9,2.66,5.58,4.32,6.63,6.59,11.12,15.64,11.03,24.99-.09,9.35-5.22,18.8-13.63,22.89-7.22,3.51-15.7,2.87-23.64,1.66"/>
        <path class="cls-4" d="m173.75,55.92c-2.25-.6-4.37-1.53-6.09-3.13-1.51-1.41-2.65-3.16-3.73-4.91-1.51-2.45-2.96-4.92-3.97-7.63-1.08-2.9-1.79-5.93-2.15-9-.7-5.84-.66-12.45,2.65-17.55,3.04-4.68,8.25-7.82,13.29-9.97,5.31-2.26,11.44-3.54,17.12-1.96s10.24,6.36,13.54,11.13c6.33,9.15,8.5,21.12,3.17,31.26-2.83,5.38-7.48,9.59-13.31,11.45-6.51,2.07-13.54,1.4-20.18.4-.69-.1-.99.96-.29,1.06,6.31.95,12.86,1.61,19.13.06,5.44-1.34,10.11-4.49,13.44-8.98,7.12-9.58,6.65-22.34,1.03-32.5-2.89-5.22-7.19-10.57-12.53-13.43s-11.7-2.65-17.38-.98c-5.6,1.65-11.32,4.6-15.45,8.79-4.44,4.51-5.77,10.48-5.65,16.65.15,7.31,2.01,14.17,5.78,20.44,1.32,2.2,2.66,4.47,4.51,6.28s4.25,2.94,6.78,3.61c.69.18.98-.88.29-1.06h0Z"/>
      </g>
      <g>
        <path class="cls-10" d="m188.59,18.54l.25,1.88c.02.15.05.31.16.41.12.1.3.1.46.08,1.61-.16,3.19-.49,4.73-.99,0-.54-.04-1.08-.14-1.61-.03-.15-.07-.31-.18-.41-.12-.11-.29-.13-.45-.14-1.53-.12-3.09.02-4.58.42"/>
        <path class="cls-4" d="m188.04,18.54l.15,1.1c.05.36.06.75.16,1.11.24.84,1.07.72,1.75.64,1.44-.18,2.86-.49,4.25-.94.24-.08.4-.28.41-.54,0-.64,0-1.38-.22-1.98-.27-.74-1.02-.75-1.69-.77-1.39-.05-2.79.12-4.13.47-.69.18-.4,1.25.3,1.07,1.08-.29,2.18-.44,3.3-.44.27,0,.54,0,.81.02.11,0,.22.02.33.02.14,0,.07.04.05,0,.11.2.1.53.12.75.03.29.04.57.03.86l.41-.54c-1.14.37-2.3.65-3.48.83-.26.04-.53.08-.79.11-.12.01-.33,0-.44.04-.06.03-.1-.06.01.07.12.14.05.02.04-.04-.13-.6-.17-1.23-.25-1.84-.04-.3-.23-.55-.55-.55-.27,0-.59.26-.55.55h0Z"/>
      </g>
      <path class="cls-4" d="m189.28,21.31v.4c0,.08.01.15.05.21.02.07.06.13.11.18.05.05.11.09.18.11.07.03.14.05.21.05l.15-.02c.09-.03.18-.07.24-.14l.09-.11c.05-.09.08-.18.08-.28v-.4c0-.08-.01-.15-.05-.21-.02-.07-.06-.13-.11-.18-.05-.05-.11-.09-.18-.11-.07-.03-.14-.05-.21-.05l-.15.02c-.09.03-.18.07-.24.14l-.09.11c-.05.09-.08.18-.08.28h0Z"/>
      <path class="cls-4" d="m191.26,20.52v1.39c0,.29.26.57.55.55s.55-.24.55-.55v-1.39c0-.29-.26-.57-.55-.55s-.55.24-.55.55h0Z"/>
      <path class="cls-4" d="m192.64,20.88c.31.76.76,1.45,1.37,2.01.21.2.58.23.78,0,.2-.21.23-.57,0-.78-.2-.19-.39-.39-.56-.61l.09.11c-.26-.34-.48-.71-.64-1.1l.06.13s-.02-.04-.02-.05c-.06-.14-.12-.25-.26-.33-.12-.07-.29-.1-.43-.06s-.26.13-.33.26-.11.29-.06.43h0Z"/>
      <g>
        <path class="cls-10" d="m168.14,20.33c.09.85.25,1.69.49,2.51.03.12.08.26.2.3.08.03.17.02.25,0,1.21-.23,2.41-.46,3.62-.69.2-.04.43-.09.55-.25.11-.14.12-.33.12-.5.01-.53-.02-1.05-.08-1.58-.02-.16-.05-.33-.19-.42-.12-.07-.27-.04-.41,0-1.5.36-2.99.72-4.49,1.08"/>
        <path class="cls-4" d="m167.58,20.33c.06.59.15,1.17.28,1.75.1.48.17,1.22.63,1.51.26.17.54.12.83.07.3-.06.6-.12.9-.17.59-.11,1.17-.22,1.76-.34.52-.1,1.2-.12,1.6-.5s.35-1.03.33-1.55c0-.28-.03-.56-.06-.84s-.06-.57-.23-.81c-.41-.56-1.13-.29-1.68-.16-1.3.31-2.59.63-3.89.94-.69.17-.4,1.24.3,1.07.91-.22,1.83-.44,2.74-.66.45-.11.9-.22,1.35-.32.1-.02.2-.05.3-.07.02,0,.18-.03.18-.04,0,.03-.18-.11-.19-.11-.05-.01,0-.05,0,.03,0,.02,0,.05.01.08.02.12.02.24.03.35.02.21.03.43.03.64,0,.12,0,.23,0,.35,0,.06.03.24,0,.3-.02.03-.1.04-.15.05-.24.06-.48.09-.72.14-.9.17-1.81.35-2.71.52-.05,0-.1.02-.15.03-.03,0-.07.01-.1.02-.14.02-.07.06.2.14,0,0-.04-.14-.05-.19-.06-.24-.12-.48-.18-.72-.11-.5-.19-1-.25-1.51-.03-.3-.23-.55-.55-.55-.27,0-.59.26-.55.55h0Z"/>
      </g>
      <path class="cls-4" d="m169.02,23.3v1.19c0,.14.06.29.16.39s.25.17.39.16.29-.05.39-.16.16-.24.16-.39v-1.19c0-.14-.06-.29-.16-.39s-.25-.17-.39-.16-.29.05-.39.16-.16.24-.16.39h0Z"/>
      <path class="cls-4" d="m170.84,23.44c.07.26.13.53.2.79.03.13.14.26.26.33.06.04.13.06.21.07.07.02.15.01.22,0,.13-.04.26-.13.33-.26s.09-.28.06-.43c-.07-.26-.13-.53-.2-.79-.03-.13-.14-.26-.26-.33-.06-.04-.13-.06-.21-.07-.07-.02-.15-.01-.22,0-.13.04-.26.13-.33.26s-.09.28-.06.43h0Z"/>
      <g>
        <path class="cls-10" d="m172.93,22.33c.27.33.53.66.8.99"/>
        <path class="cls-4" d="m172.53,22.72c.27.33.53.66.8.99.08.1.27.16.39.16.14,0,.3-.06.39-.16s.17-.24.16-.39l-.02-.15c-.03-.09-.07-.18-.14-.24-.27-.33-.53-.66-.8-.99-.08-.1-.27-.16-.39-.16-.14,0-.3.06-.39.16s-.17.24-.16.39l.02.15c.03.09.07.18.14.24h0Z"/>
      </g>
      <g>
        <path class="cls-10" d="m171.17,33.56c8.26-.41,16.5-1.17,24.7-2.25-1.15,1.53-.39,3.67.26,5.47,1.18,3.29,1.83,6.77,1.92,10.26,0,.21,0,.44-.11.61-.17.26-.51.32-.82.36-6.4.82-12.8,1.59-19.22,2.33-.26.03-.55.05-.77-.1-.2-.15-.28-.41-.34-.66-1.38-5.74-4.04-9.94-5.41-15.68"/>
        <path class="cls-4" d="m171.17,34.12c8.26-.42,16.5-1.17,24.7-2.25l-.48-.83c-.97,1.48-.69,3.18-.18,4.78.67,2.13,1.4,4.18,1.79,6.39.21,1.15.35,2.31.43,3.47.03.44.28,1.44-.15,1.75-.37.28-1.66.22-2.13.28-2.38.3-4.76.6-7.14.89s-4.76.57-7.15.85c-.66.08-1.31.15-1.97.23-.33.04-.66.08-.99.11-.46-.1-.68-.37-.68-.81-.43-.9-.58-2.05-.9-3-1.41-4.11-3.35-8-4.4-12.23-.17-.69-1.23-.4-1.06.29.91,3.67,2.47,7.08,3.81,10.6.66,1.73,1,3.61,1.67,5.32.58,1.45,2.33.83,3.54.69,4.27-.49,8.54-1.01,12.81-1.54,1.07-.13,2.13-.27,3.2-.4.65-.08,1.59-.05,2.17-.44,1.1-.75.46-3.14.33-4.2-.24-2.09-.67-4.15-1.3-6.16s-2.01-4.4-.75-6.34c.21-.32-.06-.88-.48-.83-8.2,1.08-16.44,1.83-24.7,2.25-.71.04-.71,1.14,0,1.1h0Z"/>
      </g>
      <path class="cls-4" d="m176.99,33.95c-.12,1.48.15,2.94.76,4.29.11.24.4.29.63.26.62-.08,1.25-.16,1.87-.25.26-.04.53-.13.72-.33.25-.27.28-.61.23-.96-.17-1.26-.34-2.53-.52-3.79-.04-.3-.42-.46-.68-.39-.32.09-.43.38-.39.68.15,1.07.29,2.15.44,3.22.02.12.03.24.05.36,0,.05,0,.09.01.14.01.1-.02.06.02.01s.1-.06.05-.07c-.03,0-.1.02-.13.03-.12.02-.24.03-.37.05-.54.07-1.07.14-1.61.22l.63.26c-.52-1.17-.71-2.46-.61-3.73.03-.3-.27-.55-.55-.55-.32,0-.53.26-.55.55h0Z"/>
      <path class="cls-4" d="m187.16,33.06c-.31,1.35-.16,3.11,1.19,3.86.55.31,1.26.43,1.88.23.31-.1.6-.27.81-.51.09-.1.18-.2.21-.33.04-.15,0-.29-.05-.43-.08-.23-.15-.45-.23-.68-.31-.93-.62-1.86-.94-2.78-.1-.28-.38-.47-.68-.39-.28.08-.48.4-.39.68.4,1.2.81,2.4,1.21,3.6l.06-.43c.08-.11-.04.04-.06.05-.02.02-.13.1-.02.02-.04.03-.08.06-.13.08-.03.02-.17.07-.04.02-.1.03-.19.06-.29.08.09-.02.03,0-.03,0-.04,0-.09,0-.13,0-.06,0-.12,0-.18-.01.14.01,0,0-.03,0-.1-.02-.2-.05-.31-.09.12.04,0,0-.03-.02-.05-.03-.11-.06-.16-.09-.04-.02-.08-.05-.11-.08.1.07-.02-.02-.04-.04-.04-.04-.08-.07-.11-.11,0,0-.09-.12-.04-.05-.07-.1-.13-.21-.19-.33s0,.04-.03-.07c-.03-.07-.05-.14-.07-.2-.03-.11-.06-.23-.08-.35,0-.04,0-.04,0,.01,0-.04,0-.07-.01-.11,0-.06,0-.11-.01-.17,0-.13,0-.26,0-.39,0-.06,0-.11.01-.17,0-.04,0-.07.01-.11,0,.06,0,.05,0-.02.02-.13.05-.25.07-.38.07-.28-.09-.61-.39-.68-.28-.06-.61.09-.68.39h0Z"/>
      <g>
        <path class="cls-10" d="m112.33,80.41c1.15.24,2.28.55,3.45.7,1.49.19,3,.1,4.5-.07.38-.04.76-.09,1.11-.23.51-.2.93-.56,1.34-.91,3.4-2.93,6.8-5.86,9.87-9.14,1.88-2.02,3.66-4.18,5.93-5.74-10.2-2.61-20.56-4.58-31-5.88-.45-.06-.9-.11-1.34-.02-.4.09-.77.29-1.13.5-5.17,3.06-9.17,7.8-14.27,10.99-2.08,1.3-5.63,3.53-7.2,5.42"/>
        <path class="cls-4" d="m112.18,80.94c2.76.6,5.26.99,8.09.65,2.45-.29,4.23-2.48,6-4.04,2.15-1.89,4.26-3.83,6.23-5.9s3.88-4.45,6.3-6.16c.37-.26.36-.88-.13-1.01-8.79-2.24-17.69-4.02-26.67-5.3-1.01-.14-2.02-.28-3.03-.41-.94-.12-1.99-.4-2.93-.18-1.69.38-3.36,1.89-4.71,2.92-3.11,2.39-5.9,5.16-9.09,7.45-3.02,2.17-6.58,3.82-9.05,6.68-.46.53.32,1.32.78.78,2.07-2.41,4.99-3.96,7.62-5.67,3.03-1.98,5.68-4.47,8.45-6.79,1.46-1.22,2.97-2.4,4.58-3.42,1.05-.67,1.9-.97,3.14-.81s2.47.32,3.71.5c4.25.6,8.48,1.31,12.69,2.13,4.77.93,9.51,2,14.21,3.2l-.13-1.01c-2.01,1.42-3.65,3.21-5.31,5.02-1.81,1.98-3.73,3.86-5.72,5.66-.97.88-1.96,1.75-2.96,2.61s-2.1,2.2-3.39,2.55c-2.75.74-5.71.07-8.4-.52-.69-.15-.99.91-.29,1.06h0Z"/>
      </g>
      <path class="cls-4" d="m84.18,76.86c.71,0,.71-1.1,0-1.1s-.71,1.1,0,1.1h0Z"/>
      <g class="cls-5">
        <path class="cls-9" d="m116.44,67.73l-.67.87c-.55.71-.69,1.97.31,2.44,3.02,1.4,5.01,4.16,5.16,7.52.09,1.99,3.19,2,3.11,0-.19-4.39-2.69-8.34-6.7-10.21l.31,2.44.67-.87c1.21-1.56-.97-3.78-2.2-2.2h0Z"/>
      </g>
      <g>
        <path class="cls-8" d="m113.3,65.13c.82-.56,1.95-.62,2.83-.16.88.47,1.46,1.44,1.45,2.43,0,1.35-.98,2.48-2,3.36,1.48.79,2.96,1.58,4.44,2.37.5.27,1.03.57,1.29,1.07.37.72.03,1.64-.58,2.18-.61.53-1.42.76-2.21.93.86,1.17,2.92.58,3.93,1.62.82.84.44,2.36-.47,3.1-.91.74-2.16.91-3.33,1.02-3.49.32-7,.35-10.51.37-.86,0-1.76,0-2.55-.35-.79-.36-1.44-1.17-1.31-2.03.13-.9,1.04-1.48,1.92-1.7.88-.22,1.81-.2,2.67-.51-1.36.1-2.72.12-4.08.07-.49-.02-1.01-.05-1.43-.31-1.12-.68-.83-2.53.2-3.33s2.44-.87,3.74-.93c1.31-.06,2.72-.2,3.68-1.09-1.56-.04-3.11-.07-4.67-.11-.21,0-.43-.02-.58-.17-.16-.17-.14-.44-.11-.67.21-1.45.43-2.95,1.22-4.18.79-1.23,2.32-2.12,3.73-1.7-2.02-.4-3.88-1.56-5.13-3.2.87-.53,1.92.2,2.76.77,1.44.96,3.16,1.49,4.89,1.52"/>
        <path class="cls-4" d="m113.58,65.6c1.32-.79,3.06-.23,3.41,1.36.31,1.39-.85,2.58-1.79,3.41-.26.23-.19.71.11.87,1.52.81,3.06,1.6,4.57,2.44.86.48,1.42,1.23.67,2.12-.52.62-1.41.81-2.16.98-.43.1-.5.63-.24.92.56.65,1.33.85,2.15,1,.91.17,2.17.34,2.07,1.57-.13,1.44-1.66,1.95-2.88,2.14-1.36.21-2.75.25-4.12.32-2.66.12-5.36.25-8.02.14-.72-.03-1.52-.14-2.06-.67-.62-.62-.49-1.44.2-1.93.98-.7,2.43-.54,3.55-.88.57-.18.5-1.13-.15-1.08-1.47.1-3.13.28-4.59.02-1.73-.31-1.08-2.29.07-2.89s2.6-.46,3.88-.59c1.18-.12,2.24-.41,3.15-1.19.38-.32.06-.93-.39-.94-1.1-.03-2.21-.05-3.31-.08-.18,0-1.39.11-1.52-.08-.14-.21.2-1.37.25-1.6.38-1.91,1.61-4.56,4.03-3.99l.29-1.06c-1.97-.43-3.64-1.47-4.88-3.06l-.11.87c.77-.35,1.61.38,2.21.77.51.32,1.03.61,1.59.84,1.14.48,2.34.71,3.58.75.71.02.71-1.08,0-1.1-1.73-.06-3.29-.59-4.74-1.53-1.01-.66-2.01-1.22-3.19-.68-.36.16-.31.62-.11.87,1.35,1.72,3.23,2.88,5.37,3.34.69.15.99-.9.29-1.06-3.04-.72-4.87,2.19-5.38,4.76-.17.87-.75,2.53.41,2.97.61.23,1.48.1,2.11.12,1.04.02,2.08.05,3.11.07l-.39-.94c-2.31,1.95-7.17-.25-8.35,3.4-.35,1.07-.08,2.32.97,2.87.69.36,1.55.33,2.31.34,1.11.02,2.22-.02,3.33-.09l-.15-1.08c-1.46.45-3.19.24-4.35,1.42-.83.85-.84,2.11-.08,3.02,1.04,1.26,2.74,1.23,4.24,1.22,2.01-.01,4.03-.03,6.04-.11,1.82-.07,3.72-.09,5.52-.44,1.32-.26,2.61-.89,3.14-2.2.42-1.03.25-2.24-.68-2.92-1.07-.79-2.76-.35-3.64-1.38l-.24.92c1.63-.37,3.98-1.57,3.22-3.66-.34-.93-1.28-1.36-2.1-1.8-1.31-.7-2.62-1.4-3.93-2.1l.11.87c1.46-1.28,2.8-3.19,1.83-5.18-.89-1.82-3.09-2.34-4.78-1.32-.61.36-.05,1.32.56.95h0Z"/>
      </g>
      <g class="cls-5">
        <path class="cls-9" d="m85.71,99.57c9.86,2.61,20,4.77,30.17,5.69,3.71.34,6.11-.42,9.22-2.42,5.01-3.21,9.88-6.67,14.82-10,1.65-1.11.1-3.81-1.57-2.68-3.84,2.59-7.68,5.18-11.52,7.78-4.46,3.01-7.41,4.64-12.83,3.99-9.27-1.1-18.44-2.97-27.46-5.36-1.94-.51-2.76,2.48-.83,3h0Z"/>
      </g>
      <g class="cls-5">
        <path class="cls-9" d="m136.08,68.4c1.84,6.89,2.71,13.85,2.64,20.97-.02,2,3.09,2,3.11,0,.08-7.4-.84-14.64-2.75-21.8-.51-1.93-3.51-1.11-3,.83h0Z"/>
      </g>
      <g>
        <path class="cls-6" d="m83.59,76.03c4.44.92,9.02.79,13.52,1.33,6.88.82,13.56,3.17,20.49,3.42.93.03,1.87.03,2.78-.16,1.2-.25,2.3-.83,3.34-1.46,5.31-3.24,9.3-8.2,13.79-12.49.1-.1.9-1.14,1.04-1.17.42-.09.35,1.78.39,2.21.27,3.17.48,6.32.61,9.5.18,4.6.44,8.87-.08,13.44-.03.29-.08.6-.24.85-.2.32-.56.5-.91.67-1.53.74-3.08,1.46-4.5,2.4-3.58,2.37-6.21,6.07-10.03,8.02-.47.24-.96.45-1.48.52-.79.11-1.59-.12-2.37-.33-6.48-1.69-13.2-2.45-19.9-2.73-4.53-.19-7.46-1.76-11.96-1.51-.7.04-2.95-.5-3.25-1.14-.09-.2-.11-.42-.12-.63-.26-4.33-.52-8.67-.77-13-.14-2.34-.56-5.4-.36-7.74"/>
        <path class="cls-4" d="m83.44,76.57c5.69,1.13,11.54.86,17.26,1.9s11.16,2.67,16.9,2.87c2.64.09,4.74-.63,6.94-2.04s4.04-2.99,5.86-4.71,3.7-3.72,5.54-5.59c.74-.75,1.54-1.46,2.23-2.25.11-.12.26-.25.33-.4l.09-.1c.29-.22.18-.33-.32-.35-.04.03.11,1.09.12,1.28.17,5.59.79,11.16.85,16.77.01,1.43,0,2.86-.09,4.29-.04.65-.09,1.29-.16,1.94-.14,1.32-.93,1.53-1.97,2.04-2.35,1.14-4.46,2.48-6.41,4.22s-3.6,3.5-5.69,4.88c-1.43.94-2.59,1.46-4.33,1.08-1.56-.34-3.1-.77-4.67-1.09-2.71-.54-5.45-.94-8.2-1.23-3-.32-6.01-.34-9-.65-2.76-.29-5.42-1.15-8.19-1.38-1.21-.1-2.44.08-3.63-.22-.39-.1-1.08-.21-1.37-.52-.49-.51-.31-1.81-.35-2.45-.2-3.37-.4-6.74-.6-10.11-.17-2.89-.62-5.8-.41-8.7.05-.71-1.05-.7-1.1,0-.2,2.74.22,5.49.38,8.22.19,3.21.38,6.42.57,9.63.05.8.09,1.61.14,2.41.03.43,0,1,.22,1.39.32.58,1.08.84,1.67,1.03.84.28,1.65.38,2.52.36,1.49-.03,2.94.13,4.4.4,2.7.51,5.3,1.04,8.06,1.17,3.3.16,6.6.44,9.88.9s6.27,1.16,9.39,1.89c2.61.61,4.57-.62,6.59-2.21,2.18-1.72,4.04-3.81,6.26-5.49,1.06-.81,2.21-1.47,3.4-2.08,1.06-.54,2.8-.96,3.32-2.15.42-.95.34-2.26.4-3.28.1-1.66.11-3.33.08-5-.06-3.19-.2-6.4-.39-9.59-.15-2.48-.14-5.09-.51-7.55-.07-.45-.18-1.03-.71-1.12-.64-.1-1.04.69-1.39,1.09-1.73,1.98-3.73,3.79-5.57,5.66-2.05,2.07-4.16,4.1-6.53,5.8-1.29.92-2.68,1.86-4.19,2.36-1.77.58-3.72.39-5.54.22-3.64-.34-7.21-1.18-10.78-1.94-3.29-.7-6.58-1.3-9.93-1.57-3.69-.3-7.4-.36-11.04-1.08-.69-.14-.99.92-.29,1.06h0Z"/>
      </g>
      <g>
        <path class="cls-1" d="m90.68,87.63c2.44,1.7,5.44,2.48,8.41,2.48,2.97,0,5.9-.76,8.63-1.95-1.44,2.09-4.27,2.6-6.79,2.81-2.65.22-5.44.29-7.84-.87-1.08-.52-2.09-1.33-2.52-2.46"/>
        <path class="cls-1" d="m106.08,87.1c.85-.09,1.69-.19,2.54-.28.08,0,.17-.01.22.04.04.04.04.1.05.15.08.96-.11,1.94-.55,2.8.81-.95,1.46-2.04,1.91-3.2.08-.21.16-.44.09-.66-.08-.25-.34-.42-.61-.45s-.53.04-.78.12c-.94.31-1.83.77-2.61,1.37"/>
      </g>
      <g class="cls-5">
        <path class="cls-9" d="m119.76,84.54c.69,4.46.94,8.94.81,13.45-.06,2,3.05,2,3.11,0,.13-4.8-.19-9.53-.93-14.27-.3-1.97-3.3-1.13-3,.83h0Z"/>
      </g>
      <path class="cls-2" d="m119.99,82.76c-.36,5.91-.11,11.86.75,17.73"/>
      <g class="cls-5">
        <path class="cls-9" d="m178.35,94.4c-3.44-4.8-3.77-14.04,1.22-17.83,1.99-1.51,4.47-2.54,6.68-3.67,2.68-1.37,4.73-2.67,7.13-.37,2.71,2.61,6.09,4.04,9.6,5.27,2.58.9,6.46,1.59,7.8,4.28,1.19,2.38,1.04,6.4,1.47,9.04.32,1.97,3.32,1.13,3-.83-.53-3.28-.34-8.3-2.18-11.16-1.18-1.84-3.78-2.44-5.7-3.12-4.56-1.62-8.61-2.93-12.31-6.2-1.78-1.58-2.66-2.7-5.13-2.17-3.1.67-6.64,3.16-9.4,4.71-2.56,1.44-5.03,3.06-6.45,5.71-2.65,4.95-1.61,13.43,1.59,17.89,1.16,1.61,3.85.06,2.68-1.57h0Z"/>
      </g>
      <g class="cls-5">
        <path class="cls-9" d="m160.83,99.18c5.3,1.67,10.73,1.2,15.72-1.21,1.8-.87.23-3.55-1.57-2.68-4.25,2.05-8.85,2.31-13.33.9-1.91-.6-2.73,2.4-.83,3h0Z"/>
      </g>
      <g class="cls-5">
        <path class="cls-9" d="m213.35,89.92c-4.59-.43-5.56,4.89-3.37,7.96,3.18,4.45,10.1,2.88,14.81,2.86,2,0,2-3.11,0-3.11-2.22,0-4.44.02-6.66.02-1.3,0-3.07.26-4.24-.3l-.88-.69c-1.32-1.05-1.21-2.26.34-3.64,1.99.19,1.98-2.92,0-3.11h0Z"/>
      </g>
      <g>
        <path class="cls-7" d="m221.92,39.64c.66-.78,2.12-1.8,2.87-2.49.45-.41.95-.82,1.55-.92.6-.1,1.32.22,1.43.82.06.32-.05.65-.17.95-.41,1.04-.91,2.05-1.49,3.02-.51.85-1.1,1.69-1.29,2.67-.2,1.01.04,2.08-.26,3.06-.19.63-.57,1.17-.95,1.7-1.01,1.41-2.02,2.82-3.04,4.24-.53.74-1.09,1.5-1.91,1.88-.67.31-1.44.33-2.17.32-1.14,0-2.34-.08-3.27-.73-1-.7-1.48-1.98-1.44-3.2s.54-2.38,1.17-3.43c.6-.98,1.36-1.91,2.37-2.46s2.31-.67,3.3-.09c.17-1.57-2.26-2.72-1.73-4.21.3-.85,1.38-1.08,2.28-1.12,1.68-.07,3.37.08,5.02.45"/>
        <path class="cls-4" d="m222.3,40.03c.74-.84,1.68-1.48,2.54-2.2.48-.4,1.04-1.08,1.73-1.07,1.2,0,.2,1.82-.06,2.34-.57,1.18-1.38,2.25-1.91,3.45-.58,1.33-.18,2.7-.58,4.04s-1.7,2.68-2.52,3.84-1.57,2.64-2.72,3.41c-1.07.72-2.92.61-4.14.32-1.43-.34-2.27-1.52-2.32-2.96-.09-2.65,2.9-7.37,6.01-5.76.38.2.81-.05.83-.48.03-.72-.27-1.34-.69-1.91-.37-.52-1.1-1.16-1.11-1.83-.05-1.98,5.7-.82,6.67-.61.69.15.99-.91.29-1.06-1.58-.34-3.19-.53-4.8-.49-1,.03-2.19.13-2.86.98-1.52,1.91,1.48,3.17,1.4,4.92l.83-.48c-3.31-1.72-6.26,1.68-7.28,4.52-.53,1.48-.56,3.22.34,4.57s2.42,1.76,3.98,1.83c1.71.07,3.22-.12,4.39-1.48,1.35-1.57,2.48-3.38,3.68-5.07.55-.77,1.07-1.53,1.22-2.48.17-1.04-.05-2.12.31-3.13.33-.91.95-1.71,1.42-2.55s.89-1.68,1.21-2.57c.27-.75.31-1.54-.37-2.08-.57-.45-1.33-.49-1.99-.24-.81.32-1.43,1-2.09,1.54-.74.6-1.51,1.16-2.15,1.88-.47.53.31,1.31.78.78h0Z"/>
      </g>
      <g class="cls-5">
        <path class="cls-9" d="m211.45,48.57c-.34,2.22-.65,4.78.8,6.69,1.37,1.8,3.76,2.11,5.78,1.31,2.44-.97,3.76-3.34,4.8-5.6,1.46-3.17,2.76-6.35,2.63-9.89-.06-1.53-2.44-1.54-2.38,0,.14,3.58-1.34,7.02-3,10.13-.71,1.33-2.27,3.76-4.07,3.41-1.21-.23-2.34-1.47-2.45-2.66-.08-.9.06-1.88.2-2.76.23-1.5-2.06-2.15-2.3-.63h0Z"/>
      </g>
      <g class="cls-5">
        <path class="cls-9" d="m192.62,32.72l1.03,6.49c.17,1.07.47,2.17.51,3.25.16.53.13,1.06-.09,1.58.09,1-.41,1.4-1.52,1.21-1.78.76-4.09.87-5.98,1.28-2.44.52-4.88,1.04-7.31,1.56-1.83.39-1.05,3.19.77,2.8,3.55-.76,7.09-1.51,10.64-2.27,1.81-.39,4.79-.4,6.07-1.93,1.03-1.23.55-2.93.33-4.34-.54-3.46-1.1-6.93-1.64-10.39-.29-1.84-3.09-1.06-2.8.77h0Z"/>
      </g>
      <g class="cls-5">
        <path class="cls-9" d="m190.7,21.93c.85-.19,1.69-.37,2.54-.56,1.36-.3.79-2.39-.58-2.09l-2.54.56c-1.36.3-.79,2.39.58,2.09h0Z"/>
      </g>
      <g class="cls-5">
        <path class="cls-9" d="m170.24,23.53c.55-.24,1.15-.36,1.76-.39,1.08-.05,1.09-1.74,0-1.69-.92.04-1.77.25-2.61.62-.42.18-.52.8-.3,1.16.25.43.74.49,1.16.3h0Z"/>
      </g>
      <g class="cls-5">
        <path class="cls-9" d="m207.88,47.46c1.6,1.13,3.32,2.02,5.13,2.76.78.32,1.71-.34,1.91-1.09.24-.89-.3-1.59-1.09-1.91-1.56-.63-3.02-1.48-4.39-2.45-1.64-1.15-3.19,1.54-1.57,2.68h0Z"/>
      </g>
      <g class="cls-5">
        <path class="cls-9" d="m198.69,9.64c8.83,9.24,12.3,24.78,5.42,36.21-7.07,11.75-28.38,9.68-38.32,3.27-1.66-1.07-3.19,1.57-1.54,2.64,6.77,4.36,14.7,5.7,22.65,5.15,7.14-.5,14.64-1.97,18.99-8.19,8.77-12.54,4.99-30.73-5.05-41.24-1.36-1.42-3.52.74-2.16,2.16h0Z"/>
      </g>
      <path class="cls-4" d="m74.48,1.96c8.09,1.84,16.14,3.82,24.15,5.95.69.18.98-.88.29-1.06-8.01-2.13-16.06-4.12-24.15-5.95-.69-.16-.99.91-.29,1.06h0Z"/>
      <path class="cls-4" d="m103.12,38.95c-7.81,5.5-15.44,11.24-22.9,17.2-.55.44.23,1.22.78.78,7.38-5.91,14.94-11.59,22.68-17.03.58-.41.03-1.36-.56-.95h0Z"/>
      <path class="cls-4" d="m.09,33.47c3.71,5.78,7.57,11.45,11.58,17.03.25.35.9.37,1.01-.13.57-2.66,1.14-5.31,1.71-7.97.15-.69-.91-.99-1.06-.29-.57,2.66-1.14,5.31-1.71,7.97l1.01-.13c-4.01-5.57-7.87-11.25-11.58-17.03-.38-.6-1.34-.04-.95.56H.09Z"/>
      <path class="cls-4" d="m17.72,28.73c2.47,2.85,4.66,5.94,6.54,9.21.35.62,1.31.06.95-.56-1.93-3.36-4.18-6.51-6.71-9.44-.47-.54-1.24.25-.78.78h0Z"/>
      <path class="cls-4" d="m36.53,20.85c1.18.97,2.45,1.82,3.82,2.49.27.13.6.07.75-.2.14-.24.07-.62-.2-.75-1.28-.64-2.51-1.42-3.6-2.32-.23-.19-.56-.22-.78,0-.2.2-.23.59,0,.78h0Z"/>
      <path class="cls-4" d="m32,24.49c1.92,2.72,3.18,5.78,3.74,9.07.08.46.63.47.92.24,1.18-.92,2.71-1.8,4.26-1.53s2.64,1.5,2.27,3.05-1.39,3.01-2.1,4.39-1.45,2.84-2.18,4.26c-.32.63.63,1.19.95.56,1.06-2.07,2.12-4.14,3.17-6.22.77-1.5,1.85-3.26,1.05-4.97-.59-1.26-1.94-2.07-3.3-2.2-1.84-.17-3.52.78-4.91,1.87l.92.24c-.57-3.37-1.88-6.54-3.85-9.33-.41-.58-1.36-.03-.95.56h0Z"/>
      <path class="cls-4" d="m54.03,16.74c-.08,2.68.63,5.25,1.38,7.8.81,2.74,1.46,5.48,1.7,8.33.06.7,1.16.71,1.1,0-.23-2.75-.8-5.41-1.57-8.05s-1.6-5.29-1.51-8.08c.02-.71-1.08-.71-1.1,0h0Z"/>
      <path class="cls-4" d="m52.64,21.07l5.42-.36-.48-.83c-1.96,3.3-3.66,6.73-5.11,10.28-.23.56.55.84.92.54,1.73-1.44,3.56-2.76,5.49-3.94.94-.57,1.89-1.11,2.87-1.61.85-.44,1.83-.95,2.82-.88,1.16.09,1.49,1.12,1.69,2.09.22,1.1.54,2.53-.26,3.47-.16.19-.44.46-.71.46-.49,0-.33-.38-.05-.54.38-.22,1.04-.17,1.46-.2,1.21-.08,2.42-.08,3.62,0,.71.04.71-1.06,0-1.1-1.48-.09-2.97-.09-4.45.07-.78.08-1.78.29-2.1,1.12s.26,1.55,1.05,1.72c.9.2,1.76-.34,2.23-1.09.63-.98.6-2.15.43-3.26s-.34-2.29-1.14-3.08c-1.69-1.68-4.32-.19-5.99.72-2.76,1.49-5.34,3.28-7.75,5.28l.92.54c1.42-3.46,3.1-6.8,5-10.02.2-.34-.05-.86-.48-.83l-5.42.36c-.7.05-.71,1.15,0,1.1h0Z"/>
      <path class="cls-4" d="m78.56,21.07l3.67-1.01c.29-.08.46-.39.38-.68s-.39-.46-.68-.38l-3.67,1.01c-.29.08-.46.39-.38.68s.39.46.68.38h0Z"/>
      <path class="cls-4" d="m78.09,25.34c1.65-.44,3.3-.88,4.95-1.32l-.62-.81c-1.27,2.04-2.27,4.24-2.96,6.54l1.06.29c.1-.7.55-1.21,1.2-1.48.76-.32,1.48-.19,2.23.08.79.29,1.6.59,2.45.34.76-.22,1.28-.76,1.38-1.55.04-.3-.28-.55-.55-.55-.33,0-.51.26-.55.55-.1.74-1.31.53-1.74.4-.81-.26-1.58-.63-2.45-.56-1.39.11-2.82,1.02-3.02,2.48-.1.68.85.99,1.06.29.67-2.21,1.62-4.31,2.85-6.27.26-.41-.17-.93-.62-.81-1.65.44-3.3.88-4.95,1.32-.68.18-.39,1.25.29,1.06h0Z"/>
      <path class="cls-4" d="m93.88,22.04c3.72.24,7.44.17,11.14-.21.7-.07.71-1.17,0-1.1-3.7.37-7.43.44-11.14.21-.71-.04-.71,1.06,0,1.1h0Z"/>
    </g>
  </g>
</svg>