<svg xmlns="http://www.w3.org/2000/svg" viewBox="0 0 227.8 188.44"><defs><style>.cls-1{fill:none;}.cls-1,.cls-2,.cls-5,.cls-6,.cls-7{stroke:#231f20;stroke-miterlimit:10;stroke-width:0.6px;}.cls-2{fill:#f9b19d;}.cls-3{fill:#6d6e71;}.cls-4{fill:#231f20;}.cls-5{fill:#fff;}.cls-6{fill:#f2cf9a;}.cls-7{fill:#9e684f;}.cls-8{opacity:0.14;}.cls-9{fill:#896b4a;}</style></defs><g id="Layer_2" data-name="Layer 2"><g id="Layer_1-2" data-name="Layer 1"><path class="cls-1" d="M135.57,147.22v10.87a29.83,29.83,0,0,0,6.19-2.07,16.66,16.66,0,0,0-6.1-3.18c1-.79,2.35-.66,3.59-.74s2.72-.68,2.83-1.92-1.31-2.12-2.57-2.25-2.59.12-3.74-.39"/><path class="cls-1" d="M146.43,149.51a19.28,19.28,0,0,0,0,4.16,2.61,2.61,0,0,0,1.08,2.18,2,2,0,0,0,2.32-.78,3.3,3.3,0,0,0,.35-3.43,3.35,3.35,0,0,0-2.93-1.84"/><path class="cls-1" d="M153.39,149.28v3.61a1.58,1.58,0,0,0,.11.72,1.12,1.12,0,0,0,.69.53,2.52,2.52,0,0,0,3-2.64,3.3,3.3,0,0,0-3.38-2.72"/><path class="cls-2" d="M60.7,115.67C44.31,105.61,37.5,82.49,45.82,65.15a30.19,30.19,0,0,1,7-9.61C56.92,52,62,49.88,67.22,48.42c7.86-2.23,16.39-3.11,24.13-.48,11.82,4,19.93,16.19,20.55,28.66s-5.56,24.74-15,32.94c-1.91,1.65-4.07,3.35-4.65,5.81a10.85,10.85,0,0,0,.14,4.28q3.82,22.6,9.36,44.89a2.46,2.46,0,0,1-2,3.71,92.05,92.05,0,0,1-32.29,2.86,4,4,0,0,1-2.34-.72A4.1,4.1,0,0,1,64,168.3a110.56,110.56,0,0,1-3.6-42.93,205.65,205.65,0,0,0-31.12,19.74,110.2,110.2,0,0,1-12.76-25.29A9.77,9.77,0,0,1,6.31,116a9.76,9.76,0,0,1,.17-11,5.64,5.64,0,0,1,3.75,3.45l2.2-6.65,3.36,5.09,2.87-4.18c-.5,10.39,6.19,19.6,12.55,27.84a5.08,5.08,0,0,0,2.21,1.93,5.1,5.1,0,0,0,3.37-.43c9.42-3.49,19.82-7.9,23.64-17.18"/><path class="cls-3" d="M13.46,102.63,11.35,91.26a3.46,3.46,0,0,0-.86-2,4.6,4.6,0,0,0-1.75-.76c-3.81-1.28-5.63-5.66-6.07-9.65a10.19,10.19,0,0,1,1-6.54c1.2-1.9,3.82-3.05,5.79-2,1.43.77,2.14,2.39,2.68,3.91a54.3,54.3,0,0,1,2.24,8.41c.36,1.93.6,3.88.85,5.82l2,15.88"/><path class="cls-4" d="M13.7,102.56l-1.5-8c-.22-1.22-.41-2.47-.68-3.68a2.86,2.86,0,0,0-1.17-2c-.86-.53-1.91-.63-2.79-1.16a7.94,7.94,0,0,1-2.35-2.27A13.94,13.94,0,0,1,3.05,79.8c-.39-2.33-.49-5,.67-7.14,1.36-2.48,4.81-3.62,6.79-1.18,1.46,1.81,2,4.54,2.64,6.74a62,62,0,0,1,1.54,7.86c.84,6.1,1.57,12.21,2.35,18.32,0,.22.52.1.49-.13-.79-6.19-1.52-12.38-2.39-18.56A60.29,60.29,0,0,0,13.32,77c-.62-2.09-1.21-4.77-2.91-6.29a4.15,4.15,0,0,0-4.69-.45,6.2,6.2,0,0,0-3.24,4.62C1.73,78.87,2.92,84.19,6,87a7.24,7.24,0,0,0,2.47,1.54c1,.37,1.94.51,2.39,1.65a10.19,10.19,0,0,1,.45,2l1.93,10.42c0,.23.53.1.49-.13Z"/><path class="cls-5" d="M61.87,91.85a75.69,75.69,0,0,0,1.52,8.59,2.19,2.19,0,0,0,.83,1.49,2.22,2.22,0,0,0,1.23.17l26.25-1.41a1.53,1.53,0,0,0,1.81-1.85l.13-6.59a2.56,2.56,0,0,0-.32-1.62A2.63,2.63,0,0,0,91,90L67.73,91.14a7.62,7.62,0,0,0-4.22,1C62.32,93,61.78,95,62.83,96"/><path class="cls-5" d="M92.14,66.72v3.35c0,.37,0,.81.36,1a1.12,1.12,0,0,0,.63.09l6.22-.39,0-3.5a.44.44,0,0,0-.57-.53L92.14,67"/><path class="cls-2" d="M94.14,71.54a12.45,12.45,0,0,1-.57,4.62"/><path class="cls-2" d="M96.13,71.14l.43,6.22"/><path class="cls-2" d="M98,71.14a5,5,0,0,0,.37,2.22"/><path class="cls-5" d="M62,67.64a26.8,26.8,0,0,0,.47,4.73.54.54,0,0,0,.15.31.47.47,0,0,0,.31,0l4.66-.32a.47.47,0,0,0,.33-.11.51.51,0,0,0,.1-.37v-3a.86.86,0,0,0-.18-.65.85.85,0,0,0-.57-.13,42.43,42.43,0,0,0-5.4.44"/><path class="cls-2" d="M63.22,72.93l-1.69,1.9"/><path class="cls-2" d="M64.61,73.29V76"/><path class="cls-2" d="M66.66,72.77v3.08"/><path class="cls-2" d="M67.78,72.63A15.05,15.05,0,0,0,69.43,76"/><path class="cls-2" d="M77.48,72.61c-.45,2.33.53,4.66.88,7a15.89,15.89,0,0,1,.16,2.28,3,3,0,0,1-.23,1.36,1.15,1.15,0,0,1-1.12.67c-.53-.09-.84-.64-1-1.14a11.69,11.69,0,0,1-.78-3.5"/><path class="cls-3" d="M73.23,102.18,74,119.73a1.2,1.2,0,0,0,.27.87c.51.49,1.3-.16,1.65-.76a16.36,16.36,0,0,0,1.74-12,255.6,255.6,0,0,1,5.55,27.94,300.54,300.54,0,0,0,1.06-36.26"/><path class="cls-4" d="M73,102.24,73.43,113l.22,5.36c0,.73-.25,2.29.71,2.56,1.81.5,2.9-3.36,3.23-4.47a16.83,16.83,0,0,0,.26-8.6l-.48.13a259.93,259.93,0,0,1,5.55,27.94c0,.17.47.05.48-.09a303.33,303.33,0,0,0,1.06-36.3c0-.16-.49-.06-.48.13a306.21,306.21,0,0,1-1.06,36.22l.48-.09a257.51,257.51,0,0,0-5.55-27.94c0-.18-.52,0-.48.13a17,17,0,0,1,.09,7.13,15.77,15.77,0,0,1-1.23,3.66c-.16.34-.57,1.44-1,1.56L74.21,120l0-.32a3.83,3.83,0,0,1,0-1.22l-.67-16.33c0-.16-.49-.06-.48.13Z"/><path class="cls-6" d="M156.27,186.87c-22.56.86-69.67.16-69.67.16l-56.84.55s77.87-67.13,108-103.31a3.08,3.08,0,0,1,4.58-1.07L195.37,107a696.39,696.39,0,0,1-33.82,72.09Z"/><path class="cls-5" d="M141.28,170.14c-6.47-.86-13.49,1.36-19.35-1.51a16.81,16.81,0,0,1-7.38-8.09,26.77,26.77,0,0,1,13.58-36.18c10.82-4.64,24.72-.93,31.42,8.75s5,24.36-4,32a30.15,30.15,0,0,1-15.49,6.37"/><path class="cls-7" d="M138.49,135a3.7,3.7,0,0,1,5.78,3.07c0,1.82-1.33,3.35-2.7,4.53l6,3.21a3.86,3.86,0,0,1,1.74,1.44,2.57,2.57,0,0,1-.78,2.94,6.62,6.62,0,0,1-3,1.26c1.16,1.57,3.93.78,5.3,2.18,1.11,1.14.6,3.19-.64,4.19a8.1,8.1,0,0,1-4.49,1.38c-4.71.43-9.45.46-14.18.5a8.15,8.15,0,0,1-3.44-.47,2.79,2.79,0,0,1-1.76-2.74,3.2,3.2,0,0,1,2.59-2.29c1.19-.3,2.45-.27,3.6-.68a50.47,50.47,0,0,1-5.5.09,3.81,3.81,0,0,1-1.92-.42c-1.51-.91-1.13-3.41.27-4.49s3.29-1.17,5-1.25,3.67-.26,5-1.47l-6.3-.15a1.1,1.1,0,0,1-.78-.23,1.11,1.11,0,0,1-.14-.9,13.87,13.87,0,0,1,1.65-5.65c1.07-1.66,3.13-2.86,5-2.29a11.62,11.62,0,0,1-6.92-4.32c1.17-.71,2.59.27,3.73,1a12.37,12.37,0,0,0,6.59,2.05"/><path class="cls-1" d="M119.26,38.86Q142.32,20.1,164.43.22"/><path class="cls-1" d="M132.59,74.73q47.74,3.67,95.17,10.55"/><path class="cls-1" d="M143.52,40.26h10"/><path class="cls-1" d="M142.57,47.4h16.18"/><path class="cls-1" d="M148.92,33.14a29.49,29.49,0,0,0,2.46,16.79c1,2.08,2.22,4.14,2.29,6.43S152,61.2,149.74,61a3.11,3.11,0,0,1-2.69-2.52,3.26,3.26,0,0,1,1.66-3.33c3.54-1.88,7.61,3.38,11.42,2.14"/><path class="cls-1" d="M170.66,36.88a112.5,112.5,0,0,0,15.25-.27"/><path class="cls-1" d="M180.08,31.69l.32,18.42a3.16,3.16,0,0,1-.12,1.15c-.49,1.33-2.55,1.36-3.55.36a6.24,6.24,0,0,1-1.33-3.93,6,6,0,0,1,.4-3.43c.57-1,2-1.62,2.95-.88a3,3,0,0,1,.83,2.09,160.6,160.6,0,0,1,1.17,16.69"/><path class="cls-1" d="M191.13,27.88V35"/><path class="cls-1" d="M196.84,28.36V35.5"/><path class="cls-1" d="M191.8,55.35a11.21,11.21,0,0,1,4.66-1A3.82,3.82,0,0,1,200,57a2.89,2.89,0,0,1-2.2,3.28"/><g class="cls-8"><path class="cls-9" d="M48.46,60.09c-7,9.7-7.76,21.9-5.53,33.35,1.88,9.65,5.66,20.85,15.71,24.53,1.27.47,1.82-1.56.56-2-9.7-3.56-13-15.42-14.53-24.62-1.76-10.47-.75-21.38,5.6-30.18.79-1.1-1-2.15-1.81-1.06Z"/></g><g class="cls-8"><path class="cls-9" d="M59.07,127.71a72.38,72.38,0,0,0,3.38,30.5c.43,1.27,2.46.73,2-.56a70.89,70.89,0,0,1-3.31-29.94c.14-1.34-2-1.33-2.1,0Z"/></g><g class="cls-8"><path class="cls-9" d="M91.34,91.4A12.78,12.78,0,0,1,88.82,99c-.79,1.1,1,2.14,1.82,1.06a14.71,14.71,0,0,0,2.8-8.64,1.05,1.05,0,0,0-2.1,0Z"/></g><g class="cls-8"><path class="cls-9" d="M30,144c11.12-2.82,20.16-9.71,28.76-17,1-.88-.46-2.36-1.49-1.49C49,132.6,40.26,139.25,29.48,142a1,1,0,0,0,.55,2Z"/></g><g class="cls-8"><path class="cls-9" d="M2.49,70.28C-.06,75.36-1.56,80.7,2.6,85.36c1.85,2.08,4,2.41,6.13,3.8,3,2,2.33,8.85,3.68,12.29.49,1.25,2.52.71,2-.55-1.38-3.52-1-6.77-1.58-10.3-.21-1.22-.16-1.68-1.22-2.55C9.77,86.51,6.94,86.61,5,84.83c-4.31-4-3.1-8.77-.73-13.49.6-1.2-1.21-2.27-1.81-1.06Z"/></g><g class="cls-8"><path class="cls-9" d="M4,113.08a30.93,30.93,0,0,0,7.29,5.52c1.53.81,3.14,1.19,4.26,2.6.83,1,1.35,3.2,1.91,4.43a82.38,82.38,0,0,0,11.44,18.11c.85,1,2.33-.45,1.48-1.49-5.34-6.52-8.65-13.38-12.44-20.8C17,119.61,16.63,119,15,118c-3.48-2-6.55-3.52-9.49-6.45A1.05,1.05,0,0,0,4,113.08Z"/></g><g class="cls-8"><path class="cls-9" d="M130.48,135.47a11.42,11.42,0,0,0-4.15,5.41c-.69,2-.1,4.26-.85,6s-2.55,2.34-2.65,4.71c-.14,2.92,2,5.73,3.37,8.12a1,1,0,0,0,1.81-1.06c-1.77-3.13-4.92-8.34-.32-10.54a1.06,1.06,0,0,0,.48-1.19,9,9,0,0,1,3.37-9.62c1.06-.81,0-2.64-1.06-1.82Z"/></g><g class="cls-8"><path class="cls-9" d="M122,126.07c-11.13,3.2-14.72,20.57-11.52,30.14,1.74,5.2,4.79,12.48,9.1,16,2.33,1.91,4.91,2,7.78,2,4.86.06,9.73-.12,14.58-.18a1.05,1.05,0,0,0,0-2.1c-5.21.06-11,.82-16.16.18-4.63-.58-6.43-3.25-8.62-7a67.82,67.82,0,0,1-3.54-6.69,23.1,23.1,0,0,1-.93-17.54c1.77-5.11,4.19-11.22,9.87-12.86a1,1,0,0,0-.56-2Z"/></g><g class="cls-8"><path class="cls-9" d="M134.86,83.68l-103,103a1.05,1.05,0,0,0,1.49,1.48l103-103a1.05,1.05,0,0,0-1.48-1.49Z"/></g></g></g></svg>