<?xml version="1.0" encoding="UTF-8"?>
<svg id="Layer_2" data-name="Layer 2" xmlns="http://www.w3.org/2000/svg" viewBox="0 0 251.85 128.74">
  <defs>
    <style>
      .cls-1 {
        letter-spacing: -.26em;
      }

      .cls-2 {
        letter-spacing: -.02em;
      }

      .cls-3 {
        letter-spacing: -.02em;
      }

      .cls-4 {
        stroke: #231f20;
        stroke-miterlimit: 10;
        stroke-width: .5px;
      }

      .cls-4, .cls-5 {
        fill: #fff;
      }

      .cls-6 {
        letter-spacing: -.19em;
      }

      .cls-7 {
        letter-spacing: -.17em;
      }

      .cls-8 {
        opacity: .14;
      }

      .cls-9 {
        letter-spacing: -.05em;
      }

      .cls-10 {
        letter-spacing: -.5em;
      }

      .cls-11 {
        fill: #f9b9ad;
      }

      .cls-11, .cls-12, .cls-13, .cls-14, .cls-5 {
        stroke-width: 0px;
      }

      .cls-12 {
        fill: #534b4b;
      }

      .cls-13 {
        fill: #896b4a;
      }

      .cls-14, .cls-15 {
        fill: #231f20;
      }

      .cls-15 {
        font-family: ToppanBunkyuMidashiGothicStdN-ExtraBold-83pv-RKSJ-H, 'Toppan Bunkyu Midashi Gothic';
        font-size: 16.18px;
        font-weight: 700;
      }
    </style>
  </defs>
  <g id="Layer_1-2" data-name="Layer 1">
    <g>
      <path class="cls-4" d="m128.73,74.3c1.97.88,3.71,1.31,4.89,1.53.94.29,1.92.64,2.66,1.02.82.42,1.23.86,1.21,1.2-.08,1.08-5.29,1.15-9.19,2.03-6.83,1.55-10.88,5.9-12.95,7.62-9.39,7.79-31.17,5.49-58.85,4.87-37.79-.85-47.75,1.57-52.63-5.92-4.06-6.22-3.1-16.04,1.28-21.44,0,0,7.08-8.76,49.04-6.03.09,0,.19.01.44.03,33.75,2.26,57.81-2.33,63.6,5.83,0,0,4.74,6.67,10.51,9.26Z"/>
      <g class="cls-8">
        <path class="cls-12" d="m.05,80.84c3.04,10.6,12.26,13.05,22.17,13.78,14.45,1.06,29.11.85,43.6,1.01,12.8.14,26.05,1.42,38.73-.89,4.72-.86,8.4-2.64,12.14-5.63,6.03-4.82,11.27-7.62,19.17-7.77,1.35-.03,1.35-2.13,0-2.1-4.33.08-8.54.71-12.49,2.59-4.29,2.03-7.35,5.73-11.38,8.14-10.15,6.06-25.17,3.76-36.4,3.63-12.98-.15-25.96-.38-38.94-.6-11.99-.2-30.38,1.88-34.56-12.71-.37-1.3-2.4-.75-2.02.56H.05Z"/>
      </g>
      <text class="cls-15" transform="translate(19.1 81.62)"><tspan class="cls-6" x="0" y="0">ア</tspan><tspan class="cls-1" x="13.04" y="0">メ</tspan><tspan class="cls-7" x="25.08" y="0">リ</tspan><tspan class="cls-9" x="38.5" y="0">カ</tspan><tspan class="cls-3" x="53.86" y="0">人</tspan><tspan class="cls-2" x="69.65" y="0">め</tspan><tspan class="cls-10" x="85.54" y="0">。</tspan></text>
      <g>
        <path class="cls-11" d="m171.65,93.29c-.65-1.08-10.1-9.17-11.01-10.05-1.71-1.65-3.17-3.8-3.62-6.13-.47-2.44,1.32-7.2,2.36-9.46,1.2-2.61,2.74-5.72,4.06-8.28.75-1.46,1.42-4.14,2.66-5.22,1.59-1.39,3.72-1.96,5.53-3.04,3.05-1.82,5.17-5.57,4.14-8.97-.18-.58-.47-1.12-.84-1.59-1.14-1.46-3.06-2.4-4.92-2.28-1.61.1-3.86,1.34-4.95,2.51-2.62,2.8-1.43,7.31-2.16,10.73-.43,2.03-1.44,3.88-2.36,5.75-2.92,5.92-5.07,12.19-7.21,18.44-.38,1.1-.76,2.26-.54,3.4.18.94.74,1.76,1.29,2.54,1.53,2.17,3.05,4.34,4.58,6.51,1.86,2.64,3.73,5.3,6.08,7.51,4.27,4.01,9.83,6.3,14.74,9.49,1.9,1.23,3.75,2.65,4.91,4.6,2.71,4.54.95,10.54,2.88,15.47,10.13,3.78,21.57,3.96,31.81.49.59-.2,1.2-.43,1.59-.92.59-.76.42-1.84.25-2.78-.9-4.88-1.13-9.88-.68-14.82.07-.78.16-1.57.49-2.28.36-.79.99-1.42,1.62-2.01,9.25-8.73,22-14.4,27.72-25.76.43-.86.82-1.78.76-2.74-.05-.83-.44-1.59-.86-2.31-2.23-3.9-5.27-7.27-7.84-10.95-2.57-3.68-4.73-7.89-4.79-12.38-.03-1.86.22-4-1.09-5.33-.52-.53-1.21-.83-1.83-1.25-.97-.66-1.73-1.59-2.62-2.35-3.4-2.91-8.89-2.98-12.37-.17-.38.31-.76.67-.89,1.14-.27.95.48,1.84,1.14,2.57,3.65,4.02,6.11,9.11,7,14.47,2.43,0,4.98.04,7.12,1.21,2.61,1.43,4.08,4.25,5.41,6.91,1.77,3.55,3.53,7.09,5.3,10.64-2.65,2.29-6.26,3.13-9.14,5.12-2.45,1.69-4.28,4.16-6.75,5.81-2.11,1.42-3.87,2.78-6.15,3.9-3.3,1.61-1.51.62-4.77,2.3-6.22,3.21-19.23,6.2-26.2,6.73-2.76.21-6.39-.09-9.09-.67-3.28-.7-7.49-4.58-10.33-6.36"/>
        <path class="cls-14" d="m172.13,93.01c-.67-1.02-1.78-1.86-2.67-2.67-1.5-1.37-3.02-2.72-4.55-4.06-2.93-2.58-7.05-5.44-7.4-9.67-.21-2.51.92-5.26,1.86-7.54,1.22-2.96,2.72-5.82,4.17-8.67.55-1.08.99-2.18,1.45-3.3.67-1.62,1.46-2.71,3.02-3.57,2.48-1.37,4.99-2.16,6.76-4.51,1.52-2.01,2.33-4.73,1.48-7.19s-3.34-4.1-5.86-4.12c-2.29-.01-4.93,1.48-6.24,3.33-1.51,2.13-1.43,4.89-1.5,7.38-.04,1.45-.17,2.84-.62,4.22-.59,1.81-1.55,3.47-2.37,5.18-1.52,3.16-2.83,6.42-4.04,9.71-.6,1.62-1.17,3.26-1.74,4.89s-1.39,3.45-1.64,5.24c-.18,1.33.2,2.46.91,3.57,1.03,1.63,2.22,3.17,3.33,4.75,1.99,2.83,3.9,5.74,6.2,8.33,2.15,2.42,4.73,4.34,7.48,6.02s5.62,3.13,8.35,4.84,5.47,3.85,6.42,7.22c.86,3.04.57,6.25.97,9.36.13,1.05.26,2.86.91,3.74.32.43,1.1.54,1.58.7.84.29,1.69.55,2.55.79,6.38,1.77,13.11,2.2,19.67,1.29,1.61-.22,3.22-.53,4.8-.91s3.41-.74,4.84-1.53c1.04-.58,1.45-1.56,1.39-2.73-.09-1.79-.58-3.58-.76-5.37-.37-3.6-.46-7.33-.03-10.93.37-3.05,3.61-5.12,5.85-6.92,4.48-3.61,9.29-6.77,13.71-10.46,4.18-3.48,8.34-7.67,10.51-12.75,1.27-2.98-.71-5.5-2.37-7.88-2.05-2.93-4.39-5.65-6.39-8.63-1.84-2.75-3.43-5.77-4.02-9.06-.44-2.45.45-5.73-1.25-7.81-.87-1.06-2.26-1.57-3.25-2.51s-2-1.94-3.29-2.6c-2.23-1.13-4.85-1.42-7.28-.86-1.82.42-5.41,1.81-5.1,4.17.15,1.17,1.16,2.04,1.89,2.89,1.15,1.34,2.16,2.8,3.02,4.33,1.63,2.88,2.72,6.01,3.28,9.27.04.24.31.4.53.4,2.3,0,4.76,0,6.84,1.14,1.84,1,3.08,2.76,4.08,4.54,2.34,4.15,4.31,8.54,6.43,12.81l.09-.67c-2.37,1.98-5.37,2.85-8,4.39s-4.33,3.69-6.54,5.52c-3.68,3.06-7.94,5-12.16,7.14s-9.22,3.51-13.96,4.62-9.76,2.22-14.68,2.09c-3.11-.08-6.35-.34-9.09-1.91-2.59-1.49-4.83-3.5-7.35-5.1-.6-.38-1.15.57-.56.95,2.31,1.47,4.39,3.29,6.72,4.73,2.2,1.36,4.41,1.91,6.97,2.2,5.19.6,10.3-.2,15.38-1.26,9.55-1.98,18.88-5.27,26.94-10.83,1.47-1.01,2.83-2.05,4.13-3.28s2.55-2.52,4.05-3.5c2.87-1.88,6.25-2.76,8.91-4.98.19-.16.19-.46.09-.67-1.25-2.51-2.5-5.02-3.76-7.54-1.1-2.2-2.1-4.5-3.46-6.56-1.08-1.64-2.45-3.12-4.27-3.93-2.14-.96-4.52-1-6.82-1.01l.53.4c-.92-5.34-3.3-10.32-6.86-14.4-.54-.62-1.65-1.58-1.19-2.55.29-.61,1.16-1.09,1.71-1.4,1.13-.65,2.42-1.04,3.72-1.15,2.58-.23,5.18.54,7.12,2.29.81.73,1.53,1.55,2.44,2.18.56.39,1.23.67,1.71,1.16.63.65.83,1.55.9,2.42.2,2.55.07,4.89.86,7.38,1.73,5.45,5.57,9.76,8.9,14.27.89,1.2,1.75,2.43,2.52,3.71,1.01,1.66,1.59,3.01.73,4.9-1.04,2.28-2.53,4.4-4.15,6.3-3.24,3.81-7.21,6.92-11.21,9.89s-7.99,5.77-11.64,9.08c-.76.69-1.57,1.38-2.16,2.24-.7,1.03-.85,2.22-.95,3.43-.28,3.19-.26,6.4.02,9.59.15,1.64.37,3.28.66,4.9.17.99.48,2.17-.51,2.87-.68.49-1.8.69-2.59.93-3.22.95-6.54,1.56-9.89,1.8-6.77.49-13.57-.48-19.94-2.83l.38.38c-2.1-5.66.19-12.46-4.21-17.3-2.04-2.24-4.83-3.77-7.43-5.25-2.79-1.59-5.64-3.09-8.25-4.96-2.88-2.07-5.18-4.67-7.26-7.53s-4.3-5.96-6.34-9c-.57-.86-1.07-1.71-1.04-2.78.02-.82.32-1.63.58-2.39.6-1.79,1.22-3.57,1.85-5.35,1.24-3.51,2.56-7,4.09-10.4,1.33-2.94,3.25-5.85,3.74-9.09.4-2.64-.12-5.47.81-8.03,1.09-2.96,5.03-5,7.99-3.72,3.42,1.48,3.81,5.38,2.06,8.31s-4.61,3.59-7.31,5.2c-2.4,1.43-2.9,3.69-4.01,6.07-2.4,5.11-5.71,10.16-6.57,15.85-.74,4.89,2.95,8.28,6.29,11.21,1.72,1.51,3.43,3.01,5.13,4.55,1.04.94,2.45,1.93,3.23,3.12.39.59,1.34.04.95-.56h0Z"/>
      </g>
      <g>
        <path class="cls-11" d="m179.59,99.07c-3.85-1.85-6.71-4.28-9.52-7.5-4.54-5.21-5.17-12.65-5.59-19.54-.19-3.13-.38-6.28-.14-9.41.54-6.97,3.21-13.59,6.28-19.87.77-1.57,1.6-3.17,2.95-4.28,1.73-1.42,4.06-1.81,6.27-2.15,3.18-.49,6.37-.99,9.58-1.07,5.89-.15,11.71,1.07,17.47,2.28,2.3.48,4.61.97,6.79,1.84,3.13,1.25,5.89,3.26,8.59,5.28,3.15,2.36,6.4,4.95,7.92,8.58,1.05,2.52,1.16,5.32,1.15,8.04-.05,9.12-1.49,18.49-6.18,26.31-1.07,1.79-2.33,3.5-4.01,4.74-1.73,1.27-3.82,1.96-5.87,2.63-5.75,1.88-11.52,3.76-17.49,4.76-5.96,1.01-12.17,1.11-17.98-.54"/>
        <path class="cls-14" d="m179.87,98.59c-5.49-2.68-10.57-7.3-12.68-13.14-1.05-2.92-1.54-6.01-1.83-9.09-.33-3.41-.56-6.86-.57-10.29-.04-7.4,2.23-14.35,5.33-21,1.39-2.97,2.67-6.18,6-7.38,1.4-.5,2.89-.7,4.35-.93,2.02-.31,4.04-.62,6.07-.8,7.44-.68,14.82.86,22.05,2.48,3.56.8,6.78,2.08,9.83,4.1,2.7,1.79,5.43,3.76,7.76,6.02,2.53,2.45,4.08,5.3,4.46,8.83.36,3.28.16,6.69-.11,9.97-.56,6.79-2.16,13.63-5.62,19.56-.95,1.64-2.04,3.24-3.49,4.48-1.57,1.35-3.52,2.09-5.45,2.73-3.74,1.25-7.51,2.47-11.32,3.49-8.04,2.15-16.53,3.25-24.67,1.01-.68-.19-.98.87-.29,1.06,7.38,2.04,15.11,1.41,22.48-.31,3.95-.92,7.83-2.14,11.69-3.39,3.25-1.06,6.64-2,9.1-4.52,2.32-2.38,3.91-5.53,5.17-8.57,1.38-3.34,2.31-6.85,2.89-10.41s.85-7.18.88-10.79-.13-7.07-1.91-10.16c-1.57-2.72-4.01-4.78-6.47-6.66-2.86-2.19-5.8-4.4-9.13-5.83-3.56-1.53-7.52-2.14-11.3-2.89-3.79-.75-7.62-1.37-11.49-1.48s-7.78.45-11.63,1.05c-3.09.48-6.1,1.12-8.07,3.75-1.1,1.46-1.83,3.18-2.6,4.82s-1.49,3.28-2.15,4.96c-1.39,3.52-2.5,7.18-3.04,10.93s-.37,7.87-.13,11.82c.2,3.21.43,6.43,1.06,9.59s1.69,6.23,3.53,8.86,4.09,4.73,6.55,6.54c1.33.98,2.75,1.81,4.24,2.54.63.31,1.19-.64.56-.95h0Z"/>
      </g>
      <path class="cls-14" d="m194.33,60.5c-.32,1.14-.46,2.34-.39,3.53.06,1.03.21,2.14.71,3.05.42.78,1.2,1.39,2.13,1.28.84-.1,1.64-.71,1.61-1.62-.02-.71-1.13-.71-1.1,0,.01.41-.51.58-.85.52-.61-.1-.93-.86-1.08-1.38-.49-1.64-.41-3.46.05-5.1.19-.68-.87-.98-1.06-.29h0Z"/>
      <g>
        <path class="cls-5" d="m206.93,52.86c.08,2.17.15,4.33.23,6.5,0,.16.02.34.12.46.1.13.27.17.43.21,2.77.64,5.62.88,8.46.73-.05-2.12-.1-4.25-.15-6.37,0-.22-.01-.45-.11-.65-.32-.68-1.3-.57-2.04-.42-2.47.49-4.44-.15-6.94-.45"/>
        <path class="cls-14" d="m206.38,52.86c.05,1.47.1,2.95.16,4.42.03.73.01,1.47.08,2.2.05.6.38.93.95,1.08,2.77.73,5.76.9,8.6.75.29-.02.56-.24.55-.55-.04-1.64-.08-3.28-.12-4.92-.03-1.17.21-2.86-1.3-3.15-.53-.1-1.06-.01-1.58.08-.78.14-1.56.19-2.36.14-1.49-.08-2.96-.43-4.44-.61-.7-.09-.7,1.02,0,1.1,1.32.16,2.63.45,3.96.57.65.06,1.3.08,1.95.02.58-.05,1.15-.21,1.74-.25.45-.03.84-.02.89.49.07.7.04,1.43.05,2.14.03,1.46.07,2.91.1,4.37l.55-.55c-2.55.13-5.11-.04-7.62-.56-.16-.03-.7-.06-.81-.18-.1-.11-.04-.59-.05-.74l-.07-1.9c-.05-1.32-.09-2.65-.14-3.97-.02-.71-1.13-.71-1.1,0h0Z"/>
      </g>
      <path class="cls-14" d="m209.33,60.33c0,1.36,0,2.72,0,4.08,0,.48.75.48.75,0,0-1.36,0-2.72,0-4.08,0-.48-.75-.48-.75,0h0Z"/>
      <path class="cls-14" d="m211.33,61.01c.07,1.21.15,2.42.22,3.62.01.2.16.38.38.38.19,0,.39-.17.38-.38-.07-1.21-.15-2.42-.22-3.62-.01-.2-.16-.38-.38-.38-.19,0-.39.17-.38.38h0Z"/>
      <path class="cls-14" d="m213.2,61.47c-.13,1.4-.06,2.8.18,4.18.03.2.28.31.46.26.21-.06.3-.26.26-.46-.23-1.31-.27-2.65-.15-3.98.02-.2-.19-.38-.38-.38-.22,0-.36.17-.38.38h0Z"/>
      <g>
        <path class="cls-5" d="m173.94,52.86c-.1,2.33.04,4.68.42,6.98.06.38.15.8.47,1.02.28.2.65.18,1,.15,2.8-.23,5.6-.46,8.4-.69.11,0,.22-.02.3-.1.1-.1.09-.26.07-.4-.28-2.33-.55-4.66-.83-6.99-.02-.18-.05-.38-.2-.48-.13-.09-.29-.07-.44-.05-3.36.42-5.6.19-8.96.61"/>
        <path class="cls-14" d="m173.39,52.86c-.05,1.37-.03,2.75.07,4.12.05.62.11,1.23.19,1.84.07.57.11,1.19.31,1.73.47,1.28,1.82,1.01,2.91.92,1.33-.11,2.66-.22,3.99-.33.66-.05,1.33-.11,1.99-.16.56-.05,1.37.04,1.87-.25s.42-.83.37-1.32c-.08-.69-.16-1.37-.24-2.06-.16-1.34-.32-2.67-.47-4.01-.05-.46-.04-1.06-.42-1.38-.46-.38-1.12-.17-1.65-.12-2.71.27-5.44.19-8.14.52-.7.09-.7,1.19,0,1.1,1.99-.24,3.98-.27,5.98-.36.49-.02.99-.05,1.48-.09.26-.02.52-.05.78-.07.16-.02.76-.19.87-.1-.08-.07,0,.56.01.61.03.27.06.55.1.82.06.55.13,1.1.19,1.64.13,1.13.27,2.26.4,3.39.01.09.14.57.07.66.19-.26-.59-.14-.67-.13-.59.05-1.19.1-1.78.15-1.15.1-2.31.19-3.46.29-.52.04-1.05.09-1.57.13-.39.03-1.28.27-1.53-.13s-.24-1.17-.3-1.64c-.08-.61-.14-1.23-.18-1.85-.09-1.3-.11-2.61-.06-3.91.03-.71-1.07-.71-1.1,0h0Z"/>
      </g>
      <path class="cls-14" d="m177.08,60.77c-.2,1.77-.04,3.57.43,5.29.13.46.85.27.72-.2-.46-1.66-.6-3.38-.41-5.09.02-.2-.19-.37-.38-.38-.22,0-.35.17-.38.38h0Z"/>
      <path class="cls-14" d="m179.44,61.01v2.49c0,.2.17.38.38.38s.38-.16.38-.38v-2.49c0-.2-.17-.38-.38-.38s-.38.16-.38.38h0Z"/>
      <path class="cls-14" d="m182.16,61.01c-.05,1.32.04,2.64.28,3.94.04.2.28.31.46.26.21-.06.3-.26.26-.46-.22-1.23-.3-2.49-.25-3.74.02-.48-.73-.48-.75,0h0Z"/>
      <g>
        <path class="cls-5" d="m182.33,74.27c10.06.46,19.24.1,29.16-1.6.31-.05.67-.1.91.11.22.19.24.52.25.81.13,4.69.26,9.38.39,14.06-10.29.58-20.6.6-30.89.05-.08-4.52-.1-9.04-.06-13.57"/>
        <path class="cls-14" d="m182.33,74.82c7.28.32,14.58.23,21.83-.57,1.7-.19,3.4-.41,5.09-.66.48-.07.95-.15,1.43-.22.55-.09,1.15-.47,1.42.23s.05,1.95.07,2.67c.11,3.8.21,7.6.32,11.4l.55-.55c-10.29.57-20.6.59-30.89.05l.55.55c-.08-4.52-.1-9.04-.06-13.57,0-.71-1.1-.71-1.1,0-.04,4.52-.02,9.04.06,13.57,0,.31.25.54.55.55,10.29.54,20.6.53,30.89-.05.29-.02.56-.24.55-.55-.12-4.2-.23-8.41-.35-12.61-.03-1.02.25-2.71-1.11-2.95-.7-.12-1.53.17-2.22.28-1.13.18-2.27.34-3.4.49-8.02,1.04-16.1,1.21-24.18.85-.71-.03-.71,1.07,0,1.1h0Z"/>
      </g>
      <path class="cls-14" d="m190.84,108.01c0,3.62,0,7.24,0,10.86,0,.37.35.61.7.53,2.18-.48,4.29-1.2,6.32-2.13.3-.14.37-.65.11-.87-1.88-1.52-4.02-2.65-6.35-3.32l.13,1.01c1.19-.91,2.79-.48,4.16-.78,1.16-.25,2.4-1,2.52-2.29s-.94-2.21-2.05-2.63c-1.5-.56-3.16,0-4.66-.61-.66-.27-.94.8-.29,1.06,1.31.53,2.68.2,4.03.43.82.14,2.19.8,1.84,1.86-.32.97-1.71,1.17-2.57,1.21-1.21.05-2.51.02-3.53.8-.36.28-.36.87.13,1.01,2.14.61,4.13,1.64,5.86,3.04l.11-.87c-1.94.89-3.97,1.56-6.06,2.01l.7.53v-10.86c0-.71-1.1-.71-1.1,0h0Z"/>
      <path class="cls-14" d="m201.71,110.29c-.17,1.46-.18,2.95,0,4.41.15,1.11.62,2.39,1.87,2.59s2.4-.69,2.89-1.77.51-2.46-.11-3.55c-.67-1.18-1.97-1.92-3.32-1.94-.71-.01-.71,1.09,0,1.1.85.02,1.68.43,2.19,1.12.54.73.64,1.68.35,2.53-.24.71-.94,1.54-1.78,1.43s-.97-1.19-1.04-1.83c-.14-1.36-.13-2.74.03-4.1.03-.3-.28-.55-.55-.55-.33,0-.52.25-.55.55h0Z"/>
      <path class="cls-14" d="m208.66,110.06c0,.71,0,1.42,0,2.13,0,.66-.07,1.35.04,2,.19,1.23,1.69,1.6,2.72,1.26s1.78-1.16,2.08-2.15-.04-2.12-.72-2.92c-.76-.88-1.94-1.39-3.1-1.37-.71.01-.71,1.12,0,1.1,1.36-.02,3.04,1.08,2.83,2.61-.09.67-.58,1.28-1.18,1.58-.48.24-1.53.32-1.55-.44-.04-1.26,0-2.53,0-3.8,0-.71-1.1-.71-1.1,0h0Z"/>
      <g class="cls-8">
        <path class="cls-13" d="m210.7,74.45c.17,2.92,1.89,10.45-1.82,11.73-1.06.37-.6,2.06.47,1.69,5.22-1.81,3.34-9.31,3.1-13.42-.07-1.12-1.82-1.13-1.75,0h0Z"/>
      </g>
      <g class="cls-8">
        <path class="cls-13" d="m175.45,60.69l7.89-.36c1.12-.05,1.13-1.8,0-1.75l-7.89.36c-1.12.05-1.13,1.8,0,1.75h0Z"/>
      </g>
      <g class="cls-8">
        <path class="cls-13" d="m207.84,59.46c2.27.46,4.54.92,6.81,1.38.89.18,1.27-1.19.38-1.37-2.27-.46-4.54-.92-6.81-1.38-.89-.18-1.27,1.19-.38,1.37h0Z"/>
      </g>
      <g class="cls-8">
        <path class="cls-13" d="m249.81,74.21c-1.73,11.99-16.55,19.43-25.37,25.83-7.97,5.78-6.92,15.95-5.51,24.74.21,1.33,2.24.77,2.02-.56-.88-5.5-2.15-13.79.93-18.84,2.9-4.74,10.17-7.92,14.54-11.3,6.47-5,14.16-10.66,15.41-19.31.19-1.32-1.83-1.89-2.02-.56h0Z"/>
      </g>
      <g class="cls-8">
        <path class="cls-13" d="m211.62,40.79c7.71,2.24,14.48,7.74,17.09,15.51,2.85,8.51-.18,18.33-2.25,26.67-.27,1.08,1.4,1.54,1.66.46,2.28-9.15,5.47-19.86,1.7-29.05-3.13-7.65-9.93-12.99-17.75-15.26-1.07-.31-1.53,1.35-.46,1.66h0Z"/>
      </g>
      <path class="cls-14" d="m133.1,9.47c5.6,6.43,11.21,12.85,16.81,19.28.47.54,1.24-.25.78-.78-5.6-6.43-11.21-12.85-16.81-19.28-.47-.54-1.24.25-.78.78h0Z"/>
      <path class="cls-14" d="m227.07,21.79c3.7-6.12,7.39-12.24,11.09-18.36.37-.61-.59-1.16-.95-.56-3.7,6.12-7.39,12.24-11.09,18.36-.37.61.59,1.16.95.56h0Z"/>
      <path class="cls-14" d="m155.37,9.32c3.96-1.08,7.91-2.16,11.87-3.24.78-.21,1.77-.59,2.44.06.42.41.59,1.07.53,1.65-.17,1.63-1.98,2.39-3.38,2.67-.82.17-.47,1.43.35,1.26,1.73-.36,3.62-1.32,4.19-3.12.46-1.46-.14-3.35-1.64-3.94-1.03-.4-2.13-.03-3.14.25l-3.86,1.05c-2.57.7-5.14,1.4-7.71,2.11-.81.22-.46,1.48.35,1.26h0Z"/>
      <path class="cls-14" d="m163.37,2.1v6.62c0,.84,1.3.84,1.3,0V2.1c0-.84-1.3-.84-1.3,0h0Z"/>
      <path class="cls-14" d="m157.32,3.81c1.88,5.34,3.75,10.67,5.63,16.01.28.79,1.54.45,1.26-.35-1.88-5.34-3.75-10.67-5.63-16.01-.28-.79-1.54-.45-1.26.35h0Z"/>
      <path class="cls-14" d="m175.78,14.52l4.99.11-.56-.32c.04.08.08.15.12.23-.05-.11.03.08.03.08.05.14.08.28.11.43s0-.06,0,.08c0,.08.01.17.01.25,0,.06,0,.13,0,.19,0,.02-.02.27,0,.14-.04.27-.11.54-.21.8-.03.07-.03.08,0,.02-.02.04-.04.08-.05.12-.03.06-.06.12-.09.17-.07.13-.15.26-.24.39-.04.05-.07.11-.11.16.06-.08-.09.1-.1.12-.09.11-.19.21-.29.3-.11.1-.19.17-.24.2-.12.09-.25.17-.38.24-.07.04-.15.08-.23.11.1-.05-.06.02-.08.03-.14.05-.28.09-.42.12,0,0-.21.03-.08.02-.08.01-.17.02-.25.02-.15,0-.3,0-.45-.02-.35-.04-.65.33-.65.65,0,.39.3.61.65.65,3.1.39,5.55-3.48,4.1-6.16-.11-.2-.34-.32-.56-.32l-4.99-.11c-.84-.02-.84,1.28,0,1.3h0Z"/>
      <path class="cls-14" d="m191.17,12.21c-.36-2.24-.06-4.6.85-6.68h-1.12c2.17,2.85,4.34,5.7,6.51,8.55.21.28.56.42.89.23.28-.16.45-.61.23-.89-2.17-2.85-4.34-5.7-6.51-8.55-.26-.34-.9-.5-1.12,0-1.07,2.43-1.4,5.06-.98,7.68.06.35.49.54.8.45.37-.1.51-.45.45-.8h0Z"/>
      <path class="cls-14" d="m196.18,1.88c-.39,2.6.34,5.21,2.03,7.22.23.27.69.23.92,0,.27-.27.23-.65,0-.92-1.36-1.62-2.01-3.86-1.7-5.95.05-.35-.09-.7-.45-.8-.31-.08-.75.1-.8.45h0Z"/>
      <path class="cls-14" d="m199.4.63c0,1.72,0,3.43,0,5.15,0,.84,1.3.84,1.3,0,0-1.72,0-3.43,0-5.15,0-.84-1.3-.84-1.3,0h0Z"/>
      <path class="cls-14" d="m206.67,12.99c3.5.39,7.05.18,10.48-.6.82-.19.47-1.44-.35-1.26-3.33.76-6.75.93-10.14.55-.83-.09-.83,1.21,0,1.3h0Z"/>
    </g>
  </g>
</svg>