<?xml version="1.0" encoding="UTF-8"?>
<svg id="Layer_2" data-name="Layer 2" xmlns="http://www.w3.org/2000/svg" viewBox="0 0 194.14 153.3">
  <defs>
    <style>
      .cls-1 {
        fill: none;
        stroke: #231f20;
        stroke-miterlimit: 10;
        stroke-width: .6px;
      }

      .cls-2 {
        opacity: .14;
      }

      .cls-3 {
        fill: #f9b9ad;
      }

      .cls-3, .cls-4, .cls-5, .cls-6, .cls-7, .cls-8, .cls-9, .cls-10 {
        stroke-width: 0px;
      }

      .cls-4 {
        fill: #896b4a;
      }

      .cls-5 {
        fill: #231f20;
      }

      .cls-6 {
        fill: #221f1f;
      }

      .cls-7 {
        fill: #cfb47c;
      }

      .cls-8 {
        fill: #b5b5b6;
      }

      .cls-9 {
        fill: #fff;
      }

      .cls-10 {
        fill: #ffe091;
      }
    </style>
  </defs>
  <g id="Layer_1-2" data-name="Layer 1">
    <g>
      <g>
        <path class="cls-8" d="m11.67,71.4c-.7-3.79-1.41-7.58-2.11-11.36-.14-.73-.3-1.52-.85-2.02-.48-.43-1.14-.56-1.75-.76-3.81-1.28-5.64-5.65-6.08-9.65-.25-2.23-.17-4.63,1.02-6.54,1.2-1.9,3.81-3.05,5.79-1.98,1.42.77,2.13,2.39,2.67,3.91.97,2.74,1.72,5.55,2.24,8.41.35,1.93.6,3.88.85,5.82.68,5.29,1.35,10.59,2.03,15.88"/>
        <path class="cls-5" d="m12.2,71.26c-.5-2.68-1-5.37-1.49-8.05-.32-1.74-.28-4.63-1.87-5.78-.79-.57-1.83-.66-2.68-1.13-.94-.51-1.75-1.26-2.38-2.13-1.21-1.66-1.88-3.68-2.22-5.69-.38-2.26-.49-4.93.73-6.97s4.04-3.2,5.91-1.39c1.66,1.62,2.23,4.58,2.82,6.73.69,2.5,1.18,5.03,1.54,7.6.88,6.2,1.6,12.43,2.4,18.65.09.69,1.19.7,1.1,0-.78-6.07-1.51-12.15-2.34-18.21-.41-3.04-.97-6.04-1.83-8.99-.63-2.17-1.25-4.91-2.92-6.56-1.37-1.35-3.34-1.52-5.05-.74-1.96.9-3.12,2.79-3.51,4.86-.76,4.04.37,9.24,3.25,12.27.72.75,1.56,1.37,2.52,1.79.86.38,1.99.44,2.49,1.34.36.64.4,1.54.54,2.25.64,3.47,1.29,6.94,1.93,10.42.13.7,1.19.4,1.06-.29h0Z"/>
      </g>
      <g class="cls-2">
        <path class="cls-4" d="m2.49,39.27c-2.55,5.08-4.05,10.42.11,15.08,1.85,2.08,4,2.41,6.13,3.8,3,1.96,2.33,8.84,3.68,12.29.49,1.24,2.52.7,2.02-.56-1.38-3.51-.97-6.77-1.57-10.3-.21-1.22-.16-1.67-1.22-2.55-1.87-1.54-4.7-1.44-6.61-3.22-4.32-4.02-3.1-8.77-.74-13.49.6-1.2-1.21-2.27-1.81-1.06h0Z"/>
      </g>
      <g>
        <path class="cls-3" d="m58.91,80.71c-16.4-10.06-23.2-33.17-14.88-50.51,1.73-3.61,4.04-6.97,7.05-9.62,4.04-3.55,9.17-5.65,14.35-7.12,7.86-2.23,16.4-3.11,24.13-.48,11.82,4.02,19.92,16.19,20.55,28.66.62,12.47-5.56,24.74-14.98,32.94-1.91,1.66-4.07,3.36-4.65,5.82-.33,1.4-.1,2.86.14,4.28,2.55,15.07,5.67,30.05,9.36,44.89.22.88.42,1.89-.09,2.65-.42.62-1.2.87-1.92,1.06-10.48,2.86-21.47,3.83-32.29,2.86-.83-.07-1.71-.18-2.34-.72-.6-.51-.86-1.32-1.08-2.08-4-13.89-5.23-28.56-3.6-42.92-10.94,5.63-21.37,12.24-31.12,19.73-5.32-7.83-9.62-16.35-12.76-25.28-3.77.98-8.06-.64-10.25-3.86-2.19-3.22-2.12-7.81.17-10.95,1.7.47,3.14,1.8,3.75,3.45.73-2.22,1.47-4.44,2.2-6.66,1.12,1.7,2.24,3.4,3.36,5.1.95-1.39,1.91-2.79,2.86-4.18-.5,10.4,6.19,19.6,12.55,27.84.61.79,1.27,1.61,2.21,1.93,1.1.37,2.29-.03,3.37-.44,9.42-3.49,19.82-7.89,23.63-17.18"/>
        <path class="cls-5" d="m59.19,80.23c-14.73-9.14-21.64-28.75-16.47-45.21,1.5-4.77,4.01-9.37,7.55-12.92,3.91-3.93,9.05-6.24,14.29-7.82,10.48-3.15,22.36-3.85,31.7,2.74,7.57,5.35,12.46,14.34,13.24,23.54.87,10.32-3.14,20.64-9.72,28.5-1.58,1.89-3.32,3.64-5.17,5.25-1.68,1.46-3.5,2.93-4.36,5.05-1.01,2.49-.18,5.34.26,7.86.53,3.04,1.08,6.09,1.65,9.12,1.15,6.07,2.39,12.13,3.72,18.16.67,3.02,1.36,6.03,2.07,9.04.34,1.42.68,2.85,1.03,4.27.38,1.54,1.48,3.9-.51,4.72-1.28.52-2.75.77-4.09,1.08-1.53.35-3.08.67-4.63.95-2.97.53-5.98.91-8.99,1.13s-5.98.31-8.97.24c-1.42-.03-2.83-.1-4.25-.19s-3.53.08-4.35-1.39c-.63-1.13-.84-2.64-1.16-3.88-.4-1.52-.76-3.05-1.09-4.58-.65-3.02-1.17-6.07-1.56-9.14-.74-5.84-1.02-11.75-.82-17.63.1-2.9.32-5.8.64-8.69.05-.44-.5-.65-.83-.48-10.94,5.64-21.35,12.25-31.12,19.73l.75.2c-5.28-7.81-9.56-16.26-12.7-25.15-.1-.29-.37-.46-.68-.38-3.47.82-7.32-.48-9.46-3.38-2.3-3.12-2.17-7.49,0-10.62l-.62.25c1.55.48,2.76,1.56,3.36,3.07.2.49.88.55,1.06,0,.73-2.22,1.47-4.44,2.2-6.66l-1.01.13c1.12,1.7,2.24,3.4,3.36,5.1.24.36.71.35.95,0l2.86-4.18-1.03-.28c-.39,10.13,5.59,18.91,11.48,26.62,1.19,1.57,2.45,3.79,4.67,3.85s4.48-1.26,6.42-2.03c4-1.59,7.96-3.38,11.51-5.84,3.81-2.63,6.96-6.01,8.77-10.3.28-.65-.79-.94-1.06-.29-3.16,7.49-10.66,11.68-17.81,14.68-1.79.75-3.61,1.46-5.44,2.12-1.3.47-2.64.91-3.84-.03-.96-.76-1.66-1.91-2.4-2.88-2.73-3.59-5.38-7.27-7.47-11.26-2.38-4.54-3.92-9.47-3.72-14.64.02-.58-.74-.7-1.03-.28-.95,1.39-1.91,2.79-2.86,4.18h.95c-1.12-1.7-2.24-3.4-3.36-5.1-.27-.4-.86-.33-1.01.13-.73,2.22-1.47,4.44-2.2,6.66h1.06c-.76-1.88-2.19-3.23-4.13-3.84-.25-.08-.49.06-.62.25-2.42,3.49-2.49,8.41.08,11.85,2.42,3.25,6.72,4.69,10.63,3.77l-.68-.38c3.18,8.98,7.48,17.52,12.81,25.41.15.22.51.39.75.2,9.77-7.49,20.19-14.09,31.12-19.73l-.83-.48c-1.4,12.55-.66,25.3,2.2,37.6.36,1.53.74,3.05,1.17,4.56.3,1.07.54,2.3,1.36,3.11.67.67,1.58.86,2.49.96,1.68.19,3.38.27,5.07.33,6.19.23,12.39-.17,18.5-1.17,3.1-.51,6.21-1.13,9.23-2.01.98-.28,1.99-.66,2.43-1.65.49-1.09.06-2.36-.21-3.44-1.58-6.39-3.06-12.81-4.43-19.26s-2.6-12.75-3.75-19.15c-.29-1.6-.57-3.2-.84-4.81-.32-1.85-.79-3.84-.08-5.66.98-2.52,3.57-4.15,5.47-5.93,7.64-7.14,12.97-17,13.87-27.5.82-9.62-2.55-19.39-9.22-26.39-3.23-3.39-7.21-6.05-11.65-7.56-5.63-1.91-11.7-1.97-17.52-1.06s-11.48,2.54-16.52,5.33-8.52,6.57-11.16,11.35c-8.76,15.88-4.46,37.21,8.91,49.21,1.62,1.45,3.37,2.75,5.21,3.9.6.38,1.16-.58.56-.95h0Z"/>
      </g>
      <path class="cls-1" d="m133.78,112.26c0,3.62,0,7.24,0,10.86,2.13-.46,4.21-1.16,6.19-2.07-1.79-1.46-3.88-2.55-6.1-3.18.96-.79,2.35-.66,3.59-.74s2.72-.68,2.83-1.92c.11-1.26-1.31-2.12-2.57-2.25s-2.59.12-3.75-.39"/>
      <path class="cls-1" d="m144.64,114.54c-.16,1.38-.17,2.78-.02,4.16.09.84.32,1.8,1.07,2.18.79.4,1.79-.07,2.33-.77.74-.96.88-2.35.35-3.44-.53-1.09-1.72-1.83-2.93-1.83"/>
      <path class="cls-1" d="m151.6,114.32c0,1.2,0,2.41,0,3.61,0,.24,0,.5.11.72.13.27.41.44.69.53,1.51.51,3.2-1.06,3.04-2.64-.16-1.59-1.79-2.77-3.38-2.73"/>
      <g>
        <path class="cls-8" d="m71.44,67.22l.72,17.55c.01.31.04.66.27.88.51.48,1.3-.16,1.66-.76,2.1-3.55,2.69-7.94,1.74-11.95,2.37,9.2,4.22,18.53,5.55,27.94,1.08-12.05,1.44-24.17,1.06-36.26"/>
        <path class="cls-5" d="m70.89,67.22c.15,3.57.29,7.15.44,10.72l.22,5.36c.04.9-.21,2.57.9,2.98,2.09.78,3.33-3.57,3.7-4.85.81-2.83.84-5.8.2-8.66l-1.06.29c2.36,9.21,4.22,18.53,5.55,27.94.09.66,1.03.43,1.08-.15,1.07-12.06,1.43-24.16,1.06-36.26-.02-.71-1.12-.71-1.1,0,.37,12.1.01,24.21-1.06,36.26l1.08-.15c-1.34-9.41-3.19-18.74-5.55-27.94-.18-.69-1.22-.4-1.06.29.52,2.33.57,4.74.06,7.07-.26,1.16-.64,2.3-1.15,3.37-.15.3-.55,1.39-.89,1.48-.85.23-.64-1.52-.66-1.93-.22-5.28-.43-10.56-.65-15.84-.03-.71-1.13-.71-1.1,0h0Z"/>
      </g>
      <g>
        <path class="cls-9" d="m61.72,57.22c-1.19.86-1.73,2.78-.68,3.81"/>
        <path class="cls-5" d="m61.45,56.74c-.72.53-1.26,1.31-1.44,2.2s0,1.82.64,2.48c.5.51,1.28-.27.78-.78-.03-.03-.06-.06-.08-.09-.03-.03-.07-.08-.02-.02-.05-.06-.09-.13-.13-.2-.02-.04-.04-.08-.06-.13.03.07.01.03,0-.02-.02-.07-.05-.15-.06-.22,0-.04-.02-.08-.02-.12.02.08,0,.04,0-.02,0-.08-.01-.16,0-.24,0-.09,0-.18.02-.27-.01.12.02-.1.03-.14.04-.16.09-.32.15-.48-.03.07,0,0,.01-.03.02-.04.04-.08.06-.11.04-.08.08-.15.12-.22s.09-.14.14-.21c.09-.13-.07.07.04-.05.03-.03.05-.06.08-.09.06-.06.12-.12.18-.18.03-.03.06-.05.09-.08.09-.08-.06.04.04-.04.24-.18.36-.48.2-.75-.14-.24-.51-.38-.75-.2h0Z"/>
      </g>
      <g>
        <path class="cls-9" d="m60.08,56.89c.34,2.89.85,5.76,1.53,8.59.14.57.32,1.2.83,1.49.36.21.81.19,1.22.17,8.75-.47,17.5-.94,26.26-1.41.51-.03,1.07-.08,1.42-.45.34-.36.37-.91.38-1.41.11-5.38,1.26-10.03-5.29-10.13-6.2-.09-12.45.53-18.53,1.7-2.51.49-5.04,1.08-7.6,1"/>
        <path class="cls-5" d="m59.53,56.89c.18,1.49.4,2.98.66,4.46.29,1.61.46,3.44,1.09,4.96.37.89.99,1.35,1.96,1.39,1.69.07,3.44-.17,5.13-.26,6.85-.37,13.71-.73,20.56-1.1.91-.05,2.1.06,2.8-.66s.54-1.98.58-2.9c.07-1.83.27-3.72-.07-5.53-.88-4.6-5.98-4.13-9.62-4.02s-7.1.45-10.62.97c-3.87.57-7.75,1.76-11.69,1.7-.71-.01-.71,1.09,0,1.1,2.71.04,5.33-.56,7.98-1.06s5.56-.94,8.36-1.22,5.56-.42,8.35-.43c1.75,0,4.08-.15,5.35,1.32.94,1.09.97,2.72.97,4.08,0,.83-.05,1.65-.08,2.48-.02.46-.03.93-.05,1.39-.01.25.03.77-.05.93-.28.48-.95.68-1.46.71-5.7.33-11.39.61-17.09.92-1.57.08-3.14.17-4.71.25-.83.04-1.65.09-2.48.13-.64.03-1.53.24-2.16.11-1.48-.32-1.57-3.33-1.81-4.59-.32-1.7-.59-3.41-.8-5.12-.08-.7-1.19-.7-1.1,0h0Z"/>
      </g>
      <g>
        <path class="cls-10" d="m154.48,151.91c-22.56.86-69.67.16-69.67.16l-56.84.55s77.88-67.13,107.98-103.31c.56-.68,1.19-1.4,2.05-1.6.85-.2,1.73.17,2.53.53,17.69,7.94,35.37,15.87,53.06,23.81-9.89,24.65-21.18,48.73-33.82,72.09l-5.28,7.77Z"/>
        <path class="cls-5" d="m154.48,151.36c-12.37.46-24.75.45-37.13.42-10.02-.02-20.04-.1-30.05-.23-3.64-.05-7.28.01-10.92.05-9.46.09-18.91.18-28.37.27-4.29.04-8.59.08-12.88.12l-4.42.04c-.75,0-1.7-.14-2.43.02-.1.02-.22,0-.32,0l.39.94c3.78-3.26,7.53-6.55,11.27-9.85,9.17-8.08,18.27-16.23,27.29-24.46,11.28-10.28,22.45-20.69,33.41-31.31,10.25-9.94,20.39-20.04,29.92-30.68,1.99-2.22,3.94-4.47,5.86-6.75.95-1.14,1.79-2.07,3.44-1.53s3.21,1.42,4.77,2.12c2.72,1.22,5.44,2.44,8.16,3.66,10.88,4.88,21.77,9.77,32.65,14.65,2.72,1.22,5.44,2.44,8.16,3.66l-.25-.62c-5.2,12.94-10.78,25.73-16.74,38.34-2.96,6.25-6.01,12.46-9.15,18.63-1.55,3.05-3.13,6.08-4.72,9.1-1.11,2.1-2.1,4.35-3.43,6.31-1.67,2.45-3.33,4.9-5,7.35-.4.59.55,1.14.95.56,1.53-2.25,3.05-4.49,4.58-6.74,1.04-1.53,1.86-3.18,2.73-4.81,1.64-3.09,3.27-6.19,4.87-9.3,6.36-12.38,12.34-24.94,17.95-37.68,3.13-7.1,6.13-14.26,9.03-21.46.08-.2-.05-.53-.25-.62-11.11-4.99-22.22-9.97-33.33-14.96-5.52-2.48-11.04-4.95-16.55-7.43-1.86-.84-4.69-2.83-6.78-1.75-1.41.72-2.43,2.44-3.45,3.63-9.06,10.6-18.89,20.54-28.83,30.31-11.11,10.93-22.48,21.6-33.96,32.14-9.61,8.82-19.31,17.54-29.08,26.18-3.18,2.82-6.38,5.62-9.58,8.42-1.49,1.3-3.15,2.52-4.53,3.94-.06.06-.13.11-.2.17-.37.32-.07.95.39.94,5.51-.05,11.03-.11,16.54-.16,9.66-.09,19.32-.19,28.98-.28,4.1-.04,8.2-.15,12.3-.1,8.93.12,17.87.2,26.8.23,12.7.05,25.41.07,38.11-.29,1.26-.04,2.52-.08,3.78-.12.71-.03.71-1.13,0-1.1Z"/>
      </g>
      <g>
        <path class="cls-9" d="m132.76,87.65c-2.2.3-4.37.88-6.42,1.76-6.61,2.84-11.98,8.46-14.51,15.19-2.53,6.74-2.18,14.5.93,20.99,1.61,3.35,4.04,6.45,7.37,8.09,6.7,3.28,14.91-.08,22.09,2.08,4.23-1.03,8.27-2.83,11.58-5.64,8.99-7.6,10.65-22.28,3.95-31.96-5.43-7.85-15.59-11.77-25-10.5Z"/>
        <path class="cls-5" d="m132.61,87.12c-11.15,1.59-20.4,10.56-22.51,21.61-1.97,10.31,2.23,24.95,14.15,26.76,2.79.43,5.63.25,8.44.12,1.47-.06,2.95-.12,4.42-.07.85.03,1.7.09,2.55.21.79.12,1.65.5,2.43.53,1.11.05,2.47-.58,3.52-.95,1.36-.48,2.7-1.05,3.97-1.72,2.44-1.28,4.71-2.94,6.57-4.98,6.37-7,7.97-17.78,4.4-26.47-4.43-10.77-16.53-16.49-27.79-15.06-.69.09-.7,1.19,0,1.1,9.64-1.23,20.13,2.85,25.26,11.37,4.62,7.66,4.31,17.97-.5,25.47-2.85,4.44-7.28,7.49-12.21,9.23-1.19.42-2.48.98-3.74.74s-2.54-.46-3.84-.54c-2.73-.16-5.47.1-8.2.17s-5.53-.02-8.12-1-4.63-2.81-6.22-4.99c-3.26-4.49-4.69-10.28-4.47-15.78.5-12.3,9.97-22.93,22.18-24.68.7-.1.4-1.16-.29-1.06Z"/>
      </g>
      <g>
        <path class="cls-7" d="m136.7,100.04c1.11-.76,2.64-.84,3.82-.21s1.97,1.94,1.96,3.28c0,1.82-1.32,3.35-2.7,4.53,2,1.07,3.99,2.14,5.99,3.2.68.36,1.39.76,1.74,1.45.5.97.04,2.22-.78,2.94-.82.72-1.92,1.03-2.98,1.26,1.16,1.57,3.94.79,5.3,2.19,1.11,1.14.6,3.19-.64,4.19-1.23,1-2.91,1.23-4.49,1.38-4.71.43-9.45.47-14.18.5-1.17,0-2.37,0-3.44-.47-1.06-.48-1.94-1.58-1.76-2.74.18-1.21,1.4-2,2.59-2.29,1.19-.3,2.45-.27,3.6-.68-1.83.13-3.67.16-5.5.09-.66-.03-1.36-.07-1.92-.42-1.51-.92-1.12-3.41.27-4.49s3.29-1.17,5.05-1.25,3.68-.26,4.97-1.47c-2.1-.05-4.2-.1-6.3-.15-.28,0-.59-.03-.78-.23-.22-.23-.19-.59-.14-.91.28-1.96.58-3.98,1.65-5.65,1.07-1.66,3.13-2.86,5.03-2.29-2.73-.54-5.24-2.1-6.92-4.32,1.17-.71,2.59.28,3.73,1.03,1.94,1.29,4.26,2.01,6.59,2.05"/>
        <path class="cls-5" d="m136.97,100.52c1.85-1.12,4.3-.37,4.85,1.84.5,2-1.06,3.68-2.44,4.9-.26.23-.19.71.11.87,2,1.07,4.01,2.11,5.99,3.2,1.27.71,2.32,1.84,1.11,3.26-.74.86-1.94,1.13-3,1.37-.43.1-.5.62-.24.92.73.86,1.75,1.11,2.82,1.3,1.3.24,2.96.49,2.93,2.17-.05,3.91-6.77,3.5-9.34,3.62-3.68.18-7.44.36-11.13.2-.98-.04-2.07-.19-2.83-.88-.86-.79-.96-1.94-.09-2.75,1.31-1.22,3.54-.95,5.16-1.45.57-.18.5-1.13-.15-1.08-1.07.07-2.14.12-3.21.13s-2.31.12-3.34-.14c-2.27-.59-1.17-3.39.3-4.18,3-1.63,6.71-.03,9.5-2.4.38-.32.06-.93-.39-.94-1.54-.04-3.07-.07-4.61-.11-.47-.01-1.84.22-2.1-.3-.2-.39.26-1.81.35-2.28.54-2.67,2.32-6.25,5.66-5.45l.29-1.06c-2.69-.58-4.98-2.02-6.68-4.18l-.11.87c1.02-.48,2.05.3,2.85.82.75.48,1.48.93,2.3,1.28,1.56.67,3.2,1,4.89,1.06.71.02.71-1.08,0-1.1-2.36-.08-4.5-.79-6.48-2.08-1.29-.84-2.61-1.64-4.13-.93-.35.17-.31.61-.11.87,1.8,2.29,4.31,3.85,7.16,4.46.69.15.99-.9.29-1.06-3.97-.95-6.34,2.89-7.01,6.22-.21,1.04-1.01,3.28.41,3.84.9.35,2.18.14,3.12.16,1.29.03,2.59.06,3.88.09l-.39-.94c-3.06,2.6-9.51-.27-11.18,4.4-.49,1.37-.2,3.05,1.18,3.76.96.49,2.13.42,3.17.44,1.45.02,2.9-.03,4.35-.12l-.15-1.08c-2.17.67-7.1.57-6.58,4.19s5.17,3.09,7.69,3.06c4.14-.04,8.3-.1,12.42-.51,2.58-.26,5.89-1.13,6.08-4.26.08-1.32-.63-2.41-1.84-2.92-1.36-.57-3.2-.28-4.23-1.49l-.24.92c2.13-.48,5.37-2.12,4.14-4.87-.51-1.15-1.81-1.68-2.85-2.23-1.71-.92-3.42-1.83-5.13-2.75l.11.87c1.92-1.69,3.69-4.17,2.42-6.78-1.14-2.34-4-3-6.17-1.68-.61.37-.05,1.32.56.95h0Z"/>
      </g>
      <g class="cls-2">
        <path class="cls-4" d="m48.21,22.27c-7,9.7-7.76,21.9-5.53,33.35,1.88,9.65,5.66,20.85,15.71,24.54,1.27.47,1.82-1.56.56-2.02-9.7-3.55-12.97-15.42-14.53-24.62-1.77-10.47-.75-21.38,5.6-30.18.79-1.1-1.03-2.15-1.81-1.06h0Z"/>
      </g>
      <g class="cls-2">
        <path class="cls-4" d="m57.28,92.75c-1.06,10.39.07,20.59,3.38,30.5.43,1.28,2.45.73,2.02-.56-3.25-9.73-4.35-19.74-3.3-29.94.14-1.34-1.96-1.33-2.1,0h0Z"/>
      </g>
      <g class="cls-2">
        <path class="cls-4" d="m90.43,57.32c-.02,2.8-.87,5.32-2.51,7.58-.8,1.1,1.03,2.14,1.81,1.06,1.84-2.54,2.78-5.5,2.8-8.64,0-1.35-2.09-1.35-2.1,0h0Z"/>
      </g>
      <g class="cls-2">
        <path class="cls-4" d="m28.25,109.05c11.11-2.82,20.15-9.71,28.75-17.01,1.03-.88-.46-2.35-1.48-1.48-8.34,7.08-17.04,13.73-27.82,16.47-1.31.33-.75,2.36.56,2.02h0Z"/>
      </g>
      <g class="cls-2">
        <path class="cls-4" d="m2.18,78.12c2.2,2.19,4.54,4.06,7.29,5.52,1.53.81,3.14,1.19,4.27,2.6.83,1.04,1.35,3.19,1.91,4.43,2.98,6.55,6.88,12.55,11.43,18.11.86,1.05,2.33-.45,1.48-1.48-5.34-6.52-8.65-13.39-12.44-20.81-.94-1.84-1.28-2.43-2.96-3.41-3.48-2.02-6.55-3.52-9.49-6.44-.96-.95-2.45.53-1.48,1.48h0Z"/>
      </g>
      <g class="cls-2">
        <path class="cls-4" d="m128.69,100.51c-1.9,1.45-3.36,3.09-4.16,5.41-.68,1.98-.09,4.26-.85,5.98s-2.55,2.34-2.65,4.71c-.13,2.92,2.02,5.73,3.37,8.12.67,1.18,2.48.12,1.81-1.06-1.77-3.12-4.92-8.33-.32-10.54.42-.2.58-.76.48-1.19-.9-3.76.28-7.26,3.37-9.62,1.06-.81.01-2.63-1.06-1.81h0Z"/>
      </g>
      <g class="cls-2">
        <path class="cls-4" d="m121.65,89.99c-11.12,3.2-14.72,20.57-11.52,30.14,1.74,5.2,4.79,12.48,9.09,16,2.33,1.91,4.91,2,7.79,2.04,4.85.07,9.72-.12,14.57-.18,1.35-.02,1.35-2.12,0-2.1-5.21.06-10.99.82-16.16.18-4.63-.57-6.42-3.24-8.61-6.97-1.28-2.17-2.52-4.38-3.54-6.69-2.55-5.78-3.01-11.53-.93-17.54,1.77-5.1,4.18-11.22,9.86-12.85,1.3-.37.75-2.4-.56-2.02h0Z"/>
      </g>
      <g class="cls-2">
        <path class="cls-4" d="m134.38,48.53c-34.34,34.32-68.68,68.65-103.01,102.97-.96.96.53,2.44,1.48,1.48,34.34-34.32,68.68-68.65,103.01-102.97.96-.96-.53-2.44-1.48-1.48h0Z"/>
      </g>
      <path class="cls-5" d="m76.32,41.84v1.21c0,.14.06.29.16.39s.25.17.39.16.29-.05.39-.16.16-.24.16-.39v-1.21c0-.14-.06-.29-.16-.39s-.25-.17-.39-.16-.29.05-.39.16-.16.24-.16.39h0Z"/>
      <path class="cls-5" d="m78,41.59c-.01.16,0,.32.03.47.02.12.05.23.1.34.12.29.29.57.53.78.11.1.24.16.39.16.14,0,.3-.06.39-.16s.17-.24.16-.39-.05-.3-.16-.39c-.07-.06-.14-.13-.19-.2l.09.11c-.08-.1-.14-.21-.19-.32l.06.13c-.05-.12-.09-.25-.1-.38l.02.15c-.01-.1-.02-.2,0-.3.01-.13-.07-.3-.16-.39s-.25-.17-.39-.16-.29.05-.39.16-.15.24-.16.39h0Z"/>
      <path class="cls-5" d="m124.44,14.47c4.42-4.92,9.24-9.46,14.43-13.56.56-.44-.23-1.22-.78-.78-5.18,4.11-10.01,8.64-14.43,13.56-.47.53.3,1.31.78.78h0Z"/>
      <path class="cls-5" d="m129.87,34.31c4.55,1.92,8.98,4.1,13.29,6.52.62.35,1.18-.6.56-.95-4.31-2.42-8.74-4.59-13.29-6.52-.65-.27-1.21.68-.56.95h0Z"/>
      <path class="cls-5" d="m147.94,12.56c2.44-.26,4.88-.53,7.32-.79.3-.03.55-.23.55-.55,0-.27-.25-.58-.55-.55-2.44.26-4.88.53-7.32.79-.3.03-.55.23-.55.55,0,.27.25.58.55.55h0Z"/>
      <path class="cls-5" d="m147.97,17.81c3.63.36,7.31-.01,10.79-1.09.68-.21.39-1.27-.29-1.06-3.4,1.05-6.96,1.41-10.5,1.05-.71-.07-.7,1.03,0,1.1h0Z"/>
      <path class="cls-5" d="m151.37,6.08c-.18,2.99-.15,6,.12,8.98s.97,5.72,1.39,8.6c.2,1.34.14,3.17-1.17,3.98-1.57.98-3.38-1.25-1.51-1.99,1.1-.44,2.47-.1,3.59.06,1.57.23,3.15.45,4.72.68.69.1.99-.96.29-1.06-2.13-.31-4.27-.69-6.42-.91-1.12-.12-2.53-.1-3.43.69-2.15,1.91.81,4.79,3.05,3.64,3.37-1.73,1.67-6.37,1.18-9.16-.78-4.46-1.01-8.99-.73-13.5.04-.71-1.06-.71-1.1,0h0Z"/>
      <path class="cls-5" d="m165.9,14.48c3.55,0,7.1,0,10.65,0,.71,0,.71-1.1,0-1.1-3.55,0-7.1,0-10.65,0-.71,0-.71,1.1,0,1.1h0Z"/>
      <path class="cls-5" d="m172.07,10.01v7.61c0,1.19.12,2.45,0,3.64-.03.33-.24,1.43-.67,1.52-.34.08-.7-.68-.78-.91-.11-.3-.22-.6-.29-.91-.15-.7-.16-1.58.54-2,.83-.49,1.23.35,1.31,1.1.12,1.21.14,2.43.2,3.65.14,2.53.28,5.06.42,7.59.04.71,1.14.71,1.1,0-.11-2.05-.23-4.1-.34-6.15-.1-1.86,0-3.87-.35-5.7-.21-1.15-1.09-2.01-2.31-1.68-1.29.35-1.87,1.63-1.74,2.87.11,1.05.61,3.04,1.87,3.27,1.1.2,1.76-.92,2.01-1.83.21-.76.15-1.55.15-2.33v-3.17c0-2.18,0-4.37,0-6.55,0-.71-1.1-.71-1.1,0h0Z"/>
      <path class="cls-5" d="m179.91,7.2v3.92c0,.3.25.55.55.55s.55-.25.55-.55v-3.92c0-.3-.25-.55-.55-.55s-.55.25-.55.55h0Z"/>
      <path class="cls-5" d="m183.28,7.76v2.8c0,.29.25.56.55.55s.55-.24.55-.55v-2.8c0-.29-.25-.56-.55-.55s-.55.24-.55.55h0Z"/>
      <path class="cls-5" d="m185.88,26.87c.24-.15.47-.24.72-.28.23-.04.55-.02.77.03.58.13,1.01.39,1.41.85,0,0,.06.08.02.02.02.03.04.06.06.09.04.06.08.12.11.19.09.17.09.17.14.35.07.26.09.54.03.78-.13.58-.5,1.08-.98,1.4-.6.4-1.22.52-1.88.29-.28-.1-.6.11-.68.38-.08.31.1.58.38.68,1.69.6,3.63-.58,4.16-2.23s-.64-3.28-2.21-3.79c-.86-.28-1.84-.21-2.61.28-.6.38-.04,1.34.56.95h0Z"/>
      <g>
        <path class="cls-5" d="m61.82,34.27l-3.61.54c-.16.02-.33.05-.47-.03-.17-.09-.25-.29-.29-.48-.2-.97.32-2,1.11-2.6s1.81-.83,2.8-.87c.86-.03,1.84.14,2.29.87.4.65.17,1.56-.4,2.07s-1.4.65-2.15.52"/>
        <path class="cls-5" d="m61.64,33.59l-1.87.28-.9.14-.42.06c-.06,0-.38.01-.43.06.11-.12.15.25.14.11,0-.06-.04-.16-.04-.21-.02-.22,0-.42.07-.63.12-.41.38-.76.69-1.05.71-.63,1.78-.82,2.7-.82.39,0,.8.05,1.12.22.28.15.45.39.45.67,0,.34-.15.7-.47.93-.39.28-.92.35-1.39.28-.37-.06-.75.1-.86.49-.09.33.11.8.49.86,1.45.23,3.02-.29,3.52-1.79.22-.65.13-1.42-.27-1.98s-1-.87-1.65-.99c-1.35-.26-2.98-.02-4.13.76s-2.02,2.27-1.56,3.67c.14.43.46.77.91.85s1.03-.08,1.5-.15l2.77-.41c.37-.06.58-.53.49-.86-.11-.4-.49-.55-.86-.49h0Z"/>
      </g>
      <g>
        <path class="cls-6" d="m89.25,32.15c-.57.15-1.16.29-1.74.19s-1.15-.52-1.23-1.1c-.13-.91.89-1.53,1.75-1.86.7-.27,1.44-.52,2.18-.41s1.45.74,1.41,1.49c-.04.55-.47,1.01-.98,1.24s-1.07.26-1.62.29"/>
        <path class="cls-5" d="m89.07,31.48c-.43.11-.87.23-1.31.2-.32-.03-.52-.12-.71-.34.07.09-.08-.14-.05-.08.02.05-.04-.2-.03-.08,0-.04,0-.2-.01-.08,0-.04.08-.25.03-.14.01-.03.14-.22.07-.14.04-.05.09-.11.14-.15.15-.14.17-.16.35-.27.15-.09.3-.17.46-.25.01,0,.15-.07.09-.04-.06.02.05-.02.05-.02.11-.04.23-.09.34-.13.41-.15.84-.3,1.29-.31.18,0,.33.01.5.06.04.01.07.02.11.04-.03-.01-.07-.04.04.02.03.02.07.04.1.06.01,0,.13.09.07.04.07.05.13.12.19.18.05.06.01.02,0,0,.03.04.05.08.08.12.05.09.01,0,.04.1.03.14.01.06.01.03,0,.05,0,.1,0,.15,0-.1-.06.17-.03.09-.02.05-.05.09-.08.14-.05.07-.02.04-.06.08-.13.14-.23.22-.43.31-.41.18-.86.19-1.3.22-.38.02-.7.31-.7.7,0,.36.32.72.7.7,1.26-.08,2.68-.34,3.19-1.67.45-1.19-.47-2.35-1.58-2.68-.64-.19-1.35-.1-1.98.08-.56.16-1.12.37-1.63.66-.92.52-1.75,1.5-1.32,2.62.25.64.84,1.11,1.5,1.28.75.2,1.53.02,2.26-.16.87-.22.5-1.58-.37-1.35h0Z"/>
      </g>
      <path class="cls-5" d="m63.37,36.93c-.22-.73-.44-1.46-.66-2.19-.11-.35-.5-.61-.86-.49s-.6.49-.49.86c.22.73.44,1.46.66,2.19.11.35.5.61.86.49s.6-.49.49-.86h0Z"/>
      <path class="cls-5" d="m60.24,37.28v-1.88c0-.37-.32-.72-.7-.7s-.7.31-.7.7v1.88c0,.37.32.72.7.7s.7-.31.7-.7h0Z"/>
      <path class="cls-5" d="m92.38,34.29c-.3-.42-.57-.87-.79-1.34-.03-.06-.06-.12-.08-.18.06.19-.01-.03-.03-.07-.04-.11-.08-.22-.12-.33-.09-.25-.16-.51-.22-.77-.08-.36-.51-.6-.86-.49-.37.12-.58.48-.49.86.26,1.08.73,2.13,1.38,3.03.11.15.23.27.42.32.17.05.39.03.54-.07.29-.19.48-.64.25-.96h0Z"/>
      <path class="cls-5" d="m89.34,34.44c-.07-.19-.12-.38-.15-.58l.03.19c-.03-.24-.03-.49,0-.73l-.03.19c.03-.2.08-.39.15-.58.06-.16.01-.4-.07-.54s-.25-.28-.42-.32c-.18-.04-.38-.03-.54.07s-.26.24-.32.42c-.26.71-.26,1.56,0,2.27.06.17.16.32.32.42.15.09.37.13.54.07s.33-.16.42-.32.14-.37.07-.54h0Z"/>
    </g>
  </g>
</svg>