<svg xmlns="http://www.w3.org/2000/svg" viewBox="0 0 230.52 175.07"><defs><style>.cls-1{fill:#f4b58e;}.cls-2,.cls-6{fill:#fff;}.cls-3{fill:#231f20;}.cls-4{fill:#f9b19d;}.cls-4,.cls-6,.cls-7,.cls-8,.cls-9{stroke:#231f20;stroke-miterlimit:10;stroke-width:0.6px;}.cls-5{fill:#6d6e71;}.cls-7{fill:#f2cf9a;}.cls-8{fill:#9e684f;}.cls-9{fill:none;}.cls-10{opacity:0.14;}.cls-11{fill:#896b4a;}</style></defs><g id="Layer_2" data-name="Layer 2"><g id="Layer_1-2" data-name="Layer 1"><rect class="cls-1" x="1.75" y="1.75" width="227.02" height="171.57"/><path class="cls-2" d="M228.77,171.57H1.75l1.75,1.75V1.75L1.75,3.5h227L227,1.75V173.32a1.75,1.75,0,0,0,3.5,0V1.75A1.77,1.77,0,0,0,228.77,0H1.75A1.77,1.77,0,0,0,0,1.75V173.32a1.77,1.77,0,0,0,1.75,1.75h227A1.75,1.75,0,0,0,228.77,171.57Z"/><path class="cls-3" d="M28.3,35.63c0,.28,0,.65,0,.92a18.78,18.78,0,0,0,2.33-2.15h-7l-3,.06-.12-.14V32l.16-.11,3,.05h7.82l1.76-.08,1.23,1.65a.43.43,0,0,1,.08.24.49.49,0,0,1-.14.34A39.91,39.91,0,0,1,30.5,38c-.28.25-.37.25-.63.07L28.25,37c-.17,3.78-1.18,6.27-4.2,8.5a.49.49,0,0,1-.31.12.84.84,0,0,1-.39-.14L21,44.31c3.67-2.11,4.4-4.36,4.33-8.66l.13-.14h2.7Z"/><path class="cls-3" d="M38.56,34.49a34,34,0,0,1,3,1.72,31,31,0,0,0,2.16-4.93l.14-.06,2.59,1,.06.14a32.68,32.68,0,0,1-2.67,5.55,24.17,24.17,0,0,1,2.72,2.63l0,.2-1.93,2h-.16a30.93,30.93,0,0,0-2.3-2.41,21.22,21.22,0,0,1-5.89,5.23.42.42,0,0,1-.24.09.46.46,0,0,1-.32-.14l-2-1.49A18.69,18.69,0,0,0,40,38.53a28.18,28.18,0,0,0-3.31-2.07V36.3l1.65-1.77Z"/><path class="cls-3" d="M52.68,34.7l.09,5h-3l.08-5V31.66l.14-.12h2.5l.14.14Zm5.9,1.81c0,3-.26,4.3-1.27,5.88A9.06,9.06,0,0,1,53,45.71a1,1,0,0,1-.33.11c-.09,0-.18-.07-.35-.19l-2.11-1.57a8.27,8.27,0,0,0,4.53-3c.84-1.27.95-2.32.95-4.31V31.33l.14-.12h2.58l.14.14Z"/><path class="cls-3" d="M69.71,36.35a11.5,11.5,0,0,1-6.23,8.84.56.56,0,0,1-.21.09c-.09,0-.16-.06-.34-.18l-2-1.48a10.26,10.26,0,0,0,4.92-4.4,9.88,9.88,0,0,0,.93-2.87H65.18l-2.51.06-.12-.14V34l.16-.1,2.45,0h1.92c0-.79.07-1.67.07-2.67l.12-.14h2.64l.12.12c0,1,0,1.88-.07,2.69h2.93l2.16,0,.13.16a55.43,55.43,0,0,1-.76,7.55c-.54,2.32-1,3.37-4.23,3.37-.46,0-.48,0-.6-.31l-1-2.46c.69,0,1.32,0,2,0s.9-.12,1.23-1.53a27.43,27.43,0,0,0,.49-4.32Z"/><path class="cls-3" d="M78,36.88l-.58-2.32.07-.14c4.9-1.19,8.82-2,13.77-2.9l.16.09L91.88,34l-.13.16A8.61,8.61,0,0,0,87,35.47,6,6,0,0,0,84.48,40a2.23,2.23,0,0,0,1.7,2.37,14.69,14.69,0,0,0,4.2.39l.13.12-.15,2.67-.14.11a14.17,14.17,0,0,1-5.55-.81,4.57,4.57,0,0,1-2.82-4.6,6.68,6.68,0,0,1,2.35-4.95c-1.72.42-3.6.91-6.09,1.61Zm11.12,0,.91-.65.17,0A11.34,11.34,0,0,1,92,38.11l0,.18L91,39h-.17a11.58,11.58,0,0,0-1.74-1.9Zm1.65-1.11.89-.65.18,0A11.07,11.07,0,0,1,93.53,37l0,.18-.91.66h-.18A10.21,10.21,0,0,0,90.7,36Z"/><path class="cls-3" d="M94.4,33.31l-.12-.1v-1.9l.1-.1,2,.05h2.16l2.09-.05.11.09v1.93l-.11.08-1.93,0V35.9l.93,0-.3-.28a13,13,0,0,0,4.48-5.64l.19-.05,2.37.58.06.18c-.09.17-.18.35-.27.5a16.41,16.41,0,0,0,5,4.34l-1.44,1.88c-.18.25-.26.35-.37.35a.68.68,0,0,1-.3-.14A16.39,16.39,0,0,1,105,33.24,15.62,15.62,0,0,1,101.6,37a.78.78,0,0,1-.4.18.42.42,0,0,1-.3-.14l-.53-.51v1.31l-.1.09-1.53,0v3c.75-.22,1.44-.43,2-.62l0,1.07a15.72,15.72,0,0,0,6.3-3.44h.18l1.69,1.35v.21a22.17,22.17,0,0,1-6.26,3.59,1.6,1.6,0,0,1-.28.07c-.12,0-.21-.06-.33-.2l-1.3-1.39,0,.5c0,.31-.07.44-.37.54-1.21.46-3.74,1.23-5.46,1.7l-.16-.08-.7-2.06.08-.16c.71-.14,1.46-.31,2.22-.49V37.92l-1.74,0-.13-.1V36l.11-.11,1.76.06V33.28Zm16.46,8.87a19.39,19.39,0,0,1-10.43,4.41c-.27,0-.43,0-.57-.14l-1.28-1.82c4.53-.48,7.43-1.71,10.21-4H109l1.88,1.4ZM107,36.84a17.71,17.71,0,0,1-4.83,3.32.48.48,0,0,1-.25.07.34.34,0,0,1-.25-.15l-1.37-1.51a12.29,12.29,0,0,0,5-3.31h.17L107,36.63Z"/><path class="cls-3" d="M119.51,41a2.21,2.21,0,0,0,.09.91c.07.14.46.26,1.25.26a34.66,34.66,0,0,0,3.69-.17l.12.1.07,2.41-.11.12c-.72.07-2,.16-4.12.16-2,0-2.79-.25-3.39-1a3.28,3.28,0,0,1-.44-2.16v-2.3h-2.11l-2.21,0-.13-.14V37l.16-.1,2.2,0h2.09V34.72H116l-2.32.05-.12-.14V32.4l.16-.1,2.23.05h5.76l2.42-.05.14.12v2.21l-.12.14-2.39-.05h-2.2V37h4l2.39,0,.14.12v2.21l-.12.14-2.3,0h-4.15Z"/><path class="cls-3" d="M136.6,31.82l2.76,1,0,.17a21.54,21.54,0,0,1-9.2,12c-.2.11-.28.16-.39.16s-.17,0-.31-.16l-2.29-1.54a17.65,17.65,0,0,0,9.21-11.5Z"/><path class="cls-3" d="M141.25,39.71a20.73,20.73,0,0,0,4.38-4.48c-.85.07-1.72.09-2.55.09l-.11-.11-.07-2.16L143,33c1.31,0,2.61,0,3.91-.13a18.38,18.38,0,0,0,.83-2.35l.14-.09,2.41.35.1.13c-.21.61-.42,1.14-.61,1.65.87-.14,1.75-.3,2.63-.51l.16.09.17,2.07-.1.16c-1.28.26-2.72.49-4.18.66-.28.42-.67,1-1,1.39a5.1,5.1,0,0,1,1.65-.23,2.15,2.15,0,0,1,2.14,1.69c1.11-.42,2.36-.86,3.73-1.32l.17.07,1.09,2.16-.09.16c-1.77.46-3.28.91-4.58,1.39,0,.68,0,1.54.07,2.39l-.12.1-2.32.09-.14-.11V41.32c-1.07.51-1.67,1-1.67,1.6s.7.76,2.27.77a32.23,32.23,0,0,0,4.58-.36l.18.1.15,2.34-.1.14c-1.67.14-3.15.23-5.2.23-3.55,0-4.48-1.5-4.48-3,0-1.68,1.42-2.86,3.06-3.79.31-.18.66-.35,1-.53a.78.78,0,0,0-.88-.67,3.35,3.35,0,0,0-2,.62A26.74,26.74,0,0,0,143,41.6l-.17,0-1.55-1.72Z"/><path class="cls-3" d="M170.9,37v2.25l0,1.52a.62.62,0,0,0,.14-.14h.16L172.88,42l0,.18a19.93,19.93,0,0,1-2.77,1.69,16.57,16.57,0,0,0,4.07.8l-1.33,2c-.09.13-.28.11-.4.09A12.77,12.77,0,0,1,167.68,45a8.55,8.55,0,0,1-1.59-1.37l-.15,1.44a.32.32,0,0,1-.29.34c-2.09.42-4.66.87-7.4,1.28l-.16-.06-.75-2,.12-.16c.95-.09,1.85-.18,2.69-.28l0-7.18,0-1.11-.95.42a1.06,1.06,0,0,1-.28.09.22.22,0,0,1-.19-.12l-1.56-1.87a17.32,17.32,0,0,0,7.65-4.56l.2-.05,2.24.54.06.17a2.2,2.2,0,0,1-.2.23A18.69,18.69,0,0,0,174.2,34L173,36.11c-.09.14-.12.21-.21.21a.67.67,0,0,1-.19,0c-.55-.2-1.07-.43-1.62-.67Zm-6.43-3.39.12-.14h2.14l.13.12v1.37h1.4l1.29,0a24.07,24.07,0,0,1-3.92-2.61A19.83,19.83,0,0,1,162,34.91l.76,0h1.72Zm-1.88,3v.85h5.88v-.85Zm0,2.39v.92h5.88V39Zm0,2.57v2.33c1.07-.16,2.14-.33,3.21-.52a10.87,10.87,0,0,1-1.19-1.81Zm4.41,0a9,9,0,0,0,1.25,1.3,13.54,13.54,0,0,0,1.8-1.27l-1.79,0Z"/><path class="cls-3" d="M176.06,38.41l-.67-2.3.09-.16c1.21-.28,2.53-.7,3.62-1a10,10,0,0,1,2.39-.49c2.24,0,3.7,1.63,3.7,4.93,0,4.23-2.25,6.06-5.93,7a.29.29,0,0,1-.3-.14l-1.67-2c3.51-.74,5-2.11,5-4.46,0-2-.37-2.69-1.1-2.69a7,7,0,0,0-1.8.44c-.93.28-2,.63-3.19.95Zm1.67-6.08.65-2.19.16-.06a24.83,24.83,0,0,0,5.26.85l.11.12-.4,2.41-.14.08a36.74,36.74,0,0,1-5.57-1.07Z"/><path class="cls-3" d="M192.55,44.15a2.5,2.5,0,1,1-2.5-2.48A2.45,2.45,0,0,1,192.55,44.15Zm-4,0a1.46,1.46,0,1,0,1.45-1.46A1.43,1.43,0,0,0,188.6,44.15Z"/><path class="cls-4" d="M40.09,132.32c-8.52-5.23-12.06-17.24-7.74-26.25a15.53,15.53,0,0,1,3.67-5,18.85,18.85,0,0,1,7.45-3.7C47.56,96.21,52,95.75,56,97.12c6.14,2.09,10.35,8.41,10.68,14.9s-2.89,12.86-7.79,17.11c-1,.87-2.11,1.75-2.42,3a5.56,5.56,0,0,0,.08,2.22q2,11.76,4.86,23.33a1.69,1.69,0,0,1,0,1.38,1.66,1.66,0,0,1-1,.55,48,48,0,0,1-16.78,1.49,1.62,1.62,0,0,1-1.78-1.46A57.7,57.7,0,0,1,40,137.37a106.84,106.84,0,0,0-16.17,10.25,56.89,56.89,0,0,1-6.63-13.14,4.94,4.94,0,0,1-5.24-7.69,2.92,2.92,0,0,1,1.94,1.79L15,125.12l1.75,2.65,1.48-2.17c-.25,5.4,3.22,10.18,6.53,14.47a2.58,2.58,0,0,0,1.15,1,2.68,2.68,0,0,0,1.75-.22c4.89-1.82,10.3-4.11,12.28-8.94"/><path class="cls-5" d="M15.53,125.54l-1.1-5.9a1.78,1.78,0,0,0-.44-1,2.27,2.27,0,0,0-.91-.4c-2-.66-2.93-2.94-3.16-5a5.26,5.26,0,0,1,.54-3.39,2.42,2.42,0,0,1,3-1,3.5,3.5,0,0,1,1.39,2A28.41,28.41,0,0,1,16,115.15c.19,1,.32,2,.45,3l1.05,8.25"/><path class="cls-3" d="M15.77,125.48c-.34-1.85-.68-3.71-1-5.56a2.49,2.49,0,0,0-.56-1.47c-.42-.38-1.07-.42-1.56-.69a5.31,5.31,0,0,1-2.24-3.44c-.36-1.46-.55-3.4.41-4.66a2,2,0,0,1,2.7-.64,3.62,3.62,0,0,1,1.13,1.82,28.21,28.21,0,0,1,1.28,5c.57,3.52.93,7.08,1.38,10.61,0,.23.51.11.48-.13-.42-3.31-.8-6.63-1.28-9.93a30,30,0,0,0-1-4.49A6.18,6.18,0,0,0,14,108.82c-1.61-1.3-3.68.24-4.15,1.9a7.48,7.48,0,0,0,1.51,6.56,4,4,0,0,0,1.29.94,4.39,4.39,0,0,1,1.06.47,1.68,1.68,0,0,1,.56,1.19c.36,1.9.7,3.82,1.06,5.73,0,.22.52.1.48-.13Z"/><path class="cls-6" d="M40.69,119.94a39.85,39.85,0,0,0,.8,4.47,1.11,1.11,0,0,0,.43.77,1.13,1.13,0,0,0,.63.09l13.65-.73a.8.8,0,0,0,.94-1l.07-3.42a1.33,1.33,0,0,0-.17-.84,1.36,1.36,0,0,0-1.2-.34l-12.1.6a4,4,0,0,0-2.19.54,1.38,1.38,0,0,0-.36,2"/><path class="cls-6" d="M56.43,106.88v1.74c0,.19,0,.42.18.52a.62.62,0,0,0,.33,0l3.23-.21,0-1.81a.32.32,0,0,0-.06-.22.32.32,0,0,0-.24-.06l-3.46.15"/><path class="cls-4" d="M57.47,109.38a6.53,6.53,0,0,1-.3,2.41"/><path class="cls-4" d="M58.5,109.18l.22,3.23"/><path class="cls-4" d="M59.45,109.18a2.66,2.66,0,0,0,.19,1.15"/><path class="cls-6" d="M40.77,107.36a14.54,14.54,0,0,0,.24,2.46.3.3,0,0,0,.08.16.23.23,0,0,0,.16,0l2.42-.16c.06,0,.13,0,.17-.06a.26.26,0,0,0,.06-.19V108a.32.32,0,0,0-.39-.4,20.35,20.35,0,0,0-2.81.23"/><path class="cls-4" d="M41.4,110.11l-.88,1"/><path class="cls-4" d="M42.12,110.29v1.43"/><path class="cls-4" d="M43.18,110v1.6"/><path class="cls-4" d="M43.77,110a8.17,8.17,0,0,0,.85,1.76"/><path class="cls-4" d="M48.81,109.94c-.24,1.21.27,2.42.45,3.64a7.85,7.85,0,0,1,.09,1.19,1.5,1.5,0,0,1-.12.7.59.59,0,0,1-.58.35c-.28,0-.44-.33-.54-.59a6,6,0,0,1-.41-1.82"/><path class="cls-5" d="M46.6,125.31l.37,9.12a.68.68,0,0,0,.14.46c.27.25.68-.09.86-.4a8.52,8.52,0,0,0,.91-6.21,132.65,132.65,0,0,1,2.88,14.52A156.07,156.07,0,0,0,52.31,124"/><path class="cls-3" d="M46.36,125.38l.24,5.83c0,1,.07,1.95.12,2.92,0,.42,0,.93.5,1,1,.1,1.46-1.5,1.69-2.18a8.9,8.9,0,0,0,.21-4.72l-.49.13a135.57,135.57,0,0,1,2.89,14.52c0,.17.47.06.48-.09a158.64,158.64,0,0,0,.55-18.88c0-.16-.49-.07-.48.13a159.66,159.66,0,0,1-.55,18.81l.48-.1a135.53,135.53,0,0,0-2.88-14.52c0-.17-.53-.05-.49.13a8.67,8.67,0,0,1,0,3.76,8.33,8.33,0,0,1-.63,1.84c-.09.17-.42,1-.8.67a3.93,3.93,0,0,1-.06-1l-.34-8.39c0-.17-.49-.07-.48.13Z"/><path class="cls-7" d="M89.76,169.33c-11.73.44-36.21.08-36.21.08L24,169.7S64.48,134.81,80.12,116a2.22,2.22,0,0,1,1.07-.83,2.12,2.12,0,0,1,1.31.28l27.58,12.37a363.9,363.9,0,0,1-17.57,37.47Z"/><path class="cls-6" d="M82,160.63c-3.36-.44-7,.71-10.06-.78a8.7,8.7,0,0,1-3.83-4.2,13.91,13.91,0,0,1,7-18.81,13.82,13.82,0,0,1,16.33,4.55c3.48,5,2.62,12.66-2,16.61a15.73,15.73,0,0,1-8,3.32"/><path class="cls-8" d="M80.52,142.37a1.92,1.92,0,0,1,3,1.6,3.35,3.35,0,0,1-1.4,2.35L85.23,148a2,2,0,0,1,.91.75,1.33,1.33,0,0,1-.41,1.52,3.27,3.27,0,0,1-1.55.66c.61.82,2,.41,2.76,1.13a1.56,1.56,0,0,1-.33,2.18,4.28,4.28,0,0,1-2.34.72c-2.45.22-4.91.24-7.37.26a4.33,4.33,0,0,1-1.79-.25,1.44,1.44,0,0,1-.91-1.42,1.65,1.65,0,0,1,1.34-1.19c.62-.16,1.28-.14,1.88-.36a24.86,24.86,0,0,1-2.86,0,2,2,0,0,1-1-.21c-.79-.48-.59-1.78.14-2.34a4.51,4.51,0,0,1,2.62-.65,4,4,0,0,0,2.58-.76L75.63,148a.53.53,0,0,1-.41-.12.58.58,0,0,1-.07-.47,7,7,0,0,1,.86-2.93,2.46,2.46,0,0,1,2.61-1.2A6,6,0,0,1,75,141c.61-.37,1.35.14,1.94.54a6.44,6.44,0,0,0,3.43,1.06"/><path class="cls-9" d="M70.52,92.4q12-9.75,23.48-20.08"/><path class="cls-9" d="M77.45,111.05q24.81,1.9,49.47,5.48"/><path class="cls-9" d="M83.13,93.13h5.2"/><path class="cls-9" d="M82.64,96.84h8.41"/><path class="cls-9" d="M85.94,89.42a15.33,15.33,0,0,0,1.28,8.73,9,9,0,0,1,1.19,3.34c0,1.2-.86,2.52-2,2.41A1.6,1.6,0,0,1,85,102.59a1.69,1.69,0,0,1,.86-1.73c1.84-1,4,1.76,5.94,1.11"/><path class="cls-9" d="M97.24,91.37a58.15,58.15,0,0,0,7.92-.14"/><path class="cls-9" d="M102.14,88.67l.16,9.58a1.73,1.73,0,0,1-.06.6c-.25.69-1.32.7-1.84.18a3.23,3.23,0,0,1-.7-2,3.07,3.07,0,0,1,.21-1.78,1.1,1.1,0,0,1,1.54-.46,1.6,1.6,0,0,1,.43,1.09,83.6,83.6,0,0,1,.6,8.67"/><path class="cls-9" d="M107.88,86.69v3.72"/><path class="cls-9" d="M110.85,86.94v3.71"/><path class="cls-9" d="M108.23,101a5.88,5.88,0,0,1,2.42-.54,2,2,0,0,1,1.86,1.4,1.51,1.51,0,0,1-1.14,1.71"/><g class="cls-10"><path class="cls-11" d="M33.29,103.18c-5.76,8.37-5.1,26.39,5.59,30.83,1.25.51,1.79-1.52.56-2-9.41-3.91-9.14-20.75-4.34-27.74.77-1.12-1.05-2.17-1.81-1.06Z"/></g><g class="cls-10"><path class="cls-11" d="M38.74,138.58a38.2,38.2,0,0,0,1.77,16c.42,1.27,2.45.73,2-.56a36.71,36.71,0,0,1-1.7-15.43c.13-1.34-2-1.33-2.1,0Z"/></g><g class="cls-10"><path class="cls-11" d="M55.51,119.71a6.18,6.18,0,0,1-1.24,3.68c-.8,1.1,1,2.15,1.81,1.06a8.05,8.05,0,0,0,1.53-4.74,1.05,1.05,0,0,0-2.1,0Z"/></g><g class="cls-10"><path class="cls-11" d="M24.28,147.54c5.87-1.5,10.62-5.12,15.17-9,1-.87-.46-2.35-1.49-1.48-4.27,3.62-8.72,7-14.24,8.42a1.05,1.05,0,0,0,.56,2Z"/></g><g class="cls-10"><path class="cls-11" d="M9.39,108.48c-1.42,2.86-2.19,5.82.14,8.45.93,1,2.56,1.24,3.41,2.1,1.11,1.13.93,4.39,1.56,6,.48,1.25,2.51.7,2-.56-.68-1.75-.52-3.42-.8-5.22a2.09,2.09,0,0,0-.68-1.59A4.6,4.6,0,0,0,13.5,117c-3.62-1.51-3.9-4.24-2.29-7.47.6-1.21-1.21-2.27-1.82-1.06Z"/></g><g class="cls-10"><path class="cls-11" d="M10.24,131.33A17.13,17.13,0,0,0,14,134.18a7.29,7.29,0,0,1,2.22,1.27c.12.16,1,2.24,1.12,2.58a44,44,0,0,0,5.89,9.24c.86,1,2.34-.45,1.49-1.49-2.72-3.33-4.42-6.86-6.36-10.65-1.32-2.56-4.52-3.26-6.58-5.28-1-.95-2.45.53-1.49,1.48Z"/></g><g class="cls-10"><path class="cls-11" d="M76.1,142.18a6.33,6.33,0,0,0-2.48,6.8l.48-1.18c-3.55,1.7-1.85,5.11-.41,7.66a1.05,1.05,0,0,0,1.82-1.06c-.79-1.39-2.44-3.78-.35-4.79a1.06,1.06,0,0,0,.48-1.18A4.17,4.17,0,0,1,77.16,144c1.06-.81,0-2.63-1.06-1.81Z"/></g><g class="cls-10"><path class="cls-11" d="M71.79,137.24c-5.7,2.1-8.08,10.21-6.54,15.68.85,3,2.58,7,5,9,3.07,2.53,8.36,1.3,12.05,1.25a1.05,1.05,0,0,0,0-2.1c-5.85.07-10.69.51-13.66-5.48-2.32-4.67-2.67-14,3.72-16.33,1.25-.47.71-2.5-.56-2Z"/></g><g class="cls-10"><path class="cls-11" d="M78.27,115.34,24.73,168.86a1.05,1.05,0,0,0,1.49,1.48l53.54-53.52c1-.95-.53-2.44-1.49-1.48Z"/></g></g></g></svg>