<svg xmlns="http://www.w3.org/2000/svg" viewBox="0 0 230.52 174.88"><defs><style>.cls-1{fill:#f7be68;}.cls-2{fill:#fff;}.cls-3{fill:#231f20;}.cls-4{fill:none;}.cls-4,.cls-5,.cls-6{stroke:#231f20;stroke-miterlimit:10;stroke-width:0.6px;}.cls-5{fill:#f9b19d;}.cls-6{fill:#c6c193;}.cls-7{fill:#b3b5b8;}.cls-8{opacity:0.14;}.cls-9{fill:#896b4a;}</style></defs><g id="Layer_2" data-name="Layer 2"><g id="Layer_1-2" data-name="Layer 1"><rect class="cls-1" x="1.75" y="1.75" width="227.02" height="171.38"/><path class="cls-2" d="M228.77,171.38H1.75l1.75,1.75V1.75L1.75,3.5h227L227,1.75V173.13a1.75,1.75,0,0,0,3.5,0V1.75A1.77,1.77,0,0,0,228.77,0H1.75A1.77,1.77,0,0,0,0,1.75V173.13a1.77,1.77,0,0,0,1.75,1.75h227A1.75,1.75,0,0,0,228.77,171.38Z"/><path class="cls-3" d="M26.54,36.89c0,.27,0,.61,0,.86a17.51,17.51,0,0,0,2.21-2h-6.6l-2.88.05-.12-.13V33.46l.15-.1,2.81,0h7.41l1.66-.08,1.16,1.56a.48.48,0,0,1,.09.24.45.45,0,0,1-.14.31,36.94,36.94,0,0,1-3.66,3.73c-.26.23-.35.23-.6.06l-1.53-1c-.16,3.58-1.11,5.94-4,8a.47.47,0,0,1-.3.12.86.86,0,0,1-.37-.13l-2.21-1.13c3.48-2,4.18-4.13,4.11-8.2l.12-.14h2.56Z"/><path class="cls-3" d="M36.26,35.81a27.25,27.25,0,0,1,2.83,1.63,28.69,28.69,0,0,0,2-4.68l.14,0,2.46.94.05.13A30.66,30.66,0,0,1,41.25,39a21.79,21.79,0,0,1,2.58,2.5v.18L42,43.56h-.15a29.51,29.51,0,0,0-2.18-2.28,20.46,20.46,0,0,1-5.57,5,.52.52,0,0,1-.24.08.47.47,0,0,1-.3-.13l-1.91-1.42a17.46,17.46,0,0,0,6-5.14,25.51,25.51,0,0,0-3.15-2v-.15l1.57-1.68Z"/><path class="cls-3" d="M49.64,36l.08,4.74h-2.8L47,36V33.13l.13-.12H49.5l.14.14Zm5.58,1.71c0,2.84-.25,4.08-1.19,5.57A8.74,8.74,0,0,1,50,46.44a.93.93,0,0,1-.32.1c-.08,0-.16-.07-.33-.19l-2-1.48A7.89,7.89,0,0,0,51.62,42c.79-1.19.89-2.19.89-4.07V32.81l.14-.11h2.44l.13.13Z"/><path class="cls-3" d="M65.77,37.57a10.93,10.93,0,0,1-1.16,3.71,11.14,11.14,0,0,1-4.74,4.66.48.48,0,0,1-.2.08c-.08,0-.15-.05-.32-.17l-1.88-1.39a9.69,9.69,0,0,0,4.66-4.18A8.9,8.9,0,0,0,63,37.57H61.48l-2.38,0L59,37.49V35.31l.15-.1,2.32,0h1.82c0-.75.06-1.58.06-2.53l.12-.13H66l.11.11c0,.94,0,1.78-.06,2.55h2.77l2,0,.11.15a49.37,49.37,0,0,1-.71,7.15c-.52,2.2-1,3.19-4,3.19-.43,0-.45,0-.56-.3l-1-2.32c.65,0,1.25.05,1.85,0s.85-.12,1.16-1.45a26.17,26.17,0,0,0,.47-4.09Z"/><path class="cls-3" d="M73.58,38.07,73,35.87l.06-.13c4.64-1.13,8.35-1.89,13-2.74l.15.08.48,2.21-.11.15a8.21,8.21,0,0,0-4.48,1.3,5.71,5.71,0,0,0-2.41,4.32,2.12,2.12,0,0,0,1.62,2.25,14,14,0,0,0,4,.36l.12.12-.14,2.53-.13.1A13.11,13.11,0,0,1,80,45.65a4.31,4.31,0,0,1-2.68-4.35,6.32,6.32,0,0,1,2.23-4.69c-1.63.4-3.41.86-5.78,1.53Zm10.52,0,.87-.61.16,0a10.91,10.91,0,0,1,1.7,1.76l0,.17-.91.65h-.17a10.72,10.72,0,0,0-1.64-1.8Zm1.57-1,.84-.62.17,0a10,10,0,0,1,1.65,1.72l0,.16-.86.63h-.17a9.81,9.81,0,0,0-1.63-1.72Z"/><path class="cls-3" d="M95.4,35a21.91,21.91,0,0,1-1,7.55,14.66,14.66,0,0,1,1.43,1.27l0,.16-1.36,1.57-.17,0a13.17,13.17,0,0,0-1-1,9.7,9.7,0,0,1-2.76,2.41.43.43,0,0,1-.21.08.29.29,0,0,1-.22-.13L89,45.39a7.22,7.22,0,0,0,2.72-2.25L91,42.69l-.17.55-.17.07L89,42.68,89,42.53a57.58,57.58,0,0,0,1.28-5.64l-1.1,0L89,36.81V35l.12-.11,1.41,0c.15-1,.29-2.13.42-3.26l.12-.12,1.94.29.12.11-.45,3h.6l2,0Zm-3,1.88c-.25,1.3-.5,2.58-.84,3.86.36.17.73.37,1.08.57a17.31,17.31,0,0,0,.69-4.43Zm10.2-2,2.19,0,.1.08v1.9l-.1.08-2.19-.05h-1.38v3h.73l2,0,.11.12,0,1.79v1.87l.09,3.57h-2.4v-.91H98.43v1H96.1l.08-3.74v-1.8l-.05-1.79.1-.12,2.06,0h.57v-3H98l-2.18.05-.12-.1V34.88l.1-.1,2.2,0h.88V31.67l.12-.14h2.09l.12.12v3.18Zm-.85,9.51V41.65H98.43v2.69Z"/><path class="cls-3" d="M109.28,43l.06.18a15.61,15.61,0,0,1-1.54,3.49l-.17,0-2-.9,0-.16a15.85,15.85,0,0,0,1.56-3.25l.15-.08Zm2.27-9.87a14.77,14.77,0,0,0,.7-1.64l.13-.1,2.4.4.1.15c-.18.35-.45.78-.7,1.19h2.26l2.48,0,.12.12L119,35.41v3.36l.05,2.79-.12.12-2.48,0h-2a7.27,7.27,0,0,1,1.35,1.45l0,.16L114,44.37l-.15,0a8.47,8.47,0,0,0-1.48-1.91l0-.17,1-.61h-3l-2.48,0-.11-.12,0-2.79V35.41l0-2.18.11-.12,2.48,0Zm6.57,11.05a8,8,0,0,0-.81-1l0-.17,1.65-.95.18,0A13.48,13.48,0,0,1,121.53,45l0,.17-1.88,1.21-.16-.05a16.36,16.36,0,0,0-1.23-2,.48.48,0,0,1,0,.17,2.91,2.91,0,0,1-.79,1.88c-.56.5-1.21.71-4.49.71-2.74,0-3.22-.28-3.22-1.49l0-1.38V42.46l.12-.13H112l.14.15v2c0,.4,0,.44,1,.44,1.6,0,2,0,2.38-.3s.33-.54.42-1.35Zm-1.49-8.63v-.75h-6.47v.75Zm0,2.17V37h-6.47v.74ZM110.16,40h6.47v-.79h-6.47Z"/><path class="cls-3" d="M124.73,33l2.3.32.1.13a15.51,15.51,0,0,1-.77,3.61,15.35,15.35,0,0,0-.61,3.86,8.38,8.38,0,0,0,.09,1.68c0,.21.22.23.47,0a12.61,12.61,0,0,0,.85-1.08l.48.25a11.29,11.29,0,0,0-.78,3.51,1.1,1.1,0,0,1-1.15,1.23c-.66,0-1.06-.35-1.45-1a8.89,8.89,0,0,1-.83-4.35,22.91,22.91,0,0,1,.74-5.06,14.89,14.89,0,0,0,.43-3Zm12,12.31a27,27,0,0,1-3.91.26c-3.35,0-4.23-1.68-4.63-3.52l.09-.15,1.78-.82.15,0c.31,1.57,1,2.07,3.19,2a19.8,19.8,0,0,0,3.11-.35l.15.1.15,2.23ZM129.5,34.66l1.6,0a26.22,26.22,0,0,0,4.69-.4l.12.1.1,2.1-.1.13a24.35,24.35,0,0,1-4.81.42c-.53,0-1,0-1.58,0l-.12-.15V34.79Z"/><path class="cls-3" d="M19.06,63.87v-2.2l.15-.09,2.16,0h3.18v-4.2H23.12l-2.48,0-.12-.14V55.16l.15-.1,2.46,0H29l2.11,0,.15.1v2.17l-.12.14-2.06,0H27.29v4.2H30.4l2.31,0,.15.09v2.2l-.11.13-2.28,0H21.4l-2.22,0Z"/><path class="cls-3" d="M34.45,56l1.61-1.82.17,0a17.13,17.13,0,0,1,3.37,2.3v.16l-1.73,2h-.15a19,19,0,0,0-3.26-2.49Zm12.89,1.38a.83.83,0,0,1,.06.31.39.39,0,0,1-.16.3,32.58,32.58,0,0,1-11,7.69l-.17,0-1.5-2.24,0-.17a30.19,30.19,0,0,0,11.77-8.46Z"/><path class="cls-3" d="M48.9,59.3l.9-2.07.15-.06a13.51,13.51,0,0,0,3.41,1.11l.08.14-.68,2.21-.15.08A11.3,11.3,0,0,1,49,59.45Zm13.59-1.12a.82.82,0,0,1,0,.27c0,.12,0,.2-.18.35a28.25,28.25,0,0,1-10.94,7.07l-.19,0-1.41-2.24,0-.18a25.44,25.44,0,0,0,11.87-7.89Zm-11.87-3L52,53.43l.2,0a15.31,15.31,0,0,1,3.18,1.78l0,.19L54,57.25l-.18,0a14.2,14.2,0,0,0-3.16-1.89Zm8.05-1.63.86-.61.17,0a10.85,10.85,0,0,1,1.69,1.76v.17l-.92.65H60.3a10.78,10.78,0,0,0-1.65-1.8Zm1.56-1.05.85-.61.16,0a10.29,10.29,0,0,1,1.65,1.71l0,.17-.86.63h-.17a9.85,9.85,0,0,0-1.63-1.73Z"/><path class="cls-3" d="M75.05,64H66.64l-2.48,0L64,63.89V61.54l.15-.1,2.38.05H75l2.56-.05.13.12v2.33l-.11.13Zm-1.53-6.44H68.38l-2.39,0-.12-.13V55.12L66,55l2.36,0h5.08l2.23,0,.13.12v2.31l-.12.13Z"/><path class="cls-3" d="M86.82,56.85c0,.27,0,.62,0,.87a17.57,17.57,0,0,0,2.21-2h-6.6l-2.88.05-.11-.14V53.43l.14-.1,2.82.05h7.4l1.66-.09,1.16,1.57a.44.44,0,0,1,.09.23.49.49,0,0,1-.14.32,37.84,37.84,0,0,1-3.65,3.72c-.27.23-.35.23-.6.07l-1.53-1c-.17,3.57-1.12,5.93-4,8a.51.51,0,0,1-.3.11.83.83,0,0,1-.36-.13l-2.22-1.13c3.48-2,4.18-4.13,4.11-8.2l.12-.13H86.7Z"/><path class="cls-3" d="M21.11,72.91l2.29.31.1.13A15.71,15.71,0,0,1,22.74,77a15,15,0,0,0-.62,3.86,8.1,8.1,0,0,0,.1,1.68c.05.22.22.24.47,0a13.11,13.11,0,0,0,.84-1.09l.49.25a11.77,11.77,0,0,0-.79,3.51,1.09,1.09,0,0,1-1.14,1.23c-.67,0-1.07-.35-1.45-1A8.82,8.82,0,0,1,19.81,81a23.41,23.41,0,0,1,.73-5A13.56,13.56,0,0,0,21,73Zm12,12.3a25.39,25.39,0,0,1-3.91.27C25.88,85.48,25,83.8,24.6,82l.08-.15L26.46,81l.15.05c.32,1.56,1,2.06,3.19,2a19.44,19.44,0,0,0,3.11-.34l.15.09.15,2.23ZM25.88,74.58c.55,0,1.08,0,1.6,0a27.26,27.26,0,0,0,4.69-.4l.11.1.1,2.1-.1.13a25.1,25.1,0,0,1-4.8.41c-.54,0-1.05,0-1.58,0l-.12-.15V74.72Z"/><path class="cls-3" d="M42.12,72.29c-.15.67-.34,1.31-.49,1.91.59-.11,1.17-.25,1.75-.4l.15.07.31,1.46A13.9,13.9,0,0,1,49,76.63l.05.17-.68,1.84-.13.07a2.74,2.74,0,0,0-1.35-.28c-1.06,0-2,.41-2,1.16a7.75,7.75,0,0,0,.74,2.48,15.72,15.72,0,0,1,3.62,2.13v.17l-1.4,1.79-.15,0a14.8,14.8,0,0,0-1.94-1.58c0,1.35-1.52,2.23-3.4,2.23-2.16,0-3.49-.87-3.49-2.6,0-1.56,1.33-2.66,3.11-2.66a5.72,5.72,0,0,1,1.08.08,5.62,5.62,0,0,1-.36-2c0-.89.88-1.66,2.26-2.07a20.12,20.12,0,0,0-2.26-.24l-.09-.11.42-1c-.72.15-1.45.3-2.18.4A29.61,29.61,0,0,1,36.93,84l-.17,0-2-1.26v-.16A21.77,21.77,0,0,0,38.16,77c-.87.09-1.75.14-2.66.15l-.14-.1,0-2,.12-.12c1.26,0,2.44-.11,3.58-.23a26,26,0,0,0,.63-2.76l.15-.1,2.23.38Zm-.2,11.21c-.57,0-.9.35-.9.63s.36.67,1,.67c1,0,1.5-.34,1.48-1A2.87,2.87,0,0,0,41.92,83.5Z"/><path class="cls-3" d="M52.71,75.83l-.43-2.13.1-.15c2.53-.56,5.09-1,6.9-1.19a1.49,1.49,0,0,1,1.53,1.44,1.16,1.16,0,0,1-.3.87c-1.34,1.33-2.27,2.18-3.66,3.54a4.12,4.12,0,0,1,2.08-.43,4,4,0,0,1,4.2,4.29c0,3-2.28,4.74-6.13,4.74-2,0-3.62-.81-3.62-2.71a2.62,2.62,0,0,1,2.54-2.31,3.48,3.48,0,0,1,3.38,2.46,2.31,2.31,0,0,0,1.28-2.41,2.1,2.1,0,0,0-2.26-2.1c-2.38,0-4.09,1.56-5.86,3.84l-.16,0-1.78-1.43,0-.18c2.3-2.63,4.39-4.93,6.6-7.12-1.26.26-2.72.61-4.25,1Zm3.38,7.9c-.33,0-.63.14-.63.44s.38.66,1.23.66a2.37,2.37,0,0,0,.53,0A1.28,1.28,0,0,0,56.09,83.73Z"/><path class="cls-3" d="M71.05,71.56l.11-.14h2.3l.11.12V73.9h3.81l2.68-.05.12.12V75.9l-.12.12-2.68,0H72.23v.54c0,.52,0,1,0,1.52H75.9L78.05,78l.11.12c-.06,2.61-.2,4.89-.38,6.32-.25,1.89-1.13,2.53-4.42,2.53-.27,0-.34-.05-.42-.25l-1-2.13c.74,0,1.74,0,2.44,0,.55,0,.77-.22.88-.93a29.62,29.62,0,0,0,.25-3.48H71.86a9.84,9.84,0,0,1-5.51,7,.27.27,0,0,1-.16,0A.36.36,0,0,1,66,87l-1.44-1.67c3.85-2,5.18-4.17,5.18-8.7V76H67.65l-2.59,0-.12-.14V74l.13-.1,2.58.05h3.4Z"/><path class="cls-3" d="M83.57,79.18l-.2,0a14.83,14.83,0,0,0-2.32-1.55L81,77.55,82.29,76l.2,0a15,15,0,0,1,2.35,1.36l0,.17Zm-2.34,6.73a31,31,0,0,0,2.16-5.55l1.73,1.09a.31.31,0,0,1,.13.4A33.72,33.72,0,0,1,83.37,87l-.16.09-1.92-1Zm3-10.81-.21,0a11.49,11.49,0,0,0-2.37-1.64l0-.14,1.42-1.51.2,0a16.06,16.06,0,0,1,2.54,1.46l0,.17Zm9.11-.53,2.51,0,.12.11v1.82l-.12.11-2.51,0H91.91v2.18H94.2l2.76,0,.12.12v1.81l-.12.12-2.76,0h-3c-.5,1.26-1,2.53-1.6,3.76,1.1-.05,2.18-.14,3.28-.2-.38-.52-.78-1-1.18-1.45l0-.13,1.54-1,.2,0A32.92,32.92,0,0,1,97,85.93l0,.16-1.82,1.25H95c-.25-.45-.53-.89-.8-1.33-2.72.34-6,.64-8.78.84l-.15-.1-.53-2,.13-.14c.78,0,1.55,0,2.32,0,.28-.59.51-1.23.74-1.84s.49-1.35.72-2h-.9l-2.76,0-.12-.12V78.76l.12-.12,2.76,0h1.81V76.51H88.4l-2.52,0-.11-.11V74.63l.11-.11,2.52,0h1.14v-3l.12-.14h2.13l.12.12v3Z"/><path class="cls-3" d="M102.7,84.88a2.36,2.36,0,1,1-2.36-2.34A2.32,2.32,0,0,1,102.7,84.88Zm-3.74,0a1.38,1.38,0,1,0,1.38-1.38A1.36,1.36,0,0,0,99,84.88Z"/><path class="cls-3" d="M196.18,82.42q-14.42,10.85-28.35,22.3c-.25.21.14.34.32.2q13.92-11.46,28.34-22.31c.26-.2-.13-.33-.31-.19Z"/><path class="cls-3" d="M203.44,124.93q-14.4-4.49-29.1-7.88c-.18,0-.57.24-.28.31q14.69,3.39,29.09,7.87c.19.06.57-.22.29-.3Z"/><path class="cls-4" d="M180.09,105.73a19.85,19.85,0,0,0,2.18,9"/><path class="cls-4" d="M178.9,109.11c1.35-.81,2.94-1.64,4.41-1.08l-3.95,4.86a23.24,23.24,0,0,1,6.56-2.91,1.47,1.47,0,0,1,1.11,0,1.38,1.38,0,0,1,.49.62,8.31,8.31,0,0,1,.77,4.76"/><path class="cls-4" d="M191,105.77c.93.42,2.08-.12,3,.3a2.14,2.14,0,0,1,1.12,2.08,6.39,6.39,0,0,1-.73,2.38"/><path class="cls-4" d="M194,103.42a11,11,0,0,1-1.38,5.82"/><path class="cls-4" d="M198.76,104.26a7.38,7.38,0,0,0,1.35,4.36"/><path class="cls-4" d="M204.46,96.72a3.5,3.5,0,0,1,2.31.4"/><path class="cls-4" d="M202.74,97.55a11.73,11.73,0,0,0,1.16,4.87,11.57,11.57,0,0,1,3.16-.29,1.66,1.66,0,0,1,.91.22c.74.48.49,1.65-.08,2.33s-1.35,1.23-1.57,2.09"/><path class="cls-4" d="M214,94.83a57,57,0,0,0,1,8.83,5,5,0,0,1,1.11-2.81,1.9,1.9,0,0,1,2.72-.13c.61.76.54,2.23,1.51,2.37a1.45,1.45,0,0,0,1.14-.54,5.79,5.79,0,0,0,1.39-2.27"/><polygon class="cls-5" points="160.86 138.94 160.3 151.06 145.56 149.21 145.56 145.63 160.86 138.94"/><path class="cls-6" d="M125.68,143.56a32,32,0,0,0-10.47,8c4.41.22,8.53,2.08,12.77,3.31l7.41,2.17,6.9,1.78c1,.35,5.93,1.33,7,1.62a12.91,12.91,0,0,0,3.95-.42,3,3,0,0,0,1.42-1.49,38.46,38.46,0,0,0,2.84-7.61.68.68,0,0,0,0-.42c-.07-.19-.29-.27-.48-.32a13.58,13.58,0,0,0-3.25-.22,62.42,62.42,0,0,1-12.67-1.8c-1.72-.37-3.43-.75-5.11-1.28-3.42-1.08-6.7-2.78-10.27-3.14"/><path class="cls-5" d="M145.39,144.5s-1-9.67-1.7-11.29c.44,1.07-.52,2.16-1.4,2.94l-2.15,1.91a27.57,27.57,0,0,0-4.76,5,3.61,3.61,0,0,1-1.12,1.24,1.11,1.11,0,0,1-1.5-.3,14,14,0,0,1-1.28,5.24l-2-3.52c-.2-.34-.55-.73-.91-.57a.78.78,0,0,0-.34.53l-1.17,3.86a7.38,7.38,0,0,0-1.45-2.4,1,1,0,0,0-.63-.4c-.44,0-.73.43-.91.83l-1,2.25c-.54-.91-1.11-2-.71-3a3.43,3.43,0,0,1,.84-1.1,7.52,7.52,0,0,1,2.38-1.82c1-.41,2.11-.38,3.14-.71a9.73,9.73,0,0,0,2-1l3.16-1.92a12.49,12.49,0,0,0,5.11-4.9,4.51,4.51,0,0,0,1-2.49,8.09,8.09,0,0,0-.84-3.69l.15-.51-.1-.32a11.39,11.39,0,0,1-6.68-5.33,21,21,0,0,1-1-2.2c-1.55-3.77-2.95-7.69-3.1-11.77s1.13-8.38,4.19-11.09a16.08,16.08,0,0,1,8-3.4,15.53,15.53,0,0,1,8.58.53,13,13,0,0,1,6.63,6.8,26.57,26.57,0,0,1,2,9.46c.29,4.78-.2,10-3.43,13.54l15,3.93A47.32,47.32,0,0,1,157,143.87c-.64.54-1.16,3.34-1.64,4-1.18,1.68-1,4-2.06,5.76q0-3.41,0-6.81L149,153.41a29.45,29.45,0,0,1,2.56-8.14,52.3,52.3,0,0,0-6,6,30,30,0,0,1,1.72-7,27.76,27.76,0,0,0-3.72,5.53c-.93-.78-.29-2.27.39-3.27.88-1.28,3.88-5.18,3.88-5.18l1.59-.45s11.79-5.15,14.74-10.7a29.05,29.05,0,0,1-5.93,1.07c.15,1.4.65.77,1.34,4"/><path class="cls-4" d="M118.94,150.11c3.24.46,6.22,2,9.34,3,1.78.57,3.61,1,5.38,1.55,2.21.75,4.34,1.8,6.65,2.12,1,.13,1.95.14,2.89.36s1.72.61,2.59.87a16.93,16.93,0,0,0,3.16.51l3,.31,3.26-5.7"/><path class="cls-5" d="M148.08,156.55l.13-.75a.3.3,0,0,1,.08-.2.32.32,0,0,1,.19-.07,5,5,0,0,1,1.92.14v.81"/><path class="cls-5" d="M144.46,156a1.12,1.12,0,0,1,2.17-.15"/><path class="cls-5" d="M140.74,154.62a6,6,0,0,1,.57-.56.35.35,0,0,1,.22-.12c.1,0,.18.08.27.14.28.19.66.18.95.36a.86.86,0,0,1,.39.91"/><path class="cls-5" d="M137.86,154.09c-.07-.35-.07-.82.26-1a.73.73,0,0,1,.36,0l.68.08a.38.38,0,0,1,.15,0,.28.28,0,0,1,.06.16l.14.76"/><path class="cls-5" d="M134.05,153.13a.72.72,0,0,1,.6-.81,2.15,2.15,0,0,1,1.11.17.55.55,0,0,1,.27.17.42.42,0,0,1,.08.23l.15.91"/><path class="cls-5" d="M130.47,151.94a.65.65,0,0,1,.49-.8,1,1,0,0,1,.93.41,2.08,2.08,0,0,1,.33,1"/><path class="cls-5" d="M132.8,149.31a.47.47,0,0,0-.45-.13.89.89,0,0,1,1,.13.9.9,0,0,1,.28.92"/><path class="cls-5" d="M135,150.82c-.11-.23.1-.48.3-.64a1.63,1.63,0,0,1,1.31-.37.82.82,0,0,1,.62,1.06"/><path class="cls-5" d="M138.56,150.89a1,1,0,0,1,.75-.51,2.43,2.43,0,0,1,.93.08.53.53,0,0,1,.26.13c.17.2,0,.61.25.72"/><path class="cls-5" d="M142.29,152.53a1,1,0,0,1,1.29-.51,1.73,1.73,0,0,1,.91,1.2"/><path class="cls-5" d="M145.84,153.94a1,1,0,0,1,1.84.31"/><path class="cls-5" d="M149.27,154.22a1,1,0,0,1,1.43.4"/><path class="cls-3" d="M141,110.44a2.69,2.69,0,0,0,.19,1.58,7.27,7.27,0,0,0,.33.76,2,2,0,0,0,.34.53,1,1,0,0,0,1.19.1.76.76,0,0,0,.41-.92c0-.11-.52.05-.49.13a.64.64,0,0,1-.27.78h0s0,0,0,0a.42.42,0,0,0-.12,0,.82.82,0,0,1-.2-.12,1.78,1.78,0,0,1-.32-.44,3.75,3.75,0,0,1-.6-2.45c0-.09-.45,0-.48.09Z"/><path class="cls-3" d="M145,103.06a7.68,7.68,0,0,0,2.33-1c.06,0,.14-.12,0-.17a.41.41,0,0,0-.34,0,7,7,0,0,1-2.09.88c-.06,0-.23.08-.21.18s.22.06.27,0Z"/><path class="cls-3" d="M132.1,107.26a7.82,7.82,0,0,0,3.26-1.31.16.16,0,0,0,0-.26.32.32,0,0,0-.35,0,7,7,0,0,1-2.9,1.17c-.11,0-.26.08-.27.21s.13.19.23.17Z"/><path class="cls-2" d="M140.79,118.15l7.46-2.72a.41.41,0,0,1,.34,0,.47.47,0,0,1,.15.21l1.66,3.88L141.62,123a.78.78,0,0,1-.49.09.76.76,0,0,1-.34-.23A8.31,8.31,0,0,1,139,119a.39.39,0,0,1,0-.26.42.42,0,0,1,.23-.18,4.64,4.64,0,0,1,2.21-.34"/><path class="cls-3" d="M140.83,118.32l5.87-2.14c.45-.17.91-.37,1.38-.51s.41,0,.59.42c.09.21.18.41.26.61l1.23,2.87.13-.21-7.84,3.1a4.78,4.78,0,0,1-1,.41c-.36,0-.61-.36-.8-.61a6.58,6.58,0,0,1-.83-1.6,8.43,8.43,0,0,1-.48-1.55c-.07-.48.34-.53.75-.62a4.39,4.39,0,0,1,1.3-.09c.24,0,.5-.33.17-.35a5.06,5.06,0,0,0-2.21.31c-.64.25-.59.53-.42,1.14a11.21,11.21,0,0,0,.76,2.1,3.68,3.68,0,0,0,1.17,1.55c.5.29,1.17-.14,1.64-.32l2.61-1,5.44-2.15c.06,0,.17-.12.13-.2l-1.4-3.27c-.11-.27-.22-.78-.51-.92s-.85.13-1.16.25L140.74,118c-.28.11-.2.44.09.34Z"/><path class="cls-2" d="M146.23,106c.89-.38,1.77-.77,2.64-1.2l.56,1.32a7.82,7.82,0,0,0-2.5,1.16c-.13.09-.3.18-.41.08a.29.29,0,0,1-.09-.15l-.38-1.07,1-.33"/><path class="cls-3" d="M146.34,106.19q1.33-.57,2.64-1.2l-.35-.08.56,1.32.19-.24a9.08,9.08,0,0,0-1.94.79c-.14.09-.29.17-.43.27l-.22.14-.08.06s0,0,0,0c-.16-.36-.27-.74-.4-1.11l-.19.23,1-.33c.1,0,.23-.11.2-.24s-.2-.13-.29-.1l-1,.33c-.09,0-.24.12-.2.24l.24.66a2,2,0,0,0,.22.57c.26.35.73,0,1-.16a7.57,7.57,0,0,1,2.21-1c.09,0,.25-.12.2-.23l-.55-1.32a.25.25,0,0,0-.35-.08c-.87.42-1.75.82-2.64,1.19a.19.19,0,0,0-.12.26c.07.1.24.08.33,0Z"/><path class="cls-2" d="M133,110a7.65,7.65,0,0,0,.53,1.21,8.53,8.53,0,0,1,1.19-.75,1.83,1.83,0,0,0,.8-.62c.17-.29.07-.77-.27-.84a.83.83,0,0,0-.48.11l-1.8.83"/><path class="cls-3" d="M132.73,110a8.29,8.29,0,0,0,.55,1.26c.07.12.3.06.38,0a8.88,8.88,0,0,1,1.17-.74,2,2,0,0,0,.9-.72.75.75,0,0,0-.11-.87c-.35-.34-.85-.08-1.21.09l-1.57.72c-.09,0-.18.15-.12.25s.24.07.33,0l1.18-.54.57-.26c.11-.06.27-.16.39-.07a.5.5,0,0,1,.06.61,1.77,1.77,0,0,1-.75.54,9.92,9.92,0,0,0-1.16.74h.38a7,7,0,0,1-.5-1.16c-.08-.22-.56-.09-.49.12Z"/><path class="cls-3" d="M147.16,107.2V108a.09.09,0,0,0,.05.09.23.23,0,0,0,.16,0,.42.42,0,0,0,.19-.06s.09-.06.09-.11v-.83a.08.08,0,0,0-.06-.09.22.22,0,0,0-.16,0,.3.3,0,0,0-.18.06s-.09.06-.09.11Z"/><path class="cls-3" d="M148,106.88l.56,1.1c0,.08.2,0,.26,0a.59.59,0,0,0,.16-.07s.07-.05.06-.08l-.56-1.1c0-.08-.2,0-.26,0a.36.36,0,0,0-.17.07s-.07,0-.05.08Z"/><path class="cls-3" d="M148.83,106.76l.27.08.12,0s.07,0,0,0l.07,0a3.72,3.72,0,0,1,.48.27.22.22,0,0,0,.16,0,.39.39,0,0,0,.18-.06c.08-.06.13-.16,0-.23a3.29,3.29,0,0,0-1.06-.48.36.36,0,0,0-.34.09c-.06.08-.05.18.06.21Z"/><path class="cls-3" d="M133.89,110.79v1.29c0,.11.12.14.22.13s.27-.07.27-.18v-1.29c0-.11-.12-.14-.22-.13s-.27.07-.27.18Z"/><path class="cls-3" d="M134.62,110.42a1.38,1.38,0,0,0,.61,1.14.32.32,0,0,0,.34,0c.08-.06.14-.17,0-.23l-.11-.09h0l0,0a.12.12,0,0,1-.05,0,.81.81,0,0,1-.17-.24s0,0,0,0,0,0,0,0l0-.06a.74.74,0,0,1,0-.14.7.7,0,0,1,0-.14s0,0,0-.08h0v0c0-.11-.12-.15-.22-.14a.3.3,0,0,0-.18.06.2.2,0,0,0-.09.13Z"/><path class="cls-3" d="M135.15,110.44h1.56a.38.38,0,0,0,.32-.13c.06-.1-.05-.15-.13-.15h-1.57a.4.4,0,0,0-.32.14c-.06.09.06.14.14.14Z"/><path class="cls-3" d="M141.26,118.57a7,7,0,0,0,.58,1.24c.07.11.24.09.34,0l.61-.32c.17-.09.41-.17.5-.36a.92.92,0,0,0-.08-.63A5.54,5.54,0,0,0,143,118a1.18,1.18,0,0,0-.57-.77.89.89,0,0,0-1,.33,1.28,1.28,0,0,0,0,1.32.23.23,0,0,0,.29.11c.08,0,.24-.13.19-.24-.14-.32-.3-.79,0-1.09s.42,0,.55.19a1.82,1.82,0,0,1,.15.41c.07.22.13.45.19.67a.47.47,0,0,1,0,.16s0,.06,0,0a.21.21,0,0,1-.1.06l-.16.08-.62.32.34,0a6.07,6.07,0,0,1-.55-1.15.23.23,0,0,0-.29-.11c-.09,0-.23.12-.19.24Z"/><path class="cls-3" d="M145.71,116.52a1.51,1.51,0,0,0,.37,1.37c.47.37,1.06.07,1.48-.23,0,0,.06-.06.05-.09l-.34-1.46c0-.08-.16-.07-.21-.06a6.53,6.53,0,0,0-1.22.35c-.06,0-.2.1-.13.17s.24,0,.31,0a5.63,5.63,0,0,1,1-.28l-.21-.06.35,1.47.05-.1-.23.15-.1,0h0s0,0,0,0a.56.56,0,0,1-.36-.21,1.57,1.57,0,0,1-.23-1.14c0-.11-.13-.1-.2-.09s-.27.06-.28.15Z"/><path class="cls-3" d="M147.93,129.17c.15,1.78,1.21,3.4,1.06,5.21,0,.17.25.14.34.09a8.36,8.36,0,0,0,1.49-1,6.71,6.71,0,0,0,.71-.7.63.63,0,0,0,.2-.63,1.67,1.67,0,0,0-1.1-.89A5.54,5.54,0,0,0,149,131l.14.17.91-1.22c.2-.27.58-.66.37-1a1.67,1.67,0,0,0-.91-.54,3,3,0,0,0-1.26-.09c-.09,0-.31.08-.27.22a12.59,12.59,0,0,1,.47,2.37c0,.18.5.07.48-.13a12.59,12.59,0,0,0-.47-2.37l-.27.21a2.46,2.46,0,0,1,1.08.1c.27.09.8.27.7.64a2.79,2.79,0,0,1-.59.87l-.7.93c-.07.1.06.17.14.17.79,0,1.91,0,2.36.8.18.31-.05.51-.25.73l-.51.48a7.67,7.67,0,0,1-1.3.89l.34.09c.16-1.85-.91-3.48-1.06-5.29,0-.18-.5-.07-.48.13Z"/><path class="cls-7" d="M77.74,110.6c9.31-1,18.49,2.16,27.59,4.41a274.47,274.47,0,0,0,27,4.8l3.19,28.13a130.66,130.66,0,0,1-30.24-2.76c-3.44-.73-6.85-1.59-10.26-2.45l-12-3a3.2,3.2,0,0,1-1.45-.65,3.09,3.09,0,0,1-.71-1.8A238.3,238.3,0,0,1,78,110.57"/><path class="cls-3" d="M77.72,110.77c10.84-1.14,21.27,3.12,31.69,5.38,5.13,1.1,10.3,2,15.47,2.75l3.82.56,1.91.28c1,.14,1.4.1,1.62,1.12a37.29,37.29,0,0,1,.45,4l.5,4.44L135.31,148l.26-.24a132.21,132.21,0,0,1-32.46-3.26c-5.23-1.19-10.42-2.57-15.61-3.89l-3.85-1a3.81,3.81,0,0,1-1.82-.74,2.89,2.89,0,0,1-.72-1.73c-.49-2.72-.85-5.47-1.2-8.21q-1.18-9.16-1.64-18.42c0-.24-.5-.16-.49,0q.42,8.43,1.43,16.82.53,4.23,1.18,8.45a8,8,0,0,0,.68,2.9c.53.88,1.61,1,2.54,1.27,10.93,2.76,21.82,5.86,33.05,7.2a132.21,132.21,0,0,0,18.87.88c.12,0,.28-.09.26-.23l-3.19-28.14c0-.07-.1-.09-.15-.1a266.23,266.23,0,0,1-28.34-5.13c-8.62-2.21-17.33-5-26.35-4.08-.26,0-.37.37,0,.34Z"/><path class="cls-7" d="M104.61,143.56l-1.08,13.64a1,1,0,0,0,0,.5,1,1,0,0,0,.67.44c.8.25,1.77.47,2.38-.1a2.33,2.33,0,0,0,.52-1.57,48.62,48.62,0,0,0-.7-12.63c-.11-.55-.46-1.27-1-1.12a1,1,0,0,0-.55.62,5.73,5.73,0,0,0-.37,3.22"/><path class="cls-3" d="M104.37,143.63l-.75,9.54-.18,2.28-.1,1.21a2.2,2.2,0,0,0,0,1.11c.32.67,1.82.8,2.45.72a1.74,1.74,0,0,0,1.55-1.63,28.56,28.56,0,0,0,.18-4.14c0-1.57-.08-3.14-.23-4.71a25.22,25.22,0,0,0-.66-4.42c-.21-.72-.84-1.33-1.57-.79a2.55,2.55,0,0,0-.71,1.49,6.09,6.09,0,0,0-.07,2.33c0,.12.5,0,.48-.13a5.94,5.94,0,0,1,.1-2.41c.15-.55.64-1.75,1.15-.74a7.22,7.22,0,0,1,.44,2c.1.68.2,1.36.28,2a47.35,47.35,0,0,1,.19,8.83,4.71,4.71,0,0,1-.14,1.12,3.12,3.12,0,0,1-.15.39l-1.09.53a2.54,2.54,0,0,1-1.1-.24.82.82,0,0,1-.67-.9,15.27,15.27,0,0,1,.16-2.13l.19-2.42.72-9.09c0-.09-.47,0-.48.13Z"/><path class="cls-7" d="M107.79,155.34a3.59,3.59,0,0,1,2.9,4.78c-.79,1.82-3,2.61-5,2.66a7.28,7.28,0,0,1-4.81-1.4,4.31,4.31,0,0,1-1.51-4.56,3.08,3.08,0,0,1,4.12-1.8"/><path class="cls-3" d="M107.71,155.52a3.47,3.47,0,0,1,3,3c.24,1.78-1.14,3.11-2.71,3.66-3.19,1.11-8.49-.14-8.48-4.29,0-1.94,2-3.69,3.92-2.73.21.1.55-.2.28-.34a3.38,3.38,0,0,0-4.38,1.67c-.88,1.86.15,4.11,1.74,5.22a8.06,8.06,0,0,0,6.32,1c1.73-.4,3.57-1.54,3.81-3.45a3.81,3.81,0,0,0-3.29-4.14c-.24,0-.49.33-.16.36Z"/><path class="cls-3" d="M134,155.55c-1.51.33-1.72,1.95-2.54,3-2.05,2.65-6.61-.24-8.9-1.23l-3.83-1.64c-1.34-.57-3.09-1-4.07-2.14a16,16,0,0,1-1.94-3.39c-.62-1.29-1.18-2.61-1.67-4-.07-.2-.55-.06-.48.13a43.74,43.74,0,0,0,1.86,4.35,12.36,12.36,0,0,0,2,3.32,10,10,0,0,0,3.15,1.63l4.67,2c2.22.95,4.94,2.71,7.45,2.27a3.37,3.37,0,0,0,2.18-1.28c.68-.9.93-2.52,2.18-2.8.3-.06.22-.36-.08-.29Z"/><g class="cls-8"><path class="cls-9" d="M140.32,95.47c7.65,0,12.46,2.48,14.94,10.06,2.24,6.85,1.64,12-2,18.16a.89.89,0,0,0,.14,1.06,17.33,17.33,0,0,0,5.11,3.37c3,1.23,6.38.94,9.33,2.37l-.18-1.37a157.68,157.68,0,0,0-12.13,14.55c-.67.9.85,1.78,1.51.88a153.13,153.13,0,0,1,11.86-14.19.89.89,0,0,0-.18-1.38,20.09,20.09,0,0,0-5.72-1.53,13.65,13.65,0,0,1-5.11-1.54c-2.1-1.38-2.2-1.94-1.52-4.1,1.5-4.77,2.9-7.78,1.72-13-1-4.17-2.46-9.31-5.91-12.17-3.3-2.73-7.72-3-11.82-3a.88.88,0,0,0,0,1.75Z"/></g><g class="cls-8"><path class="cls-9" d="M157.47,132.1l.51,2.62c.21,1.1,1.9.63,1.68-.47l-.51-2.61c-.21-1.1-1.9-.64-1.68.46Z"/></g><g class="cls-8"><path class="cls-9" d="M159.24,142.2q.15,4.16.56,8.29c.1,1.11,1.85,1.12,1.75,0q-.41-4.14-.56-8.29c0-1.13-1.79-1.13-1.75,0Z"/></g><g class="cls-8"><path class="cls-9" d="M147.82,116.12c.39,1,1.11,2.75-.23,3.39-1,.48-.13,2,.88,1.51,2.15-1,1.73-3.57,1-5.37-.4-1-2.09-.58-1.68.47Z"/></g><g class="cls-8"><path class="cls-9" d="M143.82,134.57a37.64,37.64,0,0,1,1.81,7.61c.15,1.1,1.9,1.12,1.75,0a40.15,40.15,0,0,0-1.87-8.08c-.37-1-2.06-.6-1.69.47Z"/></g><g class="cls-8"><path class="cls-9" d="M117.39,152c6.89,3.18,40.18,19,40.05,1.34a.88.88,0,0,0-1.75,0c.11,14.4-31.54-.13-37.42-2.85-1-.47-1.91,1-.88,1.51Z"/></g><g class="cls-8"><path class="cls-9" d="M150.4,153.17l3.29-4.62c.66-.92-.86-1.79-1.51-.88l-3.3,4.62c-.65.92.87,1.79,1.52.88Z"/></g><g class="cls-8"><path class="cls-9" d="M146.6,151a23.44,23.44,0,0,1,4.43-4.47c.88-.67,0-2.2-.88-1.51a26.28,26.28,0,0,0-5.06,5.1c-.68.89.84,1.77,1.51.88Z"/></g><g class="cls-8"><path class="cls-9" d="M155.48,144a21.35,21.35,0,0,0-1.43,5.26c-.16,1.1,1.53,1.58,1.69.47a21.86,21.86,0,0,1,1.42-5.27c.43-1-1.26-1.49-1.68-.46Z"/></g><g class="cls-8"><path class="cls-9" d="M106.53,146.87c-.22,2.61-.4,5.39.79,7.81.46.92,1.53,1.66,1.9,2.55l.25,4.07-2.74,1c-1.24.21-3.12-.49-4.33-.86a.88.88,0,0,0-.47,1.69c3.34,1,8.87,1.83,10-2.75a4.54,4.54,0,0,0-1.22-4.07c-2.44-3.12-2.79-5.64-2.47-9.49.09-1.12-1.66-1.12-1.75,0Z"/></g><g class="cls-8"><path class="cls-9" d="M81.63,140.36c7.31,5.24,17.66,3.81,26.08,5.86,3.47.84,6.44,2.22,10.06,2.55,5.48.51,11,.86,16.46,1.28,1.12.09,1.11-1.66,0-1.75-4.88-.38-9.76-.72-14.63-1.13-4.17-.36-7.45-1.65-11.43-2.64-8.24-2.06-18.5-.56-25.66-5.69-.92-.65-1.79.86-.88,1.52Z"/></g><g class="cls-8"><path class="cls-9" d="M149.36,129.4a.53.53,0,0,1-.15.48,1.52,1.52,0,0,1-.34.38.88.88,0,0,0,.85,1.47.65.65,0,0,1,.88.73c-.07.55-.77.8-1.22.82-1.12.06-1.13,1.81,0,1.75a2.92,2.92,0,0,0,3-2.9,2.43,2.43,0,0,0-3.1-2.09l.85,1.46c.77-.77,1.43-1.92.8-3a1.72,1.72,0,0,0-2.43-.62c-.91.65,0,2.17.88,1.51Z"/></g><g class="cls-8"><path class="cls-9" d="M150.39,152q2-2.4,3.77-5c.65-.92-.87-1.8-1.51-.88-1.1,1.58-2.26,3.12-3.5,4.6-.71.86.52,2.11,1.24,1.24Z"/></g></g></g></svg>