<svg xmlns="http://www.w3.org/2000/svg" viewBox="0 0 230.52 175.07"><defs><style>.cls-1{fill:#fcdd6f;}.cls-2,.cls-3{fill:#fff;}.cls-3,.cls-7,.cls-8{stroke:#231f20;stroke-miterlimit:10;}.cls-3{stroke-width:0.5px;}.cls-4{opacity:0.14;}.cls-5{fill:#534b4b;}.cls-6{fill:#231f20;}.cls-7{fill:#f9b19d;}.cls-7,.cls-8{stroke-width:0.6px;}.cls-8{fill:none;}.cls-9{fill:#896b4a;}</style></defs><g id="Layer_2" data-name="Layer 2"><g id="Layer_1-2" data-name="Layer 1"><rect class="cls-1" x="1.75" y="1.75" width="227.02" height="171.57"/><path class="cls-2" d="M228.77,171.57H1.75l1.75,1.75V1.75L1.75,3.5h227L227,1.75V173.32a1.75,1.75,0,0,0,3.5,0V1.75A1.77,1.77,0,0,0,228.77,0H1.75A1.77,1.77,0,0,0,0,1.75V173.32a1.77,1.77,0,0,0,1.75,1.75h227A1.75,1.75,0,0,0,228.77,171.57Z"/><path class="cls-3" d="M113.48,113.05a16.72,16.72,0,0,0,3.63,1.14,13.1,13.1,0,0,1,2,.75c.61.31.92.64.9.89,0,.81-3.92.85-6.82,1.51-5.07,1.15-8.07,4.38-9.62,5.66-7,5.78-23.13,4.08-43.68,3.62-28-.63-35.44,1.16-39.07-4.4-3-4.62-2.3-11.91.95-15.92,0,0,5.26-6.5,36.4-4.47l.33,0c25,1.68,42.91-1.72,47.21,4.33C105.68,106.18,109.2,111.13,113.48,113.05Z"/><g class="cls-4"><path class="cls-5" d="M17.69,118c2,6.68,7.24,9.43,13.83,10.17,11,1.22,22.33.84,33.39,1,9.73.13,19.75,1,29.4-.45a20.06,20.06,0,0,0,9.65-3.84c4.79-3.63,8.53-6.13,14.8-6.3a1.05,1.05,0,0,0,0-2.1,22.56,22.56,0,0,0-9.41,2c-2.9,1.4-5,3.76-7.66,5.52-7.55,5-18.89,3.3-27.47,3.18q-13.95-.19-27.91-.43c-9.08-.16-23.29,1.75-26.59-9.26a1.05,1.05,0,0,0-2,.56Z"/></g><path class="cls-6" d="M27,36.13c0,.26,0,.61,0,.86a17,17,0,0,0,2.22-2H22.61l-2.87,0-.12-.13V32.7l.15-.1,2.81,0H30l1.67-.08,1.16,1.56a.43.43,0,0,1,.08.23.48.48,0,0,1-.13.32,38,38,0,0,1-3.66,3.73c-.27.23-.35.23-.6.06l-1.53-1c-.16,3.58-1.11,5.94-4,8.05a.53.53,0,0,1-.3.12.78.78,0,0,1-.37-.14l-2.21-1.13c3.47-2,4.17-4.12,4.11-8.2l.11-.13h2.57Z"/><path class="cls-6" d="M36.73,35.05a26.51,26.51,0,0,1,2.83,1.63,28.69,28.69,0,0,0,2-4.68l.14-.05,2.46.93,0,.14a30.66,30.66,0,0,1-2.53,5.25,21.79,21.79,0,0,1,2.58,2.5V41L42.48,42.8h-.15a26.12,26.12,0,0,0-2.17-2.28,20.33,20.33,0,0,1-5.58,4.95.48.48,0,0,1-.23.09.49.49,0,0,1-.3-.14L32.14,44a17.75,17.75,0,0,0,6-5.14,26.28,26.28,0,0,0-3.15-2v-.15l1.57-1.68Z"/><path class="cls-6" d="M50.1,35.25,50.18,40H47.39l.08-4.71V32.37l.13-.12H50l.14.13ZM55.68,37c0,2.84-.24,4.07-1.19,5.57a8.61,8.61,0,0,1-4.06,3.14.75.75,0,0,1-.32.1c-.08,0-.16-.06-.33-.18l-2-1.48a7.89,7.89,0,0,0,4.3-2.83c.79-1.19.89-2.19.89-4.07V32.05l.14-.11h2.44l.13.13Z"/><path class="cls-6" d="M66.22,36.81a10.93,10.93,0,0,1-1.16,3.71,11.06,11.06,0,0,1-4.74,4.65.48.48,0,0,1-.2.09c-.08,0-.15,0-.32-.17L57.92,43.7a9.74,9.74,0,0,0,4.66-4.18,9.09,9.09,0,0,0,.88-2.71H61.93l-2.38,0-.11-.13V34.55l.15-.1,2.33,0h1.81c0-.75.07-1.58.07-2.53l.11-.13h2.5l.11.11c0,.93,0,1.78-.06,2.55h2.77l2,0,.12.15a50.58,50.58,0,0,1-.72,7.15c-.51,2.19-1,3.19-4,3.19-.43,0-.45,0-.56-.3l-1-2.33c.64,0,1.24,0,1.84,0s.85-.12,1.17-1.45a26.31,26.31,0,0,0,.46-4.09Z"/><path class="cls-6" d="M74,37.31l-.55-2.2.06-.13c4.65-1.13,8.35-1.9,13-2.74l.15.08.49,2.21-.12.15A8.06,8.06,0,0,0,82.62,36,5.67,5.67,0,0,0,80.2,40.3a2.12,2.12,0,0,0,1.62,2.25,14,14,0,0,0,4,.36l.12.12-.13,2.53-.14.1a13.29,13.29,0,0,1-5.25-.77,4.32,4.32,0,0,1-2.68-4.35,6.36,6.36,0,0,1,2.23-4.7c-1.63.4-3.41.87-5.77,1.54Zm10.53,0,.86-.61.17,0a10.86,10.86,0,0,1,1.69,1.76v.17l-.92.65h-.16a11.23,11.23,0,0,0-1.65-1.8Zm1.56-1.05.85-.61.16,0a10,10,0,0,1,1.65,1.72l0,.16-.86.63h-.17a9.85,9.85,0,0,0-1.63-1.73Z"/><path class="cls-6" d="M97.1,39.09,99,44.84l-2.68.9L94.59,40,94,38l-1,.28L90.48,39l-.17-.07-.63-2.14.08-.15L92.24,36l1-.28-1-3.06,0-.17,2.33-.7.16.07,1,3.18L100,33.93l1.64-.55,1.6,1.38c.18.17.27.25.27.37a.63.63,0,0,1-.15.32,27.7,27.7,0,0,1-3,4.29c-.2.23-.28.23-.55.11L97.9,39A24.61,24.61,0,0,0,100,36.26l-3.47,1Z"/><path class="cls-6" d="M112.18,36.58A20.28,20.28,0,0,1,107.34,43a.36.36,0,0,1-.25.12.5.5,0,0,1-.27-.1l-2.23-1.35a15.16,15.16,0,0,0,5.06-6.4l.15,0,2.33,1.19Zm1.59-.24,2.11-1.14.19,0a20.49,20.49,0,0,1,4.09,5.36l0,.14-2.47,1.48-.15,0a21,21,0,0,0-3.77-5.65Zm2.48-2.89.86-.62h.17a10.51,10.51,0,0,1,1.7,1.76l0,.17-.91.65h-.17a10.41,10.41,0,0,0-1.65-1.8Zm1.56-1.05.85-.61.17,0a10.23,10.23,0,0,1,1.64,1.71v.17l-.87.63h-.16a10.65,10.65,0,0,0-1.63-1.73Z"/><path class="cls-6" d="M122.8,33.07l2.34.08.12.12c-.15,1.84-.2,3.49-.2,4.45a12.12,12.12,0,0,0,.38,3.3c.18.65.4,1.13.77,1.13s1-.9,1.39-2.43l1.67,2.1a.36.36,0,0,1,0,.41c-.67,1.73-1.75,3-3.1,3a3.18,3.18,0,0,1-2.69-2.11,12.42,12.42,0,0,1-1-5.18c0-1.34,0-2.94.12-4.75ZM130.68,36l1.6-1.28.18,0A12.59,12.59,0,0,1,136.87,40l-.05.15-2.12,1.31-.16,0a11.35,11.35,0,0,0-3.89-5.32Z"/><path class="cls-6" d="M147,44.09c0,1.9-.55,2.52-3.33,2.52-.33,0-.36,0-.43-.2l-.83-1.95a17,17,0,0,0,1.78-.07c.35,0,.45-.13.45-.53v-.18h-2.83l-2.25,0-.13-.13V42.17l.13-.1,2.25,0h2.83v-.5h-4.49l-2.2,0-.13-.13V40.1L138,40l2.2,0h4.49v-.46h-2.81l-2.2,0-.13-.13V38.07l.13-.1,2.2.05h2.81v-.53h-2.32l-2.17,0-.1-.13.08-1.42v-.61l0-1.35.12-.11,2.12,0h2.32V33.4h-4.16l-2.36,0L138,33.3V31.77l.14-.1,2.36,0h4.16V30.8l.15-.13h2l.15.13v.92h4l2.55,0,.11.12v1.53l-.11.11-2.55,0h-4V34h2.38l2.16,0,.12.11,0,1.35V36l0,1.4-.12.15-2.16,0H147V38h2.4l2.48-.05.11.1-.05,1.73V40l1.87,0,.11.12v1.51l-.11.12-1.87,0,.08,2.65h-2.32v-.65H147Zm-4.69-8.71v.68h2.33v-.68Zm4.62.68h2.36v-.68H147Zm2.7,4v-.46H147v.46Zm0,2.07v-.5H147l0,.5Z"/><path class="cls-6" d="M158.39,46.62h-2.33l.09-5.14V39.64a9.11,9.11,0,0,1-.64,1.21.27.27,0,0,1-.21.17c-.09,0-.15-.07-.19-.19l-.61-2.31a24.52,24.52,0,0,0,2.66-7.75l.15-.08,2.08.45.08.15c-.35,1.39-.7,2.63-1.08,3.72Zm3.19-10.23a12.45,12.45,0,0,1-.94,1.9.34.34,0,0,1-.3.2.46.46,0,0,1-.2-.05l-1.73-.75a16.75,16.75,0,0,0,2.13-5.87l.13-.05,2,.63.09.15c-.17.63-.32,1.23-.5,1.8h1.41V30.84l.12-.12h2.14l.12.12v3.51h1.23l2.24-.05.14.11v1.92l-.14.11-2.24,0h-1.23v2.73h2l2,0,.1.08v2l-.12.11-2,0h-2l.08,5.43H163.6l.1-5.43h-2.56l-2.18,0-.12-.1v-2l.1-.08,2.2,0h2.56V36.39Z"/><path class="cls-6" d="M171.22,35.55l-.11-.1V33.7l.1-.1,1.93,0h3.16l2,0,.1.08v1.78l-.1.09-2,0h-3.16Zm2.77,10v.87h-2.13l.08-3v-.79L171.89,41l.1-.12,1.91.05h1.7l2.06-.05.12.12-.05,1.66v.89l.08,2.74h-2.2v-.72Zm-1.75-12.45-.12-.1V31.34l.1-.1,1.73.05h1.75l1.73-.05.1.08V33l-.1.09-1.73,0H174Zm0,4.84-.12-.1V36.18l.1-.1,1.73.05h1.75l1.73-.05.1.08v1.66l-.1.09-1.73,0H174Zm0,2.36-.12-.1V38.54l.1-.1,1.73.05h1.75l1.73-.05.1.08v1.67l-.1.08-1.73-.05H174Zm3.37,2.34H174V43.8h1.62Zm5.69-3.87V43.5c0,.64.12.68,1.57.68,1.71,0,1.93-.19,2-2.11l2.11.69c.16.05.16.12.16.29-.06,1.49-.3,2.21-.76,2.62s-1,.72-3.74.72c-3.26,0-3.71-.28-3.71-2.13V38.72l0-1.93.1-.11,1.81,0h2.81V33.42h-3l-1.94,0-.12-.13V31.47l.14-.1,2,.05h3l2.15-.05.13.13,0,2v2.71l0,2.41-.15.12-2,0Z"/><path class="cls-6" d="M193.92,43.2l.07-.15a26.69,26.69,0,0,0,3.42-1.72l.1,1.77c0,.23,0,.26-.2.41a17.67,17.67,0,0,1-2.38,1.43h-.15l-.59-1.2v1c0,.2-.1.26-.29.31a42.47,42.47,0,0,1-5.2,1.18l-.15,0-.72-1.81.12-.15c.91-.1,1.71-.18,2.48-.3v-.83l-.07.1-1.33.45-.13-.07a17.39,17.39,0,0,0-.67-2.48l.09-.15,1.29-.43.17.07a16.89,16.89,0,0,1,.65,2.31V40h-.58l-1.58,0-.12-.1V38.41l.1-.1,1.6,0h.58V37.28h-.05l-1.58,0-.12-.11V35.94l-1-.79a14.1,14.1,0,0,0,3.23-4.48l.15,0,1.89.71.06.17c-.09.18-.19.35-.27.52A21.51,21.51,0,0,1,195,33.75v.17l-1.21,1.46-.22,0a17.79,17.79,0,0,0-1.81-1.69,20.87,20.87,0,0,1-1.48,1.89h2.13l1.65,0,.1.08v1.6l-.1.09-1.55,0v1.08h.32l1.64,0,.1.11V40l-.1.08-1.64,0h-.32v2.29a16.91,16.91,0,0,0,.43-1.82l.17-.05,1.35.44.08.14a10.68,10.68,0,0,1-.68,1.93c-.05.1-.12.11-.24.08l-1.11-.37v.93c.5-.09,1-.21,1.48-.31Zm6-4.43a12.55,12.55,0,0,0,.6,1.15c.45-.48.83-1,1.25-1.48l.18,0,1.53,1.22v.16a23.8,23.8,0,0,1-1.83,1.67,11.47,11.47,0,0,0,2.26,2l-1.24,1.66c-.12.17-.22.24-.32.24a.31.31,0,0,1-.23-.12A9.19,9.19,0,0,1,199.91,42l.11,2.52c0,1.61-.68,2-2.76,2-.28,0-.35,0-.43-.2L196,44.61c.55,0,1.08,0,1.36,0s.47-.1.47-.5V38.12h-1.05l-2.26.05-.12-.11V36.38l.12-.12,2.26.05h3.14l0-.7h-2.41l-2.05,0-.11-.11V33.92l.11-.12,2.05.05H200l0-.68h-2.78l-2.2,0L195,33.1V31.42l.11-.12,2.2.05h2.61l2.33-.05.12.12-.07,1.73-.15,3.14,1.46,0,.12.12v1.68l-.12.11-2.29-.05h-1.35Zm-3.61,2.7h-.17a9.51,9.51,0,0,0-1.59-1.78v-.15l1.2-1.07h.16a11.15,11.15,0,0,1,1.72,1.59v.19Z"/><path class="cls-6" d="M209.33,44.19A2.36,2.36,0,1,1,207,41.85,2.32,2.32,0,0,1,209.33,44.19Zm-3.74,0A1.38,1.38,0,1,0,207,42.81,1.35,1.35,0,0,0,205.59,44.19Z"/><path class="cls-6" d="M39,112.11c0,.19,0,.44,0,.62a12.58,12.58,0,0,0,1.59-1.46H35.81l-2.08,0-.09-.09v-1.58l.11-.07,2,0h5.34l1.21-.06.84,1.13a.39.39,0,0,1,.06.17.33.33,0,0,1-.1.22,26.18,26.18,0,0,1-2.64,2.69c-.19.17-.25.17-.43,0L39,113.06c-.12,2.58-.8,4.28-2.87,5.81a.33.33,0,0,1-.22.08.57.57,0,0,1-.26-.09L34,118c2.51-1.44,3-3,3-5.92l.08-.1H38.9Z"/><path class="cls-6" d="M46,111.33a22,22,0,0,1,2,1.17,20.86,20.86,0,0,0,1.47-3.37l.1,0,1.78.68,0,.09a21.82,21.82,0,0,1-1.82,3.8,15.82,15.82,0,0,1,1.86,1.8v.13l-1.32,1.33h-.11a22.15,22.15,0,0,0-1.57-1.64,14.65,14.65,0,0,1-4,3.58.4.4,0,0,1-.16.06.38.38,0,0,1-.22-.1l-1.38-1A12.67,12.67,0,0,0,47,114.09a18.93,18.93,0,0,0-2.27-1.42v-.1l1.13-1.22Z"/><path class="cls-6" d="M55.66,111.47l.06,3.42h-2l.06-3.39v-2.11l.1-.08h1.71l.09.1Zm4,1.24c0,2.05-.18,2.94-.87,4A6.18,6.18,0,0,1,55.9,119a.56.56,0,0,1-.23.07c-.06,0-.12,0-.24-.13L54,117.87a5.66,5.66,0,0,0,3.1-2,4.57,4.57,0,0,0,.65-2.94v-3.72l.1-.09H59.6l.1.1Z"/><path class="cls-6" d="M67.31,112.6a7.82,7.82,0,0,1-.84,2.68,8,8,0,0,1-3.42,3.36.3.3,0,0,1-.14.06c-.06,0-.11,0-.23-.12l-1.36-1a7,7,0,0,0,3.36-3,6.45,6.45,0,0,0,.64-2h-1.1l-1.72,0-.09-.1V111l.11-.07,1.68,0h1.31c0-.54,0-1.14,0-1.82l.08-.1h1.81l.08.08c0,.68,0,1.29,0,1.84h2l1.47,0,.09.1a37.23,37.23,0,0,1-.52,5.17c-.37,1.58-.72,2.3-2.89,2.3-.32,0-.33,0-.41-.21l-.71-1.68c.47,0,.9,0,1.33,0s.62-.08.84-1a19,19,0,0,0,.34-3Z"/><path class="cls-6" d="M79,108.81a31.85,31.85,0,0,1-.15,3.31A9.25,9.25,0,0,0,84,118l-1.14,1.49a.21.21,0,0,1-.13.07.54.54,0,0,1-.18-.06,9.54,9.54,0,0,1-4.35-4.62,8.59,8.59,0,0,1-4.42,4.7.37.37,0,0,1-.16,0,.22.22,0,0,1-.12-.06l-1.2-1.34c2.27-1.06,3.81-2.53,4.36-4.66a17.54,17.54,0,0,0,.4-4.78l.08-.09,1.78.06Z"/><path class="cls-6" d="M89.45,117.25c-.12-.11-.22-.24-.33-.35a3.25,3.25,0,0,1-2.46,1.21A1.92,1.92,0,0,1,84.81,116a4.31,4.31,0,0,1,1.45-3.31c-.28-.61-.54-1.26-.83-2l0-.11,1.33-.6.11,0c.25.6.47,1.16.69,1.66a6.6,6.6,0,0,1,2.63-.74,13.59,13.59,0,0,0,.38-1.74l.1-.08,1.6.31.07.11c-.08.5-.24,1.19-.34,1.6a3.76,3.76,0,0,1,2.83,3.72c0,2.14-1.29,3.35-3.48,4a.33.33,0,0,1-.33-.08l-1.32-1.2c2.24-.44,3.34-1.36,3.34-2.71a2.29,2.29,0,0,0-1.5-2.34,15.16,15.16,0,0,1-1.39,3l.47.48v.12l-1.09,1.13Zm-3-1.53c0,.51.2.68.42.68s.69-.17,1.2-.78a14.62,14.62,0,0,1-1-1.57A3.26,3.26,0,0,0,86.4,115.72Zm3.4-3.26a4.71,4.71,0,0,0-1.54.5,12.47,12.47,0,0,0,.8,1.24A10.7,10.7,0,0,0,89.8,112.46Z"/><path class="cls-6" d="M99.42,117.93a1.71,1.71,0,1,1-1.7-1.69A1.67,1.67,0,0,1,99.42,117.93Zm-2.7,0a1,1,0,0,0,1,1,1,1,0,1,0-1-1Z"/><path class="cls-7" d="M151.64,100.77c-1.24-.93-3.06.31-3.53,1.79s-.18,3.08-.5,4.59a13.8,13.8,0,0,1-1.26,3.06A82.08,82.08,0,0,0,142.5,120a3.6,3.6,0,0,0-.28,1.82,3.47,3.47,0,0,0,.69,1.35l2.44,3.47a25.05,25.05,0,0,0,3.24,4c2.27,2.13,5.24,3.36,7.86,5.06a7.88,7.88,0,0,1,2.62,2.45c1.45,2.42.51,5.62,1.53,8.24a25.53,25.53,0,0,0,17,.27,1.75,1.75,0,0,0,.84-.5,1.8,1.8,0,0,0,.13-1.48,29.45,29.45,0,0,1-.36-7.9,3.85,3.85,0,0,1,.26-1.21,3.6,3.6,0,0,1,.87-1.08c4.93-4.65,11.73-7.67,14.78-13.73a2.84,2.84,0,0,0,.4-1.46,2.91,2.91,0,0,0-.45-1.23c-1.19-2.08-2.81-3.88-4.18-5.84a12.26,12.26,0,0,1-2.56-6.6c0-1,.12-2.14-.58-2.84a6.06,6.06,0,0,0-1-.67,18.23,18.23,0,0,1-1.39-1.25,5.33,5.33,0,0,0-6.6-.09,1.26,1.26,0,0,0-.48.61c-.14.5.26,1,.61,1.37a15.26,15.26,0,0,1,3.74,7.71,7.75,7.75,0,0,1,3.79.65,7.92,7.92,0,0,1,2.89,3.68l2.82,5.67c-1.41,1.22-3.33,1.67-4.87,2.73-1.3.91-2.28,2.22-3.6,3.1a28.77,28.77,0,0,1-3.67,1.76c-1.75.86-3.29,2.12-5,3-3.32,1.71-7.15,2-10.87,2.31a15.51,15.51,0,0,1-4.41-.09,15.29,15.29,0,0,1-4.81-2.28c-1.73-1.09-3.56-2.29-4.34-4.17-.49-1.17-.52-2.52-1.17-3.61a7.9,7.9,0,0,0-1.33-1.5,6.31,6.31,0,0,1-2.07-3.12,6.51,6.51,0,0,1,.85-3.82c.64-1.39,1.32-2.77,2-4.14a6.86,6.86,0,0,1,1.49-2.14,17.93,17.93,0,0,1,2.95-1.63,4.41,4.41,0,0,0,2.2-4.78c-.54-1.81-3.15-2.78-4.49-1.44"/><path class="cls-7" d="M157.09,132.23a16.75,16.75,0,0,1-5.67-3.73c-2.42-2.78-2.76-6.74-3-10.42a36.58,36.58,0,0,1-.07-5,29.85,29.85,0,0,1,3.34-10.59,6.53,6.53,0,0,1,1.58-2.28A6.69,6.69,0,0,1,156.63,99a39.94,39.94,0,0,1,5.11-.57,40.22,40.22,0,0,1,9.31,1.21,21.28,21.28,0,0,1,3.62,1,20.58,20.58,0,0,1,4.58,2.81c1.69,1.26,3.42,2.64,4.22,4.58a11.07,11.07,0,0,1,.62,4.29c0,4.86-.8,9.85-3.3,14a8.53,8.53,0,0,1-2.13,2.53,11,11,0,0,1-3.13,1.4,65.89,65.89,0,0,1-9.32,2.54,22,22,0,0,1-9.59-.29"/><path class="cls-6" d="M164.27,111.91a6.16,6.16,0,0,0-.21,1.91,4,4,0,0,0,.39,1.67,1.25,1.25,0,0,0,1.2.72,1,1,0,0,0,.94-.94.38.38,0,0,0-.75,0s0,0,0,.08,0,0,0,0,0,0,0,0a.42.42,0,0,1-.26.06c-.28,0-.44-.42-.52-.68a5,5,0,0,1,0-2.68.38.38,0,0,0-.73-.2Z"/><path class="cls-2" d="M171.07,107.87l.12,3.46a.43.43,0,0,0,.07.25.41.41,0,0,0,.23.11,16.27,16.27,0,0,0,4.51.39l-.08-3.4a1,1,0,0,0-.06-.35c-.17-.36-.69-.3-1.09-.23a12.55,12.55,0,0,1-4,0"/><path class="cls-6" d="M170.7,107.87l.08,2.34c0,.39,0,.79,0,1.19a.68.68,0,0,0,.54.64,12.5,12.5,0,0,0,2.27.37,17,17,0,0,0,2.37,0,.37.37,0,0,0,.37-.37l-.06-2.63a3.83,3.83,0,0,0-.09-1.22.88.88,0,0,0-.69-.54,2.8,2.8,0,0,0-.91.06,7.44,7.44,0,0,1-1.24.12,19.14,19.14,0,0,1-2.62-.2.38.38,0,0,0-.38.38.38.38,0,0,0,.38.37c.75.09,1.5.18,2.26.2a11.25,11.25,0,0,0,1.16-.05c.31,0,.61-.11.92-.14s.41-.06.44.16a10.4,10.4,0,0,1,0,1.12l.05,2.37.38-.38a15.9,15.9,0,0,1-4.07-.3l-.24-.05s-.19-.07-.14,0,0-.08,0-.11a2.26,2.26,0,0,1,0-.26l0-1-.07-2.08c0-.49-.77-.49-.75,0Z"/><path class="cls-6" d="M172.18,111.85V114a.38.38,0,0,0,.37.38.39.39,0,0,0,.38-.38v-2.17a.38.38,0,0,0-.38-.38.38.38,0,0,0-.37.38Z"/><path class="cls-6" d="M173.24,112.21l.12,1.93a.38.38,0,0,0,.37.38.39.39,0,0,0,.38-.38l-.12-1.93a.38.38,0,0,0-.75,0Z"/><path class="cls-6" d="M174.24,112.45a8.71,8.71,0,0,0,.1,2.28.38.38,0,0,0,.46.26.39.39,0,0,0,.27-.46,6.37,6.37,0,0,1-.11-1,9.63,9.63,0,0,1,0-1.07.37.37,0,0,0-.37-.37.38.38,0,0,0-.38.37Z"/><path class="cls-2" d="M153.48,107.86a18.61,18.61,0,0,0,.22,3.73.85.85,0,0,0,.25.54.74.74,0,0,0,.53.08l4.48-.37a.22.22,0,0,0,.16,0,.25.25,0,0,0,0-.21l-.44-3.73a.26.26,0,0,0-.35-.28l-5.37.67"/><path class="cls-6" d="M153.11,107.86a19.61,19.61,0,0,0,0,2.17q0,.54.12,1.08a3.55,3.55,0,0,0,.19,1c.29.65,1,.51,1.58.46l2.18-.18,1-.08a2.41,2.41,0,0,0,1.07-.17c.25-.17.23-.44.2-.71l-.13-1.14-.26-2.17a1.17,1.17,0,0,0-.22-.73c-.24-.25-.59-.16-.89-.12l-5,.63c-.47.06-.47.81,0,.75l3.67-.46c.15,0,1.79-.19,1.79-.22l-.06,0c-.05,0-.07,0-.05,0s0,.16,0,.22l.05.42.11.9.21,1.81a1.5,1.5,0,0,0,0,.37l0-.08c.06-.11,0-.13-.09-.08a1.09,1.09,0,0,0-.18,0l-1,.08-1.75.15-.91.07c-.16,0-.62.13-.76,0s-.08-.29-.09-.38-.05-.33-.08-.5c0-.34-.07-.68-.1-1a20,20,0,0,1,0-2c0-.48-.73-.48-.75,0Z"/><path class="cls-6" d="M155,112.08a7.72,7.72,0,0,0,.24,2.87.37.37,0,0,0,.46.26.37.37,0,0,0,.26-.46,7.07,7.07,0,0,1-.21-2.67.38.38,0,0,0-.37-.37.38.38,0,0,0-.38.37Z"/><path class="cls-6" d="M156.24,112.21v1.33a.38.38,0,0,0,.75,0v-1.33a.38.38,0,0,0-.75,0Z"/><path class="cls-6" d="M157.69,112.21a9.69,9.69,0,0,0,.15,2.15.38.38,0,0,0,.46.26.39.39,0,0,0,.27-.46c0-.08,0-.17,0-.25a.59.59,0,0,0,0-.14c0,.06,0,0,0-.06s0-.33-.05-.49a8.51,8.51,0,0,1,0-1,.38.38,0,0,0-.75,0Z"/><path class="cls-2" d="M157.46,119.42a74.94,74.94,0,0,0,16-1,.59.59,0,0,1,.49.06.58.58,0,0,1,.13.43l.21,7.5a150.81,150.81,0,0,1-16.47,0c0-2.41-.05-4.83,0-7.24"/><path class="cls-6" d="M157.46,119.8a77.33,77.33,0,0,0,12-.41q1.35-.17,2.7-.36c.34,0,1.37-.38,1.61-.11s0,1.26,0,1.47l.16,6,.38-.37a153.37,153.37,0,0,1-16.47,0l.37.38c0-2.41,0-4.83,0-7.24a.38.38,0,0,0-.75,0c0,2.41,0,4.83,0,7.24a.38.38,0,0,0,.38.37,153.37,153.37,0,0,0,16.47,0,.38.38,0,0,0,.37-.38l-.18-6.68c0-.56.12-1.43-.55-1.65a2.5,2.5,0,0,0-1.21.09l-1.63.24a75.23,75.23,0,0,1-13.67.63c-.48,0-.48.73,0,.75Z"/><path class="cls-8" d="M137.4,89.51a26.44,26.44,0,0,1,8.73-4.45,1.91,1.91,0,0,1,1.52,0,1.85,1.85,0,0,1,.67.88,3.7,3.7,0,0,1,.45,2.14,1.49,1.49,0,0,1-1.52,1.31"/><path class="cls-8" d="M143.77,81.61a12.38,12.38,0,0,0,1.78,5.76"/><path class="cls-8" d="M137.08,83.22a43.67,43.67,0,0,1,9,14.55"/><path class="cls-8" d="M152.06,93.5a16.59,16.59,0,0,1,2.66-8,61.38,61.38,0,0,1,6,7.1"/><path class="cls-8" d="M159.94,78.92a30.65,30.65,0,0,0,1.45,6"/><path class="cls-8" d="M164.07,78.23v3.82"/><path class="cls-8" d="M168.57,87.85a63.67,63.67,0,0,0,12.11-.45"/><path class="cls-8" d="M186.62,94.11l15.14-28.92"/><path class="cls-8" d="M140.77,106.37q-18.5-11.22-36.5-23.2"/><path class="cls-8" d="M162.79,137.27v5.79a16.4,16.4,0,0,0,3.3-1.1,8.74,8.74,0,0,0-3.25-1.7,3.22,3.22,0,0,1,1.91-.39c.67,0,1.46-.37,1.51-1s-.7-1.13-1.37-1.2a6.54,6.54,0,0,1-2-.2"/><path class="cls-8" d="M168.58,138.48a9.7,9.7,0,0,0,0,2.22,1.39,1.39,0,0,0,.57,1.16,1,1,0,0,0,1.24-.41,1.78,1.78,0,0,0,.19-1.83,1.8,1.8,0,0,0-1.56-1"/><path class="cls-8" d="M172.29,138.36v1.93a.8.8,0,0,0,.06.38.6.6,0,0,0,.37.29,1.35,1.35,0,0,0,1.62-1.41,1.74,1.74,0,0,0-1.8-1.45"/><g class="cls-4"><path class="cls-9" d="M172.67,119.38c.08,1.26,1,5.3-.67,5.86-1.05.36-.6,2.06.47,1.69,3.06-1.06,2.1-5.1,1.95-7.55-.06-1.12-1.81-1.13-1.75,0Z"/></g><g class="cls-4"><path class="cls-9" d="M154.22,112.76l4.2-.19c1.13,0,1.13-1.8,0-1.75l-4.2.19c-1.12.06-1.13,1.81,0,1.75Z"/></g><g class="cls-4"><path class="cls-9" d="M171.28,111.41l4.48.9c1.1.23,1.57-1.46.46-1.68l-4.47-.91c-1.1-.22-1.57,1.46-.47,1.69Z"/></g><g class="cls-4"><path class="cls-9" d="M163.86,100c4.09.51,9.38,1,13.16,2.89,4.75,2.33,5.6,8.21,5.22,13-.44,5.51-2,10.48-7.4,12.94-3.69,1.68-8.13,2.41-12.09,3.07-1.33.22-.77,2.25.56,2,4.87-.82,12.85-1.76,16.77-5.08,3.48-2.94,4.26-10.16,4.34-14.48.07-4.08-.85-9.56-4.26-12.25-4.11-3.25-11.32-3.62-16.3-4.24-1.34-.17-1.33,1.93,0,2.1Z"/></g><g class="cls-4"><path class="cls-9" d="M193.46,119.12c-1.54,7.66-10.06,9.55-14.74,14.63-3.07,3.32-2.33,8.48-1.72,12.59.19,1.33,2.22.77,2-.56-.67-4.58-.9-9.1,3.27-12.1,1.82-1.31,3.66-2.55,5.42-3.93,3.49-2.75,6.87-5.55,7.78-10.08.26-1.32-1.76-1.88-2-.55Z"/></g></g></g></svg>