<svg xmlns="http://www.w3.org/2000/svg" viewBox="0 0 230.52 174.88"><defs><style>.cls-1{fill:#c2e8f4;}.cls-2,.cls-5{fill:#fff;}.cls-3,.cls-8{fill:#231f20;}.cls-4{fill:#f9b19d;}.cls-4,.cls-5,.cls-6,.cls-7,.cls-8,.cls-9{stroke:#231f20;stroke-miterlimit:10;stroke-width:0.6px;}.cls-6{fill:#9e684f;}.cls-7{fill:#fbaf61;}.cls-9{fill:none;}.cls-10{opacity:0.14;}.cls-11{fill:#896b4a;}</style></defs><g id="Layer_2" data-name="Layer 2"><g id="Layer_1-2" data-name="Layer 1"><rect class="cls-1" x="1.75" y="1.75" width="227.02" height="171.38"/><path class="cls-2" d="M228.77,171.38H1.75l1.75,1.75V1.75L1.75,3.5h227L227,1.75V173.13a1.75,1.75,0,0,0,3.5,0V1.75A1.77,1.77,0,0,0,228.77,0H1.75A1.77,1.77,0,0,0,0,1.75V173.13a1.77,1.77,0,0,0,1.75,1.75h227A1.75,1.75,0,0,0,228.77,171.38Z"/><path class="cls-3" d="M24.82,30.18a22.14,22.14,0,0,0,6.5,4.49L29.65,37a.22.22,0,0,1-.19.12A.5.5,0,0,1,29.2,37a21.2,21.2,0,0,1-5.41-4.79L24,39H21.22l.18-6.69a18.78,18.78,0,0,1-5.29,4.79.62.62,0,0,1-.23.09.29.29,0,0,1-.22-.14l-1.55-1.95a20.73,20.73,0,0,0,6.13-5h-2.6l-2.92.06-.12-.13V28l.12-.12,2.92.05h3.67V22.48l.12-.12h2.32l.12.12V28h3.89l2.91-.05.12.12v2.06l-.12.12-2.91-.05Zm-6.44-2.62-.23,0a13.22,13.22,0,0,0-2-2.81l0-.15,1.81-1,.19,0a11.89,11.89,0,0,1,2.11,2.64l0,.17Zm10.89-3.18a20.09,20.09,0,0,1-2,3.21.18.18,0,0,1-.17.09.52.52,0,0,1-.21-.05L25,26.82a16.93,16.93,0,0,0,1.79-3.42l.16-.09,2.26.9Z"/><path class="cls-3" d="M40.26,27.93c0,.28,0,.65,0,.91a18.91,18.91,0,0,0,2.34-2.14h-7l-3,.05-.13-.14v-2.3l.16-.1,3,.05h7.82l1.75-.09,1.23,1.65a.51.51,0,0,1,.09.25.52.52,0,0,1-.14.33,39,39,0,0,1-3.87,3.93c-.28.25-.36.25-.63.07l-1.61-1.08C40,33.09,39,35.58,36,37.82a.56.56,0,0,1-.32.12.81.81,0,0,1-.38-.14L33,36.6c3.67-2.1,4.41-4.35,4.34-8.65l.12-.15h2.71Z"/><path class="cls-3" d="M53.18,29.67c.71.52,1.43,1.14,2.08,1.72a40.07,40.07,0,0,0,3.07-3.08H51l-2.59.06-.12-.14V25.91l.14-.12,2.51.05h8.38l1.88-.09,1.18,1.62a.65.65,0,0,1,.17.4.54.54,0,0,1-.21.4,61,61,0,0,1-5.27,5c.46.46.9,1,1.34,1.46l0,.18-2,1.72h-.16a27.45,27.45,0,0,0-5-5.15v-.17L53,29.67Z"/><path class="cls-3" d="M64.26,26.38,66.32,25h.19a18.67,18.67,0,0,1,2.9,3.4l0,.2-2.24,1.54-.2,0a17.92,17.92,0,0,0-2.7-3.57Zm9.65-1.49,2.6.79.07.16c-1.29,5.48-3.76,9.36-8.19,12.24a1,1,0,0,1-.39.16.8.8,0,0,1-.35-.13l-2.37-1.26c4.92-2.81,7.31-6.34,8.45-11.91Zm.7-2,1-.4.18,0a10.37,10.37,0,0,1,1.23,2.18l-.06.16-1.1.42-.18,0a11.35,11.35,0,0,0-1.17-2.2Zm1.88-.65,1-.38h.18A9.54,9.54,0,0,1,78.89,24l0,.18-1,.4-.18-.05a9.73,9.73,0,0,0-1.17-2.11Z"/><path class="cls-3" d="M80,27l1.7-1.91.17,0a18,18,0,0,1,3.57,2.42v.18l-1.83,2.12-.15,0A21.19,21.19,0,0,0,80,27.17Zm13.61,1.46a1,1,0,0,1,.07.34c0,.12-.06.19-.18.31a34.39,34.39,0,0,1-11.57,8.12l-.18,0-1.58-2.37,0-.18a31.63,31.63,0,0,0,12.43-8.94Z"/><path class="cls-3" d="M21.08,51.28c-1.33.95-2.72,1.85-4.26,2.74-.36.2-.44.2-.76-.07l-1.88-1.63A30.15,30.15,0,0,0,24.77,44.4H25l2.2,1.53,0,.21C26.07,47.3,25,48.3,24,49.18v4L24,58.75H21l.08-5.46Z"/><path class="cls-3" d="M33.64,49.69a21,21,0,0,1-1.92,2.66.39.39,0,0,1-.24.18.9.9,0,0,1-.39-.12l-2.14-1a17.27,17.27,0,0,0,4.16-7.24l.14-.05,2.51.74.06.17c-.28.77-.57,1.51-.9,2.21h5.29l2.67-.05.16.11v2.3l-.13.14-2.7-.05h-.88c-.54,3.89-1.9,6.76-5.2,9.11-.18.12-.28.19-.39.19a1.07,1.07,0,0,1-.4-.17l-2.23-1.3a10.13,10.13,0,0,0,5.34-7.83Z"/><path class="cls-3" d="M45.19,50.23l-.58-2.32.07-.14c4.9-1.19,8.82-2,13.77-2.9l.16.09.51,2.34-.12.16a8.64,8.64,0,0,0-4.73,1.36,6,6,0,0,0-2.54,4.57,2.22,2.22,0,0,0,1.7,2.37,14.65,14.65,0,0,0,4.2.39l.12.12-.14,2.67-.14.11a14.14,14.14,0,0,1-5.55-.81,4.57,4.57,0,0,1-2.83-4.6,6.69,6.69,0,0,1,2.36-5c-1.73.43-3.6.92-6.1,1.62Z"/><path class="cls-3" d="M62.77,48l-.45-2.24.1-.16c2.67-.6,5.37-1,7.29-1.27a1.59,1.59,0,0,1,1.62,1.53,1.22,1.22,0,0,1-.32.91c-1.42,1.41-2.41,2.31-3.87,3.75a4.28,4.28,0,0,1,2.2-.46,4.24,4.24,0,0,1,4.43,4.53c0,3.2-2.41,5-6.47,5-2.07,0-3.83-.86-3.83-2.87a2.78,2.78,0,0,1,2.69-2.44,3.69,3.69,0,0,1,3.57,2.6,2.44,2.44,0,0,0,1.35-2.55,2.22,2.22,0,0,0-2.39-2.21c-2.51,0-4.32,1.65-6.18,4.06l-.18,0-1.88-1.51v-.2c2.42-2.77,4.63-5.2,7-7.51-1.34.28-2.88.65-4.5,1.1Zm3.57,8.35c-.35,0-.67.14-.67.45s.4.71,1.3.71a2.07,2.07,0,0,0,.56-.06A1.33,1.33,0,0,0,66.34,56.31Z"/><path class="cls-3" d="M90.43,57a4.41,4.41,0,0,1-3.34,1.47,4.29,4.29,0,0,1-3-1.09,5.59,5.59,0,0,1-3.74,1.27C78,58.68,76,57.36,76,55c0-1.91,1.16-3,3-3.88a5.09,5.09,0,0,1-1.13-3c0-2,1.39-3.55,3.88-3.55a3.75,3.75,0,0,1,4,3l-2.6.79c-.25-1.19-.71-1.77-1.39-1.77a1,1,0,0,0-1,1.09c0,.67.21,1.07,1.2,2.26l3.12,3.8a6.48,6.48,0,0,0,.56-2.6H84V49.33h6.3v1.85H88.2a8.2,8.2,0,0,1-1.74,4.25,1.85,1.85,0,0,0,1.42.77,1.65,1.65,0,0,0,1.29-.6ZM80.09,52.57a2.17,2.17,0,0,0-1.2,1.91c0,1.18.76,1.91,2.27,1.91a3.08,3.08,0,0,0,1.63-.4Z"/><path class="cls-3" d="M106.08,51.58l0,1.92-.09.08H103.6v.54h1.16l2.27,0,.14.08v1.32l-.09.11-2.32-.06H103.6v.6h2.78l2.14-.05.1.09v1.47l-.12.12-2.12,0h-1.9a25.52,25.52,0,0,1,3.7.9l0,.17L107,60.15l-.17,0a41.41,41.41,0,0,0-5.29-1.46l0-.18.93-.84H98.1l1.43.74-.06.17a18.72,18.72,0,0,1-5.85,1.6c-.21,0-.26,0-.4-.14l-1.28-1.46a18.46,18.46,0,0,0,4.76-.91H94.49l-2.31,0-.12-.1V56.17l.11-.09,2.32.05h2.4v-.6h-.84l-2.3.06-.13-.09V54.18l.11-.1,2.32,0h.84v-.54H94.66l-.12-.08,0-1.85V50.19l0-.66-.86.26a.72.72,0,0,1-.28.05.47.47,0,0,1-.4-.22l-1.16-1.55a21.64,21.64,0,0,0,5.18-1.39H95l-2.66,0-.12-.1V45.15l.11-.1L95,45.1h.64c-.26-.28-.56-.58-.8-.79l0-.16,1.67-.88h.16a10.62,10.62,0,0,1,1.47,1.2v.14l-.86.49h1.79V43.36l.08-.09h2.22l.1.09V45.1h1a11.31,11.31,0,0,0,1.26-1.81l.16,0,2,.81,0,.16c-.3.36-.52.65-.75.89h.61l2.67-.05.11.09v1.51l-.11.08-2.67,0H103.5a22.27,22.27,0,0,0,5.51,1l-1.11,1.67c-.14.21-.22.28-.38.28a1.57,1.57,0,0,1-.25,0c-.39-.09-.77-.17-1.16-.28l0,1ZM104,48.68a10.81,10.81,0,0,1-2.53-1.35l.07,1.06H99l.06-.85a19.61,19.61,0,0,1-2.23,1.16h6.71ZM99.16,50H96.89v.52h2.27Zm-2.27,1.67v.54h2.27v-.54Zm2.2,1.86v.54h2.28v-.54Zm0,2v.6h2.28v-.6ZM103.72,50h-2.46v.52h2.46Zm-2.46,2.21h2.46v-.54h-2.46Z"/><path class="cls-3" d="M116,48.89a21.28,21.28,0,0,1-3.5,3.64c-.19.14-.3.21-.42.21a.59.59,0,0,1-.28-.1l-2.09-1.27a17.75,17.75,0,0,0,5.81-7.08l.16,0,2.51.93,0,.18c-.23.44-.46.84-.72,1.26l2.24,0,1.34-.11,1.53,1.42c.16.14.24.25.24.37a.86.86,0,0,1-.1.35c-2.21,4.76-5.06,8-10,10.3a1.78,1.78,0,0,1-.46.14.47.47,0,0,1-.29-.14l-2.18-1.69a15.84,15.84,0,0,0,9.57-8.34Zm5-3.79.92-.65.17,0a11,11,0,0,1,1.79,1.87v.17l-1,.69h-.17a11.58,11.58,0,0,0-1.74-1.9Zm1.65-1.1.9-.66h.18a9.92,9.92,0,0,1,1.73,1.81v.17l-.92.67h-.17a11,11,0,0,0-1.72-1.83Z"/><path class="cls-3" d="M127.29,49.42a11,11,0,0,1,1.6,2.86l-.07.16-1.9.88-.16,0a10.9,10.9,0,0,0-1.54-2.9l.07-.14,1.84-.81Zm8.61.23a15.72,15.72,0,0,1-2.45,5.48,12.64,12.64,0,0,1-4.3,3.81.63.63,0,0,1-.28.11.45.45,0,0,1-.26-.11l-1.86-1.21a11.41,11.41,0,0,0,4.47-3.58,12.17,12.17,0,0,0,2.29-5.38l.16-.07,2.14.79Zm-5.36-1.14a9.5,9.5,0,0,1,1.62,2.74l-.08.16-1.86.87-.15,0a11.93,11.93,0,0,0-1.59-2.83l.06-.14,1.84-.81Z"/><path class="cls-3" d="M149.87,57.9A32.29,32.29,0,0,0,146,53.74a20.66,20.66,0,0,1-6,4.41.87.87,0,0,1-.38.12.52.52,0,0,1-.29-.12l-2.07-1.6c4-1.88,7.57-4.53,9.19-8.18h-4.18l-2.62.05-.12-.14V45.89l.16-.1,2.63.05h5l1.79-.09,1.07,1c.13.13.2.22.2.32a1,1,0,0,1-.16.42,35.37,35.37,0,0,1-2.43,4.06,37.52,37.52,0,0,1,4.45,4.2l0,.19-2.07,1.93Zm-.63-13.17.92-.65h.17a10.54,10.54,0,0,1,1.79,1.86v.17l-1,.69H151a10.76,10.76,0,0,0-1.74-1.9Zm1.65-1.1.9-.65.17,0a10.31,10.31,0,0,1,1.74,1.81v.17l-.92.67h-.17a11,11,0,0,0-1.72-1.83Z"/><path class="cls-3" d="M14.57,72.85l-.13-.11V71l.11-.09,2.14,0H28.86l2.06,0L31,71v1.68l-.12.13-2-.06h-6v4l.05,2.56a11.33,11.33,0,0,0,2.31-1.28A9.33,9.33,0,0,1,23.91,76l.05-.16,1.64-.66h-.23l-2,0-.12,0V73.43l.11-.11,1.91.05h3.41l.63-.05.74.74a.48.48,0,0,1,.19.37,1.48,1.48,0,0,1-.07.31A9.77,9.77,0,0,1,28.39,78a10.66,10.66,0,0,0,2.77,1.11L30,80.87c-.07.13-.12.18-.23.18a.76.76,0,0,1-.21,0,10.12,10.12,0,0,1-2.77-1.44A11.14,11.14,0,0,1,24.56,81a.73.73,0,0,1-.3.1c-.12,0-.17-.08-.3-.24l-1-1.21,0,1.52H20.56l0-1.65c-1.55.34-3.27.64-5.44,1L15,80.43l-.62-1.7.12-.16c.6,0,1.18-.12,1.76-.19V72.81ZM28.63,68l.06,2.47-.16.13-2.41-.06H19.45l-2.64.06-.12-.13,0-2.4v-.88l0-2.09.12-.11,2.73.06H26l2.6-.06.14.14-.06,2.15ZM18.48,72.79v.74h2.16v-.74Zm0,2.17v.73h2.16V75Zm0,3.16c.72-.09,1.43-.18,2.15-.3v-.7H18.48Zm7.66-11.61h-7v.59h7Zm-7,2.47h7V68.4h-7Zm6.58,6.26a8.55,8.55,0,0,0,1,1.4,6.14,6.14,0,0,0,.82-1.47H25.61Z"/><path class="cls-3" d="M37.75,76.48l.66-.65.18,0a13.12,13.12,0,0,1,1.81,1.49l0,.18L39.19,78.8H39a13.41,13.41,0,0,0-1.25-1.35l.11,3.65H35.36l.17-3.42a11.21,11.21,0,0,1-2,2.28.59.59,0,0,1-.28.14c-.09,0-.16,0-.27-.17l-1.19-1.46a14.46,14.46,0,0,0,3.12-3.08h-.36l-2,.06-.12-.11V73.55l.1-.11,2,.06h.94v-1l.09-.08h2.09l.11.08v1h.75l2.06-.06.1.09v1.83l-.1.09-2.06-.06h-.75Zm2.9-6.36.12.13V72l-.12.12-2,0H34.24l-2,0L32.14,72V70.25l.13-.13,1.77.06a11.88,11.88,0,0,0-.37-1.41l.11-.15,1.75-.37.16.14a12.51,12.51,0,0,1,.49,1.79H37c.18-.62.32-1.23.44-1.85l.16-.08,1.86.42.13.14c-.14.44-.28.91-.44,1.35Zm-2.46-3.91,2.21,0,.12.1V68l-.12.13-2.21-.06H34.85l-2.14.06L32.58,68v-1.7l.13-.12,2.14,0h.56V64.52l.12-.12h2.13l.1.14v1.67Zm5.25,6.36c0,4.46-.62,6.41-2.3,8.37-.11.11-.18.18-.27.18a.45.45,0,0,1-.24-.11L39,79.89c1.71-1.91,2.13-3.42,2.13-6.81V68.7l-.06-2.91.13-.13,1.7.3a15.63,15.63,0,0,0,3.76-1.1h.16a11.61,11.61,0,0,1,1.6,1.56v.17a25.31,25.31,0,0,1-5,1.29v2.23H46.6l1.81-.06.1.13V72l-.1.12-1.37,0V76.9l.09,4.22H44.61l.09-4.22V72.09H43.44Z"/><path class="cls-3" d="M50,72.16v-2.3l.16-.1,2.41,0h6.74l2.46,0,.12.14c-.61,5.56-3.26,8.52-8.14,10.2a1.58,1.58,0,0,1-.37.09A.59.59,0,0,1,53,80l-2-1.66c4-1.22,6.67-3.07,7.44-6.09H52.55l-2.42,0Zm7.89-3.69H53.83l-2.14.06-.12-.14V66.12l.16-.1,2.12,0h4l2.42,0,.14.12v2.25l-.12.14Z"/><path class="cls-3" d="M63.74,69.16l1.7-1.91.18,0a18.88,18.88,0,0,1,3.56,2.42v.18l-1.82,2.12-.16,0a20.18,20.18,0,0,0-3.45-2.63Zm13.61,1.46a1,1,0,0,1,.07.33c0,.12,0,.19-.18.32a34.27,34.27,0,0,1-11.57,8.11l-.18,0L63.91,77l0-.17a31.83,31.83,0,0,0,12.43-8.94Z"/><path class="cls-3" d="M88.46,67.33l2-.37.13.11L91,69.26l-.1.15-2.07.26L86.71,70l.37,2.08,2.81-.41,2.19-.38.16.08.37,2.2-.09.16L90.41,74l-2.9.42.21,1.14.83,4-2.9.58L85,76.22l-.26-1.41-3.11.46-2.14.39-.16-.07-.44-2.22.1-.15,2.23-.28,3.08-.46L84,70.41l-1.88.28L80,71.06,79.84,71l-.42-2.2.1-.15,2.15-.27,1.84-.28L83.12,66l.09-.18,2.51-.4.16.12.41,2.16Z"/><path class="cls-3" d="M94.1,69.16l1.7-1.91.18,0a18.88,18.88,0,0,1,3.56,2.42v.18l-1.82,2.12-.16,0a20.11,20.11,0,0,0-3.44-2.63Zm13.61,1.46a1,1,0,0,1,.07.33c0,.12,0,.19-.17.32A34.41,34.41,0,0,1,96,79.38l-.17,0L94.28,77l0-.17a31.86,31.86,0,0,0,12.44-8.94Z"/><path class="cls-3" d="M115.38,70a20.8,20.8,0,0,1-3.49,3.63c-.19.14-.3.21-.42.21a.59.59,0,0,1-.28-.1l-2.09-1.27a17.81,17.81,0,0,0,5.81-7.07l.16-.06,2.51.93,0,.18c-.23.44-.46.84-.72,1.26l2.24,0,1.34-.11L122,69c.15.14.24.24.24.36a.94.94,0,0,1-.1.36c-2.22,4.76-5.06,8-10.05,10.29a1.44,1.44,0,0,1-.46.14.52.52,0,0,1-.3-.14l-2.17-1.69A15.87,15.87,0,0,0,118.74,70Zm5-3.8.92-.65h.17a10.89,10.89,0,0,1,1.79,1.86v.17l-1,.69h-.18a10.76,10.76,0,0,0-1.74-1.9Zm1.65-1.1.9-.65.17,0a10.31,10.31,0,0,1,1.74,1.81v.17l-.92.67h-.17A10.58,10.58,0,0,0,122,65.23Z"/><path class="cls-4" d="M193.22,128.94l1.85,6.94a3.6,3.6,0,0,0,.31.85,3.51,3.51,0,0,0,1,1l5.86,4.43a9.41,9.41,0,0,1,2.45,2.38c1.22,2,.83,4.49.59,6.8a41.74,41.74,0,0,0-.06,8.06.73.73,0,0,0,.19.52.75.75,0,0,0,.47.12,9.48,9.48,0,0,1,2,.3,3,3,0,0,1,1.61.85,1.3,1.3,0,0,1,.08,1.68,2,2,0,0,1-1.63.37q-4-.28-8.06-.71a4.58,4.58,0,0,1-2-.53,2.26,2.26,0,1,1,2.46-3.8,20.6,20.6,0,0,1-1.4-8,1.08,1.08,0,0,0-.12-.62,1,1,0,0,0-.55-.31A37.34,37.34,0,0,1,186,142.74a3.25,3.25,0,0,0-2.07-1,3,3,0,0,0-1.56.68l-9.6,6.48a1.26,1.26,0,0,0-.74,1.39l.38,8.4a2.32,2.32,0,0,0,.18.94c.35.68,1.4,1.07,1.25,1.82a16.22,16.22,0,0,1-9.23,1,2.77,2.77,0,0,1-1.34-.53,1,1,0,0,1-.27-1.3,1.53,1.53,0,0,1,.76-.49,21,21,0,0,1,3.59-1q-.86-7.24-2.08-14.42a32.52,32.52,0,0,0,7.58-2.36c-.73-1.91-2.14-3.46-3.29-5.15a20.84,20.84,0,0,1-3.21-7.63A18.64,18.64,0,0,0,172,134a18.85,18.85,0,0,0,7.1,1,28.39,28.39,0,0,0,4-.14,14.52,14.52,0,0,0,9.55-5.46"/><path class="cls-4" d="M196.27,119.52l7.25,7.12a1.54,1.54,0,0,1,.44.61,1.52,1.52,0,0,1-.38,1.26,14.05,14.05,0,0,1-1.71,2,1.65,1.65,0,0,1-1.06.59c-.58,0-1-.5-1.38-.94a11.8,11.8,0,0,0-3.62-2.89,1.45,1.45,0,0,1-.82-.69,1.3,1.3,0,0,1,0-.8c.34-1.16.92-2.25,1.28-3.4a4.8,4.8,0,0,0-.06-3.54"/><path class="cls-4" d="M207.33,123.72a20.14,20.14,0,0,1,1.86-2,2.88,2.88,0,0,1,1.37-.81,1.08,1.08,0,0,1,1.26.72,1.65,1.65,0,0,1-.15.84,18.81,18.81,0,0,1-1.32,2.66,7.59,7.59,0,0,0-1.14,2.34c-.17.89,0,1.83-.22,2.7a5.55,5.55,0,0,1-.84,1.5l-2.68,3.73a4.66,4.66,0,0,1-1.68,1.65,4.45,4.45,0,0,1-1.92.29,5,5,0,0,1-2.88-.65,3.33,3.33,0,0,1-1.27-2.82,6.27,6.27,0,0,1,1-3,5.93,5.93,0,0,1,2.09-2.16,3,3,0,0,1,2.9-.08c.15-1.38-2-2.4-1.52-3.71.26-.75,1.21-1,2-1a16.75,16.75,0,0,1,4.41.4"/><path class="cls-4" d="M161.36,120.79c-.58-.14-1.08.42-1.35.95a7.31,7.31,0,0,0,.1,6.86c-1.29.25-2.4-.82-3.43-1.64s-2.68-1.4-3.52-.39c-.4.48-.57,1.28-1.19,1.37-.38-1.22-1.18-2.71-2.44-2.5s-1.53,1.77-1.55,3a2.95,2.95,0,0,0,2.15,3.55l3.43,1.49a6.07,6.07,0,0,0,4,.73,15.62,15.62,0,0,0,2.37-1.29c2-1,4.72-.86,5.79-2.78"/><path class="cls-4" d="M149.52,126.11a2.52,2.52,0,0,1,2.21,3.2.8.8,0,0,0,1-.27,6.66,6.66,0,0,1,.7-.87,1.38,1.38,0,0,1,1.87.32,2,2,0,0,1,.13,2,1.4,1.4,0,0,1,1.68.16,1.43,1.43,0,0,1,.24,1.68"/><path class="cls-4" d="M174.32,135.35a17.32,17.32,0,0,1-10.24-8,26.05,26.05,0,0,1-3.41-12.73,16.67,16.67,0,0,1,1.53-8.18c1.55-3,4.39-5.08,7.35-6.68,5.09-2.74,11.47-4.23,16.57-1.5a16.93,16.93,0,0,1,3.77,2.92c4.48,4.46,7.51,10.57,7.45,16.89s-3.53,12.7-9.21,15.47c-4.87,2.37-10.61,1.93-16,1.12"/><path class="cls-2" d="M182.06,109l.17,1.27a.47.47,0,0,0,.11.27.43.43,0,0,0,.31.06,15.84,15.84,0,0,0,3.2-.67,5,5,0,0,0-.1-1.09.47.47,0,0,0-.12-.28.45.45,0,0,0-.3-.09,8.93,8.93,0,0,0-3.09.28"/><path class="cls-3" d="M181.69,109l.1.75a4.55,4.55,0,0,0,.11.74c.16.57.72.49,1.18.43a15.83,15.83,0,0,0,2.87-.63.4.4,0,0,0,.28-.36,4.31,4.31,0,0,0-.15-1.34c-.18-.5-.69-.51-1.15-.52a9.39,9.39,0,0,0-2.79.32.37.37,0,0,0,.2.72,8.81,8.81,0,0,1,2.23-.3l.54,0h.23c.1,0,0,0,0,0a1.42,1.42,0,0,1,.08.5,5.83,5.83,0,0,1,0,.59l.27-.36a17.09,17.09,0,0,1-2.35.56l-.53.07a1,1,0,0,0-.3,0s-.06,0,0,0,0,0,0,0c-.09-.41-.12-.84-.17-1.25a.38.38,0,0,0-.38-.37c-.18,0-.4.17-.37.37Z"/><path class="cls-3" d="M182.53,110.88v.26a.38.38,0,0,0,.11.27.25.25,0,0,0,.12.08.32.32,0,0,0,.14,0h.1a.42.42,0,0,0,.17-.1l.05-.08a.33.33,0,0,0,.06-.19v-.26a.26.26,0,0,0,0-.15.24.24,0,0,0-.07-.12.42.42,0,0,0-.12-.08l-.15,0h-.1a.34.34,0,0,0-.16.1l-.06.08a.3.3,0,0,0-.05.19Z"/><path class="cls-3" d="M183.87,110.34v.94a.38.38,0,0,0,.75,0v-.94a.38.38,0,0,0-.38-.38.38.38,0,0,0-.37.38Z"/><path class="cls-3" d="M184.8,110.58a3.75,3.75,0,0,0,.93,1.36.37.37,0,1,0,.53-.53,2.93,2.93,0,0,1-.38-.41l.06.07a3.08,3.08,0,0,1-.44-.74l0,.09,0,0a.41.41,0,0,0-.17-.22.37.37,0,0,0-.29,0,.38.38,0,0,0-.22.17.34.34,0,0,0,0,.29Z"/><path class="cls-2" d="M168.24,110.21a9.82,9.82,0,0,0,.33,1.7.3.3,0,0,0,.13.21.33.33,0,0,0,.17,0l2.45-.47a.63.63,0,0,0,.37-.17.57.57,0,0,0,.08-.34,7.6,7.6,0,0,0-.05-1.07.34.34,0,0,0-.13-.28.36.36,0,0,0-.27,0l-3,.73"/><path class="cls-3" d="M167.86,110.21c0,.4.11.79.19,1.19s.12.82.43,1a.77.77,0,0,0,.56,0l.61-.12,1.19-.23a2.12,2.12,0,0,0,1.08-.34c.28-.26.24-.7.23-1,0-.19,0-.38,0-.57a1.07,1.07,0,0,0-.16-.55c-.28-.38-.76-.19-1.14-.1l-2.63.63a.38.38,0,0,0,.2.73l1.86-.45.91-.22.2,0a.42.42,0,0,0,.12,0s-.12-.07-.12-.07,0,0,0,0a.43.43,0,0,1,0,0l0,.24c0,.14,0,.29,0,.43V111s0,.16,0,.2-.07,0-.1,0-.32.06-.48.09l-1.84.36-.1,0h-.07c-.09,0-.05,0,.14.09l0-.13-.12-.48c-.07-.34-.13-.68-.17-1a.38.38,0,0,0-.75,0Z"/><path class="cls-3" d="M168.84,112.22v.8a.39.39,0,0,0,.11.27.41.41,0,0,0,.26.11.44.44,0,0,0,.27-.11.46.46,0,0,0,.11-.27v-.8a.38.38,0,0,0-.38-.38.39.39,0,0,0-.26.11.4.4,0,0,0-.11.27Z"/><path class="cls-3" d="M170.07,112.32l.13.53a.39.39,0,0,0,.17.23.37.37,0,0,0,.14,0,.26.26,0,0,0,.15,0,.39.39,0,0,0,.23-.17.41.41,0,0,0,0-.29l-.13-.53a.39.39,0,0,0-.17-.23.25.25,0,0,0-.14,0h-.15a.37.37,0,0,0-.26.47Z"/><path class="cls-2" d="M171.48,111.56l.54.67"/><path class="cls-3" d="M171.21,111.83l.54.66a.35.35,0,0,0,.27.11.38.38,0,0,0,.37-.37v-.1a.42.42,0,0,0-.1-.17l-.54-.66a.38.38,0,0,0-.26-.11.37.37,0,0,0-.27.11.36.36,0,0,0-.11.26v.1a.42.42,0,0,0,.1.17Z"/><path class="cls-2" d="M170.29,119.16q8.43-.42,16.79-1.53c-.78,1-.26,2.5.18,3.72a22.45,22.45,0,0,1,1.3,7,.64.64,0,0,1-.07.41.74.74,0,0,1-.56.25q-6.52.82-13.06,1.58a.71.71,0,0,1-.52-.07.73.73,0,0,1-.23-.45l-2.81-11.71"/><path class="cls-3" d="M170.29,119.54q8.43-.44,16.79-1.53l-.32-.57a3.66,3.66,0,0,0-.14,3.2,38,38,0,0,1,1.17,4.08,20.41,20.41,0,0,1,.35,2.59c0,.32.16.87,0,1.15s-.9.24-1.25.29l-4.76.59-4.77.57-1.06.12a4.93,4.93,0,0,1-1.41.16c-.68-.18-.72-1.61-.86-2.19l-2.34-9.76c-.11-.47-.83-.27-.72.2l2.64,11c.11.5.15,1.16.66,1.42s1.45,0,2-.08l5.47-.65,5.48-.68a2.85,2.85,0,0,0,1.38-.31c.45-.36.33-1,.3-1.49a22.71,22.71,0,0,0-.78-4.78c-.41-1.49-1.67-3.58-.72-5.05a.37.37,0,0,0-.33-.56q-8.36,1.09-16.79,1.53c-.48,0-.48.77,0,.75Z"/><path class="cls-2" d="M174.53,119.16a5.48,5.48,0,0,0,.46,2.71l1.27-.17a.48.48,0,0,0,.35-.16.44.44,0,0,0,0-.3l-.34-2.51"/><path class="cls-3" d="M174.16,119.16a5.78,5.78,0,0,0,.51,2.9.38.38,0,0,0,.42.17l1.27-.17a.88.88,0,0,0,.49-.22.76.76,0,0,0,.15-.65c-.11-.85-.23-1.71-.35-2.56a.37.37,0,0,0-.46-.26.39.39,0,0,0-.26.46l.3,2.17,0,.25s0,.06,0,.09,0,0,0,0,.07,0,0,0-.06,0-.08,0l-.25,0-1.09.15.43.17a5,5,0,0,1-.41-2.52.39.39,0,0,0-.38-.38.38.38,0,0,0-.37.38Z"/><path class="cls-2" d="M181.2,118.53a2.2,2.2,0,0,0,.3,1.92,1.16,1.16,0,0,0,1.74.07l-.82-2.43"/><path class="cls-3" d="M180.84,118.43a2.31,2.31,0,0,0,.8,2.61,1.62,1.62,0,0,0,1.27.15,1.24,1.24,0,0,0,.55-.35.46.46,0,0,0,.14-.22.49.49,0,0,0,0-.29l-.15-.46-.63-1.88a.38.38,0,0,0-.73.2l.82,2.43,0-.29c.05-.07,0,0,0,0s-.09.06,0,0l-.08.06h0a1.17,1.17,0,0,1-.2.06c.07,0,0,0,0,0h-.22c.1,0,0,0,0,0a.76.76,0,0,1-.2-.06h0l-.1-.06-.08,0c.07,0,0,0,0,0a.27.27,0,0,1-.07-.08s-.07-.08,0,0a2.53,2.53,0,0,1-.13-.22c0-.07,0,0,0,0a.69.69,0,0,1-.05-.13,2,2,0,0,1-.05-.24s0,0,0,0a.17.17,0,0,1,0-.07.49.49,0,0,1,0-.12v-.26s0-.08,0-.11,0,0,0-.08,0,0,0,0a2.38,2.38,0,0,1,.05-.26.39.39,0,0,0-.26-.46.38.38,0,0,0-.46.26Z"/><path class="cls-5" d="M111.5,148c4.1-.56,8.1,1.34,12.17,2.08,2.31.42,4.67.47,7,1,.77.16,1.54.37,2.32.47a12.37,12.37,0,0,0,3,0,2.7,2.7,0,0,0,.75-.15,3.09,3.09,0,0,0,.91-.61,84.87,84.87,0,0,0,6.68-6.17,24.94,24.94,0,0,1,4-3.87,167.55,167.55,0,0,0-21-4,2.72,2.72,0,0,0-.9,0,2.64,2.64,0,0,0-.77.33c-3.5,2.07-6.2,5.27-9.65,7.41a15.8,15.8,0,0,0-4,2.88"/><path class="cls-6" d="M131.18,140.48a1.86,1.86,0,0,1,2.9,1.54,3.26,3.26,0,0,1-1.36,2.27l3,1.61a1.88,1.88,0,0,1,.87.72,1.27,1.27,0,0,1-.38,1.47,3.35,3.35,0,0,1-1.5.63c.58.79,2,.39,2.66,1.1a1.49,1.49,0,0,1-.32,2.09,4,4,0,0,1-2.25.69c-2.36.22-4.73.24-7.1.25a4,4,0,0,1-1.72-.23,1.38,1.38,0,0,1-.89-1.37,1.6,1.6,0,0,1,1.3-1.15c.59-.15,1.23-.14,1.8-.34a25.19,25.19,0,0,1-2.75.05,2.15,2.15,0,0,1-1-.21c-.75-.46-.56-1.71.14-2.25a4.31,4.31,0,0,1,2.53-.63,3.79,3.79,0,0,0,2.49-.74l-3.16-.07a.5.5,0,0,1-.39-.12.53.53,0,0,1-.07-.45,6.93,6.93,0,0,1,.83-2.83,2.37,2.37,0,0,1,2.51-1.15,5.75,5.75,0,0,1-3.46-2.16c.58-.35,1.29.14,1.87.52a6.06,6.06,0,0,0,3.3,1"/><path class="cls-7" d="M111.1,147.86c3,.62,6.1.53,9.14.89,4.65.56,9.16,2.15,13.84,2.32A8,8,0,0,0,136,151a7.7,7.7,0,0,0,2.26-1c3.58-2.19,6.28-5.54,9.32-8.45a.55.55,0,0,1,.24-.15c.28-.06.44.32.46.61.18,2.15-.09,4.31,0,6.46.12,3.11,1,6.2.63,9.29a1.25,1.25,0,0,1-.16.57,1.45,1.45,0,0,1-.62.46,25.31,25.31,0,0,0-3,1.62c-2.42,1.6-4.19,4.09-6.78,5.42a3.16,3.16,0,0,1-1,.35,4,4,0,0,1-1.6-.22c-4.39-1.14-9-1-13.45-1.84-3-.55-6-1.54-9-1.38-.47,0-1.06,0-1.26-.41a1,1,0,0,1-.09-.43l-.52-8.78a32.9,32.9,0,0,1,0-4.76"/><path class="cls-8" d="M115.89,155.69a10,10,0,0,0,5.69,1.68,14.76,14.76,0,0,0,5.83-1.32c-1,1.41-2.89,1.76-4.59,1.9a10.22,10.22,0,0,1-5.3-.59,3.23,3.23,0,0,1-1.71-1.66"/><path class="cls-8" d="M126.3,155.34l1.71-.2c.05,0,.12,0,.15,0a.14.14,0,0,1,0,.11,3.52,3.52,0,0,1-.36,1.89,7.62,7.62,0,0,0,1.28-2.16.65.65,0,0,0,.06-.45.47.47,0,0,0-.41-.3,1.18,1.18,0,0,0-.52.08,6.09,6.09,0,0,0-1.77.92"/><path class="cls-4" d="M135.7,151.51a58.47,58.47,0,0,0,.51,12"/><path class="cls-9" d="M79.52,91.87l53.9,2.43"/><path class="cls-9" d="M53.47,156.68l84.81-38.58"/><path class="cls-9" d="M73.36,118.37q3.33,5.07,6.91,9.95a37.57,37.57,0,0,0,1.88-6.23"/><path class="cls-9" d="M85.84,112.85a22.93,22.93,0,0,0,2.09,9.47"/><path class="cls-9" d="M98.36,108.87a21,21,0,0,1,4,2.7"/><path class="cls-9" d="M95.49,111.4A37.39,37.39,0,0,1,97,117.57c1.65.05,3.44-1.4,4.76-.41a2.34,2.34,0,0,1,.77,1.92c0,2.43-2.09,4.29-4,5.82"/><path class="cls-9" d="M109,107.57l3.75,10"/><path class="cls-9" d="M109.19,109.68A4.66,4.66,0,0,1,112,108a21.05,21.05,0,0,0-3.2,7.68l6.24-4.91c.61-.48,1.41-1,2.11-.64a2.12,2.12,0,0,1,.89,1.64l.26,1.33a3.39,3.39,0,0,1,0,2,1,1,0,1,1-1.69-1,3.45,3.45,0,0,1,1.59-.9l3.44-1.2"/><path class="cls-9" d="M124.83,109.11a37.87,37.87,0,0,0,9-4.73"/><g class="cls-10"><path class="cls-11" d="M175.14,160.27a9.44,9.44,0,0,1,2.18-12.88,19.45,19.45,0,0,1,4.45-2.31c4.14-1,2.38.18,4.46,1.24,2.35,1.19,4.6,2.16,7,3.23,4.41,2,4.11,4.15,4.82,8.51.22,1.33,2.24.77,2-.56-.75-4.58-.3-7.77-4.85-9.48a54.12,54.12,0,0,1-5.43-2c-1.46-.74-2.5-2-3.82-2.85-1.09-.72-1.64-1.2-3-1-3.3.48-9.5,4.15-10.94,7.47s-.73,8.61,1.3,11.66c.74,1.12,2.56.07,1.81-1.06Z"/></g><g class="cls-10"><path class="cls-11" d="M166.35,132.57c3.43,3.54,8,4.71,12.84,4.18,4.67-.51,11.38-1.73,14.34-5.75.8-1.09-1-2.14-1.81-1.06-2.18,2.95-7.65,3.89-11.11,4.49-4.69.82-9.35.19-12.77-3.35-.94-1-2.43.52-1.49,1.49Z"/></g><g class="cls-10"><path class="cls-11" d="M163.3,163.5a14.21,14.21,0,0,0,10.63-.82c1.21-.59.15-2.4-1.06-1.81a12,12,0,0,1-9,.6c-1.29-.4-1.85,1.62-.56,2Z"/></g><g class="cls-10"><path class="cls-11" d="M198.8,157.24c-3.1-.29-3.76,3.31-2.28,5.38,2.15,3,6.83,1.94,10,1.93a1.05,1.05,0,0,0,0-2.1l-4.5,0a7.05,7.05,0,0,1-2.87-.21l-.59-.46c-.9-.71-.82-1.53.23-2.46,1.34.13,1.33-2,0-2.1Z"/></g><g class="cls-10"><path class="cls-11" d="M197.44,131.83c-.3,1.95-.57,4.21.71,5.89a4.26,4.26,0,0,0,5.08,1.15c2.16-.85,3.31-2.93,4.23-4.93,1.29-2.79,2.44-5.59,2.32-8.71-.06-1.35-2.16-1.35-2.1,0,.12,3.15-1.19,6.18-2.65,8.93-.62,1.17-2,3.31-3.58,3a2.85,2.85,0,0,1-2.15-2.34,10.4,10.4,0,0,1,.17-2.43c.2-1.32-1.82-1.89-2-.56Z"/></g><g class="cls-10"><path class="cls-11" d="M147.2,127c-1.27,3.82,1.24,6,4.63,7a13.69,13.69,0,0,0,6.36.77c2.54-.44,4.57-2.17,7.07-2.77,1.31-.31.75-2.33-.56-2-2.06.49-3.69,1.71-5.67,2.37-2.85.95-11.39-.07-9.81-4.84.43-1.28-1.6-1.83-2-.56Z"/></g><g class="cls-10"><path class="cls-11" d="M185,118.71l.75,4.69a20.87,20.87,0,0,1,.37,2.35,1.66,1.66,0,0,1-.07,1.14c.07.72-.29,1-1.09.87a24.16,24.16,0,0,1-4.33.92l-5.28,1.13c-1.32.28-.76,2.31.56,2l7.68-1.64c1.31-.28,3.47-.29,4.39-1.4.74-.89.4-2.12.24-3.14-.39-2.5-.8-5-1.19-7.51-.21-1.33-2.24-.76-2,.56Z"/></g><g class="cls-10"><path class="cls-11" d="M183.57,111.76l2.46-.54c1.32-.29.76-2.32-.56-2l-2.46.55c-1.32.29-.76,2.31.56,2Z"/></g><g class="cls-10"><path class="cls-11" d="M169.9,113.07a6.29,6.29,0,0,1,2.18-.49c1.35,0,1.35-2.15,0-2.1a9.11,9.11,0,0,0-3.24.78,1.05,1.05,0,0,0-.38,1.43,1.08,1.08,0,0,0,1.44.38Z"/></g><g class="cls-10"><path class="cls-11" d="M195.1,128.55a17.28,17.28,0,0,0,3.47,1.86,1.05,1.05,0,0,0,1.29-.73,1.07,1.07,0,0,0-.73-1.29,15.4,15.4,0,0,1-3-1.65c-1.11-.79-2.16,1-1.06,1.81Z"/></g><g class="cls-10"><path class="cls-11" d="M189.08,102.47c5.8,6.18,8.3,16.1,4.26,24-4.65,9-19.57,7.78-26.89,3.2-1.15-.72-2.2,1.1-1.06,1.82,7.74,4.84,23.27,6.24,29-2.54s3-20.73-3.78-27.92c-.93-1-2.41.5-1.49,1.48Z"/></g><g class="cls-10"><path class="cls-11" d="M151.49,127.69a3.09,3.09,0,0,0,1.3,1.4,3,3,0,0,0,1.06.33,4.41,4.41,0,0,0,.85,0s.19.67.23.78a4.36,4.36,0,0,0,.48.87,4,4,0,0,0,1.66,1.33c1.23.54,2.3-1.27,1.06-1.81a2.26,2.26,0,0,1-1.28-1.22,4.77,4.77,0,0,0-.66-1.45c-.87-1-2.3,0-2.88-1.27s-2.39-.16-1.82,1.06Z"/></g><g class="cls-10"><path class="cls-11" d="M112.53,163.76c6.76,1.78,14.06,3.68,21.09,3.9,5.61.18,11.15-5.47,15.55-8.44,1.11-.76.06-2.58-1.06-1.82-4.61,3.11-10.34,8.64-16.11,8a133.48,133.48,0,0,1-18.91-3.66,1,1,0,0,0-.56,2Z"/></g><g class="cls-10"><path class="cls-11" d="M134.53,152.9a49.52,49.52,0,0,1,1.61,9c.11,1.34,2.21,1.35,2.1,0a53.94,53.94,0,0,0-1.68-9.52,1.05,1.05,0,0,0-2,.56Z"/></g><g class="cls-10"><path class="cls-11" d="M147.69,142.77A52.62,52.62,0,0,1,149.47,157a1.05,1.05,0,0,0,2.1,0,54.6,54.6,0,0,0-1.86-14.73,1,1,0,0,0-2,.55Z"/></g><g class="cls-10"><path class="cls-11" d="M133.3,142.24l-.45.59a1.07,1.07,0,0,0,.21,1.65,5.84,5.84,0,0,1,3.49,5.08c0,1.35,2.15,1.36,2.1,0a7.91,7.91,0,0,0-4.53-6.89l.21,1.65.46-.59c.82-1.06-.66-2.56-1.49-1.49Z"/></g></g></g></svg>