<svg xmlns="http://www.w3.org/2000/svg" viewBox="0 0 14.96 18.54"><defs><style>.cls-1{fill:#fff;}</style></defs><title>eight-icom</title><g id="Layer_2" data-name="Layer 2"><g id="Layer_1-2" data-name="Layer 1"><path class="cls-1" d="M14,10.36a4.2,4.2,0,0,1,.93,2.9,4.55,4.55,0,0,1-1.4,3.39c-1.29,1.23-3.46,1.89-6.11,1.89s-4.88-.7-6.15-1.95A4.53,4.53,0,0,1,0,13.27,4.19,4.19,0,0,1,1.63,9.79a4.8,4.8,0,0,1,2.23-1A4,4,0,0,1,1.8,7.65a3.9,3.9,0,0,1-1-2.71,4.39,4.39,0,0,1,.87-2.78C2.78.78,4.88,0,7.47,0c4.12,0,6.73,1.86,6.73,4.81a3.92,3.92,0,0,1-3,4A4.07,4.07,0,0,1,14,10.36ZM4.37,12.91c0,1.38,1.17,2.2,3.1,2.2s3.1-.83,3.1-2.25-1.15-2.25-3.06-2.25S4.37,11.49,4.37,12.91ZM5,5.21C5,6.38,6,7.12,7.51,7.12S10,6.4,10,5.21,9,3.35,7.49,3.35,5,4.07,5,5.21Z"/></g></g></svg>