<svg xmlns="http://www.w3.org/2000/svg" viewBox="0 0 127.83 44.44"><defs><style>.cls-1{opacity:0.85;}.cls-2{fill:#f7c481;}.cls-3{fill:#8ccece;}.cls-11,.cls-12,.cls-4,.cls-9{fill:none;}.cls-11,.cls-15,.cls-4{stroke:#7c7c80;}.cls-15,.cls-4{stroke-width:0.5px;}.cls-5{opacity:0.31;}.cls-6{fill:#74a8a7;}.cls-7{fill:#7c7c80;}.cls-8{opacity:0.14;}.cls-10{fill:#896b4a;}.cls-11,.cls-12,.cls-13{stroke-width:0.4px;}.cls-12,.cls-13{stroke:#67686b;}.cls-13,.cls-15{fill:#fff;}.cls-14{fill:#fac1c2;}</style></defs><title>Asset 1</title><g id="Layer_2" data-name="Layer 2"><g id="Layer_1-2" data-name="Layer 1"><g class="cls-1"><path class="cls-2" d="M123,31.53l.15,1.37"/><path class="cls-2" d="M122.66,31.53l.15,1.37c0,.44.75.45.7,0l-.15-1.37C123.36,31.09,122.61,31.08,122.66,31.53Z"/></g><g class="cls-1"><path class="cls-3" d="M119.15,42.36a12.28,12.28,0,0,0-.08-2.5v-.92c0-.73,0-.92.68-1a5.08,5.08,0,0,1,1.45-.26c.8,0,1-.12.78.61A6.82,6.82,0,0,0,121.6,40c0,.44.12,1.17-.21,1.61-1.11-.32-1.06-2.08-1.19-3,0,.92.39,2.8-.59,3.21.79.46,2.08.2,2.88.23a5,5,0,0,0,2.09-.09c.65-.13,1.13-.27,1.31-.84s.2-1.31.38-1.9.36-1.31-.27-1.62c-.79-.31-1.27-.33-1.46.4-.19,1,.37,3.39-1.55,3.19"/><path class="cls-3" d="M120.37,42.36c0-1-.07-2-.07-2.94v-.6q.06-.46-.23.24a4.61,4.61,0,0,1,1.13-.21q.72.08,0-.2l-.36-.8a10.72,10.72,0,0,1-.37,1.64,6.14,6.14,0,0,1-.11,1.63l1.68-.4c-.62-.27-.51-1.44-.58-2-.18-1.4-2.46-1.49-2.45,0,0,.34.32,2.07,0,2.24a1.09,1.09,0,0,0-.42,1.56,1.19,1.19,0,0,0,.42.38,6,6,0,0,0,2.82.39,13.05,13.05,0,0,0,3.28-.19A2.56,2.56,0,0,0,127,41.65a10.86,10.86,0,0,0,.64-3,2.34,2.34,0,0,0-3.44-2,2.28,2.28,0,0,0-.94,2c0,.56.13,1.55-.28,1.53a1.13,1.13,0,1,0,0,2.25,2.93,2.93,0,0,0,2.73-3.78c-.08-.26.31-.81-.42,0a1.24,1.24,0,0,0-.26.54c-.13.57-.08,1.43-.61,1.74S123,41,122.34,41a5.44,5.44,0,0,1-2.11-.07v1.95c1.58-1,1.2-2.67,1.19-4.19H119c.18,1.41.16,3.24,1.8,3.94a1.3,1.3,0,0,0,1.68-.4,4.1,4.1,0,0,0,.38-1.88c0-.76.35-1.45.41-2.19.1-1.22-.88-1.62-2-1.59s-2.74.26-3.21,1.36c-.54,1.28-.05,3.07-.1,4.41a1.2,1.2,0,0,0,1.34,1,1.18,1.18,0,0,0,1.11-1Z"/></g><path class="cls-4" d="M122.5,33.18a10.61,10.61,0,0,1,1.16.08"/><path class="cls-4" d="M122.56,31.5c0,1.62.06,3.26,0,4.87a18,18,0,0,1-4.31.22c-.06,1.64-.54,5.32.62,6.52"/><path class="cls-4" d="M123.57,31.86v4.56a14.27,14.27,0,0,1,4,.85,14.22,14.22,0,0,1-1.54,5.9"/><g class="cls-5"><path class="cls-6" d="M125.81,37.42a9,9,0,0,1-1.61,4.73c-.61.95.9,1.73,1.51.83a10.62,10.62,0,0,0,1.85-5.59c0-1.07-1.7-1.06-1.75,0Z"/></g><g class="cls-1"><path class="cls-2" d="M68.39,36.68c-1.45,0-2.89-.08-4.34-.1-.9,0-2.19-.27-3,.18a4.07,4.07,0,0,0-1.43,1.64c-.45,1,.32,1.79-1.18,1.21-.55-.21-1,.73-.4,1,1,.44,1.44.66,2.12-.15s.82-1.53,1.9-2.11a5.39,5.39,0,0,1,2.28-.57,11.16,11.16,0,0,1,3.73.25.53.53,0,0,0,.28-1,11.56,11.56,0,0,0-5.61-.1A5.69,5.69,0,0,0,60.58,38c-.49.4-1.31,1.91-2,1.61l-.4,1c1.07.41,1.77.4,2.29-.51.32-.56.18-1.81.9-2.24a5.82,5.82,0,0,1,2.72-.23c1.45,0,2.89.09,4.34.1a.53.53,0,0,0,0-1Z"/></g><path class="cls-7" d="M67.48,38.39a6.57,6.57,0,0,0,.27,2,.68.68,0,0,0,.2.36.72.72,0,0,0,.41.11q3.08.18,6.18.21a6.43,6.43,0,0,0,0-2.53c1.83.07,4.47,3.13,5.81,4.38-1.85,0-4.95.06-6.77,0-3.79-.13-11.23,0-11.23,0,.94-.31,2.29-2.64,3-3.34a3.88,3.88,0,0,1,2.55-1.45"/><path class="cls-7" d="M67,38.52c.08,1.36,0,2,1,2.56,1.35.75,4.92.2,6.32.22.15,0,.65-.1.68-.31a6.83,6.83,0,0,0,0-2.59l-.79.36c2.29.46,4.07,2.78,5.66,4.32l.65-.42c-4.45.08-8.91-.06-13.36,0a36,36,0,0,1-4.18,0c-.24-.6,5-4.34,4.9-4.33.58-.13.47-.53-.11-.4-3,.67-3.37,3.37-5.74,4.83-.17.1-.3.3,0,.34,2.26.35,4.78,0,7.06,0,3.69,0,7.37.12,11.06,0,.12,0,.88-.2.65-.42-1.74-1.69-3.47-3.93-6-4.43-.2,0-.81.08-.79.36.22,2.7-1.33,2.24-3.07,2.08-2.25-.21-2.93-.2-3.06-2.47,0-.25-1-.07-1,.26Z"/><g class="cls-1"><path class="cls-2" d="M69.9,35.24a4.38,4.38,0,0,1-1-.08,3.94,3.94,0,0,1-1.64-1.21,8.65,8.65,0,0,1-1-1.94,14.39,14.39,0,0,1-.74-4.92,6,6,0,0,1,0-1.21c.08-.32.41-.81.57-1.21a4.63,4.63,0,0,1,1.06-1.13,6.4,6.4,0,0,1,3.68-.65c2.29.48,2.29,3.71,2.29,5.49a8.84,8.84,0,0,1-.82,4.12c-.33.65-.82,1.37-1.55,1.37-1.39,0-2-2.34-2-3.31a30,30,0,0,1-.16-3.79c0-.48.08-1.29.57-1.53,1.72-.89,2.29,2.82,2.37,3.71s.08,2.18.08,3.23c-.08.32,0,1.13-.33,1.21a4.81,4.81,0,0,1-.49-1.86c-.16-1.13-.25-2.26-.33-3.39a12.61,12.61,0,0,1,.25-3.07c.16-.65-.08-1-.82-1.13a1.75,1.75,0,0,0-1.55.16,4.16,4.16,0,0,0-1,2.1,10.39,10.39,0,0,0-.25,2.74,3.87,3.87,0,0,0,.74,2.18,17.15,17.15,0,0,1,.82,1.78c.08.16.16.4.25.56.16.32.57.65.57,1-.74-.08-1.39-1.21-1.72-1.78A10.87,10.87,0,0,0,66.9,31a4.9,4.9,0,0,1-.65-.65,2.31,2.31,0,0,1-.65-1,5.46,5.46,0,0,1-.82-1.69,7.47,7.47,0,0,1,.33-3,3.29,3.29,0,0,1,2.13-2,8.62,8.62,0,0,1,3.19-.32,3.29,3.29,0,0,1,2.29,1.13,3.54,3.54,0,0,1,1,2.26V29c0,.56.08,1.61-.49,2.1-.25-.32-.16-1.21-.16-1.61v-2.3c.41.08.49.81.57,1a12.35,12.35,0,0,1,.26,2.39c.08,1.13.08,2.18.08,3.23a6.53,6.53,0,0,1-.16,1.78,10,10,0,0,1-.33,2.26c-.49-.16-.57-1.69-.65-2.1a10.81,10.81,0,0,0-.49-2.34A21.58,21.58,0,0,0,72,36.62a6.38,6.38,0,0,1-.25,2.18c-.25-.08-.41-.48-.49-.73a10.72,10.72,0,0,1-.57-2.18,12.9,12.9,0,0,1-.08-1.78c-.08-.24,0-.48-.08-.73a4,4,0,0,0-.08,1.69v1.78c-.08.4,0,1.45-.33,1.86-.41-.24-.65-1.53-.74-1.94a6,6,0,0,0-.33-1.29c-.16.16-.08.81-.08,1v2.34c0,.56.08.56.57.56a11.34,11.34,0,0,0,2.37-.16c.65-.08,2.29-.56,2.21.48-.25-.32-.16-.89-.41-1.21-.08.4.08.73,0,1.13-.08.24,0,.24-.33.32h-.5c-1-.08-2-.08-2.95-.08-.25,0-1,.16-1.15,0-.33-.16-.16-1-.16-1.29a4.74,4.74,0,0,0-.25-2.42"/><path class="cls-2" d="M69.9,34.19c-3.17-.24-4.67-7.14-2.63-9.37s4.35-.53,4.68,1.6a12.49,12.49,0,0,1,.06,3c-.11,1.6-1.33,3.26-2.22,1.44-.25-.51-.63-4.45.22-3.84s.7,5.06.32,5.83l1.92.25a15.92,15.92,0,0,1-.79-6c0-.84.6-2.24.14-3.08a2.85,2.85,0,0,0-3.7-.87C66.4,24,66.09,26.48,66,28c-.08,2.63,1.45,4.41,2.4,6.76L70,33.61C68.77,33,65.75,28,65.77,26.69q1.94-4.85,5.05-2.66,2.21.25,1.81,2.54c.09,1.07.2,3-.35,4l1.92.25a17.06,17.06,0,0,1-.13-3.59l-1.79.74c1.59,1.81.67,7.44.22,9.63l1.75-.46c-.69-.79-.57-3-.88-4s-1.85-1.09-2,0c-.29,1.77-.13,3.68-.57,5.41L72.54,38c-1.08-1.07-.76-3.28-.92-4.66-.12-1.06-1.86-1.56-2.06-.28-.27,1.74.21,3.65-.41,5.33l1.92-.25a10.55,10.55,0,0,1-1-3c-.29-.93-1.8-1.07-2,0a11.55,11.55,0,0,0,0,4.44,1,1,0,0,0,.73.73c.2,0,4.42,0,4.32-.34l2-.56-.41-1.21a1.06,1.06,0,0,0-2.06.28c0,.93.66.26-.75.35a20.72,20.72,0,0,1-2.57,0c.63.57.2-2.59.06-3-.43-1.28-2.45-.73-2,.56,1,3-.8,4.45,3.06,4.48,2.66,0,4.32.62,4.32-2.42l-2.06.28L73.16,40c.43,1.27,2.41.75,2-.56-1-3.44-6.09,1.18-5.07-3.72h-2a12.22,12.22,0,0,0,1.17,3.48,1.07,1.07,0,0,0,1.92-.2c.64-1.72.13-3.55.41-5.33l-2.06-.28c.23,2,0,4.61,1.53,6.15a1.06,1.06,0,0,0,1.75-.46c.45-1.76.28-3.61.57-5.41h-2c.52,1.61.26,3.58,1.42,4.9a1.06,1.06,0,0,0,1.75-.46c.64-3.11,1.56-9-.76-11.67A1.06,1.06,0,0,0,72,27.2a18.82,18.82,0,0,0,.2,4.15,1.06,1.06,0,0,0,1.92.25c1.11-1.85,1.08-5.62.19-7.57-1.26-2.79-4.68-3.32-7.35-2.37a5.41,5.41,0,0,0-3.19,6.29,9.87,9.87,0,0,0,1.74,3.21c1.07,1.54,1.68,3.37,3.4,4.28.72.38,1.91-.28,1.54-1.19s-.9-1.81-1.3-2.75c-.3-.7-2.2-5.58-.42-6.21,1.12-.4.66,3,.69,3.44a17,17,0,0,0,.81,5c.29.77,1.48,1.13,1.92.25,1-2.1.73-5.94-.35-8.07-.75-1.48-2.48-2.63-3.79-1-2.42,3.09,1.38,14,5,8.46,2.72-4.17,1.39-13.88-5.45-11.13-5.72,2.28-3.48,13.61,2.34,14C71.25,36.39,71.24,34.29,69.9,34.19Z"/></g><path class="cls-4" d="M69.08,33.16h2.38"/><path class="cls-4" d="M68.08,36.68a40.92,40.92,0,0,0-6,.07,2.83,2.83,0,0,0-1.84.82,2,2,0,0,0-.61,1.35c0,.47.16.89-.3,1s-.81-.15-1.21-.19-1.15.35-.84.78c.08.12.42.12.55.16l.81.3a2.65,2.65,0,0,0,1.09.14A3.75,3.75,0,0,1,60.9,39a3.85,3.85,0,0,1,2.48-1.18,18.43,18.43,0,0,1,3.8.16c.5,0,.48.06.6.49a1.63,1.63,0,0,1,.12.53"/><g class="cls-8"><path class="cls-9" d="M61.79,42.47c.88-.06,1.45.86,2.17,1.36a5,5,0,0,0,3,.57l5.27-.08c2.25,0,4.77-.18,6.3-1.83"/></g><g class="cls-8"><path class="cls-10" d="M118.9,43.09a60.79,60.79,0,0,0,6.88.11c.45,0,.45-.72,0-.7a60.79,60.79,0,0,1-6.88-.11A.35.35,0,0,0,118.9,43.09Z"/></g><g class="cls-1"><path class="cls-3" d="M14.83,24c-.68,0-1.69.68-2.25.23s.45-2.5.68-2.84a14.38,14.38,0,0,1,2.24-3.49c.9-.79,1.24-.34,1.24.68s-.11,3.18-1.24,3.52a1.62,1.62,0,0,1-.11-1.25c.11-.34.68-1.25,1-1.25,1.13,0,.56,2.5.34,3.18-.11.45-1.13,2.5-1.92,1.82s-.23-4,.9-4.32c2.14-.45-.45,6.13-.9,2.16,0-.68.23-3.29,1.47-2.84.45.11.56,1.36.56,1.7,0,.68-.23,1.93-1,2.27-1.8.8-1.13-3.86-.9-4.43s1.92-3.41,2.71-2c.79,1.14.34,3.29-.23,4.43s-2.25,2.61-3.61,1.82c-1.24-.57-1.13-3.29-1.13-4.43s.23-2.84,1.35-3.63c2.71-1.82,2.93,3.41,2.25,4.77a3.59,3.59,0,0,1-2.48,1.7c-.9.11-1.24-.34-1.58-1.14a11,11,0,0,1-.32-3.9,9.88,9.88,0,0,1,.79-2.39,2,2,0,0,1,1.47-1.48,9.14,9.14,0,0,1,3.61-1.25c1.24,0,3,.45,3.72,1.59a3.81,3.81,0,0,1,.23,1.93V26.44c0,.79.23,2.39-.23,3.07-.79,0-1.69-1.7-1.92-2.27a17.71,17.71,0,0,1-1.47-6.93,14.54,14.54,0,0,1,.23-3.86,3,3,0,0,1,.45-1.7,4.41,4.41,0,0,1,.34,2.39,16.3,16.3,0,0,1-.22,4.07c-.11.79-.23,2.73-.9,3.29-.34-.23-.34-1.14-.34-1.59a9.34,9.34,0,0,1,.11-3.07c.23-1.25,1-1.48,1.47-.11.56,2.39.34,5.22.34,7.72a29.07,29.07,0,0,1,0,4.43,41.94,41.94,0,0,1-1.47-7.5c-.34-2.27-.56-4.43-.68-6.59a26,26,0,0,1,.23-3c-.45-.11-3.72.23-3.38-.68.23-.45,1.13-.34,1.47-.23.79.34,1.24,1.36,1.58,1.93.79,1.93.68,4.09.79,6,0,2.39-.11,4.77-.11,7.16,0,1.7-.11,3.41,0,5.11a23.73,23.73,0,0,0,.68,5.68c.45-1.7.34-3.75.79-5.45a13.84,13.84,0,0,1,.56-2,15.42,15.42,0,0,0,.34-2,13,13,0,0,1,.45,4.2c0,1.25.11,2.5.11,3.75,0-2.39-.11-4.88,0-7.27.11-1.25.23-2.5.23-3.75v10.9a6.44,6.44,0,0,1,0,1.48c-.23.68-1.58.91-2.14.79a21,21,0,0,0-4.62-.23c-1.47.11-2.93.8-4.4.68a61.35,61.35,0,0,0,1.13-8l.68-7.5c.11-.91.23-1.82.45-2.84,0-.23,0-1,.23-1.14.68.68.79,2.27,1,3.07l1.35,7.16c.34,1.48.68,2.84,1,4.32a5.68,5.68,0,0,0,.34,1.48,9.86,9.86,0,0,0-.11-3.63C16,31.85,16,29.92,16,27.87a15.52,15.52,0,0,1,.34-3.29,4.3,4.3,0,0,1,.11-1.25,15.28,15.28,0,0,1,.11,2.27v5.91c0,2-.11,4.2-.23,6.25a5.62,5.62,0,0,1-.45,2.39c-.56.57-.79-.11-1.13-.57a10.25,10.25,0,0,1-1.47-.91c-.79-.68-.56-2-.34-3.07.45-2.16,1.13-4.32,1.47-6.47.23-1,0-2.39.34-3.41a11.24,11.24,0,0,1,.34,3.86V38.1a2,2,0,0,1-.16,1.17c-.9-.34-1.13-2.27-1.24-3.07a38.8,38.8,0,0,1-.23-5.11,21.25,21.25,0,0,1-1.24,6.47c-.11.45-.34.79-.45,1.36-.11.34-.11,1-.34,1.25A4.57,4.57,0,0,1,11.22,38a22.67,22.67,0,0,1,.34-4.77,66.87,66.87,0,0,0,.9-6.7A18.3,18.3,0,0,0,12.12,21a29.15,29.15,0,0,0-.56-3.07c-.23-.45-.34-1.25-.56-1.7a7.8,7.8,0,0,0-.23,1.7c-.11.57-.23,1-.34,1.59-.11,1.14-.23,2.39-.23,3.63,0,1.7-.69,3.8-.47,5.5,0,.57.8.63.8,1.2s.23,1.36-.11,1.7c-.45-.23-.56-1-.79-1.48a4.93,4.93,0,0,1-.56-1.36C9,28,8.63,28,8,28H6.26a2.48,2.48,0,0,1-2.59-2.16A4.92,4.92,0,0,1,3.55,23c.23.23-1.07.81-1.07,1.15,0,.57.63,1.29.74,1.86.23,1,.4,1.87,1.3,2.33a8.93,8.93,0,0,0,3,.37c.68,0,1.8-.26,2.59-.26.56,0,.56,0,.68.57s-1.49.61-1.49,1.18c-.11,1.7.39,2.39.28,4.09s.09,4.72,0,6.43c-.11.34-.34,1-.11,1.25s2.14-.45,2.59-.57c1.35-.11,2.63.61,3.87.61a34.41,34.41,0,0,0,4.84-.09c.56,0,.87-.63,1.1-1.2a9.75,9.75,0,0,0,0-1.82,15.49,15.49,0,0,0-.23-2.27c-.23-1.36-.34-2.73-.45-4.09V30.75c0-.45-.23-1.48.11-1.7.45-.45,2.37.57,2.82.91a4.32,4.32,0,0,1,1.8,1.7,7.89,7.89,0,0,0,.56,1.48,8.67,8.67,0,0,0-.58-3.41,4.62,4.62,0,0,0-1.35-1.59c-1.24-.79-2.82-.57-4.06-.57"/><path class="cls-3" d="M14.55,23c-3.5.85,3.63-4.48.21-1.66l1.79.74q-.87-.61-.82.4-.33,1.7-.38-.41,1.23-.9.46-.79-.23,1.28-.11-.3a4.13,4.13,0,0,1,.44-1.94q2,2.28-2.25,2.52c-1.85-1.4,1.89-5.14,1.62-3.09q.18,2.23-2.61-.44a5,5,0,0,1,1.77-4.26c3.06-2.44,6,.37,6,3.52,0,3.61.8,8.36-.19,11.87L22,28.55c-3.33-1.93-3.75-10.05-2.33-13.33L17.76,15c.67,2.37.71,6.78-.68,9l1.92.25c-.27-.65,0-2.41-.37-2.84.39.47-.08,3.14-.08,3.75,0,2.25.12,4.51,0,6.75l2.06-.28a45.12,45.12,0,0,1-1.91-16.8c.06-.59-.53-1-1-1.05a3.89,3.89,0,0,0-1.15,0q-2-.44-.3,1.92a9.45,9.45,0,0,1,.7,3.3A63.13,63.13,0,0,1,17,27.26c-.07,4.27-.32,8.68.7,12.86a1.06,1.06,0,0,0,2,0c.61-3.25,1.3-6.54,1.73-9.82l-2.06.28a38.31,38.31,0,0,1,.54,7.67,1.05,1.05,0,0,0,2.1,0h0c0-3.69.09-7.33.23-11h-2.1v7.57c0,.81.45,3.51,0,4-.79,1-3.21.26-4.21.26-2,0-3.91.58-5.95.72l1,1.33A87,87,0,0,0,12.24,32c.29-3.18.1-7.23,1.23-10.26L11.55,22c2.49,4.47,2.12,10.85,3.61,15.76a1.06,1.06,0,0,0,2.06-.28c.57-4.55-.19-9.43.23-14.08h-2.1c.15,1.75.51,15.65,0,15.77-.72.18-1.2-3.75-1.06-4.85.34-2.69,1-5.57,1.43-8.26h-2c.79,3.46,1.08,9.5.23,13l1.75-.46c-1.66-1.52-1.15-5.42-1.16-7.44a1.05,1.05,0,1,0-2.1,0,31.82,31.82,0,0,1-2,8.81h2c-1-4.36.83-9,1.05-13.35A29.23,29.23,0,0,0,12,16c-.3-.91-1.82-1.09-2,0-.62,3.22-.8,6.42-1.11,9.68a14.69,14.69,0,0,0-.19,3c.11,1.06,1,1.24.73,2.62l1.92-.3c-.84-1.14-1-2.7-2-3.73-1.6-1.68-5.67.28-4.8-4,.23-1.12-1.32-1.9-1.92-.81-.93,1.69-1.28,1-.74,3.14C2.51,28.11,3.42,29.41,6,29.7c1.13.13,3.23.1,2.93-.69-.2-.5-.74,2.27-.7,1.92-.25,1.85.18,4,.18,5.88a45.24,45.24,0,0,0,0,5.21,1.07,1.07,0,0,0,1.05,1c3.2-.09,6.49.31,9.72.08,1.74-.12,3-.2,3.64-2s-.31-5.33-.47-7.22c-.09-1.11-.74-3.17.67-3.42,1.11-.2,2.13,2.18,2.56,3.15s2,.45,2-.53c-.09-4.79-2.32-6.72-7-6.62a1.05,1.05,0,1,0,0,2.1,4.73,4.73,0,0,1,4.92,4.52l2-.53c-1.08-2.46-3.35-5.09-6.37-4.57a1,1,0,0,0-.73.73c-.81,3.37,1.06,6.88.53,10.16-.49,3-4.11,2-6.5,1.76-1.92-.23-2.94.21-4.84.26L10.47,42c-.34-2.82-.84-10.07,1-12.21a1.06,1.06,0,0,0,.27-1l-.17-.5a1,1,0,0,0-.73-.73c-2.2-.31-3.6.69-5.48-.82C4,25.62,3.65,25,4.46,23.56l-1.92-.81C2.18,24.52,2.36,27,3.9,28.28c.79.64,1.42.5,2.36.79,1.66.52,1.25-.17,2.37,1.27.27.35.6,1.32.89,1.73a1.07,1.07,0,0,0,1.92-.25c.45-2-.45-2.62-.68-4.52-.38-3.19.65-7.76,1.24-10.81H10c1.63,4.93,1.57,9.69.83,14.79-.43,3-1.08,6.14-.38,9.17a1.06,1.06,0,0,0,2,0,33.48,33.48,0,0,0,2.07-9.37h-2.1c0,2.64-.43,6.91,1.77,8.92a1.06,1.06,0,0,0,1.75-.46c1-3.94.68-10.13-.23-14.07a1,1,0,0,0-2,0c-.6,3.53-2,7.58-2,11.12,0,2.64,1.27,2.37,2.6,4.21a1.12,1.12,0,0,0,1.19.48l.65-.1a1.06,1.06,0,0,0,.73-.73c1.81-4.7,1-12.17.6-17.09a1.05,1.05,0,0,0-2.1,0c-.42,4.66.34,9.53-.23,14.08l2.06-.28C15.63,32,16,25.6,13.37,20.91a1.06,1.06,0,0,0-1.92.25C9.26,27,10.18,34.47,9,40.58a1.06,1.06,0,0,0,.75,1.3l.25,0c3-.21,6-.31,9-.45a3.48,3.48,0,0,0,2.62-.84c.75-.8.52-1.43.57-2.49.18-3.61,0-7.29,0-10.9a1.05,1.05,0,0,0-2.1,0c-.14,3.69-.26,7.32-.23,11h2.1a40.77,40.77,0,0,0-.6-8.23c-.3-1.25-1.92-.81-2.06.28-.39,3-1.09,6.27-1.65,9.26h2c-1.67-6.87.17-14-.7-21-.35-2.76-1.76-7-5.23-5.34a1.06,1.06,0,0,0-.48,1.19c.52,1.85,2.89,1.36,4.39,1.45l-1-1a47.3,47.3,0,0,0,2,17.32,1.06,1.06,0,0,0,2.06-.28c.26-3.83,1.1-10.13-1-13.54a1.1,1.1,0,0,0-1.19-.48c-2.63.38-2.18,5.16-1.44,6.92A1.07,1.07,0,0,0,18.9,25c1.72-2.69,1.73-7.63.89-10.58-.22-.79-1.54-1.12-1.92-.25C16,18.44,16.46,27.79,21,30.39a1.06,1.06,0,0,0,1.54-.63c.65-2.31.26-4.94.26-7.32s.76-6.55-.14-9c-1.34-3.63-6.26-3.23-9-1.45s-4.51,8-1.54,10.3c2.45,1.93,5.26-1.13,5.55-3.44.28-2.15-.54-5.5-3.3-4.82-3.17.78-3.62,7.26-1.93,9.4,5.5,7,9.48-11.14,3.28-7.12-1.86,1.21-3.42,6.68-1.14,8.09,3.07,1.9,3.71-3.54,2.67-5.31a1,1,0,0,0-.91-.52c-2.59.23-3.8,5.77-1,6.17,2.28.33,3.45-4.78,1.1-5.43-2.8-.77-4.21,5.47-1.65,6.34,2.93,1,4.74-5.59,2.25-6.94a1.09,1.09,0,0,0-1.27.16,3,3,0,0,0-1.21,3.24,1.07,1.07,0,0,0,1.79.74c1.63-1.35,2.48-4.87.51-6.26a1,1,0,0,0-1.06,0c-2.28,1.27-4.67,5.25-4.14,8a1.07,1.07,0,0,0,1,.77,5.63,5.63,0,0,0,2.5-.34A1,1,0,0,0,14.55,23Z"/></g><g class="cls-1"><path class="cls-3" d="M17.61,10.63a30,30,0,0,1,0-3.67c.09-1,0-1.46,1.08-1.43,2.41.07,4.81-.09,7.22-.11a.88.88,0,0,0,0-1.75c-1.84,0-3.69.13-5.53.15-1,0-2.44-.36-3.33.08-2,.93-1.21,5.12-1.15,6.73a.88.88,0,0,0,1.75,0Z"/></g><g class="cls-1"><path class="cls-2" d="M28.82,3.5a1.84,1.84,0,0,0-2.18,1.24,1.84,1.84,0,0,0,.72,2.2c1.66,1,3.19-.92,2.77-2.51a2.2,2.2,0,0,0-3.65-.83A2,2,0,0,0,27.31,7,1.43,1.43,0,0,0,29,6a1.41,1.41,0,0,0-1-1.72h0a.47.47,0,0,1,.27.22.84.84,0,0,1,.31.63v.23h0v.06q0-.1-.11.12c.14-.13-.06,0-.1.06.17-.1-.16,0-.22.06a.78.78,0,0,1-.46-.09c.23.1-.14-.15.09.09L27.41,5c.09.22,0-.34,0-.08v-.1h0c.34-.67,1.76-.41,1.87.36.08.61-.4,1.1-1.23.94a1.44,1.44,0,0,0,1.72-1,1.41,1.41,0,0,0-1-1.72Z"/></g><g class="cls-1"><path class="cls-2" d="M3.12,18v3.7a.6.6,0,1,0,1.2,0h0V18a.6.6,0,1,0-1.2,0Z"/></g><g class="cls-1"><path class="cls-2" d="M2.64,21C2,20.49,1.49,19.84.79,19.42a.6.6,0,0,0-.61,1C.9,20.87,1.38,21.53,2,22s1.23-.59.61-1Z"/></g><g class="cls-1"><path class="cls-2" d="M4.22,22.11A21.71,21.71,0,0,0,6.5,20.58c.6-.49-.25-1.33-.85-.85a19.4,19.4,0,0,1-2,1.35c-.65.41,0,1.45.61,1Z"/></g><g class="cls-1"><path class="cls-2" d="M13.71,11.69c-.13-.67-.08-1.35-.16-2s-1.29-.77-1.2,0a17.07,17.07,0,0,0,.2,2.35c.2.78,1.31.44,1.16-.32Z"/></g><g class="cls-1"><path class="cls-2" d="M11.64,12.56a3.67,3.67,0,0,1-1.28-.39c-.71-.29-1,.87-.32,1.16a4.4,4.4,0,0,0,1.6.43A.6.6,0,0,0,11.64,12.56Z"/></g><g class="cls-1"><path class="cls-2" d="M9.79,15.13c-.17,0-.56.09-.71,0-.59-.48-1.45.36-.85.85a2.08,2.08,0,0,0,1.56.38.6.6,0,0,0,0-1.2Z"/></g><g class="cls-1"><path class="cls-2" d="M21.78,11.67c.1-.31.44-.54.67-.76.56-.54-.29-1.39-.85-.85a3.3,3.3,0,0,0-1,1.29c-.25.73.91,1,1.16.32Z"/></g><g class="cls-1"><path class="cls-2" d="M22.59,14.3h2.16a.6.6,0,0,0,0-1.2H22.59a.6.6,0,0,0,0,1.2Z"/></g><g class="cls-1"><path class="cls-2" d="M23.26,16.74c.76,0,1.5.29,2.26.31a.6.6,0,0,0,0-1.2c-.76,0-1.5-.29-2.26-.31a.6.6,0,0,0,0,1.2Z"/></g><path class="cls-11" d="M22.16,27.59c.64-.81.24-2.08.33-3.16.13-1.72.52-3.22.5-5,0-3.91.28-8-4.76-8.29s-7.72,2.41-8.32,7.2a53.6,53.6,0,0,0-.12,6.61c0,1.57.22,1.62-1.1,2.13-.76.29-2.9.36-3.56-.2-.94-.78-.65-3.54-.78-4.61C2.59,21.8,1.77,23.49,1.82,25a14.72,14.72,0,0,0,.73,3.38c1,1.5,4.74,1.56,6.32,1.93.29,4.21,0,8.34,0,12.57l13.48,0c-.05-4.14.07-8.26.25-12.39,3.46-.57,2,5.64,4.42,4,.2-4.17.28-7.17-4.67-7.14"/><path class="cls-12" d="M21.48,12.15a7.31,7.31,0,0,1,.88-1.75"/><path class="cls-12" d="M22.8,13.82l1.16-.1"/><path class="cls-12" d="M23.12,16.51a7.1,7.1,0,0,1,1.31.15"/><path class="cls-12" d="M13.22,12.13V10.67"/><path class="cls-13" d="M13.73,15.64v.71a12.87,12.87,0,0,0,1.39,0,5.91,5.91,0,0,0,0-.61,5.51,5.51,0,0,1-1.26,0"/><path class="cls-13" d="M18.71,15.6a7.1,7.1,0,0,0,0,.85,5.61,5.61,0,0,1,1,.09,1.57,1.57,0,0,0,.64.11c0-.53.17-.72-.43-.75a11.84,11.84,0,0,1-1.41-.21"/><path class="cls-12" d="M16.37,11.31c0-2.34.06-4.73-.08-7,1.41-.06,2.89.08,4.33.08h2.82a19,19,0,0,1,3.92-.06c0,.39-.17,1.38.2,1.64.6.42,1.11-.38,1.23-.83.37-1.4-1.47-1.8-1.51-.56"/><path class="cls-12" d="M27.28,5.1c-1.63,0-3.28-.06-4.91,0a19.27,19.27,0,0,0-4.57.3c-.12,2.08-.3,4.06-.3,6.19"/><path class="cls-12" d="M31.63,2.33A13.33,13.33,0,0,1,33.9.16"/><path class="cls-12" d="M32.63,5.4a13.33,13.33,0,0,1,3.12-.06"/><path class="cls-12" d="M31.09,8.14a11.75,11.75,0,0,0,2,3.11"/><path class="cls-11" d="M12,13.28a3.48,3.48,0,0,1-1.59-.53"/><path class="cls-11" d="M16.46,17.47v2.65a1.83,1.83,0,0,0,.52,0"/><path class="cls-11" d="M16.25,22.5h1.09c-.59,0-1.52-.16-1.83.21"/><path class="cls-11" d="M10.48,15.87a2.84,2.84,0,0,1-1.92-.43"/><path class="cls-11" d="M3.5,21.89v-4"/><path class="cls-11" d="M2.76,22.14A8.4,8.4,0,0,0,.9,20"/><path class="cls-11" d="M4.5,22.14a6.2,6.2,0,0,1,1.87-2.62"/><g class="cls-5"><path class="cls-6" d="M18.15,12.45c5.62-.1,3,11.31,3.24,14,.31,3.37,3.91,3.19,4,7.62a.88.88,0,0,0,1.75,0c.25-3.78-3.81-2.86-4.35-6-.16-.92-1.43-.73-1.69,0-1.55,4.38.2,9.59-.36,14.22-.14,1.12,1.62,1.11,1.75,0,.51-4.21-1.07-9.88.3-13.75H21.11c.33,1.92,4.38,4.25,4.29,5.56h1.75a8.37,8.37,0,0,0-2.09-5.5c-1-1.25-1.35-.5-1.89-2.55-.4-1.52.3-4.15.28-5.8-.07-4.26.24-9.62-5.3-9.52a.88.88,0,0,0,0,1.75Z"/></g><g class="cls-1"><path class="cls-14" d="M124.05,30.62c0-.62-.07-1.23-.08-1.84a.53.53,0,0,0-1-.26l-.08.17h.91a10.57,10.57,0,0,1-.53-1.37,9.11,9.11,0,0,1-.5-.9c-.39-1.27.61-1.33,1.44-1.07.59.18.88.19.45.88-.21.33-.49.6-.68,1s-.12.86-.73.45a5,5,0,0,1-1-2.57,2.53,2.53,0,0,1,2.24,0c1.08.66.16,2.08-.47,2.71-.42.43-1,.73-1.25,1.29a5.22,5.22,0,0,0-.33,2,.53.53,0,0,0,1,0,10.32,10.32,0,0,0-.66-3.69,8.55,8.55,0,0,1-.51-1.7l1.65.08c.43,0,.35-.22.72.19s-.07,1.16-.53,1.54a7,7,0,0,0-.93.75,4,4,0,0,0-.61,2.82.53.53,0,0,0,1.05,0,3.35,3.35,0,0,1,.4-2.19,4.72,4.72,0,0,1,.85-.62,2.69,2.69,0,0,0,1-1.53c.26-1.22-.33-2.17-1.6-2.07a17.45,17.45,0,0,0-2.21.09c-.46.1-.76.27-.84.76a5,5,0,0,0,.5,2c.14.45.33.89.47,1.34A6.87,6.87,0,0,1,122.5,31h1a3,3,0,0,1,.47-1.86,13.48,13.48,0,0,0,1-1,4.1,4.1,0,0,0,1-1.92,2.13,2.13,0,0,0-1.73-2.46l-.22,0c-.82-.14-2.57-.07-2.91.89-.4,1.12.74,3.16,1.51,3.91,1,1,1.66.09,2.16-.79s2-2.44.35-3.25c-.95-.48-3.13-.82-3.72.36a1.74,1.74,0,0,0,.11,1.47,21.76,21.76,0,0,0,1.38,2.87.53.53,0,0,0,.91,0l.09-.19-1-.26c0,.62.07,1.23.08,1.84a.53.53,0,0,0,1.05,0Z"/></g><path class="cls-4" d="M122.23,25.43a15.09,15.09,0,0,1,2.41-.1c.17,1.18-.64,3-1.64,2.24a3.16,3.16,0,0,1-.58-1.34c-.24-1.23.14-1.14,1.12-1.14"/><path class="cls-4" d="M122.56,33V29.94a7.07,7.07,0,0,0-.9-2.86c-.26-.56-1.07-1.7-.75-2.4s1.73-.45,2.33-.45,2-.17,2.4.54c.53.89-.2,2.13-.66,2.77s-1.23,1.1-1.41,2a9.14,9.14,0,0,0,0,2.85,3.59,3.59,0,0,1,0,.67"/><path class="cls-4" d="M122.66,31.22c.31.1.61-.15.91-.16,0,1.78.12,10.36-.84,10.06-.06-3.23-.07-6.34-.19-9.55"/><g class="cls-1"><path class="cls-2" d="M74.69,38.7c2.57,0,6.07,0,7.19-2.81a40.32,40.32,0,0,0,1.44-6.24,8.51,8.51,0,0,0,.16-3.94c-.13-.46-.93-.54-1,0a5.6,5.6,0,0,0,.27,2.59.53.53,0,0,0,.88.23c.48-.51.81-1.11,1.29-1.61l-.9-.37a5.16,5.16,0,0,1-1.5,1.78c-.27,0-1-1.59-1.07-1.7l-1,.28c.22.56.63,1.06.83,1.6.55,1.46,0,3.12-.37,4.55-.25,1.1-.35,2.2-1.48,2.64s-3.12.19-4.45.17a.53.53,0,0,0,0,1,42,42,0,0,0,4.73.11l-.14-1a19.89,19.89,0,0,1-5.08.79v1h.91a.53.53,0,0,0,0-1h-.91a.53.53,0,0,0,0,1A20.61,20.61,0,0,0,79.83,37a.53.53,0,0,0-.14-1A41.92,41.92,0,0,1,75,35.91v1c2,0,5.54.67,6.43-1.56A19.91,19.91,0,0,0,82.57,30c.12-1.48-.61-2.09-1.14-3.43-.24-.62-1.25-.36-1,.28.32.86,1,2.36,1.86,2.79a.54.54,0,0,0,.64-.08c.75-.9,2-1.84,2.14-3.06a.53.53,0,0,0-.9-.37c-.48.51-.81,1.1-1.29,1.61l.88.23a10.11,10.11,0,0,1-.27-2h-1c.65,2.29-.68,5.11-1.13,7.36-.35,1.76-.52,3-2.39,3.84a11.31,11.31,0,0,1-4.26.46.53.53,0,0,0,0,1Z"/></g><g class="cls-1"><path class="cls-14" d="M63.52,25.09c0,.78-.13,1.55-.08,2.34v.83c0,.43,0,.43-.36.38-1.16-.13-2.19-1.84-.84-2.45.2-.09.43-.23.49-.06s-.15.53-.17.71a4.19,4.19,0,0,0,.06.73c0,.29-.06.33.25.4s.14,0,.11-.19c-.06-.35-.27-.67-.31-1-.08-.81.65-.93,1.18-1.37a.53.53,0,0,0,0-.75l-.09-.07a1.47,1.47,0,0,0-2,.43,3,3,0,0,0-.22,2.62.53.53,0,0,0,1-.28c-.1-.37-.36-2.48.66-1.86l-.11-.82c-.69.58-1.5.76-1.51,1.82a4.1,4.1,0,0,0,.5,1.93c.25.46.79.89,1.26.41s.18-1.57.35-2.28.07-1.43-.81-1.5a2.52,2.52,0,0,0-2,1,2.46,2.46,0,0,0,0,2.41,2.88,2.88,0,0,0,1.74,1.25c.78.25,1.59.19,1.8-.73a5.5,5.5,0,0,0,0-1.54c0-.75.06-1.49.08-2.24a.53.53,0,0,0-1,0Z"/></g><g class="cls-1"><path class="cls-14" d="M75.19,24.78c0,.74.33,1.42.38,2.16a5.09,5.09,0,0,0,.14,1.82c.46.93,1.48.22,1.91-.32a3.55,3.55,0,0,0,.68-3A2.65,2.65,0,0,0,76,23.91a.54.54,0,0,0-.51.39,3.4,3.4,0,0,0,.2,1.86A8.83,8.83,0,0,0,76.28,28a.53.53,0,0,0,1-.13c.23-.57.24-1.2.46-1.78A1.41,1.41,0,0,0,77.8,25c-.3-.75-1-.57-1.61-.87l.11.82c.08-.09.65,0,.77,0,.44.15.48.59.51,1,.08,1-.4,1.38-1.1,1.93-.53.42.22,1.16.74.74A3.26,3.26,0,0,0,78.55,27,3.41,3.41,0,0,0,78.4,25a1.94,1.94,0,0,0-2.86-.7.53.53,0,0,0,0,.75l.09.07c.27.13,1.09.18,1.17.42s-.27.75-.31.93a7.61,7.61,0,0,1-.29,1.22l1-.13a6.52,6.52,0,0,1-.41-1.41,2.88,2.88,0,0,1-.25-1.46l-.51.39a1.6,1.6,0,0,1,1.31.89,2.8,2.8,0,0,1-.46,1.8c-.06.09-.15.16-.22.25a.71.71,0,0,1-.17.14q-.14.07.06,0t.12-.11v-.86c0-.83-.35-1.59-.4-2.41a.53.53,0,1,0-1.05,0Z"/></g><g class="cls-1"><path class="cls-14" d="M63.9,24.58c0-1.43-.38-3.46,0-4.83s.93-.87,1.9-.88,2-.08,3-.09a14,14,0,0,1,4.27.2c2.31.81,2,3.08,2,5.1a.53.53,0,0,0,1.05,0c0-1.37.35-4.37-.74-5.53s-4.33-.82-5.78-.82-3,.08-4.49.1c-.61,0-1.34-.14-1.84.29-1.1,1-.4,5.14-.39,6.47a.53.53,0,0,0,1,0Z"/></g><path class="cls-4" d="M68.2,36.67c-1.59-.66-2.29-3.32-3-4.78A10.76,10.76,0,0,1,64,26.2c.62-4.33,5.34-5.57,8.65-3.6,3,1.79,2.86,3.55,2.53,6.45-.27,2.34-.08,4.68-.75,7a38.49,38.49,0,0,0,5.87,0A32.08,32.08,0,0,1,81,31.44a6.19,6.19,0,0,0,.35-2.14c-.13-1-1-1.75-1-2.73.81.12,1.08,1.18,1.74,1.66A9.24,9.24,0,0,0,82.21,25a9.7,9.7,0,0,1,1.16,2.58c.51-.22.91-.81,1.49-1,0,1.43-1.43,2.37-2,3.58C82,32,82.2,34.54,81.58,36.56c-.56,1.8-1.1,1.52-2.9,1.72-1.22.14-2.45.2-3.72.27a7.09,7.09,0,0,0,.36,2.74"/><path class="cls-4" d="M70,27.64V31"/><path class="cls-15" d="M72.34,26.51a2.19,2.19,0,0,0-.48,0,1.17,1.17,0,0,0,.13.84,2.71,2.71,0,0,0,1.09,0,1.5,1.5,0,0,0,.12-.72,7.19,7.19,0,0,0-1.23,0"/><path class="cls-15" d="M66.57,26.88a1.47,1.47,0,0,0,.17.81c.72.19,1.33-.21,1.19-.91a4.21,4.21,0,0,0-1.22,0v.34"/><path class="cls-4" d="M64.22,24.87c-.75,0-1.92-.22-2.58.18a2.87,2.87,0,0,0-.93,2.11c-.12,1.5.56,1.82,1.88,2.19a1.59,1.59,0,0,0,1.22-.06c.72-.29.55-.52.47-1.22s.2-2.14-.12-2.86"/><path class="cls-4" d="M75,24.59c-.25-.91,1.95-.75,2.46-.64,1.23.28,1.31,1.7,1.21,2.75-.18,1.89-1.57,2.69-3.31,2.59,0-.77.23-1.56.16-2.36s-.69-1.69-.81-2.58"/><path class="cls-4" d="M72.67,25.62H73c-.33,0-.64-.08-1-.06"/><path class="cls-4" d="M67.81,25.69a4.44,4.44,0,0,1-1.44-.06"/><path class="cls-4" d="M63.59,24.76c0-1.09-.08-2.15-.11-3.23,0-.59-.33-2.45.1-2.92.25-.27,1.24-.17,1.57-.17a30.51,30.51,0,0,1,3.5.06c2,.21,4.27-.12,6.27.47-.06,1,.41,1.92.4,2.91v2.43"/><path class="cls-4" d="M63.07,24.87a20.17,20.17,0,0,1-.17-3.16c0-.81-.17-1.56-.17-2.38s-.22-1.38.75-1.47h1.27a16.86,16.86,0,0,1,1.77-.29c1.34,0,2.62.23,4,.23a12,12,0,0,1,4.16.92,3.73,3.73,0,0,1,1.07.36c.27.29.07,1.42.07,1.83a24.18,24.18,0,0,0,.06,2.53,2.22,2.22,0,0,0,.06.52"/><path class="cls-12" d="M58,23.47c.44.29.79.75,1.26,1"/><path class="cls-12" d="M57,27c.52-.08,1.09,0,1.63-.08"/><path class="cls-12" d="M79.1,20.72c-.24.47-.31,1-.57,1.53"/><path class="cls-12" d="M81.55,23c-.53.06-1,.31-1.6.35"/><path class="cls-4" d="M69.9,31c-.38,0-1.07.12-.4.45.22.11.54-.07.75,0s.27.23.56.17c.32-.62.09-1,0-1.66a13.62,13.62,0,0,1,0-1.67"/><g class="cls-8"><path class="cls-10" d="M71.63,22.89c4.11,2.9,2.24,13.5,1.1,17.52a.7.7,0,0,0,1.35.37,40.06,40.06,0,0,0,1.13-12.54c-.11-2.7-.59-5-2.87-6.56C71.6,21.16,70.9,22.37,71.63,22.89Z"/></g></g></g></svg>