<svg xmlns="http://www.w3.org/2000/svg" viewBox="0 0 121.73 41.37"><defs><style>.cls-1{opacity:0.85;}.cls-2{fill:#fac1c2;}.cls-10,.cls-3{fill:#f7c481;}.cls-12,.cls-14,.cls-17,.cls-4,.cls-5{fill:none;}.cls-4{stroke:#67686b;}.cls-17,.cls-4{stroke-width:0.4px;}.cls-10,.cls-11,.cls-12,.cls-13,.cls-14,.cls-15,.cls-16,.cls-17,.cls-5,.cls-6{stroke:#7c7c80;}.cls-10,.cls-11,.cls-13,.cls-5,.cls-6{stroke-width:0.5px;}.cls-16,.cls-6,.cls-9{fill:#fff;}.cls-7{opacity:0.14;}.cls-8{fill:#896b4a;}.cls-9{stroke:#f7c481;}.cls-11{fill:#f9b7a9;}.cls-12,.cls-15,.cls-16{stroke-width:0.3px;}.cls-13,.cls-15{fill:#7c7c80;}.cls-14{stroke-width:0.2px;}.cls-18{fill:#f2695d;}</style></defs><title>Asset 5</title><g id="Layer_2" data-name="Layer 2"><g id="Layer_1-2" data-name="Layer 1"><g class="cls-1"><path class="cls-2" d="M43.77,25.1A10.13,10.13,0,0,1,43,24a8.43,8.43,0,0,1-.62-1,10.3,10.3,0,0,1-1.32-4.56c0-.64,0-1.27,0-1.91a6.28,6.28,0,0,1,.11-1.63c.31-1,1.18-2.46,2.32-2.64a5.18,5.18,0,0,1,3.11.09,3.86,3.86,0,0,1,1.78,2.72,13.79,13.79,0,0,1,0,4.17,19.35,19.35,0,0,1-.78,3.38c-.08.28-.24,1.27-.52,1.41a1.19,1.19,0,0,1-.19-.86,15.9,15.9,0,0,1,0-2.3c0-.78.11-1.7.12-2.55a11.43,11.43,0,0,0,0-1.56,5.53,5.53,0,0,0-.75-1.43,5.64,5.64,0,0,1-.54-1.15,2.87,2.87,0,0,0-.34-.64,1.2,1.2,0,0,0-1-.16c-.85.06-.66.9-.67,1.54A43.67,43.67,0,0,0,43.6,21c.06.64.18,1.21.25,1.78a1.94,1.94,0,0,1,.13.85,1.86,1.86,0,0,1-.34-.64,13.41,13.41,0,0,1-.61-1.5,25.29,25.29,0,0,1-.7-3.34c-.06-.71,0-1.41-.1-2.12,0-.35-.13-.71-.12-1.13l0,1c-.09.64-.24,1.19-.32,1.83a5.81,5.81,0,0,0,.15,3.12,19.06,19.06,0,0,0,1.09,2c.13.21.28.5.48.78.07.07.13.35.28.43a2.54,2.54,0,0,0-.27-.79,15.93,15.93,0,0,1-.53-1.71,12.08,12.08,0,0,1-.56-3.27,20,20,0,0,1,.06-2.19c.08-.35.17-1.35.53-1.62.2.22.13.71.12,1,0,.92-.12,1.91-.21,2.9a19.67,19.67,0,0,0-.11,2.19,6.05,6.05,0,0,1,0,1.13A8.1,8.1,0,0,1,42,18.82c-.12-.92-.25-1.85-.3-2.77a3.52,3.52,0,0,1,.44-2.24,2.13,2.13,0,0,1,1.64-.6c.28,0,.5.15.21.36s-.49.06-.72.2c.42.29,1.14-.33,1.49,0s0,1.41,0,1.77a48,48,0,0,0-.42,6.36c0-1.34,0-2.62.11-3.89a16.4,16.4,0,0,1,.48-2.68c.08-.21.08-.85.31-.91.35.43.25,1.28.32,1.78l.16,2.34c.05,1,.1,2,.07,3a13.78,13.78,0,0,1,.36-3.39c.16-.57.31-1.2.46-1.76a1.67,1.67,0,0,0,.16-.57,4.39,4.39,0,0,0-2.13-3.16.65.65,0,0,0-.71,0,3.05,3.05,0,0,0-.72.62,2.19,2.19,0,0,0-.89,1.6c.35-.06.44-.63.58-.83.15-.43.53-1.2.39-1.62s-.42-.36-.7-.3-.43.42-.65.62a3.06,3.06,0,0,0-.65.69,2.92,2.92,0,0,0-.51.77,5.94,5.94,0,0,0-.4,2.19,6.17,6.17,0,0,0,.44,2.77A16.77,16.77,0,0,0,42.1,21.7a6.11,6.11,0,0,0,.69,1.15c.14.14.28.29.42.29.35,0,.28-.13.36-.49.19-2.55.15-5.17.17-7.71A7.13,7.13,0,0,1,44,13.18a1,1,0,0,1,.23-.63,2.18,2.18,0,0,1,.33.86l.59,1.93c.2.72.32,1.42.52,2,.06.21.13.78.33.86a8,8,0,0,0-.18-1.28c-.06-.78-.17-1.57-.16-2.34a10.66,10.66,0,0,1,0-2.12c.35,0,.7.44,1,.66a2.49,2.49,0,0,1,.68,1.36,17.85,17.85,0,0,1,.21,3.4c0,1.13,0,2.19-.1,3.33.09-1.13.48-2.26.57-3.38a4.64,4.64,0,0,0,0-1,2.5,2.5,0,0,0-.54-.94,10.11,10.11,0,0,0-3.05-3c-.21-.15-.84-.51-.84-.79s.86-.26,1.07-.26a4,4,0,0,1,2.4.48c1.39,1,1.77,3.05,1.86,4.64a13.64,13.64,0,0,1,0,1.7,5,5,0,0,1-.18,1.77,9.21,9.21,0,0,1-.6,1.19,16.21,16.21,0,0,1-.54,2c-.27-.57.31-1.27.53-1.69a6.39,6.39,0,0,0,.45-2.8,16.87,16.87,0,0,0-.21-3.26,6.63,6.63,0,0,1-.31-1.19,3,3,0,0,0-.19-.86c0,.42.41.71.62,1.08A6.64,6.64,0,0,1,48.9,16a6.88,6.88,0,0,1,.29,2.7,3.87,3.87,0,0,0,0-1.27,5.3,5.3,0,0,0-.33-1.14,9.43,9.43,0,0,1-.32-1.35,10.08,10.08,0,0,1-.33-1.14c0,.57,1,1,1.22,1.55a4,4,0,0,1,.25,1.84A32.76,32.76,0,0,1,49,20.7,12.31,12.31,0,0,1,47.8,24.2a1.14,1.14,0,0,1-.29.49c-.3.56-.49.06-.7-.37-.67-1.57-.63-3.48-.85-5.19-.06-.57-.19-1.14-.25-1.71a2.54,2.54,0,0,0-.13-.78,8,8,0,0,0-.05,1.84l-.12,4.18c0,1.2-.12,2.48-.11,3.68-.1-1.63-.22-3.12-.25-4.75A14.29,14.29,0,0,0,45,18.12c0,.28.06.71.05,1,0,1.56.08,3,0,4.6a15.28,15.28,0,0,0,.06,3.61,2.48,2.48,0,0,1-.4-1c-.26-.86-.46-1.85-.72-2.77a4.35,4.35,0,0,0-.73-2.28,2.12,2.12,0,0,0,.27.72,21.78,21.78,0,0,1,1.07,2.71,21.18,21.18,0,0,0,1,2.71.45.45,0,0,0,0-.42c-.06-.78-.25-1.56-.37-2.34a16.47,16.47,0,0,1-.37-3.77c.54,1.5.71,3.13,1.17,4.63.26.86.53,1.64.87,2.5a9.48,9.48,0,0,0,.4.86c-.37-2.41-1.24-4.7-1.12-7.18A29.4,29.4,0,0,1,47.09,26c.2.72.4,1.35.59,2,.06.28.13.64.34.79a1.38,1.38,0,0,0,.09-.57c-.12-1.06-.31-2.2-.42-3.33a26,26,0,0,1-.36-2.63,2.37,2.37,0,0,1,0-.71c.21.36.19.93.4,1.35a16,16,0,0,0,1.15,2.5,2.87,2.87,0,0,1,.47,1.49,14.49,14.49,0,0,0,0,2.48,19.4,19.4,0,0,1,.31,2c0,1.2.09,2.4.06,3.61l-.07,2.26a4.9,4.9,0,0,0,0,1.77,7.15,7.15,0,0,0-.18-1.21,16.1,16.1,0,0,0-.08-1.81c-.19-1.07-.24-2.13-.36-3.19a23.63,23.63,0,0,0-.64-3,21.63,21.63,0,0,1-.85-3c-.06-.28-.19-1.07.1-1.2.21.08.21.36.27.57l.4,1.49c.14.49.26.93.4,1.42a2.51,2.51,0,0,0,.2.79,2.65,2.65,0,0,0-.06-.78c-.06-.49-.19-1-.25-1.42a5.08,5.08,0,0,0-.36-1.53c-.29.49,0,1.49.1,2,.05,1,.17,2,.29,3,.06.78.17,1.64.3,2.41a23.24,23.24,0,0,0,.48,4c-.13-.78-.46-1.56-.59-2.35-.19-1.14-.23-2.27-.42-3.33-.2-.72-.33-1.49-.59-2.21a4,4,0,0,0-.54-.94,1.75,1.75,0,0,0-.27-.64c-.22.35.18,1.49.24,1.92a9.83,9.83,0,0,1,.4,1.35,2.48,2.48,0,0,1-.34-.57,16.29,16.29,0,0,1-1-2.29c-.21-.5-.33-1.07-.53-1.57a.55.55,0,0,0-.21-.5,1.24,1.24,0,0,0,.13.71A10,10,0,0,1,46,28.61a6.37,6.37,0,0,0,.19,1.14,2.7,2.7,0,0,1,.2.72c-.21-.15-.35-.5-.48-.64-.27-.57-.54-1.22-.81-1.85s-.6-1.57-.93-2.36a1.54,1.54,0,0,0-1-.94c-.08.21.2.72.26,1a6,6,0,0,1,.25,1.21c.19,1,.31,1.92.51,2.85.13.71.32,1.42.38,2.13s.11,1.41.17,2.2a20.18,20.18,0,0,0,.85,3.42A10.74,10.74,0,0,1,45.7,39c0,.5-.24,1.41,0,1.77.28-.06.15-.85.16-1.06a18.51,18.51,0,0,0,.06-2,15.65,15.65,0,0,0-.32-1.78c-.13-.35-.2-.79-.32-1.21a12.22,12.22,0,0,1-.64-3.2,18.61,18.61,0,0,0-.37-2.77c-.06-.35,0-1.27-.4-1.42-.15.28.13.71.26,1a6.9,6.9,0,0,0,.53,1.57c.13.35.47,1.14.89,1.3.08-.43-.33-1.14-.47-1.49s-.19-.93-.32-1.35a3.51,3.51,0,0,0,1.08,2.43,2.92,2.92,0,0,0,1.06.52c.71.16,2,.82,1.73,1.73-.28,0-.48-.71-.68-.93a2.7,2.7,0,0,0-1-.8c-.64-.16-1.48.11-2.12-.06s-.62-.79-.68-1.22A6.76,6.76,0,0,1,44,27.93c0-.92.27-2.61,1.33-2.87s1.46,1,1.8,1.73.46,1.78,1.09,1.93c.35.08.79-.27,1,.09a1.2,1.2,0,0,1,.06.85l-.05,1.84-.11,3.68a38.85,38.85,0,0,0,.12,4.11c.06.35.13.64.19,1s.42.43.91.52c-.56-.3-.54-1.08-.67-1.57s-.27-.72-.4-1.14c-.2-.65-.25-1.28-.45-2a35.67,35.67,0,0,1-.69-4c-.06-.71-.18-1.42-.31-2.13-.06-.42-.34-.71-.4-1.14"/><path class="cls-2" d="M44.41,24.77A17.72,17.72,0,0,1,43,22.62L42,19.8q-1.93-4.47,2.76-3.92,3.53-2.28,3,.68a7.53,7.53,0,0,1-.08,2.75,13.24,13.24,0,0,1-1.13,4.37l1.27.21c-.49-2.14,1.33-11.33-3.07-11.22-3.55.09-1.71,9-1.4,11.13l1.3-.5c-1.41-2.68-1.48-5.49-1.75-8.39-.08-.86-1.38-1-1.4,0-.12,4.18-.62,5.89,1.72,9.59.4.62,1.56.3,1.3-.5-.92-2.6-2.17-6.31-.88-9l-1.27-.21c.6,2-.2,4.93-.21,7l1.37-.15c-.49-1.3-2.31-8-.39-8.51a.7.7,0,0,0,.15,1.37c1.57,0,.45,6,.42,7.45l1.4,0c.06-2.19-.26-5.12.76-7.13l-1.27-.21c.65,2.12.52,4.71.54,6.91a.7.7,0,1,0,1.4,0c.07-2.24,2.51-8.31-1.48-9.49-1.77-.52-2.9,1.06-3.36,2.6a.71.71,0,0,0,1.15.71c.82-.81,2-3.28.44-3.92-2-.79-3.36,3-3.51,4.35-.19,1.8,1,8,3.46,8,2.66-.07,1.12-9.46,1.7-11.09l-1.28.13c.7,1.78.82,4,1.83,5.71a.7.7,0,0,0,1.3-.5,30.63,30.63,0,0,1-.35-5.55L45.38,13c2,1,1.54,6,1.46,8.13,0,.76,1.23,1,1.36.23.59-3.55,1.15-5-1.52-7.64a6.45,6.45,0,0,0-1.21-1C43,11.08,48.26,16,48.22,15.9c.94,2-.48,5.42-1.12,7.49l1.36.23c.14-1.55.88-2.89.94-4.51a20.64,20.64,0,0,0-.68-5.44l-1.3.5a10.19,10.19,0,0,1,1.23,4.49l1.3,0a20.76,20.76,0,0,0-1.05-5.09l-1.31.53a5.85,5.85,0,0,1,1.4,3s-.89,6.37-1.79,6.67c.17-.05-.88-6.77-1-7.35-.13-.81-1.32-.61-1.37.15-.25,3.18-.19,6.5-.2,9.69l1.4,0c-.18-2.79,0-5.64-.4-8.41-.11-.77-1.42-.64-1.37.15.15,3.07-.08,6.15.16,9.21L45.76,27c-.8-2-.88-4.13-1.82-6.06-.34-.7-1.57-.25-1.3.5.79,2.1,1.56,4.23,2.41,6.3.27.67,1.3.34,1.31-.31.06-2.15-.63-4.39-.71-6.52L44.2,21c.79,2.75,1.28,5.54,2.51,8.15.35.74,1.44.25,1.3-.5a44.69,44.69,0,0,1-1.09-7l-1.37.15c.7,2.46.85,5,1.89,7.36.31.71,1.22.29,1.31-.31.35-2.36-.75-4.84-.7-7.23l-1.37.15c.85,2.94,1.94,5.76,2.21,8.83.25,2.88-.17,5.79.18,8.64l1.31-.29c-.36-2.32-.36-4.68-.79-7-.3-1.71-1.87-4.5-1.28-6.19L47,25.85A23.23,23.23,0,0,1,48.2,30a.72.72,0,1,0,1.43-.12h0A14.07,14.07,0,0,0,49,26a.7.7,0,0,0-1.37.15c-.31,3.61.51,8,1.19,11.54l1.36-.33C49.33,34,49,30.83,47.68,27.68c-.27-.65-1.32-.35-1.31.31A12.38,12.38,0,0,0,47,31.45l1.3-.5A34.56,34.56,0,0,1,46.24,26c-.31-.77-1.42-.23-1.3.5.23,1.33.4,2.68.76,4l1.19-.65c-1.37-1.82-1.32-4.82-3.43-6a.71.71,0,0,0-1,.76c.84,5.36,1.84,10.71,2.63,16.08.11.74,1.12.61,1.35,0,.69-1.74.12-4.06-.26-5.79-.61-2.58-.47-5.76-1.63-8.16a.71.71,0,0,0-1.31.31,7,7,0,0,0,1.87,4.36.71.71,0,0,0,1.19-.65c-.22-1.13-.48-1.53-.79-2.84a.7.7,0,0,0-1.36.33,4.76,4.76,0,0,0,1.22,2.71c.72.9,2.32.41,2.61,1.94l1.19-.65c-.62-.65-1-1.38-1.8-1.84s-1.8.12-2.5-.83a1.47,1.47,0,0,1,1.82-2.17c.21.09.23.81.4,1a8.19,8.19,0,0,1,1,.81c1.06,2-1.66,11.26,2.06,12.07.53.12,1.2-.45.82-1-2.29-3.28-1.59-8.15-2.87-11.79-.3-.84-1.66-.52-1.36.33,1.32,3.77.62,8.75,3,12.09l.82-1c-1.51-.32-.6-10.22-.67-11.29a.73.73,0,0,0-.49-.68c-1.69-.58-3.61-6.5-5.75-2.28-.59,1.17-.75,4,0,5.1,1.07,1.56,3.06,1.09,4.43,2.49a.71.71,0,0,0,1.19-.65c-.45-2.33-3.27-2.1-3.86-4.69l-1.36.33c.12.47.69,2.37.79,2.84L46,30.56c.25.26-1.46-2.5-1.49-3.36l-1.31.31c.88,1.83.67,4.46,1.12,6.44s1.44,4.47.66,6.44l1.35,0c-.79-5.35-1.69-10.69-2.63-16.08l-1,.76c1.58.86,2,4.17,3.13,5.69.42.57,1.37,0,1.19-.65a39.4,39.4,0,0,1-.76-4l-1.3.5a34.16,34.16,0,0,0,2.09,4.93c.39.65,1.52.28,1.3-.5A10.09,10.09,0,0,1,47.73,28l-1.31.31c1.3,3.1,1.54,6,2.35,9.29a.7.7,0,0,0,1.36-.33c-.62-3.34-1.42-7.7-1.14-11.09l-1.37.15a12.78,12.78,0,0,1,.61,3.51l1.41-.19a23.72,23.72,0,0,0-1.35-4.49.71.71,0,0,0-1.28.13c-.52,1.57.37,3.12.74,4.63.77,3,.82,6.2,1.29,9.3.14.9,1.45.54,1.36-.33-.32-2.84.1-5.77-.18-8.64C49.88,26.81,49,24.78,48,21.43a.7.7,0,0,0-1.37.15c-.07,2.39,1,4.87.7,7.23l1.31-.31c-.93-2.25-1.1-4.69-1.79-7.06-.21-.73-1.41-.68-1.37.15A47.58,47.58,0,0,0,46.65,29l1.3-.5c-1.18-2.5-1.63-5.18-2.38-7.81-.21-.73-1.41-.68-1.37.15.08,2.17.75,4.37.71,6.52l1.31-.31c-.79-1.94-1.54-4-2.28-6l-1.3.5c.95,1.89,1.06,4.1,1.82,6.06a.7.7,0,0,0,1.31-.31c-.24-3,0-6.13-.16-9.21l-1.37.15c.36,2.62.19,5.39.37,8,.05.88,1.39,1,1.4,0,0-3.19,0-6.5.2-9.69l-1.37.15c.43,2.7.24,5.94,1.63,8.39a.72.72,0,0,0,1,.29h0c1.67-.81,2.12-3.94,2.47-5.49.62-3,.58-4.11-1.08-6.53-.41-.61-1.53-.32-1.3.5a20.39,20.39,0,0,1,1,4.72c0,.89,1.41,1,1.4,0a12.87,12.87,0,0,0-1.4-5.19c-.31-.75-1.46-.25-1.3.5.8,3.5,0,6.19-.28,9.58a.7.7,0,0,0,1.36.23c1-3.38,2.27-6.83.48-10.28-.95-1.86-3.55-3.39-5.56-2a.72.72,0,0,0-.25,1l.08.11c.44.6.49.35,1,.91l2,1.7a7.44,7.44,0,0,1,.7,5.77l1.36.23c.08-2.76,1-7.84-2.13-9.36a.71.71,0,0,0-1.07.57,32.71,32.71,0,0,0,.39,5.92l1.3-.5c-1-1.6-1.09-3.94-1.83-5.71-.23-.61-1.1-.38-1.28.13-.6,1.67.46,7.41-.58,8.38l-.25.65A9.83,9.83,0,0,1,41,16.41c.13-1.4,2.71-3.92.76-2l1.15.71q.58-2.57,1.82-.11,2,1.06.66,3c.05,1-.34,2.55-.39,3.58l1.4,0c0-2.33.15-5-.58-7.28-.16-.53-1-.78-1.27-.21-1.17,2.31-.95,5.33-1,7.83a.7.7,0,1,0,1.4,0c.08-2.65.84-5.71.36-8.32a.71.71,0,0,0-.65-.53,10.4,10.4,0,0,0-1.49,0l.15,1.37c.79-.22,1-.21,1.33-1a.71.71,0,0,0-.46-.87c-5-1.66-2.84,7.46-2.16,9.27.26.69,1.36.71,1.37-.15.07-2.31.86-5.19.22-7.4-.15-.51-1-.79-1.27-.21-1.51,3.19-.38,7,.7,10.11l1.3-.5C42.65,21,42.76,18,42.83,14.83l-1.4,0c.33,3.18.42,6.19,2,9.06.39.74,1.4.25,1.3-.5-.31-2.13-.86-4.82-.3-7,.35-1.51-.05-2.65,1.31-.81,1.56,2,.19,6.13.75,8.56a.71.71,0,0,0,1.27.21c1.84-3.5,3.37-12.72-2.62-13.08-7.58-.42-4.37,10.58-1.93,14.07.51.73,1.75.05,1.23-.67Z"/></g><g class="cls-1"><path class="cls-2" d="M41.79,24.41a5.32,5.32,0,0,1-1.72,2.32c-.78.44,0,.25-.73-.15A21.91,21.91,0,0,0,37,25.45c-1.37-.58-2.62-.91-3.5-2.1s-1.34-1-2.67-1.7l-.21,1.27,1.2,0a.71.71,0,0,0,.72-.68,3.55,3.55,0,0,0-.26-1.5l-1.3.5a8.4,8.4,0,0,0,3.74,3.87c1.7.83,3.3,1.31,4.55,2.74.59.68,1.61-.28,1-1a9,9,0,0,0-3.56-2.36,8.09,8.09,0,0,1-4.5-3.94.7.7,0,0,0-1.3.5,3.07,3.07,0,0,1,.22,1.13l.72-.68a6.17,6.17,0,0,0-1.58.07.71.71,0,0,0-.21,1.27c1,.54,1.65.43,2.37,1.42a4.1,4.1,0,0,0,.91,1.1c1.29,1,3.22,1,4.51,2,.64.48,1,1.8,2.1,1.5.63-.17,1.16-1.27,1.51-1.68a5.51,5.51,0,0,0,1.59-2.35C43.35,24,42,23.54,41.79,24.41Z"/></g><g class="cls-1"><path class="cls-2" d="M48.64,25.28a15.43,15.43,0,0,1,6.18,2.07,9.65,9.65,0,0,0,3.65,1.47.34.34,0,0,0,.3-.16c.28-.53.46-1.1.73-1.62.13-.25-.06-.63-.38-.52-.57.19-1.2.66-1.14,1.36,0,.51.73.72.07.64s-1.16-.75-1.74-1.05a8.41,8.41,0,0,0-1.79-.61A53.87,53.87,0,0,1,49,25.07c-.37-.14-.65.46-.29.63,3.12,1.43,6.66,1.95,9.66,3.58l.2-.64-1-.11a.35.35,0,0,0-.21.66,1.62,1.62,0,0,0,1.14.13c.31,0,.53-.46.2-.64-3-1.65-6.54-2.19-9.66-3.58l-.29.63c2.66,1.08,5.71,1.43,8.11,3,.86.57,2,1.18,2.35-.2a.36.36,0,0,0-.23-.44l.28-.86-.38-.52c-1.18,2.31-3.22.24-4.81-.45a17.31,17.31,0,0,0-5.45-1.58.35.35,0,0,0,0,.7Z"/></g><g class="cls-1"><path class="cls-2" d="M44.88,11.23A11.68,11.68,0,0,0,44.68,7c-.15-.42-.82-.26-.68.17a11.19,11.19,0,0,1,.18,4,.35.35,0,0,0,.7,0Z"/></g><g class="cls-1"><path class="cls-3" d="M43.82,5.69h-.19c-.23,0-.3,0,0,.18-.19-.16.26.31.21.11s0-.06,0,0-.06.12,0,.07-.28-.33-.34-.28a1,1,0,0,0,0,.24s.4-.43.25-.28-.32-.29,0,.11l.2.5a2.67,2.67,0,0,1-.34.51h0s-.28-.25-.27-.3A.75.75,0,0,0,44.74,7h0A1.18,1.18,0,0,0,43,5.68a.78.78,0,0,0,0,1.35,1.58,1.58,0,0,0,1.51,0,1.42,1.42,0,0,0,.39-1.61,1.12,1.12,0,0,0-1.46-.61l-.13.07a1.25,1.25,0,0,0-.78,1.45c.15.72.72.81,1.35.79.89,0,.94-1.43,0-1.4Z"/></g><path class="cls-4" d="M31.28,21.65c-3.21-.78-6.78-3.4-9.49-4.78"/><path class="cls-5" d="M42.2,24.17a11.05,11.05,0,0,1-.71-11.86,6.61,6.61,0,0,1,5.36-.84c1.37.56,2.37,2.33,2.89,3.63A9.58,9.58,0,0,1,50,20.4c-.21,1.12-1.19,2.63-1.22,3.79A53.69,53.69,0,0,1,55,27.13a3.44,3.44,0,0,0,2.31.5c.62-.22.82-1,1.47-1.19a5.39,5.39,0,0,1,0,1.22,4,4,0,0,1,1.28.1c-.69.33-1.25.7-.48,1.34-.68,0-1.33-.39-2.08-.47a13.78,13.78,0,0,1-3.15-.71A24.2,24.2,0,0,1,49.65,26c-.14,1.2.46,2.55.6,3.78a26.24,26.24,0,0,1,0,3.56c0,1.37,0,2.76-.12,4.13a8.71,8.71,0,0,0-.16,2c.14.66,1.67,1.52,1,1.59s-1.6,0-2.2,0a40.75,40.75,0,0,0-.61-6.32c-.17-.72-.07-1.83-.85-2.48a2.67,2.67,0,0,0-1.91-.51c.4,3,.7,5.21.89,6.27s0,2,.28,2.88a.18.18,0,0,1,0,.11,13.16,13.16,0,0,1-2.23,0c-.4,0,.5-1.82.42-3.37A20.83,20.83,0,0,0,44,33.22a21,21,0,0,1-.77-3.48,20.31,20.31,0,0,1-.44-3.82c-1,1.1-2.41,1.8-3.3,3-.77-1-6.8-4.26-7-5.53-.78-.9-2.6-.2-2.16-1.95a7.22,7.22,0,0,0,1.3.56c-.33-.51-.88-1.32-.09-1.65A12.84,12.84,0,0,0,33.28,23a13.73,13.73,0,0,0,6.62,4.34Z"/><path class="cls-5" d="M44.17,11.5c0-1.63-.31-3.24-.16-4.82-.21-.09-.4,0-.62-.09a9.2,9.2,0,0,1-.21-1.09,3.36,3.36,0,0,1,1.08,0,55.38,55.38,0,0,1,.37,5.74"/><path class="cls-5" d="M44.19,21.19l2.08.06"/><path class="cls-5" d="M44.52,16.81a10.27,10.27,0,0,0,.16,3"/><path class="cls-6" d="M45.95,15.27a3.86,3.86,0,0,0,0,.95,9.46,9.46,0,0,0,1.15,0c.25-.85-.52-.81-1.15-.75"/><path class="cls-6" d="M42.14,16.11a1.85,1.85,0,0,0,0,.52,1.9,1.9,0,0,0,.82,0A1.34,1.34,0,0,0,43,16a3,3,0,0,0-1.05.07"/><path class="cls-4" d="M40.79,3.57a12.15,12.15,0,0,1-2.25-1.5"/><path class="cls-4" d="M43.78,2.47A9.16,9.16,0,0,1,43.5,0"/><path class="cls-4" d="M46.19,3.46a10.06,10.06,0,0,0,2.27-2.12"/><g class="cls-7"><path class="cls-8" d="M45.84,12.08c2.89,1.22,3.18,5.38,3,8.09-.1,1.35-1.26,3.66-.75,5a1.54,1.54,0,0,0,.79.83,13.22,13.22,0,0,0,2.54.65,27.9,27.9,0,0,1,3.88,1.72c.8.41,1.54-.78.75-1.19-1-.53-2.09-1.06-3.17-1.53-.6-.25-3-.62-3.17-1-.63-1,.61-5,.58-6.14-.07-3.11-.93-6.56-4-7.86-.83-.35-1.23,1-.41,1.34Z"/></g><g class="cls-7"><path class="cls-8" d="M48.08,26c-.12,2.13.76,4.14.82,6.28.1,2.52,0,5.07,0,7.6a.7.7,0,0,0,1.4,0c0-2.53,0-5.07,0-7.6-.06-2.13-1-4.18-.82-6.28a.7.7,0,1,0-1.4,0Z"/></g><path class="cls-2" d="M107.37,27.07c-1.23,0-.74-2.28-.5-3l-1.2.32c.16.15,0,1.28,0,1.53a9.81,9.81,0,0,0,.05,2,.71.71,0,0,0,1.35,0c.15-.62.32-1.25.5-1.86A4.58,4.58,0,0,0,108,24.6a5.22,5.22,0,0,0-.44-1.29,2.45,2.45,0,0,0-.4-1,2.1,2.1,0,0,0-1.88-.47c-.71.24-.77,1.08-.73,1.71a18.92,18.92,0,0,0,.6,3c.16.69-.12,2,.78,2.23a2.39,2.39,0,0,0,2.07-.54,2.51,2.51,0,0,0,.15-2.36.7.7,0,0,0-1.35.37,1.83,1.83,0,0,1,.14.64c0,.22-.59.61-.58.51l.33.3v-.39a3.14,3.14,0,0,0-.11-.76c-.11-.58-.3-1.14-.43-1.71a9,9,0,0,0-.21-1.41c-.06-.15,0-.39-.3-.24a.53.53,0,0,1,.48.14,4.15,4.15,0,0,1,.29.94c.36.94-.4,2.35-.63,3.32h1.35c-.21-1.13.5-3.21-.45-4.13a.71.71,0,0,0-1.17.31,6.59,6.59,0,0,0-.24,3.21,1.84,1.84,0,0,0,2.13,1.49h0a.7.7,0,0,0,0-1.4Z"/><g class="cls-1"><path class="cls-2" d="M93.37,15.58c-.32,0-2.88-.39-2.93.13a21.44,21.44,0,0,0,2.1,1.09l.71-1.21a8.22,8.22,0,0,1-1.4-.83L91.31,16c.81.12,1.22.15,1.5.8.42,1-.1,3.3-.13,4.42a.7.7,0,0,0,1.4,0c.08-1.32.18-2.63.27-3.94l-1.3.35c.5,1.14.21,2.76.18,4a12.92,12.92,0,0,1-.34,4.18l1.37.19c-.1-1.6.47-3.12.37-4.73a.71.71,0,0,0-1.3-.35,13.89,13.89,0,0,0-1.5,3.72c-.51,1.8-.55.91-1.62.26a.71.71,0,0,0-1.05.6,1.87,1.87,0,0,0,1,1.94.69.69,0,0,0,.71,0C93.69,25.71,94,23.14,94.21,20l-1.37.19c.37.88.06,2.37,0,3.29,0,1.16,0,2.31.06,3.47,0,.64,1,1,1.3.35.87-1.72.52-4.06.57-6,0-1.07.57-3.3-.14-4.23a.71.71,0,0,0-1.21,0l-.08.16,1.3.35a4.14,4.14,0,0,0-.15-1.22c-.19-.81-1.32-.57-1.37.19-.22,2.82.16,5.76-.15,8.56-.2,1.82-.76.62-1.85,1.2a1.31,1.31,0,0,0-.66,1l.67-.51h-.05c-.59-.68-1.58.31-1,1a1.12,1.12,0,0,0,1,.46.71.71,0,0,0,.67-.51,16.68,16.68,0,0,0,2-.09.69.69,0,0,0,.49-.49c.4-1.62,0-3.61,0-5.3s0-3.49.15-5.21L93,16.86l.1.84a.71.71,0,0,0,1.3.35l.08-.16H93.29c.45.58,0,2.86,0,3.52,0,1.5.32,3.87-.38,5.24l1.3.35a34.6,34.6,0,0,1,0-4.32,6.7,6.7,0,0,0-.11-2.82.7.7,0,0,0-1.37.19c-.1,1.56.12,3.43-1,4.67a5.81,5.81,0,0,1-1.1.85c-.38.26-.19,1-.14.06l-1.05.6c.85.53,1.2,2.43,2.64,1.5.58-.37.72-1.31.87-1.89a13.84,13.84,0,0,1,1.52-4.09l-1.3-.35c.1,1.6-.47,3.12-.37,4.73a.7.7,0,0,0,1.37.19c.59-1.5.35-3.38.4-5a9.86,9.86,0,0,0-.38-4.25c-.3-.69-1.26-.27-1.3.35-.09,1.31-.19,2.63-.27,3.94H94c0-1.17,0-2.35.07-3.52a6.67,6.67,0,0,0,.1-2.11c-.52-.89-1.64-.81-2.57-.94a.7.7,0,0,0-.54,1.28,8.22,8.22,0,0,0,1.4.83c.79.42,1.5-.77.71-1.21-1.08-.61-3.25-2.42-4.18-.79a.69.69,0,0,0,0,.71c1,1.38,2.71,1.44,4.3,1.48a.7.7,0,0,0,0-1.4Z"/></g><path class="cls-9" d="M82.92,23.08A2.92,2.92,0,0,0,85.1,21.8"/><path class="cls-10" d="M92.11,24.53c-.5-.46-1.32.27-3.09,0a4,4,0,0,1-2.39-1,3.69,3.69,0,0,1-1-2.12,6.15,6.15,0,0,0-1.39.52c-.68.36-.82.65-1.46.79-.93.2-1.38.17-1.94-.53a6.1,6.1,0,0,1-1.25-2.43c-.13-1-.33-1.76.47-2.43,1.16-1,3.22-.94,4.59-.55,1.14.33,2.41.19,3.49.51a4.4,4.4,0,0,1,4.66-1.08c.33.14,1.16,1,1.39,1,.78,0,1.36-1.8,1.36-2.45.92,1.18,1,1.85.14,3.27a20.53,20.53,0,0,1,1.08,4c.4,2.45.33,4.75.57,4.76s.31-2,1.52-3.19A2.09,2.09,0,0,1,100,23a1.72,1.72,0,0,1,1.06.11c1,.57.62,2.76,1.07,2.85.29,0,.43-.83,1.37-1.85a3.68,3.68,0,0,1,2.77-1.39,1.72,1.72,0,0,1,.48.14c2,.83,2.48,2.89,4.42,3.83,1.21.59,1.61.06,2.31.73a3.29,3.29,0,0,1,.41,3.91l-.16.19a10.08,10.08,0,0,1-1.2,1.18c-.74.67.06,2.32-.2,5-.1,1.12-.23,2.29-1,2.72-.52.27-1.29.21-1.49-.15s.68-1.17,1.13-2.28c.95-2.35-.8-5.65-1.7-5.58-.49,0-.94,1.52-1.84,4.47-.65,2.13-.92,3.39-1.84,3.7a3.94,3.94,0,0,1-1.79,0h0c.32-.49.8-1.25,1.32-2.22.66-1.23,2.57-4.8,1.81-5.44s-2.24,1.77-4.61,1.48-3-2.52-4-2.14c-1.72.61-1.92,7.16-1.77,7.94a.39.39,0,0,1,0,.25c-.2.4-1.25.49-1.65.1s-.09-.87.35-2.69c.6-2.52.66-3.13.49-3.76-.22-.78-.78-1.71-1.21-1.65-.64.1-.37,2.32-1.74,5.46-.75,1.73-1.33,2.2-1.86,2.23a1,1,0,0,1-.87-.37c-.55-.93,2.25-2.34,2.36-4.71.09-1.87-1.58-2.32-1.36-4.46A22.75,22.75,0,0,1,91.84,28C92.27,25.93,92.55,24.93,92.11,24.53Z"/><path class="cls-5" d="M79.7,18c.47,4.13,4.49-.52,3.25-1.45-1.08-.82-4.75.84-3.25,2.45"/><path class="cls-11" d="M94.12,16.65c.81,1,.72,3.5.78,4.8.09,1.88-.24,3.8-.24,5.7a4.35,4.35,0,0,1-1.52.45c-.16,0-.29-.49-.56-.44s-.15.37-.32.44c-.71.29-1.09.72-2,.38-.3-1.16-1.44-2.25-.76-3.42a6.81,6.81,0,0,1,1.24,1.27c.9,0,1.1,0,1.42-.85a8.93,8.93,0,0,0,.25-2.27A31.89,31.89,0,0,0,92.63,17"/><path class="cls-11" d="M94,17c-1.76.36-3.33-1.09-5-1.31.2-.55,1.18-1.18,1.6-1.63.86,1,2.45,1.07,3.64,1.44a2.43,2.43,0,0,1-.2,1.8"/><path class="cls-5" d="M81.55,22.55a1.71,1.71,0,0,0,.6.67,2.42,2.42,0,0,0,2.22-.12,3.72,3.72,0,0,0,1.55-3.71"/><path class="cls-12" d="M81,19.39a4.24,4.24,0,0,0,1.64,2.72"/><path class="cls-12" d="M94,19.26a35.2,35.2,0,0,1-.06,4.38,4.86,4.86,0,0,1-.14,1.62"/><path class="cls-12" d="M84,19.79a1,1,0,0,0-.74-.42"/><path class="cls-12" d="M83.37,18.32c.45,0,.74.37,1.14.48"/><path class="cls-13" d="M79.44,18.2c.08.84.36,1.2,1.17,1.32a3.1,3.1,0,0,0,.6,0c.67,0,1.06-.6,1.39-1.15s1.2-2.24-.2-2c-.88.16-2.58.72-3,1.67"/><path class="cls-14" d="M89.46,18.39c-.26,0-.8,0-.92-.15"/><path class="cls-14" d="M89.64,18.53c-.14.23-.44.67-.68.64"/><path class="cls-14" d="M89.88,18.79c0,.18.09.55,0,.63"/><path class="cls-14" d="M90.49,18.79c0,.18.09.55,0,.63"/><path class="cls-5" d="M91.93,27.84"/><path class="cls-11" d="M104.54,23c.19,1.9.25,3.81.5,5.69.83,0,2.59.24,2.87-.87a15.76,15.76,0,0,0-.17-4.81c-.28-1.28-.87-1.33-1.77-1.29-.57,0-1.76,0-1.43,1.27"/><path class="cls-14" d="M104.9,28.78a.78.78,0,0,0,.21.43c.21-.1.35-.07.51-.32a2.13,2.13,0,0,0,0,.42c.32,0,.46,0,.58-.33.08.39.41.44.63.1,0,.09.09.16.11.26a.72.72,0,0,0,.62-.67"/><path class="cls-6" d="M89.37,18.17a2,2,0,0,0,0,.69,3.77,3.77,0,0,0,1.34,0,1.46,1.46,0,0,0,0-.81,5.9,5.9,0,0,0-1.72.12"/><path class="cls-4" d="M114.72,18.12a11.31,11.31,0,0,1-2.12-1.35"/><path class="cls-4" d="M117.49,17a8.53,8.53,0,0,1-.31-2.27"/><path class="cls-4" d="M120,18.12a9.37,9.37,0,0,0,1.55-2.44"/><path class="cls-15" d="M90.31,37.92l1.78,1.2v2H88.2Z"/><path class="cls-15" d="M94.84,39.3l1.56-.06.78,1.89H93.9Z"/><path class="cls-15" d="M104.67,38.89l1.88.17.07,2.07h-3.57Z"/><path class="cls-15" d="M110.37,38.61l2,.31-.13,2.2h-3.4Z"/><g class="cls-1"><path class="cls-3" d="M117.29,21.27h0q.22,0,0-.11t-.1.06v.17q.31-.2.1-.15c-.06.12-.32-.21-.05.06-.48-.47-1.23.27-.74.74a1.08,1.08,0,0,0,1.61-1.44h0c-.35-.55-1.16-.39-1.58,0a1,1,0,0,0,0,1.47c.47.48,1.21-.26.74-.74Z"/></g><path class="cls-5" d="M117.94,21.51a1.35,1.35,0,0,1-.71.23,1.26,1.26,0,0,1-.29,0,8.56,8.56,0,0,1-.22-1,2.68,2.68,0,0,0,.52-.15h-.07a3,3,0,0,1,.56.14c0,.33.56,5.63-.49,7.36a2.67,2.67,0,0,1-.75.8,2.85,2.85,0,0,1-2.21.24"/><polygon class="cls-16" points="81.15 22.63 81 24.21 82.38 24.11 82.76 22.67 81.15 22.63"/><line class="cls-17" x1="81.55" y1="22.55" x2="81.8" y2="24.07"/><g class="cls-7"><path class="cls-8" d="M99.32,24.27c.54-.31.86-.41,1.25.14a7,7,0,0,1,.76,1.51c.32.83,1.67.47,1.35-.37A6.12,6.12,0,0,0,101.2,23a2.13,2.13,0,0,0-2.58,0,.7.7,0,0,0,.71,1.21Z"/></g><g class="cls-7"><path class="cls-8" d="M107.59,32.32a30,30,0,0,1-.8,3.33c-.32,1-1,1.91-1.24,3a.7.7,0,0,0,1.35.37c.26-1,.93-1.92,1.24-3a30,30,0,0,0,.8-3.33C109.1,31.81,107.75,31.43,107.59,32.32Z"/></g><g class="cls-7"><path class="cls-8" d="M97.45,31.13A5.36,5.36,0,0,0,95.92,34c-.25,1.44.1,3-.57,4.32-.4.8.81,1.51,1.21.71,1.13-2.26,0-5,1.89-6.93a.71.71,0,0,0-1-1Z"/></g><g class="cls-7"><path class="cls-8" d="M99.37,33.64c1.2.2,2,.8,3.31.67s2.46-.67,3.71-.91c.88-.17.51-1.52-.37-1.35s-2,.63-3.07.81c-1.25.22-2-.37-3.2-.57-.88-.15-1.26,1.2-.37,1.35Z"/></g><g class="cls-7"><path class="cls-8" d="M93.21,32.39c-.51,1.79-1.14,3.55-1.72,5.32-.28.86,1.07,1.23,1.35.37.58-1.77,1.21-3.53,1.72-5.32a.7.7,0,0,0-1.35-.37Z"/></g><g class="cls-7"><path class="cls-8" d="M93.91,17.77c.68,2.06,2.19,8.44-.75,9.17a.7.7,0,0,0,.37,1.35c2.32-.57,2.27-.85,2.5-3.26a18.17,18.17,0,0,0-.77-7.62c-.28-.85-1.63-.49-1.35.37Z"/></g><g class="cls-7"><path class="cls-8" d="M107.56,24.5a9.26,9.26,0,0,0,2.15,2.38c.41.31.94.5,1.34.82a1.36,1.36,0,0,1,1.24,1.69q.93,1.12-.1,1.77a8.81,8.81,0,0,0-1.07,2.23c-.24,1.4.13,2.88,0,4.3-.09.9,1.31.89,1.4,0,.23-2.29-.33-4.06,1.15-6.13.53-.74,1.15-1.24,1.1-2.24a2.77,2.77,0,0,0-1.23-2c-1.73-1.38-3.41-1.54-4.76-3.57-.5-.75-1.71,0-1.21.71Z"/></g><g class="cls-7"><path class="cls-8" d="M107.75,26.57a2.18,2.18,0,0,1-.43,2c-.58.68.41,1.68,1,1a3.66,3.66,0,0,0,.79-3.33.7.7,0,0,0-1.35.37Z"/></g><path class="cls-11" d="M8,13.75a1,1,0,0,1-1-.11,3.08,3.08,0,0,1-.73-.74L5.17,11.57a2.47,2.47,0,0,1-.75-1.8,1.27,1.27,0,0,1,1.52-1l.2.06c.54.26.81.87,1.22,1.3a.2.2,0,0,0,.15.08.21.21,0,0,0,.14-.1A8.32,8.32,0,0,1,8.73,8.84a1.33,1.33,0,0,1,1.58-.19A1.25,1.25,0,0,1,10.64,10a4,4,0,0,1-.8,1.26A31.18,31.18,0,0,0,7.9,13.94"/><g class="cls-7"><path class="cls-18" d="M9.34,3.93C5.34,3.63.68,5.58,0,10.15a7.29,7.29,0,0,0,1.89,5.47c1.34,1.65,2.63,2,4.77,1.85,3.11-.27,8.93-2,9-5.91C15.68,7.9,13,4,9.28,3.47c-.89-.12-.88,1.29,0,1.4a5.35,5.35,0,0,1,4,3.19,4.1,4.1,0,0,1,.45,4c-.59,1.73-1.19,1.93-2.81,2.68A14.15,14.15,0,0,1,7.4,15.92a5,5,0,0,1-5.47-7c1.12-3,4.57-3.8,7.41-3.57.9.07.89-1.33,0-1.4Z"/></g></g></g></svg>