<svg xmlns="http://www.w3.org/2000/svg" viewBox="0 0 19.77 19.77"><defs><style>.cls-1{opacity:0.85;}.cls-2{fill:#f7c481;}.cls-3{fill:#fff;}</style></defs><title>instgram-icon</title><g id="Layer_2" data-name="Layer 2"><g id="Layer_1-2" data-name="Layer 1"><g class="cls-1"><circle class="cls-2" cx="9.89" cy="9.89" r="9.89"/></g><path class="cls-3" d="M9.9,5.33c1.53,0,1.71,0,2.31,0a3.16,3.16,0,0,1,1.06.2,1.89,1.89,0,0,1,1.08,1.08,3.16,3.16,0,0,1,.2,1.06c0,.6,0,.78,0,2.31s0,1.71,0,2.31a3.16,3.16,0,0,1-.2,1.06,1.89,1.89,0,0,1-1.08,1.08,3.16,3.16,0,0,1-1.06.2c-.6,0-.78,0-2.31,0s-1.71,0-2.31,0a3.16,3.16,0,0,1-1.06-.2,1.89,1.89,0,0,1-1.08-1.08,3.16,3.16,0,0,1-.2-1.06c0-.6,0-.78,0-2.31s0-1.71,0-2.31a3.16,3.16,0,0,1,.2-1.06A1.89,1.89,0,0,1,6.53,5.56a3.16,3.16,0,0,1,1.06-.2c.6,0,.78,0,2.31,0m0-1c-1.55,0-1.75,0-2.36,0a4.2,4.2,0,0,0-1.39.27A2.92,2.92,0,0,0,4.49,6.28a4.19,4.19,0,0,0-.27,1.39c0,.61,0,.8,0,2.36s0,1.75,0,2.36a4.19,4.19,0,0,0,.27,1.39,2.92,2.92,0,0,0,1.67,1.67,4.2,4.2,0,0,0,1.39.27c.61,0,.8,0,2.36,0s1.75,0,2.36,0a4.2,4.2,0,0,0,1.39-.27,2.92,2.92,0,0,0,1.67-1.67,4.19,4.19,0,0,0,.27-1.39c0-.61,0-.8,0-2.36s0-1.75,0-2.36a4.19,4.19,0,0,0-.27-1.39A2.92,2.92,0,0,0,13.64,4.6a4.2,4.2,0,0,0-1.39-.27c-.61,0-.8,0-2.36,0"/><path class="cls-3" d="M9.9,7.08A2.93,2.93,0,1,0,12.84,10,2.93,2.93,0,0,0,9.9,7.08m0,4.84A1.91,1.91,0,1,1,11.81,10,1.91,1.91,0,0,1,9.9,11.92"/><path class="cls-3" d="M10.57,10a.69.69,0,1,1-.69-.69.69.69,0,0,1,.69.69"/></g></g></svg>