<svg xmlns="http://www.w3.org/2000/svg" viewBox="0 0 223.24 90.35"><defs><style>.cls-1{fill:#343334;}.cls-2{opacity:0.85;}.cls-3{fill:#f2d68b;}.cls-4{fill:#fff;}.cls-5{fill:#333132;}.cls-6{fill:none;stroke:#333132;stroke-miterlimit:10;}.cls-7{opacity:0.14;}.cls-8{fill:#896b4a;}</style></defs><g id="Layer_2" data-name="Layer 2"><g id="Layer_1-2" data-name="Layer 1"><path class="cls-1" d="M43.83,50.07c0,5.78,3.33,4.35,3.33,7,0,4-8.71,3.88-11.23,3.88-2.1,0-10.34,0-10.34-3.48,0-2,1.91-1.9,2.45-5.37a37.61,37.61,0,0,0,.48-6.81c0-3.4-.07-9.8-4.91-9.8-4.15,0-4,3.54-4,6.6V50c0,5.65,2.72,4.49,2.72,6.94,0,4-7.76,4-10.35,4C2.25,61,0,58.91,0,56.8c0-2.72,2.66-1.49,3.81-5.91.82-3.2.82-12.19.82-15.93,0-3.06-.21-6.19-.27-9.26C4.22,20.87.14,22.57.14,19.37c0-5.44,17.69-6.87,17.76-6.87,2,0,2.17.61,2.17,2.58L19.67,28c-.07,1.3-.14,3.48,1.63,3.48,2,0,2.93-6.06,10.55-6.06,12.53,0,11.64,11.77,11.71,13.68Z"/><path class="cls-1" d="M87.55,43.94c0,12,4.08,5.45,4.08,9.12,0,3.88-5.31,8.1-10.27,8.1-5.38,0-5.52-3.47-7.22-3.47-.81,0-1.7.88-3.2,1.7a12.49,12.49,0,0,1-6.67,1.77c-5.65,0-11.3-3-11.3-9.73,0-4.83,4.63-10.82,16.61-10.82,2.11,0,3.06.13,3.06-2.32,0-2.24-.07-6.94-3.2-6.94-4.08,0-4.49,7.35-10.54,7.35A3.65,3.65,0,0,1,55.09,35c0-5.79,11.5-9.53,18-9.53,3.88,0,14.5,1.5,14.5,11.71Zm-20.42,6c0,1.77,1,3.68,2.93,3.68,2.58,0,2.79-2.79,2.79-4.83,0-1.5.06-3.21-1.84-3.21C68.7,45.57,67.13,47.75,67.13,49.93Z"/><path class="cls-1" d="M118.39,45.86c0,4.46,1.86,5.52,3.66,5.52,2.06,0,3.25-1.52,4.45-1.52s2.26,1.86,2.26,3.06c0,4.39-7.58,8.24-14.3,8.24-3.39,0-11.9-1.46-11.9-12V35.43c0-1.2,0-1.67-.33-1.87s-1.06-.06-2.6-.06c-1.72,0-2.59.06-2.93-.27s-.33-1.13-.33-2.66c0-.93-.19-1.66.61-2.19l15.15-9.64c1.54-.94,1.47-.74,3.46-.74,2.66,0,2.8-.26,2.8,2.8,0,2.06-.14,4.12.19,4.92.2.53.67.53,2.4.53h4.65c2.86,0,2.86.2,2.86,3.19,0,3.79-.46,4.06-3.05,4.06h-4.59c-2.33,0-2.46.06-2.46,2.46Z"/><path class="cls-1" d="M155,25.43c10.21,0,15.58,5.65,15.58,10.41a6.57,6.57,0,0,1-6.67,6.74c-7.35,0-3.94-8.44-9.32-8.44-3,0-4.63,3.06-4.63,5.79,0,5,3.74,10.14,9.12,10.14,4.29,0,5.72-1.77,7.14-1.77,1.85,0,3.07,2,3.07,3.67,0,4-6.12,9.19-15.65,9.19-10.28,0-18.58-7.55-18.58-18C135,33.39,143.53,25.43,155,25.43Z"/><path class="cls-1" d="M219.91,50.07c0,5.78,3.33,4.35,3.33,7,0,4-8.71,3.88-11.23,3.88-2.11,0-10.34,0-10.34-3.48,0-2,1.9-1.9,2.45-5.37a37.61,37.61,0,0,0,.47-6.81c0-3.4-.06-9.8-4.89-9.8-4.16,0-4,3.54-4,6.6V50c0,5.65,2.72,4.49,2.72,6.94,0,4-7.76,4-10.34,4-9.74,0-12-2.05-12-4.16,0-2.72,2.65-1.49,3.81-5.91.82-3.2.82-12.19.82-15.93,0-3.06-.21-6.19-.27-9.26-.14-4.83-4.23-3.13-4.23-6.33,0-5.44,17.7-6.87,17.76-6.87,2.05,0,2.19.61,2.19,2.58L195.75,28c-.07,1.3-.14,3.48,1.63,3.48,2,0,2.93-6.06,10.55-6.06,12.52,0,11.63,11.77,11.71,13.68Z"/><path class="cls-1" d="M47.46,71.62a8.8,8.8,0,0,0,1.41.24,2.18,2.18,0,0,0,.93-.24,3.13,3.13,0,0,1,.92-.21c1.58,0,3.17,3.16,3.17,4.57A1.65,1.65,0,0,1,52.2,77.6c-2,0-3.06-2.72-4.57-2.72a1.25,1.25,0,0,0-1.24,1.17c0,2.2,7.57,2.61,7.57,7.94,0,3.23-3.13,5.46-6.71,5.46a17.56,17.56,0,0,1-2.54-.24c-.86-.1-1.61-.2-1.82-.2a4,4,0,0,0-.69.07,4.18,4.18,0,0,1-.65.07A1.65,1.65,0,0,1,40,88.49a7.66,7.66,0,0,1-1.72-4.22c0-.9.31-1.62,1.3-1.62,1.52,0,2.89,3.4,4.82,3.4.68,0,1.34-.34,1.34-1.1,0-2-6.74-2.26-6.74-7.94,0-3.43,2.82-5.6,6.36-5.6A13.82,13.82,0,0,1,47.46,71.62Z"/><path class="cls-1" d="M69.72,83.08c0,2.12.88,2.62,1.73,2.62S73,85,73.57,85s1.07.88,1.07,1.45c0,2.08-3.6,3.92-6.78,3.92-1.62,0-5.66-.7-5.66-5.72v-6.5c0-.57,0-.79-.16-.89a4.3,4.3,0,0,0-1.23,0c-.82,0-1.23,0-1.39-.13s-.16-.53-.16-1.26c0-.44-.09-.79.29-1l7.2-4.58c.72-.44.69-.35,1.64-.35,1.26,0,1.33-.12,1.33,1.33a9.67,9.67,0,0,0,.09,2.34c.1.25.32.25,1.14.25h2.21c1.36,0,1.36.09,1.36,1.51,0,1.8-.23,1.93-1.46,1.93H70.88c-1.1,0-1.16,0-1.16,1.17Z"/><path class="cls-1" d="M88.75,82.56c0,1.27.1,3.24,1.81,3.24,2.29,0,2-3,2-4.52a24.36,24.36,0,0,0-.13-3.43c-.25-1.6-1.81-1-1.81-2.39,0-1.88,6.39-2.2,7.6-2.2s1.62.67,1.62,1.79-.06,2-.06,3v6.39c0,1.91,1.75,1,1.75,2.55,0,2.16-5.63,2.77-7.38,2.77-2.45,0-.83-1.91-2.1-1.91-.35,0-.86.48-1.63.95a5.76,5.76,0,0,1-3.17,1c-6,0-5.54-4.77-5.54-9.55s-2.2-2.74-2.2-4.83,8-2.14,8.27-2.14c.9,0,1,.42,1,1.21Z"/><path class="cls-1" d="M121.46,83.84c0,2,1.5,1.34,1.5,2.81,0,2.15-6.2,2.29-6.51,2.29-1.44,0-.42-1.56-1.36-1.56-.25,0-.67.4-1.33.83A5.14,5.14,0,0,1,111,89c-3.71,0-6.6-3.94-6.6-7.42,0-3.77,3.06-7.45,7-7.45a9,9,0,0,1,3.37.85c.42,0,.45-.93.45-1.24,0-1.76-2.07-.82-2.07-2.35,0-2.1,7.22-2.64,7.31-2.64.85,0,1,.6,1,1.53Zm-7.9-6.59c-1.89,0-2.23,3.25-2.23,4.59s.34,3.65,2.09,3.65,1.79-3.48,1.79-4.73S115.21,77.25,113.56,77.25Z"/><path class="cls-1" d="M137.58,83.3c0,3.51,1.76,2.23,1.76,3.81,0,2-3.79,2-5.13,2-5.12,0-5.33-1.16-5.33-1.88,0-1.07,1.22-1.13,1.58-2.06a19.43,19.43,0,0,0,.12-6.46c-.27-1-1.79-.72-1.79-2.06,0-2.11,7.57-3,7.87-3,.89,0,.92.69.92,1.31Zm-5.9-10.58c-1.25,0-2.59-.57-2.59-2,0-2,3.93-2.77,5.45-2.77,1.19,0,2.89.39,2.89,1.88C137.43,72.12,133.38,72.72,131.68,72.72Z"/><path class="cls-1" d="M144.3,81.27c0-5,4.4-7.84,9-7.84a7.45,7.45,0,0,1,7.7,7.31c0,4.59-4.93,7.39-9.05,7.39S144.3,85.7,144.3,81.27Zm7.81-4.53a1.47,1.47,0,0,0-1.37,1.68c.11,1.76.62,6.07,2.55,6.18,1.06.06,1.29-.84,1.29-1.73C154.58,81.61,154,76.74,152.11,76.74Z"/><g class="cls-2"><rect class="cls-3" x="166.14" y="74.38" width="23.94" height="12.71" rx="3.31"/></g><path class="cls-4" d="M172.46,77.27v.85h-.94v-.85Zm0,1.87a6.91,6.91,0,0,0-.06,1v2.66a7.79,7.79,0,0,0,.06,1h-.9a6.55,6.55,0,0,0,.06-1V80.15a5.88,5.88,0,0,0-.06-1Z"/><path class="cls-4" d="M175,83.81a6,6,0,0,0,.07-1V80.15a6.16,6.16,0,0,0-.07-1h.83v.5a3,3,0,0,1,0,.37,1.9,1.9,0,0,1,1.72-1,1.58,1.58,0,0,1,1.38.63,1.84,1.84,0,0,1,.25,1v2.09a6.62,6.62,0,0,0,.06,1h-.89a6.4,6.4,0,0,0,.06-1v-2c0-.75-.33-1.13-1-1.13a1.47,1.47,0,0,0-1.16.6,1.84,1.84,0,0,0-.43.83v1.66a8,8,0,0,0,.06,1Z"/><path class="cls-4" d="M184.31,80.61a1.22,1.22,0,0,0-1.23-1c-.9,0-1.47.71-1.47,1.82s.58,1.79,1.51,1.79a1.23,1.23,0,0,0,1.07-.53,1.73,1.73,0,0,0,.18-.42l.75.18a2,2,0,0,1-.35.67,2,2,0,0,1-1.68.76,2.46,2.46,0,0,1,0-4.91,2,2,0,0,1,1.7.81,2,2,0,0,1,.3.57Z"/><path class="cls-5" d="M65.1,9.39,66.77,9l.11.08a13.16,13.16,0,0,1,.56,2.8,15.71,15.71,0,0,0,.83,3.45,3.05,3.05,0,0,0,.35.7c.15.21.22.21.36-.1a4.65,4.65,0,0,0,.3-1l.42,0a9.08,9.08,0,0,0,.38,2.8.8.8,0,0,1-.47,1.08,1.35,1.35,0,0,1-1.11-.16,5.15,5.15,0,0,1-1.73-2.51A22.25,22.25,0,0,1,65.62,12,14,14,0,0,0,65,9.48Zm11.68,6a8.06,8.06,0,0,0-1.62-.69c.21,1.18-.42,1.94-1.65,2.41s-2.53.38-3-.92A2.12,2.12,0,0,1,72,13.48a3.3,3.3,0,0,1,.76-.24c-.32-.72-.64-1.49-1-2.35-.78.37-1.62.72-2.41,1l-.12-.06-.58-1.41.06-.1c.85-.33,1.64-.66,2.42-1-.25-.58-.5-1.22-.75-1.87l.06-.14L72,6.75l.13.06c.23.59.44,1.18.66,1.74l1.34-.75h.14L75,9.14l0,.12c-.45.27-1,.57-1.58.87.41,1,.84,2,1.23,2.86a7,7,0,0,1,2.7.62l0,.14-.44,1.56Zm-4.31-.56c-.47.18-.64.46-.54.7s.32.33.88.11.67-.51.45-1A2.22,2.22,0,0,0,72.47,14.82Z"/><path class="cls-5" d="M79.57,10.44c2.65-2,3.9-2.75,5.07-3A2.83,2.83,0,0,1,88.29,9.6a3.09,3.09,0,0,1-1.24,3.27,11.12,11.12,0,0,1-2.59,1.28l-.19.06a.33.33,0,0,1-.34-.12l-1.09-1.16a8.62,8.62,0,0,0,2.8-1.16,1.72,1.72,0,0,0,.81-2c-.16-.73-.72-1-1.54-.82S83,9.8,80.67,11.74h-.12l-1-1.19Z"/><path class="cls-5" d="M91.79,3.73c.84-.09,1.66-.21,2.47-.36,0-.69,0-1.39.07-2.14l.08-.08,1.76-.07.08.08c0,.63,0,1.22-.11,1.78a25.26,25.26,0,0,0,2.67-.88l.09,0,.36,1.58-.05.12A32.82,32.82,0,0,1,96,4.75a17.72,17.72,0,0,1-.41,2.1,5.73,5.73,0,0,1,2.81-1c1.53-.17,3.28.48,3.49,2.36s-1.18,3.4-5.06,4.07a.31.31,0,0,1-.36-.16l-1-1.41c3.31-.39,4.51-1.39,4.39-2.42-.08-.71-.77-1-1.67-.87a4,4,0,0,0-3.31,2.71l-.12.06-1.6-.58,0-.11a17.77,17.77,0,0,0,1.07-4.31c-.66.12-1.34.23-2,.32L92,5.4l-.28-1.56Z"/><path class="cls-5" d="M108.53,10.18c1.8-.39,2.93-1.19,3.25-2a1.68,1.68,0,0,1-1.2.3c-1.15,0-1.78-.58-1.79-1.46,0-1.49,1.12-2.83,2.22-2.84a2.2,2.2,0,0,1,.62,0c0-.27,0-.51,0-.81-1.59.1-3.28.27-5,.49l-.1-.07-.15-1.57.09-.12c1.73-.14,3.5-.28,5.18-.39,0-.54,0-1.1,0-1.68l.07-.09,1.72,0,.1.1c0,.57,0,1.08,0,1.56,1.25-.06,2.5-.13,3.68-.15l.1.08,0,1.56-.1.09c-1.23,0-2.48,0-3.69.1,0,.69,0,1.41.06,2.26a5.11,5.11,0,0,1,.29,1.52,4,4,0,0,1-.5,2.05,4.89,4.89,0,0,1-2.85,2.2l-.12,0a.42.42,0,0,1-.18,0,.36.36,0,0,1-.2-.06Zm2.63-4.5c-.35,0-.75.54-.75.93,0,.23.08.35.4.34.51,0,.87-.22.89-.79C111.61,5.81,111.41,5.67,111.16,5.68Z"/><path class="cls-5" d="M120.72,10.71c.82-2.31,1.54-4.28,2.26-6.28-.64,0-1.27,0-1.9,0l-.09-.1V2.84l.09-.09c.93,0,1.74,0,2.51-.06.24-.68.5-1.4.76-2.12l.11,0,1.69.39.07.12c-.2.5-.4,1-.58,1.53l1.48-.17.09.06V4l-.09.09c-.68.08-1.4.14-2.11.2-.84,2.25-1.63,4.48-2.46,7l-.12,0-1.66-.51Zm4.24-.8,1-1.08h.12c.57.72,1.14.94,2.56,1.05a11.53,11.53,0,0,0,2.28,0l.1.06-.14,1.74-.08.1a16.09,16.09,0,0,1-2.36,0C126.26,11.54,125.6,11,125,10Zm1.47-3.68.23-1.52.1-.11c.62,0,1.23,0,1.82.07a17,17,0,0,1,2.35.34l.08.1-.25,1.54-.11.06c-.85-.14-1.66-.25-2.54-.32-.51,0-1-.06-1.6-.07Z"/><path class="cls-5" d="M137.76,2.22l1.73.32.08.11c-.34,1.51-.58,2.54-.87,3.79-.24,1.06-.56,2.43-.73,3.38s.19,1.36.92,1.49c1.41.25,3.21-.57,4.59-2.29l.82,1.62a.29.29,0,0,1,0,.4,6.23,6.23,0,0,1-5.57,2.16c-1.85-.33-3-1.43-2.59-3.51.31-1.7.6-2.83.83-3.94.21-1,.47-2,.72-3.46ZM142,4.66l.72-.34h.12a7.92,7.92,0,0,1,1,1.52l0,.12-.77.36-.12,0a7.57,7.57,0,0,0-1-1.54Zm1.29-.57.71-.34h.12a7.21,7.21,0,0,1,1,1.48l0,.12-.73.35-.12,0a7.93,7.93,0,0,0-1-1.49Z"/><path class="cls-5" d="M152.35,9.13a22.47,22.47,0,0,1-2.29-.73L150,8.3l.52-1.42.11,0c.81.31,1.59.57,2.36.78l.87-2,.12,0,1.5.63,0,.11L154.77,8c.53.11,1,.17,1.5.24l.07.09-.44,1.46-.12.05c-.57-.1-1.14-.19-1.68-.32l-.49,1.11a8.36,8.36,0,0,1,2.63.52c1.89.8,2.36,2.4,1.81,3.7A2.82,2.82,0,0,1,154,16.36a3.16,3.16,0,0,1-1.48-1.09.2.2,0,0,1,0-.23l.94-1.24a3.27,3.27,0,0,0,1.12.86,1.16,1.16,0,0,0,1.62-.55c.25-.59,0-1.19-.82-1.53a5.27,5.27,0,0,0-2.46-.31l-1.09,2.57c-.27.64-.81.92-1.69.55s-2.45-2.22-2-3.36c.3-.7,1.95-1.4,3.52-1.49Zm-1.28,3.09c-.64.09-1.11.27-1.18.43s.31.71.5.79.16,0,.23-.16Zm6.07-2.69,1.33-.86.13,0a6.87,6.87,0,0,1,2,2.7l0,.14-1.38.85-.14,0a6.76,6.76,0,0,0-1.91-2.74Z"/><line class="cls-6" x1="53.97" y1="12.74" x2="62.13" y2="20.88"/><g class="cls-7"><path class="cls-8" d="M52.56,14.09l7.36,7.37A1.05,1.05,0,0,0,61.41,20L54,12.61a1,1,0,0,0-1.48,1.48Z"/></g><line class="cls-6" x1="170.42" y1="9.74" x2="162.26" y2="17.88"/><g class="cls-7"><path class="cls-8" d="M170.41,9.67,163,17a1.05,1.05,0,0,0,1.49,1.49l7.36-7.37a1,1,0,0,0-1.48-1.48Z"/></g></g></g></svg>
