<svg xmlns="http://www.w3.org/2000/svg" viewBox="0 0 19.77 19.77"><defs><style>.cls-1{opacity:0.85;}.cls-2{fill:#8ccece;}.cls-3{fill:#fff;}</style></defs><title>twitter-icon</title><g id="Layer_2" data-name="Layer 2"><g id="Layer_1-2" data-name="Layer 1"><g class="cls-1"><circle class="cls-2" cx="9.89" cy="9.89" r="9.89"/></g><path class="cls-3" d="M4.29,14.16A6.88,6.88,0,0,0,14.88,8.05,4.9,4.9,0,0,0,16.08,6.8a4.83,4.83,0,0,1-1.39.38,2.42,2.42,0,0,0,1.06-1.34,4.85,4.85,0,0,1-1.54.59A2.42,2.42,0,0,0,10.1,8.64a6.87,6.87,0,0,1-5-2.53,2.42,2.42,0,0,0,.75,3.23A2.41,2.41,0,0,1,4.77,9a2.42,2.42,0,0,0,1.94,2.4,2.42,2.42,0,0,1-1.09,0,2.42,2.42,0,0,0,2.26,1.68A4.86,4.86,0,0,1,4.29,14.16Z"/></g></g></svg>