<svg xmlns="http://www.w3.org/2000/svg" viewBox="0 0 269.99 69.21"><defs><style>.cls-1{fill:#e5e3e3;opacity:0.6;}.cls-2{fill:#f1c2b7;}.cls-3{fill:#fff;}.cls-4{opacity:0.14;}.cls-5{fill:#896b4a;}.cls-6{opacity:0.85;}.cls-7{fill:#333132;}.cls-8{fill:none;stroke:#333132;stroke-miterlimit:10;}</style></defs><g id="Layer_2" data-name="Layer 2"><g id="Layer_1-2" data-name="Layer 1"><rect class="cls-1" x="4.68" y="25.93" width="265.31" height="43.28" rx="5.25"/><rect class="cls-2" y="22.93" width="267.6" height="43.28" rx="5.27"/><path class="cls-3" d="M64,42.64a19.46,19.46,0,0,0-2.5.12V41.49c-.7.35-.95.47-1.77.81a13.52,13.52,0,0,0-1.54-2.93,15.43,15.43,0,0,0,4.52-2.2,11.84,11.84,0,0,0,3.33-3.23h3.29a12.43,12.43,0,0,0,3.41,3.13,15.81,15.81,0,0,0,4.63,2.16,14.72,14.72,0,0,0-1.44,3.13,18.81,18.81,0,0,1-1.89-.85v1.25a19.26,19.26,0,0,0-2.39-.12H69.28v1.72h2.77a19.6,19.6,0,0,0,2.52-.12v3A20.4,20.4,0,0,0,72,47.12H69.28v2h4.3A26.49,26.49,0,0,0,76.47,49v3a25.51,25.51,0,0,0-2.83-.12H61.83a24,24,0,0,0-2.74.12V49a24.74,24.74,0,0,0,2.81.12h4.23v-2H63.59a19.79,19.79,0,0,0-2.5.12v-3a21.15,21.15,0,0,0,2.5.12h2.54V42.64Zm7.43-2.72a15.42,15.42,0,0,1-3.69-3.31,14.35,14.35,0,0,1-3.63,3.31Z"/><path class="cls-3" d="M87.79,35.42a12.74,12.74,0,0,0,1.74-.08v2.92a7.43,7.43,0,0,0-.91-.08,16.28,16.28,0,0,1-.57,2.14,9.73,9.73,0,0,0,1.58-.08v3a10.28,10.28,0,0,0-1.42-.08H81.59a13.65,13.65,0,0,0-2.08.1v-3a10.79,10.79,0,0,0,1.92.1,20.25,20.25,0,0,0-.54-2.14c-.45,0-.73,0-1.07.08V35.32a10.94,10.94,0,0,0,1.91.1h1.64v-.35a6.32,6.32,0,0,0-.1-1.29h3.25a6,6,0,0,0-.1,1.25v.39Zm-4.34,17h-3a14.15,14.15,0,0,0,.1-1.94V45.63A11.33,11.33,0,0,0,80.46,44c.47,0,.91.06,1.62.06h5.53A9.76,9.76,0,0,0,89,44,9,9,0,0,0,89,45.31V51a9.59,9.59,0,0,0,.08,1.41h-3v-1h-2.6Zm0-3.75h2.6V46.8h-2.6Zm1.76-8.32a13.19,13.19,0,0,0,.48-2.14H83.87a13.85,13.85,0,0,1,.49,2.14ZM98.3,36.1a14.59,14.59,0,0,0-.64,1.7c-.38,1.05-1,2.46-1.56,3.79a10,10,0,0,1,1.6,2.77,7.53,7.53,0,0,1,.46,2.5,2.67,2.67,0,0,1-1.57,2.73,5.72,5.72,0,0,1-2.16.32c-.1,0-.34,0-.65,0a5.75,5.75,0,0,0-.68-3c.46,0,.64.06.84.06.85,0,1.14-.2,1.14-.75A5.74,5.74,0,0,0,94.59,44a8.71,8.71,0,0,0-1.43-2.24,19.16,19.16,0,0,0,1.61-4.65H93V50a17.57,17.57,0,0,0,.12,2.42H90c.06-.75.1-1.55.1-2.32V35.74c0-.62,0-1-.06-1.51a14.25,14.25,0,0,0,1.65.08h3.68a8.51,8.51,0,0,0,1.63-.1Z"/><path class="cls-3" d="M109.53,46.66c-1.15,2.54-2.47,3.65-4.28,3.65-2.65,0-4.52-2.54-4.52-6.17a8.82,8.82,0,0,1,2.28-6,9.5,9.5,0,0,1,7.18-2.92,8.88,8.88,0,0,1,6.46,2.44,7.88,7.88,0,0,1,1.94,5.51,8.49,8.49,0,0,1-2.64,6.4c-1.34,1.21-2.91,1.85-5.68,2.28a9.94,9.94,0,0,0-1.69-3.25,10.2,10.2,0,0,0,4.16-1,4.9,4.9,0,0,0,2.38-4.6,4.65,4.65,0,0,0-1.74-3.9,3.22,3.22,0,0,0-1.67-.69A27.65,27.65,0,0,1,109.53,46.66Zm-3.41-7.25A6.43,6.43,0,0,0,104,44.12c0,1.41.54,2.52,1.23,2.52.5,0,1-.69,1.61-2.2a25.42,25.42,0,0,0,1.48-6A3.89,3.89,0,0,0,106.12,39.41Z"/><path class="cls-3" d="M129.87,39.62a12.58,12.58,0,0,0-1.57-.06H123a12.15,12.15,0,0,0-1.6.08V37a8.68,8.68,0,0,0,1.6.1h5.31a13.94,13.94,0,0,0,1.55-.06V34.27a18.81,18.81,0,0,0,2.3.12H137a16.51,16.51,0,0,0,2.18-.1,17.75,17.75,0,0,0-.09,2.06v5.06a18.56,18.56,0,0,0,.08,2.06,14.79,14.79,0,0,0-2.05-.1h-4v5.27c0,.38.06.48.38.6a5,5,0,0,0,1.42.1c1.07,0,1.55-.12,1.77-.46s.24-1.05.26-3.19a12.32,12.32,0,0,0,3.05.89c-.12,2.76-.42,4-1.11,4.74s-1.69.85-4.38.85c-3.65,0-4.44-.42-4.44-2.36V42.5a18.13,18.13,0,0,0-.06-2,19.23,19.23,0,0,0,2,.08h4V37.23h-3.94c-1,0-1.63,0-2.24.09Zm-8,12.87c.06-.68.1-1.33.1-2V47.35a11.08,11.08,0,0,0-.08-1.46,13,13,0,0,0,1.47,0h4.79a5.84,5.84,0,0,0,1.21-.06,11.24,11.24,0,0,0,0,1.33V51c0,.18,0,.24,0,.52a4.1,4.1,0,0,1,0,.49.83.83,0,0,0,0,.2h-2.85v-.59h-1.75v.87Zm.1-18.36a14.15,14.15,0,0,0,1.8.08h3.67a14.15,14.15,0,0,0,1.8-.08v2.34c-.49,0-1-.06-1.8-.06H123.8c-.85,0-1.23,0-1.8.06Zm.06,6.07a9.8,9.8,0,0,0,1.19,0h4.89a7.87,7.87,0,0,0,1.13,0v2.24a9,9,0,0,0-1.13,0h-4.89a10,10,0,0,0-1.19,0Zm0,2.83a9.8,9.8,0,0,0,1.19,0h4.87a8,8,0,0,0,1.15,0v2.24a9.62,9.62,0,0,0-1.18,0h-4.88a9.43,9.43,0,0,0-1.15,0Zm2.68,6.25h1.84V48.09h-1.84Z"/><path class="cls-3" d="M150.07,44h-4.74c-.68,0-1.27,0-1.8.06v-2a14.06,14.06,0,0,0,1.84.08h4.7v-.55h-4.29c-.71,0-1.22,0-1.72.06,0-.4.06-.84.06-1.35V39c0-.55,0-.95-.06-1.43.55,0,1,.06,1.78.06h4.23v-.57h-5.2a20.92,20.92,0,0,0-2.42.1V34.65a21.62,21.62,0,0,0,2.6.12h5a4.39,4.39,0,0,0-.12-1h3.13a4.7,4.7,0,0,0-.12,1h5.13a21.36,21.36,0,0,0,2.58-.12v2.52a20.7,20.7,0,0,0-2.38-.1H153v.57h4.4c.81,0,1.23,0,1.7-.06,0,.46-.05.8-.05,1.43v1.31c0,.63,0,.89.05,1.35-.45,0-.95-.06-1.56-.06H153v.55h4.56a15.74,15.74,0,0,0,2-.06,14,14,0,0,0-.06,1.82v.62a6.68,6.68,0,0,0,1.39-.12v2.42a9.63,9.63,0,0,0-1.39-.1v.95a16.86,16.86,0,0,0,.1,2.24h-3v-.77H153v.75c0,2.18-.52,2.56-3.49,2.56-.53,0-1.09,0-1.84-.06a8.41,8.41,0,0,0-.76-2.5c1.06.1,1.77.16,2.46.16s.74-.06.74-.42v-.49h-4.6a18.54,18.54,0,0,0-2,.08v-2a17.91,17.91,0,0,0,1.88,0h4.7v-.59h-5.54a13.63,13.63,0,0,0-2.17.1V44.52a13.58,13.58,0,0,0,2.14.1h5.57ZM147,39.33v.59h3.1v-.59Zm6,.59h3.19v-.59H153Zm3.63,4.7V44H153v.6ZM153,47.25h3.63v-.59H153Z"/><path class="cls-3" d="M181.62,44.44a31.68,31.68,0,0,0-3.41-.16H167a32.56,32.56,0,0,0-3.43.16V41a28.3,28.3,0,0,0,3.43.16h11.24a25.45,25.45,0,0,0,3.41-.16Z"/><path class="cls-3" d="M191.79,40.26h.77a11.16,11.16,0,0,0,1.53-.06v1.13h4.58c1,0,1.28,0,1.82-.06a5.61,5.61,0,0,0,0,.93v5.67a8.81,8.81,0,0,0,2.56.77c-.14,1.93-.4,2.7-1,3.15s-1.43.52-3.95.52c-3.57,0-4.14-.24-4.14-1.73V48.8h-1.09a5.9,5.9,0,0,1-3.27,3,12.6,12.6,0,0,1-3.85.78A9.76,9.76,0,0,0,184.37,50a1,1,0,0,0,.22,0c2.4,0,4-.4,5-1.23h-.76c-1,0-1.46,0-2,0a15.92,15.92,0,0,0,.08-2V42.22c0-.18,0-.32,0-.57h-.47c-.58,0-.8,0-1.31,0,0-.56,0-1,0-2.16V36.31c0-1.23,0-1.64-.06-2.18.53,0,.95.06,2.08.06h5a13.58,13.58,0,0,0,2-.1v2a12.49,12.49,0,0,0-1.45-.06h-.83v.55h.89c.51,0,.69,0,1,0a.34.34,0,0,0,0,.14,6.26,6.26,0,0,0,1.88-3l2.94.45-.4.86h2.62a16.21,16.21,0,0,0,1.82-.1V37.5a16.91,16.91,0,0,0-1.8-.08h-4.13a10.75,10.75,0,0,1-.71.86h4.28c.85,0,1.35,0,1.79-.06V40.6a13,13,0,0,0-1.73-.08h-3.35c-.67,0-1.31,0-1.68.06V39c-.24.22-.32.3-.6.53a8.16,8.16,0,0,0-.95-1.42v.63a5.22,5.22,0,0,0,0,.93c-.44,0-.56,0-1.07,0h-.87Zm-2.52-3.71V36H187.8v.55ZM191,38.42V37.8H187.8v.62Zm-3.21,1.24v.6h1.45v-.6Zm2,3.77h7.73v-.52h-7.73Zm0,1.78h7.73v-.47h-7.73Zm0,1.81h7.73v-.5h-7.73Zm7.09,2.4c0,.45.18.51,1.47.51,1.09,0,1.5,0,1.7-.2s.2-.22.26-.89c-.5,0-.85,0-1.76,0h-1.67Z"/><g class="cls-4"><path class="cls-5" d="M112.68,8.6l1.11-.18,2-.37.1.08.22,1.35-.07.1-2,.3-1.11.18.22,1.39,2.47-.4,2-.37.1.07.22,1.39-.07.1-2.05.29-6.65,1.08-2,.37-.1-.08-.23-1.4.11-.08,2-.29,2.38-.39-.22-1.39-.87.14-2,.37-.1-.07-.22-1.38.1-.08L110,9l.86-.15-.21-1.29-.36.06L108.4,8,108.3,8l-.11-.68c-.29.27-.6.54-.91.8a.57.57,0,0,1-.27.15.34.34,0,0,1-.22-.07l-1.38-.87a13.8,13.8,0,0,0,4.43-5.48l.13-.06,1.79.18.06.12c0,.09-.09.2-.14.3a19,19,0,0,0,5.71,2.59l-.94,1.44c-.12.17-.21.25-.32.27a.41.41,0,0,1-.23,0,11.33,11.33,0,0,1-1.06-.47l.11.73-.07.1L113,7.23l-.48.08Zm1.07-3a20.34,20.34,0,0,1-2.81-1.85,16.1,16.1,0,0,1-1.87,2.61l1-.14,2.63-.43Z"/><path class="cls-5" d="M121.27,5.16a10.42,10.42,0,0,0-.68-1.5l0-.09,1.27-.48.11.06a9.59,9.59,0,0,1,.8,1.51l0,.1-.83.35L123.37,5a14.62,14.62,0,0,0,.49-2L124,3l1.52.35,0,.13a10.43,10.43,0,0,1-.6,1.5H125l1.54-.13.08.06.09,1.34-.08.07-1.54.06-3.68.23-1.51.13-.09-.07-.08-1.32.07-.08Zm3.23-3.67,1.56-.14.08.06.08,1.32-.07.07-1.56.06-3,.19L120,3.18l-.09-.07-.08-1.29.07-.08,1.56-.06.64,0L122,.49l.08-.09,1.57-.1.09.08.07,1.15Zm-1.81,9.85,0,.67-1.68.11L121,10l-.08-1.37-.11-1.34,0-.1,1.7-.06,1.68-.11,1.7-.14L126,7l0,1.35.08,1.38.19,2-1.75.11,0-.58Zm1.67-2.95-1.84.12.09,1.46,1.84-.12Zm4.33-1.48.36,4.86-1.83.11L127,7l-.29-4.62L126.56.52l.08-.09,1.6-.06,1.54-.1.76-.08.69.59a.35.35,0,0,1,.09.22c0,.05,0,.11,0,.18a29.5,29.5,0,0,1-.89,3.68,4.48,4.48,0,0,1,1.44,3.23,1.93,1.93,0,0,1-2,2.33c-.19,0-.25,0-.31-.17l-.57-1.4c1.1-.07,1.26-.2,1.21-1A3.84,3.84,0,0,0,129,5.34a.55.55,0,0,1-.17-.3,1.23,1.23,0,0,1,0-.21,23.58,23.58,0,0,0,.64-3l-1.1.07Z"/><path class="cls-5" d="M139.42,10.33a4.76,4.76,0,0,0,3-2.61,7.81,7.81,0,0,0-2.55-.79,17.79,17.79,0,0,1-1.28,2.57,2.12,2.12,0,0,1-2,1,1.83,1.83,0,0,1-1.72-2c0-1.83,1.28-3,3.76-3.23.42-1,.64-1.56,1-2.56l-2,.34-.11-.09-.3-1.57.06-.11c1.39-.21,2.52-.36,3.28-.46l.43,0c.7,0,1.08.43,1.07,1a1.64,1.64,0,0,1-.11.45c-.36,1-.82,1.94-1.39,3.21a11.21,11.21,0,0,1,2.35.62,9.91,9.91,0,0,0,.06-1.5l.07-.08,1.67.29.06.11a11.33,11.33,0,0,1-.13,2,10.91,10.91,0,0,1,1.47,1l0,.13-.92,1.49-.13,0c-.37-.31-.74-.56-1.06-.78a6.25,6.25,0,0,1-2.86,2.82.49.49,0,0,1-.34-.1Zm-2.94-2q0,.39.21.39c.17,0,.32-.1.48-.37s.37-.71.71-1.47A1.58,1.58,0,0,0,136.48,8.34Z"/><path class="cls-5" d="M151.36,3.85l-.12-1.62.08-.11c1.94-.18,3.89-.24,5.26-.24a1.12,1.12,0,0,1,1,1.22.89.89,0,0,1-.3.62c-1.13.86-1.9,1.4-3.06,2.29a3.18,3.18,0,0,1,1.59-.13,3,3,0,0,1,2.72,3.59c-.28,2.26-2.14,3.32-5,3-1.46-.18-2.63-.94-2.45-2.36a2,2,0,0,1,2.11-1.48,2.61,2.61,0,0,1,2.29,2.15,1.74,1.74,0,0,0,1.18-1.68,1.57,1.57,0,0,0-1.49-1.77c-1.77-.22-3.2.78-4.72,2.31h-.13l-1.19-1.23V8.23c2-1.74,3.74-3.26,5.59-4.69-1,.08-2.09.21-3.27.39Zm1.77,6.2c-.24,0-.48,0-.51.27s.23.53.86.61a1.86,1.86,0,0,0,.4,0A1,1,0,0,0,153.13,10.05Z"/></g><g class="cls-6"><path class="cls-7" d="M111.68,8.42l1.11-.18,2-.37.1.07.22,1.36-.07.1-2,.29-1.11.18.22,1.4,2.47-.4,2-.37.1.07L117,12l-.07.1-2.05.3-6.65,1.07-2,.37-.1-.07-.23-1.41.11-.08,2-.29,2.38-.38-.22-1.39-.87.13-2,.37-.1-.07-.22-1.38.1-.08,2-.29.86-.14-.21-1.29-.36,0-1.91.36-.1-.07-.11-.68c-.29.28-.6.54-.91.81A.54.54,0,0,1,106,8a.28.28,0,0,1-.22-.06l-1.38-.88a13.77,13.77,0,0,0,4.43-5.47l.13-.06,1.79.17.06.12c0,.1-.09.21-.14.3a18.76,18.76,0,0,0,5.71,2.6l-.94,1.44c-.12.17-.21.25-.32.26a.5.5,0,0,1-.23,0,11.37,11.37,0,0,1-1.06-.48l.11.73-.07.1L112,7.05l-.48.07Zm1.07-3a20.34,20.34,0,0,1-2.81-1.85,16,16,0,0,1-1.87,2.6l1-.13,2.63-.43Z"/><path class="cls-7" d="M120.27,5a9.81,9.81,0,0,0-.68-1.49l0-.1,1.27-.48L121,3a10.05,10.05,0,0,1,.8,1.51l0,.11-.83.35,1.42-.09a14.47,14.47,0,0,0,.49-2l.1-.09,1.52.36,0,.12a9.58,9.58,0,0,1-.6,1.5H124l1.54-.14.08.06L125.73,6l-.08.07-1.54,0-3.68.23-1.51.14-.09-.07-.08-1.33.07-.07ZM123.5,1.3l1.56-.13.08.06.08,1.32-.07.07-1.56,0-3,.2L119,3l-.09-.07-.08-1.3.07-.08,1.56-.06.64,0L121,.31l.08-.1,1.57-.09.09.08.07,1.14Zm-1.81,9.85,0,.68-1.68.1L120,9.85l-.08-1.37-.11-1.35,0-.09,1.7-.07,1.68-.1,1.7-.15.09.08,0,1.35.08,1.39.19,2-1.75.11,0-.57Zm1.67-2.94-1.84.11.09,1.46,1.84-.11Zm4.33-1.49.36,4.86-1.83.12L126,6.83l-.29-4.63L125.56.34l.08-.1,1.6-.06,1.54-.1.76-.08.69.6a.3.3,0,0,1,.09.22c0,.05,0,.11,0,.17a29.63,29.63,0,0,1-.89,3.69,4.45,4.45,0,0,1,1.44,3.22,1.93,1.93,0,0,1-2,2.33c-.19,0-.25,0-.31-.17l-.57-1.4c1.1-.07,1.26-.19,1.21-1A3.82,3.82,0,0,0,128,5.16a.6.6,0,0,1-.17-.31,1.15,1.15,0,0,1,0-.2,23.94,23.94,0,0,0,.64-3l-1.1.07Z"/><path class="cls-7" d="M138.42,10.14a4.72,4.72,0,0,0,3-2.6,7.57,7.57,0,0,0-2.55-.79,18.37,18.37,0,0,1-1.28,2.57,2.14,2.14,0,0,1-2,1,1.84,1.84,0,0,1-1.72-2c0-1.82,1.28-3,3.76-3.23.42-1,.64-1.55,1-2.55l-2,.33-.11-.09-.3-1.57.06-.11,3.28-.46a3.17,3.17,0,0,1,.43,0c.7,0,1.08.42,1.07,1a1.64,1.64,0,0,1-.11.45c-.36,1-.82,1.93-1.39,3.2a11.25,11.25,0,0,1,2.35.63,10,10,0,0,0,.06-1.5l.07-.09,1.67.29.06.12a11.21,11.21,0,0,1-.13,2,12,12,0,0,1,1.47,1l0,.14-.92,1.48-.13.05c-.37-.31-.74-.56-1.06-.79a6.27,6.27,0,0,1-2.86,2.83.49.49,0,0,1-.34-.1Zm-2.94-2c0,.26.06.39.21.4s.32-.11.48-.38.37-.71.71-1.46A1.56,1.56,0,0,0,135.48,8.15Z"/><path class="cls-7" d="M150.36,3.67,150.24,2l.08-.1c1.94-.19,3.89-.24,5.26-.25a1.12,1.12,0,0,1,1,1.22.86.86,0,0,1-.3.62c-1.13.87-1.9,1.41-3.06,2.3a3.07,3.07,0,0,1,1.59-.13,3,3,0,0,1,2.72,3.59c-.28,2.25-2.14,3.32-5,3-1.46-.19-2.63-.95-2.45-2.36a2,2,0,0,1,2.11-1.49,2.62,2.62,0,0,1,2.29,2.15,1.73,1.73,0,0,0,1.18-1.67,1.58,1.58,0,0,0-1.49-1.78c-1.77-.22-3.2.79-4.72,2.32h-.13l-1.19-1.24V8.05c2-1.75,3.74-3.26,5.59-4.69-1,.08-2.09.2-3.27.38Zm1.77,6.2c-.24,0-.48,0-.51.26s.23.53.86.61a1.45,1.45,0,0,0,.4,0A1,1,0,0,0,152.13,9.87Z"/></g><line class="cls-8" x1="91.26" y1="5.58" x2="99.42" y2="13.72"/><line class="cls-8" x1="170.23" y1="5.58" x2="162.07" y2="13.72"/><g class="cls-4"><path class="cls-5" d="M90.84,5.94l7.37,7.36a1.05,1.05,0,0,0,1.49-1.48L92.33,4.45a1.05,1.05,0,0,0-1.49,1.49Z"/></g><g class="cls-4"><path class="cls-5" d="M169.41,3.71l-7.71,8.7c-.89,1,.59,2.5,1.49,1.49l7.7-8.7c.9-1-.58-2.5-1.48-1.49Z"/></g></g></g></svg>