<svg xmlns="http://www.w3.org/2000/svg" viewBox="0 0 113.39 65.15"><defs><style>.cls-1{opacity:0.85;}.cls-2,.cls-5{fill:#f7c481;}.cls-3{fill:none;}.cls-3,.cls-4,.cls-5,.cls-6{stroke:#7c7c80;stroke-width:0.5px;}.cls-4{fill:#f9b7a9;}.cls-6{fill:#fff;}</style></defs><title>404-img</title><g id="Layer_2" data-name="Layer 2"><g id="Layer_1-2" data-name="Layer 1"><g class="cls-1"><path class="cls-2" d="M100.66,15.22c.15-1.74.51-3.61,0-5.32-.27-.86-1.62-.49-1.35.37.49,1.56.11,3.35,0,4.94-.08.9,1.32.89,1.4,0Z"/></g><g class="cls-1"><path class="cls-2" d="M99.28,8.36H99c-.31,0-.29-.08.08.25-.05,0,.16-.3,0-.05s.07,0,.14,0l.16,0-.21-.3s0,.34,0,.35c0,.18-.1.23.11.06s.14-.13.11-.15a2.93,2.93,0,0,0-.36,0l.09.95a.35.35,0,0,1-.15.1s0,0,0,0h.18s0,0,0,0,.08,0,0,0a.19.19,0,0,1-.08-.1c-.08-.1,0-.18-.07.06-.33.84,1,1.2,1.35.37.48-1.23-.94-2.08-2-1.55a.79.79,0,0,0-.11,1.39,2,2,0,0,0,1.76.08,1.6,1.6,0,0,0,.51-1.78,1.27,1.27,0,0,0-1.69-.73,1.41,1.41,0,0,0-1.09,1.7c.19.84.89.83,1.59.85.9,0,.9-1.37,0-1.4Z"/></g><path class="cls-3" d="M99.46,15.54c.15-2.05-.2-4.11.09-6.1-.28-.13-.55-.05-.84-.16a10.9,10.9,0,0,1-.22-1.39A4.94,4.94,0,0,1,100,8a65,65,0,0,1,.13,7.29"/><path class="cls-3" d="M93.2,3.42a9.82,9.82,0,0,1,2.73,2.33"/><path class="cls-3" d="M98,1.43a7.24,7.24,0,0,1,.64,2.82"/><path class="cls-3" d="M103.21,2.65a7,7,0,0,1-1.9,2.64"/><g class="cls-1"><path class="cls-2" d="M12.7,7h-.3c-.31,0-.29-.08.08.25-.05,0,.16-.3,0-.05s.07,0,.14,0l.16,0-.21-.3s0,.34,0,.35c0,.18-.1.23.11.06s.14-.13.11-.15a2.93,2.93,0,0,0-.36,0l.09.95a.35.35,0,0,1-.15.1s0,0,0,0h.18s0,0,0,0,.08,0,0,0a.19.19,0,0,1-.08-.1c-.08-.1,0-.18-.07.06-.33.84,1,1.2,1.35.37.48-1.23-.94-2.08-2-1.55a.79.79,0,0,0-.11,1.39,2,2,0,0,0,1.76.08,1.6,1.6,0,0,0,.51-1.78,1.27,1.27,0,0,0-1.69-.73,1.41,1.41,0,0,0-1.09,1.7c.19.84.89.83,1.59.85.9,0,.9-1.37,0-1.4Z"/></g><path class="cls-3" d="M12.88,14.21c.15-2.05-.2-4.11.09-6.1-.28-.13-.55-.05-.84-.16a10.9,10.9,0,0,1-.22-1.39,4.94,4.94,0,0,1,1.48.11A65,65,0,0,1,13.53,14"/><path class="cls-3" d="M6.62,2.1A9.82,9.82,0,0,1,9.35,4.43"/><path class="cls-3" d="M11.42.11a7.24,7.24,0,0,1,.64,2.82"/><path class="cls-3" d="M16.63,1.32A7,7,0,0,1,14.73,4"/><path class="cls-4" d="M46.41,17.47c-3.19-.38-4.83,2.45-5.09,5.28s2.34,2.8,4.44,3.5"/><path class="cls-3" d="M45.54,17.8c1.1-3.14,3.34-6.83,7-7.14,3.41-.29,8.13,1.13,7.7,5.12"/><path class="cls-4" d="M60.41,15.61c3,0,6.23.34,6.84,3.73s-.84,5.74-4.23,5.8"/><path class="cls-5" d="M49.71,35.25c-5.19-3-7-15.42-1.31-20.23a9.16,9.16,0,0,1,8.93-1.56c2.29.93,4,4,4.94,6.15,1.09,2.52,1.09,6.34.52,9-.42,2-2,4.58-2,6.56,3.55,1.15,7,3.31,10.44,5,1,.48,2.66,1.27,3.86.82,1-.38,1.35-1.67,2.43-2a9.39,9.39,0,0,1-.1,2.09,6.47,6.47,0,0,1,2.14.16c-1.14.57-2.09,1.21-.78,2.29-1.13,0-2.23-.64-3.48-.78A22.58,22.58,0,0,1,70,41.52c-2.51-.91-5.62-1.71-7.83-3.15-.21,2,.79,4.35,1,6.43a45.7,45.7,0,0,1,.09,6.07c0,2.34,0,4.71-.11,7A15.16,15.16,0,0,0,63,61.35c.24,1.13.62,1.21,1.5,1.92a7.87,7.87,0,0,1-3,.12,62.41,62.41,0,0,0-1.56-10c-.68-3.5-.73-5.19-4.76-5C54.9,52.1,56.4,55.39,56.83,59c.12,1,.62,3.49,0,4.38s-3.39,1.13-3-.59c3.22.7-.4-10.69-.87-12a36.56,36.56,0,0,1-1.31-5.92,35.32,35.32,0,0,1-.88-6.66c-1.57,1.89-4,3.1-5.47,5.15-1.29-1.67-4.15-4.83-4.42-7-1.32-1.53-4.33-.31-3.63-3.3a11.87,11.87,0,0,0,2.18.93c-.54-.87-1.48-2.24-.16-2.8,1,1.54,1.75,3,2.78,4.43,1.17,1.65,2.93,3.16,3.85,5l4.2-5.07Z"/><path class="cls-3" d="M53,29.77l3.47.05"/><path class="cls-3" d="M53.5,22.46a17.12,17.12,0,0,0,.31,5"/><path class="cls-6" d="M55.86,19.87a6.45,6.45,0,0,0,0,1.58,15.89,15.89,0,0,0,1.91,0c.4-1.42-.88-1.34-1.92-1.25"/><path class="cls-6" d="M49.52,21.31a3.06,3.06,0,0,0,0,.87,3.16,3.16,0,0,0,1.37,0,2.24,2.24,0,0,0,0-1,5,5,0,0,0-1.76.12"/><path class="cls-5" d="M38,40.25l-.47-.94a.8.8,0,0,0-1.45-.21,1.81,1.81,0,0,1-1,.72h-.31a.76.76,0,0,0-.47.14c-2.08.09-5.09-1.46-6.3-2a34.16,34.16,0,0,1-6.94-4.14.86.86,0,0,0-.24-.14c1.56-2.25,2.17-5.52,2.43-7.81.49-4.41-.79-9.9-5.33-11.75a9.71,9.71,0,0,0-4.53-.48,10.94,10.94,0,0,0-2.92.79,10.24,10.24,0,0,0-3.4,2.41,7.06,7.06,0,0,0-.79,1.4s-.13.3-.23.63a15.69,15.69,0,0,0,0,8.65c.36,1.08,1.3,2.5,3.2,5.32,1.11,1.66,2.11,3,3.72,3.29a3.73,3.73,0,0,0,.81.07,14.34,14.34,0,0,0,1.05,7q.16.36.33.69a10.47,10.47,0,0,0,.35,1.69,2.75,2.75,0,0,0,2.06,1.82,7.17,7.17,0,0,0,3.3.2l.29-.06.14.42c-1.13,2.74-.27,6.6-.25,9.27,0,1.82-1.3,7.41,1.95,7.3a.8.8,0,0,0,.58-1.35c-1.91-2.5-.67-6.84-.48-9.72,0-.41.06-.83.08-1.26a.63.63,0,0,0,.35-.5c.29-1.75.77-3.32.22-5.06a.84.84,0,0,0-.13-.24,5.53,5.53,0,0,0-2.13-3.8l0,0a11.2,11.2,0,0,0,.46-5.73.75.75,0,0,0,.27-.23A44.12,44.12,0,0,0,29,40.07c1.62.7,4.09,1.65,6.09,1.33l2.25,0A.8.8,0,0,0,38,40.25Z"/><path class="cls-3" d="M15.64,47.11"/><path class="cls-3" d="M31.32,57.17"/><path class="cls-3" d="M18.75,27.41l3.39.05"/><path class="cls-3" d="M14.32,27.31"/><path class="cls-6" d="M18.55,18.49a6.29,6.29,0,0,0,0,1.55,15.12,15.12,0,0,0,1.87,0c.39-1.39-.86-1.31-1.88-1.22"/><path class="cls-3" d="M96.47,47.4"/><path class="cls-3" d="M85.7,56"/><path class="cls-3" d="M91.06,57.77"/><path class="cls-5" d="M82.6,41.19c.24.26.83.08,3.84-1.2,1.43-.61,2.67-1.15,3.65-1.59a28.77,28.77,0,0,1,.2,6.1c0,.32,0,.67-.08,1s-.06.49-.1.72c0,0-.27.72-.58,1.84-.26.93,0,1.46.23,3.06a32.18,32.18,0,0,1,.4,4.56c.06,2-.14,2,0,3.43s.37,1.78.09,2.36c-.43.9-1.36,1-1.87,2.18-.14.33-.28.66-.12.91.35.57,2.12.31,3-.5A3.13,3.13,0,0,0,92.06,63a2.66,2.66,0,0,0,.14-.5c.24-1.32-.32-3.13-.27-6.12h0c.07-4.27-.84-7.76-.14-8.15,0,0,.31-.1.31-.12h0a12.84,12.84,0,0,0,3.62-.38c1.17-.48,2.4-2.19,2.51-7.69.37-2.44.26-3.2.94-3.61s1.93-.18,3.23-1.19l.21-.17c1.4-1.22,7.18-13,1.23-18.36A8.53,8.53,0,0,0,95.41,15c-2.81,1.1-4,3.8-4.85,5.76a13.93,13.93,0,0,0-.75,8.64h0c.39,1.4,1.82,6.19,1.7,6.34a1.61,1.61,0,0,0-.12.17h0s-1.1.55-1.52.73a9.84,9.84,0,0,1-1.27.37,19.9,19.9,0,0,0-2.27.85c-1.44.61-1.74.86-1.91.7s.11-.89.75-2.26a12.63,12.63,0,0,1,.71-1.39c.81-1.3,1.76-2,1.64-2.21a1.61,1.61,0,0,0-.48,0c-.39,0-.43,0-.48,0s-.09-.4,0-1.07c.15-.91.16-1.06.1-1.09s-.63,1.07-1.17,1-.76-1.24-1-1.18-.25.54-.07.92.39.47.36.7c0,0,0,.11,0,.21a.92.92,0,0,1-.06.22c-.1.13-.54-.11-1-.27s-1-.27-1.06-.14,1,.58,1.45,1.61a2.67,2.67,0,0,1,.17,1.34C84.06,37.61,82,40.54,82.6,41.19Z"/><path class="cls-3" d="M74.28,43.1"/><path class="cls-6" d="M96.11,18.79a6.18,6.18,0,0,1,0,1.49,14.7,14.7,0,0,1-1.81,0c-.34-1.35.87-1.24,1.85-1.13"/><path class="cls-3" d="M89.57,28a26.88,26.88,0,0,0,3.06.23"/><path class="cls-4" d="M33.9,42.12c-.11,6.93.51,13.79.68,20.61a5.56,5.56,0,0,0,2.09,0q-.08-3.43-.11-6.95,0-4,0-7.86,10.48.24,21.5.18,10.71-.07,20.92-.42.12,4.4.18,8.9.05,3.82.07,7.56a9.7,9.7,0,0,0,1.85.16c.29,0,.57,0,.84,0q-.24-5-.29-10.39c0-4.13,0-8.11.18-11.94q-15.16.13-30.74,0-9.23-.09-18.31-.28"/><path class="cls-3" d="M23.35,54.75"/><path class="cls-3" d="M27.74,33.37"/><path class="cls-3" d="M33.86,25"/><path class="cls-3" d="M87.87,32.88"/><path class="cls-4" d="M20,47.39a7.31,7.31,0,0,1-1,0,1.76,1.76,0,0,1-.66-.22l-.62-.05A23.93,23.93,0,0,1,15,46.71c-3-.72-10.71-17.8-10.83-18a.88.88,0,0,0-.26-.29h0A3.11,3.11,0,0,0,3,27.76a1.91,1.91,0,0,0-1.39-.67s-1-.15-1.19.65C-.77,34.33,5,37.28,7.61,42.47c1.19,2.4,1.94,4.78,4.34,6.22,2.24,1.34,5.54.64,8,.61A1,1,0,0,0,20,47.39Z"/><path class="cls-3" d="M5.66,48.16"/><path class="cls-3" d="M3.59,44.69"/><path class="cls-3" d="M18.35,49.42c0,3.24.06,6.58-.28,9.77-.14,1.35,0,3.41-.45,4.53"/><path class="cls-3" d="M13.22,49.2a25.93,25.93,0,0,1-1.36,7.33,32.36,32.36,0,0,1-2.13,6.24"/><path class="cls-4" d="M92.87,48.5c.69-.1,1.24-.11,1.93-.15l.36,0A23.93,23.93,0,0,0,97.84,48c3-.63,11.25-17.46,11.38-17.69a.88.88,0,0,1,.27-.29h0a3.11,3.11,0,0,1,1-.59,1.91,1.91,0,0,1,1.41-.63s1-.12,1.17.69c1,6.62-4.92,9.4-7.66,14.51-1.27,2.36-2.08,4.72-4.53,6.09-2.28,1.27-5.56.47-8,.37a1,1,0,0,1-.53-1.77C92.37,48.61,92.41,48.56,92.87,48.5Z"/><path class="cls-3" d="M107.16,49.71"/><path class="cls-3" d="M109.33,46.3"/><path class="cls-3" d="M94.43,50.58c0,3.24-.26,6.57,0,9.78.1,1.35-.12,3.4.31,4.54"/><path class="cls-3" d="M99.57,50.52a25.93,25.93,0,0,0,1.13,7.37,32.36,32.36,0,0,0,1.93,6.31"/></g></g></svg>