<svg xmlns="http://www.w3.org/2000/svg" viewBox="0 0 127.11 81.59"><defs><style>.cls-1{fill:#c3ddc0;}</style></defs><g id="Layer_2" data-name="Layer 2"><g id="Layer_1-2" data-name="Layer 1"><path class="cls-1" d="M62.25.86A86.88,86.88,0,0,0,45.44,16.32a50.44,50.44,0,0,1,12.58,0Q48.35,25.78,39.3,35.81a39.24,39.24,0,0,0,13.88.28l-11.87,11c-3.58,3.31-7.28,6.7-11.86,8.36a59,59,0,0,0,33.43,1.7q-.48,11.12-.13,22.25a2.29,2.29,0,0,0,.43,1.52,2.25,2.25,0,0,0,1.65.49l5.21.17A167.4,167.4,0,0,1,71,56.45a97.15,97.15,0,0,0,21.85,2.11c.42-1.78-.77-3.51-1.9-5L78.06,37.21l13.29,1.65A97.2,97.2,0,0,1,73.84,19.05a56.23,56.23,0,0,0,12.57.24A76.84,76.84,0,0,1,64.25.74a1.72,1.72,0,0,0-1-.74c-.42,0-.87.48-.6.8"/><path class="cls-1" d="M17.26,22.68A41.73,41.73,0,0,0,5,31.59l5.42,1A53.72,53.72,0,0,0,0,45.23,22.27,22.27,0,0,0,9.51,45a64.89,64.89,0,0,0-9,16l11.6-.47q.3,10.5.1,21l5.89-.09-1-20.15a34.36,34.36,0,0,1,7.72-.13,37.19,37.19,0,0,1-8.14-13.53,20.12,20.12,0,0,0,6.45,3.73,91.45,91.45,0,0,0-6.93-18.5l5.89-.4q-2.57-5.26-5.51-10.32"/><path class="cls-1" d="M112.08,30.93a24,24,0,0,0-6.46,5.26,36,36,0,0,0,5.82,1,123.91,123.91,0,0,1-7,10.45l6.89.09a90.63,90.63,0,0,1-6.7,12.85q4.68.34,9.38.31a139,139,0,0,0,.49,16.83c.63,1.16,2.53.91,3.33-.14a6,6,0,0,0,.79-3.79l-.17-13.27a24.74,24.74,0,0,0,8.62.4,59.27,59.27,0,0,1-9.24-12.18l7.68.75a93.86,93.86,0,0,1-9.34-10.68l5.33.25-9.32-7.81"/></g></g></svg>