<svg xmlns="http://www.w3.org/2000/svg" viewBox="0 0 127.11 81.59"><defs><style>.cls-1{fill:#c3ddc0;}</style></defs><g id="Layer_2" data-name="Layer 2"><g id="Layer_1-2" data-name="Layer 1"><path class="cls-1" d="M64.86.86a86.53,86.53,0,0,1,16.8,15.46,50.36,50.36,0,0,0-12.57,0q9.68,9.42,18.72,19.45a39.29,39.29,0,0,1-13.89.28l11.88,11c3.57,3.31,7.28,6.7,11.86,8.36a59,59,0,0,1-33.43,1.7q.48,11.12.12,22.25a2.23,2.23,0,0,1-.42,1.52,2.26,2.26,0,0,1-1.65.49l-5.21.17a170.09,170.09,0,0,0-.93-25.13,97.2,97.2,0,0,1-21.85,2.11c-.43-1.78.77-3.51,1.9-5l12.86-16.4-13.3,1.65A97.2,97.2,0,0,0,53.26,19.05a56.13,56.13,0,0,1-12.56.24A77,77,0,0,0,62.86.74a1.69,1.69,0,0,1,1-.74c.42,0,.86.48.59.8"/><path class="cls-1" d="M109.85,22.68a42,42,0,0,1,12.24,8.91l-5.43,1a53.77,53.77,0,0,1,10.45,12.68,22.31,22.31,0,0,1-9.52-.19,65.25,65.25,0,0,1,9,16L115,60.58q-.3,10.5-.1,21L109,81.5,110,61.35a34.38,34.38,0,0,0-7.72-.13,37.19,37.19,0,0,0,8.14-13.53,20.33,20.33,0,0,1-6.45,3.73,91.42,91.42,0,0,1,6.92-18.5l-5.88-.4q2.55-5.26,5.51-10.32"/><path class="cls-1" d="M15,30.93a24.15,24.15,0,0,1,6.47,5.26,36,36,0,0,1-5.82,1,123.81,123.81,0,0,0,7,10.45l-6.88.09A90.57,90.57,0,0,0,22.43,60.6q-4.68.34-9.37.31a139,139,0,0,1-.5,16.83c-.63,1.16-2.52.91-3.32-.14a6,6,0,0,1-.8-3.79l.18-13.27a24.74,24.74,0,0,1-8.62.4A59.58,59.58,0,0,0,9.23,48.76l-7.67.75a94.77,94.77,0,0,0,9.33-10.68l-5.33.25,9.32-7.81"/></g></g></svg>