<?xml version="1.0" encoding="UTF-8"?>
<svg id="Layer_2" data-name="Layer 2" xmlns="http://www.w3.org/2000/svg" viewBox="0 0 187.82 118.01">
  <defs>
    <style>
      .cls-1, .cls-2 {
        opacity: .14;
      }

      .cls-1, .cls-3, .cls-4, .cls-5, .cls-6, .cls-7, .cls-8, .cls-9, .cls-10, .cls-11, .cls-12 {
        stroke-width: 0px;
      }

      .cls-1, .cls-4 {
        fill: #896b4a;
      }

      .cls-3 {
        fill: #f7ec1a;
      }

      .cls-5 {
        fill: #3f3e3e;
      }

      .cls-6 {
        fill: #231f20;
      }

      .cls-7 {
        fill: #bfe6f1;
      }

      .cls-8 {
        fill: #fff;
      }

      .cls-9 {
        fill: #ee7d7d;
      }

      .cls-10 {
        fill: #fc6;
      }

      .cls-11 {
        fill: #ee375e;
      }

      .cls-12 {
        fill: #f1c1da;
      }
    </style>
  </defs>
  <g id="Layer_1-2" data-name="Layer 1">
    <g>
      <g class="cls-2">
        <path class="cls-4" d="m89.11,116.11c3.84-1.51,7.69-3.03,11.53-4.54,3.46-1.36,2.18-6.78-1.58-5.71-7.4,2.1-14.8,4.21-22.2,6.31-3.66,1.04-2.11,6.76,1.58,5.71,7.4-2.1,14.8-4.21,22.2-6.31l-1.58-5.71-11.53,4.54c-3.51,1.38-1.98,7.11,1.58,5.71h0Z"/>
      </g>
      <g>
        <g class="cls-2">
          <path class="cls-4" d="m33.34,58.08c-.28,2.55.63,5.06,1.33,7.48.33,1.17.77,2.35.96,3.55.15.96.04,2.06-.9,2.56-1.1.59-.12,2.26.98,1.67,2.54-1.35,1.94-4.42,1.29-6.68-.78-2.73-2.03-5.69-1.72-8.58.13-1.24-1.8-1.23-1.94,0h0Z"/>
        </g>
        <g>
          <g>
            <path class="cls-8" d="m38.28,72.06c-.16.42-.65.6-1.09.73-5.33,1.54-10.66,3.1-16,4.65-.28.08-.59.16-.83,0-.16-.1-.26-.26-.34-.42-1.15-2.19-2.31-4.37-3.48-6.56-1.61-3.05-3.27-6.29-3.49-9.7v-.2c6.37-2.89,13.44-4.24,20.44-3.92.28.02.59.05.8.23.21.16.29.44.36.7,1.19,4.55,2.39,9.08,3.59,13.62.06.29.15.6.05.88Z"/>
            <path class="cls-6" d="m37.76,71.75c-.36.56-1.53.68-2.14.86-.71.2-1.41.41-2.12.61-1.41.41-2.82.82-4.23,1.23-1.49.43-2.98.87-4.47,1.3-1.01.29-3.62,1.54-4.37.73-.45-.49-.73-1.39-1.04-1.97-.35-.66-.69-1.31-1.04-1.97-.71-1.34-1.43-2.67-2.12-4.02-1.22-2.41-2.57-5.21-2.57-7.98l-.3.53c5.4-2.42,11.25-3.75,17.16-3.87.69-.01,1.37-.01,2.06,0,.96.03,1.41.24,1.66,1.22.39,1.49.78,2.98,1.17,4.47.37,1.41.74,2.82,1.12,4.22.21.78.41,1.56.62,2.35.22.83.6,1.73.52,2.59-.07.78,1.15.78,1.22,0,.14-1.6-.72-3.49-1.13-5.03-.48-1.8-.95-3.6-1.43-5.4-.38-1.46-.57-3.29-1.24-4.64-.54-1.09-1.67-.98-2.75-1-6.75-.14-13.45,1.28-19.61,4.04-.19.08-.3.33-.3.53,0,3,1.42,5.98,2.74,8.59.87,1.72,1.8,3.41,2.7,5.11.42.8.85,1.6,1.27,2.41.26.49.46,1.06.98,1.33.41.21.8.13,1.23.03.95-.21,1.89-.55,2.83-.82,1.81-.52,3.61-1.05,5.41-1.57s3.61-1.05,5.41-1.57c1.26-.36,3.04-.51,3.8-1.69.43-.66-.63-1.27-1.05-.62Z"/>
          </g>
          <path class="cls-6" d="m13.26,61.87c2,1.19,3.99,2.4,6.02,3.53.96.54,1.94,1.05,2.94,1.53.69.33,1.93,1.15,2.72,1.08s1.44-1.32,1.87-1.85c.74-.9,1.48-1.81,2.21-2.71,1.56-1.91,3.12-3.82,4.68-5.73.49-.6-.37-1.47-.86-.86-1.39,1.71-2.79,3.42-4.18,5.12-.66.8-1.31,1.61-1.97,2.41s-1.34,1.92-2.18,2.58l.59-.16c-1-.18-2.03-.81-2.93-1.26s-1.85-.96-2.76-1.47c-1.87-1.05-3.7-2.17-5.54-3.26-.68-.4-1.29.65-.62,1.05h0Z"/>
          <g>
            <path class="cls-11" d="m25.47,68.66c-.83-.09-1.44-.8-1.96-1.46-.27-.34-.54-.69-.69-1.11s-.14-.9.13-1.25c.3-.4.88-.51,1.36-.36s.86.52,1.14.93c.22-.29.01-.72.1-1.07.07-.29.33-.48.58-.66.42-.3.93-.6,1.41-.42.32.12.52.44.64.76.09.25.15.52.1.79-.08.47-.46.83-.79,1.18-.72.76-1.31,1.66-1.71,2.63"/>
            <path class="cls-6" d="m25.47,68.05c-.46-.06-.87-.49-1.17-.83-.35-.4-.79-.88-.94-1.4-.05-.18-.07-.39.03-.56.08-.14.24-.2.38-.22.46-.06.87.31,1.14.69s.79.41,1.05,0c.13-.2.18-.43.19-.66,0-.16-.04-.32-.03-.48.02-.22.3-.37.49-.5s.51-.36.75-.22c.21.13.32.53.32.76,0,.29-.23.53-.42.73-.26.28-.52.55-.75.85-.51.65-.94,1.35-1.26,2.12-.13.3-.09.65.22.83.26.15.7.09.83-.22.38-.89.89-1.72,1.55-2.43.31-.33.65-.65.85-1.05.26-.53.25-1.11.03-1.65-.19-.49-.52-.94-1.04-1.12s-1.04-.02-1.49.23c-.42.23-.89.55-1.13.98-.13.24-.17.51-.16.77,0,.17.06.36,0,.45h1.05c-.51-.72-1.25-1.35-2.19-1.29s-1.68.79-1.67,1.76.65,1.7,1.22,2.38,1.24,1.2,2.14,1.32c.33.04.61-.31.61-.61,0-.36-.28-.57-.61-.61h0Z"/>
          </g>
          <g class="cls-2">
            <path class="cls-4" d="m32.85,56.97c-1.56,2.31-3.12,4.62-4.68,6.93-.29.43-.08,1.07.35,1.32.48.28,1.03.09,1.32-.35,1.56-2.31,3.12-4.62,4.68-6.93.29-.43.08-1.07-.35-1.32-.48-.28-1.03-.09-1.32.35h0Z"/>
          </g>
          <g class="cls-2">
            <path class="cls-4" d="m14.49,63.57c2.51,1.14,4.95,2.44,7.3,3.89,1.06.66,2.04-1.02.98-1.67-2.35-1.45-4.79-2.75-7.3-3.89-.48-.22-1.04-.14-1.32.35-.24.42-.13,1.11.35,1.32h0Z"/>
          </g>
          <g class="cls-2">
            <path class="cls-4" d="m13.21,62.41c-.16,1.6.57,3.14,1.13,4.6s1.12,2.84,1.81,4.19c1.22,2.4,3.02,5.31,5.86,5.93,1.21.27,1.73-1.6.51-1.87-2.37-.52-3.81-3.26-4.81-5.25-.57-1.14-1.05-2.33-1.51-3.52-.49-1.29-1.2-2.67-1.06-4.08.12-1.24-1.81-1.23-1.94,0h0Z"/>
          </g>
        </g>
      </g>
      <g>
        <g>
          <path class="cls-9" d="m76.7,98.39c0,4.41,0,8.82,0,13.24,0,.32,0,.66.18.93.14.23.39.38.63.51,1.93,1.01,4.25,1.03,6.42.74.17-.02.36-.05.47-.19.08-.1.1-.23.12-.36.59-4.94.65-9.95.16-14.91-.02-.19-.04-.39-.18-.52-.13-.13-.34-.16-.53-.18-2.28-.24-4.56-.42-6.85-.55"/>
          <path class="cls-6" d="m76.23,98.39c0,3.59,0,7.17,0,10.76,0,.87-.03,1.74,0,2.6.02.57.14,1.05.59,1.43.95.8,2.47,1.08,3.66,1.2.76.08,1.53.07,2.3.02.53-.04,1.33,0,1.78-.32.39-.27.4-.7.45-1.14.11-.91.19-1.83.26-2.75.26-3.51.25-7.04-.02-10.54-.05-.6.04-1.54-.36-2.05-.36-.46-1.05-.42-1.58-.48-2.06-.21-4.13-.37-6.2-.48-.6-.03-.6.9,0,.93,1.42.08,2.83.18,4.24.3.65.06,1.3.12,1.95.18.45.05.76-.03.9.46.1.34.07.78.1,1.13.22,2.81.27,5.62.15,8.44-.06,1.35-.16,2.7-.3,4.05-.02.21,0,1.04-.2,1.2-.15.12-.71.09-.91.11-.62.05-1.25.08-1.87.05-1.07-.04-2.93-.2-3.75-1.02-.47-.47-.28-1.56-.28-2.17v-2.15c0-3.25,0-6.51,0-9.76,0-.6-.93-.6-.93,0h0Z"/>
        </g>
        <g>
          <path class="cls-9" d="m101.05,40.25c-3.31,1.64-6.41,3.67-9.24,6.01-.6.5-1.22,1.02-1.98,1.24-.67.18-1.38.1-2.06.03-9.76-1.09-29.19-.5-30.16-.47v-.02c.07-.05.15-.12.22-.17,3.24-2.4,6.48-4.81,9.71-7.21l33.52.59Z"/>
          <path class="cls-6" d="m100.81,39.84c-1.98,1-3.89,2.11-5.72,3.36-.85.58-1.68,1.19-2.49,1.82s-1.63,1.51-2.6,1.89c-1.42.56-3.42.01-4.94-.1s-3.07-.19-4.61-.25c-6.04-.23-12.1-.2-18.14-.09-1.57.03-3.14.06-4.72.11l.47.47c0,.53.55-.2.76-.35.39-.29.78-.58,1.17-.87.65-.48,1.3-.96,1.94-1.44,1.49-1.11,2.98-2.21,4.47-3.32,1.01-.75.93-.95,2-.93l7.09.12c6.8.12,13.61.24,20.41.36,1.71.03,3.43.06,5.14.09.61.01.61-.94,0-.95-10.9-.19-21.79-.38-32.69-.57-1.33-.02-1.86.64-3.02,1.49-1.68,1.25-3.37,2.5-5.05,3.75-.78.58-1.56,1.15-2.33,1.73-.27.2-.84.46-.84.88,0,.25.22.48.47.47,4.14-.14,8.28-.18,12.43-.19,3.32,0,6.63.03,9.94.15,1.56.05,3.11.13,4.66.23s3.25.5,4.79.32c1.99-.23,3.7-2.3,5.25-3.4,2.1-1.5,4.31-2.83,6.62-3.99.54-.27.07-1.09-.48-.82Z"/>
        </g>
        <g>
          <path class="cls-9" d="m57.59,47.04v.02h-.03s.02-.02.03-.02Z"/>
          <path class="cls-6" d="m57.12,47.04v.02l.47-.47h-.03v.95c.1,0,.16-.02.25-.07.04-.03.07-.05.11-.08l-.1.07s0,0,0,0l-.11.05s0,0,0,0l-.13.02h0c.07,0,.13-.01.18-.04.06-.02.11-.05.15-.1.05-.04.08-.09.1-.15.03-.06.04-.12.04-.18l-.02-.13c-.02-.08-.06-.15-.12-.21l-.1-.07c-.07-.04-.15-.06-.24-.06-.1,0-.16.02-.25.07-.04.03-.07.05-.11.08l.1-.07s0,0,0,0l.11-.05s0,0,0,0l.13-.02h0c-.07,0-.13.01-.18.04-.06.02-.11.05-.15.1-.05.04-.08.09-.1.15-.03.06-.04.12-.04.18l.02.13c.02.08.06.15.12.21l.1.07c.07.04.15.06.24.06h.03c.07,0,.13-.01.18-.04.06-.02.11-.05.15-.1l.07-.1c.04-.07.06-.15.06-.24v-.02c0-.07-.01-.13-.04-.18-.02-.06-.05-.11-.1-.15-.04-.05-.09-.08-.15-.1-.06-.03-.12-.04-.18-.04l-.13.02c-.08.02-.15.06-.21.12l-.07.1c-.04.07-.06.15-.06.24Z"/>
        </g>
        <g>
          <path class="cls-9" d="m64.78,41.62c.92-.67,1.83-1.31,2.75-1.96-3.24,2.4-6.48,4.81-9.71,7.21,2.23-1.76,4.56-3.49,6.96-5.25Z"/>
          <path class="cls-6" d="m65.01,42.03c.91-.66,1.83-1.31,2.75-1.96l-.48-.82c-3.24,2.4-6.47,4.81-9.71,7.21l.57.74c2.25-1.77,4.56-3.48,6.87-5.18.49-.36.01-1.18-.48-.82-2.38,1.74-4.74,3.5-7.06,5.33-.42.33.14,1.06.57.74,3.24-2.4,6.47-4.81,9.71-7.21.48-.36.02-1.17-.48-.82-.92.65-1.84,1.3-2.75,1.96-.49.35-.02,1.18.48.82Z"/>
        </g>
        <g>
          <path class="cls-9" d="m101.8,39.86c-.25.12-.5.25-.75.39l-33.52-.59c11.43.07,22.85.13,34.28.2Z"/>
          <path class="cls-6" d="m101.56,39.45c-.62.31-.67.32-1.35.31l-2.43-.04-7.87-.14-18.14-.32c-1.42-.02-2.83-.05-4.25-.07v.95c11.43.07,22.85.13,34.28.2.61,0,.61-.94,0-.95-11.43-.07-22.85-.13-34.28-.2-.61,0-.61.94,0,.95,9.98.17,19.96.35,29.94.52,1.59.03,3.14.32,4.58-.39.55-.27.07-1.09-.48-.82Z"/>
        </g>
        <g>
          <path class="cls-9" d="m101.68,91.54c-.03.23-.05.45-.17.65-.18.37-.6.54-.99.69-3.24,1.21-6.34,3.02-9.58,4.23-10.7-.07-21.42-.13-32.13-.22-.23,0-.49,0-.67-.13-.37-.22-.39-.72-.37-1.16.65-16.17.59-32.36-.18-48.54.97-.03,20.4-.62,30.16.47.69.07,1.39.15,2.06-.03.75-.22,1.38-.74,1.98-1.24,2.84-2.33,5.94-4.36,9.24-6.01l1.01.02c.23,1.29,1.24,34.66-.37,51.27Z"/>
          <path class="cls-6" d="m101.23,91.41c-.18,1.19-2.05,1.49-3.04,1.92-1.39.62-2.76,1.29-4.14,1.94s-2.75,1.37-4.34,1.36-3.13-.02-4.69-.03c-6.1-.04-12.19-.08-18.29-.12-1.48-.01-2.97-.02-4.45-.03-.74,0-1.48-.01-2.22-.02-.33,0-.94.11-1.24,0-.64-.26-.57-.74-.55-1.31.09-2.97.21-5.94.28-8.91.14-6.11.18-12.22.12-18.33-.07-6.94-.28-13.87-.6-20.8l-.47.47c4.41-.15,8.82-.19,13.23-.19,3.42,0,6.85.05,10.27.19,1.61.07,3.21.15,4.81.29s3.25.58,4.69-.14c1.04-.52,1.91-1.42,2.82-2.12,1.05-.81,2.14-1.57,3.25-2.29s2.26-1.39,3.43-2.02c.74-.4,1.13-.54,1.95-.53l-.46-.35c.17,1.01.15,2.82.19,4.07.1,3.07.17,6.15.22,9.23.14,8.35.16,16.7-.08,25.04-.12,4.27-.31,8.55-.72,12.8-.06.61.89.6.95,0,.77-8.09.86-16.26.89-24.39.03-7.34-.06-14.69-.3-22.03-.05-1.63.02-3.36-.24-4.98-.03-.2-.26-.34-.46-.35-.34,0-.74-.08-1.07,0-.9.2-1.91.96-2.71,1.42-1.98,1.14-3.87,2.42-5.68,3.82-.88.69-1.8,1.71-2.9,2.02-.94.26-2.02,0-2.97-.09-1.5-.14-3.01-.24-4.52-.31-6.46-.32-12.94-.29-19.41-.18-1.73.03-3.47.06-5.2.12-.25,0-.49.21-.47.47.64,13.53.8,27.08.45,40.61-.04,1.49-.08,2.97-.13,4.46-.03.83-.06,1.65-.09,2.48-.02.64-.18,1.46.13,2.06.45.87,1.51.69,2.33.7,1.65.01,3.29.03,4.94.04,6.76.05,13.51.09,20.27.14,1.81.01,3.62.05,5.44.03,1.49-.02,3.15-1.06,4.49-1.68,1.62-.76,3.21-1.56,4.87-2.23,1.11-.45,2.13-.67,2.33-2,.09-.6-.82-.85-.91-.25Z"/>
        </g>
        <g>
          <path class="cls-9" d="m58.72,55.92c8.74-.89,17.57-.77,26.29.35.34.04.72.08,1-.12.25-.18.36-.49.45-.79.29-.94.58-1.89.87-2.83-5.54-.16-11.07-.32-16.61-.49-2.56-.07-5.13-.14-7.67.2-.74.1-1.58.05-2.19.52-.88.67-1.56,2.04-2.12,2.97"/>
          <path class="cls-6" d="m58.72,56.39c5.75-.57,11.53-.73,17.3-.45,2.84.14,5.68.4,8.5.73.76.09,1.55.22,2.07-.46.7-.91.87-2.49,1.2-3.57.09-.3-.16-.59-.46-.6-5.7-.17-11.39-.34-17.09-.5-2.67-.07-5.3,0-7.95.29-2.14.23-2.95,1.94-3.96,3.64-.31.53.51,1,.82.48.51-.87,1-2,1.79-2.65.96-.79,2.83-.71,4.03-.78,2.41-.15,4.82-.04,7.23.03,5.05.15,10.1.3,15.14.44l-.46-.6c-.19.63-.39,1.26-.58,1.89-.25.81-.37,1.37-1.29,1.5-.57.08-1.36-.17-1.94-.23-.65-.07-1.29-.14-1.94-.2-2.43-.23-4.86-.38-7.3-.45-5.04-.15-10.09.04-15.1.53-.6.06-.61,1.01,0,.95h0Z"/>
        </g>
        <g>
          <path class="cls-5" d="m59.74,56.52l.3,2.32c9.16-1.32,18.49.28,27.72-.31-.12-1.82-.23-3.64-.35-5.47.09,1.15-.88,2.16-1.97,2.53s-2.28.24-3.42.13c-7.43-.72-14.94-.6-22.35.36"/>
          <path class="cls-6" d="m59.26,56.52l.3,2.32c.04.33.27.5.6.46,9.16-1.27,18.4.26,27.6-.29.24-.01.49-.21.47-.47-.12-1.82-.23-3.64-.35-5.47-.04-.6-.94-.61-.95,0-.03,3.1-4.48,2.2-6.37,2.05-2.26-.19-4.54-.29-6.81-.33-4.71-.06-9.41.22-14.09.81-.6.08-.6,1.02,0,.95,5.64-.72,11.33-.97,17.01-.73,1.38.06,2.76.15,4.13.26,1.26.11,2.54.33,3.8.17,1.71-.21,3.26-1.36,3.28-3.19h-.95c.12,1.82.23,3.64.35,5.47l.47-.47c-9.28.56-18.6-.95-27.85.33l.6.46-.3-2.32c-.08-.6-1.03-.6-.95,0h0Z"/>
        </g>
        <g>
          <path class="cls-5" d="m68.56,66.88l.02,2.62c2.77-.74,5.68-.92,8.54-.71.52.04,1.05.09,1.55-.07s.94-.59.95-1.11c0-.5-.42-.93-.89-1.11s-.99-.14-1.5-.11c-2.89.18-5.78.35-8.67.53"/>
          <path class="cls-6" d="m68.08,66.88l.02,2.62c0,.31.3.53.6.46,2.2-.57,4.46-.81,6.74-.77,1.02.02,2.16.27,3.16.04.75-.18,1.48-.79,1.48-1.61s-.68-1.42-1.42-1.62c-1-.26-2.17-.03-3.18.03-2.31.14-4.62.28-6.93.42-.6.04-.61.98,0,.95,1.95-.12,3.9-.24,5.85-.36.94-.06,1.88-.12,2.82-.17.5-.03,2.3-.05,1.87.95-.35.81-1.72.52-2.39.48-.91-.06-1.82-.07-2.73-.04-1.86.06-3.71.32-5.52.79l.6.46-.02-2.62c0-.61-.95-.61-.95,0h0Z"/>
        </g>
        <g>
          <path class="cls-5" d="m64.94,71.93l.07,2.18c2.25-.34,4.52-.5,6.79-.47.2,0,.41.01.56.13.18.14.23.39.27.61.37,2.33.46,4.7.26,7.05.94.05,1.88.05,2.83.03-.28-2.39-.24-4.81.12-7.18,2.71.29,5.46.09,8.1-.57.03-.79-.05-1.59-.22-2.36-6.15-.02-12.29.16-18.43.54"/>
          <path class="cls-6" d="m64.46,71.93l.07,2.18c.01.34.29.5.6.46,1.2-.18,2.41-.31,3.62-.38.54-.03,1.07-.05,1.61-.07.37,0,1.49-.19,1.76.16.29.38.2,1.29.25,1.76.06.56.1,1.11.12,1.67.05,1.24.02,2.48-.08,3.72-.02.26.23.46.47.47.94.04,1.88.05,2.83.03.23,0,.5-.21.47-.47-.26-2.35-.23-4.72.11-7.06l-.46.35c2.77.27,5.53.07,8.23-.58.2-.05.34-.25.35-.46.01-.84-.07-1.66-.24-2.49-.04-.2-.26-.35-.46-.35-6.15-.01-12.29.17-18.43.54-.6.04-.61.98,0,.95,6.14-.38,12.28-.56,18.43-.54l-.46-.35c.15.74.22,1.48.21,2.23l.35-.46c-2.62.63-5.29.81-7.98.55-.18-.02-.43.16-.46.35-.35,2.43-.41,4.87-.14,7.31l.47-.47c-.94.02-1.88.02-2.83-.03l.47.47c.12-1.55.14-3.1.03-4.65-.06-.85.04-2.71-.69-3.35-.34-.3-.84-.27-1.25-.27-.72,0-1.43.01-2.15.05-1.48.07-2.94.23-4.41.44l.6.46-.07-2.18c-.02-.61-.97-.61-.95,0h0Z"/>
        </g>
        <path class="cls-6" d="m90.32,47.92c.21,8.27.46,16.54.6,24.81s.02,16.58-.12,24.87c0,.61.94.61.95,0,.13-8.29.26-16.58.12-24.87s-.4-16.54-.6-24.81c-.02-.61-.96-.61-.95,0h0Z"/>
      </g>
      <path class="cls-1" d="m81.62,97.91v13.58c0,3.81,5.93,3.82,5.93,0v-13.58c0-3.81-5.93-3.82-5.93,0Z"/>
      <path class="cls-1" d="m85.81,56.13c-7.95.15-15.91.31-23.86.46-3.81.07-3.82,6,0,5.93,7.95-.15,15.91-.31,23.86-.46,3.81-.07,3.82-6,0-5.93Z"/>
      <g class="cls-2">
        <path class="cls-4" d="m98.43,43.6c.24,16.18.17,32.37-.2,48.55-.09,3.81,5.84,3.81,5.93,0,.37-16.18.44-32.36.2-48.55-.06-3.81-5.98-3.82-5.93,0h0Z"/>
      </g>
      <g>
        <g>
          <path class="cls-7" d="m56.19,27.56c-.71-3.39-1.3-6.86-1.06-10.32s1.4-6.95,3.78-9.47c.59-.62,1.26-1.18,2.04-1.52.78-.34,1.64-.44,2.49-.52,1.68-.16,3.38-.23,5.07-.22.6,0,1.23.02,1.77.3.52.27.9.75,1.23,1.24,1.67,2.51,2.27,5.57,2.74,8.54.55,3.44.96,6.9,1.25,10.38.12,1.48.25,3.04,1.08,4.28.63.94,1.61,1.58,2.59,2.16,1.83,1.07,3.75,1.98,5.74,2.71-2.42-.09-4.84-.18-7.26-.26,2.01.8,3.97,1.72,5.86,2.78-4.14-.22-8.31.14-12.45-.17s-8.38-1.37-11.56-4.04c-1.94-1.64-3.47-4.19-2.81-6.64"/>
          <path class="cls-6" d="m56.72,27.41c-.94-4.51-1.7-9.25-.41-13.78.57-2.01,1.54-3.95,2.99-5.47,1.76-1.85,4.03-1.93,6.44-2.05,1.04-.05,2.09-.11,3.13-.05,1.42.07,2.07,1.01,2.7,2.17,1.04,1.92,1.54,4.08,1.92,6.21.43,2.4.75,4.83,1.03,7.25.23,2.07.29,4.18.64,6.23.76,4.48,5.83,6.28,9.6,7.7l.15-1.09c-2.42-.09-4.84-.18-7.26-.26-.67-.02-.69.87-.15,1.09,1.97.79,3.87,1.7,5.73,2.72l.28-1.03c-5.42-.26-10.95.45-16.3-.71-4.14-.9-11.19-4.05-9.98-9.44.16-.7-.91-.99-1.07-.3-1.19,5.29,4.51,8.94,8.81,10.29,6,1.88,12.37.96,18.54,1.26.55.03.75-.77.28-1.03-1.94-1.07-3.94-2.01-5.99-2.84l-.15,1.09c2.42.09,4.84.18,7.26.26.66.02.7-.88.15-1.09-2.33-.88-4.82-1.93-6.82-3.44-2.19-1.66-2.09-4.33-2.33-6.82-.45-4.72-.79-9.84-2.37-14.34-.56-1.6-1.42-3.87-3.04-4.67-.75-.37-1.63-.35-2.45-.35-1.31,0-2.61.06-3.92.16-2.07.17-3.82.52-5.35,2.01-1.39,1.35-2.41,3.08-3.09,4.89-1.92,5.05-1.1,10.56-.03,15.7.14.7,1.22.4,1.07-.3h0Z"/>
        </g>
        <path class="cls-6" d="m70.94,21.72c-.05,1.26-.09,2.52-.04,3.78.04,1.13.1,2.34.46,3.42.33,1,1.01,1.74,2.01,2.09,1.11.38,2.32.14,3.41-.19.68-.21.39-1.28-.3-1.07-.91.27-1.9.52-2.82.19s-1.24-1.13-1.41-2.01c-.39-2.03-.27-4.15-.2-6.2.03-.71-1.08-.71-1.11,0h0Z"/>
        <g>
          <path class="cls-7" d="m61.37,35.69c-.14.67-.29,1.36-.15,2.03s.63,1.32,1.31,1.41c.41.06.82-.1,1.21-.26.13-.06.27-.12.35-.23.1-.14.1-.32.1-.49,0-.7,0-1.4-.01-2.11"/>
          <path class="cls-6" d="m60.84,35.54c-.15.7-.28,1.41-.18,2.13.08.56.35,1.13.78,1.52.52.45,1.16.6,1.83.44.31-.07.65-.2.92-.36.36-.21.53-.56.55-.97.02-.35,0-.72,0-1.07,0-.4,0-.79,0-1.19,0-.29-.25-.57-.56-.56s-.56.24-.56.56c0,.57,0,1.13.01,1.7,0,.14,0,.27,0,.41,0,.05,0,.1,0,.15,0,.01-.02.09,0,.03,0-.03,0-.03,0,0,0,.03,0,.03,0,0,0,0,.03-.05.03-.05,0,0-.07.05-.02.02.05-.03-.03.01-.03.01-.02.01-.05.02-.07.04-.08.04-.17.07-.29.11s-.24.08-.36.1c0,0-.1.01-.05,0s-.05,0-.05,0c-.03,0-.06,0-.09,0-.01,0-.13,0-.07,0,.06,0-.04,0-.05-.01-.02,0-.05-.01-.07-.02-.04-.01-.13-.06-.04-.01-.04-.02-.08-.04-.13-.07-.02-.01-.04-.03-.06-.04-.07-.04.06.05,0,0-.07-.07-.14-.13-.21-.2-.04-.05,0,0,.01.02-.01-.02-.03-.04-.04-.06-.03-.05-.06-.1-.09-.15-.02-.04-.05-.09-.07-.13-.05-.09.01.05-.02-.05-.03-.1-.07-.21-.09-.32-.04-.22-.03-.56,0-.84.01-.11.03-.23.06-.38.03-.16.06-.33.1-.49.06-.28-.08-.61-.39-.68-.28-.06-.62.08-.68.39h0Z"/>
        </g>
        <path class="cls-6" d="m62.18,39.08c-.07,1.66-.03,3.31.11,4.97l.56-.56c-1.11.06-2.17.36-3.14.9-.53.3-.22.97.28,1.03,1.32.18,2.67-.16,3.76-.93l-.76-.2c.3.69.61,1.38.91,2.07.22.51,1.06.25,1.03-.28-.05-1.05-.25-2.08-.6-3.07l-.54.7c1.22.16,2.43.51,3.56,1,.28.12.59.08.76-.2.14-.23.07-.64-.2-.76-1.32-.58-2.69-.96-4.12-1.16-.35-.05-.65.39-.54.7.32.9.52,1.82.56,2.78l1.03-.28c-.3-.69-.61-1.38-.91-2.07-.11-.26-.54-.36-.76-.2-.95.67-2.05.93-3.2.78l.28,1.03c.8-.44,1.67-.7,2.58-.75.28-.02.58-.24.56-.56-.14-1.65-.18-3.31-.11-4.97.03-.71-1.08-.71-1.11,0h0Z"/>
        <path class="cls-6" d="m68.69,10.48c.71,0,.72-1.11,0-1.11s-.72,1.11,0,1.11h0Z"/>
        <path class="cls-6" d="m62.06,10.48c.71,0,.72-1.11,0-1.11s-.72,1.11,0,1.11h0Z"/>
        <g>
          <path class="cls-3" d="m67.25,15.16c.06-.1.1-.21.13-.32l-3.81.1-1.28.04c-.1-.32-.21-.69-.15-1.03.08-.55.51-.99.93-1.37.32-.32.67-.63,1.07-.82.42-.19.93-.21,1.3.06.27.17.42.48.59.76.61,1.05,1.41,1.98,2.37,2.75-.38-.06-.76-.11-1.14-.15Z"/>
          <path class="cls-6" d="m67.72,15.44c.08-.15.14-.3.19-.46.11-.34-.19-.71-.54-.7-1.7.04-3.4.08-5.09.13l.54.41c-.1-.33-.22-.68-.08-1.02.13-.31.41-.55.65-.78.39-.37,1.07-1.14,1.69-.8.28.16.42.54.58.8.21.35.44.67.69.99.48.62,1.04,1.18,1.65,1.68l.54-.93c-.43-.06-.86-.13-1.29-.17-.3-.03-.56.28-.56.56,0,.33.26.52.56.56.33.03.67.08,1,.13.25.04.49-.02.63-.26.12-.2.1-.52-.09-.67-.74-.6-1.4-1.3-1.94-2.09-.26-.39-.47-.84-.78-1.2s-.78-.58-1.26-.59c-.99-.02-1.77.75-2.43,1.41-.32.33-.61.7-.74,1.15-.15.51-.03,1.02.11,1.52.07.23.29.41.54.41,1.7-.05,3.4-.09,5.09-.13l-.54-.7c-.03.08-.04.12-.08.19-.33.63.62,1.19.96.56Z"/>
        </g>
        <path class="cls-6" d="m66.84,14.69s-.03.1-.05.14c-.04.09.05-.1-.03.05l.48-.28c-1.22-.13-2.45-.23-3.68-.23v1.11c1.11-.03,2.22-.06,3.33-.08h.48c.3-.02.56-.26.56-.57s-.25-.56-.56-.56c-1.11.03-2.22.06-3.33.08h-.48c-.3.02-.56.26-.56.57s.25.55.56.56c1.23,0,2.46.1,3.68.23.18.02.39-.12.48-.28.08-.14.14-.3.19-.46.1-.28-.11-.61-.39-.68-.3-.08-.59.1-.68.39Z"/>
        <g>
          <path class="cls-3" d="m67.25,15.16c-.27.74-.74,1.39-1.43,1.77-.76.44-1.81.44-2.5-.13-.52-.42-.76-1.09-.99-1.72-.02-.04-.02-.08-.04-.11l1.28-.04c1.24,0,2.46.1,3.68.23Z"/>
          <path class="cls-6" d="m66.71,15.01c-.33.88-1.09,1.67-2.07,1.68-.44,0-.85-.15-1.16-.5-.33-.38-.51-.9-.67-1.38l-.54.7c.43-.01.85-.03,1.28-.04,1.23-.02,2.46.1,3.68.23.3.03.56-.28.56-.56,0-.33-.26-.52-.56-.56-1.22-.13-2.45-.25-3.68-.23-.43,0-.85.03-1.28.04-.34.01-.65.35-.54.7.23.68.5,1.4,1,1.92s1.19.77,1.89.76c1.51-.01,2.64-1.15,3.14-2.5.1-.28-.12-.61-.39-.68-.31-.09-.58.11-.68.39Z"/>
        </g>
        <path class="cls-6" d="m66.84,14.69s-.03.1-.05.14c-.04.09.05-.1-.03.05l.48-.28c-1.22-.13-2.45-.23-3.68-.23v1.11c1.11-.03,2.22-.06,3.33-.08h.48c.3-.02.56-.26.56-.57s-.25-.56-.56-.56c-1.11.03-2.22.06-3.33.08h-.48c-.3.02-.56.26-.56.57s.25.55.56.56c1.23,0,2.46.1,3.68.23.18.02.39-.12.48-.28.08-.14.14-.3.19-.46.1-.28-.11-.61-.39-.68-.3-.08-.59.1-.68.39Z"/>
        <path class="cls-6" d="m71.11,40.1c-.06,1.11,0,2.2.09,3.31.03.43-.09.59-.4.88s-.57.59-.71,1.01c-.19.6.71.97,1.01.43.14-.25.29-.5.46-.73.09-.13.29-.46.43-.48h-.3c.2.03.46.3.63.42.24.18.49.36.73.54l.56-.96c-.52-.31-.95-.72-1.27-1.23l-.48.84c.94,0,1.88-.02,2.82-.02.71,0,.72-1.12,0-1.11-.94,0-1.88.02-2.82.02-.41,0-.71.47-.48.84.43.67.99,1.22,1.67,1.63.26.15.61.06.76-.2.16-.28.04-.58-.2-.76-.31-.23-.63-.46-.94-.68s-.64-.49-1.06-.38c-.36.1-.59.44-.81.71-.25.32-.47.65-.67,1l1.01.43c.09-.27.43-.5.64-.74.35-.38.53-.82.51-1.35s-.1-1.09-.12-1.64c-.02-.59-.01-1.18.02-1.77.04-.71-1.07-.71-1.11,0h0Z"/>
        <path class="cls-6" d="m66.2,4.91V.54c0-.71-1.11-.72-1.11,0v4.37c0,.71,1.11.72,1.11,0h0Z"/>
        <path class="cls-6" d="m69.58,5.31c.75-1.45,1.6-2.85,2.54-4.18.17-.25.04-.62-.2-.76-.28-.16-.59-.05-.76.2-.94,1.33-1.79,2.73-2.54,4.18-.14.27-.07.6.2.76.25.15.62.07.76-.2h0Z"/>
        <path class="cls-6" d="m60.99,1.58c.3,1.19.59,2.39.87,3.59.07.28.41.48.68.39.3-.1.46-.38.39-.68-.28-1.2-.57-2.39-.87-3.59-.07-.28-.4-.48-.68-.39s-.46.38-.39.68h0Z"/>
        <path class="cls-6" d="m60.69,22.17v2.84c.02.43.48.69.85.48,1-.56,1.84-1.34,2.5-2.28l-1.01-.13c.28.93.86,1.71,1.65,2.27.22.16.65.06.76-.2.37-.87.75-1.74,1.12-2.62.12-.28.08-.6-.2-.76-.23-.14-.64-.08-.76.2-.37.87-.75,1.74-1.12,2.62l.76-.2c-.55-.39-.94-.97-1.14-1.61-.15-.48-.74-.52-1.01-.13-.55.78-1.27,1.41-2.1,1.88l.84.48v-2.84c-.02-.71-1.13-.72-1.13,0h0Z"/>
        <g>
          <path class="cls-7" d="m54.64,17.55c-.8,1.19-1.61,2.4-2.05,3.77-.44,1.36-.48,2.93.22,4.18.27.47.62.88.98,1.28.81.93,1.65,1.87,2.73,2.47-.03-3.84-2.08-7.52-1.74-11.35"/>
          <path class="cls-6" d="m54.16,17.27c-1.38,2.05-2.78,4.33-2.38,6.91.19,1.23.88,2.15,1.68,3.06s1.68,1.85,2.78,2.48c.36.21.84-.05.84-.48-.07-3.86-2.04-7.46-1.74-11.35.05-.71-1.06-.71-1.11,0-.3,3.9,1.68,7.49,1.74,11.35l.84-.48c-.93-.53-1.65-1.3-2.36-2.09-.75-.85-1.45-1.67-1.59-2.84-.27-2.24,1.08-4.24,2.27-6.01.4-.6-.56-1.15-.96-.56h0Z"/>
        </g>
        <g>
          <path class="cls-7" d="m69.87,37.47c.03.81.09,1.68.56,2.34s1.51,1,2.12.45c.35-.31.46-.82.47-1.29s-.07-.95,0-1.41"/>
          <path class="cls-6" d="m69.31,37.47c.05,1.21.2,2.58,1.32,3.28.47.3,1.06.42,1.6.29.62-.15,1.05-.67,1.22-1.26.21-.73.01-1.48.11-2.22.04-.29-.28-.57-.56-.56-.33.01-.52.25-.56.56-.07.55.02,1.12-.01,1.68,0,.09.02-.09,0,0,0,.02,0,.05-.01.07-.01.05-.02.11-.04.16s-.03.1-.05.16c0,0,.04-.08,0-.03-.02.03-.03.07-.05.1-.01.02-.1.14-.06.1s-.07.07-.08.08c-.07.07.07-.04-.02.01-.04.02-.1.07-.14.08.1,0,.07-.02.02-.01-.02,0-.04.01-.06.02-.02,0-.05,0-.08.02-.06.02.06,0,.05,0-.02.02-.11,0-.14,0s-.19,0-.11,0c.08,0-.06-.01-.09-.02-.05-.01-.09-.02-.14-.04s-.14-.06-.04-.01c-.05-.03-.1-.05-.15-.08-.04-.02-.08-.05-.13-.08-.02-.01-.03-.02-.05-.04.02.01.09.07.01,0s-.14-.14-.21-.21c.09.09-.01-.02-.03-.05-.03-.05-.06-.1-.09-.15s-.05-.11-.08-.16c-.03-.06,0,0,0,.01-.02-.04-.03-.08-.04-.12-.05-.13-.08-.26-.11-.4-.01-.07-.03-.14-.04-.2,0-.03,0-.05-.01-.08-.03-.16,0,.06,0-.03-.03-.29-.05-.58-.06-.87s-.25-.57-.56-.56c-.29.01-.57.24-.56.56h0Z"/>
        </g>
      </g>
      <g>
        <path class="cls-10" d="m174.56,105.33c2.38,2.91,1.88,3.82,5.16,6.9.04.24.19.46.4.58.27.15.52.35.61.64.11.34-.04.72-.28.98-.25.26-.57.43-.9.58-1.44.73-2.9,1.46-4.35,2.19-.31.15-.63.32-.98.28-.55-.05-.93-.58-1.09-1.11-.02-.09-.04-.19-.02-.27.05-.15.22-.23.37-.28,1-.43,2.18-1.61,1.68-2.75-.44-.97-1.51-1.77-1.67-2.87-.05-.3-.35-.43-.54-.68-4.55-5.81-5.05-7.62-8.81-12.28-.4-.49-1.18-.37-1.4.22-1.22,3.24-3.56,7.02-5.54,10.15-.03.05-.06.1-.07.16-1.03,3.1-2.87,5.9-5.26,8.12-.25.23-.51.46-.83.61-.44.21-.94.23-1.42.25-1.13.03-2.28,0-3.33-.39-1.06-.38-2-1.21-2.29-2.3-.08-.32-.09-.69.11-.95.28-.39.86-.37,1.36-.36,1.46.05,3.53-.2,4.77-1.07,1.12-.79,1.59-2.7,2.06-3.94,1.21-3.15,2.42-6.31,3.63-9.47.03-.09.05-.18.05-.27.08-5.85.55-11.69,1.4-17.48.12-.81-.92-1.27-1.44-.63-2.41,2.91-4.82,5.81-7.23,8.71-1.29,1.55-2.63,3.22-2.93,5.22-.05-.81.05-1.62.34-2.39-.67.56-1.43,1.02-2.24,1.35.09-.52.24-1.04.46-1.52.24-.53-.15-1.12-.73-1.14-1.03-.03-2.06-.06-3.09-.09,1.4-1.06,3.46-.78,4.97-1.68.95-.57,1.58-1.54,2.17-2.47,2.63-4.17,5.26-8.35,7.89-12.51.16-.26.16-.59,0-.85-3.15-5.28-3.21-12.26-.17-17.59,1.87-3.28,4.95-6,8.61-6.88,3.68-.9,7.9.25,10.23,3.23,1.65,2.12,2.22,4.88,2.74,7.52.35,1.77.7,3.54.7,5.35,0,3.46-1.4,6.9-3.75,9.44-.47.51-.11,1.34.59,1.36,2.03.05,4.06.11,6.09.16.5.01,1.05.04,1.42.38.46.43.46,1.15.4,1.77-.3,3.23-1.11,6.41-2.39,9.38-.11.26-.08.56.08.79.34.47.68.94,1.01,1.42.18.24.35.55.22.81-.1.2-.33.28-.54.34-1.16.3-2.42.16-3.5-.36-.49-.23-.64-.88-.27-1.28.72-.8,1-2.03,1.05-3.15.07-1.47-.12-3,.48-4.34.48-1.08,1.36-2.58.35-3.23-.31-.2-.7-.2-1.06-.2-1.22,0-2.44.02-3.66.03-.42,0-.78.32-.82.74-.35,3.99.33,8.07,1.98,11.74"/>
        <path class="cls-6" d="m174.25,105.65c1.08,1.35,1.82,2.9,2.82,4.3.55.76,1.19,1.42,1.83,2.11.25.27.71.74.91,1.07.69,1.13-.46,1.49-1.14,1.84-.58.29-1.16.58-1.74.87-.43.22-1.46.98-1.96.98l-.64-.31c-.73-.14-.85-.29-.37-.44.08-.11.45-.3.54-.37.28-.22.53-.47.74-.77,1.27-1.83-.63-2.92-1.27-4.53-.35-.88-.92-1.43-1.51-2.21-.7-.92-1.39-1.86-2.06-2.81-.96-1.37-1.86-2.78-2.79-4.16s-1.93-3.14-3.18-4.29c-1.57-1.45-2.3.89-2.79,1.97-1.03,2.25-2.3,4.4-3.6,6.5-.53.86-1.14,1.68-1.5,2.63-.46,1.24-1.03,2.43-1.73,3.55-.62,1.01-1.34,1.95-2.14,2.83-1.05,1.16-1.88,1.88-3.51,1.9-1.22.01-2.55-.09-3.59-.8-.41-.28-1.19-1-1.17-1.57.02-1.02,1.49-.73,2.04-.76,1.66-.09,3.64-.44,4.71-1.84,1.13-1.46,1.58-3.6,2.23-5.29.49-1.28.98-2.56,1.47-3.83s1.23-2.64,1.49-3.98c.23-1.16.09-2.48.13-3.66.05-1.38.13-2.76.23-4.13.11-1.54.24-3.08.41-4.61.18-1.72.57-3.48.65-5.2.03-.6-.15-1.13-.74-1.38-.77-.34-1.28.15-1.76.7-2.06,2.34-3.99,4.8-5.98,7.19-1.64,1.97-3.5,3.94-3.99,6.55l.87.12c-.03-.79.08-1.52.32-2.27.15-.46-.43-.68-.74-.43-.67.53-1.37.94-2.15,1.28l.65.5c.18-.91,1-2.07.15-2.87-.37-.35-.81-.35-1.29-.36-.88-.03-1.77-.05-2.65-.08l.22.83c1.85-1.24,4.26-.77,5.91-2.44.77-.78,1.33-1.78,1.91-2.71.79-1.25,1.58-2.5,2.37-3.75,1.58-2.5,3.18-4.99,4.73-7.5.5-.8.51-1.24.07-2.06-.62-1.15-1.13-2.33-1.49-3.58-1.37-4.86-.61-10.35,2.32-14.5s7.77-6.71,12.74-5.29c5.56,1.59,6.68,7.1,7.55,12.1.47,2.73.48,5.41-.49,8.03-.45,1.21-1.07,2.37-1.84,3.41-.47.64-1.41,1.3-1.26,2.2.1.59.54.94,1.1,1.05,1.21.24,2.62.08,3.86.12.62.02,1.25.03,1.87.05.77.03,1-.08,1.49.57.42.57.35.43.37.99.06,1.49-.41,3.16-.76,4.6-.31,1.27-.71,2.53-1.18,3.75-.43,1.1-.73,1.57-.06,2.56.21.31,1.08,1.16.71,1.56-.34.37-1.95.08-2.33-.02-.74-.19-1.12-.17-.79-1.16.04-.12.23-.32.26-.4.2-.52.43-.98.54-1.53.27-1.29.08-2.61.22-3.91s1-2.35,1.18-3.63c.37-2.57-3.11-1.92-4.67-1.91-.8,0-1.7-.08-2.08.78-.5,1.13-.21,2.99-.13,4.19.21,2.84.93,5.58,2.07,8.18.23.52.99.07.77-.45-1.22-2.79-1.92-5.79-2-8.84-.01-.56-.11-1.23.02-1.78.31-1.33,1.17-1.19,2.26-1.2.61,0,1.22-.03,1.83-.01,1.4.05,1.02,1.23.62,2.13-.44.98-.72,1.89-.79,2.98-.09,1.52.17,3.17-.61,4.55-.35.62-.93,1.11-.56,1.89s1.46.98,2.2,1.1c1.32.2,3.9-.03,2.8-1.9-.26-.45-.89-.92-1.01-1.42-.16-.64.43-1.57.64-2.17.47-1.31.85-2.64,1.14-4,.27-1.24.5-2.51.58-3.78.05-.77.02-1.63-.62-2.16-.78-.64-2.12-.46-3.05-.48-.62-.02-1.25-.03-1.87-.05-.39-.01-.78-.02-1.17-.03-.69-.02-1.07.17-1.41-.49-.31-.59-.21-.47.15-.92.15-.19.29-.37.43-.56.31-.43.61-.88.87-1.34.61-1.07,1.1-2.23,1.42-3.42.65-2.36.57-4.75.16-7.14-.75-4.47-1.62-9.57-5.92-11.99-3.78-2.13-8.45-1.64-11.99.74-3.78,2.54-6.21,6.76-6.91,11.22-.4,2.52-.29,5.11.35,7.58.35,1.36,1,2.53,1.49,3.83.63,1.68-1.1,3.46-1.98,4.85-1.84,2.92-3.66,5.85-5.52,8.76-.86,1.35-1.69,2.39-3.3,2.81-1.27.34-2.55.43-3.67,1.18-.36.24-.23.81.22.83.75.02,1.7-.11,2.43.07.25-.04.45.06.59.3.41.13.49.35.22.66-.01.36-.24.8-.31,1.15-.08.4.29.66.65.5.86-.37,1.6-.84,2.33-1.42l-.74-.43c-.28.84-.38,1.62-.36,2.5.02.48.78.63.87.12.52-2.75,2.66-4.84,4.39-6.91.84-1.01,1.68-2.02,2.52-3.03.47-.57.94-1.14,1.42-1.7.38-.46.9-1.4,1.42-1.71l.31-.38c.52.21.72.52.6.92.03.24-.08.56-.11.78-.09.66-.18,1.33-.26,1.99-.17,1.45-.33,2.91-.45,4.36-.25,2.83-.4,5.67-.47,8.51-.03,1.5-.56,2.69-1.1,4.08s-1.04,2.71-1.55,4.06c-.42,1.09-.85,2.17-1.24,3.27s-.73,2.42-1.72,3.14-2.31.9-3.47.97c-.73.04-1.72-.18-2.38.24-1.36.87-.12,2.81.75,3.51,1.45,1.18,3.83,1.41,5.62,1.08s3.31-2.47,4.35-3.91c.68-.93,1.27-1.93,1.78-2.96s.83-2.15,1.44-3.13c1.4-2.22,2.78-4.47,3.95-6.83.25-.5,1.02-3.01,1.85-2.74.34.11,1.01,1.28,1.18,1.5.29.39.58.77.86,1.17,1,1.4,1.93,2.85,2.89,4.28,1.18,1.75,2.39,3.51,3.74,5.14.63.76.96,1.72,1.56,2.53.35.47.89,1.04.75,1.7-.16.8-.95,1.16-1.55,1.56-1.31.86.02,2.7,1.37,2.46,1.23-.22,2.54-1.18,3.64-1.73.89-.45,2.29-.85,2.78-1.8.38-.73.07-1.26-.43-1.77-.88-.91-1.83-1.84-2.6-2.86-1.14-1.51-1.95-3.23-3.14-4.72-.36-.45-.98.19-.63.63h0Z"/>
      </g>
      <path class="cls-6" d="m155.25,73.27c2.19,4.33,4.52,8.58,7.04,12.72,1.88,3.1,4.15,6.25,7.75,7.4.7.22,1-.88.3-1.1-3.66-1.16-5.77-4.68-7.62-7.79-2.3-3.86-4.46-7.8-6.49-11.81-.33-.66-1.32-.08-.99.58h0Z"/>
      <g>
        <path class="cls-8" d="m157.78,61.86c3.27,1.86,7.06,2.79,10.83,2.67-1.25.86-2.06,2.22-3.02,3.4s-2.27,2.28-3.8,2.25c-1.6-.03-2.95-1.34-3.54-2.83s-.55-3.14-.52-4.75"/>
        <path class="cls-6" d="m157.49,62.35c3.38,1.9,7.24,2.86,11.12,2.75l-.29-1.06c-1.21.86-2.02,2.06-2.92,3.22-.86,1.09-2.03,2.35-3.53,2.36-1.34.01-2.42-1.05-2.97-2.19-.7-1.48-.63-3.22-.59-4.82.02-.74-1.13-.74-1.14,0-.04,1.79-.06,3.66.72,5.32.63,1.35,1.87,2.54,3.37,2.78,3.82.61,5.12-3.88,7.64-5.68.43-.31.32-1.08-.29-1.06-3.68.1-7.32-.79-10.54-2.59-.64-.36-1.22.63-.58.99h0Z"/>
      </g>
      <path class="cls-6" d="m164.09,58.49c-.6-.58-1.51-.44-2.09.08-.63.56-.64,1.54-.18,2.21.29.43.69.73,1.16.91.13.05.32,0,.44-.06s.23-.21.26-.34c.07-.33-.1-.59-.4-.7-.1-.04.11.05.01,0-.03-.02-.06-.03-.09-.05-.06-.03-.12-.08-.18-.12-.05-.03.05.04.05.04-.01-.01-.03-.02-.04-.03-.03-.02-.05-.04-.08-.07-.06-.05-.11-.11-.16-.17-.04-.05.04.05.04.05,0-.01-.02-.03-.03-.04-.02-.03-.04-.05-.05-.08s-.03-.06-.05-.09c0-.01-.01-.03-.02-.04-.04-.07.01.03.02.05-.02-.06-.04-.12-.06-.18,0-.03,0-.06-.02-.09,0,0,.01.13,0,.07,0-.02,0-.04,0-.06,0-.03,0-.06,0-.1,0-.02.01-.14,0-.04s0,0,0-.03c0-.03.02-.06.03-.09.03-.09-.07.13-.01.03.01-.02.02-.05.04-.07s.03-.04.04-.06c.03-.05-.05.07-.05.06,0,0,.03-.03.03-.04.02-.02.09-.11.11-.11.01,0-.11.08-.06.05.01,0,.02-.02.03-.02.03-.02.05-.03.08-.05.02-.01.05-.02.07-.04,0,0,.03-.02.04-.02,0,0-.13.05-.08.03s.11-.04.16-.05c.03,0,.14-.02.02,0s.01,0,.04,0c.03,0,.06,0,.09,0,.08,0-.15-.03-.04,0,.03,0,.06.02.08.02.08.02-.13-.07-.03-.01,0,0,.08.04.07.05,0,0-.1-.09-.06-.05.01.02.03.03.05.04.22.21.6.23.81,0s.23-.59,0-.81h0Z"/>
      <g>
        <path class="cls-8" d="m160.61,54.55c-.36.1-.53.58-.37.92s.55.53.93.52c.63-.02,1.21-.63,1.08-1.25s-1.04-.92-1.44-.45"/>
        <path class="cls-6" d="m160.46,54c-.69.21-1.03,1.01-.75,1.66s1.04.97,1.74.86c.62-.1,1.17-.62,1.34-1.22s-.09-1.25-.64-1.59-1.31-.32-1.74.17c-.2.22-.24.59,0,.81.22.2.6.24.81,0,.02-.03.05-.05.08-.08-.11.11-.1.07-.05.04.02,0,.03-.02.05-.03.04-.02.09-.02-.07.03.02,0,.03-.01.05-.02.04-.01.08-.02.11-.02l-.15.02c.08,0,.16,0,.24,0l-.15-.02s.09.02.13.03c.02,0,.04.01.06.02.05.02.1.06-.05-.02.04.02.07.04.11.06.02.01.04.03.06.04.05.03-.12-.11-.05-.03.03.03.06.06.09.09.06.06-.08-.12-.03-.05.01.02.02.04.04.06s.02.04.03.06c.04.08-.05-.14-.02-.05.01.05.03.09.03.14l-.02-.15c0,.07,0,.15,0,.22l.02-.15c0,.05-.02.11-.03.16,0,.03-.02.05-.03.08.05-.16.03-.08.01-.04-.03.05-.06.09-.09.14.09-.14.05-.06.02-.03-.02.02-.04.04-.06.06s-.04.04-.06.06c-.07.07.11-.08.03-.02-.05.03-.1.06-.15.09-.05.02-.12.03.03-.01-.02,0-.04.02-.07.02-.06.02-.12.03-.18.04l.15-.02c-.09.01-.19.01-.28,0l.15.02c-.09-.01-.17-.04-.26-.07-.06-.02.14.07.05.02-.02,0-.03-.02-.05-.03-.02-.01-.04-.02-.06-.04-.04-.03-.06-.07.04.03-.03-.03-.06-.06-.09-.09-.04-.04-.03-.08.03.04,0-.02-.02-.03-.03-.05-.01-.02-.02-.04-.03-.06-.03-.05.04.14.02.05,0-.04-.02-.08-.03-.12l.02.15c0-.06,0-.12,0-.18l-.02.15c0-.05.03-.1.04-.16,0-.04-.07.15-.01.03.01-.02.03-.04.04-.06-.05.11-.08.09-.03.04.02-.02.04-.03.05-.05-.1.11-.08.07-.04.03.07-.05-.15.05-.02.01.29-.09.5-.4.4-.7s-.4-.49-.7-.4h0Z"/>
      </g>
      <g>
        <path class="cls-8" d="m168.01,54.68c.23.55-.2,1.21.05,1.75.29.63,1.38.46,1.6-.2s-.35-1.39-1.03-1.51"/>
        <path class="cls-6" d="m167.46,54.83c.03.07.05.15.06.22l-.02-.15c.02.15,0,.3-.01.44l.02-.15c-.07.53-.22,1.12.1,1.61.26.4.73.62,1.2.59s.93-.25,1.23-.66c.33-.45.27-1.06.05-1.54-.24-.51-.76-.92-1.31-1.03-.15-.03-.3-.02-.44.06-.12.07-.23.21-.26.34-.06.28.09.64.4.7.09.02.17.04.25.08l-.14-.06c.11.05.22.11.31.18l-.12-.09c.1.08.18.16.25.26l-.09-.12c.07.09.12.18.17.29l-.06-.14c.04.09.07.19.08.29l-.02-.15c0,.09,0,.17,0,.25l.02-.15c-.01.07-.03.15-.06.21l.06-.14c-.03.06-.06.12-.1.17l.09-.12c-.05.06-.1.11-.16.15l.12-.09c-.07.05-.14.09-.22.13l.14-.06c-.09.04-.18.06-.27.07l.15-.02c-.09.01-.18.01-.27,0l.15.02c-.07-.01-.14-.03-.2-.05l.14.06c-.06-.02-.11-.06-.16-.09l.12.09s-.08-.07-.11-.11l.09.12s-.06-.1-.09-.15l.06.14c-.03-.07-.05-.14-.06-.22l.02.15c-.02-.15,0-.29.01-.44l-.02.15c.06-.45.19-.93.01-1.37-.06-.14-.12-.26-.26-.34-.12-.07-.3-.1-.44-.06s-.27.13-.34.26-.11.3-.06.44h0Z"/>
      </g>
      <g>
        <path class="cls-10" d="m166.46,47.43v-4.07c0-.34,0-.69-.08-1.02-.16-.67-.63-1.22-.87-1.87s-.13-1.54.52-1.78c.48-.18,1.03.12,1.31.56s.35.96.41,1.47c.27,2.23.54,4.47.81,6.7"/>
        <path class="cls-6" d="m167.03,47.43v-2.54c0-.75.05-1.51-.03-2.26s-.44-1.31-.77-1.94c-.18-.35-.47-1-.14-1.36.42-.47.88.4.96.71.2.74.22,1.55.31,2.31.2,1.69.41,3.38.61,5.07.04.31.24.57.57.57.28,0,.61-.26.57-.57-.19-1.57-.38-3.15-.57-4.72-.09-.75-.17-1.5-.27-2.25-.08-.64-.23-1.3-.68-1.78-.83-.88-2.26-.72-2.67.48-.16.47-.14,1.03.03,1.49.22.61.65,1.12.84,1.73.22.72.1,1.6.1,2.35v2.71c0,.73,1.14.74,1.14,0h0Z"/>
      </g>
      <path class="cls-6" d="m162.53,33.47c.17,1.02.56,2,1.11,2.88.16.25.52.38.78.2s.38-.51.2-.78c-.13-.2-.25-.42-.36-.63-.06-.12-.11-.23-.17-.35-.01-.03-.07-.16-.02-.04-.02-.06-.05-.12-.07-.18-.17-.45-.3-.92-.38-1.4-.05-.3-.43-.49-.7-.4-.32.1-.45.39-.4.7h0Z"/>
      <path class="cls-6" d="m166.1,31.85v1.9c0,.3.26.58.57.57s.57-.25.57-.57v-1.9c0-.3-.26-.58-.57-.57s-.57.25-.57.57h0Z"/>
      <path class="cls-6" d="m171.18,30.58c0,.15.01.3,0,.45,0,.08,0,.17-.02.25,0,.04,0,.07-.01.11-.01.1.01-.08,0,.02-.05.31-.13.61-.24.9-.01.04-.03.07-.04.11-.01.03-.03.08,0,.02-.03.07-.06.14-.1.2-.07.13-.14.27-.22.39-.18.29-.29.42-.54.68-.21.21-.23.6,0,.81s.58.23.81,0c1.02-1.04,1.58-2.49,1.5-3.94-.02-.3-.25-.59-.57-.57-.3.01-.59.25-.57.57h0Z"/>
      <g>
        <path class="cls-12" d="m170.01,90.43c3.38-.33,6.81-.06,10.11.77.34.09.7.19.92.47.22.28.24.65.25,1,.09,3.27.19,6.54.28,9.81.01.42.02.85-.13,1.23-.41,1.07-1.76,1.37-2.9,1.51-2.34.29-4.68.57-7.02.86-.18.02-.38.03-.51-.09-.09-.09-.11-.23-.12-.36-.55-5.07-.61-10.19-.17-15.26"/>
        <path class="cls-6" d="m170.01,91c3.14-.29,6.3-.1,9.37.61.3.07.79.11,1.05.29.34.25.28.71.29,1.08.03.82.05,1.64.07,2.45.05,1.58.09,3.17.14,4.75.02.77.05,1.53.07,2.3s-.05,1.33-.75,1.72c-1.14.63-2.74.58-4,.74-.76.09-1.53.19-2.29.28-.41.05-.81.1-1.22.15-.3.04-.96.26-1.22.15-.41-.17,0,.12-.09-.19-.05-.17-.05-.44-.06-.61-.03-.36-.07-.71-.1-1.07-.07-.81-.12-1.63-.16-2.44-.19-3.61-.12-7.24.19-10.84.06-.73-1.08-.73-1.14,0-.33,3.86-.38,7.74-.15,11.61.06.92.13,1.83.22,2.74.06.61-.02,1.54.65,1.85.61.28,1.53-.02,2.17-.1,1.02-.12,2.04-.25,3.05-.37,1.44-.18,3.11-.17,4.46-.78,1.44-.65,1.62-1.85,1.57-3.29-.05-1.89-.11-3.78-.16-5.67-.03-.97-.06-1.94-.08-2.91-.02-.67.06-1.48-.35-2.06-.46-.66-1.41-.78-2.14-.94-.93-.21-1.86-.36-2.81-.48-2.18-.28-4.38-.3-6.58-.1-.73.07-.73,1.21,0,1.14h0Z"/>
      </g>
      <path class="cls-6" d="m175.96,94.61c.73,0,.74-1.14,0-1.14s-.74,1.14,0,1.14h0Z"/>
      <path class="cls-6" d="m171.3,91.98c.73,0,.74-1.14,0-1.14s-.74,1.14,0,1.14h0Z"/>
      <path class="cls-6" d="m170.45,90.22c.15,1.57.4,3.14.77,4.67.14.59.25,1.35.83,1.69s1.41.18,2.02.18c1.57,0,3.17.08,4.74.01.68-.03,1.13-.28,1.53-.82.52-.69,1-1.41,1.5-2.12.42-.6-.57-1.17-.99-.58-.39.55-.78,1.11-1.17,1.66-.15.21-.28.49-.5.63s-.56.09-.82.08c-1.3,0-2.59,0-3.89,0-.3,0-.6,0-.9,0-.2,0-.71.08-.89-.01s-.21-.44-.26-.64c-.07-.28-.14-.57-.2-.85-.29-1.28-.49-2.58-.61-3.89-.07-.73-1.21-.73-1.14,0h0Z"/>
      <path class="cls-6" d="m.81,69.93l3.65-1.5c.31-.13.56-.43.44-.78-.1-.29-.45-.58-.78-.44-1.22.5-2.43,1-3.65,1.5-.31.13-.56.43-.44.78.1.29.45.58.78.44h0Z"/>
      <path class="cls-6" d="m4.5,76.21l2.58-1.06c.16-.07.29-.14.38-.29.08-.14.11-.34.06-.49-.1-.29-.45-.58-.78-.44l-2.58,1.06c-.16.07-.29.14-.38.29-.08.14-.11.34-.06.49.1.29.45.58.78.44h0Z"/>
      <path class="cls-6" d="m6.14,81.65c1.72-.19,3.37-.79,4.76-1.83.27-.2.41-.55.23-.87-.16-.27-.59-.43-.87-.23-1.22.91-2.67,1.5-4.12,1.65-.34.04-.63.27-.63.63,0,.31.29.67.63.63h0Z"/>
      <g class="cls-2">
        <path class="cls-4" d="m154.43,117.76c11.06-1.03,21.6-3.72,31.83-8.05,3.5-1.48.48-6.59-2.99-5.12-9.2,3.9-18.89,6.32-28.84,7.25-3.76.35-3.8,6.28,0,5.93h0Z"/>
      </g>
    </g>
  </g>
</svg>