<?xml version="1.0" encoding="UTF-8"?>
<svg id="Layer_2" data-name="Layer 2" xmlns="http://www.w3.org/2000/svg" viewBox="0 0 832.05 114.3">
  <defs>
    <style>
      .cls-1 {
        fill: #8ccece;
        stroke: #8ccece;
        stroke-width: 1.38px;
      }

      .cls-2 {
        stroke: #a2d5cf;
        stroke-linecap: round;
        stroke-linejoin: round;
        stroke-width: 15.78px;
      }

      .cls-2, .cls-3 {
        fill: #fff;
      }

      .cls-4 {
        opacity: .14;
      }

      .cls-5 {
        opacity: .85;
      }

      .cls-6 {
        fill: #f9b9ad;
      }

      .cls-6, .cls-7, .cls-8, .cls-9, .cls-3 {
        stroke-width: 0px;
      }

      .cls-7 {
        fill: #896b4a;
      }

      .cls-8 {
        fill: #231f20;
      }

      .cls-9 {
        fill: #6b908d;
      }
    </style>
  </defs>
  <g id="Layer_1-2" data-name="Layer 1">
    <g>
      <g class="cls-5">
        <path class="cls-1" d="m755.12,52.04c-4.19,2.93-7.98,6.42-11.25,10.35,2.79-.34,5.63-.33,8.42.03-4.32,4.2-8.5,8.55-12.54,13.02,3.06.61,6.22.68,9.3.19-2.65,2.46-5.3,4.91-7.95,7.37-2.39,2.22-4.88,4.49-7.94,5.6,7.14,2.53,15.03,2.93,22.39,1.14-.22,4.96-.24,9.93-.09,14.9.01.36.04.76.29,1.02.27.29.71.32,1.1.33,1.16.04,2.33.07,3.49.11-.21-5.61,0-11.24.62-16.82,4.8,1.02,9.72,1.49,14.63,1.41.29-1.19-.51-2.35-1.27-3.31-2.87-3.66-5.74-7.32-8.61-10.98,2.97.37,5.93.74,8.9,1.11-4.49-3.86-8.44-8.34-11.72-13.27,2.79.37,5.62.42,8.41.16-5.67-3.15-10.74-7.39-14.84-12.42-.18-.22-.39-.46-.67-.49s-.58.32-.4.54"/>
        <path class="cls-1" d="m796.39,66.12c-3.06,1.47-5.86,3.5-8.2,5.96,1.21.21,2.42.43,3.63.64-2.75,2.45-5.12,5.33-6.99,8.49,2.1.42,4.29.37,6.37-.13-2.5,3.26-4.54,6.89-6.03,10.72,2.59-.1,5.18-.21,7.77-.31.13,4.69.16,9.38.07,14.07,1.31-.02,2.63-.04,3.94-.06-.21-4.5-.42-9-.64-13.49,1.71-.22,3.45-.25,5.17-.09-2.44-2.58-4.31-5.7-5.45-9.06,1.27,1.09,2.74,1.94,4.32,2.5-1.09-4.28-2.65-8.44-4.63-12.39,1.31-.09,2.63-.18,3.94-.27-1.14-2.35-2.38-4.65-3.69-6.91"/>
        <path class="cls-1" d="m820.53,75.16c-1.63.91-3.11,2.11-4.33,3.52,1.28.33,2.58.56,3.9.68-1.43,2.41-2.99,4.75-4.66,7,1.54.02,3.07.04,4.61.06-1.26,2.98-2.76,5.86-4.48,8.6,2.09.15,4.18.23,6.28.21-.12,3.76,0,7.52.33,11.27.42.77,1.69.61,2.23-.1s.55-1.66.53-2.54c-.04-2.96-.08-5.92-.12-8.89,1.89.43,3.85.52,5.77.27-2.4-2.44-4.48-5.19-6.18-8.16,1.71.17,3.43.33,5.14.5-2.26-2.22-4.35-4.62-6.25-7.15,1.19.06,2.38.11,3.57.17-2.08-1.74-4.16-3.49-6.24-5.23"/>
      </g>
      <g class="cls-5">
        <path class="cls-1" d="m76.94,53.36c4.19,2.93,7.98,6.42,11.25,10.35-2.79-.34-5.63-.33-8.42.03,4.32,4.2,8.5,8.55,12.54,13.02-3.06.61-6.22.68-9.3.19,2.65,2.46,5.3,4.91,7.95,7.37,2.39,2.22,4.88,4.49,7.94,5.6-7.14,2.53-15.03,2.93-22.39,1.14.22,4.96.24,9.93.09,14.9-.01.36-.04.76-.29,1.02-.27.29-.71.32-1.1.33-1.16.04-2.33.07-3.49.11.21-5.61,0-11.24-.62-16.82-4.8,1.02-9.72,1.49-14.63,1.41-.29-1.19.51-2.35,1.27-3.31,2.87-3.66,5.74-7.32,8.61-10.98-2.97.37-5.93.74-8.9,1.11,4.49-3.86,8.44-8.34,11.72-13.27-2.79.37-5.62.42-8.41.16,5.67-3.15,10.74-7.39,14.84-12.42.18-.22.39-.46.67-.49s.58.32.4.54"/>
        <path class="cls-1" d="m35.66,67.44c3.06,1.47,5.86,3.5,8.2,5.96-1.21.21-2.42.43-3.63.64,2.75,2.45,5.12,5.33,6.99,8.49-2.1.42-4.29.37-6.37-.13,2.5,3.26,4.54,6.89,6.03,10.72-2.59-.1-5.18-.21-7.77-.31-.13,4.69-.16,9.38-.07,14.07-1.31-.02-2.63-.04-3.94-.06.21-4.5.42-9,.64-13.49-1.71-.22-3.45-.25-5.17-.09,2.44-2.58,4.31-5.7,5.45-9.06-1.27,1.09-2.74,1.94-4.32,2.5,1.09-4.28,2.65-8.44,4.63-12.39-1.31-.09-2.63-.18-3.94-.27,1.14-2.35,2.38-4.65,3.69-6.91"/>
        <path class="cls-1" d="m11.53,76.48c1.63.91,3.11,2.11,4.33,3.52-1.28.33-2.58.56-3.9.68,1.43,2.41,2.99,4.75,4.66,7-1.54.02-3.07.04-4.61.06,1.26,2.98,2.76,5.86,4.48,8.6-2.09.15-4.18.23-6.28.21.12,3.76,0,7.52-.33,11.27-.42.77-1.69.61-2.23-.1s-.55-1.66-.53-2.54c.04-2.96.08-5.92.12-8.89-1.89.43-3.85.52-5.77.27,2.4-2.44,4.48-5.19,6.18-8.16-1.71.17-3.43.33-5.14.5,2.26-2.22,4.35-4.62,6.25-7.15-1.19.06-2.38.11-3.57.17,2.08-1.74,4.16-3.49,6.24-5.23"/>
      </g>
      <g>
        <path class="cls-9" d="m251.63,4.26c3.49-.03,7.6-.66,10.14-1.6l.29.08,1.37,3-.09.31c-1.74,1.09-3.49,2.51-4.8,4.34-1.46,2.03-2.8,4.54-2.8,7.46,0,2.49,1.43,3.83,4.03,3.83,4.68,0,7.11-3.86,7.11-13.03,0-2.08-.51-4.14-1.09-5.6l.12-.26,3.43-.89.29.11c1.57,5.74,3.86,10.14,6.86,14.11l-.06.29-3.06,2.6h-.26c-1.37-2.2-2.2-3.74-3.2-6.51.12,2.11-.03,4.23-.6,6.74-.77,3.34-3.66,6.66-9.6,6.66-4.83,0-8.05-2.31-8.05-7.4,0-4.68,2.14-8.51,4.28-10.77-1.31.26-3.06.4-4.26.46l-.2-.23-.06-3.54.2-.17Z"/>
        <path class="cls-9" d="m283.37,10.54c2.23.26,4.57.31,6.97.17-.06-.91,0-1.83-.08-2.74-2.11.11-4.17.09-6.29-.06l-.2-.26.09-3.17.23-.17c1.97.11,4.06.14,6.14.03,0-1.17,0-2.37.03-3.68l.2-.23h3.86l.2.23c-.03,1.11-.06,2.26-.09,3.31,1.57-.23,3.03-.49,4.34-.8l.23.23.37,2.97-.2.23c-1.54.4-3.14.74-4.74.97,0,.91,0,1.8.06,2.71,1.83-.29,3.6-.69,5.29-1.17l.26.17.46,3.23-.14.26c-1.94.54-3.86.94-5.74,1.23.06,1.34.11,2.6.2,3.8,2.88,1.17,5.29,2.74,7.97,4.83v.29l-2.51,3.03h-.31c-1.63-1.54-3.86-3.23-5.2-3.97-.17,3.09-2.66,4.29-6.66,4.29-2.71,0-5.91-1.23-5.91-4.57,0-3.88,4.14-4.83,8.48-4.63-.06-.86-.11-1.74-.14-2.6-2.69.17-5.2.11-7.71-.14l-.17-.23.54-3.34.2-.2Zm5.11,9.74c-1.49,0-2.46.63-2.46,1.14,0,.69.6,1.2,2.46,1.2,1.6,0,2.17-.71,2.06-2-.63-.26-1.06-.34-2.06-.34Z"/>
        <path class="cls-9" d="m310.45,1.51l4.03.03.23.2c-.14,3.54-.29,5.97-.43,8.91-.12,2.48-.29,5.68-.29,7.91,0,2.06.97,2.97,2.68,2.97,3.29,0,7-2.57,9.43-7l2.49,3.31c.26.31.31.54.09.91-2.83,4.49-7.31,7.11-11.68,7.11s-7.25-2.03-7.25-6.86c0-3.97.2-6.63.29-9.23.09-2.23.23-4.74.23-8.08l.2-.2Zm10.63,3.77l1.49-1.06.29-.03c1.06.89,2.06,1.89,2.91,3.03l-.03.29-1.57,1.11h-.29c-.89-1.17-1.69-2.11-2.83-3.08l.03-.26Zm2.68-1.8l1.46-1.06.29-.03c1.06.89,1.97,1.8,2.83,2.94l-.03.29-1.49,1.08h-.29c-.89-1.17-1.66-2-2.8-2.97l.03-.26Z"/>
        <path class="cls-9" d="m344.5,1.11l3.8,1.6.09.31c-1.83,3.34-3.34,5.88-4.86,8.68.83-.46,1.43-.63,2.23-.63,2.8,0,4.31,1.74,4.34,4.06.03,1.77-.03,3.46-.06,4.28-.03.83.08,1.37.8,1.37,1.77,0,3.8-2,5.88-6.46l2.54,3.4c.29.4.31.54.06,1.06-2.37,4.46-5.4,6.54-8.68,6.54s-4.91-1.51-4.91-4.34c0-1.26.14-3.11.14-4.63s-.31-1.86-1.26-1.86c-1.43,0-2.54,1.26-3.48,2.94-1.14,2.03-2.26,4.51-3.49,7.6l-.29.11-3.83-1.4-.09-.31c3.51-7.88,7.11-15.05,10.77-22.25l.29-.09Z"/>
        <path class="cls-9" d="m375.69.23l.2-.23h3.88l.2.2v5.31h4.31l4.71-.08.2.2v3.34l-.2.2-4.71-.08h-4.31v4.28h2.51l4.71-.09.2.2v3.29l-.2.2-4.71-.09h-2.51v5.11h5.83l4.71-.09.2.2v3.37l-.2.2-4.71-.09h-16.25l-4.74.09-.2-.2v-3.37l.2-.2,4.74.09h6.14v-5.11h-1.57l-4.74.09-.2-.2v-3.29l.2-.2,4.74.09h1.57v-4.28h-5.06c-.77,2.37-1.71,4.57-2.86,6.63-.14.23-.29.34-.51.34-.14,0-.31-.06-.54-.14l-3.08-1.37c2.4-4.08,3.94-8.68,4.66-13.25l.26-.12,3.69.77.14.26c-.23,1.14-.46,2.23-.71,3.31h4.03V.23Z"/>
        <path class="cls-9" d="m399.2,13.08l-.34.09c-1.34-1.09-2.86-2.06-4-2.66l-.09-.23,2.23-2.71.34-.08c1.08.46,2.71,1.43,4.03,2.34l.09.29-2.26,2.97Zm-4.03,11.62c1.34-2.74,2.26-5.34,3.43-9.65l3.03,1.8c.29.2.31.4.26.69-.8,3.14-1.51,5.31-2.97,8.91l-.29.17-3.34-1.63-.11-.29Zm5.2-18.62l-.34.06c-1.31-1.17-2.74-2.14-4.08-2.83l-.06-.23,2.43-2.6.34-.06c1.37.66,2.77,1.51,4.11,2.51l.06.29-2.46,2.86Zm8.06,19v1.63h-4.17l.17-6.14v-2.31l-.11-3.08.2-.2,3.66.09h1.94v-3.83h-3.88l-3.83.09-.23-.17v-3.17l.2-.17,3.86.09h3.88v-3.14c-1.66.17-3.26.29-4.63.37-.37.03-.57-.03-.74-.34l-1.63-2.94c5.2-.2,11.34-.86,14.48-1.68l.31.03c1.14.86,2,1.6,3.14,2.74l-.06.29c-1.86.4-4.23.77-6.71,1.09v3.6h4.17l3.88-.09.17.14v3.23l-.17.14-3.88-.09h-4.17v3.83h2.2l3.6-.09.23.2-.11,3.08v2.43l.17,5.86h-4.28v-1.46h-7.66Zm7.66-6.77h-7.66v3.49h7.66v-3.49Z"/>
        <path class="cls-9" d="m426.91,15.65c3.2-2.6,5.46-4.8,7.11-7.28-1.37.11-2.8.14-4.14.14l-.17-.17-.11-3.51.2-.17c2.14,0,4.26-.06,6.37-.2.51-1.17.94-2.43,1.34-3.83l.23-.14,3.91.57.17.2c-.34,1-.69,1.86-1,2.69,1.43-.23,2.86-.49,4.29-.83l.26.14.29,3.37-.17.26c-2.08.43-4.43.8-6.8,1.09-.46.69-1.08,1.57-1.66,2.26.86-.26,1.54-.37,2.69-.37,1.77,0,3.06,1.11,3.48,2.74,1.8-.69,3.83-1.4,6.06-2.14l.29.11,1.77,3.51-.14.26c-2.89.74-5.34,1.49-7.46,2.26.06,1.11.09,2.51.12,3.88l-.2.17-3.77.14-.23-.17v-2.34c-1.74.83-2.71,1.63-2.71,2.6s1.14,1.23,3.68,1.26c2.09.03,4.94-.23,7.46-.6l.29.17.26,3.8-.17.23c-2.71.23-5.11.37-8.46.37-5.77,0-7.28-2.43-7.28-4.88,0-2.74,2.31-4.66,4.97-6.17.51-.29,1.08-.57,1.71-.86-.14-.71-.57-1.08-1.43-1.08-1.14,0-2.26.29-3.26,1-1.26.91-3.2,2.74-4.97,4.63l-.29.03-2.51-2.8v-.31Z"/>
        <path class="cls-9" d="m468.45,22.19c6.14-1.03,8.91-3.97,8.91-7.4,0-4.34-2.4-7.08-5.31-7.68-.57,5.4-2.43,10.43-4.4,13.31-1.54,2.26-3.14,3.08-5.37,3.08-1.71,0-2.94-.83-4.03-2.54-.83-1.29-1.4-2.86-1.4-5.17,0-6.91,5.17-12.51,13.03-12.51s11.97,5.23,11.97,11.57c0,5.2-3.66,9.14-9.71,10.57-.4.03-.6.03-.91-.29l-2.77-2.94Zm-7.66-6.4c0,.94.17,1.63.49,2.17.31.57.71.94,1.17.94.66,0,1.49-.66,2.26-2.2,1.6-3.2,2.4-6.23,2.83-9.71-4.17.71-6.74,4.4-6.74,8.8Z"/>
        <path class="cls-9" d="m506.96,3.17l.97-.69.29-.03c1.06.89,2.06,1.88,2.91,3.03l-.03.29-1.57,1.11h-.29c-.74-.97-1.43-1.8-2.29-2.6-3.77,3.97-6.91,6.74-9.83,8.83,4.11-1.6,7.74-2.8,12.57-4.2l.26.11,1.06,3.8-.14.23c-3.6.69-7.23,1.74-9.17,3.06-1.46,1-1.97,2.03-1.97,3.06,0,2,2.66,2.71,7.51,2.57l.17.23-.49,4.11-.2.2c-7.57-.03-11.2-2.34-11.2-5.94,0-1.77.4-2.8,1.46-4-2.11.91-3.14,1.46-4.43,2.11-.97.49-1.77.63-2.37.63-1.6,0-2.37-1.74-2.51-3,1.51-.74,3.34-2.03,5.51-3.94,3.08-2.74,7.17-6.8,10.28-11.03l.29-.03,3.2,2.08Zm-16.71.8l2.91-2.4h.31c1.4,1.06,2.86,2.4,4.11,3.88l-.03.31-3.03,2.66-.31.03c-1.37-1.68-2.54-2.97-4-4.2l.03-.29Zm18.88-2.23l1.46-1.06.29-.03c1.06.89,1.97,1.8,2.83,2.94l-.03.29-1.49,1.09h-.29c-.89-1.17-1.66-2-2.8-2.97l.03-.26Z"/>
        <path class="cls-9" d="m519.53,11.37c3.37.03,5.97-.37,8.85-1.26-.46-.8-.94-1.57-1.46-2.37-2.4.6-4.54.91-7.34,1.06l-.23-.2-.69-3.14.11-.23c2.31-.11,3.97-.37,5.88-.8-.57-.83-1.23-1.69-1.94-2.63l.03-.29,3.68-1.26.29.12c.71.94,1.37,1.91,2.06,2.88,1.4-.51,3.2-1.31,4.54-2.09l.29.03,1.74,2.97-.03.29c-1.31.71-3.11,1.51-4.43,2.03.4.69.74,1.2,1.34,2.17,1.34-.63,3.11-1.54,4.4-2.4l.26.03,2,2.97-.08.29c-1.46.91-3.26,1.86-4.57,2.51.71,1.29,1.37,2.49,1.94,3.54.37.71.54,1.31.54,2.06,0,1.31-1.2,2.4-2.34,2.4-.31,0-.89-.14-1.37-.49-.97-.71-2.31-1.31-4.63-1.91l.06-.89c.94-.09,1.83-.2,3.03-.37.2-.03.29-.14.17-.37-.37-.71-.86-1.6-1.29-2.4-3.06,1-5.88,1.43-10.08,1.37l-.2-.14-.71-3.26.17-.23Zm-.54,10.14l2.37-2.54.26.03c2,2.23,5.34,2.8,9.03,2.8.97,0,1.63-.03,3.26-.17l.23.23.09,3.97-.23.2c-1.4.09-2.37.11-3.48.11-6,0-9.25-1.54-11.51-4.34v-.29Z"/>
        <path class="cls-9" d="m562.06,21.88c0,.83.14.91,1.74.91s2.14-.09,2.4-.34c.31-.31.51-1.2.54-2.8l3.37,1.31c.4.14.51.23.49.66-.11,2-.6,3.4-1.49,4.08-.8.63-1.74.8-5.71.8-4.28,0-5.51-.43-5.51-2.77l.06-3.54v-2.34h-2.06c-.6,5.57-3.74,8.26-9.71,9.08-.43.06-.63.06-.89-.31l-2.11-2.97c5.86-.74,8-2.17,8.66-5.8l-3.57.12-.2-.2.09-4.17V4.31l-.09-3.48.2-.17,4.14.09h9.54l3.94-.09.23.23-.09,3.43v9.28l.09,4.17-.26.2-3.63-.12h-.17v4.03Zm-.09-17.88h-9.88v1.54h9.88v-1.54Zm-9.88,4.48v1.54h9.88v-1.54h-9.88Zm0,6.11h9.88v-1.63h-9.88v1.63Z"/>
      </g>
      <path class="cls-9" d="m217.74,8.45c5.93,5.93,11.86,11.86,17.78,17.78,2.6,2.6,6.64-1.43,4.04-4.04-5.93-5.93-11.86-11.86-17.78-17.78-2.6-2.6-6.64,1.43-4.04,4.04h0Z"/>
      <path class="cls-9" d="m592.06,20.03c3.71-4.08,7.41-8.15,11.12-12.23,2.47-2.71-1.56-6.76-4.04-4.04-3.71,4.08-7.41,8.15-11.12,12.23-2.47,2.71,1.56,6.76,4.04,4.04h0Z"/>
      <g>
        <path class="cls-6" d="m691.31,64.15c6.44-.32,13.23,1.88,19.14-.68,5.65-2.45,8.73-8.58,10.5-14.48,3.5-11.67,3.25-25.44-4.64-34.72-5.01-5.9-12.26-9.04-19.5-11.26-8.84-2.7-17.26-.14-24.91,5.88-8.33,6.56-9.75,17.17-8.33,27.67"/>
        <path class="cls-8" d="m691.31,64.7c5.72-.24,11.6,1.46,17.24,0,4.84-1.25,8.28-4.99,10.48-9.32s3.52-9.33,4.18-14.2.63-10.01-.47-14.88-3.2-9.23-6.44-12.88c-3.5-3.93-8.1-6.66-12.92-8.66s-10.04-3.71-15.38-3.3-10.28,2.59-14.59,5.64c-4.55,3.21-7.87,7.42-9.51,12.79s-1.6,11.15-.87,16.69c.09.69,1.19.7,1.1,0-1.2-9.12-.39-19.35,6.7-26.02,3.78-3.56,8.74-6.32,13.81-7.47,5.13-1.17,9.99-.29,14.88,1.4s9.42,3.8,13.27,7.07,6.43,7.21,7.98,11.81c3.02,8.9,2.05,19.08-1.11,27.81-1.79,4.95-4.8,10.07-9.97,12.03-5.85,2.22-12.34.17-18.39.42-.71.03-.71,1.13,0,1.1h0Z"/>
      </g>
      <g>
        <path class="cls-6" d="m697.43,82.89c-.74-1.4-1.49-2.8-2.07-4.28-1.44-3.69-1.03-7.65-2.21-11.31-.97-3.02-1.42-5.61.47-8.54.52-.8,1.17-1.51,1.6-2.36.8-1.61.63-3.66-.44-5.12s-2.97-2.24-4.75-1.95c-.27.04-.56.12-.74.32-.24.26-.25.65-.24,1,.16,11.92.31,23.83.47,35.75.03,2.13.07,4.33,1.01,6.24,1.04,2.11,3.17,3.64,5.5,3.95.52.07,2.61-3.85,2.92-4.36.94-1.58,1.79-3.21,2.54-4.89,1.51-3.35,2.64-6.87,3.37-10.48.37-1.8.63-3.62.79-5.45.13-1.41.71-4.11.16-5.44-.56-1.37-3.06-.96-4.36-1.05-2.11-.15-4.21-.3-6.32-.45-.4-.03-.86-.03-1.13.27-.23.27-.2.66-.16,1.01.32,2.86.63,5.72.95,8.58.13,1.23.27,2.47.71,3.62.58,1.52,1.67,2.88,1.84,4.5"/>
        <path class="cls-8" d="m697.91,82.61c-.79-1.48-1.61-2.98-2.17-4.57-.52-1.5-.78-3.08-.97-4.65-.17-1.37-.3-2.74-.55-4.09s-.78-2.75-1.09-4.15-.38-2.89.08-4.29c.49-1.48,1.53-2.51,2.29-3.82,1.11-1.9,1.01-4.38-.33-6.14-1.19-1.55-3.6-2.67-5.56-2.04-.78.25-1.06.83-1.11,1.62-.11,1.7.04,3.45.06,5.14.09,6.62.17,13.24.26,19.86.04,3.31.09,6.62.13,9.93.03,2.63-.06,5.47,1.27,7.84,1.07,1.89,2.99,3.32,5.11,3.77,1.48.32,2.02-.99,2.71-2.12,2.5-4.11,4.66-8.41,6.09-13,.88-2.83,1.5-5.73,1.87-8.67.27-2.13.94-4.76.49-6.89s-2.72-1.95-4.44-1.96-3.33-.21-4.98-.33c-.96-.07-2.68-.55-3.46.29s-.18,2.75-.06,3.78c.19,1.75.39,3.5.58,5.24.17,1.58.27,3.22.84,4.72s1.59,2.85,1.84,4.5c.11.7,1.17.4,1.06-.29-.15-1-.55-1.88-1.01-2.78-.66-1.29-1.16-2.51-1.37-3.95-.4-2.7-.61-5.43-.91-8.14-.05-.48-.31-1.37-.2-1.85.18-.77.86-.54,1.48-.5l4.13.3c.97.07,1.92.11,2.9.11.86,0,2.12-.07,2.48.89.31.83.11,1.97,0,2.83-.12,1.04-.26,2.08-.37,3.13-.28,2.62-.79,5.21-1.49,7.74-1.24,4.5-3.2,8.6-5.49,12.65-.33.59-.67,1.17-1.02,1.75-.21.34-.7,1.45-1.11,1.57-.56.17-2.01-.67-2.54-1.02-1.01-.66-1.85-1.57-2.38-2.66-1.18-2.41-.93-5.35-.96-7.95-.04-2.81-.07-5.63-.11-8.44-.07-5.46-.14-10.92-.21-16.38-.04-2.79-.28-5.66-.11-8.44.06-.92.19-1.31,1.14-1.33.55,0,1.1.11,1.61.3,1.28.49,2.26,1.54,2.63,2.86.85,3-1.87,4.82-2.78,7.39-.78,2.2-.37,4.49.28,6.66.82,2.71.97,5.48,1.44,8.26s1.68,5.34,3.03,7.87c.33.63,1.29.07.95-.56h0Z"/>
      </g>
      <g>
        <path class="cls-3" d="m683.43,44.83c7.08-.78,14.16-1.55,21.18-2.73.12-.02.24-.04.35.02.18.09.2.34.19.54-.18,2.1-2,3.66-3.8,4.76-1.71,1.05-3.55,1.93-5.53,2.25-1.84.3-3.71.09-5.56-.11-2.72-.3-5.81-.82-7.27-3.14-.27-.43-.47-.96-.28-1.43s.92-.68,1.2-.27"/>
        <path class="cls-8" d="m683.43,45.38c4.13-.45,8.26-.91,12.37-1.44,1.96-.25,3.92-.52,5.87-.82.31-.05,2.79-.64,2.91-.46.19.27-.41,1.34-.53,1.55-.23.39-.52.73-.83,1.06-2.71,2.79-6.81,4.19-10.62,3.96-1.74-.1-3.54-.27-5.24-.69-.77-.19-1.53-.44-2.22-.84-.36-.2-.69-.44-.99-.72-.15-.14-.29-.29-.42-.44-.39-.38-.47-.85-.22-1.42.53.47,1.31-.3.78-.78-.87-.79-2.18-.16-2.22,1.02-.05,1.46,1.49,2.74,2.64,3.37,1.4.76,3.01,1.07,4.58,1.27,2.03.27,4.12.52,6.16.27s3.9-1.05,5.65-2.07c1.4-.82,2.81-1.79,3.73-3.16.48-.71,1.52-2.77.4-3.4-.57-.32-1.52.05-2.09.14-1.17.19-2.34.37-3.52.53-5.38.78-10.79,1.37-16.2,1.96-.7.08-.71,1.18,0,1.1h0Z"/>
      </g>
      <path class="cls-8" d="m681.94,23.23c-1.27.09-2.54.22-3.81.26-.17,0-.24.04-.28-.11-.07-.23-.08-.5-.09-.74-.02-.38,0-.85.32-1.12s.83-.29,1.24-.3c.58,0,1.16.02,1.74.03.48,0,1.08-.07,1.53.12.31.13.37.4.31.69-.22,1.09-1.64,1.08-2.5,1.09-.71,0-.71,1.11,0,1.1,1.27-.02,2.83-.17,3.42-1.49.25-.56.3-1.22-.02-1.76-.36-.62-1.07-.8-1.74-.84-.76-.04-1.52-.03-2.28-.05-.67-.01-1.35,0-1.97.28s-1,.85-1.1,1.5c-.05.34-.05.67-.02,1s.06.73.21,1.05c.41.84,1.48.61,2.23.56.94-.07,1.88-.13,2.82-.2.3-.02.55-.24.55-.55,0-.28-.25-.57-.55-.55h0Z"/>
      <path class="cls-8" d="m679.77,25.78v-1.56c0-.29-.25-.56-.55-.55s-.55.24-.55.55v1.56c0,.29.25.56.55.55s.55-.24.55-.55h0Z"/>
      <path class="cls-8" d="m681.52,25v-1.37c0-.14-.06-.29-.16-.39s-.25-.17-.39-.16c-.3.01-.55.24-.55.55v1.37c0,.14.06.29.16.39s.25.17.39.16c.3-.01.55-.24.55-.55h0Z"/>
      <path class="cls-8" d="m683.45,24.85c-.01-.09-.04-.17-.07-.26-.05-.12-.1-.24-.18-.35s-.16-.21-.26-.29-.21-.17-.33-.22c-.06-.04-.13-.06-.2-.07-.07-.02-.15-.01-.22,0-.13.04-.27.13-.33.25-.07.13-.1.28-.06.42.04.13.13.27.25.33.07.03.13.07.19.11l-.11-.09c.07.05.13.12.19.19l-.09-.11c.05.07.1.15.14.23l-.06-.13c.03.08.06.17.07.26.02.07.05.13.1.19.04.06.09.11.15.14.06.04.13.06.2.07.07.02.15.01.22,0,.13-.04.26-.13.33-.25l.06-.13c.03-.1.03-.2,0-.29h0Z"/>
      <g>
        <path class="cls-8" d="m679.98,21.18c-.24.38-.48.78-.47,1.2s.34.87.88.96c.48.08.97-.16,1.2-.49s.23-.72.13-1.09c-.11-.38-.35-.77-.79-.96s-1.11-.1-1.31.26"/>
        <path class="cls-8" d="m679.54,20.93c-.2.33-.42.68-.5,1.07s-.04.73.14,1.07c.35.66,1.16.93,1.86.75.76-.2,1.3-.88,1.26-1.68-.04-.69-.4-1.4-1.03-1.72s-1.68-.29-2.08.41c-.13.23-.06.57.18.7s.56.06.7-.18c.07-.12-.07.08.02-.03.04-.04.03.02-.04.03,0,0,.04-.03.05-.03.02-.01.05-.02.07-.04.05-.04-.1.03-.04.02.06,0,.12-.03.17-.05.04,0,.08,0-.04,0,.02,0,.05,0,.07,0,.06,0,.11,0,.17,0,.02,0,.05,0,.07,0-.09.01-.08-.01-.03,0,.06.01.12.03.18.05.05.01.08,0,0,0,.02,0,.06.03.07.04.04.02.11.05.13.08-.05-.08-.03-.03,0,0,.02.02.05.04.07.06.02.02.03.04.05.05.08.09-.06-.09.01.01.06.09.1.19.16.28-.05-.08-.02-.06-.01-.02,0,.02.02.04.02.07.02.07.04.13.05.2,0,.03.03.12,0,0,0,.02,0,.06,0,.08,0,.06,0,.12,0,.18,0,.08.03-.12,0,0,0,.03-.01.05-.02.08s-.02.05-.02.08c-.03.1.04-.06-.01.03-.02.03-.04.06-.05.09-.04.07.06-.07.02-.02-.04.04-.07.08-.11.11-.07.06.01,0,.02-.01-.02.02-.05.04-.08.05-.03.02-.05.03-.08.05s-.12.08-.02.01c-.04.03-.1.04-.15.05-.03,0-.06.01-.1.02-.07.02.12,0,0,0-.05,0-.11,0-.16,0-.1,0,0,0,.02,0-.04,0-.08-.01-.11-.02-.03,0-.06-.02-.09-.03-.07-.02.1.06,0,0-.04-.02-.08-.05-.12-.07-.1-.06.06.06,0,0-.02-.02-.04-.04-.06-.06-.02-.02-.03-.03-.05-.05-.07-.08.05.09,0,0-.01-.02-.06-.13-.08-.14.03.01.03.1.02.03,0-.03-.02-.06-.03-.09,0-.01-.03-.12,0-.02s0-.02,0-.04c0-.04,0-.07,0-.11,0,.09,0,0,.01-.04.02-.07.04-.14.07-.21.03-.09,0-.02,0,0,.02-.04.04-.08.06-.12.08-.15.17-.3.26-.44.14-.23.06-.57-.18-.7s-.55-.06-.7.18h0Z"/>
      </g>
      <path class="cls-8" d="m691.01,33.62c.71,0,.71-1.1,0-1.1s-.71,1.1,0,1.1h0Z"/>
      <path class="cls-8" d="m696.6,33.62c.71,0,.71-1.1,0-1.1s-.71,1.1,0,1.1h0Z"/>
      <path class="cls-8" d="m704.96,22.92c-.89.17-2.05.18-2.66-.61-.22-.28-.35-.66-.29-1.01.07-.4.42-.66.77-.82.95-.42,2.17-.35,3.16-.09.5.13,2.03.63,1.47,1.42-.29.4-.82.59-1.27.73-.64.2-1.3.29-1.97.28-.71,0-.71,1.09,0,1.1.8,0,1.62-.1,2.38-.35.62-.2,1.26-.5,1.68-1.02s.53-1.22.2-1.83c-.31-.57-.89-.92-1.47-1.15-1.35-.55-3.09-.71-4.47-.16-.62.25-1.16.65-1.43,1.28s-.18,1.26.1,1.83c.75,1.55,2.59,1.75,4.1,1.46.7-.13.4-1.2-.29-1.06h0Z"/>
      <g>
        <path class="cls-8" d="m704.28,20.49c-.35.05-.44.51-.44.87,0,.43.03.87.24,1.24s.65.65,1.06.53c.37-.11.6-.51.62-.9s-.12-.76-.27-1.12c-.16-.38-.55-.82-.89-.59"/>
        <path class="cls-8" d="m704.13,19.96c-.7.13-.86.94-.84,1.54.02.74.18,1.48.81,1.94.56.41,1.37.36,1.82-.19.48-.6.45-1.36.18-2.04-.14-.35-.29-.71-.58-.97-.34-.3-.8-.43-1.21-.18-.25.15-.36.5-.2.75s.49.36.75.2c.08-.05-.03,0-.04.01.04-.01.08,0-.05,0,.09,0-.13-.03,0,0,.07.02-.11-.05-.04-.02,0,0,.04.03.04.03,0,0-.09-.08-.03-.02.02.02.05.04.07.07.02.02.03.04.05.06.04.04-.03-.03-.03-.03,0,.02.07.11.09.13.03.04.05.09.07.13,0,0,.03.06,0,.01-.03-.06.02.06.03.07.04.11.09.23.12.35.02.05.03.11.04.16,0,.03.01.06.02.09-.01-.08,0-.03,0,.02,0,.06,0,.11,0,.17,0,.09,0-.02,0-.04,0,.02,0,.05-.01.07,0,.04-.02.08-.03.12-.01.03-.05.07,0,.02.05-.06,0,.01-.02.03s-.03.04-.04.06c-.03.05-.04.01.02-.02-.03.02-.07.07-.09.09-.04.04.04-.03.04-.03-.02,0-.04.03-.06.04,0,0-.06.03-.06.03,0,0,.13-.04.01-.01-.02,0-.1.02-.02,0,.07-.02.02,0,0,0,0,0-.07,0-.08,0,0-.01.14.04.04,0-.02,0-.15-.05-.08-.02s0,0-.02-.01c-.03-.02-.06-.03-.08-.05-.07-.04.02,0,.02.02,0,0-.04-.03-.04-.04-.04-.04-.07-.08-.11-.11-.04-.05.03.03.03.03,0,0-.04-.06-.04-.07-.01-.02-.03-.05-.04-.07-.05-.09.01.05,0-.01-.04-.11-.07-.21-.09-.33,0-.02,0-.05-.01-.07-.02-.08,0,.09,0,.01,0-.07-.01-.14-.02-.21,0-.12-.01-.25,0-.37,0-.05,0-.1,0-.15,0-.07.03,0,0,.04,0-.01,0-.05.01-.07.01-.05.03-.1.04-.15.02-.07-.06.09-.02.04,0,0,.04-.06.04-.07,0,.02-.1.09-.03.04s-.04.03-.05.03c0,0,.05-.03.05-.03-.03.04-.13.04-.01.02.28-.05.47-.41.38-.68-.1-.3-.37-.44-.68-.38h0Z"/>
      </g>
      <path class="cls-8" d="m704.29,25.16v-1.24c0-.14-.06-.29-.16-.39s-.25-.17-.39-.16c-.3.01-.55.24-.55.55v1.24c0,.14.06.29.16.39s.25.17.39.16c.3-.01.55-.24.55-.55h0Z"/>
      <path class="cls-8" d="m706.08,24.74l-.15-.83c-.02-.07-.05-.13-.1-.19-.04-.06-.09-.11-.15-.14-.06-.04-.13-.06-.2-.07-.07-.02-.15-.01-.22,0-.13.04-.26.13-.33.25l-.06.13c-.03.1-.03.2,0,.29l.15.83c.02.07.05.13.1.19.04.06.09.11.15.14.06.04.13.06.2.07.07.02.15.01.22,0,.13-.04.26-.13.33-.25l.06-.13c.03-.1.03-.2,0-.29h0Z"/>
      <g>
        <path class="cls-8" d="m707.17,24.61c.1-.43-.24-.92-.68-.97"/>
        <path class="cls-8" d="m707.71,24.75c.05-.21.05-.4,0-.61-.03-.16-.1-.31-.19-.44-.12-.17-.25-.31-.43-.42-.08-.05-.18-.09-.28-.13-.1-.04-.2-.05-.31-.06-.08,0-.15.01-.21.05-.07.02-.13.06-.18.11-.1.1-.17.25-.16.39s.05.29.16.39l.11.09c.09.05.18.07.28.08h.01s-.1-.01-.15-.02c.06,0,.12.03.17.05l-.13-.06c.06.03.12.06.18.1l-.11-.09c.06.05.11.1.16.16l-.09-.11c.04.06.08.12.11.19l-.06-.13c.03.07.05.14.06.21l-.02-.15c0,.06,0,.13,0,.19l.02-.15s0,.04-.01.06c-.03.14-.02.3.06.42.07.11.2.22.33.25.14.03.3.03.42-.06.12-.08.22-.19.25-.33h0Z"/>
      </g>
      <path class="cls-8" d="m678.03,19.26c-.03.59.12,1.18.4,1.69.14.25.51.36.75.2s.35-.48.2-.75c-.04-.08-.08-.16-.12-.25l.06.13c-.09-.22-.15-.44-.18-.67l.02.15c-.02-.17-.03-.33-.02-.5.01-.29-.26-.56-.55-.55-.31.01-.54.24-.55.55h0Z"/>
      <path class="cls-8" d="m680.11,18.17c-.18.98.11,1.98.8,2.7.2.21.58.22.78,0s.21-.56,0-.78c-.03-.03-.06-.06-.09-.1-.01-.02-.03-.03-.04-.05-.05-.06.01.01.02.03-.05-.08-.11-.15-.16-.24-.05-.08-.08-.16-.12-.24-.03-.06.04.11.02.04,0-.02-.02-.04-.02-.06-.02-.05-.03-.1-.05-.14-.03-.09-.05-.17-.06-.26,0-.02,0-.04-.01-.07-.01-.08,0,.02,0,.05,0-.04,0-.09-.01-.13,0-.09,0-.19,0-.29,0-.04,0-.09.01-.13,0-.07-.02.12,0,.05,0-.03,0-.06.01-.08.03-.15.02-.29-.06-.42-.07-.11-.2-.22-.33-.25-.27-.06-.62.08-.68.38h0Z"/>
      <path class="cls-8" d="m682.13,19.26v1.42c0,.29.25.56.55.55s.55-.24.55-.55v-1.42c0-.29-.25-.56-.55-.55s-.55.24-.55.55h0Z"/>
      <path class="cls-8" d="m702.29,18.48c.04.76.24,1.48.6,2.15.14.25.51.35.75.2.26-.17.34-.48.2-.75-.03-.06-.06-.12-.09-.18-.01-.03-.03-.06-.04-.09,0-.02-.05-.11-.01-.03s-.01-.03-.02-.04c-.01-.03-.02-.05-.03-.08-.02-.06-.05-.13-.07-.19-.08-.25-.14-.5-.17-.76l.02.15c-.02-.12-.03-.25-.03-.37-.02-.29-.24-.57-.55-.55-.29.01-.57.24-.55.55h0Z"/>
      <path class="cls-8" d="m704.04,18.32v1.26c0,.14.06.29.16.39s.25.17.39.16c.3-.01.55-.24.55-.55v-1.26c0-.14-.06-.29-.16-.39s-.25-.17-.39-.16c-.3.01-.55.24-.55.55h0Z"/>
      <path class="cls-8" d="m706.63,18.03c-.31.68-.63,1.37-.94,2.05-.06.14-.1.27-.06.42.04.13.13.27.25.33.24.13.63.08.75-.2.31-.68.63-1.37.94-2.05.06-.14.1-.27.06-.42-.04-.13-.13-.27-.25-.33-.24-.13-.63-.08-.75.2h0Z"/>
      <path class="cls-8" d="m719.61,1.24c-.53,3.71-.1,7.51,1.36,10.98.3.71.61,1.38,1.34,1.72s1.73.33,2.54.26c.87-.08,1.72-.29,2.53-.63.34-.14.8-.29,1.06-.56.3-.31.18-.94.19-1.33.02-.71-1.08-.71-1.1,0-.01.31-.02.63-.03.94l.27-.48c-1.24.72-2.65,1.06-4.08.97-.77-.05-1.23-.25-1.56-.96-.31-.67-.55-1.37-.77-2.07-.85-2.76-1.09-5.69-.68-8.55.1-.69-.96-.99-1.06-.29h0Z"/>
      <path class="cls-8" d="m725.21,2.67c.12,1.18.24,2.36.37,3.54.03.29.23.57.55.55.27-.01.58-.24.55-.55-.12-1.18-.24-2.36-.37-3.54-.03-.29-.23-.57-.55-.55-.27.01-.58.24-.55.55h0Z"/>
      <path class="cls-8" d="m728.17,2.66c0,1.18,0,2.36,0,3.54,0,.29.25.56.55.55s.55-.24.55-.55c0-1.18,0-2.36,0-3.54,0-.29-.25-.56-.55-.55s-.55.24-.55.55h0Z"/>
      <path class="cls-8" d="m733.23,11.91l2.24.06-.48-.83c-.5,1.04-.99,2.08-1.49,3.12-.19.4.04.79.48.83s.89.08,1.33.12l-.48-.27c.35.65.26,1.54-.26,2.07s-1.38.7-2.06.37c-.64-.31-1.2.64-.56.95,1.35.65,3.1.23,3.83-1.14.35-.65.44-1.41.27-2.13-.09-.38-.25-.86-.68-.95-.45-.09-.94-.09-1.4-.13l.48.83c.5-1.04.99-2.08,1.49-3.12.18-.38-.03-.82-.48-.83l-2.24-.06c-.71-.02-.71,1.08,0,1.1h0Z"/>
      <g>
        <path class="cls-6" d="m695.08,96.04c-4.35,5.24-9.78,9.58-15.84,12.68-1.04.53-2.22,1.04-3.34.71-1.69-.5-2.3-2.54-2.59-4.28-1.21-7.08-1.79-14.26-1.72-21.44,0-.44.01-.89.13-1.32.41-1.47,1.99-2.25,3.39-2.85,4.34-1.85,8.67-3.69,13.01-5.54.76,4.99,1.52,9.98,2.28,14.96.46,2.99,1.51,6.65,4.49,7.2"/>
        <path class="cls-8" d="m694.69,95.65c-2.65,3.16-5.65,6.02-8.99,8.45-1.63,1.19-3.33,2.28-5.09,3.26-1.9,1.06-4.7,2.8-6.06.11-.92-1.81-1.01-4.13-1.28-6.1-.34-2.46-.61-4.92-.79-7.4s-.29-4.72-.33-7.09c-.02-1.13-.07-2.28,0-3.4.08-1.41.74-2.19,1.94-2.85,2.1-1.17,4.48-1.97,6.69-2.91,2.54-1.08,5.08-2.16,7.63-3.25l-.81-.33c.78,5.09,1.48,10.2,2.33,15.27.49,2.9,1.56,6.53,4.83,7.27.69.16.99-.91.29-1.06-3.47-.78-3.89-5.38-4.33-8.26-.69-4.5-1.37-9.01-2.06-13.51-.06-.39-.52-.45-.81-.33-2.54,1.08-5.08,2.16-7.63,3.25-2.3.98-4.87,1.77-7.01,3.09-1.92,1.19-2.18,2.7-2.18,4.83,0,2.77.09,5.55.28,8.32s.45,5.3.81,7.94c.3,2.22.42,4.72,1.35,6.79,2.09,4.68,7.37.91,10.22-.91,4.44-2.83,8.41-6.35,11.79-10.38.45-.54-.32-1.32-.78-.78h0Z"/>
      </g>
      <g>
        <g>
          <path class="cls-2" d="m127.42,88.87c4.01-4.14,7.25-8.8,9.45-13.53l.65-.26,8.09,3.95.19.71c-2.65,5.24-6.08,10.36-9.97,14.5h-.71l-7.64-4.79-.06-.58Zm23.11-37.93l.52-.45h9.26l.52.52v10.88h10.88l8.61-.19.52.45v8.16l-.45.52-8.48-.19h-11.07v12.82l.19,8.61c.19,7.77-2.98,9.9-13.2,10.42-1.29,0-1.42-.06-2.01-1.17l-4.4-8.48c8.67,0,9.13-.19,9.13-4.14v-18.06h-10.42l-9.26.19-.45-.52v-8.22l.58-.39,8.8.19h10.75v-10.94Zm32.95,37.48l-7.57,5.7h-.65c-3.43-5.7-7.12-10.23-11-13.66v-.58l7.06-5.11h.65c4.79,4.08,9.06,8.67,11.65,13.01l-.13.65Zm.13-35.47c0,3.56-2.98,6.54-6.54,6.54s-6.6-2.98-6.6-6.54,2.98-6.6,6.6-6.6,6.54,2.98,6.54,6.6Zm-9.51,0c0,1.62,1.36,2.91,2.98,2.91s2.91-1.29,2.91-2.91-1.29-2.98-2.91-2.98-2.98,1.29-2.98,2.98Z"/>
          <path class="cls-2" d="m235.2,80.97h-28.93l-9.64.19-.45-.52v-9.26l.58-.39,9.26.19h28.87l9.97-.19.52.45v9.19l-.45.52-9.71-.19Z"/>
          <path class="cls-2" d="m275.01,77.28l.32,24.73h-11.26l.32-24.86v-27.9l.52-.45h9.58l.52.52v21.62l5.57-6.21.65-.06c5.37,2.98,9.39,5.5,14.56,9.9l-.07.65-6.28,7.83-.65.06c-4.34-3.95-8.61-7.25-13.79-10.16v4.34Z"/>
          <path class="cls-2" d="m308.35,73.27v-8.48l.58-.39,8.87.19h24.86l9.06-.19.45.52c-2.27,20.52-12.04,31.39-30.03,37.61-.58.19-1.04.32-1.36.32-.52,0-.91-.19-1.49-.71l-7.31-6.08c14.89-4.53,24.6-11.33,27.45-22.46h-21.68l-8.93.19-.45-.52Zm29.06-13.59h-14.95l-7.9.19-.45-.52v-8.35l.58-.39,7.83.19h14.63l8.93-.19.52.45v8.29l-.45.52-8.74-.19Z"/>
          <path class="cls-2" d="m365.38,62.2l6.28-7.06.65-.13c3.88,1.94,9.06,5.37,13.14,8.93v.65l-6.73,7.83-.58.07c-3.88-3.75-8.22-6.93-12.69-9.71l-.07-.58Zm50.16,5.37c.19.52.26.91.26,1.23,0,.45-.19.71-.65,1.17-11.52,12.69-25.57,22.14-42.66,29.9l-.65-.13-5.83-8.74.13-.65c16.05-6.15,32.62-17.54,45.83-32.95l3.56,10.16Z"/>
          <path class="cls-2" d="m444.48,77.41l.32,24.73h-11.26l.32-24.86v-27.9l.52-.45h9.58l.52.52v21.62l5.57-6.21.65-.07c5.37,2.98,9.39,5.5,14.56,9.9l-.06.65-6.28,7.83-.65.06c-4.34-3.95-8.61-7.25-13.79-10.16v4.34Zm10.81-25.18l3.37-2.4.65-.06c2.4,2.01,4.66,4.27,6.6,6.86l-.06.65-3.56,2.52h-.65c-2.01-2.65-3.82-4.79-6.41-6.99l.07-.58Zm6.08-4.08l3.3-2.39.65-.07c2.4,2.01,4.47,4.08,6.41,6.67l-.06.65-3.37,2.46h-.65c-2.01-2.65-3.75-4.53-6.34-6.73l.06-.58Z"/>
          <path class="cls-2" d="m509.28,95.4c13.92-2.33,20.19-9,20.19-16.76,0-9.84-5.44-16.05-12.04-17.41-1.29,12.23-5.5,23.62-9.97,30.16-3.5,5.11-7.12,6.99-12.17,6.99-3.88,0-6.67-1.88-9.13-5.76-1.88-2.91-3.17-6.47-3.17-11.72,0-15.66,11.72-28.35,29.52-28.35s27.12,11.85,27.12,26.21c0,11.78-8.29,20.71-22.01,23.95-.91.06-1.36.06-2.07-.65l-6.28-6.67Zm-17.35-14.5c0,2.14.39,3.69,1.1,4.92.71,1.29,1.62,2.14,2.65,2.14,1.49,0,3.37-1.49,5.11-4.98,3.62-7.25,5.44-14.11,6.41-22.01-9.45,1.62-15.28,9.97-15.28,19.94Z"/>
          <path class="cls-2" d="m568.77,101.16v4.98h-9.77l.32-28.42v-17.8l-.19-11.07.52-.39,10.94.19h23.37l10.88-.19.52.39-.19,11.07v16.83l.32,29.39h-10.03v-4.98h-26.67Zm26.67-44.34h-26.67v13.72h26.67v-13.72Zm0,21.81h-26.67v14.24h26.67v-14.24Z"/>
          <path class="cls-2" d="m648.33,44.72l.32-.39h8.74l.39.39v9.13h6.47l-3.24-1.42c1.88-2.78,3.11-4.92,4.4-7.57l.65-.19,7.9,2.98.13.65c-1.49,2.26-2.65,3.95-3.88,5.57h.91l10.88-.19.45.45-.19,4.92v3.04l.32,7.25h-9.51v-8.16h-39.42v8.16h-9.32l.32-7.25v-3.04l-.19-4.92.45-.45,10.87.19h.97c-1.42-2.07-3.04-3.95-4.4-5.24l.13-.65,6.6-3.3h.65c1.55,1.23,4.01,3.82,5.57,6.15l-.26.58-4.98,2.46h8.29v-9.13Zm-3.11,35.41l-9.06.19-.45-.45.19-6.54v-3.75l-.19-5.24.45-.45,9.38.19h15.54l9.39-.19.45.45-.19,5.76v3.24l.19,6.54-.45.45-8.74-.19h-3.88v3.24h11.07l9.64-.19.45.45-.19,6.34v1.36l.19,6.6c0,4.79-1.29,6.54-12.04,6.54-.78,0-1.1-.26-1.36-.91l-2.46-6.86c2.07,0,3.11,0,4.85-.13,1.04-.06,1.42-.32,1.42-1.42v-4.34h-11.59v1.68l.32,13.92h-10.16l.32-13.92v-1.68h-10.74v4.08l.32,8.74h-9.71l.32-8.74v-4.92l-.19-6.34.45-.45,9.64.19h9.9v-3.24h-3.11Zm16.63-6.15v-3.69h-17.41v3.69h17.41Z"/>
        </g>
        <g>
          <path class="cls-3" d="m127.42,88.87c4.01-4.14,7.25-8.8,9.45-13.53l.65-.26,8.09,3.95.19.71c-2.65,5.24-6.08,10.36-9.97,14.5h-.71l-7.64-4.79-.06-.58Zm23.11-37.93l.52-.45h9.26l.52.52v10.88h10.88l8.61-.19.52.45v8.16l-.45.52-8.48-.19h-11.07v12.82l.19,8.61c.19,7.77-2.98,9.9-13.2,10.42-1.29,0-1.42-.06-2.01-1.17l-4.4-8.48c8.67,0,9.13-.19,9.13-4.14v-18.06h-10.42l-9.26.19-.45-.52v-8.22l.58-.39,8.8.19h10.75v-10.94Zm32.95,37.48l-7.57,5.7h-.65c-3.43-5.7-7.12-10.23-11-13.66v-.58l7.06-5.11h.65c4.79,4.08,9.06,8.67,11.65,13.01l-.13.65Zm.13-35.47c0,3.56-2.98,6.54-6.54,6.54s-6.6-2.98-6.6-6.54,2.98-6.6,6.6-6.6,6.54,2.98,6.54,6.6Zm-9.51,0c0,1.62,1.36,2.91,2.98,2.91s2.91-1.29,2.91-2.91-1.29-2.98-2.91-2.98-2.98,1.29-2.98,2.98Z"/>
          <path class="cls-3" d="m235.2,80.97h-28.93l-9.64.19-.45-.52v-9.26l.58-.39,9.26.19h28.87l9.97-.19.52.45v9.19l-.45.52-9.71-.19Z"/>
          <path class="cls-3" d="m275.01,77.28l.32,24.73h-11.26l.32-24.86v-27.9l.52-.45h9.58l.52.52v21.62l5.57-6.21.65-.06c5.37,2.98,9.39,5.5,14.56,9.9l-.07.65-6.28,7.83-.65.06c-4.34-3.95-8.61-7.25-13.79-10.16v4.34Z"/>
          <path class="cls-3" d="m308.35,73.27v-8.48l.58-.39,8.87.19h24.86l9.06-.19.45.52c-2.27,20.52-12.04,31.39-30.03,37.61-.58.19-1.04.32-1.36.32-.52,0-.91-.19-1.49-.71l-7.31-6.08c14.89-4.53,24.6-11.33,27.45-22.46h-21.68l-8.93.19-.45-.52Zm29.06-13.59h-14.95l-7.9.19-.45-.52v-8.35l.58-.39,7.83.19h14.63l8.93-.19.52.45v8.29l-.45.52-8.74-.19Z"/>
          <path class="cls-3" d="m365.38,62.2l6.28-7.06.65-.13c3.88,1.94,9.06,5.37,13.14,8.93v.65l-6.73,7.83-.58.07c-3.88-3.75-8.22-6.93-12.69-9.71l-.07-.58Zm50.16,5.37c.19.52.26.91.26,1.23,0,.45-.19.71-.65,1.17-11.52,12.69-25.57,22.14-42.66,29.9l-.65-.13-5.83-8.74.13-.65c16.05-6.15,32.62-17.54,45.83-32.95l3.56,10.16Z"/>
          <path class="cls-3" d="m444.48,77.41l.32,24.73h-11.26l.32-24.86v-27.9l.52-.45h9.58l.52.52v21.62l5.57-6.21.65-.07c5.37,2.98,9.39,5.5,14.56,9.9l-.06.65-6.28,7.83-.65.06c-4.34-3.95-8.61-7.25-13.79-10.16v4.34Zm10.81-25.18l3.37-2.4.65-.06c2.4,2.01,4.66,4.27,6.6,6.86l-.06.65-3.56,2.52h-.65c-2.01-2.65-3.82-4.79-6.41-6.99l.07-.58Zm6.08-4.08l3.3-2.39.65-.07c2.4,2.01,4.47,4.08,6.41,6.67l-.06.65-3.37,2.46h-.65c-2.01-2.65-3.75-4.53-6.34-6.73l.06-.58Z"/>
          <path class="cls-3" d="m509.28,95.4c13.92-2.33,20.19-9,20.19-16.76,0-9.84-5.44-16.05-12.04-17.41-1.29,12.23-5.5,23.62-9.97,30.16-3.5,5.11-7.12,6.99-12.17,6.99-3.88,0-6.67-1.88-9.13-5.76-1.88-2.91-3.17-6.47-3.17-11.72,0-15.66,11.72-28.35,29.52-28.35s27.12,11.85,27.12,26.21c0,11.78-8.29,20.71-22.01,23.95-.91.06-1.36.06-2.07-.65l-6.28-6.67Zm-17.35-14.5c0,2.14.39,3.69,1.1,4.92.71,1.29,1.62,2.14,2.65,2.14,1.49,0,3.37-1.49,5.11-4.98,3.62-7.25,5.44-14.11,6.41-22.01-9.45,1.62-15.28,9.97-15.28,19.94Z"/>
          <path class="cls-3" d="m568.77,101.16v4.98h-9.77l.32-28.42v-17.8l-.19-11.07.52-.39,10.94.19h23.37l10.88-.19.52.39-.19,11.07v16.83l.32,29.39h-10.03v-4.98h-26.67Zm26.67-44.34h-26.67v13.72h26.67v-13.72Zm0,21.81h-26.67v14.24h26.67v-14.24Z"/>
          <path class="cls-3" d="m648.33,44.72l.32-.39h8.74l.39.39v9.13h6.47l-3.24-1.42c1.88-2.78,3.11-4.92,4.4-7.57l.65-.19,7.9,2.98.13.65c-1.49,2.26-2.65,3.95-3.88,5.57h.91l10.88-.19.45.45-.19,4.92v3.04l.32,7.25h-9.51v-8.16h-39.42v8.16h-9.32l.32-7.25v-3.04l-.19-4.92.45-.45,10.87.19h.97c-1.42-2.07-3.04-3.95-4.4-5.24l.13-.65,6.6-3.3h.65c1.55,1.23,4.01,3.82,5.57,6.15l-.26.58-4.98,2.46h8.29v-9.13Zm-3.11,35.41l-9.06.19-.45-.45.19-6.54v-3.75l-.19-5.24.45-.45,9.38.19h15.54l9.39-.19.45.45-.19,5.76v3.24l.19,6.54-.45.45-8.74-.19h-3.88v3.24h11.07l9.64-.19.45.45-.19,6.34v1.36l.19,6.6c0,4.79-1.29,6.54-12.04,6.54-.78,0-1.1-.26-1.36-.91l-2.46-6.86c2.07,0,3.11,0,4.85-.13,1.04-.06,1.42-.32,1.42-1.42v-4.34h-11.59v1.68l.32,13.92h-10.16l.32-13.92v-1.68h-10.74v4.08l.32,8.74h-9.71l.32-8.74v-4.92l-.19-6.34.45-.45,9.64.19h9.9v-3.24h-3.11Zm16.63-6.15v-3.69h-17.41v3.69h17.41Z"/>
        </g>
        <g>
          <path class="cls-3" d="m127.42,88.87c4.01-4.14,7.25-8.8,9.45-13.53l.65-.26,8.09,3.95.19.71c-2.65,5.24-6.08,10.36-9.97,14.5h-.71l-7.64-4.79-.06-.58Zm23.11-37.93l.52-.45h9.26l.52.52v10.88h10.88l8.61-.19.52.45v8.16l-.45.52-8.48-.19h-11.07v12.82l.19,8.61c.19,7.77-2.98,9.9-13.2,10.42-1.29,0-1.42-.06-2.01-1.17l-4.4-8.48c8.67,0,9.13-.19,9.13-4.14v-18.06h-10.42l-9.26.19-.45-.52v-8.22l.58-.39,8.8.19h10.75v-10.94Zm32.95,37.48l-7.57,5.7h-.65c-3.43-5.7-7.12-10.23-11-13.66v-.58l7.06-5.11h.65c4.79,4.08,9.06,8.67,11.65,13.01l-.13.65Zm.13-35.47c0,3.56-2.98,6.54-6.54,6.54s-6.6-2.98-6.6-6.54,2.98-6.6,6.6-6.6,6.54,2.98,6.54,6.6Zm-9.51,0c0,1.62,1.36,2.91,2.98,2.91s2.91-1.29,2.91-2.91-1.29-2.98-2.91-2.98-2.98,1.29-2.98,2.98Z"/>
          <path class="cls-3" d="m235.2,80.97h-28.93l-9.64.19-.45-.52v-9.26l.58-.39,9.26.19h28.87l9.97-.19.52.45v9.19l-.45.52-9.71-.19Z"/>
          <path class="cls-3" d="m275.01,77.28l.32,24.73h-11.26l.32-24.86v-27.9l.52-.45h9.58l.52.52v21.62l5.57-6.21.65-.06c5.37,2.98,9.39,5.5,14.56,9.9l-.07.65-6.28,7.83-.65.06c-4.34-3.95-8.61-7.25-13.79-10.16v4.34Z"/>
          <path class="cls-3" d="m308.35,73.27v-8.48l.58-.39,8.87.19h24.86l9.06-.19.45.52c-2.27,20.52-12.04,31.39-30.03,37.61-.58.19-1.04.32-1.36.32-.52,0-.91-.19-1.49-.71l-7.31-6.08c14.89-4.53,24.6-11.33,27.45-22.46h-21.68l-8.93.19-.45-.52Zm29.06-13.59h-14.95l-7.9.19-.45-.52v-8.35l.58-.39,7.83.19h14.63l8.93-.19.52.45v8.29l-.45.52-8.74-.19Z"/>
          <path class="cls-3" d="m365.38,62.2l6.28-7.06.65-.13c3.88,1.94,9.06,5.37,13.14,8.93v.65l-6.73,7.83-.58.07c-3.88-3.75-8.22-6.93-12.69-9.71l-.07-.58Zm50.16,5.37c.19.52.26.91.26,1.23,0,.45-.19.71-.65,1.17-11.52,12.69-25.57,22.14-42.66,29.9l-.65-.13-5.83-8.74.13-.65c16.05-6.15,32.62-17.54,45.83-32.95l3.56,10.16Z"/>
          <path class="cls-3" d="m444.48,77.41l.32,24.73h-11.26l.32-24.86v-27.9l.52-.45h9.58l.52.52v21.62l5.57-6.21.65-.07c5.37,2.98,9.39,5.5,14.56,9.9l-.06.65-6.28,7.83-.65.06c-4.34-3.95-8.61-7.25-13.79-10.16v4.34Zm10.81-25.18l3.37-2.4.65-.06c2.4,2.01,4.66,4.27,6.6,6.86l-.06.65-3.56,2.52h-.65c-2.01-2.65-3.82-4.79-6.41-6.99l.07-.58Zm6.08-4.08l3.3-2.39.65-.07c2.4,2.01,4.47,4.08,6.41,6.67l-.06.65-3.37,2.46h-.65c-2.01-2.65-3.75-4.53-6.34-6.73l.06-.58Z"/>
          <path class="cls-3" d="m509.28,95.4c13.92-2.33,20.19-9,20.19-16.76,0-9.84-5.44-16.05-12.04-17.41-1.29,12.23-5.5,23.62-9.97,30.16-3.5,5.11-7.12,6.99-12.17,6.99-3.88,0-6.67-1.88-9.13-5.76-1.88-2.91-3.17-6.47-3.17-11.72,0-15.66,11.72-28.35,29.52-28.35s27.12,11.85,27.12,26.21c0,11.78-8.29,20.71-22.01,23.95-.91.06-1.36.06-2.07-.65l-6.28-6.67Zm-17.35-14.5c0,2.14.39,3.69,1.1,4.92.71,1.29,1.62,2.14,2.65,2.14,1.49,0,3.37-1.49,5.11-4.98,3.62-7.25,5.44-14.11,6.41-22.01-9.45,1.62-15.28,9.97-15.28,19.94Z"/>
          <path class="cls-3" d="m568.77,101.16v4.98h-9.77l.32-28.42v-17.8l-.19-11.07.52-.39,10.94.19h23.37l10.88-.19.52.39-.19,11.07v16.83l.32,29.39h-10.03v-4.98h-26.67Zm26.67-44.34h-26.67v13.72h26.67v-13.72Zm0,21.81h-26.67v14.24h26.67v-14.24Z"/>
          <path class="cls-3" d="m648.33,44.72l.32-.39h8.74l.39.39v9.13h6.47l-3.24-1.42c1.88-2.78,3.11-4.92,4.4-7.57l.65-.19,7.9,2.98.13.65c-1.49,2.26-2.65,3.95-3.88,5.57h.91l10.88-.19.45.45-.19,4.92v3.04l.32,7.25h-9.51v-8.16h-39.42v8.16h-9.32l.32-7.25v-3.04l-.19-4.92.45-.45,10.87.19h.97c-1.42-2.07-3.04-3.95-4.4-5.24l.13-.65,6.6-3.3h.65c1.55,1.23,4.01,3.82,5.57,6.15l-.26.58-4.98,2.46h8.29v-9.13Zm-3.11,35.41l-9.06.19-.45-.45.19-6.54v-3.75l-.19-5.24.45-.45,9.38.19h15.54l9.39-.19.45.45-.19,5.76v3.24l.19,6.54-.45.45-8.74-.19h-3.88v3.24h11.07l9.64-.19.45.45-.19,6.34v1.36l.19,6.6c0,4.79-1.29,6.54-12.04,6.54-.78,0-1.1-.26-1.36-.91l-2.46-6.86c2.07,0,3.11,0,4.85-.13,1.04-.06,1.42-.32,1.42-1.42v-4.34h-11.59v1.68l.32,13.92h-10.16l.32-13.92v-1.68h-10.74v4.08l.32,8.74h-9.71l.32-8.74v-4.92l-.19-6.34.45-.45,9.64.19h9.9v-3.24h-3.11Zm16.63-6.15v-3.69h-17.41v3.69h17.41Z"/>
        </g>
      </g>
      <g class="cls-4">
        <path class="cls-7" d="m684.31,2.2c-6.89,0-13.02,6.31-16.62,11.67-4.42,6.59-5.85,14.15-3.9,21.85.35,1.38,2.48.79,2.13-.59-1.67-6.6-.67-12.99,2.84-18.82,3.06-5.09,9.07-11.9,15.55-11.9,1.42,0,1.42-2.21,0-2.21h0Z"/>
      </g>
      <g class="cls-4">
        <path class="cls-7" d="m684.73,46.33c5.52,3.59,12.42,3.66,18.04.24,1.21-.74.1-2.65-1.11-1.91-4.98,3.04-10.92,2.94-15.81-.24-1.19-.78-2.3,1.13-1.11,1.91h0Z"/>
      </g>
      <g class="cls-4">
        <path class="cls-7" d="m687.16,75.67c.24,7.87.92,15.77,5.97,22.17.88,1.11,2.43-.46,1.56-1.56-4.64-5.89-5.1-13.41-5.32-20.61-.04-1.42-2.25-1.42-2.21,0h0Z"/>
      </g>
      <g class="cls-4">
        <path class="cls-7" d="m693.89,65.14c-.48,5.53.09,10.92,1.68,16.23.41,1.36,2.54.78,2.13-.59-1.53-5.13-2.06-10.32-1.6-15.65.12-1.41-2.09-1.41-2.21,0h0Z"/>
      </g>
    </g>
  </g>
</svg>