<svg xmlns="http://www.w3.org/2000/svg" viewBox="0 0 39.61 31.92"><defs><style>.cls-1{fill:#f7db52;}.cls-2{fill:#171716;}.cls-3{fill:#231f20;}</style></defs><g id="Layer_2" data-name="Layer 2"><g id="Layer_1-2" data-name="Layer 1"><path class="cls-1" d="M.8,30.63A102.74,102.74,0,0,1,10,9.25c2.09,3.53,4,7.15,5.73,10.82a37.33,37.33,0,0,1,6.2-12.58l4,11.28A42.46,42.46,0,0,1,32.34,7.32l4.84,13.26a43.92,43.92,0,0,1,2.39,8.13,1.18,1.18,0,0,1-.21,1.09,1.77,1.77,0,0,1-1.11.31c-9.53.58-19.07,1.16-28.61,1.68-3.23.17-6.56.33-9.64-.54"/><path class="cls-2" d="M19.68,21.2a11.35,11.35,0,0,0-3.15,2.18A5.17,5.17,0,0,0,19,23a18.75,18.75,0,0,1,.06,3.35,2.67,2.67,0,0,0-1.19.16c-.09.32.22.65.58.76a3,3,0,0,0,1.15,0l1.25-.15a1.45,1.45,0,0,0,.81-.26.36.36,0,0,0-.15-.61,2.39,2.39,0,0,0-.52.1c-.48,0-.68-.51-.7-.92l-.27-3.89a.64.64,0,0,0-.2-.52c-.16-.13-.5-.06-.49.12"/><path class="cls-3" d="M19.41,20.74A13.1,13.1,0,0,0,16.16,23a.52.52,0,0,0,.37.89,6.09,6.09,0,0,0,2.64-.36L18.51,23a22,22,0,0,1,0,3.35l.53-.52a4,4,0,0,0-1.33.18.51.51,0,0,0-.38.5c.16,1.76,2.26,1.36,3.5,1.17.73-.12,2.1-.76,1.19-1.68-.65-.64-1.16.29-1.26-1-.09-1.13-.06-2.3-.23-3.41-.13-.84-1-1.66-1.68-.66-.36.57.55,1.1.91.53-.51.81-.13,2.36-.07,3.29a3.09,3.09,0,0,0,.38,1.72,1,1,0,0,0,.9.45c.21,0,.22-.08,0-.3l-.57.08c-.3,0-2,.36-2-.17l-.39.51a2.1,2.1,0,0,1,1.05-.14.54.54,0,0,0,.52-.53A22,22,0,0,0,19.56,23a.54.54,0,0,0-.67-.51,5.42,5.42,0,0,1-2.36.33l.37.9a12.22,12.22,0,0,1,3-2.1c.61-.3.08-1.21-.53-.91Z"/><path class="cls-3" d="M2,6l3.7,3.61c.48.47,1.23-.27.74-.74L2.73,5.26C2.24,4.79,1.5,5.53,2,6Z"/><path class="cls-3" d="M18.61,1.26V4.85a.53.53,0,0,0,1.05,0V1.26a.53.53,0,0,0-1.05,0Z"/><path class="cls-3" d="M35.57.36,34.11,4.73c-.21.64.8.91,1,.28L36.58.64c.21-.64-.8-.92-1-.28Z"/></g></g></svg>