<svg xmlns="http://www.w3.org/2000/svg" viewBox="0 0 86.48 31.15"><defs><style>.cls-1{fill:#52bcbc;opacity:0.76;}.cls-2{opacity:0.85;}.cls-3{fill:#f2d68b;}.cls-4{fill:#fff;}</style></defs><title>logo-sky</title><g id="Layer_2" data-name="Layer 2"><g id="Layer_1-2" data-name="Layer 1"><path class="cls-1" d="M17,14.55c0,2.24,1.29,1.69,1.29,2.71,0,1.53-3.37,1.5-4.35,1.5-.82,0-4,0-4-1.34,0-.76.74-.74.95-2.08A14.53,14.53,0,0,0,11,12.71c0-1.32,0-3.8-1.9-3.8-1.61,0-1.55,1.37-1.55,2.56v3.06c0,2.19,1.05,1.74,1.05,2.69,0,1.53-3,1.56-4,1.56C.87,18.77,0,18,0,17.16c0-1.05,1-.58,1.48-2.29A39,39,0,0,0,1.79,8.7c0-1.19-.08-2.4-.11-3.59C1.64,3.24.05,3.9.05,2.66.05.55,6.91,0,6.93,0c.79,0,.84.24.84,1L7.62,6c0,.5-.05,1.35.63,1.35S9.39,5,12.34,5c4.85,0,4.51,4.56,4.54,5.3Z"/><path class="cls-1" d="M33.91,12.18c0,4.64,1.58,2.11,1.58,3.53s-2.06,3.14-4,3.14c-2.08,0-2.14-1.34-2.8-1.34-.32,0-.66.34-1.24.66a4.82,4.82,0,0,1-2.58.69c-2.19,0-4.38-1.16-4.38-3.77,0-1.87,1.79-4.19,6.43-4.19.82,0,1.19.05,1.19-.9s0-2.69-1.24-2.69c-1.58,0-1.74,2.85-4.09,2.85A1.42,1.42,0,0,1,21.34,8.7c0-2.24,4.46-3.69,7-3.69,1.5,0,5.62.58,5.62,4.53ZM26,14.5c0,.69.37,1.42,1.13,1.42,1,0,1.08-1.08,1.08-1.87,0-.58,0-1.24-.71-1.24A1.61,1.61,0,0,0,26,14.5Z"/><path class="cls-1" d="M45.86,12.92c0,1.73.72,2.14,1.42,2.14s1.26-.59,1.72-.59.87.72.87,1.18c0,1.7-2.94,3.19-5.54,3.19a4.34,4.34,0,0,1-4.61-4.66V8.88c0-.47,0-.65-.13-.72a3.33,3.33,0,0,0-1,0c-.67,0-1,0-1.13-.1s-.13-.44-.13-1c0-.36-.07-.64.24-.85l5.87-3.73c.6-.36.57-.28,1.34-.28,1,0,1.08-.1,1.08,1.08a7.89,7.89,0,0,0,.08,1.91c.08.21.26.21.93.21h1.8c1.11,0,1.11.08,1.11,1.24,0,1.47-.18,1.57-1.18,1.57H46.81c-.9,0-1,0-1,1Z"/><path class="cls-1" d="M60,5c4,0,6,2.19,6,4a2.54,2.54,0,0,1-2.58,2.61c-2.85,0-1.53-3.27-3.61-3.27-1.16,0-1.79,1.19-1.79,2.24a3.8,3.8,0,0,0,3.53,3.93c1.66,0,2.21-.69,2.77-.69a1.38,1.38,0,0,1,1.19,1.42c0,1.56-2.37,3.56-6.06,3.56a7,7,0,0,1-7.2-7C52.31,8.09,55.6,5,60,5Z"/><path class="cls-1" d="M85.19,14.55c0,2.24,1.29,1.69,1.29,2.71,0,1.53-3.37,1.5-4.35,1.5-.82,0-4,0-4-1.34,0-.76.74-.74.95-2.08a14.51,14.51,0,0,0,.18-2.64c0-1.32,0-3.8-1.9-3.8-1.61,0-1.56,1.37-1.56,2.56v3.06c0,2.19,1.05,1.74,1.05,2.69,0,1.53-3,1.56-4,1.56-3.77,0-4.64-.79-4.64-1.61,0-1.05,1-.58,1.48-2.29A39.14,39.14,0,0,0,70,8.7c0-1.19-.08-2.4-.1-3.59-.05-1.87-1.64-1.21-1.64-2.45C68.26.55,75.12,0,75.14,0c.79,0,.85.24.85,1l-.16,5c0,.5-.05,1.35.63,1.35S77.6,5,80.55,5c4.85,0,4.51,4.56,4.54,5.3Z"/><path class="cls-1" d="M18.83,24.1a3.56,3.56,0,0,0,.55.09.85.85,0,0,0,.36-.09A1.18,1.18,0,0,1,20.1,24c.61,0,1.23,1.22,1.23,1.77a.64.64,0,0,1-.65.63c-.76,0-1.19-1.05-1.77-1.05a.48.48,0,0,0-.48.45c0,.85,2.93,1,2.93,3.08A2.37,2.37,0,0,1,18.75,31a7,7,0,0,1-1-.09l-.71-.08-.27,0-.25,0a.64.64,0,0,1-.59-.25A3,3,0,0,1,15.29,29c0-.35.12-.63.51-.63.59,0,1.12,1.32,1.86,1.32.27,0,.52-.13.52-.43,0-.79-2.61-.88-2.61-3.08A2.24,2.24,0,0,1,18,24,5.26,5.26,0,0,1,18.83,24.1Z"/><path class="cls-1" d="M26.93,28.34c0,.82.34,1,.67,1s.6-.28.82-.28.42.34.42.56c0,.81-1.39,1.52-2.63,1.52A2.06,2.06,0,0,1,24,28.94V26.42c0-.22,0-.31-.06-.34a1.59,1.59,0,0,0-.48,0c-.32,0-.48,0-.54,0s-.06-.21-.06-.49,0-.31.11-.4l2.79-1.77c.28-.17.27-.13.64-.13s.51,0,.51.51a3.76,3.76,0,0,0,0,.91c0,.1.12.1.44.1h.86c.53,0,.53,0,.53.59s-.09.75-.56.75h-.84c-.43,0-.45,0-.45.45Z"/><path class="cls-1" d="M33.92,27.93c0,.49,0,1.26.7,1.26.89,0,.76-1.16.76-1.75a9.66,9.66,0,0,0,0-1.33c-.1-.62-.7-.41-.7-.92,0-.73,2.48-.85,2.95-.85s.63.26.63.69,0,.78,0,1.17v2.48c0,.74.68.39.68,1,0,.84-2.18,1.07-2.86,1.07-.95,0-.32-.74-.81-.74-.13,0-.33.19-.63.37a2.25,2.25,0,0,1-1.23.37c-2.34,0-2.15-1.85-2.15-3.7s-.85-1.06-.85-1.87,3.11-.83,3.2-.83c.35,0,.38.16.38.47Z"/><path class="cls-1" d="M47,29c0,.77.58.52.58,1.09,0,.83-2.4.89-2.52.89-.56,0-.16-.6-.53-.6-.1,0-.26.15-.52.32a2,2,0,0,1-1.07.32,2.89,2.89,0,0,1,.14-5.76,3.47,3.47,0,0,1,1.31.33c.16,0,.18-.36.18-.48,0-.68-.8-.32-.8-.91,0-.81,2.8-1,2.83-1,.33,0,.41.23.41.59Zm-3.06-2.55c-.74,0-.87,1.26-.87,1.78s.13,1.41.81,1.41.69-1.35.69-1.83S44.55,26.45,43.91,26.45Z"/><path class="cls-1" d="M53.37,28.63c0,1.36.68.87.68,1.48,0,.79-1.47.79-2,.79-2,0-2.07-.45-2.07-.73s.47-.44.61-.8a7.59,7.59,0,0,0,0-2.51c-.1-.4-.69-.28-.69-.8,0-.82,2.93-1.17,3-1.17.35,0,.36.27.36.51Zm-2.29-4.1c-.48,0-1-.22-1-.79,0-.76,1.52-1.07,2.11-1.07s1.12.15,1.12.73C53.31,24.3,51.74,24.53,51.08,24.53Z"/><path class="cls-1" d="M55.83,27.84c0-1.94,1.7-3,3.49-3a2.89,2.89,0,0,1,3,2.83c0,1.78-1.91,2.86-3.5,2.86A2.7,2.7,0,0,1,55.83,27.84Zm3-1.76a.57.57,0,0,0-.53.65c0,.68.24,2.35,1,2.4.41,0,.5-.32.5-.67S59.59,26.09,58.86,26.09Z"/><g class="cls-2"><rect class="cls-3" x="65.31" y="24.73" width="14.69" height="5.65" rx="2.63" ry="2.63"/></g><path class="cls-4" d="M68.07,28.7h.43v-2h-.43v-.3h1.25v.3h-.43v2h.43V29H68.07Z"/><path class="cls-4" d="M71.19,26.43h.49l1.18,2.16h0l0-.67V26.43h.39V29h-.49l-1.18-2.16h0l0,.67V29h-.39Z"/><path class="cls-4" d="M77.05,28.5A1.19,1.19,0,0,1,76,29c-.89,0-1.17-.69-1.17-1.33,0-1,.64-1.33,1.14-1.33a1.05,1.05,0,0,1,1,.55l-.36.15a.7.7,0,0,0-.6-.39c-.61,0-.73.62-.73,1s.11,1,.73,1a.85.85,0,0,0,.72-.41Z"/></g></g></svg>