<svg xmlns="http://www.w3.org/2000/svg" viewBox="0 0 146.51 112.34"><defs><style>.cls-1,.cls-6{fill:none;}.cls-1,.cls-2,.cls-3,.cls-6{stroke:#231f20;stroke-miterlimit:10;}.cls-1,.cls-2,.cls-3{stroke-width:0.6px;}.cls-2{fill:#f9b19d;}.cls-3,.cls-5{fill:#231f20;}.cls-4{fill:#fff;}.cls-6{stroke-width:0.8px;}.cls-7{opacity:0.14;}.cls-8{fill:#896b4a;}</style></defs><g id="Layer_2" data-name="Layer 2"><g id="Layer_1-2" data-name="Layer 1"><path class="cls-1" d="M23.91,80.15Q12.66,61.69,2.19,42.75"/><path class="cls-1" d="M28.67,93.92Q17.75,76.72,7.57,59.19"/><path class="cls-2" d="M31,61.82,21,40.43c-2.16-4.64-4.35-9.35-5.2-14.4-.47-2.76-.54-5.63-1.68-8.19a14,14,0,0,0-1.75,6.32,26.42,26.42,0,0,0-6.18-7.3,11,11,0,0,0,2.13,8.25L2.19,21.45A6.39,6.39,0,0,0,6.8,27.08a22.74,22.74,0,0,1-6.11.26,9.27,9.27,0,0,0,7.79,3.25,3.48,3.48,0,0,1,1.64.06,3,3,0,0,1,1.37,1.69C16,42.5,18.18,53.57,22.33,63.89s11,20.37,21.26,24.56c1.61.66,3.39,1.24,4.4,2.66A8,8,0,0,1,49.05,94l3.39,14.8a1.94,1.94,0,0,0,.5,1.08,1.92,1.92,0,0,0,1.35.32l14-.15a.85.85,0,0,0,1-1.21L65.4,87.42c7.8,4.16,13.47,11.81,21.65,15.14a4.61,4.61,0,0,1,2,1.18,5.87,5.87,0,0,1,.73,2.86c.15,1,.73,2.11,1.73,2.15a24.92,24.92,0,0,0,1.2-4.66l.1.27a18.82,18.82,0,0,0,3,2.86,4.52,4.52,0,0,0-1.2-3,35.32,35.32,0,0,0-8.73-8.56c-3.57-2.37-7.69-3.89-11-6.58-1-.78-1.87-1.65-2.77-2.52L66.37,81.1"/><path class="cls-2" d="M58.42,81.13c-4.31.84-8.69,1.68-13.06,1.25s-8.79-2.33-11.27-6c-1.94-2.83-2.49-6.38-2.7-9.81a62.51,62.51,0,0,1,.14-9.38,15.09,15.09,0,0,1,1.7-6.45c1.46-2.46,4.06-4,6.72-5.1,9.25-3.66,19.91-2,28.94,2.23A23.18,23.18,0,0,1,75.34,52c5.73,5.53,5.73,15.5.88,21.82s-13.51,9-21.39,7.85"/><path class="cls-3" d="M55.2,50a1.63,1.63,0,0,0,1.62,2.17A10.19,10.19,0,0,1,58,51.88a1.4,1.4,0,0,0,.58,0c.27-.14.3-.51.29-.81l0-1.13a.51.51,0,0,0-.09-.35.51.51,0,0,0-.36-.12,14.15,14.15,0,0,0-3.12.19"/><path class="cls-3" d="M37.16,50.59l0,2.41a.62.62,0,0,0,.07.36c.15.23.49.17.74.09l2.46-.77a10,10,0,0,0-.23-2.25.57.57,0,0,0-.25-.44.67.67,0,0,0-.37,0l-2.39.52"/><path class="cls-1" d="M38.46,53.52v2.61"/><path class="cls-1" d="M40,53.11a9.31,9.31,0,0,1,2.17,1.62"/><path class="cls-1" d="M57.36,52.22a3.89,3.89,0,0,1-.42,2"/><path class="cls-1" d="M58.36,52.19A2,2,0,0,1,60,53"/><path class="cls-1" d="M55.09,47.81,57.54,46"/><path class="cls-1" d="M42,48.65A9.41,9.41,0,0,1,40,47.28"/><path class="cls-4" d="M44,61.33a95.29,95.29,0,0,0,11.47-2.14,19,19,0,0,0,.47,5.87A45.46,45.46,0,0,1,44.2,68a1.16,1.16,0,0,1-.69-.06,1.23,1.23,0,0,1-.46-.52,42.54,42.54,0,0,1-2.72-5.8l4.76,0"/><path class="cls-5" d="M44,61.71a98.83,98.83,0,0,0,11.56-2.16l-.47-.36a20.65,20.65,0,0,0,.49,6l.26-.46A45.46,45.46,0,0,1,47,67.18c-.82.15-1.64.27-2.47.36a1.13,1.13,0,0,1-1.25-.62c-.21-.31-.37-.69-.55-1a42.82,42.82,0,0,1-2-4.43l-.36.48,4.76,0a.38.38,0,0,0,0-.75l-4.76,0a.38.38,0,0,0-.36.47,43.3,43.3,0,0,0,2.2,4.86c.29.55.6,1.42,1.2,1.71a3.94,3.94,0,0,0,2.07-.07A45.87,45.87,0,0,0,56,65.42a.38.38,0,0,0,.26-.46,19.63,19.63,0,0,1-.46-5.77.38.38,0,0,0-.47-.36A99.82,99.82,0,0,1,44,61c-.47.06-.48.81,0,.75Z"/><path class="cls-1" d="M47,50.2a15.69,15.69,0,0,0,.22,3.35,3.42,3.42,0,0,0,.57,1.53,1.34,1.34,0,0,0,1.47.5"/><path class="cls-5" d="M66.7,80.46c.61,0,2.09-.92.8-.92-.61,0-2.09.92-.8.92Z"/><path class="cls-6" d="M30.44,5.71a34.57,34.57,0,0,0,3,11.93l2.08-3.73"/><path class="cls-6" d="M37.65,4.68h7.2"/><path class="cls-6" d="M41.05.12c.74,2.45,2.18,4.63,3,7.06s.89,5.39-.85,7.26c-.88.94-2.62,1.38-3.34.32a1.91,1.91,0,0,1,1-2.6A5,5,0,0,1,44,12.08a34.21,34.21,0,0,1,5.41,1.59"/><path class="cls-6" d="M53.43,7.34a37,37,0,0,0,3.75,5.52l1.59-2.51"/><path class="cls-6" d="M62.31,3.65a8.15,8.15,0,0,0,2.06,5.67"/><path class="cls-6" d="M60.72,23.73a46.8,46.8,0,0,0,2.75,7.05l2.08-2.87"/><path class="cls-6" d="M65.42,22.13a10.13,10.13,0,0,0,5.68-2"/><path class="cls-6" d="M67.88,18.1l3.25,6.25a5,5,0,0,1,.81,3.36c-.28,1.15-1.91,1.92-2.68,1-1-1.16.85-2.8,2.39-2.7s3.16.86,4.53.16"/><path class="cls-6" d="M77.23,21.15l3.53,2.9.55-2.42"/><path class="cls-6" d="M85.49,18.05A6.52,6.52,0,0,0,86,21.64"/><path class="cls-6" d="M92.17,16a84.23,84.23,0,0,0,3.74,9,2.26,2.26,0,0,0,.34-1.8"/><path class="cls-6" d="M97.28,16.4l6.21-1.93"/><path class="cls-6" d="M101.55,12.94a5,5,0,0,0,.61,3.66A16.18,16.18,0,0,1,103.74,20a3.18,3.18,0,0,1-1.07,3.4c-1.08.67-2.87-.12-2.73-1.38s1.94-1.7,3.23-1.39,2.67.94,3.88.38"/><path class="cls-6" d="M111.75,17.78l16.4-2.42"/><path class="cls-6" d="M133.84,10.84a13.51,13.51,0,0,0,3,4.56l1.6-1.43"/><path class="cls-6" d="M144.09,8.8l2.06,4.63"/><g class="cls-7"><path class="cls-8" d="M10.28,33.21A82.8,82.8,0,0,1,16.7,51.67c1.33,6,2.38,12,5.1,17.59A44.39,44.39,0,0,0,31,81.75a42.89,42.89,0,0,0,6.33,5c2.3,1.49,4.94,2.55,7,4.34,2.76,2.36,3.27,6.12,4.12,9.46l2.87,11.31c.23.93,2.17.41,1.93-.52l-2.51-9.9c-.75-3-1.23-6.23-2.73-8.91-1.37-2.44-3.84-3.84-6.21-5.15a45.42,45.42,0,0,1-6.75-4.48A43,43,0,0,1,24.63,70.43C21.56,64.92,20.27,58.92,19,52.8a87.11,87.11,0,0,0-6.94-20.46c-.4-.8-2.23-.07-1.77.87Z"/></g><g class="cls-7"><path class="cls-8" d="M70.93,108.84a179.87,179.87,0,0,1-2.79-19.6L66.41,90l12.84,8.62c3.78,2.55,7.82,5,10.54,8.73.41.58,2.27-.09,1.78-.78-2.68-3.72-6.67-6.15-10.41-8.67L67.94,89c-.49-.33-1.79.06-1.73.74A182.15,182.15,0,0,0,69,109.36c.15.72,2.09.24,1.94-.52Z"/></g><g class="cls-7"><path class="cls-8" d="M53.21,59.54a8.08,8.08,0,0,1-.54,2.56c0,.1-.08.21-.13.31a1,1,0,0,1-.07.15c.05-.1.05-.11,0,0s-.19.36-.3.54a8.38,8.38,0,0,1-.76,1.11l-.22.26c.16-.19,0,0-.05,0s-.29.29-.44.43-.31.27-.47.4l-.18.13.17-.12s-.22.15-.28.19l-.57.34c-.36.2.4-.19,0,0l-.3.14-.31.12c-.35.14.46-.13.08,0l-.65.17c-.58.13-1.88.7-1.67,1.49s1.65.58,2.19.46c4.25-1,8.1-4.63,8.31-9.14,0-.85-1-.93-1.67-.84a3.61,3.61,0,0,0-1.46.49c-.26.18-.72.48-.73.83Z"/></g><g class="cls-7"><path class="cls-8" d="M68.77,49.74a12.6,12.6,0,0,1,6,8.1,26,26,0,0,1,.43,11.8c-.75,3.43-3.26,5.84-6.15,7.63a31.51,31.51,0,0,1-10,4.06,32.57,32.57,0,0,1-12.29.22,3.64,3.64,0,0,0-2.74.73c-.58.51-.49,1,.32,1.18a39.72,39.72,0,0,0,25.24-4.21c3.36-1.8,6.8-4.15,8.59-7.63a14,14,0,0,0,1.27-6,32.34,32.34,0,0,0-.38-7c-.79-4.4-3.1-8.49-7.18-10.57-1-.5-4.56,1-3.11,1.74Z"/></g><g class="cls-7"><path class="cls-8" d="M2.16,44.05q9.86,16.39,19,33.2c.24.44,2.06-.27,1.93-.52q-9.13-16.8-19-33.19c-.26-.45-2.06.29-1.93.51Z"/></g><g class="cls-7"><path class="cls-8" d="M6,60.56A222.82,222.82,0,0,0,26.52,91.05c.3.38,2.13-.27,1.82-.67A220.51,220.51,0,0,1,7.93,60c-.28-.49-2.11.21-1.94.52Z"/></g></g></g></svg>