<svg xmlns="http://www.w3.org/2000/svg" viewBox="0 0 327.03 34.76"><defs><style>.cls-1{isolation:isolate;}.cls-2{opacity:0.14;}.cls-3{fill:#896b4a;}</style></defs><g id="Layer_2" data-name="Layer 2"><g id="Layer_1-2" data-name="Layer 1"><g class="cls-1"><path d="M18,15.88c3.4.25,6.53,1.78,6.53,6,0,5.53-4.1,7.93-9.9,7.93H5V2.75h9c5.53,0,9.21,2,9.21,7,0,3.47-2.08,5.28-5.28,6ZM11.07,7.26V14h2.29c2,0,3.61-1,3.61-3.41s-1.56-3.34-3.61-3.34Zm3.37,17.91c2.33,0,3.86-.87,3.86-3.38,0-2.19-1.53-3.26-3.83-3.26h-3.4v6.64Z"/><path d="M53.43,16.3c0,9.74-4.76,13.91-11.54,13.91S30.35,26,30.35,16.3,35.12,2.4,41.89,2.4,53.43,6.57,53.43,16.3Zm-6.77,0c0-6.88-1.71-9.38-4.77-9.38s-4.76,2.5-4.76,9.38,1.71,9.39,4.76,9.39S46.66,23.18,46.66,16.3Z"/><path d="M82.73,16.3C82.73,26,78,30.21,71.19,30.21S59.65,26,59.65,16.3,64.42,2.4,71.19,2.4,82.73,6.57,82.73,16.3ZM76,16.3c0-6.88-1.71-9.38-4.77-9.38s-4.76,2.5-4.76,9.38,1.71,9.39,4.76,9.39S76,23.18,76,16.3Z"/><path d="M103.76,27.42c7.47-1.25,10.84-4.83,10.84-9,0-5.28-2.92-8.62-6.46-9.35-.7,6.57-3,12.69-5.35,16.2C100.91,28,99,29,96.25,29c-2.08,0-3.58-1-4.9-3.09a11,11,0,0,1-1.7-6.29c0-8.41,6.29-15.23,15.85-15.23s14.56,6.37,14.56,14.08c0,6.33-4.45,11.13-11.82,12.86a1.12,1.12,0,0,1-1.11-.34Zm-9.32-7.78A5.14,5.14,0,0,0,95,22.28c.39.7.87,1.15,1.43,1.15.8,0,1.81-.8,2.75-2.68a34.84,34.84,0,0,0,3.44-11.82C97.57,9.8,94.44,14.29,94.44,19.64Z"/><path d="M129.62,5.8l.17.25a55.59,55.59,0,0,1-.9,10.63l-.32.11L126,15.68l-.14-.32a53.93,53.93,0,0,0,.9-10.11l.31-.14Zm6.91-1.46.28.07A22.48,22.48,0,0,1,139,8.83l-.14.28-2.6,1.49-.28-.14a23.56,23.56,0,0,0-1.18-3.4V20.58L135,33.33h-4.9l.17-12.51V.24l.25-.24h4.06l.25.24V5.32ZM154,12a41.56,41.56,0,0,1-3.1,7.12q1.41,2,2.72,4.07V13.87l.24-.24h4l.21.24V24.61l.17,8.34h-4.58v-1.7H141.82v2.08H137.3l.17-8.3V13.87l.25-.24h3.85l0-.18,2.57-2.33.35,0c1.15,1.21,2.36,2.67,3.58,4.17a42.61,42.61,0,0,0,1.91-5l.28-.07,3.51,1.35Zm-13.07-1.5-.35-.1a38.58,38.58,0,0,0-2.68-6.71l.11-.31,3.58-1.71.38.14A25.77,25.77,0,0,1,145,8.24l-.1.35Zm.94,13.32a23.49,23.49,0,0,0,3.86-4.56,62.64,62.64,0,0,0-3.86-5.14Zm8.37,2.81c-.55-1-1.21-2.26-2-3.54A20,20,0,0,1,145,26.7a1,1,0,0,1-.53.27c-.21,0-.34-.14-.55-.38l-2.12-2.33v3.2h11.75V24.19l-3,2.47ZM147,8.79l-.32-.1A35.53,35.53,0,0,0,144.35,2l.14-.32L148.14.24l.35.11a33,33,0,0,1,2.71,6.43l-.1.35Zm12.09-6a47.15,47.15,0,0,1-4,7.34c-.14.2-.25.31-.46.31a1.2,1.2,0,0,1-.41-.11l-3.55-1.25A40.14,40.14,0,0,0,154.26.76l.31-.17L159,2.43Z"/><path d="M178.52,29.37a13.16,13.16,0,0,0,8-7.51,21.43,21.43,0,0,0-7.16-2,48.74,48.74,0,0,1-3.34,7.27A5.88,5.88,0,0,1,170.66,30c-3.19,0-5-2.75-5-5.46,0-5.08,3.31-8.45,10.19-9.32,1.08-2.74,1.63-4.38,2.57-7.19l-5.67,1.11-.31-.24-1-4.35.17-.31c3.83-.69,7-1.22,9.07-1.56a7.12,7.12,0,0,1,1.19-.11c1.94,0,3.06,1.08,3.06,2.61a4.39,4.39,0,0,1-.25,1.25c-.94,2.71-2.12,5.46-3.58,9A30.81,30.81,0,0,1,187.73,17a27.07,27.07,0,0,0,0-4.17l.2-.25,4.66.66.18.32a31.18,31.18,0,0,1-.18,5.56,33.64,33.64,0,0,1,4.17,2.54l.07.38-2.43,4.2-.35.14c-1.07-.83-2.12-1.49-3-2.08a17.52,17.52,0,0,1-7.72,8.1,1.33,1.33,0,0,1-.94-.25Zm-8.34-5.28c0,.73.21,1.08.62,1.08s.87-.32,1.29-1.08c.52-1,1-2,1.84-4.14A4.34,4.34,0,0,0,170.18,24.09Z"/><path d="M206.46,11l-3.86.11-.24-.21V7.09l.21-.21,3.89.11h.94V.31l.17-.21h4.21l.21.21V7h.35l3.89-.11.17.18v3.85l-.17.18L212.34,11H212v3.65l1-.83h.35A32.94,32.94,0,0,1,217,18.53v.31L214,21.34l-.28-.07a31.87,31.87,0,0,0-1.7-2.95v2l.21,13h-5l.35-14a30.58,30.58,0,0,1-2.82,6.08.53.53,0,0,1-.45.31c-.17,0-.34-.14-.48-.38l-2-3.79a30.89,30.89,0,0,0,5-10.57Zm15.68,19.19V33h-5l.17-10.08V7.33l-.1-4.79.21-.25,4.17.11h7.68l4.48-.11.25.25-.11,4.79V22.46L234,32.74h-5.15V30.17ZM228.88,6.4h-6.74v3.85h6.74Zm0,7.75h-6.74v4h6.74Zm0,7.85h-6.74v4.17h6.74Z"/><path d="M253.56,7.37a15.11,15.11,0,0,0,2.12-4.45l.38-.1,3.37,1.42.11.42a21.47,21.47,0,0,1-2.47,4.93l-.35.11-3.16-1.57v1.92l-.21.17-4-.1h-4.9l-3.86.1-.25-.21V6.36l.21-.21,3.9.11h4.9l4-.11.21.18Zm-.87,22.52c5.73-2.19,7.78-5,7.78-11.57V16l.25-.24h4.2l.25.24v3.13a18.77,18.77,0,0,1-.11,2c1.12,3.62,4.49,6.89,8.94,8.28l-2.72,3.58c-.17.24-.31.38-.55.38a1.21,1.21,0,0,1-.56-.17,15.57,15.57,0,0,1-6.67-6.4,13.06,13.06,0,0,1-7.93,6.53,1.47,1.47,0,0,1-.38.07.51.51,0,0,1-.45-.24l-2.05-2.5.07,2h-4.31V31h-2.82v2H241.5l.17-6.26V25l-.11-3.47.21-.25,3.86.11h2.61l4.2-.11.25.25L252.58,25v1.84Zm-.38-15.19c5.73-2.08,8.16-5.07,8.16-11.82V.52l.25-.24H265l.24.24V3.65a17.34,17.34,0,0,1-.73,5.18,60.56,60.56,0,0,1,8.86,5.39l.11.34-3,3.13-.38.11a56.44,56.44,0,0,0-7.27-5.32,13.49,13.49,0,0,1-7.3,5.35,1.47,1.47,0,0,1-.38.07.51.51,0,0,1-.45-.24l-2.43-2.92V15l-.21.18-3.51-.11h-2.85l-3.48.11L242,15V11.54l.21-.21,3.51.11h2.85l3.51-.11.21.17ZM242.26,5,242,4.83V1.42l.21-.2,3.51.1h2.85l3.51-.1.21.17V4.87L252.1,5l-3.51-.1h-2.85Zm0,15.05-.24-.21v-3.4l.21-.21,3.51.1h2.85l3.51-.1.21.17v3.48l-.21.17-3.51-.1h-2.85Zm6.19,4.83h-2.82v2.54h2.82Zm10.84-4.72.11.41a21.33,21.33,0,0,1-2.47,4.94l-.35.1-3.34-1.56-.1-.31a14.93,14.93,0,0,0,2.4-4.84l.38-.1ZM272.74,5a28.64,28.64,0,0,1-3.54,4.07c-.14.14-.21.21-.31.21a.62.62,0,0,1-.35-.18L265.62,7a23.21,23.21,0,0,0,2.95-4.48l.32-.07,3.82,2.29Zm.49,15.82a32.1,32.1,0,0,1-3.61,4c-.14.14-.21.21-.32.21a.63.63,0,0,1-.34-.18l-2.85-2.15a23.27,23.27,0,0,0,2.95-4.49l.31-.07,3.83,2.3Z"/><path d="M288.94,12.69l-4.94.1-.24-.24V11.33h-4.21l.18-4.59V5.8l-.11-2.64.25-.24,5.77.1h6.78V.24l.24-.24h4.69l.24.24V3h7l5.77-.1.24.24-.11,2.64v.94l.18,4.59h-4.42v1.22l-.24.24-3.89-.07a49.48,49.48,0,0,1,7.44,5l-.07.38-3.1,2.57-.34,0c-.7-.66-1.4-1.36-2.12-2-2.16.2-4.28.38-6.4.55v2.5h3.79l5.77-.1.24.24v3.72l-.24.25-5.77-.11h-3.79V28h7.51l5.77-.1.24.24v3.82l-.24.25-5.77-.11H285.39l-5.77.11-.24-.25V28.12l.24-.24,5.77.1h7.09V25.79H288.9l-5.77.11-.24-.25V21.93l.24-.24,5.77.1h3.58V19.64c-3.09.21-6.29.35-9.69.49l-.32-.18-1.11-3.72.24-.31c2.26,0,4.28,0,6.16,0,.55-1,1-2.12,1.49-3.19Zm0-3.86h12.2l4.48-.11V7h-21.2V8.72Zm5.49,3.86c-.59,1-1.15,2.12-1.77,3.13,2.47,0,4.9-.14,7.37-.25-.7-.48-1.43-.94-2.09-1.32l0-.35,1.91-1.21Z"/><path d="M327,28.26a4.94,4.94,0,1,1-4.93-4.9A4.83,4.83,0,0,1,327,28.26Zm-7.82,0a2.89,2.89,0,1,0,2.89-2.89A2.83,2.83,0,0,0,319.21,28.26Z"/></g><g class="cls-2"><path class="cls-3" d="M2.34,34.76h313c1.67,0,4.15-.56,5.11-2.08s-.81-2.17-2.07-2.17H5.38c-1.67,0-4.15.55-5.11,2.08s.82,2.17,2.07,2.17Z"/></g></g></g></svg>