<svg xmlns="http://www.w3.org/2000/svg" viewBox="0 0 116.09 19.28"><defs><style>.cls-1{opacity:0.85;}.cls-2{fill:#0d0d0d;}.cls-3{fill:none;stroke:#333132;stroke-miterlimit:10;}</style></defs><g id="Layer_2" data-name="Layer 2"><g id="Layer_1-2" data-name="Layer 1"><g class="cls-1"><path class="cls-2" d="M14.8,15.48l.38,1.26-1.41.42-1.21-4.29L11.49,9.26,11,7.71l0-.1,1.08-.28L13.23,7l1.16-.38.1.06.43,1.57,1,3.53,1.11,3.63-1.42.42-.16-.55Zm-1.32-7-.68.2.56,1.89.68-.2Zm1,3.27-.69.2.62,2.09.68-.21ZM17,5.8l1.26-.41.11.06.32,1.22.42,1.44.44,1.33-.07.14-1.28.34-.63.18.28,1L18,11l1.44-.46.11.06.38,1.28-.06.11-1.46.39-.19.06.31,1.08.27-.08L20.25,13l.1.06.38,1.28-.06.11-1.46.39-.26.08.57,1.94-1.5.45L17,13.48,15.29,7.83l-.44-1.35.05-.1L16.18,6Zm.13,3,.62-.19-.45-1.52-.62.19ZM21,7.56l-.4-1.34-.42.13-1.05.35L19,6.64l-.38-1.28.06-.11L19.8,5l.68-.2,1.19-.39.11.06.32,1.22.42,1.42L23,8.41l-.06.14-1.21.32-.7.2-1.05.35-.11-.06-.38-1.28L19.5,8l1.08-.28Zm.37,4a4.78,4.78,0,0,0,.68.87,4.06,4.06,0,0,0,.08-1.34l-.71.21-1.19.39-.1-.05-.39-1.3,0-.1L21,9.89l1.19-.35.5-.19.67.32c.15.07.19.17.23.43a6.32,6.32,0,0,1-.27,3.18,8.39,8.39,0,0,0,1.71.47l-.42,1.48a.19.19,0,0,1-.1.14.4.4,0,0,1-.23,0,7.16,7.16,0,0,1-1.67-.65,7,7,0,0,1-1.54,1.68,1.06,1.06,0,0,1-.21.14c-.07,0-.13,0-.24-.1l-1-.8a6.63,6.63,0,0,0,1.79-1.8,7.07,7.07,0,0,1-1.16-1.42v-.12l1-.75Z"/><path class="cls-2" d="M31.27,2.69c.21,1.33.36,2.4.42,3.42A9.6,9.6,0,0,0,38,11.19l-.91,1.72A.17.17,0,0,1,37,13a.54.54,0,0,1-.2,0,9.91,9.91,0,0,1-5.26-4,8.88,8.88,0,0,1-3.7,5.59.44.44,0,0,1-.15.08.3.3,0,0,1-.14,0L26,13.46c2.14-1.48,3.46-3.25,3.65-5.53a18.67,18.67,0,0,0-.42-5l.07-.1,1.83-.24Z"/><path class="cls-2" d="M47.11,2.27a7.41,7.41,0,0,0-.94-1.1V1.06l.67-.43H47A7.87,7.87,0,0,1,48.17,2v.13l-.5.32a10.64,10.64,0,0,1-1.73,6,10.89,10.89,0,0,1-4,3.38.7.7,0,0,1-.23.09c-.08,0-.14,0-.27-.12l-1.62-1.09A9.44,9.44,0,0,0,44.08,7.6a7.36,7.36,0,0,0,1.3-3.37l-4.21.33-1.9.19-.12-.06L39,3l.1-.09L41,2.76ZM47.5.43,48.16,0h.13a7.57,7.57,0,0,1,1.16,1.35l0,.13-.68.43h-.12A7.41,7.41,0,0,0,47.48.54Z"/><path class="cls-2" d="M58.53,7.11,53,7.15l-1.86,0L51,7.1l0-1.78.12-.08,1.78,0,5.57,0,1.92-.06.1.09V7l-.08.1Z"/><path class="cls-2" d="M63,11c.85-2.11,1.62-3.95,2.41-5.8-.58,0-1.26.07-1.88.09l-.1-.08-.15-1.53.08-.08c1,0,1.92,0,2.79-.08.37-.84.73-1.7,1.13-2.63l.13-.05L69,1.42l0,.14q-.48,1-.87,1.92l.72,0c1,.08,2,.79,1.79,2.61a15,15,0,0,1-.91,4.21c-.57,1.37-1.41,1.6-2.07,1.54a5.69,5.69,0,0,1-1.51-.34c-.09,0-.12-.06-.12-.24V9.52a4.73,4.73,0,0,0,1.23.38c.39,0,.57,0,.81-.6a14,14,0,0,0,.71-3.21c.06-.75,0-.9-.56-1-.23,0-.52,0-.83,0-1,2.29-1.8,4.17-2.68,6.53l-.14,0L63,11.14Zm8-6.88,1.39-.72h.12a12.35,12.35,0,0,1,2.07,4.11l-.06.12-1.63.77-.11,0a11.65,11.65,0,0,0-1.82-4.12Zm.91-2.23.68-.4h.13a9.45,9.45,0,0,1,1.16,1.42l0,.13-.72.43H73A8.21,8.21,0,0,0,71.86,2Zm1.23-.69.67-.4h.13A8.34,8.34,0,0,1,75,2.21l0,.13-.68.42h-.13A7.37,7.37,0,0,0,73.1,1.36Z"/><path class="cls-2" d="M82.59,5.23l.07.1-.15.76a2.16,2.16,0,0,0,1.88-1.38l-1.52-.24-.07-.08L83,3.16l.09-.07,1.62.33,2.67.49,1.36.23.06.08c-.36,1.88-.67,2.88-1.13,3.2a1.69,1.69,0,0,1-1.47.21l-.39-.07c-.14,0-.18-.07-.21-.2l-.24-1.13a3.43,3.43,0,0,1-1.93,1.24l.91.41,0,.12-.26.59.44.08.19-1,.1-.07,1.46.26L86.4,8l-.19,1,.15,0,1.42.22.07.1-.22,1.22-.1.07-1.41-.3-.15,0-.18,1,.43.08,1.56.24.06.08L87.6,13l-.08,0L86,12.69l-.42-.08-.36,2.25-1.74-.32.45-2.23-.54-.1L81.76,12l-.07-.09.23-1.28.09-.06,1.61.33.55.1.18-1-.82-.15a3.51,3.51,0,0,1-.38.59.2.2,0,0,1-.22.13.46.46,0,0,1-.19-.09l-.93-.65-.18,1-.28,1.79a1.46,1.46,0,0,1-.57,1.12,2.73,2.73,0,0,1-1.7,0c-.16,0-.21-.06-.24-.19l-.25-1.47c.45.1.76.15,1.1.2s.28,0,.33-.29l.22-1.21L78,10.35a8.47,8.47,0,0,1-1.25,2.82c-.06.08-.1.12-.14.11s-.1-.07-.18-.17l-.84-1c.71-1,1.15-2.05,1.65-4.79l.3-1.66-.09.06a.12.12,0,0,1-.11,0c-.05,0-.08-.09-.1-.2l-.18-1.41a7.61,7.61,0,0,0,2.27-2.3l.12,0,1.26.58.06.12-.32.43.4.08.8.08.47.59a.34.34,0,0,1,.08.26.48.48,0,0,1-.11.21c-.25.33-.51.63-.77.92ZM79,8.07,78.54,8c-.08.41-.15.81-.25,1.21l.5.09Zm-.09-2.26-.19,1,.48.09.19-1Zm.89-1a6.16,6.16,0,0,0,.51-.69l-.74-.14c-.22.23-.45.45-.68.67Zm.63,4.83.22-1.22-.5-.09L80,9.5Zm-.07-2.45.5.09.19-1-.5-.1Zm1.9.05-.46,2.53A10.71,10.71,0,0,0,83,7.49a.27.27,0,0,1-.11-.1l-.49-.91ZM86,5a3.67,3.67,0,0,1-.53,1.11,4.74,4.74,0,0,0,.76.12.53.53,0,0,0,.36-.09,2.39,2.39,0,0,0,.34-1Z"/><path class="cls-2" d="M88.61,14.52a22.35,22.35,0,0,0,3-3.35l.93,1.23a.24.24,0,0,1,.06.22s0,.06-.06.11a30.55,30.55,0,0,1-2.68,3.11l-.15,0-1.08-1.21Zm3.18-4.28h-.15A11.33,11.33,0,0,0,90.31,8.6V8.49l1.28-.84h.15a10.89,10.89,0,0,1,1.38,1.5v.13Zm2.8,1.84-1.76-.51-.07-.1.4-1.27.1-.06,1.75.58L96,11c.21-.56.4-1.15.59-1.72L96,9.14l-1.59-.46-.06-.09.4-1.27.1,0,1.56.52L97,8c.18-.57.35-1.18.55-1.8l.11-.07,1.57.49.07.12-.56,1.81.84.26,1.82.53.07.1-.5,1.47-.48,1.53,1.15.34,0,.09-.4,1.29-.1,0-1.69-.57-1.62-.51a7.63,7.63,0,0,0,2.42,4.56l-1.45.91a.27.27,0,0,1-.25.05.41.41,0,0,1-.2-.15,8.55,8.55,0,0,1-2-4.62A6.58,6.58,0,0,1,92,16.51a.28.28,0,0,1-.16,0s-.08,0-.12-.1L91,15a5.55,5.55,0,0,0,4.27-2.36l.16-.27Zm-1.1-4.52-.15,0A8.84,8.84,0,0,0,92,5.83v-.1L93.36,5l.15,0A10.35,10.35,0,0,1,94.9,6.57v.12Zm5.92,2.64-1.1-.35c-.2.57-.43,1.14-.63,1.71l1.19.37Z"/></g><line class="cls-3" x1="0.35" y1="9.84" x2="8.51" y2="17.98"/><line class="cls-3" x1="115.74" y1="10.79" x2="107.58" y2="18.93"/></g></g></svg>