<svg xmlns="http://www.w3.org/2000/svg" viewBox="0 0 77.15 11.49"><defs><style>.cls-1{fill:#333132;}.cls-2{fill:none;stroke:#333132;stroke-miterlimit:10;}</style></defs><g id="Layer_2" data-name="Layer 2"><g id="Layer_1-2" data-name="Layer 1"><path class="cls-1" d="M15.93,4.47l-.07-1.18.07-.06,1.25-.06L20.65,3l1.27-.11.07.07a5.65,5.65,0,0,1-3.86,5.53l-.19.06a.3.3,0,0,1-.21-.09l-1.08-.78c2-.77,3.34-1.81,3.63-3.39l-3,.19L16,4.54Zm3.94-2.16-2.09.13-1.1.1-.07-.07-.07-1.16.07-.06,1.1-.05,2.05-.13L21,1l.08.06.08,1.16-.06.07Z"/><path class="cls-1" d="M40.53,2.05,41.59,2l.06.06.09,1.15-.06.07-1.08,0-1.1.07.1,1.09,1.47-.08,1.15-.1.08,0,.09,1.15,0,.08-1.1,0-1.52.09.06.6L40,8.38l-1.52.17-.15-2.06-.07-.74-1.63.09L35.52,6l-.07,0-.13-1.16.06-.08,1.17,0,1.61-.1-.1-1.09-1,.06L36,3.59l-.09,0-.12-1.16.06-.07,1.12,0,1-.06-.11-1.12L37.89,1,39.2.91l.08.07.11,1.13Z"/><path class="cls-1" d="M52.68,3.15a.83.83,0,0,1,0,.18.26.26,0,0,1-.09.18,19,19,0,0,1-6.12,4.77l-.1,0L45.49,7v-.1a17.56,17.56,0,0,0,6.57-5.25Zm-7.51-.42.89-1.1.09,0a10.62,10.62,0,0,1,2,1.23v.1l-1,1.22h-.08a11.6,11.6,0,0,0-2-1.35Z"/><path class="cls-1" d="M33.26,3.09a.49.49,0,0,1,0,.18c0,.07,0,.11-.08.18a19,19,0,0,1-6.13,4.77L27,8.2,26.06,7l0-.1A17.36,17.36,0,0,0,32.65,1.6Zm-7.51-.42.88-1.1.1,0a10.13,10.13,0,0,1,2,1.23v.09l-.94,1.22h-.08a11.28,11.28,0,0,0-2-1.35Z"/><path class="cls-1" d="M58.4,2.78a10.78,10.78,0,0,1-2,1.87c-.11.07-.17.11-.23.1A.29.29,0,0,1,56,4.69l-1.1-.76A9.79,9.79,0,0,0,58.3.25l.09,0,1.34.59v.1c-.14.23-.28.45-.43.67l1.22,0h.74l.78.83c.09.08.13.14.13.21a.93.93,0,0,1-.07.19,10.55,10.55,0,0,1-5.83,5.28A.69.69,0,0,1,56,8.2a.24.24,0,0,1-.16-.08l-1.13-1a8.76,8.76,0,0,0,5.51-4.24ZM61.25.88l.53-.33h.09a6.4,6.4,0,0,1,.92,1.08l0,.09-.55.34h-.09A6.7,6.7,0,0,0,61.24,1Zm.94-.55L62.7,0h.1a5.32,5.32,0,0,1,.89,1.05v.09l-.53.33h-.09A6.35,6.35,0,0,0,62.18.41Z"/><line class="cls-2" x1="0.35" y1="2.11" x2="9.39" y2="11.14"/><line class="cls-2" x1="76.8" y1="1.01" x2="67.76" y2="10.03"/></g></g></svg>