<svg xmlns="http://www.w3.org/2000/svg" viewBox="0 0 278.26 115.93"><defs><style>.cls-1{fill:#fcdd6f;}.cls-2,.cls-3{fill:#fff;}.cls-3,.cls-7,.cls-8{stroke:#231f20;stroke-miterlimit:10;}.cls-3{stroke-width:0.5px;}.cls-4{opacity:0.14;}.cls-5{fill:#534b4b;}.cls-6{fill:#231f20;}.cls-7{fill:#f9b19d;}.cls-7,.cls-8{stroke-width:0.6px;}.cls-8{fill:none;}.cls-9{fill:#896b4a;}</style></defs><g id="Layer_2" data-name="Layer 2"><g id="Layer_1-2" data-name="Layer 1"><rect class="cls-1" x="1.75" y="1.75" width="274.76" height="112.43"/><path class="cls-2" d="M276.51,112.43H1.75l1.75,1.75V1.75L1.75,3.5H276.51l-1.75-1.75V114.18a1.75,1.75,0,0,0,3.5,0V1.75A1.77,1.77,0,0,0,276.51,0H1.75A1.77,1.77,0,0,0,0,1.75V114.18a1.78,1.78,0,0,0,1.75,1.75H276.51A1.75,1.75,0,0,0,276.51,112.43Z"/><path class="cls-3" d="M165.32,68.74a15.8,15.8,0,0,0,3.51,1.1,12.08,12.08,0,0,1,1.91.73c.59.3.88.61.86.85,0,.78-3.79.83-6.59,1.46-4.89,1.11-7.79,4.23-9.28,5.47-6.74,5.58-22.35,3.94-42.2,3.49C86.43,81.23,79.29,83,75.79,77.6c-2.91-4.47-2.23-11.51.91-15.38,0,0,5.08-6.28,35.17-4.32l.31,0c24.21,1.62,41.46-1.67,45.61,4.18C157.79,62.1,161.19,66.89,165.32,68.74Z"/><g class="cls-4"><path class="cls-5" d="M72.76,73.5c2.1,6.86,7.56,9.29,14.27,9.94,10.79,1.06,21.85.75,32.69.88,9.22.11,18.7,1,27.85-.57a18.72,18.72,0,0,0,8.68-3.68c4.58-3.47,8.23-5.84,14.17-6,1.35,0,1.36-2.14,0-2.1a21.82,21.82,0,0,0-9.11,1.89c-2.79,1.35-4.83,3.63-7.39,5.33-6.78,4.53-17,3.3-24.72,3.11-9.29-.23-18.58-.26-27.87-.43-9-.17-23.25,1.84-26.55-8.94-.39-1.28-2.42-.74-2,.56Z"/></g><path class="cls-6" d="M21.71,21.9c0,.26,0,.59,0,.83a17.09,17.09,0,0,0,2.14-1.95H17.46l-2.78,0-.11-.12V18.59l.14-.09,2.71,0h7.15l1.6-.08L27.3,20a.43.43,0,0,1,.08.23.43.43,0,0,1-.13.3,36.51,36.51,0,0,1-3.53,3.6c-.26.22-.34.22-.58.06l-1.48-1c-.16,3.45-1.07,5.73-3.83,7.77a.5.5,0,0,1-.29.11.83.83,0,0,1-.36-.13l-2.13-1.09c3.35-1.93,4-4,4-7.91l.12-.13H21.6Z"/><path class="cls-6" d="M31.09,20.86a26.36,26.36,0,0,1,2.73,1.57,28.26,28.26,0,0,0,2-4.51l.12-.05,2.38.9.05.13A30,30,0,0,1,35.91,24a21,21,0,0,1,2.49,2.41v.17l-1.76,1.79H36.5a25.78,25.78,0,0,0-2.1-2.2A19.52,19.52,0,0,1,29,30.92a.46.46,0,0,1-.22.08.43.43,0,0,1-.29-.13l-1.85-1.36a17,17,0,0,0,5.78-5,25.1,25.1,0,0,0-3-1.9v-.14l1.51-1.62Z"/><path class="cls-6" d="M44,21.05l.08,4.57H41.39l.08-4.54V18.27l.13-.11h2.28l.12.13Zm5.4,1.65c0,2.75-.24,3.94-1.16,5.38a8.36,8.36,0,0,1-3.92,3,.69.69,0,0,1-.3.1c-.08,0-.16-.06-.32-.18L41.77,29.6a7.55,7.55,0,0,0,4.14-2.72c.77-1.16.87-2.12.87-3.94V18l.13-.12h2.36l.13.13Z"/><path class="cls-6" d="M59.58,22.56a10.46,10.46,0,0,1-5.7,8.07.41.41,0,0,1-.19.08c-.08,0-.15-.05-.31-.16L51.57,29.2a9.36,9.36,0,0,0,4.5-4,8.89,8.89,0,0,0,.85-2.61H55.44l-2.3.05L53,22.48V20.37l.15-.09,2.24,0h1.75c0-.73.07-1.53.07-2.44l.11-.13h2.41l.11.11q0,1.35-.06,2.46h2.68l2,0,.11.14a48.12,48.12,0,0,1-.69,6.91c-.49,2.11-1,3.08-3.87,3.08-.41,0-.43,0-.54-.29l-.95-2.25c.63,0,1.21.05,1.78,0s.82-.11,1.13-1.39a26.1,26.1,0,0,0,.45-4Z"/><path class="cls-6" d="M67.12,23l-.53-2.12.06-.13c4.48-1.09,8.06-1.83,12.58-2.65l.15.08.47,2.14-.12.14a7.79,7.79,0,0,0-4.32,1.26,5.47,5.47,0,0,0-2.32,4.17,2,2,0,0,0,1.55,2.17,13.56,13.56,0,0,0,3.84.35l.11.11L78.46,31l-.12.1a12.89,12.89,0,0,1-5.08-.74,4.18,4.18,0,0,1-2.58-4.21,6.11,6.11,0,0,1,2.15-4.52c-1.57.38-3.29.83-5.57,1.47Zm10.16,0,.83-.59.16,0a10.17,10.17,0,0,1,1.64,1.7l0,.16L79,25h-.16a10,10,0,0,0-1.59-1.73Zm1.51-1,.81-.59.16,0a9.57,9.57,0,0,1,1.59,1.65v.16l-.84.61h-.16a9.88,9.88,0,0,0-1.57-1.67Z"/><path class="cls-6" d="M89.4,24.76l1.82,5.55-2.59.87L87,25.59l-.61-1.92-1,.27L83,24.66l-.17-.06-.61-2.07.08-.15,2.4-.59,1-.28-.93-3,0-.16,2.25-.67.16.06.94,3.07,4-1.08,1.59-.53,1.54,1.33c.18.16.26.24.26.36a.6.6,0,0,1-.14.3,26.73,26.73,0,0,1-2.88,4.14c-.19.23-.27.23-.53.12l-1.88-.79a23.38,23.38,0,0,0,2-2.68L88.84,23Z"/><path class="cls-6" d="M104,22.33A19.51,19.51,0,0,1,99.3,28.5a.37.37,0,0,1-.24.11.48.48,0,0,1-.26-.1l-2.15-1.3A14.54,14.54,0,0,0,101.53,21l.14,0,2.25,1.16Zm1.54-.22,2-1.11.18,0a19.77,19.77,0,0,1,4,5.17l0,.15-2.37,1.42-.15,0a20.65,20.65,0,0,0-3.64-5.46Zm2.39-2.8.84-.59h.16a10.19,10.19,0,0,1,1.64,1.7l0,.16-.88.62h-.16a10.4,10.4,0,0,0-1.59-1.73Zm1.51-1,.82-.59.16,0A10,10,0,0,1,112,19.35l0,.16-.83.61H111a9.54,9.54,0,0,0-1.57-1.67Z"/><path class="cls-6" d="M114.23,19l2.27.08.11.11c-.14,1.78-.19,3.37-.19,4.3a11.38,11.38,0,0,0,.37,3.18c.17.62.38,1.09.74,1.09s1-.87,1.34-2.34l1.61,2a.34.34,0,0,1,0,.4c-.64,1.67-1.69,2.87-3,2.87a3.06,3.06,0,0,1-2.6-2,12.06,12.06,0,0,1-.93-5c0-1.3,0-2.84.11-4.59Zm7.61,2.79,1.54-1.24.18,0a12.15,12.15,0,0,1,4.26,5.19l0,.14-2,1.27-.16-.05a10.9,10.9,0,0,0-3.76-5.14Z"/><path class="cls-6" d="M137.65,29.59c0,1.83-.53,2.42-3.21,2.42-.33,0-.36,0-.42-.19l-.8-1.88c.75,0,1.44,0,1.71-.06s.44-.13.44-.52v-.17h-2.73l-2.17,0-.13-.13V27.73l.13-.1,2.17.05h2.73V27.2H131l-2.12,0-.12-.13V25.74l.12-.1,2.12.05h4.34v-.45h-2.72l-2.12,0-.12-.13V23.78l.12-.1,2.12.05h2.72v-.51h-2.23l-2.11,0-.09-.12.08-1.37v-.59l-.05-1.3.11-.12,2.06,0h2.23v-.54h-4l-2.28,0-.12-.13V17.69l.12-.09,2.28,0h4v-.89l.14-.13h1.93l.14.13v.89h3.87l2.46,0,.11.11v1.48l-.11.11-2.46,0h-3.87v.54h2.3l2.08,0,.12.12-.05,1.3v.59l.05,1.35-.12.14-2.08,0h-2.3v.51h2.31l2.4-.05.11.1-.05,1.67v.17l1.8,0,.11.11v1.46l-.11.12-1.8,0,.08,2.55h-2.25v-.62h-2.55Zm-4.53-8.41v.66h2.25v-.66Zm4.46.66h2.28v-.66h-2.28Zm2.6,3.85v-.45h-2.6v.45Zm0,2V27.2H137.6v.48Z"/><path class="cls-6" d="M148.62,32h-2.25l.08-5V25.29a9.13,9.13,0,0,1-.61,1.17.26.26,0,0,1-.21.16c-.08,0-.14-.07-.17-.18l-.6-2.23a23.5,23.5,0,0,0,2.57-7.48l.14-.08,2,.43.08.15c-.34,1.35-.67,2.53-1,3.59Zm3.08-9.87a13,13,0,0,1-.91,1.83.33.33,0,0,1-.29.19.49.49,0,0,1-.2-.05l-1.67-.72a16.09,16.09,0,0,0,2.06-5.67l.13,0,1.94.61.08.15c-.16.61-.31,1.19-.48,1.73h1.36V16.8l.12-.12h2.07l.11.12v3.38h1.19l2.16-.05.13.12v1.84l-.13.11-2.16,0H156v2.63h2l2-.05.09.08v1.9l-.11.11-1.94,0h-2L156.1,32h-2.46l.1-5.23h-2.47l-2.11,0-.11-.1V24.82l.1-.08,2.12.05h2.47V22.16Z"/><path class="cls-6" d="M161,21.34l-.11-.1V19.56l.09-.1,1.86.05h3l1.91-.05.1.08v1.72l-.1.08-1.91-.05h-3ZM163.68,31v.83h-2.05l.08-2.89v-.75l-.05-1.61.1-.11,1.84,0h1.64l2,0,.11.11-.05,1.61V29l.08,2.65h-2.11V31ZM162,19l-.12-.1V17.28l.1-.1,1.67.05h1.69l1.67-.05.09.08v1.61L167,19l-1.67-.05h-1.69Zm0,4.67-.12-.1V22l.1-.1,1.67,0h1.69l1.67,0,.09.08v1.61l-.09.08-1.67-.05h-1.69Zm0,2.28-.12-.1V24.23l.1-.1,1.67.05h1.69l1.67-.05.09.08v1.61l-.09.08-1.67,0h-1.69Zm3.26,2.26h-1.58V29.3h1.58Zm5.49-3.74V29c0,.63.11.66,1.5.66,1.66,0,1.87-.18,2-2l2,.67c.16.05.16.12.16.28-.06,1.44-.29,2.13-.74,2.53s-.93.69-3.61.69c-3.14,0-3.58-.27-3.58-2.05l0-2.91V24.4l0-1.86.09-.11,1.75.05H173v-3.2h-2.86l-1.88,0-.11-.12V17.4l.13-.09,1.94.05h2.89l2.07-.05.13.13,0,2V22l0,2.33-.15.11-1.89,0Z"/><path class="cls-6" d="M182.94,28.72l.06-.14a25,25,0,0,0,3.31-1.66l.09,1.71c0,.22,0,.25-.19.4a19.59,19.59,0,0,1-2.29,1.38l-.15,0-.58-1.15v1c0,.19-.09.26-.27.3a42.72,42.72,0,0,1-5,1.14l-.15,0-.69-1.75.11-.15c.89-.1,1.66-.18,2.4-.29v-.8l-.07.1-1.28.43-.13-.07a17.43,17.43,0,0,0-.64-2.39l.08-.14,1.25-.42.16.06a18.34,18.34,0,0,1,.63,2.24V25.66H179l-1.52,0-.11-.09V24.1l.09-.1,1.54.05h.57V23h0l-1.53,0-.11-.09V21.72l-1-.77A13.22,13.22,0,0,0,180,16.63l.15,0,1.83.69,0,.16c-.08.18-.17.34-.25.5A21.39,21.39,0,0,1,184,19.6v.16l-1.17,1.42-.21,0a17.83,17.83,0,0,0-1.75-1.64,19.54,19.54,0,0,1-1.43,1.83h2.06l1.59,0,.1.08V23l-.1.08-1.49,0v1h.3l1.59-.05.1.11v1.51l-.1.08-1.59,0h-.3v2.21A15.56,15.56,0,0,0,182,26.1l.16,0,1.3.43.08.13a9.92,9.92,0,0,1-.65,1.86c-.05.1-.12.11-.23.08l-1.07-.35v.9L183,28.8Zm5.81-4.27a11.7,11.7,0,0,0,.58,1.11c.43-.47.8-.92,1.2-1.43l.18,0,1.47,1.18v.16c-.64.62-1.19,1.15-1.76,1.6a11,11,0,0,0,2.18,2l-1.2,1.6c-.12.16-.21.23-.31.23a.35.35,0,0,1-.22-.12,8.83,8.83,0,0,1-2.15-3.16l.11,2.43c0,1.55-.66,2-2.67,2-.27,0-.33,0-.41-.19l-.81-1.7c.53,0,1.05,0,1.32-.05s.45-.1.45-.48V23.83h-1l-2.19,0-.11-.11V22.14l.11-.11,2.19,0h3l0-.68h-2.33l-2,.05-.12-.11V19.76l.12-.11,2,.05h2.41l0-.66h-2.68l-2.12.05L184,19V17.36l.11-.12,2.12.05h2.52l2.25-.05.11.12L191,19l-.14,3,1.41,0,.12.11v1.62l-.12.11-2.21,0h-1.3Zm-3.49,2.6h-.16a9.2,9.2,0,0,0-1.54-1.72v-.14l1.16-1h.16a10.37,10.37,0,0,1,1.65,1.54v.17Z"/><path class="cls-6" d="M197.82,29.68a2.28,2.28,0,1,1-2.28-2.26A2.23,2.23,0,0,1,197.82,29.68Zm-3.61,0a1.34,1.34,0,1,0,1.33-1.33A1.31,1.31,0,0,0,194.21,29.68Z"/><path class="cls-6" d="M93.36,67.83c0,.19,0,.43,0,.6A11.17,11.17,0,0,0,94.89,67h-4.6l-2,0L88.2,67V65.44l.11-.07,2,0h5.16l1.15-.06.82,1.09a.33.33,0,0,1,0,.16.32.32,0,0,1-.09.22,26.5,26.5,0,0,1-2.55,2.6c-.18.16-.24.16-.42,0l-1.06-.72a6.53,6.53,0,0,1-2.77,5.61.35.35,0,0,1-.21.08.54.54,0,0,1-.26-.09l-1.54-.79c2.42-1.39,2.91-2.88,2.86-5.72l.08-.09h1.79Z"/><path class="cls-6" d="M100.14,67.08a20.36,20.36,0,0,1,2,1.13A19.53,19.53,0,0,0,103.54,65l.09,0,1.72.65,0,.09a22.18,22.18,0,0,1-1.76,3.67,14.8,14.8,0,0,1,1.8,1.74v.12l-1.28,1.29h-.1a20.88,20.88,0,0,0-1.52-1.59,14.1,14.1,0,0,1-3.89,3.46.35.35,0,0,1-.16.06.33.33,0,0,1-.21-.1l-1.33-1a12.22,12.22,0,0,0,4.17-3.59,19.23,19.23,0,0,0-2.19-1.36v-.11L100,67.1Z"/><path class="cls-6" d="M109.47,67.22l.06,3.3h-2l.06-3.28v-2l.09-.08h1.65l.09.09Zm3.9,1.19a6.31,6.31,0,0,1-.84,3.89,6.08,6.08,0,0,1-2.83,2.19.67.67,0,0,1-.22.07c-.06,0-.12,0-.23-.13l-1.39-1a5.53,5.53,0,0,0,3-2,4.47,4.47,0,0,0,.63-2.85V65l.09-.08h1.7l.1.09Z"/><path class="cls-6" d="M120.72,68.31a7.59,7.59,0,0,1-.81,2.58,7.77,7.77,0,0,1-3.3,3.25.48.48,0,0,1-.14.06c-.06,0-.11,0-.22-.12l-1.31-1a6.73,6.73,0,0,0,3.24-2.91,6.46,6.46,0,0,0,.62-1.89h-1.07l-1.66,0-.08-.09V66.73l.11-.07,1.62,0H119c0-.52,0-1.1,0-1.76l.08-.09h1.74l.08.08c0,.65,0,1.24,0,1.77h1.93l1.43,0,.08.1a35.34,35.34,0,0,1-.5,5c-.36,1.53-.69,2.23-2.79,2.23-.31,0-.32,0-.4-.21L120,72.14c.45,0,.87,0,1.28,0s.6-.08.82-1a19,19,0,0,0,.32-2.85Z"/><path class="cls-6" d="M132,64.64c0,1.25-.05,2.26-.15,3.2a9,9,0,0,0,5,5.64l-1.1,1.44a.17.17,0,0,1-.13.07.58.58,0,0,1-.17-.06,9.18,9.18,0,0,1-4.2-4.47A8.32,8.32,0,0,1,126.92,75a.53.53,0,0,1-.15,0,.24.24,0,0,1-.11-.06l-1.16-1.3a7,7,0,0,0,4.21-4.5,17.35,17.35,0,0,0,.38-4.62l.08-.08,1.72.06Z"/><path class="cls-6" d="M142.11,72.79c-.12-.1-.22-.23-.32-.33a3.15,3.15,0,0,1-2.38,1.17,1.87,1.87,0,0,1-1.79-2.08,4.18,4.18,0,0,1,1.41-3.2c-.27-.59-.53-1.21-.8-1.89l0-.1,1.29-.58.1,0c.25.58.45,1.13.67,1.6a6.28,6.28,0,0,1,2.54-.7,13.3,13.3,0,0,0,.36-1.69l.11-.08,1.54.3.07.11c-.08.49-.23,1.15-.34,1.54a3.64,3.64,0,0,1,2.74,3.6c0,2.06-1.24,3.23-3.36,3.88a.34.34,0,0,1-.32-.08l-1.27-1.16c2.16-.42,3.22-1.31,3.22-2.61a2.21,2.21,0,0,0-1.45-2.26,14.9,14.9,0,0,1-1.34,2.85l.45.47v.11l-1,1.09Zm-3-1.47c0,.49.19.65.41.65s.66-.16,1.16-.75a13.61,13.61,0,0,1-1-1.51A3.1,3.1,0,0,0,139.16,71.32Zm3.29-3.15a4.33,4.33,0,0,0-1.49.48,11.64,11.64,0,0,0,.77,1.2A10.89,10.89,0,0,0,142.45,68.17Z"/><path class="cls-6" d="M151.74,73.46a1.65,1.65,0,1,1-1.64-1.64A1.61,1.61,0,0,1,151.74,73.46Zm-2.61,0a1,1,0,1,0,1-1A1,1,0,0,0,149.13,73.46Z"/><path class="cls-7" d="M208,62.5c-1-.76-2.53.27-2.92,1.48s-.15,2.55-.41,3.8a11.7,11.7,0,0,1-1,2.54,67,67,0,0,0-3.19,8.14,3,3,0,0,0-.23,1.5,2.84,2.84,0,0,0,.57,1.12l2,2.87a20.92,20.92,0,0,0,2.69,3.31C207.34,89,209.8,90,212,91.45a6.5,6.5,0,0,1,2.17,2c1.2,2,.42,4.65,1.27,6.82a21.14,21.14,0,0,0,14,.22,1.42,1.42,0,0,0,.7-.41,1.57,1.57,0,0,0,.11-1.23,23.82,23.82,0,0,1-.3-6.53,3.14,3.14,0,0,1,.21-1,3.21,3.21,0,0,1,.72-.89c4.08-3.85,9.7-6.35,12.23-11.36a2.37,2.37,0,0,0,.33-1.21,2.42,2.42,0,0,0-.37-1c-1-1.72-2.33-3.2-3.46-4.83a10.06,10.06,0,0,1-2.12-5.46c0-.83.1-1.77-.48-2.35a4.44,4.44,0,0,0-.81-.55,14.19,14.19,0,0,1-1.15-1,4.42,4.42,0,0,0-5.46-.08,1.1,1.1,0,0,0-.4.51c-.12.41.22.81.51,1.13a12.65,12.65,0,0,1,3.09,6.39,4.87,4.87,0,0,1,5.52,3.58l2.34,4.69c-1.16,1-2.76,1.38-4,2.26-1.08.75-1.89,1.84-3,2.57a24.81,24.81,0,0,1-3,1.45c-1.45.71-2.73,1.75-4.17,2.49-2.74,1.42-5.91,1.68-9,1.91a12.4,12.4,0,0,1-3.65-.07,12.88,12.88,0,0,1-4-1.89c-1.43-.9-2.95-1.89-3.59-3.45a20.76,20.76,0,0,0-1-3,6.21,6.21,0,0,0-1.1-1.25,5.23,5.23,0,0,1-1.71-2.58,5.33,5.33,0,0,1,.7-3.16c.53-1.15,1.09-2.3,1.67-3.42A5.84,5.84,0,0,1,206.05,69a15.15,15.15,0,0,1,2.44-1.34,3.65,3.65,0,0,0,1.83-4c-.45-1.5-2.61-2.3-3.72-1.2"/><path class="cls-7" d="M212.49,88.54a13.93,13.93,0,0,1-4.69-3.09c-2-2.29-2.28-5.58-2.46-8.62a30.26,30.26,0,0,1-.07-4.15A24.69,24.69,0,0,1,208,63.91,5.44,5.44,0,0,1,209.35,62a5.62,5.62,0,0,1,2.76-.94,33.6,33.6,0,0,1,4.23-.48,33,33,0,0,1,7.71,1,18.09,18.09,0,0,1,3,.81,17,17,0,0,1,3.79,2.33,9.86,9.86,0,0,1,3.5,3.79,9,9,0,0,1,.5,3.55c0,4-.65,8.15-2.72,11.6a7,7,0,0,1-1.77,2.09,9,9,0,0,1-2.59,1.16A53.29,53.29,0,0,1,220,89a18,18,0,0,1-7.94-.24"/><path class="cls-6" d="M218.37,71.71a5,5,0,0,0-.17,1.59,3.32,3.32,0,0,0,.33,1.42,1.11,1.11,0,0,0,1.05.63.87.87,0,0,0,.84-.85c0-.48-.77-.48-.75,0,0,.11,0,0,0,0s0,0,0,0v0h0s0,0,0,0,.06,0,0,0l-.07,0c.07,0-.13,0-.06,0a.37.37,0,0,1-.2-.14,1,1,0,0,1-.18-.38,3.94,3.94,0,0,1,0-2.18.38.38,0,0,0-.73-.2Z"/><path class="cls-2" d="M224.06,68.38l.1,2.87a.36.36,0,0,0,.06.2.26.26,0,0,0,.19.09,13.37,13.37,0,0,0,3.73.32l-.07-2.81a.7.7,0,0,0,0-.29c-.15-.3-.58-.25-.9-.18a10.94,10.94,0,0,1-3.33,0"/><path class="cls-6" d="M223.69,68.38l.07,1.94c0,.32,0,.65,0,1a.64.64,0,0,0,.49.6,11.06,11.06,0,0,0,1.9.3,14.25,14.25,0,0,0,2,0,.38.38,0,0,0,.37-.38l0-2.17a3.53,3.53,0,0,0-.07-1,.8.8,0,0,0-.62-.49,2.36,2.36,0,0,0-.79,0,5.67,5.67,0,0,1-1,.1,15.74,15.74,0,0,1-2.17-.17.38.38,0,0,0,0,.75c.63.08,1.25.15,1.88.17.32,0,.64,0,.95,0s.51-.09.77-.12a.53.53,0,0,1,.25,0s0,0,0,.07a1.68,1.68,0,0,1,0,.45v.47l0,2,.38-.37a13,13,0,0,1-3.35-.25l-.2,0s-.2-.08-.09,0,0,.07,0,0a1.48,1.48,0,0,1,0-.21l0-.84-.06-1.73c0-.48-.77-.49-.75,0Z"/><path class="cls-6" d="M224.91,71.67v1.8a.38.38,0,1,0,.75,0v-1.8a.38.38,0,0,0-.75,0Z"/><path class="cls-6" d="M225.79,72l.1,1.6a.38.38,0,0,0,.38.38.38.38,0,0,0,.37-.38l-.1-1.6a.38.38,0,0,0-.37-.37.38.38,0,0,0-.38.37Z"/><path class="cls-6" d="M226.62,72.17a7.09,7.09,0,0,0,.09,1.9.37.37,0,1,0,.72-.19,1.85,1.85,0,0,0,0-.23s0,0,0,0V73.6a.41.41,0,0,1,0-.11,3.11,3.11,0,0,1,0-.43,5.29,5.29,0,0,1,0-.89.37.37,0,0,0-.37-.37.38.38,0,0,0-.38.37Z"/><path class="cls-2" d="M209.51,68.38a15.13,15.13,0,0,0,.18,3.08.66.66,0,0,0,.21.45.6.6,0,0,0,.44.06l3.7-.3c.05,0,.1,0,.13,0a.23.23,0,0,0,0-.18l-.37-3.08c0-.08,0-.17-.09-.21a.31.31,0,0,0-.19,0l-4.45.56"/><path class="cls-6" d="M209.13,68.38a17.82,17.82,0,0,0,0,1.79c0,.3.06.6.1.89a2.91,2.91,0,0,0,.16.83c.26.57.86.46,1.37.42l1.8-.15.85-.07a2,2,0,0,0,.92-.14.61.61,0,0,0,.2-.65l-.11-.94-.21-1.79a1.1,1.1,0,0,0-.2-.66c-.22-.22-.51-.15-.79-.11l-4.14.52a.38.38,0,0,0,0,.75l4-.5a1.76,1.76,0,0,0,.46-.06c.09,0,.09,0,0-.05s-.09-.08-.08,0,0,.18,0,.23l.12,1,.12,1a4.6,4.6,0,0,1,.09.91l0-.18c.07-.13.05-.09-.09-.08l-.25,0-.45,0-.9.08c-.63,0-1.26.11-1.89.15-.07,0-.15,0-.2,0a.94.94,0,0,1-.07-.37c-.05-.31-.08-.62-.11-.94a17,17,0,0,1,0-1.89c0-.48-.73-.48-.75,0Z"/><path class="cls-6" d="M210.68,71.87a6.65,6.65,0,0,0,.2,2.39.38.38,0,0,0,.73-.2,5.75,5.75,0,0,1-.18-2.19.37.37,0,0,0-.37-.38.4.4,0,0,0-.38.38Z"/><path class="cls-6" d="M211.73,72v1.1a.38.38,0,0,0,.37.38.39.39,0,0,0,.38-.38V72a.38.38,0,0,0-.38-.37.38.38,0,0,0-.37.37Z"/><path class="cls-6" d="M212.92,72a9,9,0,0,0,.13,1.8.38.38,0,0,0,.47.26.4.4,0,0,0,.26-.46,1.55,1.55,0,0,1,0-.21s0-.08,0-.11,0,0,0,0,0-.28,0-.41c0-.28,0-.56,0-.84a.37.37,0,0,0-.37-.37.38.38,0,0,0-.38.37Z"/><path class="cls-2" d="M212.8,77.94a62,62,0,0,0,13.27-.82.37.37,0,0,1,.52.41l.17,6.2a121.52,121.52,0,0,1-13.63,0c0-2,0-4,0-6"/><path class="cls-6" d="M212.8,78.32a64.31,64.31,0,0,0,9.91-.34c.75-.09,1.51-.19,2.26-.3.24,0,1.06-.3,1.24-.15a4.42,4.42,0,0,1,0,1.21l.14,5,.38-.37a126.47,126.47,0,0,1-13.63,0l.37.37c0-2,0-4,0-6a.38.38,0,0,0-.75,0c0,2,0,4,0,6a.39.39,0,0,0,.38.38,126.47,126.47,0,0,0,13.63,0,.37.37,0,0,0,.37-.38L227,78.2c0-.49.1-1.24-.5-1.43a2.3,2.3,0,0,0-1,.08l-1.35.2a62.64,62.64,0,0,1-11.29.52c-.48,0-.48.73,0,.75Z"/><path class="cls-8" d="M196.2,53.19a22.16,22.16,0,0,1,7.22-3.69,1.64,1.64,0,0,1,1.27,0,1.6,1.6,0,0,1,.54.73,3,3,0,0,1,.38,1.77,1.22,1.22,0,0,1-1.26,1.08"/><path class="cls-8" d="M201.47,46.65A10.23,10.23,0,0,0,203,51.42"/><path class="cls-8" d="M195.93,48A36.12,36.12,0,0,1,203.4,60"/><path class="cls-8" d="M208.33,56.49a13.67,13.67,0,0,1,2.21-6.61,50.57,50.57,0,0,1,4.94,5.88"/><path class="cls-8" d="M214.86,44.43a24.59,24.59,0,0,0,1.19,5"/><path class="cls-8" d="M218.27,43.86V47"/><path class="cls-8" d="M222,51.82a52.57,52.57,0,0,0,10-.38"/><path class="cls-8" d="M236.93,57l12.53-23.93"/><path class="cls-8" d="M199,67.14q-15.3-9.28-30.21-19.2"/><path class="cls-8" d="M217.21,92.71V97.5a13.07,13.07,0,0,0,2.73-.91,7.39,7.39,0,0,0-2.69-1.41,2.74,2.74,0,0,1,1.59-.32c.55,0,1.2-.3,1.24-.85s-.57-.93-1.13-1a5.65,5.65,0,0,1-1.65-.17"/><path class="cls-8" d="M222,93.71a8.71,8.71,0,0,0,0,1.84,1.16,1.16,0,0,0,.47,1,.88.88,0,0,0,1-.34,1.43,1.43,0,0,0-1.14-2.32"/><path class="cls-8" d="M225.07,93.61v1.6a.7.7,0,0,0,.05.32.53.53,0,0,0,.31.23,1.11,1.11,0,0,0,1.34-1.17,1.46,1.46,0,0,0-1.49-1.2"/><g class="cls-4"><path class="cls-9" d="M225.24,77.9c0,.89.11,1.77.15,2.65,0,.64.19,1.79-.6,2.06-1,.36-.6,2.06.47,1.69,2.63-.91,1.85-4.27,1.73-6.4-.07-1.12-1.82-1.12-1.75,0Z"/></g><g class="cls-4"><path class="cls-9" d="M210.12,72.58l3.48-.16c1.12,0,1.12-1.8,0-1.75l-3.48.16c-1.12,0-1.13,1.8,0,1.75Z"/></g><g class="cls-4"><path class="cls-9" d="M224.2,71.45l3.7.76c1.1.22,1.57-1.47.47-1.69l-3.71-.75c-1.1-.23-1.57,1.46-.46,1.68Z"/></g><g class="cls-4"><path class="cls-9" d="M218.09,62.08c2.88.37,7.35.68,10,2.07,5.39,2.83,5.73,8.79,4.54,14.12-1.68,7.58-8.85,8.75-15.48,9.87-1.33.23-.77,2.25.56,2,4.08-.7,11.35-1.44,14.37-4.59,2.46-2.57,3.08-8,3.2-11.39s-.57-8.23-3.48-10.59c-3.43-2.78-9.46-3.08-13.69-3.62-1.33-.17-1.32,1.93,0,2.1Z"/></g><g class="cls-4"><path class="cls-9" d="M242.42,77.64c-1.31,6.5-8.82,7.93-12.53,12.48-2.23,2.73-1.57,6.92-1.1,10.14.2,1.34,2.22.77,2-.56-.5-3.33-.7-6.65,1.77-9.18,1.54-1.57,3.83-2.69,5.57-4.07,2.86-2.27,5.54-4.55,6.28-8.25.27-1.32-1.76-1.89-2-.56Z"/></g></g></g></svg>