<svg xmlns="http://www.w3.org/2000/svg" viewBox="0 0 278.26 115.93"><defs><style>.cls-1{fill:#f4b58e;}.cls-2,.cls-6{fill:#fff;}.cls-3{fill:#231f20;}.cls-4{fill:#f9b19d;}.cls-4,.cls-6,.cls-7,.cls-8,.cls-9{stroke:#231f20;stroke-miterlimit:10;stroke-width:0.6px;}.cls-5{fill:#6d6e71;}.cls-7{fill:#f2cf9a;}.cls-8{fill:#9e684f;}.cls-9{fill:none;}.cls-10{opacity:0.14;}.cls-11{fill:#896b4a;}</style></defs><g id="Layer_2" data-name="Layer 2"><g id="Layer_1-2" data-name="Layer 1"><rect class="cls-1" x="1.75" y="1.75" width="274.76" height="112.43"/><path class="cls-2" d="M276.51,112.43H1.75l1.75,1.75V1.75L1.75,3.5H276.51l-1.75-1.75V114.18a1.75,1.75,0,0,0,3.5,0V1.75A1.77,1.77,0,0,0,276.51,0H1.75A1.77,1.77,0,0,0,0,1.75V114.18a1.78,1.78,0,0,0,1.75,1.75H276.51A1.75,1.75,0,0,0,276.51,112.43Z"/><path class="cls-3" d="M19.94,25.85c0,.28,0,.63,0,.89A16.65,16.65,0,0,0,22,24.66h-6.3L13,24.71l-.11-.13V22.35l.14-.1,2.68.05h7.06l1.59-.08,1.11,1.59a.49.49,0,0,1,.08.24.46.46,0,0,1-.13.32,36.78,36.78,0,0,1-3.49,3.81c-.25.24-.33.24-.57.07L19.89,27.2c-.16,3.65-1.06,6.06-3.79,8.22a.42.42,0,0,1-.29.12.85.85,0,0,1-.35-.13l-2.11-1.16c3.32-2,4-4.22,3.92-8.38l.11-.14h2.45Z"/><path class="cls-3" d="M29.21,24.75a27.18,27.18,0,0,1,2.69,1.66,30.22,30.22,0,0,0,2-4.77l.12-.05,2.35.95.05.13A32.82,32.82,0,0,1,34,28.05a21.18,21.18,0,0,1,2.46,2.55v.18L34.7,32.67h-.15a27.39,27.39,0,0,0-2.08-2.33,19.9,19.9,0,0,1-5.31,5.07.46.46,0,0,1-.22.08.43.43,0,0,1-.29-.13l-1.82-1.45a17.24,17.24,0,0,0,5.71-5.25,24.82,24.82,0,0,0-3-2V26.5L29,24.78Z"/><path class="cls-3" d="M42,25,42,29.8H39.38L39.46,25V22l.12-.12h2.26L42,22ZM47.3,26.7c0,2.91-.24,4.17-1.15,5.7a8.41,8.41,0,0,1-3.87,3.21.69.69,0,0,1-.3.1c-.08,0-.16-.07-.32-.19L39.76,34a7.47,7.47,0,0,0,4.09-2.89c.76-1.22.86-2.24.86-4.16V21.69l.13-.12h2.33l.13.14Z"/><path class="cls-3" d="M57.35,26.55a11.55,11.55,0,0,1-1.11,3.79,10.93,10.93,0,0,1-4.52,4.76.45.45,0,0,1-.19.09c-.08,0-.14-.06-.3-.17l-1.79-1.43a9,9,0,0,0,5.28-7H53.26L51,26.6l-.11-.13V24.24l.14-.1,2.22.05H55c0-.77.07-1.62.07-2.59l.11-.13h2.38l.11.12c0,.95,0,1.82-.06,2.6h2.65l2-.05.11.15a55.65,55.65,0,0,1-.68,7.31c-.5,2.24-1,3.26-3.83,3.26-.41,0-.43,0-.54-.3l-.93-2.38c.62,0,1.19,0,1.76,0s.81-.12,1.11-1.48a27.81,27.81,0,0,0,.44-4.18Z"/><path class="cls-3" d="M64.8,27.06l-.53-2.24.07-.14c4.42-1.16,8-1.94,12.44-2.8l.14.08.46,2.26-.11.15A7.42,7.42,0,0,0,73,25.7a6,6,0,0,0-2.3,4.42,2.13,2.13,0,0,0,1.54,2.29,12.33,12.33,0,0,0,3.79.38l.11.12L76,35.49l-.13.1a11.73,11.73,0,0,1-5-.78,4.44,4.44,0,0,1-2.55-4.45,6.68,6.68,0,0,1,2.12-4.8c-1.55.41-3.25.89-5.5,1.57Zm10,0,.83-.62.15,0a10.35,10.35,0,0,1,1.62,1.8v.17l-.87.66H76.4a11,11,0,0,0-1.57-1.83ZM76.33,26l.81-.63h.16a9.43,9.43,0,0,1,1.57,1.75v.17l-.83.64h-.16a10,10,0,0,0-1.55-1.76Z"/><path class="cls-3" d="M79.66,23.61l-.11-.1V21.67l.1-.1,1.84.05h2l1.89-.05.09.08v1.87l-.09.09-1.75,0v2.53l.84,0-.27-.27a12.59,12.59,0,0,0,4-5.45l.17-.06,2.15.57,0,.17c-.08.17-.15.34-.23.49a15.1,15.1,0,0,0,4.52,4.2l-1.3,1.82c-.16.23-.24.34-.34.34s-.14-.06-.27-.14a15.41,15.41,0,0,1-3.72-4.2,15.34,15.34,0,0,1-3,3.66.65.65,0,0,1-.37.17.38.38,0,0,1-.27-.14l-.47-.49V28l-.1.09-1.38,0V31c.68-.2,1.3-.4,1.81-.59l0,1a14,14,0,0,0,5.69-3.34h.16l1.53,1.31v.21a19.37,19.37,0,0,1-5.65,3.46.85.85,0,0,1-.26.07c-.11,0-.19,0-.3-.18l-1.17-1.35v.48c0,.3-.06.42-.33.53-1.1.44-3.38,1.19-4.94,1.64L80,34.2l-.63-2,.08-.15c.63-.14,1.31-.31,2-.48V28.06l-1.58,0L79.77,28V26.16l.1-.1,1.59.05V23.58Zm14.87,8.58a17,17,0,0,1-9.42,4.27c-.24,0-.39,0-.51-.14l-1.16-1.76a15.08,15.08,0,0,0,9.22-3.91h.17L94.53,32ZM91,27a16.6,16.6,0,0,1-4.37,3.21.46.46,0,0,1-.22.07c-.08,0-.14,0-.22-.16L85,28.69a11,11,0,0,0,4.47-3.19h.16L91,26.82Z"/><path class="cls-3" d="M102.35,31.07a2.34,2.34,0,0,0,.08.89c.07.13.42.25,1.13.25a28.24,28.24,0,0,0,3.33-.17l.11.1.07,2.33-.1.12a35.62,35.62,0,0,1-3.73.15c-1.79,0-2.52-.23-3.06-1a3.4,3.4,0,0,1-.4-2.09V29.44h-1.9l-2,0-.11-.13V27.2l.14-.11,2,.06h1.88V25h-.65L97,25l-.11-.14V22.73l.14-.11,2,.05h5.2l2.19-.05.13.12v2.14l-.11.14L104.34,25h-2v2.18H106l2.16-.06.13.12v2.15l-.11.13-2.08,0h-3.75Z"/><path class="cls-3" d="M117.79,22.16l2.49.94,0,.17c-1.74,5.35-4.27,8.77-8.31,11.58-.18.1-.26.15-.35.15s-.16,0-.29-.15l-2.06-1.5a16.87,16.87,0,0,0,8.31-11.13Z"/><path class="cls-3" d="M122,29.8a19.48,19.48,0,0,0,4-4.34c-.76.07-1.56.09-2.3.09l-.1-.1-.06-2.09.11-.11c1.19,0,2.36,0,3.54-.12a18.91,18.91,0,0,0,.74-2.27l.13-.09,2.18.34.09.12c-.19.59-.38,1.1-.55,1.6.79-.14,1.58-.29,2.38-.5l.14.09.16,2-.1.15c-1.16.25-2.46.47-3.78.64a15.39,15.39,0,0,1-.92,1.35,4.24,4.24,0,0,1,1.5-.22A2,2,0,0,1,131,28c1-.41,2.13-.83,3.37-1.28l.16.07,1,2.09-.08.16a41.5,41.5,0,0,0-4.14,1.34c0,.66,0,1.49.06,2.31l-.11.1-2.09.09-.13-.11V31.36c-1,.49-1.51,1-1.51,1.55s.64.73,2,.75a27.61,27.61,0,0,0,4.14-.36l.16.1.14,2.26-.09.14c-1.51.13-2.84.22-4.7.22-3.21,0-4-1.45-4-2.91,0-1.63,1.29-2.77,2.76-3.67q.44-.26,1-.51a.72.72,0,0,0-.8-.65,2.9,2.9,0,0,0-1.81.6,24.24,24.24,0,0,0-2.76,2.75l-.16,0L122,30Z"/><path class="cls-3" d="M148.78,27.15v2.17l0,1.48c.05,0,.08-.09.13-.14h.14l1.5,1.4,0,.17a17.61,17.61,0,0,1-2.51,1.63,13.77,13.77,0,0,0,3.68.78l-1.2,1.94c-.08.12-.26.1-.37.08a11,11,0,0,1-4.28-1.73,9,9,0,0,1-1.45-1.32L144.31,35c0,.2-.1.29-.27.32-1.89.41-4.21.85-6.68,1.24l-.15-.05-.68-2,.11-.15c.86-.09,1.67-.17,2.43-.28l0-6.95,0-1.07-.85.41a.79.79,0,0,1-.26.08c-.08,0-.12,0-.17-.11l-1.41-1.81a15.5,15.5,0,0,0,6.92-4.42l.17,0,2,.53.05.17-.17.22a16.51,16.51,0,0,0,6.41,3.15l-1.13,2c-.08.14-.11.21-.19.21a.55.55,0,0,1-.18-.05c-.49-.19-1-.41-1.46-.65ZM143,23.86l.12-.13H145l.11.12v1.32h2.43A22.46,22.46,0,0,1,144,22.62a18.12,18.12,0,0,1-3.28,2.54H143Zm-1.69,2.89v.82h5.31v-.82Zm0,2.32V30h5.31v-.88Zm0,2.48v2.26c1-.15,1.93-.32,2.9-.51a10.42,10.42,0,0,1-1.08-1.75Zm4,0a8,8,0,0,0,1.13,1.26A13.13,13.13,0,0,0,148,31.58l-1.62,0Z"/><path class="cls-3" d="M153.45,28.54l-.61-2.23.08-.15c1.1-.27,2.29-.68,3.27-1a8.76,8.76,0,0,1,2.16-.48c2,0,3.35,1.59,3.35,4.78,0,4.1-2,5.87-5.37,6.77a.25.25,0,0,1-.27-.14l-1.5-1.94c3.17-.71,4.54-2,4.54-4.32,0-1.92-.34-2.6-1-2.6a5.64,5.64,0,0,0-1.62.43c-.84.27-1.86.61-2.89.92Zm1.5-5.88.59-2.13.14-.05a21.27,21.27,0,0,0,4.76.82l.1.12-.37,2.33-.12.08a32.32,32.32,0,0,1-5-1Z"/><path class="cls-3" d="M168.35,34.1a2.26,2.26,0,1,1-2.26-2.4A2.29,2.29,0,0,1,168.35,34.1Zm-3.57,0a1.32,1.32,0,1,0,1.31-1.41A1.34,1.34,0,0,0,164.78,34.1Z"/><path class="cls-4" d="M182.11,75.53C174.29,70.4,171,58.59,175,49.73a15.3,15.3,0,0,1,3.37-4.91,16.86,16.86,0,0,1,6.84-3.64C189,40,193,39.59,196.73,40.94c5.63,2.05,9.5,8.27,9.8,14.64a22.17,22.17,0,0,1-7.15,16.82,6.3,6.3,0,0,0-2.22,3,6.21,6.21,0,0,0,.07,2.19q1.83,11.55,4.46,22.93a1.79,1.79,0,0,1,0,1.35,1.48,1.48,0,0,1-.92.54,41.14,41.14,0,0,1-15.4,1.47,1.9,1.9,0,0,1-1.11-.37,2.16,2.16,0,0,1-.52-1.06A60.45,60.45,0,0,1,182,80.49a97.77,97.77,0,0,0-14.85,10.08,58.21,58.21,0,0,1-6.08-12.91,4.51,4.51,0,0,1-4.89-2,5.31,5.31,0,0,1,.08-5.6A2.79,2.79,0,0,1,158,71.86l1.05-3.4,1.6,2.6,1.37-2.13c-.24,5.31,2.95,10,6,14.22a2.49,2.49,0,0,0,1.06,1,2.29,2.29,0,0,0,1.61-.22c4.49-1.78,9.45-4,11.27-8.78"/><path class="cls-5" d="M159.58,68.87l-1-5.8a1.73,1.73,0,0,0-.41-1,2.21,2.21,0,0,0-.83-.4c-1.82-.65-2.69-2.88-2.9-4.92a5.49,5.49,0,0,1,.49-3.34,2.15,2.15,0,0,1,2.76-1,3.47,3.47,0,0,1,1.28,2,30,30,0,0,1,1.07,4.3c.17,1,.29,2,.4,3l1,8.11"/><path class="cls-3" d="M159.82,68.81c-.32-1.82-.63-3.65-.95-5.47a2.52,2.52,0,0,0-.48-1.41c-.39-.4-1-.44-1.49-.73a5.2,5.2,0,0,1-2-3.32,6.2,6.2,0,0,1,.27-4.47,1.73,1.73,0,0,1,2.84-.48,4.91,4.91,0,0,1,.82,1.8,29.6,29.6,0,0,1,1.08,4.65c.53,3.46.86,7,1.27,10.43,0,.22.51.1.48-.13-.38-3.2-.72-6.41-1.15-9.6a31.42,31.42,0,0,0-.88-4.42,6.84,6.84,0,0,0-1.37-3.15c-1.46-1.38-3.43.11-3.9,1.66a7.65,7.65,0,0,0,1.38,6.61,3.6,3.6,0,0,0,1.16.89,4.42,4.42,0,0,1,1,.47,1.71,1.71,0,0,1,.5,1.16c.33,1.88.65,3.76,1,5.64,0,.22.52.1.48-.13Z"/><path class="cls-6" d="M182.66,63.37a43.68,43.68,0,0,0,.73,4.39,1.18,1.18,0,0,0,.4.76,1,1,0,0,0,.58.08l12.52-.72a1,1,0,0,0,.68-.22,1.12,1.12,0,0,0,.19-.72l.06-3.37a1.4,1.4,0,0,0-.16-.83c-.23-.34-.7-.35-1.1-.33l-11.1.59a3.51,3.51,0,0,0-2,.53,1.43,1.43,0,0,0-.33,2"/><path class="cls-6" d="M197.1,50.53v1.71c0,.19,0,.42.17.51a.54.54,0,0,0,.31,0l3-.2V50.81a.3.3,0,0,0-.05-.21.28.28,0,0,0-.22-.06l-3.18.15"/><path class="cls-4" d="M198.06,53a7,7,0,0,1-.27,2.36"/><path class="cls-4" d="M199,52.79l.2,3.17"/><path class="cls-4" d="M199.88,52.79a2.73,2.73,0,0,0,.17,1.13"/><path class="cls-6" d="M182.73,51a15.13,15.13,0,0,0,.23,2.42.2.2,0,0,0,.07.15s.1,0,.15,0l2.22-.16a.19.19,0,0,0,.2-.25V51.64a.47.47,0,0,0-.09-.33.36.36,0,0,0-.27-.06,18.45,18.45,0,0,0-2.58.22"/><path class="cls-4" d="M183.31,53.7l-.8,1"/><path class="cls-4" d="M184,53.89v1.39"/><path class="cls-4" d="M185,53.62V55.2"/><path class="cls-4" d="M185.48,53.55a7.91,7.91,0,0,0,.79,1.72"/><path class="cls-4" d="M190.11,53.54a11.58,11.58,0,0,0,.42,3.58,8.92,8.92,0,0,1,.08,1.16,1.64,1.64,0,0,1-.11.7.55.55,0,0,1-.54.34c-.25,0-.4-.33-.49-.59A6,6,0,0,1,189.1,57"/><path class="cls-5" d="M188.08,68.64l.35,9a.68.68,0,0,0,.12.45c.25.24.62-.09.79-.4a8.82,8.82,0,0,0,.83-6.1,137.82,137.82,0,0,1,2.65,14.27,165.82,165.82,0,0,0,.51-18.52"/><path class="cls-3" d="M187.84,68.71l.22,5.74c0,1,.06,1.91.11,2.86,0,.39,0,.9.45,1,.93.15,1.39-1.47,1.58-2.08a9.28,9.28,0,0,0,.21-4.71l-.48.13a141.23,141.23,0,0,1,2.65,14.28c0,.17.47,0,.48-.1a169,169,0,0,0,.51-18.56c0-.16-.49-.06-.49.13a165.34,165.34,0,0,1-.5,18.49l.48-.09a141.23,141.23,0,0,0-2.65-14.28c0-.17-.52,0-.48.13a9.37,9.37,0,0,1,0,3.73,5.77,5.77,0,0,1-.7,2c-.15.22-.34.62-.58.28-.13-.18,0-.78-.05-1l-.31-8.07c0-.16-.49-.06-.48.13Z"/><path class="cls-7" d="M227.69,111.91c-10.76.43-33.23.08-33.23.08l-27.11.28S204.49,78,218.85,59.5a2,2,0,0,1,1-.82A1.88,1.88,0,0,1,221,59l25.3,12.16a368.1,368.1,0,0,1-16.12,36.83Z"/><path class="cls-6" d="M220.54,103.36c-3.09-.44-6.44.7-9.23-.77a8.48,8.48,0,0,1-3.52-4.13,14.75,14.75,0,0,1-.44-10.72A13.45,13.45,0,0,1,214.27,80a12.17,12.17,0,0,1,15,4.47c3.19,4.94,2.4,12.44-1.88,16.32A13.89,13.89,0,0,1,220,104"/><path class="cls-8" d="M219.21,85.41A1.69,1.69,0,0,1,221,85.3,1.94,1.94,0,0,1,222,87a3.3,3.3,0,0,1-1.29,2.31l2.86,1.64a1.87,1.87,0,0,1,.83.74,1.36,1.36,0,0,1-.37,1.5,3,3,0,0,1-1.42.64c.55.8,1.88.4,2.53,1.12a1.6,1.6,0,0,1-.31,2.14,3.65,3.65,0,0,1-2.14.7c-2.25.22-4.51.24-6.76.26a3.79,3.79,0,0,1-1.64-.24,1.43,1.43,0,0,1-.84-1.4,1.56,1.56,0,0,1,1.23-1.17,16.37,16.37,0,0,0,1.72-.35,22.91,22.91,0,0,1-2.62,0,1.81,1.81,0,0,1-.92-.22c-.72-.46-.54-1.74.13-2.29a3.94,3.94,0,0,1,2.41-.64,3.49,3.49,0,0,0,2.37-.75l-3-.08a.48.48,0,0,1-.37-.11.63.63,0,0,1-.07-.47,7.39,7.39,0,0,1,.79-2.88,2.2,2.2,0,0,1,2.4-1.17,5.52,5.52,0,0,1-3.3-2.21c.55-.36,1.23.14,1.77.53a5.66,5.66,0,0,0,3.15,1.05"/><path class="cls-9" d="M210,36.3q11-9.58,21.55-19.74"/><path class="cls-9" d="M216.39,54.62Q239.16,56.5,261.78,60"/><path class="cls-9" d="M221.61,37h4.76"/><path class="cls-9" d="M221.15,40.66h7.72"/><path class="cls-9" d="M224.18,33.37A16,16,0,0,0,225.36,42a9.32,9.32,0,0,1,1.09,3.29c0,1.17-.79,2.47-1.88,2.36a1.52,1.52,0,0,1-1.28-1.29,1.71,1.71,0,0,1,.79-1.69c1.69-1,3.63,1.72,5.45,1.09"/><path class="cls-9" d="M234.55,35.29a50.43,50.43,0,0,0,7.27-.14"/><path class="cls-9" d="M239,32.64l.15,9.4a1.72,1.72,0,0,1-.05.6,1,1,0,0,1-1.69.18,3.28,3.28,0,0,1-.64-2,3.22,3.22,0,0,1,.19-1.75c.27-.52,1-.83,1.41-.45a1.69,1.69,0,0,1,.4,1.07c.32,2.82.5,5.67.55,8.52"/><path class="cls-9" d="M244.31,30.69v3.65"/><path class="cls-9" d="M247,30.93v3.65"/><path class="cls-9" d="M244.63,44.72a5.17,5.17,0,0,1,2.22-.53,1.85,1.85,0,0,1,1.71,1.38,1.48,1.48,0,0,1-1.05,1.68"/><g class="cls-10"><path class="cls-11" d="M175.8,46.88c-5,7.9-5.11,25.75,4.93,30.22,1.22.55,2.29-1.26,1.06-1.81-9-4-8.6-20.41-4.18-27.35.73-1.14-1.09-2.19-1.81-1.06Z"/></g><g class="cls-10"><path class="cls-11" d="M180.78,81.69a40.17,40.17,0,0,0,1.64,15.71c.39,1.29,2.42.74,2-.56a38.66,38.66,0,0,1-1.56-15.15c.13-1.35-2-1.34-2.1,0Z"/></g><g class="cls-10"><path class="cls-11" d="M196.17,63.14a6.37,6.37,0,0,1-1.12,3.61c-.76,1.12,1,2.17,1.81,1.06a8.33,8.33,0,0,0,1.41-4.67,1.05,1.05,0,0,0-2.1,0Z"/></g><g class="cls-10"><path class="cls-11" d="M167.63,90.51c5.47-1.5,9.83-5.07,14-8.82,1-.91-.48-2.39-1.48-1.49-3.87,3.52-7.9,6.88-13,8.28a1.05,1.05,0,0,0,.56,2Z"/></g><g class="cls-10"><path class="cls-11" d="M153.87,52.09c-1.3,2.8-2.06,5.75.14,8.33.86,1,2.4,1.23,3.17,2.07,1,1.1.82,4.38,1.37,5.92.45,1.26,2.48.72,2-.56a16.27,16.27,0,0,1-.71-4.7c-.05-.88,0-1.22-.61-1.87s-1.56-.8-2.35-1.28c-2.71-1.65-2.43-4.22-1.22-6.85.57-1.22-1.24-2.28-1.81-1.06Z"/></g><g class="cls-10"><path class="cls-11" d="M154.67,74.57a15.45,15.45,0,0,0,3,2.57A7.13,7.13,0,0,1,161.06,81a42.8,42.8,0,0,0,5.31,9c.81,1.07,2.64,0,1.82-1.06a56.08,56.08,0,0,1-5.93-10.55c-1.23-2.57-4.15-3.25-6.11-5.32-.93-1-2.42.5-1.48,1.48Z"/></g><g class="cls-10"><path class="cls-11" d="M214.9,85.37a6.4,6.4,0,0,0-2.11,6.55l.48-1.19c-3.33,1.71-1.72,5-.4,7.55.63,1.2,2.45.14,1.81-1.06s-2.34-3.65-.35-4.68a1.07,1.07,0,0,0,.49-1.18,4.32,4.32,0,0,1,1.56-4.5c1.05-.86-.44-2.34-1.48-1.49Z"/></g><g class="cls-10"><path class="cls-11" d="M211.17,80.35c-5.42,2.14-7.37,10-6.08,15.23.73,3,2.51,7.81,5.12,9.55s7.53.79,10.62.75a1.05,1.05,0,0,0,0-2.1c-2.08,0-4.93.57-7,.09-3.61-.85-4.81-3.61-6-6.61-1.65-4.29-1.52-12.78,3.82-14.88,1.24-.49.7-2.52-.56-2Z"/></g><g class="cls-10"><path class="cls-11" d="M217.09,58.83,168,111.43c-.92,1,.56,2.48,1.48,1.49l49.13-52.6c.92-1-.56-2.48-1.48-1.49Z"/></g></g></g></svg>