<svg xmlns="http://www.w3.org/2000/svg" viewBox="0 0 278.26 115.93"><defs><style>.cls-1{fill:#f7be68;}.cls-2{fill:#fff;}.cls-3{fill:#231f20;}.cls-4{fill:none;}.cls-4,.cls-5,.cls-6{stroke:#231f20;stroke-miterlimit:10;stroke-width:0.6px;}.cls-5{fill:#f9b19d;}.cls-6{fill:#c6c193;}.cls-7{fill:#b3b5b8;}.cls-8{opacity:0.14;}.cls-9{fill:#896b4a;}</style></defs><g id="Layer_2" data-name="Layer 2"><g id="Layer_1-2" data-name="Layer 1"><rect class="cls-1" x="1.75" y="1.75" width="274.76" height="112.43"/><path class="cls-2" d="M276.51,112.43H1.75l1.75,1.75V1.75L1.75,3.5H276.51l-1.75-1.75V114.18a1.75,1.75,0,0,0,3.5,0V1.75A1.77,1.77,0,0,0,276.51,0H1.75A1.77,1.77,0,0,0,0,1.75V114.18a1.78,1.78,0,0,0,1.75,1.75H276.51A1.75,1.75,0,0,0,276.51,112.43Z"/><path class="cls-3" d="M24.45,24.44c0,.24,0,.55,0,.78a16.36,16.36,0,0,0,2-1.83h-6l-2.6,0-.1-.12v-2l.13-.09,2.54.05h6.69l1.5-.08,1.05,1.41a.4.4,0,0,1,.08.22.42.42,0,0,1-.12.28,34.24,34.24,0,0,1-3.31,3.37c-.24.21-.31.21-.54.06l-1.38-.94c-.15,3.24-1,5.37-3.59,7.28a.5.5,0,0,1-.27.11.7.7,0,0,1-.33-.13l-2-1c3.14-1.8,3.77-3.72,3.71-7.41l.1-.12h2.32Z"/><path class="cls-3" d="M33.23,23.46a28.18,28.18,0,0,1,2.56,1.47,26.42,26.42,0,0,0,1.85-4.22l.12,0,2.22.84,0,.12a28.1,28.1,0,0,1-2.28,4.75,19.83,19.83,0,0,1,2.33,2.25l0,.17-1.66,1.66H38.3a25.53,25.53,0,0,0-2-2.05,18.26,18.26,0,0,1-5,4.47.4.4,0,0,1-.21.08.44.44,0,0,1-.27-.12l-1.73-1.28a15.83,15.83,0,0,0,5.41-4.64,24,24,0,0,0-2.84-1.78V25l1.42-1.52Z"/><path class="cls-3" d="M45.31,23.64l.08,4.29H42.86l.08-4.26V21l.12-.1h2.13l.12.12Zm5,1.55c0,2.57-.22,3.68-1.08,5a7.84,7.84,0,0,1-3.66,2.85,1.1,1.1,0,0,1-.29.09c-.08,0-.15-.06-.3-.17l-1.8-1.34A7.11,7.11,0,0,0,47.1,29.1a5.79,5.79,0,0,0,.82-3.68V20.76l.12-.11h2.2l.12.12Z"/><path class="cls-3" d="M59.89,25.05a9.83,9.83,0,0,1-1,3.36,10,10,0,0,1-4.28,4.2.42.42,0,0,1-.18.08c-.08,0-.14,0-.29-.15l-1.7-1.26A8.71,8.71,0,0,0,56.6,27.5a8.3,8.3,0,0,0,.8-2.45H56l-2.15.05L53.76,25V23l.14-.09L56,23h1.64c0-.67.06-1.42.06-2.28l.11-.12h2.25l.1.11c0,.84,0,1.6-.06,2.29h2.51l1.85,0,.11.14a45.81,45.81,0,0,1-.65,6.46c-.46,2-.9,2.88-3.62,2.88-.39,0-.41,0-.51-.27L58.9,30c.59,0,1.13,0,1.67,0s.77-.11,1-1.31a23.17,23.17,0,0,0,.42-3.7Z"/><path class="cls-3" d="M66.94,25.51l-.49-2,.06-.12c4.19-1,7.54-1.71,11.78-2.48l.14.08.43,2-.1.13a7.37,7.37,0,0,0-4.05,1.17,5.15,5.15,0,0,0-2.18,3.91,1.91,1.91,0,0,0,1.46,2,12.33,12.33,0,0,0,3.59.33l.11.11L77.57,33l-.12.09a12.07,12.07,0,0,1-4.75-.69,3.91,3.91,0,0,1-2.42-3.94,5.75,5.75,0,0,1,2-4.24c-1.47.36-3.08.78-5.21,1.39Zm9.52,0,.78-.55.15,0a10.11,10.11,0,0,1,1.53,1.6v.15l-.83.58h-.15a9.91,9.91,0,0,0-1.49-1.62Zm1.41-.94.77-.56h.15a8.73,8.73,0,0,1,1.48,1.55v.15l-.78.57h-.15a8.78,8.78,0,0,0-1.48-1.57Z"/><path class="cls-3" d="M86.66,22.72a19.7,19.7,0,0,1-.89,6.83,13,13,0,0,1,1.3,1.14l0,.15-1.23,1.41h-.15a12.62,12.62,0,0,0-.86-.93,8.81,8.81,0,0,1-2.49,2.18.48.48,0,0,1-.2.07.24.24,0,0,1-.19-.12l-1.1-1.32a6.51,6.51,0,0,0,2.46-2l-.63-.41-.15.5-.15.06-1.47-.57-.06-.14A51.54,51.54,0,0,0,82,24.44l-1,0-.1-.11V22.72l.1-.1,1.28,0c.14-.95.26-1.92.38-2.95l.1-.1,1.76.25.11.11-.41,2.7h.54l1.81,0Zm-2.73,1.7c-.23,1.18-.46,2.33-.77,3.49.33.15.66.33,1,.51a16.19,16.19,0,0,0,.63-4Zm9.21-1.85,2,0,.09.08v1.71l-.09.07-2,0H91.89v2.72h.66L94.4,27l.11.11-.05,1.62v1.69l.08,3.23H92.37v-.83h-3v.92H87.29l.08-3.39V28.75l-.05-1.62.09-.11,1.87.05h.51V24.35H89l-2,0-.1-.09V22.62l.09-.09,2,0h.8V19.72l.1-.12h1.9l.1.1v2.87Zm-.77,8.6V28.74h-3v2.43Z"/><path class="cls-3" d="M99.19,30l.07.17a15,15,0,0,1-1.4,3.16l-.15,0-1.81-.81,0-.15a14.1,14.1,0,0,0,1.42-2.93l.13-.08Zm2.06-8.91a14.45,14.45,0,0,0,.64-1.49l.12-.09,2.16.36.09.14c-.16.31-.41.7-.63,1.08h2l2.24,0,.11.1,0,2v3l0,2.52-.11.11-2.24-.05h-1.85A6.4,6.4,0,0,1,105,30l0,.15-1.54,1-.13,0A7.34,7.34,0,0,0,102,29.43l0-.15,1-.56h-2.74L98,28.77l-.1-.11,0-2.52v-3l0-2L98,21l2.24,0Zm5.94,10a7,7,0,0,0-.74-.9l0-.15,1.49-.86.17,0a12.21,12.21,0,0,1,2.13,2.63l0,.15-1.7,1.1-.15,0a14.85,14.85,0,0,0-1.11-1.85.38.38,0,0,1,0,.15,2.69,2.69,0,0,1-.71,1.7c-.51.45-1.1.64-4.06.64-2.48,0-2.91-.25-2.91-1.35l0-1.25V29.47l.1-.12h1.94l.12.14v1.8c0,.36,0,.39,1,.39,1.44,0,1.85,0,2.15-.27s.3-.48.37-1.22Zm-1.35-7.8v-.68H100v.68Zm0,2v-.68H100v.68Zm-5.85,2h5.85v-.71H100Z"/><path class="cls-3" d="M113.16,20.91l2.07.28.09.12a13.67,13.67,0,0,1-.69,3.26,13.68,13.68,0,0,0-.56,3.49,7.52,7.52,0,0,0,.09,1.52c0,.19.2.21.43,0a12,12,0,0,0,.76-1l.44.22a10.45,10.45,0,0,0-.71,3.17,1,1,0,0,1-1,1.12c-.6,0-1-.32-1.3-.92a8,8,0,0,1-.76-3.94,20.86,20.86,0,0,1,.67-4.57A13.35,13.35,0,0,0,113,21ZM124,32a23.38,23.38,0,0,1-3.53.24c-3,0-3.82-1.52-4.18-3.19l.08-.13,1.61-.74.13.05c.29,1.41.87,1.86,2.89,1.85a17.82,17.82,0,0,0,2.81-.32l.13.09.14,2Zm-6.55-9.61,1.44,0a23.88,23.88,0,0,0,4.24-.36l.11.09.09,1.9-.09.12a22.4,22.4,0,0,1-4.35.37c-.48,0-.94,0-1.42,0l-.11-.13V22.54Z"/><path class="cls-3" d="M17.69,48.82v-2l.14-.09,2,0h2.87V43H21.36L19.12,43,19,42.91v-2l.14-.09,2.22,0h5.34l1.91,0,.13.09v2l-.1.12L26.78,43H25.13v3.81h2.81l2.09,0,.14.09v2l-.11.12-2.06,0H19.81l-2,0Z"/><path class="cls-3" d="M31.59,41.69l1.46-1.64.15,0a15.61,15.61,0,0,1,3,2.08v.15l-1.56,1.82h-.14a17.11,17.11,0,0,0-2.94-2.25Zm11.65,1.25a.7.7,0,0,1,.06.28c0,.11,0,.17-.15.28a29.4,29.4,0,0,1-9.9,6.94l-.15,0-1.36-2,0-.15a27.15,27.15,0,0,0,10.64-7.65Z"/><path class="cls-3" d="M44.65,44.68l.81-1.86.14-.06a12.37,12.37,0,0,0,3.08,1l.08.12-.62,2L48,46a10.05,10.05,0,0,1-3.3-1.14Zm12.28-1a.93.93,0,0,1,0,.24c0,.1,0,.18-.17.31a25.26,25.26,0,0,1-9.89,6.39l-.16,0-1.28-2,0-.17a22.93,22.93,0,0,0,10.74-7.12ZM46.2,41l1.22-1.62.18,0A13.47,13.47,0,0,1,50.47,41l0,.17-1.25,1.71-.16,0a12.87,12.87,0,0,0-2.86-1.71Zm7.28-1.47.78-.56h.15a9.63,9.63,0,0,1,1.53,1.59v.15l-.83.59H55a9.59,9.59,0,0,0-1.49-1.63Zm1.41-1,.76-.56h.16a9.47,9.47,0,0,1,1.48,1.55v.15l-.78.57h-.15a9.1,9.1,0,0,0-1.48-1.56Z"/><path class="cls-3" d="M68.28,48.91H60.67l-2.23,0-.11-.12V46.71l.14-.09,2.14.05H68.2l2.32-.05.12.11v2.1l-.11.12ZM66.9,43.09H62.25l-2.16,0L60,43V40.91l.14-.09,2.13,0h4.59l2,0,.12.11V43l-.1.11Z"/><path class="cls-3" d="M78.91,42.47c0,.24,0,.56,0,.79a15.64,15.64,0,0,0,2-1.84h-6l-2.6,0-.1-.12v-2l.13-.09,2.54,0h6.69l1.5-.07,1.06,1.41a.44.44,0,0,1,.07.21.44.44,0,0,1-.12.29,33.14,33.14,0,0,1-3.31,3.36c-.24.21-.31.21-.54.06l-1.38-.93c-.15,3.23-1,5.37-3.59,7.28A.48.48,0,0,1,75,51a.67.67,0,0,1-.33-.12l-2-1c3.14-1.8,3.77-3.73,3.71-7.41l.11-.12H78.8Z"/><path class="cls-3" d="M19.54,57l2.07.28.09.12A13.67,13.67,0,0,1,21,60.64a14.08,14.08,0,0,0-.55,3.49,6.83,6.83,0,0,0,.09,1.52c0,.19.19.21.42,0a12,12,0,0,0,.76-1l.44.22a10.45,10.45,0,0,0-.71,3.17,1,1,0,0,1-1,1.12c-.61,0-1-.32-1.31-.92a8,8,0,0,1-.75-3.94A20.83,20.83,0,0,1,19,59.74a13.35,13.35,0,0,0,.39-2.67ZM30.41,68.1a23.62,23.62,0,0,1-3.54.24c-3,0-3.81-1.52-4.17-3.19l.07-.13,1.61-.74.13,0c.29,1.41.88,1.86,2.89,1.85a17.7,17.7,0,0,0,2.81-.32l.14.09.13,2Zm-6.56-9.61,1.45,0a23.85,23.85,0,0,0,4.23-.36l.11.09.09,1.9-.09.12a22.36,22.36,0,0,1-4.34.37c-.49,0-.95,0-1.43,0l-.11-.13V58.61Z"/><path class="cls-3" d="M38.52,56.42c-.13.6-.3,1.19-.43,1.73.52-.11,1-.23,1.57-.36l.14.06.28,1.32a12.64,12.64,0,0,1,4.65,1.17l0,.15-.61,1.67-.12.06A2.52,2.52,0,0,0,42.82,62c-1,0-1.79.37-1.79,1.05a7.31,7.31,0,0,0,.66,2.24A14.33,14.33,0,0,1,45,67.18v.15L43.71,69l-.14,0a13.65,13.65,0,0,0-1.76-1.43c0,1.22-1.37,2-3.06,2-2,0-3.16-.79-3.16-2.35a2.54,2.54,0,0,1,2.81-2.4,5.73,5.73,0,0,1,1,.07,5.18,5.18,0,0,1-.33-1.83c0-.81.79-1.5,2-1.88a16.67,16.67,0,0,0-2-.21l-.08-.1.38-.86c-.65.13-1.31.27-2,.36A26.13,26.13,0,0,1,33.83,67l-.15,0-1.77-1.14v-.14a19.65,19.65,0,0,0,3-5.08c-.78.08-1.57.12-2.4.14l-.12-.09-.05-1.85.11-.11c1.14,0,2.21-.1,3.23-.21A20.73,20.73,0,0,0,36.28,56l.14-.09,2,.34Zm-.18,10.13c-.51,0-.81.32-.81.57s.33.6.87.6c.86,0,1.35-.3,1.34-.9A2.71,2.71,0,0,0,38.34,66.55Z"/><path class="cls-3" d="M48.1,59.62l-.4-1.92.09-.14c2.29-.51,4.6-.87,6.24-1.08a1.36,1.36,0,0,1,1.38,1.31,1,1,0,0,1-.27.78c-1.21,1.2-2.06,2-3.3,3.2a3.71,3.71,0,0,1,1.88-.39,3.62,3.62,0,0,1,3.78,3.88c0,2.73-2.06,4.28-5.53,4.28-1.77,0-3.27-.74-3.27-2.45A2.37,2.37,0,0,1,51,65a3.16,3.16,0,0,1,3,2.23,2.09,2.09,0,0,0,1.15-2.18,1.9,1.9,0,0,0-2-1.9c-2.15,0-3.7,1.42-5.29,3.48h-.15l-1.61-1.29v-.17c2.07-2.37,4-4.45,6-6.43-1.14.24-2.46.56-3.84,1Zm3,7.14c-.3,0-.58.12-.58.39s.35.6,1.12.6a2,2,0,0,0,.48,0A1.14,1.14,0,0,0,51.15,66.76Z"/><path class="cls-3" d="M64.66,55.76l.1-.12h2.08l.1.1v2.14h3.44l2.42-.05.11.11v1.74l-.11.11-2.42,0H65.72v.5c0,.46,0,.93,0,1.37h3.37L71,61.55l.11.1c-.06,2.36-.18,4.42-.35,5.71-.22,1.72-1,2.29-4,2.29-.24,0-.3-.05-.38-.23L65.5,67.5c.68,0,1.58,0,2.21,0s.69-.19.79-.84a24.67,24.67,0,0,0,.23-3.14H65.39a8.89,8.89,0,0,1-5,6.28.37.37,0,0,1-.15,0,.29.29,0,0,1-.2-.11l-1.3-1.5c3.48-1.81,4.68-3.77,4.68-7.86v-.59H61.59l-2.34,0-.11-.12V57.92l.12-.09,2.33.05h3.07Z"/><path class="cls-3" d="M76,62.64l-.18,0a13.89,13.89,0,0,0-2.1-1.4l0-.12,1.18-1.43.18,0a13.55,13.55,0,0,1,2.12,1.23l0,.15Zm-2.12,6.09a26.7,26.7,0,0,0,2-5l1.56,1a.27.27,0,0,1,.12.36,30.78,30.78,0,0,1-1.7,4.65l-.15.07-1.73-.9ZM76.59,59l-.18,0a10.16,10.16,0,0,0-2.15-1.49l0-.12L75.51,56l.18,0A14.65,14.65,0,0,1,78,57.31l0,.15Zm8.24-.48,2.27,0,.1.1v1.64l-.1.1-2.27,0H83.5v2h2.08l2.49-.05.11.11v1.64l-.11.1L85.58,64H82.9c-.45,1.15-.93,2.29-1.44,3.4,1,0,2-.12,3-.18-.34-.46-.71-.9-1.07-1.31l0-.12,1.4-.93.18,0a30.9,30.9,0,0,1,3.18,3.9l0,.15L86.47,70h-.19c-.22-.41-.48-.8-.72-1.21-2.46.32-5.39.59-7.93.77l-.14-.09L77,67.63l.12-.12c.71,0,1.4,0,2.09,0,.26-.54.47-1.11.68-1.67s.43-1.22.64-1.84h-.81L77.24,64l-.11-.1V62.27l.11-.11,2.49.05h1.64v-2h-1l-2.27,0-.1-.1V58.54l.1-.1,2.27,0h1V55.8l.11-.12H83.4l.1.11v2.69Z"/><path class="cls-3" d="M93.26,67.8a2.14,2.14,0,1,1-2.14-2.12A2.09,2.09,0,0,1,93.26,67.8Zm-3.38,0a1.25,1.25,0,1,0,1.24-1.25A1.22,1.22,0,0,0,89.88,67.8Z"/><path class="cls-3" d="M223.32,22.62Q209.4,33.1,195.94,44.17c-.2.16.28.12.38,0q13.45-11.07,27.38-21.55c.2-.15-.28-.11-.38,0Z"/><path class="cls-3" d="M230.38,63.62q-13.9-4.32-28.1-7.6c-.17,0-.57.21-.3.27q14.19,3.28,28.11,7.61c.16.05.56-.19.29-.28Z"/><path class="cls-4" d="M207.82,45.07a19.17,19.17,0,0,0,2.1,8.69"/><path class="cls-4" d="M206.67,48.33c1.3-.77,2.84-1.58,4.25-1L207.11,52a22.4,22.4,0,0,1,6.34-2.82,1.46,1.46,0,0,1,1.07,0,1.35,1.35,0,0,1,.48.6,8,8,0,0,1,.74,4.6"/><path class="cls-4" d="M218.35,45.11c.9.4,2-.12,2.91.28a2.11,2.11,0,0,1,1.08,2,6.27,6.27,0,0,1-.7,2.3"/><path class="cls-4" d="M221.27,42.84a10.7,10.7,0,0,1-1.34,5.62"/><path class="cls-4" d="M225.85,43.65a7.15,7.15,0,0,0,1.31,4.22"/><path class="cls-4" d="M231.36,36.37a3.39,3.39,0,0,1,2.23.38"/><path class="cls-4" d="M229.7,37.17a11.51,11.51,0,0,0,1.12,4.71,11.2,11.2,0,0,1,3.05-.29,1.84,1.84,0,0,1,.88.21c.72.47.47,1.6-.07,2.26s-1.32,1.19-1.53,2"/><path class="cls-4" d="M240.6,34.54a55.59,55.59,0,0,0,1,8.53,5,5,0,0,1,1.08-2.71,1.84,1.84,0,0,1,2.63-.13c.59.74.52,2.16,1.46,2.29a1.36,1.36,0,0,0,1.09-.52,5.48,5.48,0,0,0,1.35-2.19"/><polygon class="cls-5" points="189.24 77.15 188.7 88.86 174.47 87.07 174.47 83.61 189.24 77.15"/><path class="cls-6" d="M155.26,81.61a30.87,30.87,0,0,0-10.11,7.73c4.25.21,8.24,2,12.33,3.2,2.63.76,7.16,2.1,7.16,2.1l6.66,1.71c1,.34,5.74,1.29,6.72,1.57a12.68,12.68,0,0,0,3.82-.4,2.89,2.89,0,0,0,1.37-1.45A36.5,36.5,0,0,0,186,88.72a.68.68,0,0,0,0-.4c-.06-.18-.27-.26-.46-.31a13.18,13.18,0,0,0-3.14-.22,59.12,59.12,0,0,1-12.24-1.74c-1.65-.35-3.31-.72-4.93-1.23-3.31-1-6.47-2.68-9.93-3"/><path class="cls-5" d="M174.3,82.52s-.93-9.34-1.64-10.9c.42,1-.51,2.08-1.35,2.83l-2.09,1.85a27,27,0,0,0-4.59,4.79,3.47,3.47,0,0,1-1.08,1.2A1.08,1.08,0,0,1,162.1,82a13.5,13.5,0,0,1-1.24,5.07l-1.94-3.41c-.19-.33-.53-.71-.88-.55a.76.76,0,0,0-.33.51c-.37,1.24-.75,2.49-1.13,3.73a7.17,7.17,0,0,0-1.4-2.32,1,1,0,0,0-.61-.38c-.43,0-.7.42-.87.8l-1,2.18c-.53-.89-1.07-1.93-.69-2.88a3.61,3.61,0,0,1,.81-1.06,7.28,7.28,0,0,1,2.3-1.76c1-.39,2-.37,3-.68a9.09,9.09,0,0,0,2-1l3.06-1.85a16.62,16.62,0,0,0,2.65-1.87,15.07,15.07,0,0,0,2.28-2.87,4.31,4.31,0,0,0,1-2.4,7.76,7.76,0,0,0-.81-3.57l.14-.49-.1-.31a11,11,0,0,1-6.45-5.15,20.36,20.36,0,0,1-1-2.12c-1.5-3.65-2.85-7.43-3-11.37s1.08-8.1,4-10.71a15.5,15.5,0,0,1,7.74-3.29,15.06,15.06,0,0,1,8.29.51,12.66,12.66,0,0,1,6.41,6.57,25.68,25.68,0,0,1,2,9.14c.28,4.62-.2,9.67-3.31,13.08l14.46,3.79a45.63,45.63,0,0,1-12,14.57c-.62.52-1.12,3.22-1.58,3.88-1.14,1.62-.95,3.88-2,5.56,0-2.2,0-4.39,0-6.58l-4.24,6.35a28.21,28.21,0,0,1,2.47-7.86,50.34,50.34,0,0,0-5.79,5.8,29.45,29.45,0,0,1,1.66-6.73,27.44,27.44,0,0,0-3.59,5.34c-.9-.75-.28-2.2.38-3.16.84-1.23,3.75-5,3.75-5l1.53-.44s11.39-5,14.24-10.33a27.8,27.8,0,0,1-5.72,1c.13,1.35.62.74,1.29,3.82"/><path class="cls-4" d="M148.75,87.94c3.13.44,6,1.92,9,2.89,1.72.55,3.49.93,5.2,1.5,2.13.72,4.19,1.74,6.42,2,.93.12,1.88.13,2.79.34s1.66.59,2.51.84a16.48,16.48,0,0,0,3,.5l2.92.29,3.16-5.5"/><path class="cls-5" d="M176.9,94.16l.12-.72a.3.3,0,0,1,.08-.2.39.39,0,0,1,.18-.06,4.86,4.86,0,0,1,1.86.13v.78"/><path class="cls-5" d="M173.4,93.66a1.08,1.08,0,0,1,2.1-.15"/><path class="cls-5" d="M169.8,92.3c.18-.19.37-.37.56-.55a.43.43,0,0,1,.21-.11c.1,0,.18.08.26.13.27.19.63.18.92.35a.86.86,0,0,1,.38.88"/><path class="cls-5" d="M167,91.78c-.06-.34-.07-.79.26-.91a.69.69,0,0,1,.35,0l.65.08a.24.24,0,0,1,.14,0,.24.24,0,0,1,.07.15l.13.73"/><path class="cls-5" d="M163.35,90.86a.69.69,0,0,1,.58-.78,2,2,0,0,1,1.06.16.47.47,0,0,1,.27.16.41.41,0,0,1,.07.22l.15.89"/><path class="cls-5" d="M159.89,89.71a.62.62,0,0,1,.47-.77.91.91,0,0,1,.89.4,1.91,1.91,0,0,1,.33,1"/><path class="cls-5" d="M162.14,87.17a.5.5,0,0,0-.44-.13.86.86,0,0,1,1.19,1"/><path class="cls-5" d="M164.28,88.63c-.1-.23.09-.47.29-.62a1.57,1.57,0,0,1,1.27-.36.8.8,0,0,1,.6,1"/><path class="cls-5" d="M167.7,88.7a1,1,0,0,1,.73-.5,2.3,2.3,0,0,1,.9.08.6.6,0,0,1,.25.13c.16.19,0,.58.24.69"/><path class="cls-5" d="M171.3,90.28a1,1,0,0,1,1.25-.5,1.69,1.69,0,0,1,.88,1.17"/><path class="cls-5" d="M174.74,91.64a1,1,0,0,1,1-.56,1,1,0,0,1,.77.86"/><path class="cls-5" d="M178,91.91a.94.94,0,0,1,1.39.39"/><path class="cls-3" d="M170.07,49.61a2.63,2.63,0,0,0,.18,1.54c.09.25.21.49.32.73a2.06,2.06,0,0,0,.33.53.91.91,0,0,0,1.16.13.8.8,0,0,0,.4-.94c-.07-.16-.55,0-.48.13a.55.55,0,0,1-.25.69.36.36,0,0,1-.29-.11,1.39,1.39,0,0,1-.31-.41,3.59,3.59,0,0,1-.58-2.35c0-.18-.44-.1-.48.06Z"/><path class="cls-3" d="M173.94,42.52a7.67,7.67,0,0,0,2.25-.94c.07,0,.13-.15,0-.21a.38.38,0,0,0-.34,0,6.7,6.7,0,0,1-2,.84c-.08,0-.23.1-.21.2s.21.09.28.07Z"/><path class="cls-3" d="M161.46,46.55a7.57,7.57,0,0,0,3.16-1.26.16.16,0,0,0,0-.26.32.32,0,0,0-.35,0,6.75,6.75,0,0,1-2.79,1.13c-.11,0-.26.07-.27.2s.13.19.23.17Z"/><path class="cls-2" d="M169.85,57.07l7.21-2.63a.42.42,0,0,1,.33,0,.37.37,0,0,1,.14.2l1.61,3.75-8.49,3.36a.77.77,0,0,1-.47.08.71.71,0,0,1-.33-.22,8.14,8.14,0,0,1-1.71-3.7.39.39,0,0,1,0-.24c0-.09.13-.13.22-.17a4.45,4.45,0,0,1,2.13-.34"/><path class="cls-3" d="M169.94,57.14l5.56-2a8.6,8.6,0,0,1,1.34-.48c.43-.07.47.12.62.45l.25.59,1.19,2.77.15-.14-7.47,3a6.37,6.37,0,0,1-.91.36c-.4.08-.58-.08-.82-.37a5.78,5.78,0,0,1-.84-1.44,12.91,12.91,0,0,1-.51-1.56,2.19,2.19,0,0,1-.1-.34c0-.35.25-.46.53-.53a4.14,4.14,0,0,1,1.4-.13c.12,0,.55-.2.3-.22a5.22,5.22,0,0,0-2,.24,1.37,1.37,0,0,0-.68.34c-.15.21,0,.45,0,.68a11.37,11.37,0,0,0,.75,2.12,3.41,3.41,0,0,0,1.11,1.45c.47.23,1.07-.13,1.5-.3l2.62-1,5.26-2.07s.18-.08.15-.14L178,55.15c-.12-.26-.2-.73-.49-.84s-.8.15-1.08.25L169.77,57c-.32.11,0,.21.17.14Z"/><path class="cls-2" d="M175.11,45.37c.86-.36,1.71-.75,2.55-1.15l.54,1.27a7.74,7.74,0,0,0-2.42,1.12c-.12.08-.28.17-.39.07a.32.32,0,0,1-.08-.14l-.37-1,1-.33"/><path class="cls-3" d="M175.22,45.52c.86-.37,1.71-.75,2.55-1.16l-.35-.08.54,1.27.19-.23a8.44,8.44,0,0,0-1.87.76,4.28,4.28,0,0,0-.42.26l-.22.14-.07.05s0,0,0,0l0,0a.8.8,0,0,0-.09-.26l-.08-.24-.21-.58-.2.24,1-.33c.1,0,.23-.11.2-.23s-.2-.14-.29-.1l-1,.32c-.09,0-.24.11-.19.23l.22.64a2.43,2.43,0,0,0,.22.55c.25.35.72,0,1-.15a7.28,7.28,0,0,1,2.13-1c.09,0,.25-.12.2-.23l-.53-1.28a.25.25,0,0,0-.35-.08c-.84.41-1.69.79-2.55,1.15a.19.19,0,0,0-.12.26c.07.1.24.08.33,0Z"/><path class="cls-2" d="M162.3,49.15a8,8,0,0,0,.51,1.16,8.53,8.53,0,0,1,1.15-.72,1.77,1.77,0,0,0,.77-.6c.17-.28.07-.74-.25-.8a.72.72,0,0,0-.47.1l-1.73.8"/><path class="cls-3" d="M162.06,49.21a7.65,7.65,0,0,0,.53,1.21c.07.13.3.06.38,0a9.34,9.34,0,0,1,1.13-.71A1.88,1.88,0,0,0,165,49a.74.74,0,0,0-.1-.85c-.34-.33-.83-.07-1.19.09l-1.51.7c-.09,0-.18.15-.12.25s.24.07.33,0l1.14-.52.55-.26c.11-.05.26-.15.37-.06a.5.5,0,0,1,.06.59,1.89,1.89,0,0,1-.73.51,8.87,8.87,0,0,0-1.12.72H163a7.52,7.52,0,0,1-.48-1.13c-.08-.22-.56-.08-.49.13Z"/><path class="cls-3" d="M176,46.53v.8s.07.06.09.06a.36.36,0,0,0,.18,0,.53.53,0,0,0,.17-.08.13.13,0,0,0,0-.1v-.8s-.06-.06-.09-.07a.56.56,0,0,0-.18,0,.48.48,0,0,0-.16.08.14.14,0,0,0-.05.11Z"/><path class="cls-3" d="M176.78,46.18l.54,1.07c.05.09.18.09.28.06a.4.4,0,0,0,.16-.08s.06-.07,0-.11l-.54-1.07c0-.1-.18-.09-.27-.06a.3.3,0,0,0-.16.08s-.07.07-.05.11Z"/><path class="cls-3" d="M177.56,46a2.81,2.81,0,0,1,.95.43.25.25,0,0,0,.12,0l.19,0s.22-.09.15-.14a3,3,0,0,0-1-.46.5.5,0,0,0-.34.06s-.17.1-.06.13Z"/><path class="cls-3" d="M163.18,50v1.25c0,.1.13.12.21.11a.42.42,0,0,0,.19-.06s.09-.06.09-.11V49.91c0-.11-.13-.13-.21-.12a.6.6,0,0,0-.19.06s-.09.07-.09.11Z"/><path class="cls-3" d="M163.89,49.6a1.32,1.32,0,0,0,.58,1.1.37.37,0,0,0,.35,0c.07-.06.13-.16,0-.22l-.06,0,0,0h0l-.1-.09-.09-.11,0-.06,0,0s0,0,0,0,0,0,0,0l0,0,0-.06c0-.05,0-.09,0-.14a.59.59,0,0,1,0-.13.22.22,0,0,1,0-.08h0v-.05c0-.11-.12-.14-.22-.13a.4.4,0,0,0-.18.07s-.09.06-.09.11Z"/><path class="cls-3" d="M164.41,49.65h1.51a.36.36,0,0,0,.32-.14c0-.1-.05-.19-.15-.19h-1.51a.34.34,0,0,0-.32.15c0,.1.05.18.15.18Z"/><path class="cls-3" d="M170.3,57.48a7.59,7.59,0,0,0,.56,1.19c.06.09.25.06.33,0l.59-.3c.17-.09.4-.17.49-.35s0-.41-.07-.59-.1-.38-.16-.56a1.07,1.07,0,0,0-.55-.72.89.89,0,0,0-1,.31,1.21,1.21,0,0,0,0,1.26c.05.11.19.11.28.08s.25-.1.21-.21a1,1,0,0,1,0-1.06c.08-.09.15-.14.26-.09a.62.62,0,0,1,.25.28,2.05,2.05,0,0,1,.16.41l.18.65c0,.06.07.16,0,.22s-.06,0-.08,0l-.16.08-.59.3.33,0a6,6,0,0,1-.53-1.12c-.07-.2-.55-.06-.48.13Z"/><path class="cls-3" d="M174.6,55.49a1.52,1.52,0,0,0,.35,1.33.84.84,0,0,0,.68.18,1.85,1.85,0,0,0,.74-.34s.1-.09.08-.16l-.33-1.41c0-.08-.15-.1-.21-.09a7,7,0,0,0-1.19.34c-.08,0-.19.13-.12.22s.23,0,.32,0a5.19,5.19,0,0,1,.93-.27l-.21-.09.33,1.41.09-.15c-.08.05-.16.11-.24.15l-.11.06c-.05,0,0,0,0,0h-.11l-.08,0a.62.62,0,0,1-.19-.14,1.47,1.47,0,0,1-.22-1.09c0-.22-.47-.14-.48.05Z"/><path class="cls-3" d="M176.74,67.72c.15,1.71,1.17,3.28,1,5,0,.19.31.09.39,0a7.36,7.36,0,0,0,1.46-1c.32-.28,1-.76.79-1.25-.38-.94-1.76-1-2.61-1l.13.15.88-1.18c.2-.26.57-.64.36-1a1.54,1.54,0,0,0-.88-.51,3,3,0,0,0-1.22-.09c-.07,0-.31.08-.27.2a12.71,12.71,0,0,1,.45,2.29c0,.16.51.06.49-.13a12.07,12.07,0,0,0-.46-2.29l-.27.2a2.34,2.34,0,0,1,1.08.11c.25.1.71.26.65.6a2.72,2.72,0,0,1-.58.86l-.67.91c-.07.09,0,.14.13.14.73,0,2,0,2.31.85.12.28-.1.46-.28.64a5.58,5.58,0,0,1-.56.53,7.8,7.8,0,0,1-1.23.83l.39,0c.15-1.78-.88-3.36-1-5.1,0-.16-.5-.06-.48.13Z"/><path class="cls-7" d="M109,49.77c9-1,17.86,2.09,26.65,4.26a265.18,265.18,0,0,0,26.11,4.64l3.08,27.18a126.28,126.28,0,0,1-29.21-2.67c-3.33-.7-6.62-1.54-9.91-2.37l-11.62-2.94a3.08,3.08,0,0,1-1.4-.63,3,3,0,0,1-.68-1.73,229.35,229.35,0,0,1-2.75-25.76"/><path class="cls-3" d="M108.93,49.94c10.51-1.09,20.65,3.05,30.76,5.23,4.89,1,9.83,1.88,14.78,2.62,1.27.2,2.54.38,3.82.57l1.67.24c1,.14,1.4.1,1.63,1.12a37.17,37.17,0,0,1,.44,4l.48,4.2,2,18,.27-.23a127.71,127.71,0,0,1-31-3.07c-5-1.14-10-2.47-15-3.73L115.16,78a6.91,6.91,0,0,1-2-.62,2.84,2.84,0,0,1-1-2.13q-.61-3.75-1.09-7.5-1.17-9-1.61-18c0-.25-.5-.17-.49,0q.4,8.08,1.37,16.12.5,4.13,1.14,8.24a7.38,7.38,0,0,0,.71,2.93c.57.86,1.77,1,2.68,1.21,10.52,2.67,21,5.63,31.79,6.91a128.7,128.7,0,0,0,18.1.84c.12,0,.28-.1.27-.24L162,58.6c0-.06-.11-.09-.16-.1a257,257,0,0,1-27.42-5c-8.31-2.12-16.72-4.83-25.41-3.93-.26,0-.37.38,0,.34Z"/><path class="cls-7" d="M134.9,81.62l-1,13.17a.87.87,0,0,0,0,.48.94.94,0,0,0,.65.43c.77.24,1.71.45,2.29-.1a2.23,2.23,0,0,0,.51-1.51,46.62,46.62,0,0,0-.68-12.2c-.1-.54-.44-1.23-1-1.08a1,1,0,0,0-.53.59,5.62,5.62,0,0,0-.36,3.11"/><path class="cls-3" d="M134.66,81.68l-.72,9.22-.18,2.2-.09,1.17a2.19,2.19,0,0,0,0,1.08c.31.64,1.76.77,2.38.69a1.7,1.7,0,0,0,1.5-1.58,28.12,28.12,0,0,0,.18-4c0-1.52-.08-3-.23-4.55a24.44,24.44,0,0,0-.63-4.27c-.21-.7-.83-1.29-1.54-.76-1,.7-.91,2.67-.76,3.69,0,.12.51,0,.49-.13a5.72,5.72,0,0,1,.09-2.33c.14-.53.61-1.68,1.1-.71a6.79,6.79,0,0,1,.42,1.95c.11.66.19,1.32.27,2a46,46,0,0,1,.19,8.54,4.75,4.75,0,0,1-.14,1.07,1.37,1.37,0,0,1-.15.38l-1,.51a2.47,2.47,0,0,1-1.06-.23.79.79,0,0,1-.65-.87,15.72,15.72,0,0,1,.16-2l.18-2.35.7-8.78c0-.08-.47,0-.49.13Z"/><path class="cls-7" d="M138,93a3.48,3.48,0,0,1,2.8,4.63c-.77,1.75-2.88,2.51-4.8,2.56a7.06,7.06,0,0,1-4.64-1.35,4.16,4.16,0,0,1-1.46-4.41,3,3,0,0,1,4-1.74"/><path class="cls-3" d="M137.9,93.18a3.33,3.33,0,0,1,2.84,2.92,3.43,3.43,0,0,1-2.61,3.52c-3.08,1.07-8.19-.13-8.19-4.13,0-1.87,2-3.57,3.78-2.64.21.11.55-.19.28-.33a3.26,3.26,0,0,0-4.24,1.61c-.85,1.8.15,4,1.68,5.05a7.82,7.82,0,0,0,6.12,1c1.66-.39,3.45-1.49,3.68-3.34a3.69,3.69,0,0,0-3.18-4c-.25,0-.49.33-.16.37Z"/><path class="cls-3" d="M163.28,93.19c-1.47.32-1.67,1.89-2.47,2.93-2,2.55-6.37-.24-8.58-1.19l-3.7-1.58c-1.29-.56-3-1-3.92-2.07A14.77,14.77,0,0,1,142.73,88a41.43,41.43,0,0,1-1.62-3.83c-.07-.2-.55-.06-.48.13a43.12,43.12,0,0,0,1.8,4.2,11.79,11.79,0,0,0,1.95,3.21,9.61,9.61,0,0,0,3.05,1.57l4.51,1.94c2.14.92,4.77,2.62,7.2,2.19a3.3,3.3,0,0,0,2.12-1.24c.65-.86.9-2.43,2.09-2.69.3-.07.22-.36-.07-.3Z"/><g class="cls-8"><path class="cls-9" d="M169.4,35.19c7.13,0,11.71,2,14.19,9,2.37,6.69,1.86,12.08-1.75,18.18a.88.88,0,0,0,.14,1.06,16.87,16.87,0,0,0,4.94,3.27c2.92,1.18,6.16.9,9,2.29l-.18-1.38A154.24,154.24,0,0,0,184,81.7c-.67.91.85,1.78,1.51.89A147.15,147.15,0,0,1,197,68.88a.88.88,0,0,0-.17-1.37A19.42,19.42,0,0,0,191.27,66a13.07,13.07,0,0,1-4.92-1.48c-2.08-1.37-2-1.82-1.46-3.92s1.82-3.71,2.15-5.93a18.25,18.25,0,0,0-.57-6.9c-1-4-2.34-8.71-5.63-11.47s-7.49-2.9-11.44-2.88a.88.88,0,0,0,0,1.75Z"/></g><g class="cls-8"><path class="cls-9" d="M185.93,70.56l.5,2.52c.21,1.1,1.9.64,1.68-.47l-.49-2.52c-.21-1.1-1.9-.64-1.69.47Z"/></g><g class="cls-8"><path class="cls-9" d="M187.65,80.3q.15,4,.53,8c.11,1.11,1.86,1.12,1.75,0q-.37-4-.53-8c-.05-1.13-1.8-1.13-1.75,0Z"/></g><g class="cls-8"><path class="cls-9" d="M176.61,55.11c.38,1,1.08,2.64-.2,3.24-1,.49-.13,2,.88,1.52,2.08-1,1.69-3.47,1-5.22-.4-1-2.09-.59-1.69.46Z"/></g><g class="cls-8"><path class="cls-9" d="M172.75,72.94a36.32,36.32,0,0,1,1.75,7.34c.15,1.1,1.9,1.12,1.75,0a38.83,38.83,0,0,0-1.81-7.81c-.37-1.06-2.06-.6-1.69.47Z"/></g><g class="cls-8"><path class="cls-9" d="M147.23,89.81c6.82,3.15,38.86,18.34,38.74,1.27a.88.88,0,0,0-1.75,0c.1,13.66-30.31-.1-36.1-2.78-1-.47-1.91,1-.89,1.51Z"/></g><g class="cls-8"><path class="cls-9" d="M179.16,90.91l3.18-4.46c.66-.92-.86-1.79-1.51-.88L177.65,90c-.66.92.86,1.79,1.51.88Z"/></g><g class="cls-8"><path class="cls-9" d="M175.49,88.8a22.93,22.93,0,0,1,4.27-4.31c.88-.68,0-2.2-.88-1.51a26,26,0,0,0-4.9,4.93c-.68.9.84,1.77,1.51.89Z"/></g><g class="cls-8"><path class="cls-9" d="M184,82a21.36,21.36,0,0,0-1.38,5.08c-.15,1.11,1.53,1.58,1.69.47a21.31,21.31,0,0,1,1.38-5.09c.43-1-1.26-1.49-1.69-.46Z"/></g><g class="cls-8"><path class="cls-9" d="M136.73,84.81c-.21,2.52-.38,5.21.77,7.55.44.9,1.48,1.62,1.83,2.48l.25,3.89-2.63,1c-1.19.21-3-.47-4.18-.83a.88.88,0,0,0-.46,1.69c3.24,1,8.6,1.77,9.73-2.67a4.4,4.4,0,0,0-1.18-4c-2.35-3-2.69-5.44-2.38-9.15.09-1.12-1.66-1.11-1.75,0Z"/></g><g class="cls-8"><path class="cls-9" d="M112.69,78.54c6.79,4.87,16.52,3.9,24.4,5.52,3.63.74,6.79,2.26,10.53,2.62,5.28.51,10.6.82,15.89,1.24,1.13.08,1.12-1.67,0-1.75-4.63-.36-9.27-.69-13.91-1.09-4.33-.36-7.86-1.85-12-2.71-7.66-1.57-17.39-.62-24-5.34-.91-.65-1.79.86-.88,1.51Z"/></g><g class="cls-8"><path class="cls-9" d="M178.15,68c-.11.07-.37.63-.51.78a.88.88,0,0,0,.85,1.46.61.61,0,0,1,.81.68c-.06.51-.73.74-1.15.76-1.12.07-1.13,1.82,0,1.75a2.85,2.85,0,0,0,2.91-2.83,2.38,2.38,0,0,0-3-2l.86,1.47c.75-.76,1.39-1.89.77-2.93a1.7,1.7,0,0,0-2.39-.61c-.91.65,0,2.17.89,1.52Z"/></g><g class="cls-8"><path class="cls-9" d="M179.15,89.8q1.92-2.33,3.65-4.8c.64-.92-.87-1.8-1.51-.88q-1.59,2.3-3.38,4.44c-.71.86.52,2.11,1.24,1.24Z"/></g></g></g></svg>