<svg xmlns="http://www.w3.org/2000/svg" viewBox="0 0 278.26 115.93"><defs><style>.cls-1{fill:#c2e8f4;}.cls-2,.cls-5{fill:#fff;}.cls-3,.cls-8{fill:#231f20;}.cls-4{fill:#f9b19d;}.cls-4,.cls-5,.cls-6,.cls-7,.cls-8,.cls-9{stroke:#231f20;stroke-miterlimit:10;stroke-width:0.6px;}.cls-6{fill:#9e684f;}.cls-7{fill:#fbaf61;}.cls-9{fill:none;}.cls-10{opacity:0.14;}.cls-11{fill:#896b4a;}</style></defs><g id="Layer_2" data-name="Layer 2"><g id="Layer_1-2" data-name="Layer 1"><rect class="cls-1" x="1.75" y="1.75" width="274.76" height="112.43"/><path class="cls-2" d="M276.51,112.43H1.75l1.75,1.75V1.75L1.75,3.5H276.51l-1.75-1.75V114.18a1.75,1.75,0,0,0,3.5,0V1.75A1.77,1.77,0,0,0,276.51,0H1.75A1.77,1.77,0,0,0,0,1.75V114.18a1.78,1.78,0,0,0,1.75,1.75H276.51A1.75,1.75,0,0,0,276.51,112.43Z"/><path class="cls-3" d="M24.68,27A19.16,19.16,0,0,0,30.35,31l-1.46,2a.19.19,0,0,1-.17.1.48.48,0,0,1-.23-.09,18.37,18.37,0,0,1-4.71-4.18l.15,6H21.55l.15-5.83a16.29,16.29,0,0,1-4.61,4.18.48.48,0,0,1-.2.08c-.07,0-.13,0-.2-.13l-1.34-1.69A18,18,0,0,0,20.69,27l-2.27,0-2.54,0-.1-.11V25.17l.1-.1,2.54,0h3.2V20.34l.11-.11h2l.11.11v4.77h3.38l2.54,0,.11.1V27l-.11.11L27.24,27Zm-5.61-2.28-.2,0a11.72,11.72,0,0,0-1.73-2.45l0-.14,1.58-.89.16,0a10.18,10.18,0,0,1,1.84,2.29l0,.15ZM28.56,22a17.93,17.93,0,0,1-1.73,2.8.17.17,0,0,1-.16.08.71.71,0,0,1-.18-.05l-1.65-.7a14.65,14.65,0,0,0,1.56-3l.14-.07,2,.78Z"/><path class="cls-3" d="M38.13,25.08c0,.25,0,.57,0,.8a16.13,16.13,0,0,0,2-1.87H34.08l-2.65,0-.11-.13v-2l.14-.09,2.59,0h6.81l1.53-.07,1.07,1.43a.4.4,0,0,1,.08.22.41.41,0,0,1-.13.29,35.24,35.24,0,0,1-3.36,3.43c-.25.21-.32.21-.55.06l-1.41-.95c-.15,3.29-1,5.46-3.66,7.41a.48.48,0,0,1-.28.1.7.7,0,0,1-.33-.12l-2-1c3.2-1.83,3.84-3.79,3.78-7.54l.11-.13H38Z"/><path class="cls-3" d="M49.4,26.6c.61.46,1.24,1,1.8,1.5a35.41,35.41,0,0,0,2.68-2.68H47.5l-2.25,0-.11-.12v-2l.12-.11,2.19.05h7.3l1.64-.08,1,1.41a.64.64,0,0,1,.15.35.53.53,0,0,1-.18.36,55.75,55.75,0,0,1-4.6,4.33c.4.39.78.82,1.17,1.27l0,.15-1.73,1.5h-.14a23.4,23.4,0,0,0-4.38-4.48v-.16l1.55-1.31Z"/><path class="cls-3" d="M59.05,23.73l1.79-1.21H61a16.48,16.48,0,0,1,2.53,3l0,.17-2,1.35-.17,0A15.36,15.36,0,0,0,59,23.87Zm8.4-1.3,2.27.69.06.14c-1.12,4.77-3.27,8.16-7.13,10.67a1.05,1.05,0,0,1-.34.14A.74.74,0,0,1,62,34l-2.07-1.1c4.29-2.45,6.37-5.53,7.36-10.38Zm.62-1.71.91-.35.16,0a8.62,8.62,0,0,1,1.07,1.9l0,.13-1,.37-.15-.05a10.11,10.11,0,0,0-1-1.91Zm1.63-.57.91-.33h.15a7.94,7.94,0,0,1,1,1.84l0,.15-.92.35-.16,0a8.33,8.33,0,0,0-1-1.84Z"/><path class="cls-3" d="M72.72,24.28l1.48-1.66.16,0a16.4,16.4,0,0,1,3.1,2.11v.15L75.87,26.7l-.14,0a17.84,17.84,0,0,0-3-2.3Zm11.86,1.28a.71.71,0,0,1,.06.29c0,.1,0,.16-.15.27A29.89,29.89,0,0,1,74.4,33.19l-.15,0L72.87,31.1l0-.16a27.67,27.67,0,0,0,10.84-7.79Z"/><path class="cls-3" d="M21.42,45.43c-1.16.83-2.37,1.61-3.72,2.39-.3.17-.38.17-.65-.06l-1.64-1.42a26.47,26.47,0,0,0,9.23-6.91h.18l1.91,1.34,0,.18c-1,1-1.93,1.88-2.83,2.65v3.53L24,51.94H21.35l.07-4.76Z"/><path class="cls-3" d="M32.36,44a19.11,19.11,0,0,1-1.66,2.33.36.36,0,0,1-.22.15.77.77,0,0,1-.33-.11l-1.87-.87a15.07,15.07,0,0,0,3.63-6.31l.12,0,2.19.64,0,.15a19.91,19.91,0,0,1-.78,1.93h4.61l2.32,0,.14.09v2l-.1.13L38.09,44h-.77c-.47,3.4-1.65,5.89-4.53,7.94-.15.11-.24.17-.33.17A.88.88,0,0,1,32.1,52l-1.94-1.13A8.81,8.81,0,0,0,34.81,44Z"/><path class="cls-3" d="M42.43,44.52l-.5-2,.06-.13c4.27-1,7.68-1.74,12-2.52l.14.07.44,2-.11.14a7.45,7.45,0,0,0-4.11,1.19,5.22,5.22,0,0,0-2.22,4,2,2,0,0,0,1.48,2.07,12.79,12.79,0,0,0,3.66.33l.11.11-.13,2.33-.12.09a12.07,12.07,0,0,1-4.83-.71,4,4,0,0,1-2.47-4,5.83,5.83,0,0,1,2.05-4.31c-1.5.37-3.14.79-5.31,1.41Z"/><path class="cls-3" d="M57.75,42.54l-.4-2,.1-.14c2.32-.52,4.68-.88,6.35-1.1a1.39,1.39,0,0,1,1.41,1.33,1.07,1.07,0,0,1-.28.8c-1.24,1.22-2.1,2-3.37,3.26a3.78,3.78,0,0,1,1.92-.4,3.69,3.69,0,0,1,3.85,4c0,2.79-2.09,4.36-5.63,4.36-1.8,0-3.34-.75-3.34-2.49A2.42,2.42,0,0,1,60.71,48a3.18,3.18,0,0,1,3.1,2.27A2.11,2.11,0,0,0,65,48.07a1.93,1.93,0,0,0-2.08-1.93c-2.19,0-3.76,1.44-5.39,3.53l-.15,0-1.64-1.32V48.2c2.11-2.41,4-4.53,6.07-6.55-1.16.25-2.51.57-3.92,1Zm3.11,7.27c-.31,0-.58.12-.58.4s.35.61,1.13.61a1.63,1.63,0,0,0,.49,0A1.16,1.16,0,0,0,60.86,49.81Z"/><path class="cls-3" d="M81.85,50.44A3.83,3.83,0,0,1,79,51.72a3.77,3.77,0,0,1-2.62-.95,4.84,4.84,0,0,1-3.26,1.11c-2.08,0-3.83-1.15-3.83-3.17,0-1.67,1-2.59,2.65-3.38a4.48,4.48,0,0,1-1-2.59c0-1.78,1.21-3.09,3.38-3.09a3.27,3.27,0,0,1,3.51,2.58l-2.27.69c-.21-1-.61-1.54-1.21-1.54a.84.84,0,0,0-.88.95c0,.58.18.93,1,2l2.72,3.31a5.85,5.85,0,0,0,.49-2.27H76.22V43.73h5.5v1.61H79.91a7.19,7.19,0,0,1-1.51,3.71,1.58,1.58,0,0,0,1.24.67,1.4,1.4,0,0,0,1.11-.52Zm-9-3.89a1.91,1.91,0,0,0-1,1.67c0,1,.66,1.67,2,1.67a2.76,2.76,0,0,0,1.43-.35Z"/><path class="cls-3" d="M95.49,45.69l.05,1.67-.08.08-1.94,0h-.19v.48h1l2,0,.12.07v1.15l-.08.09-2,0h-1v.52h2.42l1.87,0,.09.08V51l-.11.11-1.85,0H94.1a23,23,0,0,1,3.23.79l0,.15-1.09,1.19-.15,0a36.83,36.83,0,0,0-4.61-1.27v-.15l.81-.74H88.54l1.24.65,0,.15a16.24,16.24,0,0,1-5.09,1.39c-.18,0-.23,0-.35-.12l-1.12-1.27a16.6,16.6,0,0,0,4.15-.8H85.39l-2,0-.1-.09v-1.3l.09-.08,2,0h2.1v-.52h-.74l-2,0-.11-.07V48l.09-.09,2,0h.74v-.48l-1.95,0-.1-.08,0-1.6V43.9l-.75.23a.85.85,0,0,1-.25,0,.41.41,0,0,1-.35-.2l-1-1.35a18.36,18.36,0,0,0,4.51-1.21H85.83l-2.31,0-.11-.09V40.09l.1-.09,2.32,0h.57a7.55,7.55,0,0,0-.71-.69l0-.14,1.45-.77h.14a8.44,8.44,0,0,1,1.28,1v.12l-.75.43H89.4V38.53l.08-.08H91.4l.1.08v1.52h.9a10.4,10.4,0,0,0,1.1-1.58l.14,0,1.73.71,0,.14c-.26.32-.46.56-.66.78h.54l2.32,0,.09.08v1.31l-.09.08-2.32,0h-2a19.74,19.74,0,0,0,4.81.91l-1,1.45c-.12.18-.2.25-.34.25a1.07,1.07,0,0,1-.21,0c-.34-.07-.67-.15-1-.24l0,.84ZM93.7,43.17A9.14,9.14,0,0,1,91.5,42l.06.92H89.35l.05-.74a14.36,14.36,0,0,1-2,1H93.7Zm-4.24,1.18h-2v.46h2Zm-2,1.45v.48h2V45.8Zm1.91,1.62v.48h2v-.48Zm0,1.72v.52h2v-.52Zm4-4.79H91.3v.46h2.14ZM91.3,46.28h2.14V45.8H91.3Z"/><path class="cls-3" d="M104.09,43.35a18.05,18.05,0,0,1-3,3.17c-.17.12-.26.18-.36.18a.54.54,0,0,1-.25-.09l-1.82-1.1a15.55,15.55,0,0,0,5.07-6.17l.13,0,2.19.81,0,.15c-.2.38-.4.74-.63,1.1l2,0,1.17-.09,1.33,1.24c.14.12.21.21.21.32a.83.83,0,0,1-.09.31,16.79,16.79,0,0,1-8.75,9,1.56,1.56,0,0,1-.4.12.4.4,0,0,1-.26-.12l-1.9-1.47A13.83,13.83,0,0,0,107,43.34Zm4.35-3.3.79-.57h.15a9.22,9.22,0,0,1,1.56,1.62v.15l-.84.6h-.15a10,10,0,0,0-1.52-1.66Zm1.43-1,.78-.56.16,0a9.85,9.85,0,0,1,1.51,1.58v.15l-.8.58h-.15a9.4,9.4,0,0,0-1.5-1.59Z"/><path class="cls-3" d="M114,43.81a9.34,9.34,0,0,1,1.4,2.5l-.06.13-1.66.77-.13-.05a9.54,9.54,0,0,0-1.35-2.52l.06-.12,1.61-.71Zm7.5.2a13.74,13.74,0,0,1-2.12,4.78,11.2,11.2,0,0,1-3.75,3.32.58.58,0,0,1-.25.09.4.4,0,0,1-.23-.09l-1.62-1.06a10.06,10.06,0,0,0,3.9-3.12,10.66,10.66,0,0,0,2-4.69l.14-.06,1.87.69Zm-4.66-1a8,8,0,0,1,1.4,2.38l-.06.14-1.62.77-.14,0A10.49,10.49,0,0,0,115,43.81l0-.12,1.61-.71Z"/><path class="cls-3" d="M133.65,51.2a28,28,0,0,0-3.39-3.62A18.28,18.28,0,0,1,125,51.42a.91.91,0,0,1-.34.1.42.42,0,0,1-.24-.1L122.62,50c3.52-1.63,6.6-3.94,8-7.13H127l-2.28,0-.11-.12V40.73l.14-.09,2.3,0h4.33l1.56-.08.93.92c.11.11.17.18.17.28a.72.72,0,0,1-.14.36,29.29,29.29,0,0,1-2.11,3.54,31.83,31.83,0,0,1,3.87,3.66v.17l-1.81,1.68Zm-.55-11.47.8-.57.15,0a9.66,9.66,0,0,1,1.56,1.63v.15l-.84.6h-.16a9.49,9.49,0,0,0-1.51-1.66Zm1.44-1,.78-.57h.16A9.08,9.08,0,0,1,137,39.76v.15l-.8.58H136a9.4,9.4,0,0,0-1.5-1.59Z"/><path class="cls-3" d="M15.75,64.23l-.11-.1V62.65l.09-.08,1.87,0H28.2l1.79,0,.1.08v1.47l-.11.11-1.78,0H23v3.49l.05,2.23a9.53,9.53,0,0,0,2-1.11A8.3,8.3,0,0,1,23.89,67l0-.14,1.43-.58h-.2l-1.73,0-.11,0V64.73l.09-.09,1.67,0h3l.55,0,.64.64a.43.43,0,0,1,.17.32,1.18,1.18,0,0,1-.06.28,8.55,8.55,0,0,1-1.56,2.83,9.25,9.25,0,0,0,2.42,1l-1,1.55c-.06.11-.11.15-.2.15a.45.45,0,0,1-.18,0,8.83,8.83,0,0,1-2.42-1.26,9.47,9.47,0,0,1-2,1.24.66.66,0,0,1-.26.09c-.1,0-.15-.07-.26-.21l-.88-1.06,0,1.33H21L21,70c-1.34.29-2.84.55-4.74.85l-.12,0-.54-1.49.11-.14c.52,0,1-.1,1.53-.16V64.19ZM28,60l.05,2.15-.14.11-2.09,0H20l-2.3,0-.1-.11,0-2.09v-.77l0-1.82.1-.09,2.38,0h5.58l2.27,0,.12.12L28,59.33Zm-8.84,4.22v.64H21v-.64Zm0,1.88v.64H21v-.64Zm0,2.76c.63-.08,1.24-.16,1.87-.26v-.62H19.16ZM25.83,58.7H19.76v.52h6.07Zm-6.07,2.16h6.07v-.51H19.76Zm5.73,5.45a7.38,7.38,0,0,0,.86,1.22,5.28,5.28,0,0,0,.72-1.28h-1.7Z"/><path class="cls-3" d="M36,67.39l.58-.56.15,0a10.58,10.58,0,0,1,1.58,1.3v.15L37.2,69.41h-.15A15.38,15.38,0,0,0,36,68.23l.09,3.19H33.86l.16-3a10.1,10.1,0,0,1-1.78,2,.47.47,0,0,1-.24.13c-.08,0-.14,0-.23-.16l-1-1.27a13,13,0,0,0,2.72-2.68h-.32l-1.71,0-.11-.09V64.84l.09-.09,1.73,0H34v-.85l.07-.08h1.82l.1.08v.85h.65l1.79,0,.1.07v1.59l-.1.08-1.79,0H36Zm2.52-5.54.11.11v1.55l-.11.1-1.77,0H32.88l-1.71,0-.11-.1V62l.11-.11,1.55,0c-.1-.44-.22-.89-.32-1.22l.09-.14L34,60.22l.13.12a10.39,10.39,0,0,1,.43,1.56h.75c.16-.54.28-1.07.39-1.61l.13-.07,1.63.36.1.13c-.12.38-.24.79-.38,1.17Zm-2.14-3.41,1.93,0,.1.1V60l-.1.1-1.93,0H33.42l-1.87,0-.1-.1V58.5l.1-.11,1.87,0h.49V57l.11-.11h1.85L36,57v1.45ZM40.9,64c0,3.89-.53,5.59-2,7.3-.09.09-.15.15-.23.15a.4.4,0,0,1-.21-.09l-1.41-1c1.48-1.67,1.85-3,1.85-5.94V60.61l0-2.54L39,58l1.48.26a13.29,13.29,0,0,0,3.28-1h.14a9.8,9.8,0,0,1,1.39,1.36v.16a21.89,21.89,0,0,1-4.35,1.11v2h2.76l1.58-.05.09.11v1.61l-.09.1-1.2,0v4.18l.08,3.67H41.93L42,67.76V63.57H40.9Z"/><path class="cls-3" d="M46.63,63.63v-2l.13-.09,2.1,0h5.88l2.14,0,.11.12c-.54,4.86-2.85,7.43-7.1,8.9a1.4,1.4,0,0,1-.33.07.48.48,0,0,1-.35-.17L47.48,69C51,67.94,53.3,66.34,54,63.71H48.85l-2.12,0Zm6.87-3.22H50l-1.86.05L48,60.34v-2l.14-.09,1.85,0h3.46l2.11,0,.12.11v2l-.11.12Z"/><path class="cls-3" d="M58.59,61l1.49-1.67.15,0a16.45,16.45,0,0,1,3.11,2.11v.16l-1.59,1.85h-.14a18.76,18.76,0,0,0-3-2.29Zm11.86,1.27a.79.79,0,0,1,.07.29c0,.11,0,.17-.16.28a29.89,29.89,0,0,1-10.08,7.07l-.16,0-1.37-2.07,0-.15a27.71,27.71,0,0,0,10.83-7.79Z"/><path class="cls-3" d="M80.14,59.42l1.76-.32.11.09.32,1.91-.09.13-1.81.23-1.82.27.32,1.81,2.45-.35,1.91-.34.14.07.32,1.92-.07.14-1.84.22-2.53.37.19,1,.72,3.52-2.53.5-.55-3.43-.23-1.22-2.71.4-1.86.33-.14-.06-.39-1.92.1-.14,1.94-.25,2.68-.4-.32-1.8-1.64.24-1.79.32-.15-.07-.37-1.91.09-.14,1.87-.23,1.6-.25-.33-1.85.07-.15,2.19-.35.14.1.35,1.89Z"/><path class="cls-3" d="M85.05,61l1.49-1.67.15,0a16.45,16.45,0,0,1,3.11,2.11v.16l-1.6,1.85h-.13a18.76,18.76,0,0,0-3-2.29Zm11.86,1.27a.74.74,0,0,1,.06.29c0,.11,0,.17-.15.28a29.93,29.93,0,0,1-10.09,7.07l-.15,0L85.2,67.82l0-.15a27.67,27.67,0,0,0,10.84-7.79Z"/><path class="cls-3" d="M103.6,61.72a18,18,0,0,1-3,3.16c-.16.13-.26.19-.36.19a.58.58,0,0,1-.25-.09l-1.82-1.11a15.59,15.59,0,0,0,5.07-6.16l.13-.05,2.19.81,0,.15c-.2.39-.39.74-.62,1.11l2,0,1.17-.1,1.33,1.24c.14.13.21.22.21.32a.83.83,0,0,1-.09.31,16.79,16.79,0,0,1-8.75,9,1.23,1.23,0,0,1-.4.12.4.4,0,0,1-.26-.12L98.18,69a13.83,13.83,0,0,0,8.34-7.27ZM108,58.41l.79-.57h.16a10,10,0,0,1,1.56,1.62l0,.15-.84.6h-.15a9.89,9.89,0,0,0-1.52-1.65Zm1.43-1,.78-.57.16,0a9.85,9.85,0,0,1,1.51,1.58v.15l-.8.59h-.15a9.46,9.46,0,0,0-1.5-1.6Z"/><path class="cls-4" d="M242,77.49l1.79,6.71a3.33,3.33,0,0,0,.29.82,3.42,3.42,0,0,0,1,1l5.66,4.28a8.94,8.94,0,0,1,2.37,2.3c1.18,1.9.8,4.33.57,6.56a39.76,39.76,0,0,0-.06,7.79.73.73,0,0,0,.18.5.79.79,0,0,0,.46.12,9.57,9.57,0,0,1,1.91.28,3,3,0,0,1,1.55.82,1.26,1.26,0,0,1,.08,1.63,1.9,1.9,0,0,1-1.57.36q-3.9-.28-7.79-.69a4.4,4.4,0,0,1-1.93-.51,2.19,2.19,0,1,1,2.38-3.67,20,20,0,0,1-1.36-7.72,1,1,0,0,0-.11-.59.94.94,0,0,0-.53-.3A36,36,0,0,1,235,90.82a3.2,3.2,0,0,0-2-1,3,3,0,0,0-1.5.65l-9.28,6.26a1.7,1.7,0,0,0-.63.62,1.63,1.63,0,0,0-.08.73l.37,8.11a2.17,2.17,0,0,0,.17.91c.34.66,1.36,1,1.21,1.76a15.66,15.66,0,0,1-8.92,1,2.57,2.57,0,0,1-1.29-.51,1,1,0,0,1-.26-1.26,1.47,1.47,0,0,1,.73-.47,22.1,22.1,0,0,1,3.47-1c-.55-4.65-1.22-9.3-2-13.92a31.27,31.27,0,0,0,7.32-2.29c-.7-1.84-2.07-3.33-3.18-5a20.3,20.3,0,0,1-3.1-7.38,18,18,0,0,0,5.49,4.27,18.11,18.11,0,0,0,6.85,1,29.69,29.69,0,0,0,3.89-.13A14.08,14.08,0,0,0,241.42,78"/><path class="cls-4" d="M244.93,68.4l7,6.87a1.66,1.66,0,0,1,.43.59,1.47,1.47,0,0,1-.38,1.22A13,13,0,0,1,250.34,79a1.65,1.65,0,0,1-1,.57c-.56,0-1-.48-1.34-.91a11.35,11.35,0,0,0-3.49-2.78c-.32-.17-.67-.34-.79-.67a1.23,1.23,0,0,1,.05-.78c.32-1.12.88-2.17,1.23-3.28a4.59,4.59,0,0,0-.06-3.42"/><path class="cls-4" d="M255.6,72.45a21.4,21.4,0,0,1,1.81-1.88,2.64,2.64,0,0,1,1.32-.78,1,1,0,0,1,1.21.69,1.43,1.43,0,0,1-.14.81,17.53,17.53,0,0,1-1.27,2.57,7.13,7.13,0,0,0-1.1,2.27c-.17.85,0,1.76-.22,2.6a5.18,5.18,0,0,1-.81,1.45l-2.59,3.6a4.36,4.36,0,0,1-1.62,1.6,4.13,4.13,0,0,1-1.85.27,4.76,4.76,0,0,1-2.79-.62,3.19,3.19,0,0,1-1.22-2.73,6.06,6.06,0,0,1,1-2.91,5.71,5.71,0,0,1,2-2.09,2.91,2.91,0,0,1,2.8-.08c.15-1.33-1.92-2.31-1.47-3.58.26-.72,1.17-.92,1.94-1a16.15,16.15,0,0,1,4.27.39"/><path class="cls-4" d="M211.2,69.63c-.56-.14-1,.4-1.31.91a7.1,7.1,0,0,0,.11,6.63c-1.25.24-2.33-.8-3.32-1.59s-2.59-1.35-3.4-.38c-.39.47-.55,1.24-1.14,1.33-.38-1.18-1.15-2.62-2.37-2.41s-1.47,1.7-1.49,2.88a2.84,2.84,0,0,0,2.07,3.43l3.32,1.44a5.77,5.77,0,0,0,3.84.7,14.12,14.12,0,0,0,2.29-1.24c1.89-1,4.56-.83,5.59-2.69"/><path class="cls-4" d="M199.77,74.76a2.43,2.43,0,0,1,2.13,3.09.78.78,0,0,0,.95-.26,6.17,6.17,0,0,1,.67-.84,1.33,1.33,0,0,1,1.81.31,1.92,1.92,0,0,1,.12,1.94,1.32,1.32,0,0,1,1.85,1.78"/><path class="cls-4" d="M223.73,83.69a16.72,16.72,0,0,1-9.9-7.71,25.13,25.13,0,0,1-3.29-12.3,16.14,16.14,0,0,1,1.47-7.9c1.5-2.88,4.25-4.91,7.1-6.45,4.92-2.65,11.09-4.09,16-1.45a16.07,16.07,0,0,1,3.64,2.82C243.09,55,246,60.91,246,67s-3.41,12.28-8.9,14.95c-4.71,2.29-10.25,1.87-15.43,1.08"/><path class="cls-2" d="M231.2,58.23l.17,1.23a.4.4,0,0,0,.1.26.39.39,0,0,0,.3.06,15.44,15.44,0,0,0,3.09-.65,5.26,5.26,0,0,0-.09-1.05.48.48,0,0,0-.12-.27.5.5,0,0,0-.29-.09,8.87,8.87,0,0,0-3,.27"/><path class="cls-3" d="M230.83,58.23l.09.72a5.84,5.84,0,0,0,.11.73c.15.56.7.48,1.15.42a15.5,15.5,0,0,0,2.78-.61.38.38,0,0,0,.27-.36,3.8,3.8,0,0,0-.14-1.3c-.18-.49-.67-.49-1.12-.51a9.11,9.11,0,0,0-2.7.31.37.37,0,0,0,.2.72,8.64,8.64,0,0,1,2.15-.29l.53,0h.21c.1,0,0,0,0,0a1.33,1.33,0,0,1,.08.49,3.46,3.46,0,0,1,0,.56l.28-.36a14.7,14.7,0,0,1-2.27.54l-.51.07a.92.92,0,0,0-.29,0s-.06,0,0,.05,0,0,0,0c-.08-.39-.11-.8-.16-1.2a.39.39,0,0,0-.38-.37c-.18,0-.4.17-.37.37Z"/><path class="cls-3" d="M231.64,60v.26a.21.21,0,0,0,0,.15.28.28,0,0,0,.08.12.25.25,0,0,0,.12.08.32.32,0,0,0,.14,0l.1,0a.4.4,0,0,0,.17-.09l.05-.08a.33.33,0,0,0,.06-.19V60a.23.23,0,0,0,0-.14.24.24,0,0,0-.07-.12.42.42,0,0,0-.12-.08.4.4,0,0,0-.15,0h-.1a.34.34,0,0,0-.16.1l-.06.07a.34.34,0,0,0-.05.19Z"/><path class="cls-3" d="M232.93,59.53v.9a.39.39,0,0,0,.11.27.44.44,0,0,0,.27.11.38.38,0,0,0,.37-.38v-.9a.39.39,0,0,0-.11-.27.41.41,0,0,0-.26-.11.39.39,0,0,0-.38.38Z"/><path class="cls-3" d="M233.83,59.76a3.65,3.65,0,0,0,.9,1.32.37.37,0,0,0,.53,0,.38.38,0,0,0,0-.53,3.57,3.57,0,0,1-.37-.4l.06.08a3.23,3.23,0,0,1-.42-.72l0,.09v0a.43.43,0,0,0-.18-.22.37.37,0,0,0-.29,0,.41.41,0,0,0-.22.17.42.42,0,0,0,0,.29Z"/><path class="cls-2" d="M217.85,59.4a9,9,0,0,0,.32,1.64c0,.08.05.17.12.2a.33.33,0,0,0,.17,0l2.36-.45a.58.58,0,0,0,.36-.17.51.51,0,0,0,.08-.32,7,7,0,0,0,0-1,.35.35,0,0,0-.12-.28.42.42,0,0,0-.27,0l-2.93.7"/><path class="cls-3" d="M217.47,59.4a8.9,8.9,0,0,0,.19,1.15c.06.32.11.8.41,1a.7.7,0,0,0,.55,0l.59-.11,1.15-.22a2.13,2.13,0,0,0,1-.33,1.3,1.3,0,0,0,.22-1,5.07,5.07,0,0,0,0-.55,1,1,0,0,0-.16-.53c-.27-.38-.74-.2-1.11-.11l-2.54.61a.38.38,0,0,0,.2.73l1.79-.44.88-.21.2,0,.11,0s-.13-.08-.13-.08,0,0,0,0a.43.43,0,0,1,0,0,1.64,1.64,0,0,1,0,.22l0,.42v.23s0,.16,0,.2h-.08l-.47.09-1.78.34-.1,0-.06,0c-.1,0,0,0,.14.09,0,0,0,.06,0,0a.45.45,0,0,0,0-.11c0-.15-.08-.31-.11-.47a8,8,0,0,1-.17-1,.38.38,0,0,0-.75,0Z"/><path class="cls-3" d="M218.41,61.34v.78a.36.36,0,0,0,.11.26.35.35,0,0,0,.27.11.38.38,0,0,0,.37-.37v-.78a.35.35,0,0,0-.11-.26.33.33,0,0,0-.26-.11.37.37,0,0,0-.38.37Z"/><path class="cls-3" d="M219.6,61.44l.13.52a.37.37,0,0,0,.17.22.34.34,0,0,0,.14,0,.37.37,0,0,0,.37-.18.37.37,0,0,0,0-.29l-.13-.52a.39.39,0,0,0-.17-.23.33.33,0,0,0-.14,0,.26.26,0,0,0-.15,0,.34.34,0,0,0-.22.17.37.37,0,0,0,0,.29Z"/><path class="cls-2" d="M221,60.71l.52.64"/><path class="cls-3" d="M220.71,61l.52.65a.38.38,0,0,0,.26.11.37.37,0,0,0,.27-.11.39.39,0,0,0,.11-.27v-.1a.34.34,0,0,0-.1-.16l-.52-.65a.39.39,0,0,0-.27-.11.36.36,0,0,0-.26.11.35.35,0,0,0-.11.27v.1a.39.39,0,0,0,.1.16Z"/><path class="cls-2" d="M219.83,68.05c5.42-.27,10.84-.77,16.22-1.48-.75,1-.25,2.41.17,3.59a21.85,21.85,0,0,1,1.26,6.74.75.75,0,0,1-.07.4.74.74,0,0,1-.54.24q-6.3.81-12.62,1.53a.71.71,0,0,1-.5-.07.64.64,0,0,1-.22-.43l-2.72-11.31"/><path class="cls-3" d="M219.83,68.43Q228,68,236.05,67l-.32-.57a3.51,3.51,0,0,0-.14,3.1,35.48,35.48,0,0,1,1.13,3.94,19.25,19.25,0,0,1,.34,2.5c0,.3.15.84,0,1.1s-.86.23-1.19.28l-4.61.57-4.6.55-1,.12a4.55,4.55,0,0,1-1.36.15c-.64-.17-.68-1.56-.82-2.11l-2.25-9.42a.38.38,0,0,0-.73.2L223,78c.12.49.15,1.13.65,1.38s1.4,0,2-.07l5.29-.63c1.76-.22,3.53-.43,5.29-.66a2.8,2.8,0,0,0,1.34-.3c.44-.35.33-1,.3-1.45a21.85,21.85,0,0,0-.76-4.62c-.39-1.44-1.61-3.45-.7-4.87a.37.37,0,0,0-.32-.56q-8.09,1.06-16.22,1.48c-.48,0-.48.77,0,.75Z"/><path class="cls-2" d="M223.93,68.05a5.2,5.2,0,0,0,.44,2.61l1.23-.16a.33.33,0,0,0,.36-.44l-.33-2.43"/><path class="cls-3" d="M223.55,68.05a5.63,5.63,0,0,0,.5,2.8.38.38,0,0,0,.42.18l1.23-.17a.77.77,0,0,0,.47-.22.71.71,0,0,0,.16-.63c-.11-.83-.23-1.65-.34-2.48a.37.37,0,1,0-.72.2l.28,2.1,0,.24a.28.28,0,0,1,0,.09c0,.06,0,0,0,0l0,0s0,0,0,0l-.08,0-.24,0-1,.14.43.17a4.81,4.81,0,0,1-.4-2.42.37.37,0,0,0-.37-.38.39.39,0,0,0-.38.38Z"/><path class="cls-2" d="M230.37,67.44a2.11,2.11,0,0,0,.29,1.85,1.11,1.11,0,0,0,1.68.07L231.55,67"/><path class="cls-3" d="M230,67.34a2.24,2.24,0,0,0,.79,2.53A1.56,1.56,0,0,0,232,70a1.22,1.22,0,0,0,.54-.34.46.46,0,0,0,.14-.22.49.49,0,0,0,0-.29l-.15-.44-.61-1.82a.39.39,0,0,0-.46-.26.38.38,0,0,0-.26.46l.79,2.35,0-.29c0-.07,0,0,0,0s-.09.07,0,0l-.08,0h0a1.06,1.06,0,0,1-.19.06c.06,0,0,0,0,0h-.21c.1,0,0,0,0,0a.66.66,0,0,1-.2-.06h0a.3.3,0,0,1-.11-.06l-.07,0c.07,0,0,0,0,0l-.07-.07s-.06-.09,0,0a1.07,1.07,0,0,1-.13-.21c0-.07,0,0,0,0l0-.13a2,2,0,0,1-.06-.23s0,0,0,0a.15.15,0,0,1,0-.07.37.37,0,0,1,0-.11V68s0-.07,0-.11a.17.17,0,0,1,0-.07s0,0,0,0a2.21,2.21,0,0,1,0-.25.38.38,0,0,0-.73-.2Z"/><path class="cls-5" d="M160.07,89.17c4-.54,7.82,1.29,11.76,2,2.23.41,4.51.46,6.73.92.75.16,1.49.36,2.25.46a12,12,0,0,0,2.93,0,3,3,0,0,0,.73-.14,3.22,3.22,0,0,0,.87-.6,79,79,0,0,0,6.45-6,24.91,24.91,0,0,1,3.88-3.74,161.48,161.48,0,0,0-20.23-3.87,2.55,2.55,0,0,0-.87,0,2.47,2.47,0,0,0-.74.33c-3.38,2-6,5.08-9.33,7.16a14.83,14.83,0,0,0-3.89,2.78"/><path class="cls-6" d="M179.08,81.9a1.81,1.81,0,0,1,1.85-.1,1.83,1.83,0,0,1,.95,1.58,3.13,3.13,0,0,1-1.31,2.2l2.9,1.55a1.76,1.76,0,0,1,.84.7,1.24,1.24,0,0,1-.37,1.42,3.22,3.22,0,0,1-1.45.6c.57.77,1.91.39,2.57,1.06a1.45,1.45,0,0,1-.31,2,3.87,3.87,0,0,1-2.17.67c-2.28.2-4.57.22-6.86.24a4,4,0,0,1-1.66-.23,1.35,1.35,0,0,1-.86-1.32,1.54,1.54,0,0,1,1.25-1.11c.58-.15,1.19-.13,1.75-.33a23.65,23.65,0,0,1-2.66,0,1.84,1.84,0,0,1-.93-.2c-.73-.44-.55-1.65.13-2.17a4.16,4.16,0,0,1,2.44-.61,3.69,3.69,0,0,0,2.4-.71l-3.05-.07a.48.48,0,0,1-.37-.11.52.52,0,0,1-.07-.44,6.56,6.56,0,0,1,.8-2.73,2.26,2.26,0,0,1,2.43-1.11A5.61,5.61,0,0,1,174,80.66c.57-.34,1.25.13,1.81.5a6,6,0,0,0,3.19,1"/><path class="cls-7" d="M159.69,89c2.89.6,5.88.52,8.82.87,4.5.53,8.86,2.07,13.38,2.23a7.4,7.4,0,0,0,1.82-.11,6.83,6.83,0,0,0,2.18-1c3.46-2.12,6.07-5.35,9-8.16a.55.55,0,0,1,.24-.15c.27-.06.42.31.44.6.18,2.07-.08,4.15,0,6.23.11,3,.94,6,.6,9a1.17,1.17,0,0,1-.16.55,1.32,1.32,0,0,1-.59.44,25,25,0,0,0-2.94,1.56c-2.33,1.55-4,4-6.54,5.24a2.88,2.88,0,0,1-1,.34,4,4,0,0,1-1.54-.21c-4.24-1.1-8.69-1-13-1.78-2.9-.53-5.77-1.49-8.71-1.33-.46,0-1,0-1.23-.4a1.11,1.11,0,0,1-.08-.41l-.5-8.49a32,32,0,0,1,0-4.59"/><path class="cls-8" d="M164.32,96.59a9.68,9.68,0,0,0,5.49,1.62,14.31,14.31,0,0,0,5.63-1.27c-.94,1.36-2.79,1.69-4.44,1.83a10,10,0,0,1-5.12-.56,3.15,3.15,0,0,1-1.64-1.61"/><path class="cls-8" d="M174.37,96.25l1.65-.19a.16.16,0,0,1,.15,0,.15.15,0,0,1,0,.1,3.41,3.41,0,0,1-.36,1.83,7.39,7.39,0,0,0,1.25-2.09.72.72,0,0,0,.06-.43.48.48,0,0,0-.4-.3,1.27,1.27,0,0,0-.51.08,6.22,6.22,0,0,0-1.71.9"/><path class="cls-4" d="M183.45,92.54a56.76,56.76,0,0,0,.49,11.58"/><path class="cls-9" d="M163.66,15.94l45.84,24.8"/><path class="cls-9" d="M147.15,67.34l56.57-3.86"/><path class="cls-9" d="M155.91,38.51q.66,5.09,1.59,10.13a32,32,0,0,0,3.74-4.06"/><path class="cls-9" d="M167.46,38.9a19.25,19.25,0,0,0-1.9,8"/><path class="cls-9" d="M176.72,40.48A17.52,17.52,0,0,1,178.79,44"/><path class="cls-9" d="M173.6,41.35a32.36,32.36,0,0,1-1.16,5.25c1.23.64,3.13.2,3.77,1.44a1.94,1.94,0,0,1-.12,1.75c-.92,1.84-3.17,2.49-5.18,3"/><path class="cls-9" d="M185.29,43.4l-.82,9"/><path class="cls-9" d="M184.68,45.1a3.93,3.93,0,0,1,2.76-.24,17.59,17.59,0,0,0-5.27,4.67l6.56-1.44c.65-.14,1.44-.23,1.85.29a1.81,1.81,0,0,1,.07,1.58l-.29,1.11a3,3,0,0,1-.74,1.5.88.88,0,1,1-.92-1.39,2.86,2.86,0,0,1,1.54-.1l3.07.35"/><path class="cls-9" d="M196.81,50.43a32.17,32.17,0,0,0,8.6-.29"/><g class="cls-10"><path class="cls-11" d="M224.54,107.74a9.15,9.15,0,0,1,2.1-12.4,13.38,13.38,0,0,1,3.52-1.82c2.29-.78,3.13-.28,5,.71A38.22,38.22,0,0,0,240.58,97c1.82.67,3.91.94,5.07,2.77.84,1.32.72,4.42,1,5.9s2.24.77,2-.55c-.85-5.23-.41-7.66-5.4-9.43a30.69,30.69,0,0,1-5.18-2c-1.3-.74-2.24-2.2-3.5-2.86a3.18,3.18,0,0,0-2.88-.37c-8.41,2.19-14.37,10.25-9,18.39.74,1.12,2.56.07,1.81-1.06Z"/></g><g class="cls-10"><path class="cls-11" d="M216,81c3.33,3.44,7.72,4.52,12.43,4,4.51-.46,11-1.7,13.88-5.58.8-1.09-1-2.14-1.81-1.06-2.1,2.84-7.38,3.75-10.71,4.33-4.52.78-9,.18-12.31-3.23-.94-1-2.42.51-1.48,1.49Z"/></g><g class="cls-10"><path class="cls-11" d="M213.07,110.91a13.71,13.71,0,0,0,10.29-.79c1.22-.59.15-2.4-1.06-1.82a11.54,11.54,0,0,1-8.67.59c-1.3-.41-1.85,1.62-.56,2Z"/></g><g class="cls-10"><path class="cls-11" d="M247.37,104.8c-3-.28-3.68,3.22-2.23,5.25,2.08,2.92,6.61,1.89,9.7,1.88a1.05,1.05,0,0,0,0-2.1l-4.35,0a6.82,6.82,0,0,1-2.75-.2c-.56-.26-2.4-2.94-.37-2.75,1.34.12,1.33-2,0-2.1Z"/></g><g class="cls-10"><path class="cls-11" d="M246,80.28c-.3,1.89-.56,4.08.68,5.72a4.18,4.18,0,0,0,5,1.12c2.08-.83,3.2-2.84,4.1-4.78,1.25-2.7,2.35-5.41,2.24-8.43-.05-1.35-2.15-1.35-2.1,0,.12,3-1.14,6-2.55,8.6-.6,1.12-1.91,3.18-3.43,2.89a2.72,2.72,0,0,1-2.05-2.23,10.21,10.21,0,0,1,.17-2.34c.21-1.32-1.82-1.89-2-.55Z"/></g><g class="cls-10"><path class="cls-11" d="M197.49,75.58c-1.24,3.7,1.2,5.84,4.5,6.85a13.36,13.36,0,0,0,6.16.74c2.45-.43,4.42-2.1,6.83-2.67,1.31-.32.75-2.34-.56-2-2,.48-3.57,1.65-5.49,2.29-2.72.92-10.94-.06-9.42-4.63.43-1.28-1.6-1.83-2-.55Z"/></g><g class="cls-10"><path class="cls-11" d="M234.05,67.62l.71,4.54a19.32,19.32,0,0,1,.36,2.26,1.55,1.55,0,0,1-.05,1.08c.07.68-.28,1-1,.82a23.55,23.55,0,0,1-4.18.89l-5.1,1.09c-1.33.28-.77,2.31.55,2l7.43-1.59c1.27-.27,3.35-.28,4.25-1.36.73-.87.39-2.06.24-3.06-.38-2.42-.77-4.84-1.15-7.25-.21-1.34-2.23-.77-2,.55Z"/></g><g class="cls-10"><path class="cls-11" d="M232.67,60.93l2.38-.52a1.07,1.07,0,0,0,.73-1.29,1.08,1.08,0,0,0-1.29-.74l-2.38.53a1,1,0,0,0,.56,2Z"/></g><g class="cls-10"><path class="cls-11" d="M219.47,62.19a6,6,0,0,1,2.09-.46c1.34-.06,1.35-2.16,0-2.1a8.81,8.81,0,0,0-3.15.75,1.06,1.06,0,0,0-.38,1.44,1.08,1.08,0,0,0,1.44.37Z"/></g><g class="cls-10"><path class="cls-11" d="M243.78,77.15a16.46,16.46,0,0,0,3.36,1.8,1.05,1.05,0,0,0,1.29-.73,1.08,1.08,0,0,0-.74-1.29,14.77,14.77,0,0,1-2.85-1.6,1.05,1.05,0,0,0-1.06,1.82Z"/></g><g class="cls-10"><path class="cls-11" d="M238,52c5.49,5.89,8.14,15.62,4.1,23.1-4.64,8.59-18.73,7.54-25.92,3.08-1.15-.71-2.21,1.1-1.06,1.81,7.55,4.69,22.46,6,28-2.46s2.83-20.06-3.66-27c-.92-1-2.4.49-1.48,1.48Z"/></g><g class="cls-10"><path class="cls-11" d="M201.64,76.3a3,3,0,0,0,1.27,1.37,2.88,2.88,0,0,0,1,.33c.12,0,.89,0,.8,0a3.48,3.48,0,0,0,.21.74,3.54,3.54,0,0,0,.47.85,3.93,3.93,0,0,0,1.61,1.3c1.23.53,2.3-1.27,1.06-1.82a2.09,2.09,0,0,1-1.22-1.15,4.31,4.31,0,0,0-.65-1.41c-.84-1-2.22,0-2.78-1.23s-2.38-.16-1.81,1.06Z"/></g><g class="cls-10"><path class="cls-11" d="M161.06,104.42c6.38,1.67,13.09,3.32,19.71,3.71,5.88.36,11.11-5,15.71-8.11,1.11-.75.06-2.57-1.06-1.81-5,3.37-10.14,8.38-16.44,7.61a131.21,131.21,0,0,1-17.36-3.42,1,1,0,0,0-.56,2Z"/></g><g class="cls-10"><path class="cls-11" d="M182.29,93.9a48.72,48.72,0,0,1,1.55,8.65c.11,1.34,2.21,1.35,2.1,0a51.37,51.37,0,0,0-1.63-9.21,1,1,0,0,0-2,.56Z"/></g><g class="cls-10"><path class="cls-11" d="M195,84.12a50.52,50.52,0,0,1,1.72,13.68,1.05,1.05,0,0,0,2.1,0A52.72,52.72,0,0,0,197,83.56a1.05,1.05,0,0,0-2,.56Z"/></g><g class="cls-10"><path class="cls-11" d="M181.11,83.57l-.44.57a1.07,1.07,0,0,0,.21,1.65,5.59,5.59,0,0,1,3.35,4.88c.06,1.35,2.16,1.35,2.1,0A7.67,7.67,0,0,0,181.94,84l.21,1.64.44-.56c.82-1.06-.65-2.56-1.48-1.49Z"/></g></g></g></svg>